<svg xmlns="http://www.w3.org/2000/svg" width="289.806" height="273.774" viewBox="0 0 289.806 273.774">
  <g id="Folder" transform="translate(-52.787 -157.221)">
    <g id="Group_39" data-name="Group 39">
      <g id="Group_25" data-name="Group 25">
        <g id="Group_24" data-name="Group 24">
          <g id="Group_22" data-name="Group 22">
            <path id="Path_29" data-name="Path 29" d="M77.623,430.995H304.47L279.634,274.187H52.787Z" fill="#ffc727"/>
            <path id="Path_30" data-name="Path 30" d="M196.911,257.947h80.152l2.572,16.24H194.878Z" fill="#ffc727"/>
          </g>
          <g id="Group_23" data-name="Group 23" opacity="0.1">
            <path id="Path_31" data-name="Path 31" d="M77.623,430.995H304.47L279.634,274.187H52.787Z"/>
            <path id="Path_32" data-name="Path 32" d="M196.911,257.947h80.152l2.572,16.24H194.878Z"/>
          </g>
        </g>
      </g>
      <g id="Group_35" data-name="Group 35">
        <g id="Group_28" data-name="Group 28">
          <g id="Group_27" data-name="Group 27">
            <path id="Path_33" data-name="Path 33" d="M99.847,286.214l158.993-22.673-15.282-106.32L84.566,179.894Z" fill="#ebebeb"/>
            <path id="Path_34" data-name="Path 34" d="M105.5,278.652,251.3,257.861,237.9,164.784,92.11,185.575Z" fill="#ffc727"/>
            <path id="Path_35" data-name="Path 35" d="M109.767,208.858a14.718,14.718,0,1,0,12.492-16.648A14.718,14.718,0,0,0,109.767,208.858Z" opacity="0.1"/>
            <path id="Path_36" data-name="Path 36" d="M150.792,272.341,251.22,258.02l-59.92-60.9Z" opacity="0.2"/>
            <path id="Path_37" data-name="Path 37" d="M111.429,277.987l82.914-11.824-47.777-38.41Z" fill="#ffc727"/>
            <path id="Path_38" data-name="Path 38" d="M111.429,277.987l82.914-11.824-47.777-38.41Z" opacity="0.1"/>
          </g>
        </g>
        <g id="Group_30" data-name="Group 30">
          <g id="Group_29" data-name="Group 29">
            <path id="Path_39" data-name="Path 39" d="M146.033,286.687l157.929,38.72,25.78-105.654-157.929-38.72Z" fill="#ebebeb"/>
            <path id="Path_40" data-name="Path 40" d="M154.2,281.716l144.818,35.506,22.555-92.5L176.756,189.218Z" fill="#fff"/>
            <path id="Path_41" data-name="Path 41" d="M182.853,221.274a16.224,16.224,0,1,0,19.62-11.894A16.223,16.223,0,0,0,182.853,221.274Z" fill="#dbdbdb"/>
            <path id="Path_42" data-name="Path 42" d="M199.132,292.885l99.755,24.457-33.3-79.836Z" fill="#dbdbdb"/>
            <path id="Path_43" data-name="Path 43" d="M160.02,283.33l82.359,20.192L211.994,249.4Z" fill="#ebebeb"/>
          </g>
        </g>
        <g id="Group_32" data-name="Group 32">
          <g id="Group_31" data-name="Group 31">
            <path id="Path_44" data-name="Path 44" d="M69.867,339.326l146.3-.3-.309-97.847-146.3.3Z" fill="#ebebeb"/>
            <path id="Path_45" data-name="Path 45" d="M75.927,333.22l134.154-.276-.284-85.661-134.154.275Z" fill="#455a64"/>
            <path id="Path_46" data-name="Path 46" d="M87.894,274.24a14.6,14.6,0,1,0,14.566-14.627A14.595,14.595,0,0,0,87.894,274.24Z" fill="#37474f"/>
            <path id="Path_47" data-name="Path 47" d="M117.582,333.268l92.41-.19-46.334-62.534Z" fill="#263238"/>
            <path id="Path_48" data-name="Path 48" d="M81.358,333.372l76.294-.157-38.23-40.7Z" fill="#37474f"/>
          </g>
        </g>
        <g id="Group_34" data-name="Group 34">
          <g id="Group_33" data-name="Group 33">
            <path id="Path_49" data-name="Path 49" d="M190.774,393.417l142.7,13.8,9.121-95.449-142.7-13.8Z" fill="#ebebeb"/>
            <path id="Path_50" data-name="Path 50" d="M197.271,388.047,328.123,400.7l7.972-83.562L205.244,304.484Z" fill="#fff"/>
            <path id="Path_51" data-name="Path 51" d="M214.62,331.683a14.3,14.3,0,1,0,15.614-12.861A14.3,14.3,0,0,0,214.62,331.683Z" fill="#dbdbdb"/>
            <path id="Path_52" data-name="Path 52" d="M237.888,392.105l90.135,8.714-39.162-65.444Z" fill="#dbdbdb"/>
            <path id="Path_53" data-name="Path 53" d="M202.553,388.718l74.416,7.195-33.362-43.376Z" fill="#ebebeb"/>
          </g>
        </g>
      </g>
      <g id="Group_38" data-name="Group 38">
        <g id="Group_37" data-name="Group 37">
          <g id="Group_36" data-name="Group 36">
            <path id="Path_54" data-name="Path 54" d="M77.515,430.995H304.362l17.5-143.8H95.011Z" fill="#ffc727"/>
            <path id="Path_55" data-name="Path 55" d="M243.518,272.3H323.67L321.858,287.2H237.1Z" fill="#ffc727"/>
          </g>
        </g>
      </g>
    </g>
  </g>
</svg>
