<svg xmlns="http://www.w3.org/2000/svg" width="595" height="21" viewBox="0 0 595 21">
  <g id="footer" transform="translate(-71.996 -661.496)">
    <g id="Group_43897" data-name="Group 43897" transform="translate(-3063.227 -3427.309)">
      <g id="Group_43896" data-name="Group 43896" transform="translate(3612.729 4095.228)">
        <path id="Path_61365" data-name="Path 61365" d="M3616.921,4097.854h-5.053a.737.737,0,0,0-.757.721v4.8a.74.74,0,0,0,.757.723h5.053a.74.74,0,0,0,.755-.723v-4.8A.736.736,0,0,0,3616.921,4097.854Zm-1.163.729a.284.284,0,0,1,.055-.08.275.275,0,0,1,.188-.074h.8a.268.268,0,0,1,.079.014.155.155,0,0,1,.048.019.174.174,0,0,1,.053.035.2.2,0,0,1,.042.045.21.21,0,0,1,.037.074.1.1,0,0,1,.006.029.03.03,0,0,1,0,.021v.8c0,.005,0,.011,0,.019s-.006.024-.008.035-.011.024-.016.037a.33.33,0,0,1-.019.032.236.236,0,0,1-.042.045.192.192,0,0,1-.053.034.144.144,0,0,1-.048.019.267.267,0,0,1-.079.013h-.8a.276.276,0,0,1-.188-.074.255.255,0,0,1-.077-.18v-.765a.345.345,0,0,1,.005-.053A.158.158,0,0,1,3615.758,4098.582Zm-2.667,2.1a.659.659,0,0,1,.027-.089,1.33,1.33,0,0,1,1.276-.893,1.374,1.374,0,0,1,.749.218,1.008,1.008,0,0,1,.2.156,1.112,1.112,0,0,1,.164.188,1.216,1.216,0,0,1,0,1.425,1.349,1.349,0,0,1-.363.344,1.231,1.231,0,0,1-.349.159,1.358,1.358,0,0,1-1.345-.315,1.339,1.339,0,0,1-.164-.188l-.056-.087c-.013-.024-.026-.048-.039-.074a.449.449,0,0,1-.04-.085.521.521,0,0,1-.032-.087c-.01-.029-.019-.061-.027-.093a.36.36,0,0,1-.019-.092.626.626,0,0,1-.008-.066.173.173,0,0,1-.005-.021.058.058,0,0,1,0-.032.65.65,0,0,1,0-.077c0-.031,0-.066,0-.1A1.151,1.151,0,0,1,3613.091,4100.685Zm3.97,2.657a.257.257,0,0,0-.016.035.187.187,0,0,1-.051.068.277.277,0,0,1-.188.075h-4.821a.308.308,0,0,1-.129-.029.367.367,0,0,1-.053-.035.322.322,0,0,1-.042-.045.249.249,0,0,1-.045-.144v-2.8h.6a2.087,2.087,0,0,0-.05.246,1.7,1.7,0,0,0-.021.26,1.412,1.412,0,0,0,.013.209c.005.034.008.069.013.1a1.3,1.3,0,0,0,.045.2,1.735,1.735,0,0,0,.061.191c.013.031.024.061.037.089a2.043,2.043,0,0,0,.39.581,1.683,1.683,0,0,0,.146.137.012.012,0,0,0,.01.008,1.639,1.639,0,0,0,.148.117.224.224,0,0,0,.032.021,1.6,1.6,0,0,0,.169.106c.005,0,.008.005.011.005.061.034.124.063.188.092a2.392,2.392,0,0,0,.32.112c.034.007.069.016.106.021a2.183,2.183,0,0,0,.456.047c.048,0,.1,0,.143,0a1.778,1.778,0,0,0,.193-.021.6.6,0,0,0,.1-.016.084.084,0,0,0,.026-.005.779.779,0,0,0,.1-.024,1.706,1.706,0,0,0,.177-.053c.067-.023.127-.048.191-.077.048-.021.093-.044.138-.069s.076-.042.114-.066a2.131,2.131,0,0,0,.336-.262,1.6,1.6,0,0,0,.111-.116c.042-.048.082-.093.119-.144s.058-.08.085-.122a1.357,1.357,0,0,0,.1-.175,1.422,1.422,0,0,0,.082-.182,1.706,1.706,0,0,0,.061-.191,1.753,1.753,0,0,0,.045-.2,1.953,1.953,0,0,0-.016-.694c-.011-.042-.021-.082-.032-.122h.606v2.8a.242.242,0,0,1,0,.04C3617.067,4103.315,3617.064,4103.329,3617.062,4103.342Zm-.141-5.488h-5.053a.737.737,0,0,0-.757.721v4.8a.74.74,0,0,0,.757.723h5.053a.74.74,0,0,0,.755-.723v-4.8A.736.736,0,0,0,3616.921,4097.854Zm-1.163.729a.284.284,0,0,1,.055-.08.275.275,0,0,1,.188-.074h.8a.268.268,0,0,1,.079.014.155.155,0,0,1,.048.019.174.174,0,0,1,.053.035.2.2,0,0,1,.042.045.21.21,0,0,1,.037.074.1.1,0,0,1,.006.029.03.03,0,0,1,0,.021v.8c0,.005,0,.011,0,.019s-.006.024-.008.035-.011.024-.016.037a.33.33,0,0,1-.019.032.236.236,0,0,1-.042.045.192.192,0,0,1-.053.034.144.144,0,0,1-.048.019.267.267,0,0,1-.079.013h-.8a.276.276,0,0,1-.188-.074.255.255,0,0,1-.077-.18v-.765a.345.345,0,0,1,.005-.053A.158.158,0,0,1,3615.758,4098.582Zm-2.667,2.1a.659.659,0,0,1,.027-.089,1.33,1.33,0,0,1,1.276-.893,1.374,1.374,0,0,1,.749.218,1.008,1.008,0,0,1,.2.156,1.112,1.112,0,0,1,.164.188,1.216,1.216,0,0,1,0,1.425,1.349,1.349,0,0,1-.363.344,1.231,1.231,0,0,1-.349.159,1.358,1.358,0,0,1-1.345-.315,1.339,1.339,0,0,1-.164-.188l-.056-.087c-.013-.024-.026-.048-.039-.074a.449.449,0,0,1-.04-.085.521.521,0,0,1-.032-.087c-.01-.029-.019-.061-.027-.093a.36.36,0,0,1-.019-.092.626.626,0,0,1-.008-.066.173.173,0,0,1-.005-.021.058.058,0,0,1,0-.032.65.65,0,0,1,0-.077c0-.031,0-.066,0-.1A1.151,1.151,0,0,1,3613.091,4100.685Zm3.97,2.657a.257.257,0,0,0-.016.035.187.187,0,0,1-.051.068.277.277,0,0,1-.188.075h-4.821a.308.308,0,0,1-.129-.029.367.367,0,0,1-.053-.035.322.322,0,0,1-.042-.045.249.249,0,0,1-.045-.144v-2.8h.6a2.087,2.087,0,0,0-.05.246,1.7,1.7,0,0,0-.021.26,1.412,1.412,0,0,0,.013.209c.005.034.008.069.013.1a1.3,1.3,0,0,0,.045.2,1.735,1.735,0,0,0,.061.191c.013.031.024.061.037.089a2.043,2.043,0,0,0,.39.581,1.683,1.683,0,0,0,.146.137.012.012,0,0,0,.01.008,1.639,1.639,0,0,0,.148.117.224.224,0,0,0,.032.021,1.6,1.6,0,0,0,.169.106c.005,0,.008.005.011.005.061.034.124.063.188.092a2.392,2.392,0,0,0,.32.112c.034.007.069.016.106.021a2.183,2.183,0,0,0,.456.047c.048,0,.1,0,.143,0a1.778,1.778,0,0,0,.193-.021.6.6,0,0,0,.1-.016.084.084,0,0,0,.026-.005.779.779,0,0,0,.1-.024,1.706,1.706,0,0,0,.177-.053c.067-.023.127-.048.191-.077.048-.021.093-.044.138-.069s.076-.042.114-.066a2.131,2.131,0,0,0,.336-.262,1.6,1.6,0,0,0,.111-.116c.042-.048.082-.093.119-.144s.058-.08.085-.122a1.357,1.357,0,0,0,.1-.175,1.422,1.422,0,0,0,.082-.182,1.706,1.706,0,0,0,.061-.191,1.753,1.753,0,0,0,.045-.2,1.953,1.953,0,0,0-.016-.694c-.011-.042-.021-.082-.032-.122h.606v2.8a.242.242,0,0,1,0,.04C3617.067,4103.315,3617.064,4103.329,3617.062,4103.342Zm-.141-5.488h-5.053a.737.737,0,0,0-.757.721v4.8a.74.74,0,0,0,.757.723h5.053a.74.74,0,0,0,.755-.723v-4.8A.736.736,0,0,0,3616.921,4097.854Zm-1.163.729a.284.284,0,0,1,.055-.08.275.275,0,0,1,.188-.074h.8a.268.268,0,0,1,.079.014.155.155,0,0,1,.048.019.174.174,0,0,1,.053.035.2.2,0,0,1,.042.045.21.21,0,0,1,.037.074.1.1,0,0,1,.006.029.03.03,0,0,1,0,.021v.8c0,.005,0,.011,0,.019s-.006.024-.008.035-.011.024-.016.037a.33.33,0,0,1-.019.032.236.236,0,0,1-.042.045.192.192,0,0,1-.053.034.144.144,0,0,1-.048.019.267.267,0,0,1-.079.013h-.8a.276.276,0,0,1-.188-.074.255.255,0,0,1-.077-.18v-.765a.345.345,0,0,1,.005-.053A.158.158,0,0,1,3615.758,4098.582Zm-2.667,2.1a.659.659,0,0,1,.027-.089,1.33,1.33,0,0,1,1.276-.893,1.374,1.374,0,0,1,.749.218,1.008,1.008,0,0,1,.2.156,1.112,1.112,0,0,1,.164.188,1.216,1.216,0,0,1,0,1.425,1.349,1.349,0,0,1-.363.344,1.231,1.231,0,0,1-.349.159,1.358,1.358,0,0,1-1.345-.315,1.339,1.339,0,0,1-.164-.188l-.056-.087c-.013-.024-.026-.048-.039-.074a.449.449,0,0,1-.04-.085.521.521,0,0,1-.032-.087c-.01-.029-.019-.061-.027-.093a.36.36,0,0,1-.019-.092.626.626,0,0,1-.008-.066.173.173,0,0,1-.005-.021.058.058,0,0,1,0-.032.65.65,0,0,1,0-.077c0-.031,0-.066,0-.1A1.151,1.151,0,0,1,3613.091,4100.685Zm3.97,2.657a.257.257,0,0,0-.016.035.187.187,0,0,1-.051.068.277.277,0,0,1-.188.075h-4.821a.308.308,0,0,1-.129-.029.367.367,0,0,1-.053-.035.322.322,0,0,1-.042-.045.249.249,0,0,1-.045-.144v-2.8h.6a2.087,2.087,0,0,0-.05.246,1.7,1.7,0,0,0-.021.26,1.412,1.412,0,0,0,.013.209c.005.034.008.069.013.1a1.3,1.3,0,0,0,.045.2,1.735,1.735,0,0,0,.061.191c.013.031.024.061.037.089a2.043,2.043,0,0,0,.39.581,1.683,1.683,0,0,0,.146.137.012.012,0,0,0,.01.008,1.639,1.639,0,0,0,.148.117.224.224,0,0,0,.032.021,1.6,1.6,0,0,0,.169.106c.005,0,.008.005.011.005.061.034.124.063.188.092a2.392,2.392,0,0,0,.32.112c.034.007.069.016.106.021a2.183,2.183,0,0,0,.456.047c.048,0,.1,0,.143,0a1.778,1.778,0,0,0,.193-.021.6.6,0,0,0,.1-.016.084.084,0,0,0,.026-.005.779.779,0,0,0,.1-.024,1.706,1.706,0,0,0,.177-.053c.067-.023.127-.048.191-.077.048-.021.093-.044.138-.069s.076-.042.114-.066a2.131,2.131,0,0,0,.336-.262,1.6,1.6,0,0,0,.111-.116c.042-.048.082-.093.119-.144s.058-.08.085-.122a1.357,1.357,0,0,0,.1-.175,1.422,1.422,0,0,0,.082-.182,1.706,1.706,0,0,0,.061-.191,1.753,1.753,0,0,0,.045-.2,1.953,1.953,0,0,0-.016-.694c-.011-.042-.021-.082-.032-.122h.606v2.8a.242.242,0,0,1,0,.04C3617.067,4103.315,3617.064,4103.329,3617.062,4103.342Zm-.141-5.488h-5.053a.737.737,0,0,0-.757.721v4.8a.74.74,0,0,0,.757.723h5.053a.74.74,0,0,0,.755-.723v-4.8A.736.736,0,0,0,3616.921,4097.854Zm-1.163.729a.284.284,0,0,1,.055-.08.275.275,0,0,1,.188-.074h.8a.268.268,0,0,1,.079.014.155.155,0,0,1,.048.019.174.174,0,0,1,.053.035.2.2,0,0,1,.042.045.21.21,0,0,1,.037.074.1.1,0,0,1,.006.029.03.03,0,0,1,0,.021v.8c0,.005,0,.011,0,.019s-.006.024-.008.035-.011.024-.016.037a.33.33,0,0,1-.019.032.236.236,0,0,1-.042.045.192.192,0,0,1-.053.034.144.144,0,0,1-.048.019.267.267,0,0,1-.079.013h-.8a.276.276,0,0,1-.188-.074.255.255,0,0,1-.077-.18v-.765a.345.345,0,0,1,.005-.053A.158.158,0,0,1,3615.758,4098.582Zm-2.667,2.1a.659.659,0,0,1,.027-.089,1.33,1.33,0,0,1,1.276-.893,1.374,1.374,0,0,1,.749.218,1.008,1.008,0,0,1,.2.156,1.112,1.112,0,0,1,.164.188,1.216,1.216,0,0,1,0,1.425,1.349,1.349,0,0,1-.363.344,1.231,1.231,0,0,1-.349.159,1.358,1.358,0,0,1-1.345-.315,1.339,1.339,0,0,1-.164-.188l-.056-.087c-.013-.024-.026-.048-.039-.074a.449.449,0,0,1-.04-.085.521.521,0,0,1-.032-.087c-.01-.029-.019-.061-.027-.093a.36.36,0,0,1-.019-.092.626.626,0,0,1-.008-.066.173.173,0,0,1-.005-.021.058.058,0,0,1,0-.032.65.65,0,0,1,0-.077c0-.031,0-.066,0-.1A1.151,1.151,0,0,1,3613.091,4100.685Zm3.97,2.657a.257.257,0,0,0-.016.035.187.187,0,0,1-.051.068.277.277,0,0,1-.188.075h-4.821a.308.308,0,0,1-.129-.029.367.367,0,0,1-.053-.035.322.322,0,0,1-.042-.045.249.249,0,0,1-.045-.144v-2.8h.6a2.087,2.087,0,0,0-.05.246,1.7,1.7,0,0,0-.021.26,1.412,1.412,0,0,0,.013.209c.005.034.008.069.013.1a1.3,1.3,0,0,0,.045.2,1.735,1.735,0,0,0,.061.191c.013.031.024.061.037.089a2.043,2.043,0,0,0,.39.581,1.683,1.683,0,0,0,.146.137.012.012,0,0,0,.01.008,1.639,1.639,0,0,0,.148.117.224.224,0,0,0,.032.021,1.6,1.6,0,0,0,.169.106c.005,0,.008.005.011.005.061.034.124.063.188.092a2.392,2.392,0,0,0,.32.112c.034.007.069.016.106.021a2.183,2.183,0,0,0,.456.047c.048,0,.1,0,.143,0a1.778,1.778,0,0,0,.193-.021.6.6,0,0,0,.1-.016.084.084,0,0,0,.026-.005.779.779,0,0,0,.1-.024,1.706,1.706,0,0,0,.177-.053c.067-.023.127-.048.191-.077.048-.021.093-.044.138-.069s.076-.042.114-.066a2.131,2.131,0,0,0,.336-.262,1.6,1.6,0,0,0,.111-.116c.042-.048.082-.093.119-.144s.058-.08.085-.122a1.357,1.357,0,0,0,.1-.175,1.422,1.422,0,0,0,.082-.182,1.706,1.706,0,0,0,.061-.191,1.753,1.753,0,0,0,.045-.2,1.953,1.953,0,0,0-.016-.694c-.011-.042-.021-.082-.032-.122h.606v2.8a.242.242,0,0,1,0,.04C3617.067,4103.315,3617.064,4103.329,3617.062,4103.342Zm-.141-5.488h-5.053a.737.737,0,0,0-.757.721v4.8a.74.74,0,0,0,.757.723h5.053a.74.74,0,0,0,.755-.723v-4.8A.736.736,0,0,0,3616.921,4097.854Zm-1.163.729a.284.284,0,0,1,.055-.08.275.275,0,0,1,.188-.074h.8a.268.268,0,0,1,.079.014.155.155,0,0,1,.048.019.174.174,0,0,1,.053.035.2.2,0,0,1,.042.045.21.21,0,0,1,.037.074.1.1,0,0,1,.006.029.03.03,0,0,1,0,.021v.8c0,.005,0,.011,0,.019s-.006.024-.008.035-.011.024-.016.037a.33.33,0,0,1-.019.032.236.236,0,0,1-.042.045.192.192,0,0,1-.053.034.144.144,0,0,1-.048.019.267.267,0,0,1-.079.013h-.8a.276.276,0,0,1-.188-.074.255.255,0,0,1-.077-.18v-.765a.345.345,0,0,1,.005-.053A.158.158,0,0,1,3615.758,4098.582Zm-2.667,2.1a.659.659,0,0,1,.027-.089,1.33,1.33,0,0,1,1.276-.893,1.374,1.374,0,0,1,.749.218,1.008,1.008,0,0,1,.2.156,1.112,1.112,0,0,1,.164.188,1.216,1.216,0,0,1,0,1.425,1.349,1.349,0,0,1-.363.344,1.231,1.231,0,0,1-.349.159,1.358,1.358,0,0,1-1.345-.315,1.339,1.339,0,0,1-.164-.188l-.056-.087c-.013-.024-.026-.048-.039-.074a.449.449,0,0,1-.04-.085.521.521,0,0,1-.032-.087c-.01-.029-.019-.061-.027-.093a.36.36,0,0,1-.019-.092.626.626,0,0,1-.008-.066.173.173,0,0,1-.005-.021.058.058,0,0,1,0-.032.65.65,0,0,1,0-.077c0-.031,0-.066,0-.1A1.151,1.151,0,0,1,3613.091,4100.685Zm3.97,2.657a.257.257,0,0,0-.016.035.187.187,0,0,1-.051.068.277.277,0,0,1-.188.075h-4.821a.308.308,0,0,1-.129-.029.367.367,0,0,1-.053-.035.322.322,0,0,1-.042-.045.249.249,0,0,1-.045-.144v-2.8h.6a2.087,2.087,0,0,0-.05.246,1.7,1.7,0,0,0-.021.26,1.412,1.412,0,0,0,.013.209c.005.034.008.069.013.1a1.3,1.3,0,0,0,.045.2,1.735,1.735,0,0,0,.061.191c.013.031.024.061.037.089a2.043,2.043,0,0,0,.39.581,1.683,1.683,0,0,0,.146.137.012.012,0,0,0,.01.008,1.639,1.639,0,0,0,.148.117.224.224,0,0,0,.032.021,1.6,1.6,0,0,0,.169.106c.005,0,.008.005.011.005.061.034.124.063.188.092a2.392,2.392,0,0,0,.32.112c.034.007.069.016.106.021a2.183,2.183,0,0,0,.456.047c.048,0,.1,0,.143,0a1.778,1.778,0,0,0,.193-.021.6.6,0,0,0,.1-.016.084.084,0,0,0,.026-.005.779.779,0,0,0,.1-.024,1.706,1.706,0,0,0,.177-.053c.067-.023.127-.048.191-.077.048-.021.093-.044.138-.069s.076-.042.114-.066a2.131,2.131,0,0,0,.336-.262,1.6,1.6,0,0,0,.111-.116c.042-.048.082-.093.119-.144s.058-.08.085-.122a1.357,1.357,0,0,0,.1-.175,1.422,1.422,0,0,0,.082-.182,1.706,1.706,0,0,0,.061-.191,1.753,1.753,0,0,0,.045-.2,1.953,1.953,0,0,0-.016-.694c-.011-.042-.021-.082-.032-.122h.606v2.8a.242.242,0,0,1,0,.04C3617.067,4103.315,3617.064,4103.329,3617.062,4103.342Zm-.141-5.488h-5.053a.737.737,0,0,0-.757.721v4.8a.74.74,0,0,0,.757.723h5.053a.74.74,0,0,0,.755-.723v-4.8A.736.736,0,0,0,3616.921,4097.854Zm-1.163.729a.284.284,0,0,1,.055-.08.275.275,0,0,1,.188-.074h.8a.268.268,0,0,1,.079.014.155.155,0,0,1,.048.019.174.174,0,0,1,.053.035.2.2,0,0,1,.042.045.21.21,0,0,1,.037.074.1.1,0,0,1,.006.029.03.03,0,0,1,0,.021v.8c0,.005,0,.011,0,.019s-.006.024-.008.035-.011.024-.016.037a.33.33,0,0,1-.019.032.236.236,0,0,1-.042.045.192.192,0,0,1-.053.034.144.144,0,0,1-.048.019.267.267,0,0,1-.079.013h-.8a.276.276,0,0,1-.188-.074.255.255,0,0,1-.077-.18v-.765a.345.345,0,0,1,.005-.053A.158.158,0,0,1,3615.758,4098.582Zm-2.667,2.1a.659.659,0,0,1,.027-.089,1.33,1.33,0,0,1,1.276-.893,1.374,1.374,0,0,1,.749.218,1.008,1.008,0,0,1,.2.156,1.112,1.112,0,0,1,.164.188,1.216,1.216,0,0,1,0,1.425,1.349,1.349,0,0,1-.363.344,1.231,1.231,0,0,1-.349.159,1.358,1.358,0,0,1-1.345-.315,1.339,1.339,0,0,1-.164-.188l-.056-.087c-.013-.024-.026-.048-.039-.074a.449.449,0,0,1-.04-.085.521.521,0,0,1-.032-.087c-.01-.029-.019-.061-.027-.093a.36.36,0,0,1-.019-.092.626.626,0,0,1-.008-.066.173.173,0,0,1-.005-.021.058.058,0,0,1,0-.032.65.65,0,0,1,0-.077c0-.031,0-.066,0-.1A1.151,1.151,0,0,1,3613.091,4100.685Zm3.97,2.657a.257.257,0,0,0-.016.035.187.187,0,0,1-.051.068.277.277,0,0,1-.188.075h-4.821a.308.308,0,0,1-.129-.029.367.367,0,0,1-.053-.035.322.322,0,0,1-.042-.045.249.249,0,0,1-.045-.144v-2.8h.6a2.087,2.087,0,0,0-.05.246,1.7,1.7,0,0,0-.021.26,1.412,1.412,0,0,0,.013.209c.005.034.008.069.013.1a1.3,1.3,0,0,0,.045.2,1.735,1.735,0,0,0,.061.191c.013.031.024.061.037.089a2.043,2.043,0,0,0,.39.581,1.683,1.683,0,0,0,.146.137.012.012,0,0,0,.01.008,1.639,1.639,0,0,0,.148.117.224.224,0,0,0,.032.021,1.6,1.6,0,0,0,.169.106c.005,0,.008.005.011.005.061.034.124.063.188.092a2.392,2.392,0,0,0,.32.112c.034.007.069.016.106.021a2.183,2.183,0,0,0,.456.047c.048,0,.1,0,.143,0a1.778,1.778,0,0,0,.193-.021.6.6,0,0,0,.1-.016.084.084,0,0,0,.026-.005.779.779,0,0,0,.1-.024,1.706,1.706,0,0,0,.177-.053c.067-.023.127-.048.191-.077.048-.021.093-.044.138-.069s.076-.042.114-.066a2.131,2.131,0,0,0,.336-.262,1.6,1.6,0,0,0,.111-.116c.042-.048.082-.093.119-.144s.058-.08.085-.122a1.357,1.357,0,0,0,.1-.175,1.422,1.422,0,0,0,.082-.182,1.706,1.706,0,0,0,.061-.191,1.753,1.753,0,0,0,.045-.2,1.953,1.953,0,0,0-.016-.694c-.011-.042-.021-.082-.032-.122h.606v2.8a.242.242,0,0,1,0,.04C3617.067,4103.315,3617.064,4103.329,3617.062,4103.342Zm-.141-5.488h-5.053a.737.737,0,0,0-.757.721v4.8a.74.74,0,0,0,.757.723h5.053a.74.74,0,0,0,.755-.723v-4.8A.736.736,0,0,0,3616.921,4097.854Zm-1.163.729a.284.284,0,0,1,.055-.08.275.275,0,0,1,.188-.074h.8a.268.268,0,0,1,.079.014.155.155,0,0,1,.048.019.174.174,0,0,1,.053.035.2.2,0,0,1,.042.045.21.21,0,0,1,.037.074.1.1,0,0,1,.006.029.03.03,0,0,1,0,.021v.8c0,.005,0,.011,0,.019s-.006.024-.008.035-.011.024-.016.037a.33.33,0,0,1-.019.032.236.236,0,0,1-.042.045.192.192,0,0,1-.053.034.144.144,0,0,1-.048.019.267.267,0,0,1-.079.013h-.8a.276.276,0,0,1-.188-.074.255.255,0,0,1-.077-.18v-.765a.345.345,0,0,1,.005-.053A.158.158,0,0,1,3615.758,4098.582Zm-2.667,2.1a.659.659,0,0,1,.027-.089,1.33,1.33,0,0,1,1.276-.893,1.374,1.374,0,0,1,.749.218,1.008,1.008,0,0,1,.2.156,1.112,1.112,0,0,1,.164.188,1.216,1.216,0,0,1,0,1.425,1.349,1.349,0,0,1-.363.344,1.231,1.231,0,0,1-.349.159,1.358,1.358,0,0,1-1.345-.315,1.339,1.339,0,0,1-.164-.188l-.056-.087c-.013-.024-.026-.048-.039-.074a.449.449,0,0,1-.04-.085.521.521,0,0,1-.032-.087c-.01-.029-.019-.061-.027-.093a.36.36,0,0,1-.019-.092.626.626,0,0,1-.008-.066.173.173,0,0,1-.005-.021.058.058,0,0,1,0-.032.65.65,0,0,1,0-.077c0-.031,0-.066,0-.1A1.151,1.151,0,0,1,3613.091,4100.685Zm3.97,2.657a.257.257,0,0,0-.016.035.187.187,0,0,1-.051.068.277.277,0,0,1-.188.075h-4.821a.308.308,0,0,1-.129-.029.367.367,0,0,1-.053-.035.322.322,0,0,1-.042-.045.249.249,0,0,1-.045-.144v-2.8h.6a2.087,2.087,0,0,0-.05.246,1.7,1.7,0,0,0-.021.26,1.412,1.412,0,0,0,.013.209c.005.034.008.069.013.1a1.3,1.3,0,0,0,.045.2,1.735,1.735,0,0,0,.061.191c.013.031.024.061.037.089a2.043,2.043,0,0,0,.39.581,1.683,1.683,0,0,0,.146.137.012.012,0,0,0,.01.008,1.639,1.639,0,0,0,.148.117.224.224,0,0,0,.032.021,1.6,1.6,0,0,0,.169.106c.005,0,.008.005.011.005.061.034.124.063.188.092a2.392,2.392,0,0,0,.32.112c.034.007.069.016.106.021a2.183,2.183,0,0,0,.456.047c.048,0,.1,0,.143,0a1.778,1.778,0,0,0,.193-.021.6.6,0,0,0,.1-.016.084.084,0,0,0,.026-.005.779.779,0,0,0,.1-.024,1.706,1.706,0,0,0,.177-.053c.067-.023.127-.048.191-.077.048-.021.093-.044.138-.069s.076-.042.114-.066a2.131,2.131,0,0,0,.336-.262,1.6,1.6,0,0,0,.111-.116c.042-.048.082-.093.119-.144s.058-.08.085-.122a1.357,1.357,0,0,0,.1-.175,1.422,1.422,0,0,0,.082-.182,1.706,1.706,0,0,0,.061-.191,1.753,1.753,0,0,0,.045-.2,1.953,1.953,0,0,0-.016-.694c-.011-.042-.021-.082-.032-.122h.606v2.8a.242.242,0,0,1,0,.04C3617.067,4103.315,3617.064,4103.329,3617.062,4103.342Zm-.141-5.488h-5.053a.737.737,0,0,0-.757.721v4.8a.74.74,0,0,0,.757.723h5.053a.74.74,0,0,0,.755-.723v-4.8A.736.736,0,0,0,3616.921,4097.854Zm-1.163.729a.284.284,0,0,1,.055-.08.275.275,0,0,1,.188-.074h.8a.268.268,0,0,1,.079.014.155.155,0,0,1,.048.019.174.174,0,0,1,.053.035.2.2,0,0,1,.042.045.21.21,0,0,1,.037.074.1.1,0,0,1,.006.029.03.03,0,0,1,0,.021v.8c0,.005,0,.011,0,.019s-.006.024-.008.035-.011.024-.016.037a.33.33,0,0,1-.019.032.236.236,0,0,1-.042.045.192.192,0,0,1-.053.034.144.144,0,0,1-.048.019.267.267,0,0,1-.079.013h-.8a.276.276,0,0,1-.188-.074.255.255,0,0,1-.077-.18v-.765a.345.345,0,0,1,.005-.053A.158.158,0,0,1,3615.758,4098.582Zm-2.667,2.1a.659.659,0,0,1,.027-.089,1.33,1.33,0,0,1,1.276-.893,1.374,1.374,0,0,1,.749.218,1.008,1.008,0,0,1,.2.156,1.112,1.112,0,0,1,.164.188,1.216,1.216,0,0,1,0,1.425,1.349,1.349,0,0,1-.363.344,1.231,1.231,0,0,1-.349.159,1.358,1.358,0,0,1-1.345-.315,1.339,1.339,0,0,1-.164-.188l-.056-.087c-.013-.024-.026-.048-.039-.074a.449.449,0,0,1-.04-.085.521.521,0,0,1-.032-.087c-.01-.029-.019-.061-.027-.093a.36.36,0,0,1-.019-.092.626.626,0,0,1-.008-.066.173.173,0,0,1-.005-.021.058.058,0,0,1,0-.032.65.65,0,0,1,0-.077c0-.031,0-.066,0-.1A1.151,1.151,0,0,1,3613.091,4100.685Zm3.97,2.657a.257.257,0,0,0-.016.035.187.187,0,0,1-.051.068.277.277,0,0,1-.188.075h-4.821a.308.308,0,0,1-.129-.029.367.367,0,0,1-.053-.035.322.322,0,0,1-.042-.045.249.249,0,0,1-.045-.144v-2.8h.6a2.087,2.087,0,0,0-.05.246,1.7,1.7,0,0,0-.021.26,1.412,1.412,0,0,0,.013.209c.005.034.008.069.013.1a1.3,1.3,0,0,0,.045.2,1.735,1.735,0,0,0,.061.191c.013.031.024.061.037.089a2.043,2.043,0,0,0,.39.581,1.683,1.683,0,0,0,.146.137.012.012,0,0,0,.01.008,1.639,1.639,0,0,0,.148.117.224.224,0,0,0,.032.021,1.6,1.6,0,0,0,.169.106c.005,0,.008.005.011.005.061.034.124.063.188.092a2.392,2.392,0,0,0,.32.112c.034.007.069.016.106.021a2.183,2.183,0,0,0,.456.047c.048,0,.1,0,.143,0a1.778,1.778,0,0,0,.193-.021.6.6,0,0,0,.1-.016.084.084,0,0,0,.026-.005.779.779,0,0,0,.1-.024,1.706,1.706,0,0,0,.177-.053c.067-.023.127-.048.191-.077.048-.021.093-.044.138-.069s.076-.042.114-.066a2.131,2.131,0,0,0,.336-.262,1.6,1.6,0,0,0,.111-.116c.042-.048.082-.093.119-.144s.058-.08.085-.122a1.357,1.357,0,0,0,.1-.175,1.422,1.422,0,0,0,.082-.182,1.706,1.706,0,0,0,.061-.191,1.753,1.753,0,0,0,.045-.2,1.953,1.953,0,0,0-.016-.694c-.011-.042-.021-.082-.032-.122h.606v2.8a.242.242,0,0,1,0,.04C3617.067,4103.315,3617.064,4103.329,3617.062,4103.342Zm-.141-5.488h-5.053a.737.737,0,0,0-.757.721v4.8a.74.74,0,0,0,.757.723h5.053a.74.74,0,0,0,.755-.723v-4.8A.736.736,0,0,0,3616.921,4097.854Zm-1.163.729a.284.284,0,0,1,.055-.08.275.275,0,0,1,.188-.074h.8a.268.268,0,0,1,.079.014.155.155,0,0,1,.048.019.174.174,0,0,1,.053.035.2.2,0,0,1,.042.045.21.21,0,0,1,.037.074.1.1,0,0,1,.006.029.03.03,0,0,1,0,.021v.8c0,.005,0,.011,0,.019s-.006.024-.008.035-.011.024-.016.037a.33.33,0,0,1-.019.032.236.236,0,0,1-.042.045.192.192,0,0,1-.053.034.144.144,0,0,1-.048.019.267.267,0,0,1-.079.013h-.8a.276.276,0,0,1-.188-.074.255.255,0,0,1-.077-.18v-.765a.345.345,0,0,1,.005-.053A.158.158,0,0,1,3615.758,4098.582Zm-2.667,2.1a.659.659,0,0,1,.027-.089,1.33,1.33,0,0,1,1.276-.893,1.374,1.374,0,0,1,.749.218,1.008,1.008,0,0,1,.2.156,1.112,1.112,0,0,1,.164.188,1.216,1.216,0,0,1,0,1.425,1.349,1.349,0,0,1-.363.344,1.231,1.231,0,0,1-.349.159,1.358,1.358,0,0,1-1.345-.315,1.339,1.339,0,0,1-.164-.188l-.056-.087c-.013-.024-.026-.048-.039-.074a.449.449,0,0,1-.04-.085.521.521,0,0,1-.032-.087c-.01-.029-.019-.061-.027-.093a.36.36,0,0,1-.019-.092.626.626,0,0,1-.008-.066.173.173,0,0,1-.005-.021.058.058,0,0,1,0-.032.65.65,0,0,1,0-.077c0-.031,0-.066,0-.1A1.151,1.151,0,0,1,3613.091,4100.685Zm3.97,2.657a.257.257,0,0,0-.016.035.187.187,0,0,1-.051.068.277.277,0,0,1-.188.075h-4.821a.308.308,0,0,1-.129-.029.367.367,0,0,1-.053-.035.322.322,0,0,1-.042-.045.249.249,0,0,1-.045-.144v-2.8h.6a2.087,2.087,0,0,0-.05.246,1.7,1.7,0,0,0-.021.26,1.412,1.412,0,0,0,.013.209c.005.034.008.069.013.1a1.3,1.3,0,0,0,.045.2,1.735,1.735,0,0,0,.061.191c.013.031.024.061.037.089a2.043,2.043,0,0,0,.39.581,1.683,1.683,0,0,0,.146.137.012.012,0,0,0,.01.008,1.639,1.639,0,0,0,.148.117.224.224,0,0,0,.032.021,1.6,1.6,0,0,0,.169.106c.005,0,.008.005.011.005.061.034.124.063.188.092a2.392,2.392,0,0,0,.32.112c.034.007.069.016.106.021a2.183,2.183,0,0,0,.456.047c.048,0,.1,0,.143,0a1.778,1.778,0,0,0,.193-.021.6.6,0,0,0,.1-.016.084.084,0,0,0,.026-.005.779.779,0,0,0,.1-.024,1.706,1.706,0,0,0,.177-.053c.067-.023.127-.048.191-.077.048-.021.093-.044.138-.069s.076-.042.114-.066a2.131,2.131,0,0,0,.336-.262,1.6,1.6,0,0,0,.111-.116c.042-.048.082-.093.119-.144s.058-.08.085-.122a1.357,1.357,0,0,0,.1-.175,1.422,1.422,0,0,0,.082-.182,1.706,1.706,0,0,0,.061-.191,1.753,1.753,0,0,0,.045-.2,1.953,1.953,0,0,0-.016-.694c-.011-.042-.021-.082-.032-.122h.606v2.8a.242.242,0,0,1,0,.04C3617.067,4103.315,3617.064,4103.329,3617.062,4103.342Zm-.141-5.488h-5.053a.737.737,0,0,0-.757.721v4.8a.74.74,0,0,0,.757.723h5.053a.74.74,0,0,0,.755-.723v-4.8A.736.736,0,0,0,3616.921,4097.854Zm-1.163.729a.284.284,0,0,1,.055-.08.275.275,0,0,1,.188-.074h.8a.268.268,0,0,1,.079.014.155.155,0,0,1,.048.019.174.174,0,0,1,.053.035.2.2,0,0,1,.042.045.21.21,0,0,1,.037.074.1.1,0,0,1,.006.029.03.03,0,0,1,0,.021v.8c0,.005,0,.011,0,.019s-.006.024-.008.035-.011.024-.016.037a.33.33,0,0,1-.019.032.236.236,0,0,1-.042.045.192.192,0,0,1-.053.034.144.144,0,0,1-.048.019.267.267,0,0,1-.079.013h-.8a.276.276,0,0,1-.188-.074.255.255,0,0,1-.077-.18v-.765a.345.345,0,0,1,.005-.053A.158.158,0,0,1,3615.758,4098.582Zm-2.667,2.1a.659.659,0,0,1,.027-.089,1.33,1.33,0,0,1,1.276-.893,1.374,1.374,0,0,1,.749.218,1.008,1.008,0,0,1,.2.156,1.112,1.112,0,0,1,.164.188,1.216,1.216,0,0,1,0,1.425,1.349,1.349,0,0,1-.363.344,1.231,1.231,0,0,1-.349.159,1.358,1.358,0,0,1-1.345-.315,1.339,1.339,0,0,1-.164-.188l-.056-.087c-.013-.024-.026-.048-.039-.074a.449.449,0,0,1-.04-.085.521.521,0,0,1-.032-.087c-.01-.029-.019-.061-.027-.093a.36.36,0,0,1-.019-.092.626.626,0,0,1-.008-.066.173.173,0,0,1-.005-.021.058.058,0,0,1,0-.032.65.65,0,0,1,0-.077c0-.031,0-.066,0-.1A1.151,1.151,0,0,1,3613.091,4100.685Zm3.97,2.657a.257.257,0,0,0-.016.035.187.187,0,0,1-.051.068.277.277,0,0,1-.188.075h-4.821a.308.308,0,0,1-.129-.029.367.367,0,0,1-.053-.035.322.322,0,0,1-.042-.045.249.249,0,0,1-.045-.144v-2.8h.6a2.087,2.087,0,0,0-.05.246,1.7,1.7,0,0,0-.021.26,1.412,1.412,0,0,0,.013.209c.005.034.008.069.013.1a1.3,1.3,0,0,0,.045.2,1.735,1.735,0,0,0,.061.191c.013.031.024.061.037.089a2.043,2.043,0,0,0,.39.581,1.683,1.683,0,0,0,.146.137.012.012,0,0,0,.01.008,1.639,1.639,0,0,0,.148.117.224.224,0,0,0,.032.021,1.6,1.6,0,0,0,.169.106c.005,0,.008.005.011.005.061.034.124.063.188.092a2.392,2.392,0,0,0,.32.112c.034.007.069.016.106.021a2.183,2.183,0,0,0,.456.047c.048,0,.1,0,.143,0a1.778,1.778,0,0,0,.193-.021.6.6,0,0,0,.1-.016.084.084,0,0,0,.026-.005.779.779,0,0,0,.1-.024,1.706,1.706,0,0,0,.177-.053c.067-.023.127-.048.191-.077.048-.021.093-.044.138-.069s.076-.042.114-.066a2.131,2.131,0,0,0,.336-.262,1.6,1.6,0,0,0,.111-.116c.042-.048.082-.093.119-.144s.058-.08.085-.122a1.357,1.357,0,0,0,.1-.175,1.422,1.422,0,0,0,.082-.182,1.706,1.706,0,0,0,.061-.191,1.753,1.753,0,0,0,.045-.2,1.953,1.953,0,0,0-.016-.694c-.011-.042-.021-.082-.032-.122h.606v2.8a.242.242,0,0,1,0,.04C3617.067,4103.315,3617.064,4103.329,3617.062,4103.342Zm-.141-5.488h-5.053a.737.737,0,0,0-.757.721v4.8a.74.74,0,0,0,.757.723h5.053a.74.74,0,0,0,.755-.723v-4.8A.736.736,0,0,0,3616.921,4097.854Zm-1.163.729a.284.284,0,0,1,.055-.08.275.275,0,0,1,.188-.074h.8a.268.268,0,0,1,.079.014.155.155,0,0,1,.048.019.174.174,0,0,1,.053.035.2.2,0,0,1,.042.045.21.21,0,0,1,.037.074.1.1,0,0,1,.006.029.03.03,0,0,1,0,.021v.8c0,.005,0,.011,0,.019s-.006.024-.008.035-.011.024-.016.037a.33.33,0,0,1-.019.032.236.236,0,0,1-.042.045.192.192,0,0,1-.053.034.144.144,0,0,1-.048.019.267.267,0,0,1-.079.013h-.8a.276.276,0,0,1-.188-.074.255.255,0,0,1-.077-.18v-.765a.345.345,0,0,1,.005-.053A.158.158,0,0,1,3615.758,4098.582Zm-2.667,2.1a.659.659,0,0,1,.027-.089,1.33,1.33,0,0,1,1.276-.893,1.374,1.374,0,0,1,.749.218,1.008,1.008,0,0,1,.2.156,1.112,1.112,0,0,1,.164.188,1.216,1.216,0,0,1,0,1.425,1.349,1.349,0,0,1-.363.344,1.231,1.231,0,0,1-.349.159,1.358,1.358,0,0,1-1.345-.315,1.339,1.339,0,0,1-.164-.188l-.056-.087c-.013-.024-.026-.048-.039-.074a.449.449,0,0,1-.04-.085.521.521,0,0,1-.032-.087c-.01-.029-.019-.061-.027-.093a.36.36,0,0,1-.019-.092.626.626,0,0,1-.008-.066.173.173,0,0,1-.005-.021.058.058,0,0,1,0-.032.65.65,0,0,1,0-.077c0-.031,0-.066,0-.1A1.151,1.151,0,0,1,3613.091,4100.685Zm3.97,2.657a.257.257,0,0,0-.016.035.187.187,0,0,1-.051.068.277.277,0,0,1-.188.075h-4.821a.308.308,0,0,1-.129-.029.367.367,0,0,1-.053-.035.322.322,0,0,1-.042-.045.249.249,0,0,1-.045-.144v-2.8h.6a2.087,2.087,0,0,0-.05.246,1.7,1.7,0,0,0-.021.26,1.412,1.412,0,0,0,.013.209c.005.034.008.069.013.1a1.3,1.3,0,0,0,.045.2,1.735,1.735,0,0,0,.061.191c.013.031.024.061.037.089a2.043,2.043,0,0,0,.39.581,1.683,1.683,0,0,0,.146.137.012.012,0,0,0,.01.008,1.639,1.639,0,0,0,.148.117.224.224,0,0,0,.032.021,1.6,1.6,0,0,0,.169.106c.005,0,.008.005.011.005.061.034.124.063.188.092a2.392,2.392,0,0,0,.32.112c.034.007.069.016.106.021a2.183,2.183,0,0,0,.456.047c.048,0,.1,0,.143,0a1.778,1.778,0,0,0,.193-.021.6.6,0,0,0,.1-.016.084.084,0,0,0,.026-.005.779.779,0,0,0,.1-.024,1.706,1.706,0,0,0,.177-.053c.067-.023.127-.048.191-.077.048-.021.093-.044.138-.069s.076-.042.114-.066a2.131,2.131,0,0,0,.336-.262,1.6,1.6,0,0,0,.111-.116c.042-.048.082-.093.119-.144s.058-.08.085-.122a1.357,1.357,0,0,0,.1-.175,1.422,1.422,0,0,0,.082-.182,1.706,1.706,0,0,0,.061-.191,1.753,1.753,0,0,0,.045-.2,1.953,1.953,0,0,0-.016-.694c-.011-.042-.021-.082-.032-.122h.606v2.8a.242.242,0,0,1,0,.04C3617.067,4103.315,3617.064,4103.329,3617.062,4103.342Zm-.141-5.488h-5.053a.737.737,0,0,0-.757.721v4.8a.74.74,0,0,0,.757.723h5.053a.74.74,0,0,0,.755-.723v-4.8A.736.736,0,0,0,3616.921,4097.854Zm-1.163.729a.284.284,0,0,1,.055-.08.275.275,0,0,1,.188-.074h.8a.268.268,0,0,1,.079.014.155.155,0,0,1,.048.019.174.174,0,0,1,.053.035.2.2,0,0,1,.042.045.21.21,0,0,1,.037.074.1.1,0,0,1,.006.029.03.03,0,0,1,0,.021v.8c0,.005,0,.011,0,.019s-.006.024-.008.035-.011.024-.016.037a.33.33,0,0,1-.019.032.236.236,0,0,1-.042.045.192.192,0,0,1-.053.034.144.144,0,0,1-.048.019.267.267,0,0,1-.079.013h-.8a.276.276,0,0,1-.188-.074.255.255,0,0,1-.077-.18v-.765a.345.345,0,0,1,.005-.053A.158.158,0,0,1,3615.758,4098.582Zm-2.667,2.1a.659.659,0,0,1,.027-.089,1.33,1.33,0,0,1,1.276-.893,1.374,1.374,0,0,1,.749.218,1.008,1.008,0,0,1,.2.156,1.112,1.112,0,0,1,.164.188,1.216,1.216,0,0,1,0,1.425,1.349,1.349,0,0,1-.363.344,1.231,1.231,0,0,1-.349.159,1.358,1.358,0,0,1-1.345-.315,1.339,1.339,0,0,1-.164-.188l-.056-.087c-.013-.024-.026-.048-.039-.074a.449.449,0,0,1-.04-.085.521.521,0,0,1-.032-.087c-.01-.029-.019-.061-.027-.093a.36.36,0,0,1-.019-.092.626.626,0,0,1-.008-.066.173.173,0,0,1-.005-.021.058.058,0,0,1,0-.032.65.65,0,0,1,0-.077c0-.031,0-.066,0-.1A1.151,1.151,0,0,1,3613.091,4100.685Zm3.97,2.657a.257.257,0,0,0-.016.035.187.187,0,0,1-.051.068.277.277,0,0,1-.188.075h-4.821a.308.308,0,0,1-.129-.029.367.367,0,0,1-.053-.035.322.322,0,0,1-.042-.045.249.249,0,0,1-.045-.144v-2.8h.6a2.087,2.087,0,0,0-.05.246,1.7,1.7,0,0,0-.021.26,1.412,1.412,0,0,0,.013.209c.005.034.008.069.013.1a1.3,1.3,0,0,0,.045.2,1.735,1.735,0,0,0,.061.191c.013.031.024.061.037.089a2.043,2.043,0,0,0,.39.581,1.683,1.683,0,0,0,.146.137.012.012,0,0,0,.01.008,1.639,1.639,0,0,0,.148.117.224.224,0,0,0,.032.021,1.6,1.6,0,0,0,.169.106c.005,0,.008.005.011.005.061.034.124.063.188.092a2.392,2.392,0,0,0,.32.112c.034.007.069.016.106.021a2.183,2.183,0,0,0,.456.047c.048,0,.1,0,.143,0a1.778,1.778,0,0,0,.193-.021.6.6,0,0,0,.1-.016.084.084,0,0,0,.026-.005.779.779,0,0,0,.1-.024,1.706,1.706,0,0,0,.177-.053c.067-.023.127-.048.191-.077.048-.021.093-.044.138-.069s.076-.042.114-.066a2.131,2.131,0,0,0,.336-.262,1.6,1.6,0,0,0,.111-.116c.042-.048.082-.093.119-.144s.058-.08.085-.122a1.357,1.357,0,0,0,.1-.175,1.422,1.422,0,0,0,.082-.182,1.706,1.706,0,0,0,.061-.191,1.753,1.753,0,0,0,.045-.2,1.953,1.953,0,0,0-.016-.694c-.011-.042-.021-.082-.032-.122h.606v2.8a.242.242,0,0,1,0,.04C3617.067,4103.315,3617.064,4103.329,3617.062,4103.342Zm-2.665-8.534a6.17,6.17,0,1,0,6.166,6.166A6.171,6.171,0,0,0,3614.4,4094.808Zm3.936,9.911h-7.879v-7.485h7.879Zm-6.465-.62h5.053a.74.74,0,0,0,.755-.723v-4.8a.736.736,0,0,0-.755-.721h-5.053a.737.737,0,0,0-.757.721v4.8A.74.74,0,0,0,3611.867,4104.1Zm3.891-5.517a.284.284,0,0,1,.055-.08.275.275,0,0,1,.188-.074h.8a.268.268,0,0,1,.079.014.155.155,0,0,1,.048.019.174.174,0,0,1,.053.035.2.2,0,0,1,.042.045.21.21,0,0,1,.037.074.1.1,0,0,1,.006.029.03.03,0,0,1,0,.021v.8c0,.005,0,.011,0,.019s-.006.024-.008.035-.011.024-.016.037a.33.33,0,0,1-.019.032.236.236,0,0,1-.042.045.192.192,0,0,1-.053.034.144.144,0,0,1-.048.019.267.267,0,0,1-.079.013h-.8a.276.276,0,0,1-.188-.074.255.255,0,0,1-.077-.18v-.765a.345.345,0,0,1,.005-.053A.158.158,0,0,1,3615.758,4098.582Zm-2.667,2.1a.659.659,0,0,1,.027-.089,1.33,1.33,0,0,1,1.276-.893,1.374,1.374,0,0,1,.749.218,1.008,1.008,0,0,1,.2.156,1.112,1.112,0,0,1,.164.188,1.216,1.216,0,0,1,0,1.425,1.349,1.349,0,0,1-.363.344,1.231,1.231,0,0,1-.349.159,1.358,1.358,0,0,1-1.345-.315,1.339,1.339,0,0,1-.164-.188l-.056-.087c-.013-.024-.026-.048-.039-.074a.449.449,0,0,1-.04-.085.521.521,0,0,1-.032-.087c-.01-.029-.019-.061-.027-.093a.36.36,0,0,1-.019-.092.626.626,0,0,1-.008-.066.173.173,0,0,1-.005-.021.058.058,0,0,1,0-.032.65.65,0,0,1,0-.077c0-.031,0-.066,0-.1A1.151,1.151,0,0,1,3613.091,4100.685Zm-1.375-.216h.6a2.087,2.087,0,0,0-.05.246,1.7,1.7,0,0,0-.021.26,1.412,1.412,0,0,0,.013.209c.005.034.008.069.013.1a1.3,1.3,0,0,0,.045.2,1.735,1.735,0,0,0,.061.191c.013.031.024.061.037.089a2.043,2.043,0,0,0,.39.581,1.683,1.683,0,0,0,.146.137.012.012,0,0,0,.01.008,1.639,1.639,0,0,0,.148.117.224.224,0,0,0,.032.021,1.6,1.6,0,0,0,.169.106c.005,0,.008.005.011.005.061.034.124.063.188.092a2.392,2.392,0,0,0,.32.112c.034.007.069.016.106.021a2.183,2.183,0,0,0,.456.047c.048,0,.1,0,.143,0a1.778,1.778,0,0,0,.193-.021.6.6,0,0,0,.1-.016.084.084,0,0,0,.026-.005.779.779,0,0,0,.1-.024,1.706,1.706,0,0,0,.177-.053c.067-.023.127-.048.191-.077.048-.021.093-.044.138-.069s.076-.042.114-.066a2.131,2.131,0,0,0,.336-.262,1.6,1.6,0,0,0,.111-.116c.042-.048.082-.093.119-.144s.058-.08.085-.122a1.357,1.357,0,0,0,.1-.175,1.422,1.422,0,0,0,.082-.182,1.706,1.706,0,0,0,.061-.191,1.753,1.753,0,0,0,.045-.2,1.953,1.953,0,0,0-.016-.694c-.011-.042-.021-.082-.032-.122h.606v2.8a.242.242,0,0,1,0,.04c0,.011-.006.024-.008.037a.257.257,0,0,0-.016.035.187.187,0,0,1-.051.068.277.277,0,0,1-.188.075h-4.821a.308.308,0,0,1-.129-.029.367.367,0,0,1-.053-.035.322.322,0,0,1-.042-.045.249.249,0,0,1-.045-.144Zm5.2-2.615h-5.053a.737.737,0,0,0-.757.721v4.8a.74.74,0,0,0,.757.723h5.053a.74.74,0,0,0,.755-.723v-4.8A.736.736,0,0,0,3616.921,4097.854Zm-1.163.729a.284.284,0,0,1,.055-.08.275.275,0,0,1,.188-.074h.8a.268.268,0,0,1,.079.014.155.155,0,0,1,.048.019.174.174,0,0,1,.053.035.2.2,0,0,1,.042.045.21.21,0,0,1,.037.074.1.1,0,0,1,.006.029.03.03,0,0,1,0,.021v.8c0,.005,0,.011,0,.019s-.006.024-.008.035-.011.024-.016.037a.33.33,0,0,1-.019.032.236.236,0,0,1-.042.045.192.192,0,0,1-.053.034.144.144,0,0,1-.048.019.267.267,0,0,1-.079.013h-.8a.276.276,0,0,1-.188-.074.255.255,0,0,1-.077-.18v-.765a.345.345,0,0,1,.005-.053A.158.158,0,0,1,3615.758,4098.582Zm-2.667,2.1a.659.659,0,0,1,.027-.089,1.33,1.33,0,0,1,1.276-.893,1.374,1.374,0,0,1,.749.218,1.008,1.008,0,0,1,.2.156,1.112,1.112,0,0,1,.164.188,1.216,1.216,0,0,1,0,1.425,1.349,1.349,0,0,1-.363.344,1.231,1.231,0,0,1-.349.159,1.358,1.358,0,0,1-1.345-.315,1.339,1.339,0,0,1-.164-.188l-.056-.087c-.013-.024-.026-.048-.039-.074a.449.449,0,0,1-.04-.085.521.521,0,0,1-.032-.087c-.01-.029-.019-.061-.027-.093a.36.36,0,0,1-.019-.092.626.626,0,0,1-.008-.066.173.173,0,0,1-.005-.021.058.058,0,0,1,0-.032.65.65,0,0,1,0-.077c0-.031,0-.066,0-.1A1.151,1.151,0,0,1,3613.091,4100.685Zm3.97,2.657a.257.257,0,0,0-.016.035.187.187,0,0,1-.051.068.277.277,0,0,1-.188.075h-4.821a.308.308,0,0,1-.129-.029.367.367,0,0,1-.053-.035.322.322,0,0,1-.042-.045.249.249,0,0,1-.045-.144v-2.8h.6a2.087,2.087,0,0,0-.05.246,1.7,1.7,0,0,0-.021.26,1.412,1.412,0,0,0,.013.209c.005.034.008.069.013.1a1.3,1.3,0,0,0,.045.2,1.735,1.735,0,0,0,.061.191c.013.031.024.061.037.089a2.043,2.043,0,0,0,.39.581,1.683,1.683,0,0,0,.146.137.012.012,0,0,0,.01.008,1.639,1.639,0,0,0,.148.117.224.224,0,0,0,.032.021,1.6,1.6,0,0,0,.169.106c.005,0,.008.005.011.005.061.034.124.063.188.092a2.392,2.392,0,0,0,.32.112c.034.007.069.016.106.021a2.183,2.183,0,0,0,.456.047c.048,0,.1,0,.143,0a1.778,1.778,0,0,0,.193-.021.6.6,0,0,0,.1-.016.084.084,0,0,0,.026-.005.779.779,0,0,0,.1-.024,1.706,1.706,0,0,0,.177-.053c.067-.023.127-.048.191-.077.048-.021.093-.044.138-.069s.076-.042.114-.066a2.131,2.131,0,0,0,.336-.262,1.6,1.6,0,0,0,.111-.116c.042-.048.082-.093.119-.144s.058-.08.085-.122a1.357,1.357,0,0,0,.1-.175,1.422,1.422,0,0,0,.082-.182,1.706,1.706,0,0,0,.061-.191,1.753,1.753,0,0,0,.045-.2,1.953,1.953,0,0,0-.016-.694c-.011-.042-.021-.082-.032-.122h.606v2.8a.242.242,0,0,1,0,.04C3617.067,4103.315,3617.064,4103.329,3617.062,4103.342Zm-.141-5.488h-5.053a.737.737,0,0,0-.757.721v4.8a.74.74,0,0,0,.757.723h5.053a.74.74,0,0,0,.755-.723v-4.8A.736.736,0,0,0,3616.921,4097.854Zm-1.163.729a.284.284,0,0,1,.055-.08.275.275,0,0,1,.188-.074h.8a.268.268,0,0,1,.079.014.155.155,0,0,1,.048.019.174.174,0,0,1,.053.035.2.2,0,0,1,.042.045.21.21,0,0,1,.037.074.1.1,0,0,1,.006.029.03.03,0,0,1,0,.021v.8c0,.005,0,.011,0,.019s-.006.024-.008.035-.011.024-.016.037a.33.33,0,0,1-.019.032.236.236,0,0,1-.042.045.192.192,0,0,1-.053.034.144.144,0,0,1-.048.019.267.267,0,0,1-.079.013h-.8a.276.276,0,0,1-.188-.074.255.255,0,0,1-.077-.18v-.765a.345.345,0,0,1,.005-.053A.158.158,0,0,1,3615.758,4098.582Zm-2.667,2.1a.659.659,0,0,1,.027-.089,1.33,1.33,0,0,1,1.276-.893,1.374,1.374,0,0,1,.749.218,1.008,1.008,0,0,1,.2.156,1.112,1.112,0,0,1,.164.188,1.216,1.216,0,0,1,0,1.425,1.349,1.349,0,0,1-.363.344,1.231,1.231,0,0,1-.349.159,1.358,1.358,0,0,1-1.345-.315,1.339,1.339,0,0,1-.164-.188l-.056-.087c-.013-.024-.026-.048-.039-.074a.449.449,0,0,1-.04-.085.521.521,0,0,1-.032-.087c-.01-.029-.019-.061-.027-.093a.36.36,0,0,1-.019-.092.626.626,0,0,1-.008-.066.173.173,0,0,1-.005-.021.058.058,0,0,1,0-.032.65.65,0,0,1,0-.077c0-.031,0-.066,0-.1A1.151,1.151,0,0,1,3613.091,4100.685Zm3.97,2.657a.257.257,0,0,0-.016.035.187.187,0,0,1-.051.068.277.277,0,0,1-.188.075h-4.821a.308.308,0,0,1-.129-.029.367.367,0,0,1-.053-.035.322.322,0,0,1-.042-.045.249.249,0,0,1-.045-.144v-2.8h.6a2.087,2.087,0,0,0-.05.246,1.7,1.7,0,0,0-.021.26,1.412,1.412,0,0,0,.013.209c.005.034.008.069.013.1a1.3,1.3,0,0,0,.045.2,1.735,1.735,0,0,0,.061.191c.013.031.024.061.037.089a2.043,2.043,0,0,0,.39.581,1.683,1.683,0,0,0,.146.137.012.012,0,0,0,.01.008,1.639,1.639,0,0,0,.148.117.224.224,0,0,0,.032.021,1.6,1.6,0,0,0,.169.106c.005,0,.008.005.011.005.061.034.124.063.188.092a2.392,2.392,0,0,0,.32.112c.034.007.069.016.106.021a2.183,2.183,0,0,0,.456.047c.048,0,.1,0,.143,0a1.778,1.778,0,0,0,.193-.021.6.6,0,0,0,.1-.016.084.084,0,0,0,.026-.005.779.779,0,0,0,.1-.024,1.706,1.706,0,0,0,.177-.053c.067-.023.127-.048.191-.077.048-.021.093-.044.138-.069s.076-.042.114-.066a2.131,2.131,0,0,0,.336-.262,1.6,1.6,0,0,0,.111-.116c.042-.048.082-.093.119-.144s.058-.08.085-.122a1.357,1.357,0,0,0,.1-.175,1.422,1.422,0,0,0,.082-.182,1.706,1.706,0,0,0,.061-.191,1.753,1.753,0,0,0,.045-.2,1.953,1.953,0,0,0-.016-.694c-.011-.042-.021-.082-.032-.122h.606v2.8a.242.242,0,0,1,0,.04C3617.067,4103.315,3617.064,4103.329,3617.062,4103.342Zm-.141-5.488h-5.053a.737.737,0,0,0-.757.721v4.8a.74.74,0,0,0,.757.723h5.053a.74.74,0,0,0,.755-.723v-4.8A.736.736,0,0,0,3616.921,4097.854Zm-1.163.729a.284.284,0,0,1,.055-.08.275.275,0,0,1,.188-.074h.8a.268.268,0,0,1,.079.014.155.155,0,0,1,.048.019.174.174,0,0,1,.053.035.2.2,0,0,1,.042.045.21.21,0,0,1,.037.074.1.1,0,0,1,.006.029.03.03,0,0,1,0,.021v.8c0,.005,0,.011,0,.019s-.006.024-.008.035-.011.024-.016.037a.33.33,0,0,1-.019.032.236.236,0,0,1-.042.045.192.192,0,0,1-.053.034.144.144,0,0,1-.048.019.267.267,0,0,1-.079.013h-.8a.276.276,0,0,1-.188-.074.255.255,0,0,1-.077-.18v-.765a.345.345,0,0,1,.005-.053A.158.158,0,0,1,3615.758,4098.582Zm-2.667,2.1a.659.659,0,0,1,.027-.089,1.33,1.33,0,0,1,1.276-.893,1.374,1.374,0,0,1,.749.218,1.008,1.008,0,0,1,.2.156,1.112,1.112,0,0,1,.164.188,1.216,1.216,0,0,1,0,1.425,1.349,1.349,0,0,1-.363.344,1.231,1.231,0,0,1-.349.159,1.358,1.358,0,0,1-1.345-.315,1.339,1.339,0,0,1-.164-.188l-.056-.087c-.013-.024-.026-.048-.039-.074a.449.449,0,0,1-.04-.085.521.521,0,0,1-.032-.087c-.01-.029-.019-.061-.027-.093a.36.36,0,0,1-.019-.092.626.626,0,0,1-.008-.066.173.173,0,0,1-.005-.021.058.058,0,0,1,0-.032.65.65,0,0,1,0-.077c0-.031,0-.066,0-.1A1.151,1.151,0,0,1,3613.091,4100.685Zm3.97,2.657a.257.257,0,0,0-.016.035.187.187,0,0,1-.051.068.277.277,0,0,1-.188.075h-4.821a.308.308,0,0,1-.129-.029.367.367,0,0,1-.053-.035.322.322,0,0,1-.042-.045.249.249,0,0,1-.045-.144v-2.8h.6a2.087,2.087,0,0,0-.05.246,1.7,1.7,0,0,0-.021.26,1.412,1.412,0,0,0,.013.209c.005.034.008.069.013.1a1.3,1.3,0,0,0,.045.2,1.735,1.735,0,0,0,.061.191c.013.031.024.061.037.089a2.043,2.043,0,0,0,.39.581,1.683,1.683,0,0,0,.146.137.012.012,0,0,0,.01.008,1.639,1.639,0,0,0,.148.117.224.224,0,0,0,.032.021,1.6,1.6,0,0,0,.169.106c.005,0,.008.005.011.005.061.034.124.063.188.092a2.392,2.392,0,0,0,.32.112c.034.007.069.016.106.021a2.183,2.183,0,0,0,.456.047c.048,0,.1,0,.143,0a1.778,1.778,0,0,0,.193-.021.6.6,0,0,0,.1-.016.084.084,0,0,0,.026-.005.779.779,0,0,0,.1-.024,1.706,1.706,0,0,0,.177-.053c.067-.023.127-.048.191-.077.048-.021.093-.044.138-.069s.076-.042.114-.066a2.131,2.131,0,0,0,.336-.262,1.6,1.6,0,0,0,.111-.116c.042-.048.082-.093.119-.144s.058-.08.085-.122a1.357,1.357,0,0,0,.1-.175,1.422,1.422,0,0,0,.082-.182,1.706,1.706,0,0,0,.061-.191,1.753,1.753,0,0,0,.045-.2,1.953,1.953,0,0,0-.016-.694c-.011-.042-.021-.082-.032-.122h.606v2.8a.242.242,0,0,1,0,.04C3617.067,4103.315,3617.064,4103.329,3617.062,4103.342Zm-.141-5.488h-5.053a.737.737,0,0,0-.757.721v4.8a.74.74,0,0,0,.757.723h5.053a.74.74,0,0,0,.755-.723v-4.8A.736.736,0,0,0,3616.921,4097.854Zm-1.163.729a.284.284,0,0,1,.055-.08.275.275,0,0,1,.188-.074h.8a.268.268,0,0,1,.079.014.155.155,0,0,1,.048.019.174.174,0,0,1,.053.035.2.2,0,0,1,.042.045.21.21,0,0,1,.037.074.1.1,0,0,1,.006.029.03.03,0,0,1,0,.021v.8c0,.005,0,.011,0,.019s-.006.024-.008.035-.011.024-.016.037a.33.33,0,0,1-.019.032.236.236,0,0,1-.042.045.192.192,0,0,1-.053.034.144.144,0,0,1-.048.019.267.267,0,0,1-.079.013h-.8a.276.276,0,0,1-.188-.074.255.255,0,0,1-.077-.18v-.765a.345.345,0,0,1,.005-.053A.158.158,0,0,1,3615.758,4098.582Zm-2.667,2.1a.659.659,0,0,1,.027-.089,1.33,1.33,0,0,1,1.276-.893,1.374,1.374,0,0,1,.749.218,1.008,1.008,0,0,1,.2.156,1.112,1.112,0,0,1,.164.188,1.216,1.216,0,0,1,0,1.425,1.349,1.349,0,0,1-.363.344,1.231,1.231,0,0,1-.349.159,1.358,1.358,0,0,1-1.345-.315,1.339,1.339,0,0,1-.164-.188l-.056-.087c-.013-.024-.026-.048-.039-.074a.449.449,0,0,1-.04-.085.521.521,0,0,1-.032-.087c-.01-.029-.019-.061-.027-.093a.36.36,0,0,1-.019-.092.626.626,0,0,1-.008-.066.173.173,0,0,1-.005-.021.058.058,0,0,1,0-.032.65.65,0,0,1,0-.077c0-.031,0-.066,0-.1A1.151,1.151,0,0,1,3613.091,4100.685Zm3.97,2.657a.257.257,0,0,0-.016.035.187.187,0,0,1-.051.068.277.277,0,0,1-.188.075h-4.821a.308.308,0,0,1-.129-.029.367.367,0,0,1-.053-.035.322.322,0,0,1-.042-.045.249.249,0,0,1-.045-.144v-2.8h.6a2.087,2.087,0,0,0-.05.246,1.7,1.7,0,0,0-.021.26,1.412,1.412,0,0,0,.013.209c.005.034.008.069.013.1a1.3,1.3,0,0,0,.045.2,1.735,1.735,0,0,0,.061.191c.013.031.024.061.037.089a2.043,2.043,0,0,0,.39.581,1.683,1.683,0,0,0,.146.137.012.012,0,0,0,.01.008,1.639,1.639,0,0,0,.148.117.224.224,0,0,0,.032.021,1.6,1.6,0,0,0,.169.106c.005,0,.008.005.011.005.061.034.124.063.188.092a2.392,2.392,0,0,0,.32.112c.034.007.069.016.106.021a2.183,2.183,0,0,0,.456.047c.048,0,.1,0,.143,0a1.778,1.778,0,0,0,.193-.021.6.6,0,0,0,.1-.016.084.084,0,0,0,.026-.005.779.779,0,0,0,.1-.024,1.706,1.706,0,0,0,.177-.053c.067-.023.127-.048.191-.077.048-.021.093-.044.138-.069s.076-.042.114-.066a2.131,2.131,0,0,0,.336-.262,1.6,1.6,0,0,0,.111-.116c.042-.048.082-.093.119-.144s.058-.08.085-.122a1.357,1.357,0,0,0,.1-.175,1.422,1.422,0,0,0,.082-.182,1.706,1.706,0,0,0,.061-.191,1.753,1.753,0,0,0,.045-.2,1.953,1.953,0,0,0-.016-.694c-.011-.042-.021-.082-.032-.122h.606v2.8a.242.242,0,0,1,0,.04C3617.067,4103.315,3617.064,4103.329,3617.062,4103.342Zm-.141-5.488h-5.053a.737.737,0,0,0-.757.721v4.8a.74.74,0,0,0,.757.723h5.053a.74.74,0,0,0,.755-.723v-4.8A.736.736,0,0,0,3616.921,4097.854Zm-1.163.729a.284.284,0,0,1,.055-.08.275.275,0,0,1,.188-.074h.8a.268.268,0,0,1,.079.014.155.155,0,0,1,.048.019.174.174,0,0,1,.053.035.2.2,0,0,1,.042.045.21.21,0,0,1,.037.074.1.1,0,0,1,.006.029.03.03,0,0,1,0,.021v.8c0,.005,0,.011,0,.019s-.006.024-.008.035-.011.024-.016.037a.33.33,0,0,1-.019.032.236.236,0,0,1-.042.045.192.192,0,0,1-.053.034.144.144,0,0,1-.048.019.267.267,0,0,1-.079.013h-.8a.276.276,0,0,1-.188-.074.255.255,0,0,1-.077-.18v-.765a.345.345,0,0,1,.005-.053A.158.158,0,0,1,3615.758,4098.582Zm-2.667,2.1a.659.659,0,0,1,.027-.089,1.33,1.33,0,0,1,1.276-.893,1.374,1.374,0,0,1,.749.218,1.008,1.008,0,0,1,.2.156,1.112,1.112,0,0,1,.164.188,1.216,1.216,0,0,1,0,1.425,1.349,1.349,0,0,1-.363.344,1.231,1.231,0,0,1-.349.159,1.358,1.358,0,0,1-1.345-.315,1.339,1.339,0,0,1-.164-.188l-.056-.087c-.013-.024-.026-.048-.039-.074a.449.449,0,0,1-.04-.085.521.521,0,0,1-.032-.087c-.01-.029-.019-.061-.027-.093a.36.36,0,0,1-.019-.092.626.626,0,0,1-.008-.066.173.173,0,0,1-.005-.021.058.058,0,0,1,0-.032.65.65,0,0,1,0-.077c0-.031,0-.066,0-.1A1.151,1.151,0,0,1,3613.091,4100.685Zm3.97,2.657a.257.257,0,0,0-.016.035.187.187,0,0,1-.051.068.277.277,0,0,1-.188.075h-4.821a.308.308,0,0,1-.129-.029.367.367,0,0,1-.053-.035.322.322,0,0,1-.042-.045.249.249,0,0,1-.045-.144v-2.8h.6a2.087,2.087,0,0,0-.05.246,1.7,1.7,0,0,0-.021.26,1.412,1.412,0,0,0,.013.209c.005.034.008.069.013.1a1.3,1.3,0,0,0,.045.2,1.735,1.735,0,0,0,.061.191c.013.031.024.061.037.089a2.043,2.043,0,0,0,.39.581,1.683,1.683,0,0,0,.146.137.012.012,0,0,0,.01.008,1.639,1.639,0,0,0,.148.117.224.224,0,0,0,.032.021,1.6,1.6,0,0,0,.169.106c.005,0,.008.005.011.005.061.034.124.063.188.092a2.392,2.392,0,0,0,.32.112c.034.007.069.016.106.021a2.183,2.183,0,0,0,.456.047c.048,0,.1,0,.143,0a1.778,1.778,0,0,0,.193-.021.6.6,0,0,0,.1-.016.084.084,0,0,0,.026-.005.779.779,0,0,0,.1-.024,1.706,1.706,0,0,0,.177-.053c.067-.023.127-.048.191-.077.048-.021.093-.044.138-.069s.076-.042.114-.066a2.131,2.131,0,0,0,.336-.262,1.6,1.6,0,0,0,.111-.116c.042-.048.082-.093.119-.144s.058-.08.085-.122a1.357,1.357,0,0,0,.1-.175,1.422,1.422,0,0,0,.082-.182,1.706,1.706,0,0,0,.061-.191,1.753,1.753,0,0,0,.045-.2,1.953,1.953,0,0,0-.016-.694c-.011-.042-.021-.082-.032-.122h.606v2.8a.242.242,0,0,1,0,.04C3617.067,4103.315,3617.064,4103.329,3617.062,4103.342Zm-.141-5.488h-5.053a.737.737,0,0,0-.757.721v4.8a.74.74,0,0,0,.757.723h5.053a.74.74,0,0,0,.755-.723v-4.8A.736.736,0,0,0,3616.921,4097.854Zm-1.163.729a.284.284,0,0,1,.055-.08.275.275,0,0,1,.188-.074h.8a.268.268,0,0,1,.079.014.155.155,0,0,1,.048.019.174.174,0,0,1,.053.035.2.2,0,0,1,.042.045.21.21,0,0,1,.037.074.1.1,0,0,1,.006.029.03.03,0,0,1,0,.021v.8c0,.005,0,.011,0,.019s-.006.024-.008.035-.011.024-.016.037a.33.33,0,0,1-.019.032.236.236,0,0,1-.042.045.192.192,0,0,1-.053.034.144.144,0,0,1-.048.019.267.267,0,0,1-.079.013h-.8a.276.276,0,0,1-.188-.074.255.255,0,0,1-.077-.18v-.765a.345.345,0,0,1,.005-.053A.158.158,0,0,1,3615.758,4098.582Zm-2.667,2.1a.659.659,0,0,1,.027-.089,1.33,1.33,0,0,1,1.276-.893,1.374,1.374,0,0,1,.749.218,1.008,1.008,0,0,1,.2.156,1.112,1.112,0,0,1,.164.188,1.216,1.216,0,0,1,0,1.425,1.349,1.349,0,0,1-.363.344,1.231,1.231,0,0,1-.349.159,1.358,1.358,0,0,1-1.345-.315,1.339,1.339,0,0,1-.164-.188l-.056-.087c-.013-.024-.026-.048-.039-.074a.449.449,0,0,1-.04-.085.521.521,0,0,1-.032-.087c-.01-.029-.019-.061-.027-.093a.36.36,0,0,1-.019-.092.626.626,0,0,1-.008-.066.173.173,0,0,1-.005-.021.058.058,0,0,1,0-.032.65.65,0,0,1,0-.077c0-.031,0-.066,0-.1A1.151,1.151,0,0,1,3613.091,4100.685Zm3.97,2.657a.257.257,0,0,0-.016.035.187.187,0,0,1-.051.068.277.277,0,0,1-.188.075h-4.821a.308.308,0,0,1-.129-.029.367.367,0,0,1-.053-.035.322.322,0,0,1-.042-.045.249.249,0,0,1-.045-.144v-2.8h.6a2.087,2.087,0,0,0-.05.246,1.7,1.7,0,0,0-.021.26,1.412,1.412,0,0,0,.013.209c.005.034.008.069.013.1a1.3,1.3,0,0,0,.045.2,1.735,1.735,0,0,0,.061.191c.013.031.024.061.037.089a2.043,2.043,0,0,0,.39.581,1.683,1.683,0,0,0,.146.137.012.012,0,0,0,.01.008,1.639,1.639,0,0,0,.148.117.224.224,0,0,0,.032.021,1.6,1.6,0,0,0,.169.106c.005,0,.008.005.011.005.061.034.124.063.188.092a2.392,2.392,0,0,0,.32.112c.034.007.069.016.106.021a2.183,2.183,0,0,0,.456.047c.048,0,.1,0,.143,0a1.778,1.778,0,0,0,.193-.021.6.6,0,0,0,.1-.016.084.084,0,0,0,.026-.005.779.779,0,0,0,.1-.024,1.706,1.706,0,0,0,.177-.053c.067-.023.127-.048.191-.077.048-.021.093-.044.138-.069s.076-.042.114-.066a2.131,2.131,0,0,0,.336-.262,1.6,1.6,0,0,0,.111-.116c.042-.048.082-.093.119-.144s.058-.08.085-.122a1.357,1.357,0,0,0,.1-.175,1.422,1.422,0,0,0,.082-.182,1.706,1.706,0,0,0,.061-.191,1.753,1.753,0,0,0,.045-.2,1.953,1.953,0,0,0-.016-.694c-.011-.042-.021-.082-.032-.122h.606v2.8a.242.242,0,0,1,0,.04C3617.067,4103.315,3617.064,4103.329,3617.062,4103.342Zm-.141-5.488h-5.053a.737.737,0,0,0-.757.721v4.8a.74.74,0,0,0,.757.723h5.053a.74.74,0,0,0,.755-.723v-4.8A.736.736,0,0,0,3616.921,4097.854Zm-1.163.729a.284.284,0,0,1,.055-.08.275.275,0,0,1,.188-.074h.8a.268.268,0,0,1,.079.014.155.155,0,0,1,.048.019.174.174,0,0,1,.053.035.2.2,0,0,1,.042.045.21.21,0,0,1,.037.074.1.1,0,0,1,.006.029.03.03,0,0,1,0,.021v.8c0,.005,0,.011,0,.019s-.006.024-.008.035-.011.024-.016.037a.33.33,0,0,1-.019.032.236.236,0,0,1-.042.045.192.192,0,0,1-.053.034.144.144,0,0,1-.048.019.267.267,0,0,1-.079.013h-.8a.276.276,0,0,1-.188-.074.255.255,0,0,1-.077-.18v-.765a.345.345,0,0,1,.005-.053A.158.158,0,0,1,3615.758,4098.582Zm-2.667,2.1a.659.659,0,0,1,.027-.089,1.33,1.33,0,0,1,1.276-.893,1.374,1.374,0,0,1,.749.218,1.008,1.008,0,0,1,.2.156,1.112,1.112,0,0,1,.164.188,1.216,1.216,0,0,1,0,1.425,1.349,1.349,0,0,1-.363.344,1.231,1.231,0,0,1-.349.159,1.358,1.358,0,0,1-1.345-.315,1.339,1.339,0,0,1-.164-.188l-.056-.087c-.013-.024-.026-.048-.039-.074a.449.449,0,0,1-.04-.085.521.521,0,0,1-.032-.087c-.01-.029-.019-.061-.027-.093a.36.36,0,0,1-.019-.092.626.626,0,0,1-.008-.066.173.173,0,0,1-.005-.021.058.058,0,0,1,0-.032.65.65,0,0,1,0-.077c0-.031,0-.066,0-.1A1.151,1.151,0,0,1,3613.091,4100.685Zm3.97,2.657a.257.257,0,0,0-.016.035.187.187,0,0,1-.051.068.277.277,0,0,1-.188.075h-4.821a.308.308,0,0,1-.129-.029.367.367,0,0,1-.053-.035.322.322,0,0,1-.042-.045.249.249,0,0,1-.045-.144v-2.8h.6a2.087,2.087,0,0,0-.05.246,1.7,1.7,0,0,0-.021.26,1.412,1.412,0,0,0,.013.209c.005.034.008.069.013.1a1.3,1.3,0,0,0,.045.2,1.735,1.735,0,0,0,.061.191c.013.031.024.061.037.089a2.043,2.043,0,0,0,.39.581,1.683,1.683,0,0,0,.146.137.012.012,0,0,0,.01.008,1.639,1.639,0,0,0,.148.117.224.224,0,0,0,.032.021,1.6,1.6,0,0,0,.169.106c.005,0,.008.005.011.005.061.034.124.063.188.092a2.392,2.392,0,0,0,.32.112c.034.007.069.016.106.021a2.183,2.183,0,0,0,.456.047c.048,0,.1,0,.143,0a1.778,1.778,0,0,0,.193-.021.6.6,0,0,0,.1-.016.084.084,0,0,0,.026-.005.779.779,0,0,0,.1-.024,1.706,1.706,0,0,0,.177-.053c.067-.023.127-.048.191-.077.048-.021.093-.044.138-.069s.076-.042.114-.066a2.131,2.131,0,0,0,.336-.262,1.6,1.6,0,0,0,.111-.116c.042-.048.082-.093.119-.144s.058-.08.085-.122a1.357,1.357,0,0,0,.1-.175,1.422,1.422,0,0,0,.082-.182,1.706,1.706,0,0,0,.061-.191,1.753,1.753,0,0,0,.045-.2,1.953,1.953,0,0,0-.016-.694c-.011-.042-.021-.082-.032-.122h.606v2.8a.242.242,0,0,1,0,.04C3617.067,4103.315,3617.064,4103.329,3617.062,4103.342Zm-.141-5.488h-5.053a.737.737,0,0,0-.757.721v4.8a.74.74,0,0,0,.757.723h5.053a.74.74,0,0,0,.755-.723v-4.8A.736.736,0,0,0,3616.921,4097.854Zm-1.163.729a.284.284,0,0,1,.055-.08.275.275,0,0,1,.188-.074h.8a.268.268,0,0,1,.079.014.155.155,0,0,1,.048.019.174.174,0,0,1,.053.035.2.2,0,0,1,.042.045.21.21,0,0,1,.037.074.1.1,0,0,1,.006.029.03.03,0,0,1,0,.021v.8c0,.005,0,.011,0,.019s-.006.024-.008.035-.011.024-.016.037a.33.33,0,0,1-.019.032.236.236,0,0,1-.042.045.192.192,0,0,1-.053.034.144.144,0,0,1-.048.019.267.267,0,0,1-.079.013h-.8a.276.276,0,0,1-.188-.074.255.255,0,0,1-.077-.18v-.765a.345.345,0,0,1,.005-.053A.158.158,0,0,1,3615.758,4098.582Zm-2.667,2.1a.659.659,0,0,1,.027-.089,1.33,1.33,0,0,1,1.276-.893,1.374,1.374,0,0,1,.749.218,1.008,1.008,0,0,1,.2.156,1.112,1.112,0,0,1,.164.188,1.216,1.216,0,0,1,0,1.425,1.349,1.349,0,0,1-.363.344,1.231,1.231,0,0,1-.349.159,1.358,1.358,0,0,1-1.345-.315,1.339,1.339,0,0,1-.164-.188l-.056-.087c-.013-.024-.026-.048-.039-.074a.449.449,0,0,1-.04-.085.521.521,0,0,1-.032-.087c-.01-.029-.019-.061-.027-.093a.36.36,0,0,1-.019-.092.626.626,0,0,1-.008-.066.173.173,0,0,1-.005-.021.058.058,0,0,1,0-.032.65.65,0,0,1,0-.077c0-.031,0-.066,0-.1A1.151,1.151,0,0,1,3613.091,4100.685Zm3.97,2.657a.257.257,0,0,0-.016.035.187.187,0,0,1-.051.068.277.277,0,0,1-.188.075h-4.821a.308.308,0,0,1-.129-.029.367.367,0,0,1-.053-.035.322.322,0,0,1-.042-.045.249.249,0,0,1-.045-.144v-2.8h.6a2.087,2.087,0,0,0-.05.246,1.7,1.7,0,0,0-.021.26,1.412,1.412,0,0,0,.013.209c.005.034.008.069.013.1a1.3,1.3,0,0,0,.045.2,1.735,1.735,0,0,0,.061.191c.013.031.024.061.037.089a2.043,2.043,0,0,0,.39.581,1.683,1.683,0,0,0,.146.137.012.012,0,0,0,.01.008,1.639,1.639,0,0,0,.148.117.224.224,0,0,0,.032.021,1.6,1.6,0,0,0,.169.106c.005,0,.008.005.011.005.061.034.124.063.188.092a2.392,2.392,0,0,0,.32.112c.034.007.069.016.106.021a2.183,2.183,0,0,0,.456.047c.048,0,.1,0,.143,0a1.778,1.778,0,0,0,.193-.021.6.6,0,0,0,.1-.016.084.084,0,0,0,.026-.005.779.779,0,0,0,.1-.024,1.706,1.706,0,0,0,.177-.053c.067-.023.127-.048.191-.077.048-.021.093-.044.138-.069s.076-.042.114-.066a2.131,2.131,0,0,0,.336-.262,1.6,1.6,0,0,0,.111-.116c.042-.048.082-.093.119-.144s.058-.08.085-.122a1.357,1.357,0,0,0,.1-.175,1.422,1.422,0,0,0,.082-.182,1.706,1.706,0,0,0,.061-.191,1.753,1.753,0,0,0,.045-.2,1.953,1.953,0,0,0-.016-.694c-.011-.042-.021-.082-.032-.122h.606v2.8a.242.242,0,0,1,0,.04C3617.067,4103.315,3617.064,4103.329,3617.062,4103.342Zm-.141-5.488h-5.053a.737.737,0,0,0-.757.721v4.8a.74.74,0,0,0,.757.723h5.053a.74.74,0,0,0,.755-.723v-4.8A.736.736,0,0,0,3616.921,4097.854Zm-1.163.729a.284.284,0,0,1,.055-.08.275.275,0,0,1,.188-.074h.8a.268.268,0,0,1,.079.014.155.155,0,0,1,.048.019.174.174,0,0,1,.053.035.2.2,0,0,1,.042.045.21.21,0,0,1,.037.074.1.1,0,0,1,.006.029.03.03,0,0,1,0,.021v.8c0,.005,0,.011,0,.019s-.006.024-.008.035-.011.024-.016.037a.33.33,0,0,1-.019.032.236.236,0,0,1-.042.045.192.192,0,0,1-.053.034.144.144,0,0,1-.048.019.267.267,0,0,1-.079.013h-.8a.276.276,0,0,1-.188-.074.255.255,0,0,1-.077-.18v-.765a.345.345,0,0,1,.005-.053A.158.158,0,0,1,3615.758,4098.582Zm-2.667,2.1a.659.659,0,0,1,.027-.089,1.33,1.33,0,0,1,1.276-.893,1.374,1.374,0,0,1,.749.218,1.008,1.008,0,0,1,.2.156,1.112,1.112,0,0,1,.164.188,1.216,1.216,0,0,1,0,1.425,1.349,1.349,0,0,1-.363.344,1.231,1.231,0,0,1-.349.159,1.358,1.358,0,0,1-1.345-.315,1.339,1.339,0,0,1-.164-.188l-.056-.087c-.013-.024-.026-.048-.039-.074a.449.449,0,0,1-.04-.085.521.521,0,0,1-.032-.087c-.01-.029-.019-.061-.027-.093a.36.36,0,0,1-.019-.092.626.626,0,0,1-.008-.066.173.173,0,0,1-.005-.021.058.058,0,0,1,0-.032.65.65,0,0,1,0-.077c0-.031,0-.066,0-.1A1.151,1.151,0,0,1,3613.091,4100.685Zm3.97,2.657a.257.257,0,0,0-.016.035.187.187,0,0,1-.051.068.277.277,0,0,1-.188.075h-4.821a.308.308,0,0,1-.129-.029.367.367,0,0,1-.053-.035.322.322,0,0,1-.042-.045.249.249,0,0,1-.045-.144v-2.8h.6a2.087,2.087,0,0,0-.05.246,1.7,1.7,0,0,0-.021.26,1.412,1.412,0,0,0,.013.209c.005.034.008.069.013.1a1.3,1.3,0,0,0,.045.2,1.735,1.735,0,0,0,.061.191c.013.031.024.061.037.089a2.043,2.043,0,0,0,.39.581,1.683,1.683,0,0,0,.146.137.012.012,0,0,0,.01.008,1.639,1.639,0,0,0,.148.117.224.224,0,0,0,.032.021,1.6,1.6,0,0,0,.169.106c.005,0,.008.005.011.005.061.034.124.063.188.092a2.392,2.392,0,0,0,.32.112c.034.007.069.016.106.021a2.183,2.183,0,0,0,.456.047c.048,0,.1,0,.143,0a1.778,1.778,0,0,0,.193-.021.6.6,0,0,0,.1-.016.084.084,0,0,0,.026-.005.779.779,0,0,0,.1-.024,1.706,1.706,0,0,0,.177-.053c.067-.023.127-.048.191-.077.048-.021.093-.044.138-.069s.076-.042.114-.066a2.131,2.131,0,0,0,.336-.262,1.6,1.6,0,0,0,.111-.116c.042-.048.082-.093.119-.144s.058-.08.085-.122a1.357,1.357,0,0,0,.1-.175,1.422,1.422,0,0,0,.082-.182,1.706,1.706,0,0,0,.061-.191,1.753,1.753,0,0,0,.045-.2,1.953,1.953,0,0,0-.016-.694c-.011-.042-.021-.082-.032-.122h.606v2.8a.242.242,0,0,1,0,.04C3617.067,4103.315,3617.064,4103.329,3617.062,4103.342Zm-.141-5.488h-5.053a.737.737,0,0,0-.757.721v4.8a.74.74,0,0,0,.757.723h5.053a.74.74,0,0,0,.755-.723v-4.8A.736.736,0,0,0,3616.921,4097.854Zm-1.163.729a.284.284,0,0,1,.055-.08.275.275,0,0,1,.188-.074h.8a.268.268,0,0,1,.079.014.155.155,0,0,1,.048.019.174.174,0,0,1,.053.035.2.2,0,0,1,.042.045.21.21,0,0,1,.037.074.1.1,0,0,1,.006.029.03.03,0,0,1,0,.021v.8c0,.005,0,.011,0,.019s-.006.024-.008.035-.011.024-.016.037a.33.33,0,0,1-.019.032.236.236,0,0,1-.042.045.192.192,0,0,1-.053.034.144.144,0,0,1-.048.019.267.267,0,0,1-.079.013h-.8a.276.276,0,0,1-.188-.074.255.255,0,0,1-.077-.18v-.765a.345.345,0,0,1,.005-.053A.158.158,0,0,1,3615.758,4098.582Zm-2.667,2.1a.659.659,0,0,1,.027-.089,1.33,1.33,0,0,1,1.276-.893,1.374,1.374,0,0,1,.749.218,1.008,1.008,0,0,1,.2.156,1.112,1.112,0,0,1,.164.188,1.216,1.216,0,0,1,0,1.425,1.349,1.349,0,0,1-.363.344,1.231,1.231,0,0,1-.349.159,1.358,1.358,0,0,1-1.345-.315,1.339,1.339,0,0,1-.164-.188l-.056-.087c-.013-.024-.026-.048-.039-.074a.449.449,0,0,1-.04-.085.521.521,0,0,1-.032-.087c-.01-.029-.019-.061-.027-.093a.36.36,0,0,1-.019-.092.626.626,0,0,1-.008-.066.173.173,0,0,1-.005-.021.058.058,0,0,1,0-.032.65.65,0,0,1,0-.077c0-.031,0-.066,0-.1A1.151,1.151,0,0,1,3613.091,4100.685Zm3.97,2.657a.257.257,0,0,0-.016.035.187.187,0,0,1-.051.068.277.277,0,0,1-.188.075h-4.821a.308.308,0,0,1-.129-.029.367.367,0,0,1-.053-.035.322.322,0,0,1-.042-.045.249.249,0,0,1-.045-.144v-2.8h.6a2.087,2.087,0,0,0-.05.246,1.7,1.7,0,0,0-.021.26,1.412,1.412,0,0,0,.013.209c.005.034.008.069.013.1a1.3,1.3,0,0,0,.045.2,1.735,1.735,0,0,0,.061.191c.013.031.024.061.037.089a2.043,2.043,0,0,0,.39.581,1.683,1.683,0,0,0,.146.137.012.012,0,0,0,.01.008,1.639,1.639,0,0,0,.148.117.224.224,0,0,0,.032.021,1.6,1.6,0,0,0,.169.106c.005,0,.008.005.011.005.061.034.124.063.188.092a2.392,2.392,0,0,0,.32.112c.034.007.069.016.106.021a2.183,2.183,0,0,0,.456.047c.048,0,.1,0,.143,0a1.778,1.778,0,0,0,.193-.021.6.6,0,0,0,.1-.016.084.084,0,0,0,.026-.005.779.779,0,0,0,.1-.024,1.706,1.706,0,0,0,.177-.053c.067-.023.127-.048.191-.077.048-.021.093-.044.138-.069s.076-.042.114-.066a2.131,2.131,0,0,0,.336-.262,1.6,1.6,0,0,0,.111-.116c.042-.048.082-.093.119-.144s.058-.08.085-.122a1.357,1.357,0,0,0,.1-.175,1.422,1.422,0,0,0,.082-.182,1.706,1.706,0,0,0,.061-.191,1.753,1.753,0,0,0,.045-.2,1.953,1.953,0,0,0-.016-.694c-.011-.042-.021-.082-.032-.122h.606v2.8a.242.242,0,0,1,0,.04C3617.067,4103.315,3617.064,4103.329,3617.062,4103.342Z" transform="translate(-3607.729 -4094.807)" fill="#1b1477"/>
        <path id="Path_61366" data-name="Path 61366" d="M3665.107,4097.835h-1c-.784,0-.935.33-.935.814v1.065h1.867l-.243,1.671h-1.625v4.288h-1.947v-4.288H3659.6v-1.671h1.628v-1.23a2.149,2.149,0,0,1,2.426-2.209c.689,0,1.282.045,1.455.065Zm-2.324-3.03a6.169,6.169,0,1,0,6.167,6.167A6.17,6.17,0,0,0,3662.784,4094.805Z" transform="translate(-3643.119 -4094.805)" fill="#1b1477"/>
        <path id="Path_61367" data-name="Path 61367" d="M3711.181,4094.805a6.169,6.169,0,1,0,6.167,6.167A6.166,6.166,0,0,0,3711.181,4094.805Zm1.573,9.887c-.652-.854-1.309-1.718-1.982-2.6-.259.336-.584.626-.823.982l-.077.078c-.264.29-.533.569-.8.864-.2.228-.383.455-.574.673h-1.242c-.047-.062.026-.067.052-.093a.589.589,0,0,1,.093-.1,11.721,11.721,0,0,0,.771-.911.5.5,0,0,1,.072-.072c.269-.294.543-.574.8-.869.311-.368.605-.746.942-1.087a1.8,1.8,0,0,0,.181-.253c-1.03-1.34-2.054-2.68-3.1-4.051h2.613c.595.786,1.2,1.583,1.8,2.375.688-.786,1.371-1.573,2.08-2.375h1.221a.828.828,0,0,1-.073.15c-.253.284-.522.553-.766.849-.321.383-.652.765-.993,1.133-.305.326-.574.672-.875,1.029,1.051,1.423,2.152,2.814,3.218,4.279Zm-4.211-6.742c1.542,2.017,3.058,4,4.553,5.965h.688l-4.507-5.965Z" transform="translate(-3677.521 -4094.805)" fill="#1b1477"/>
        <path id="Path_61368" data-name="Path 61368" d="M3760.42,4094.805a6.169,6.169,0,1,0,6.167,6.167A6.169,6.169,0,0,0,3760.42,4094.805Zm3.9,7.937a1.074,1.074,0,0,1-1.076,1.07H3757.6a1.074,1.074,0,0,1-1.076-1.07v-3.534a1.076,1.076,0,0,1,1.076-1.077h5.639a1.076,1.076,0,0,1,1.076,1.077Z" transform="translate(-3712.759 -4094.805)" fill="#1b1477"/>
        <path id="Path_61364" data-name="Path 61364" d="M3776,4113.564l-2.314,1.275v-2.549Z" transform="translate(-3726.809 -4107.39)" fill="#1b1477"/>
        <text id="_CDAA_OMAN" data-name="@CDAA_OMAN" transform="translate(55.493 8.576)" fill="#1b1477" font-size="11" font-family="TanseekModProArabic-Bold, Tanseek Modern Pro Arabic" font-weight="700"><tspan x="0" y="0">@CDAA_OMAN</tspan></text>
        <text id="Civil_Defence_and_Ambulance_Authority_-_www.cdaa.gov.om" data-name="Civil Defence and Ambulance Authority - www.cdaa.gov.om" transform="translate(-467.506 -6.424)" fill="#1b1477" font-size="14" font-family="TanseekModProArabic-Bold, Tanseek Modern Pro Arabic" font-weight="700"><tspan x="0" y="15">Civil Defence and Ambulance Authority - www.cdaa.gov.om</tspan></text>
      </g>
    </g>
    <g id="Group_45626" data-name="Group 45626">
      <line id="Line_185" data-name="Line 185" x2="595" transform="translate(71.996 662.996)" fill="none" stroke="#00b5f6" stroke-width="1"/>
      <line id="Line_197" data-name="Line 197" x2="595" transform="translate(71.996 663.996)" fill="none" stroke="#1b1477" stroke-miterlimit="10" stroke-width="1"/>
    </g>
  </g>
</svg>
