<svg xmlns="http://www.w3.org/2000/svg" xmlns:xlink="http://www.w3.org/1999/xlink" width="2738.92" height="372.868" viewBox="0 0 2738.92 372.868">
  <defs>
    <clipPath id="clip-path">
      <rect id="Rectangle_17705" data-name="Rectangle 17705" width="2738.92" height="371.835" transform="translate(2841.884 7003.875)" fill="none"/>
    </clipPath>
    <radialGradient id="radial-gradient" cx="0.5" cy="0.5" r="0.5" gradientTransform="translate(0)" gradientUnits="objectBoundingBox">
      <stop offset="0" stop-color="#fff"/>
      <stop offset="0.007" stop-color="#f5f5f5"/>
      <stop offset="0.048" stop-color="#c7c7c7"/>
      <stop offset="0.093" stop-color="#9c9c9c"/>
      <stop offset="0.142" stop-color="#777"/>
      <stop offset="0.195" stop-color="#565656"/>
      <stop offset="0.254" stop-color="#3b3b3b"/>
      <stop offset="0.32" stop-color="#252525"/>
      <stop offset="0.397" stop-color="#141414"/>
      <stop offset="0.493" stop-color="#080808"/>
      <stop offset="0.627" stop-color="#010101"/>
      <stop offset="1"/>
    </radialGradient>
    <radialGradient id="radial-gradient-2" cx="0.5" cy="0.5" r="3.043" gradientTransform="translate(-0.626 0.418) scale(0.164 0.164)" xlink:href="#radial-gradient"/>
  </defs>
  <g id="header" transform="translate(3.337 0.77)">
    <g id="headerBg" transform="translate(-2845.221 -7004.645)">
      <rect id="Rectangle_17704" data-name="Rectangle 17704" width="2738.92" height="371.835" transform="translate(2841.884 7004.907)" fill="#2e3191"/>
    </g>
    <g id="Arrows" transform="translate(-2845.221 -7004.645)" opacity="0.57">
      <g id="Group_41908" data-name="Group 41908" clip-path="url(#clip-path)">
        <g id="Group_41907" data-name="Group 41907" opacity="0.8">
          <g id="Group_41868" data-name="Group 41868" style="mix-blend-mode: overlay;isolation: isolate">
            <g id="Group_41858" data-name="Group 41858">
              <g id="Group_41854" data-name="Group 41854">
                <g id="Group_41850" data-name="Group 41850">
                  <path id="Path_51226" data-name="Path 51226" d="M2808.809,7116.308l34.168-43.7a2.861,2.861,0,0,0,.01-3.551l-33.919-43.883a3.022,3.022,0,0,1,2.651-4.8l116.171.275a3.336,3.336,0,0,1,2.633,1.26l33.738,43.638a8.967,8.967,0,0,1-.032,11.134l-33.988,43.456a3.341,3.341,0,0,1-2.642,1.246l-116.167-.27A3.021,3.021,0,0,1,2808.809,7116.308Z" fill="none" stroke="#fff" stroke-miterlimit="10" stroke-width="1.713"/>
                  <path id="Path_51227" data-name="Path 51227" d="M2894.492,7116.308l34.168-43.7a2.86,2.86,0,0,0,.01-3.551l-33.92-43.883a3.022,3.022,0,0,1,2.652-4.8l116.171.275a3.338,3.338,0,0,1,2.633,1.26l33.738,43.638a8.966,8.966,0,0,1-.033,11.134l-33.987,43.456a3.341,3.341,0,0,1-2.642,1.246l-116.167-.27A3.021,3.021,0,0,1,2894.492,7116.308Z" fill="none" stroke="#fff" stroke-miterlimit="10" stroke-width="1.713"/>
                </g>
                <g id="Group_41851" data-name="Group 41851">
                  <path id="Path_51228" data-name="Path 51228" d="M2580.587,7116.308l34.168-43.7a2.86,2.86,0,0,0,.01-3.551l-33.92-43.882a3.023,3.023,0,0,1,2.652-4.8l116.171.275a3.338,3.338,0,0,1,2.633,1.26l33.738,43.638a8.966,8.966,0,0,1-.033,11.134l-33.987,43.456a3.338,3.338,0,0,1-2.642,1.246l-116.167-.27A3.021,3.021,0,0,1,2580.587,7116.308Z" fill="none" stroke="#fff" stroke-miterlimit="10" stroke-width="1.713"/>
                  <path id="Path_51229" data-name="Path 51229" d="M2666.27,7116.308l34.168-43.7a2.862,2.862,0,0,0,.01-3.551l-33.92-43.882a3.023,3.023,0,0,1,2.652-4.8l116.171.275a3.337,3.337,0,0,1,2.633,1.26l33.738,43.638a8.966,8.966,0,0,1-.033,11.134l-33.987,43.456a3.338,3.338,0,0,1-2.642,1.246l-116.167-.27A3.021,3.021,0,0,1,2666.27,7116.308Z" fill="none" stroke="#fff" stroke-miterlimit="10" stroke-width="1.713"/>
                </g>
                <g id="Group_41852" data-name="Group 41852">
                  <path id="Path_51230" data-name="Path 51230" d="M2349.043,7116.308l34.167-43.7a2.859,2.859,0,0,0,.01-3.551l-33.919-43.882a3.023,3.023,0,0,1,2.651-4.8l116.171.275a3.338,3.338,0,0,1,2.634,1.26l33.737,43.638a8.967,8.967,0,0,1-.032,11.135l-33.988,43.455a3.337,3.337,0,0,1-2.641,1.246l-116.168-.27A3.021,3.021,0,0,1,2349.043,7116.308Z" fill="none" stroke="#fff" stroke-miterlimit="10" stroke-width="1.713"/>
                  <path id="Path_51231" data-name="Path 51231" d="M2434.726,7116.308l34.167-43.7a2.859,2.859,0,0,0,.01-3.551l-33.919-43.882a3.023,3.023,0,0,1,2.651-4.8l116.171.275a3.338,3.338,0,0,1,2.634,1.26l33.737,43.638a8.966,8.966,0,0,1-.032,11.134l-33.988,43.456a3.336,3.336,0,0,1-2.641,1.246l-116.168-.27A3.021,3.021,0,0,1,2434.726,7116.308Z" fill="none" stroke="#fff" stroke-miterlimit="10" stroke-width="1.713"/>
                </g>
                <g id="Group_41853" data-name="Group 41853">
                  <path id="Path_51232" data-name="Path 51232" d="M2120.821,7116.308l34.167-43.7a2.859,2.859,0,0,0,.01-3.551l-33.919-43.882a3.023,3.023,0,0,1,2.651-4.8l116.171.275a3.338,3.338,0,0,1,2.634,1.26l33.737,43.638a8.967,8.967,0,0,1-.032,11.135l-33.988,43.455a3.333,3.333,0,0,1-2.641,1.246l-116.168-.27A3.021,3.021,0,0,1,2120.821,7116.308Z" fill="none" stroke="#fff" stroke-miterlimit="10" stroke-width="1.713"/>
                  <path id="Path_51233" data-name="Path 51233" d="M2206.5,7116.308l34.168-43.7a2.86,2.86,0,0,0,.01-3.551l-33.919-43.882a3.023,3.023,0,0,1,2.651-4.8l116.171.275a3.336,3.336,0,0,1,2.633,1.26l33.738,43.638a8.969,8.969,0,0,1-.032,11.135l-33.988,43.455a3.339,3.339,0,0,1-2.642,1.246l-116.167-.27A3.021,3.021,0,0,1,2206.5,7116.308Z" fill="none" stroke="#fff" stroke-miterlimit="10" stroke-width="1.713"/>
                </g>
              </g>
              <g id="Group_41857" data-name="Group 41857">
                <g id="Group_41855" data-name="Group 41855">
                  <path id="Path_51234" data-name="Path 51234" d="M1882.288,7116.308l34.168-43.7a2.859,2.859,0,0,0,.009-3.55l-33.919-43.883a3.023,3.023,0,0,1,2.651-4.8l116.172.275a3.337,3.337,0,0,1,2.633,1.26l33.737,43.638a8.967,8.967,0,0,1-.032,11.135l-33.988,43.455a3.332,3.332,0,0,1-2.641,1.246l-116.167-.27A3.021,3.021,0,0,1,1882.288,7116.308Z" fill="none" stroke="#fff" stroke-miterlimit="10" stroke-width="1.713"/>
                  <path id="Path_51235" data-name="Path 51235" d="M1967.971,7116.308l34.167-43.7a2.859,2.859,0,0,0,.01-3.551l-33.919-43.882a3.023,3.023,0,0,1,2.651-4.8l116.171.275a3.338,3.338,0,0,1,2.634,1.26l33.737,43.638a8.967,8.967,0,0,1-.032,11.135l-33.988,43.455a3.334,3.334,0,0,1-2.641,1.246l-116.168-.27A3.021,3.021,0,0,1,1967.971,7116.308Z" fill="none" stroke="#fff" stroke-miterlimit="10" stroke-width="1.713"/>
                </g>
                <g id="Group_41856" data-name="Group 41856">
                  <path id="Path_51236" data-name="Path 51236" d="M1654.066,7116.308l34.167-43.7a2.858,2.858,0,0,0,.01-3.55l-33.919-43.883a3.023,3.023,0,0,1,2.651-4.8l116.171.275a3.338,3.338,0,0,1,2.634,1.26l33.737,43.638a8.967,8.967,0,0,1-.032,11.135l-33.988,43.455a3.333,3.333,0,0,1-2.641,1.246l-116.168-.27A3.021,3.021,0,0,1,1654.066,7116.308Z" fill="none" stroke="#fff" stroke-miterlimit="10" stroke-width="1.713"/>
                  <path id="Path_51237" data-name="Path 51237" d="M1739.749,7116.308l34.167-43.7a2.858,2.858,0,0,0,.01-3.55l-33.919-43.883a3.023,3.023,0,0,1,2.651-4.8l116.171.275a3.338,3.338,0,0,1,2.634,1.26l33.737,43.638a8.967,8.967,0,0,1-.032,11.135l-33.988,43.455a3.333,3.333,0,0,1-2.641,1.246l-116.168-.27A3.021,3.021,0,0,1,1739.749,7116.308Z" fill="none" stroke="#fff" stroke-miterlimit="10" stroke-width="1.713"/>
                </g>
              </g>
            </g>
            <g id="Group_41867" data-name="Group 41867">
              <g id="Group_41863" data-name="Group 41863">
                <g id="Group_41859" data-name="Group 41859">
                  <path id="Path_51238" data-name="Path 51238" d="M4145.344,7116.308l34.167-43.7a2.86,2.86,0,0,0,.01-3.551l-33.919-43.883a3.022,3.022,0,0,1,2.651-4.8l116.171.275a3.338,3.338,0,0,1,2.634,1.26l33.737,43.638a8.966,8.966,0,0,1-.032,11.134l-33.988,43.456a3.338,3.338,0,0,1-2.641,1.246l-116.168-.27A3.021,3.021,0,0,1,4145.344,7116.308Z" fill="none" stroke="#fff" stroke-miterlimit="10" stroke-width="1.713"/>
                  <path id="Path_51239" data-name="Path 51239" d="M4231.027,7116.308l34.167-43.7a2.859,2.859,0,0,0,.01-3.551l-33.919-43.883a3.022,3.022,0,0,1,2.651-4.8l116.171.275a3.339,3.339,0,0,1,2.634,1.26l33.737,43.638a8.966,8.966,0,0,1-.032,11.134l-33.988,43.456a3.339,3.339,0,0,1-2.641,1.246l-116.168-.27A3.021,3.021,0,0,1,4231.027,7116.308Z" fill="none" stroke="#fff" stroke-miterlimit="10" stroke-width="1.713"/>
                </g>
                <g id="Group_41860" data-name="Group 41860">
                  <path id="Path_51240" data-name="Path 51240" d="M3917.122,7116.308l34.167-43.7a2.859,2.859,0,0,0,.01-3.551l-33.919-43.882a3.023,3.023,0,0,1,2.651-4.8l116.171.275a3.338,3.338,0,0,1,2.634,1.26l33.737,43.638a8.966,8.966,0,0,1-.032,11.134l-33.988,43.456a3.336,3.336,0,0,1-2.641,1.246l-116.168-.27A3.021,3.021,0,0,1,3917.122,7116.308Z" fill="none" stroke="#fff" stroke-miterlimit="10" stroke-width="1.713"/>
                  <path id="Path_51241" data-name="Path 51241" d="M4002.8,7116.308l34.167-43.7a2.86,2.86,0,0,0,.01-3.551l-33.919-43.882a3.023,3.023,0,0,1,2.651-4.8l116.171.275a3.336,3.336,0,0,1,2.633,1.26l33.738,43.638a8.967,8.967,0,0,1-.032,11.134l-33.988,43.456a3.337,3.337,0,0,1-2.642,1.246l-116.167-.27A3.021,3.021,0,0,1,4002.8,7116.308Z" fill="none" stroke="#fff" stroke-miterlimit="10" stroke-width="1.713"/>
                </g>
                <g id="Group_41861" data-name="Group 41861">
                  <path id="Path_51242" data-name="Path 51242" d="M3685.577,7116.308l34.168-43.7a2.861,2.861,0,0,0,.01-3.551l-33.92-43.882a3.023,3.023,0,0,1,2.652-4.8l116.171.275a3.338,3.338,0,0,1,2.633,1.26l33.738,43.638a8.967,8.967,0,0,1-.033,11.135l-33.987,43.455a3.338,3.338,0,0,1-2.642,1.246l-116.167-.27A3.021,3.021,0,0,1,3685.577,7116.308Z" fill="none" stroke="#fff" stroke-miterlimit="10" stroke-width="1.713"/>
                  <path id="Path_51243" data-name="Path 51243" d="M3771.26,7116.308l34.168-43.7a2.861,2.861,0,0,0,.01-3.551l-33.92-43.882a3.023,3.023,0,0,1,2.652-4.8l116.171.275a3.338,3.338,0,0,1,2.633,1.26l33.738,43.638a8.966,8.966,0,0,1-.033,11.134l-33.987,43.456a3.338,3.338,0,0,1-2.642,1.246l-116.167-.27A3.021,3.021,0,0,1,3771.26,7116.308Z" fill="none" stroke="#fff" stroke-miterlimit="10" stroke-width="1.713"/>
                </g>
                <g id="Group_41862" data-name="Group 41862">
                  <path id="Path_51244" data-name="Path 51244" d="M3457.355,7116.308l34.168-43.7a2.862,2.862,0,0,0,.01-3.551l-33.92-43.882a3.023,3.023,0,0,1,2.652-4.8l116.171.275a3.338,3.338,0,0,1,2.633,1.26l33.738,43.638a8.967,8.967,0,0,1-.033,11.135l-33.987,43.455a3.336,3.336,0,0,1-2.642,1.246l-116.167-.27A3.021,3.021,0,0,1,3457.355,7116.308Z" fill="none" stroke="#fff" stroke-miterlimit="10" stroke-width="1.713"/>
                  <path id="Path_51245" data-name="Path 51245" d="M3543.038,7116.308l34.168-43.7a2.861,2.861,0,0,0,.009-3.551l-33.919-43.882a3.023,3.023,0,0,1,2.651-4.8l116.171.275a3.338,3.338,0,0,1,2.634,1.26l33.737,43.638a8.967,8.967,0,0,1-.032,11.135l-33.988,43.455a3.336,3.336,0,0,1-2.641,1.246l-116.167-.27A3.021,3.021,0,0,1,3543.038,7116.308Z" fill="none" stroke="#fff" stroke-miterlimit="10" stroke-width="1.713"/>
                </g>
              </g>
              <g id="Group_41866" data-name="Group 41866">
                <g id="Group_41864" data-name="Group 41864">
                  <path id="Path_51246" data-name="Path 51246" d="M3218.822,7116.308l34.168-43.7a2.859,2.859,0,0,0,.01-3.55l-33.919-43.883a3.023,3.023,0,0,1,2.651-4.8l116.171.275a3.335,3.335,0,0,1,2.633,1.26l33.738,43.638a8.969,8.969,0,0,1-.032,11.135l-33.988,43.455a3.335,3.335,0,0,1-2.642,1.246l-116.167-.27A3.021,3.021,0,0,1,3218.822,7116.308Z" fill="none" stroke="#fff" stroke-miterlimit="10" stroke-width="1.713"/>
                  <path id="Path_51247" data-name="Path 51247" d="M3304.5,7116.308l34.168-43.7a2.861,2.861,0,0,0,.01-3.551l-33.92-43.882a3.023,3.023,0,0,1,2.652-4.8l116.171.275a3.338,3.338,0,0,1,2.633,1.26l33.738,43.638a8.967,8.967,0,0,1-.033,11.135l-33.987,43.455a3.335,3.335,0,0,1-2.642,1.246l-116.167-.27A3.021,3.021,0,0,1,3304.5,7116.308Z" fill="none" stroke="#fff" stroke-miterlimit="10" stroke-width="1.713"/>
                </g>
                <g id="Group_41865" data-name="Group 41865">
                  <path id="Path_51248" data-name="Path 51248" d="M2990.6,7116.308l34.168-43.7a2.86,2.86,0,0,0,.01-3.55l-33.92-43.883a3.023,3.023,0,0,1,2.652-4.8l116.171.275a3.337,3.337,0,0,1,2.633,1.26l33.738,43.638a8.967,8.967,0,0,1-.033,11.135l-33.987,43.455a3.335,3.335,0,0,1-2.642,1.246l-116.167-.27A3.021,3.021,0,0,1,2990.6,7116.308Z" fill="none" stroke="#fff" stroke-miterlimit="10" stroke-width="1.713"/>
                  <path id="Path_51249" data-name="Path 51249" d="M3076.283,7116.308l34.168-43.7a2.86,2.86,0,0,0,.01-3.55l-33.92-43.883a3.023,3.023,0,0,1,2.652-4.8l116.171.275a3.338,3.338,0,0,1,2.633,1.26l33.738,43.638a8.967,8.967,0,0,1-.033,11.135l-33.988,43.455a3.332,3.332,0,0,1-2.641,1.246l-116.167-.27A3.021,3.021,0,0,1,3076.283,7116.308Z" fill="none" stroke="#fff" stroke-miterlimit="10" stroke-width="1.713"/>
                </g>
              </g>
            </g>
          </g>
          <g id="Group_41887" data-name="Group 41887" style="mix-blend-mode: overlay;isolation: isolate">
            <g id="Group_41877" data-name="Group 41877">
              <g id="Group_41873" data-name="Group 41873">
                <g id="Group_41869" data-name="Group 41869">
                  <path id="Path_51250" data-name="Path 51250" d="M3698.672,7145.928l-34.167,43.7a2.858,2.858,0,0,0-.01,3.55l33.919,43.883a3.022,3.022,0,0,1-2.651,4.8l-116.171-.274a3.343,3.343,0,0,1-2.634-1.26l-33.737-43.639a8.967,8.967,0,0,1,.032-11.134l33.988-43.456a3.335,3.335,0,0,1,2.641-1.245l116.168.27A3.021,3.021,0,0,1,3698.672,7145.928Z" fill="none" stroke="#fff" stroke-miterlimit="10" stroke-width="1.713"/>
                  <path id="Path_51251" data-name="Path 51251" d="M3612.989,7145.928l-34.167,43.7a2.858,2.858,0,0,0-.01,3.55l33.919,43.883a3.022,3.022,0,0,1-2.651,4.8l-116.171-.274a3.343,3.343,0,0,1-2.634-1.26l-33.737-43.639a8.967,8.967,0,0,1,.032-11.134l33.988-43.456a3.335,3.335,0,0,1,2.641-1.245l116.168.27A3.021,3.021,0,0,1,3612.989,7145.928Z" fill="none" stroke="#fff" stroke-miterlimit="10" stroke-width="1.713"/>
                </g>
                <g id="Group_41870" data-name="Group 41870">
                  <path id="Path_51252" data-name="Path 51252" d="M3926.9,7145.928l-34.168,43.7a2.86,2.86,0,0,0-.01,3.551l33.919,43.883a3.022,3.022,0,0,1-2.651,4.8l-116.171-.274a3.341,3.341,0,0,1-2.633-1.26l-33.738-43.639a8.968,8.968,0,0,1,.032-11.134l33.988-43.456a3.341,3.341,0,0,1,2.642-1.246l116.167.271A3.021,3.021,0,0,1,3926.9,7145.928Z" fill="none" stroke="#fff" stroke-miterlimit="10" stroke-width="1.713"/>
                  <path id="Path_51253" data-name="Path 51253" d="M3841.212,7145.928l-34.168,43.7a2.86,2.86,0,0,0-.01,3.55l33.92,43.883a3.022,3.022,0,0,1-2.652,4.8l-116.171-.274a3.341,3.341,0,0,1-2.633-1.26l-33.738-43.639a8.967,8.967,0,0,1,.033-11.134l33.987-43.456a3.341,3.341,0,0,1,2.642-1.246l116.167.271A3.021,3.021,0,0,1,3841.212,7145.928Z" fill="none" stroke="#fff" stroke-miterlimit="10" stroke-width="1.713"/>
                </g>
                <g id="Group_41871" data-name="Group 41871">
                  <path id="Path_51254" data-name="Path 51254" d="M4158.439,7145.928l-34.168,43.7a2.86,2.86,0,0,0-.01,3.551l33.92,43.883a3.022,3.022,0,0,1-2.652,4.8l-116.171-.274a3.341,3.341,0,0,1-2.633-1.26l-33.738-43.639a8.967,8.967,0,0,1,.033-11.134l33.987-43.456a3.341,3.341,0,0,1,2.642-1.246l116.167.271A3.021,3.021,0,0,1,4158.439,7145.928Z" fill="none" stroke="#fff" stroke-miterlimit="10" stroke-width="1.713"/>
                  <path id="Path_51255" data-name="Path 51255" d="M4072.756,7145.928l-34.168,43.7a2.861,2.861,0,0,0-.009,3.551l33.919,43.883a3.022,3.022,0,0,1-2.652,4.8l-116.171-.274a3.342,3.342,0,0,1-2.633-1.26l-33.738-43.639a8.968,8.968,0,0,1,.033-11.134l33.988-43.456a3.337,3.337,0,0,1,2.641-1.246l116.167.271A3.021,3.021,0,0,1,4072.756,7145.928Z" fill="none" stroke="#fff" stroke-miterlimit="10" stroke-width="1.713"/>
                </g>
                <g id="Group_41872" data-name="Group 41872">
                  <path id="Path_51256" data-name="Path 51256" d="M4386.661,7145.927l-34.167,43.7a2.859,2.859,0,0,0-.01,3.551l33.919,43.883a3.022,3.022,0,0,1-2.651,4.8l-116.171-.274a3.344,3.344,0,0,1-2.634-1.26l-33.737-43.639a8.967,8.967,0,0,1,.032-11.134l33.988-43.456a3.339,3.339,0,0,1,2.641-1.246l116.168.271A3.02,3.02,0,0,1,4386.661,7145.927Z" fill="none" stroke="#fff" stroke-miterlimit="10" stroke-width="1.713"/>
                  <path id="Path_51257" data-name="Path 51257" d="M4300.978,7145.927l-34.167,43.7a2.859,2.859,0,0,0-.01,3.551l33.919,43.883a3.022,3.022,0,0,1-2.651,4.8l-116.171-.274a3.342,3.342,0,0,1-2.634-1.26l-33.737-43.639a8.967,8.967,0,0,1,.032-11.134l33.988-43.456a3.339,3.339,0,0,1,2.641-1.246l116.168.271A3.02,3.02,0,0,1,4300.978,7145.927Z" fill="none" stroke="#fff" stroke-miterlimit="10" stroke-width="1.713"/>
                </g>
              </g>
              <g id="Group_41876" data-name="Group 41876">
                <g id="Group_41874" data-name="Group 41874">
                  <path id="Path_51258" data-name="Path 51258" d="M4625.194,7145.927l-34.168,43.7a2.861,2.861,0,0,0-.01,3.551l33.92,43.883a3.022,3.022,0,0,1-2.652,4.8l-116.171-.275a3.335,3.335,0,0,1-2.633-1.26l-33.738-43.638a8.967,8.967,0,0,1,.033-11.134l33.987-43.456a3.34,3.34,0,0,1,2.642-1.246l116.167.271A3.02,3.02,0,0,1,4625.194,7145.927Z" fill="none" stroke="#fff" stroke-miterlimit="10" stroke-width="1.713"/>
                  <path id="Path_51259" data-name="Path 51259" d="M4539.511,7145.927l-34.168,43.7a2.861,2.861,0,0,0-.01,3.551l33.92,43.883a3.022,3.022,0,0,1-2.652,4.8l-116.171-.274a3.341,3.341,0,0,1-2.633-1.261l-33.738-43.638a8.967,8.967,0,0,1,.033-11.134l33.987-43.456a3.34,3.34,0,0,1,2.642-1.246l116.167.271A3.02,3.02,0,0,1,4539.511,7145.927Z" fill="none" stroke="#fff" stroke-miterlimit="10" stroke-width="1.713"/>
                </g>
                <g id="Group_41875" data-name="Group 41875">
                  <path id="Path_51260" data-name="Path 51260" d="M4853.416,7145.927l-34.168,43.7a2.861,2.861,0,0,0-.009,3.551l33.919,43.883a3.022,3.022,0,0,1-2.651,4.8l-116.172-.275a3.335,3.335,0,0,1-2.633-1.26l-33.737-43.638a8.967,8.967,0,0,1,.032-11.134l33.988-43.456a3.338,3.338,0,0,1,2.641-1.246l116.167.271A3.02,3.02,0,0,1,4853.416,7145.927Z" fill="none" stroke="#fff" stroke-miterlimit="10" stroke-width="1.713"/>
                  <path id="Path_51261" data-name="Path 51261" d="M4767.733,7145.927l-34.167,43.7a2.859,2.859,0,0,0-.01,3.551l33.919,43.883a3.022,3.022,0,0,1-2.651,4.8l-116.171-.275a3.336,3.336,0,0,1-2.634-1.26l-33.737-43.638a8.967,8.967,0,0,1,.032-11.134l33.988-43.456a3.339,3.339,0,0,1,2.641-1.246l116.168.271A3.02,3.02,0,0,1,4767.733,7145.927Z" fill="none" stroke="#fff" stroke-miterlimit="10" stroke-width="1.713"/>
                </g>
              </g>
            </g>
            <g id="Group_41886" data-name="Group 41886">
              <g id="Group_41882" data-name="Group 41882">
                <g id="Group_41878" data-name="Group 41878">
                  <path id="Path_51262" data-name="Path 51262" d="M2362.138,7145.928l-34.168,43.7a2.859,2.859,0,0,0-.01,3.55l33.92,43.883a3.022,3.022,0,0,1-2.652,4.8l-116.171-.274a3.341,3.341,0,0,1-2.633-1.26l-33.738-43.639a8.967,8.967,0,0,1,.033-11.134l33.987-43.456a3.337,3.337,0,0,1,2.642-1.245l116.167.27A3.021,3.021,0,0,1,2362.138,7145.928Z" fill="none" stroke="#fff" stroke-miterlimit="10" stroke-width="1.713"/>
                  <path id="Path_51263" data-name="Path 51263" d="M2276.455,7145.928l-34.168,43.7a2.86,2.86,0,0,0-.01,3.55l33.92,43.883a3.022,3.022,0,0,1-2.652,4.8l-116.171-.274a3.342,3.342,0,0,1-2.633-1.26L2121,7196.682a8.967,8.967,0,0,1,.033-11.134l33.988-43.456a3.334,3.334,0,0,1,2.641-1.245l116.167.27A3.021,3.021,0,0,1,2276.455,7145.928Z" fill="none" stroke="#fff" stroke-miterlimit="10" stroke-width="1.713"/>
                </g>
                <g id="Group_41879" data-name="Group 41879">
                  <path id="Path_51264" data-name="Path 51264" d="M2590.36,7145.928l-34.167,43.7a2.859,2.859,0,0,0-.01,3.551l33.919,43.883a3.022,3.022,0,0,1-2.651,4.8l-116.171-.274a3.343,3.343,0,0,1-2.634-1.26l-33.737-43.639a8.967,8.967,0,0,1,.032-11.134l33.988-43.456a3.339,3.339,0,0,1,2.641-1.246l116.168.271A3.021,3.021,0,0,1,2590.36,7145.928Z" fill="none" stroke="#fff" stroke-miterlimit="10" stroke-width="1.713"/>
                  <path id="Path_51265" data-name="Path 51265" d="M2504.677,7145.928l-34.167,43.7a2.859,2.859,0,0,0-.01,3.551l33.919,43.883a3.022,3.022,0,0,1-2.651,4.8l-116.171-.274a3.343,3.343,0,0,1-2.634-1.26l-33.737-43.639a8.967,8.967,0,0,1,.032-11.134l33.988-43.456a3.339,3.339,0,0,1,2.641-1.246l116.168.271A3.021,3.021,0,0,1,2504.677,7145.928Z" fill="none" stroke="#fff" stroke-miterlimit="10" stroke-width="1.713"/>
                </g>
                <g id="Group_41880" data-name="Group 41880">
                  <path id="Path_51266" data-name="Path 51266" d="M2821.9,7145.928l-34.167,43.7a2.859,2.859,0,0,0-.01,3.551l33.919,43.883a3.022,3.022,0,0,1-2.651,4.8l-116.171-.274a3.343,3.343,0,0,1-2.634-1.26l-33.737-43.639a8.967,8.967,0,0,1,.032-11.134l33.988-43.456a3.339,3.339,0,0,1,2.641-1.246l116.168.271A3.02,3.02,0,0,1,2821.9,7145.928Z" fill="none" stroke="#fff" stroke-miterlimit="10" stroke-width="1.713"/>
                  <path id="Path_51267" data-name="Path 51267" d="M2736.222,7145.928l-34.168,43.7a2.861,2.861,0,0,0-.01,3.551l33.919,43.883a3.022,3.022,0,0,1-2.651,4.8l-116.171-.274a3.34,3.34,0,0,1-2.633-1.26l-33.738-43.639a8.968,8.968,0,0,1,.032-11.134l33.988-43.456a3.341,3.341,0,0,1,2.642-1.246l116.167.271A3.021,3.021,0,0,1,2736.222,7145.928Z" fill="none" stroke="#fff" stroke-miterlimit="10" stroke-width="1.713"/>
                </g>
                <g id="Group_41881" data-name="Group 41881">
                  <path id="Path_51268" data-name="Path 51268" d="M3050.127,7145.927l-34.168,43.7a2.861,2.861,0,0,0-.01,3.551l33.92,43.883a3.022,3.022,0,0,1-2.652,4.8l-116.171-.274a3.339,3.339,0,0,1-2.633-1.261l-33.738-43.638a8.967,8.967,0,0,1,.033-11.134l33.987-43.456a3.341,3.341,0,0,1,2.642-1.246l116.167.271A3.02,3.02,0,0,1,3050.127,7145.927Z" fill="none" stroke="#fff" stroke-miterlimit="10" stroke-width="1.713"/>
                  <path id="Path_51269" data-name="Path 51269" d="M2964.444,7145.927l-34.168,43.7a2.861,2.861,0,0,0-.01,3.551l33.92,43.883a3.022,3.022,0,0,1-2.652,4.8l-116.171-.274a3.342,3.342,0,0,1-2.633-1.26l-33.738-43.639a8.967,8.967,0,0,1,.033-11.134l33.987-43.456a3.341,3.341,0,0,1,2.642-1.246l116.167.271A3.02,3.02,0,0,1,2964.444,7145.927Z" fill="none" stroke="#fff" stroke-miterlimit="10" stroke-width="1.713"/>
                </g>
              </g>
              <g id="Group_41885" data-name="Group 41885">
                <g id="Group_41883" data-name="Group 41883">
                  <path id="Path_51270" data-name="Path 51270" d="M3288.659,7145.927l-34.167,43.7a2.859,2.859,0,0,0-.01,3.551l33.919,43.883a3.022,3.022,0,0,1-2.651,4.8l-116.171-.275a3.336,3.336,0,0,1-2.634-1.26l-33.737-43.638a8.967,8.967,0,0,1,.032-11.134l33.988-43.456a3.339,3.339,0,0,1,2.641-1.246l116.168.271A3.02,3.02,0,0,1,3288.659,7145.927Z" fill="none" stroke="#fff" stroke-miterlimit="10" stroke-width="1.713"/>
                  <path id="Path_51271" data-name="Path 51271" d="M3202.976,7145.927l-34.167,43.7a2.859,2.859,0,0,0-.01,3.551l33.919,43.883a3.022,3.022,0,0,1-2.651,4.8l-116.171-.275a3.338,3.338,0,0,1-2.634-1.26l-33.737-43.638a8.967,8.967,0,0,1,.032-11.134l33.988-43.456a3.339,3.339,0,0,1,2.641-1.246l116.168.271A3.02,3.02,0,0,1,3202.976,7145.927Z" fill="none" stroke="#fff" stroke-miterlimit="10" stroke-width="1.713"/>
                </g>
                <g id="Group_41884" data-name="Group 41884">
                  <path id="Path_51272" data-name="Path 51272" d="M3516.882,7145.927l-34.168,43.7a2.86,2.86,0,0,0-.01,3.551l33.919,43.883a3.022,3.022,0,0,1-2.651,4.8l-116.171-.275a3.335,3.335,0,0,1-2.633-1.26l-33.738-43.638a8.968,8.968,0,0,1,.032-11.134l33.988-43.456a3.341,3.341,0,0,1,2.642-1.246l116.167.271A3.02,3.02,0,0,1,3516.882,7145.927Z" fill="none" stroke="#fff" stroke-miterlimit="10" stroke-width="1.713"/>
                  <path id="Path_51273" data-name="Path 51273" d="M3431.2,7145.927l-34.168,43.7a2.861,2.861,0,0,0-.01,3.551l33.92,43.883a3.022,3.022,0,0,1-2.652,4.8l-116.171-.275a3.335,3.335,0,0,1-2.633-1.26l-33.738-43.638a8.967,8.967,0,0,1,.033-11.134l33.987-43.456a3.341,3.341,0,0,1,2.642-1.246l116.167.271A3.02,3.02,0,0,1,3431.2,7145.927Z" fill="none" stroke="#fff" stroke-miterlimit="10" stroke-width="1.713"/>
                </g>
              </g>
            </g>
          </g>
          <g id="Group_41906" data-name="Group 41906" style="mix-blend-mode: overlay;isolation: isolate">
            <g id="Group_41896" data-name="Group 41896">
              <g id="Group_41892" data-name="Group 41892">
                <g id="Group_41888" data-name="Group 41888">
                  <path id="Path_51274" data-name="Path 51274" d="M2958.8,7356.886l34.168-43.7a2.86,2.86,0,0,0,.01-3.551l-33.92-43.883a3.022,3.022,0,0,1,2.652-4.8l116.171.275a3.336,3.336,0,0,1,2.633,1.26l33.738,43.638a8.966,8.966,0,0,1-.033,11.134l-33.987,43.456a3.341,3.341,0,0,1-2.642,1.246l-116.167-.271A3.02,3.02,0,0,1,2958.8,7356.886Z" fill="none" stroke="#fff" stroke-miterlimit="10" stroke-width="1.713"/>
                  <path id="Path_51275" data-name="Path 51275" d="M3044.486,7356.886l34.168-43.7a2.862,2.862,0,0,0,.01-3.551l-33.92-43.883a3.022,3.022,0,0,1,2.652-4.8l116.171.275a3.336,3.336,0,0,1,2.633,1.26l33.738,43.638a8.967,8.967,0,0,1-.033,11.134l-33.987,43.456a3.341,3.341,0,0,1-2.642,1.246l-116.167-.271A3.02,3.02,0,0,1,3044.486,7356.886Z" fill="none" stroke="#fff" stroke-miterlimit="10" stroke-width="1.713"/>
                </g>
                <g id="Group_41889" data-name="Group 41889">
                  <path id="Path_51276" data-name="Path 51276" d="M2730.581,7356.886l34.168-43.7a2.861,2.861,0,0,0,.009-3.551l-33.919-43.883a3.022,3.022,0,0,1,2.651-4.8l116.171.275a3.336,3.336,0,0,1,2.634,1.26l33.737,43.638a8.967,8.967,0,0,1-.032,11.134l-33.988,43.456a3.339,3.339,0,0,1-2.641,1.246L2733.2,7361.7A3.02,3.02,0,0,1,2730.581,7356.886Z" fill="none" stroke="#fff" stroke-miterlimit="10" stroke-width="1.713"/>
                  <path id="Path_51277" data-name="Path 51277" d="M2816.264,7356.886l34.167-43.7a2.859,2.859,0,0,0,.01-3.551l-33.919-43.883a3.022,3.022,0,0,1,2.651-4.8l116.171.275a3.337,3.337,0,0,1,2.634,1.26l33.737,43.638a8.967,8.967,0,0,1-.032,11.134l-33.988,43.456a3.339,3.339,0,0,1-2.641,1.246l-116.168-.271A3.02,3.02,0,0,1,2816.264,7356.886Z" fill="none" stroke="#fff" stroke-miterlimit="10" stroke-width="1.713"/>
                </g>
                <g id="Group_41890" data-name="Group 41890">
                  <path id="Path_51278" data-name="Path 51278" d="M2499.037,7356.886l34.167-43.7a2.86,2.86,0,0,0,.01-3.551l-33.919-43.883a3.022,3.022,0,0,1,2.651-4.8l116.171.275a3.336,3.336,0,0,1,2.634,1.26l33.737,43.638a8.967,8.967,0,0,1-.032,11.134l-33.988,43.456a3.339,3.339,0,0,1-2.641,1.246l-116.168-.27A3.02,3.02,0,0,1,2499.037,7356.886Z" fill="none" stroke="#fff" stroke-miterlimit="10" stroke-width="1.713"/>
                  <path id="Path_51279" data-name="Path 51279" d="M2584.719,7356.886l34.168-43.7a2.86,2.86,0,0,0,.01-3.551l-33.919-43.883a3.022,3.022,0,0,1,2.651-4.8l116.171.275a3.335,3.335,0,0,1,2.633,1.26l33.738,43.638a8.968,8.968,0,0,1-.032,11.134l-33.988,43.456a3.341,3.341,0,0,1-2.642,1.246l-116.167-.271A3.02,3.02,0,0,1,2584.719,7356.886Z" fill="none" stroke="#fff" stroke-miterlimit="10" stroke-width="1.713"/>
                </g>
                <g id="Group_41891" data-name="Group 41891">
                  <path id="Path_51280" data-name="Path 51280" d="M2270.814,7356.886l34.168-43.7a2.86,2.86,0,0,0,.01-3.551l-33.919-43.882a3.022,3.022,0,0,1,2.651-4.8l116.171.275a3.336,3.336,0,0,1,2.633,1.26l33.738,43.638a8.967,8.967,0,0,1-.033,11.134l-33.987,43.456a3.338,3.338,0,0,1-2.642,1.246l-116.167-.27A3.021,3.021,0,0,1,2270.814,7356.886Z" fill="none" stroke="#fff" stroke-miterlimit="10" stroke-width="1.713"/>
                  <path id="Path_51281" data-name="Path 51281" d="M2356.5,7356.886l34.168-43.7a2.861,2.861,0,0,0,.01-3.551l-33.92-43.882a3.023,3.023,0,0,1,2.652-4.8l116.171.275a3.336,3.336,0,0,1,2.633,1.26l33.738,43.638a8.967,8.967,0,0,1-.033,11.134l-33.987,43.456a3.341,3.341,0,0,1-2.642,1.246l-116.167-.27A3.021,3.021,0,0,1,2356.5,7356.886Z" fill="none" stroke="#fff" stroke-miterlimit="10" stroke-width="1.713"/>
                </g>
              </g>
              <g id="Group_41895" data-name="Group 41895">
                <g id="Group_41893" data-name="Group 41893">
                  <path id="Path_51282" data-name="Path 51282" d="M2032.282,7356.886l34.167-43.7a2.859,2.859,0,0,0,.01-3.551l-33.919-43.882a3.023,3.023,0,0,1,2.651-4.8l116.171.275a3.337,3.337,0,0,1,2.634,1.26l33.737,43.638a8.967,8.967,0,0,1-.032,11.134l-33.988,43.456a3.335,3.335,0,0,1-2.641,1.246l-116.168-.27A3.02,3.02,0,0,1,2032.282,7356.886Z" fill="none" stroke="#fff" stroke-miterlimit="10" stroke-width="1.713"/>
                  <path id="Path_51283" data-name="Path 51283" d="M2117.965,7356.886l34.167-43.7a2.86,2.86,0,0,0,.01-3.551l-33.919-43.882a3.023,3.023,0,0,1,2.651-4.8l116.171.275a3.337,3.337,0,0,1,2.634,1.26l33.737,43.638a8.967,8.967,0,0,1-.032,11.134l-33.988,43.456a3.336,3.336,0,0,1-2.641,1.246l-116.168-.27A3.02,3.02,0,0,1,2117.965,7356.886Z" fill="none" stroke="#fff" stroke-miterlimit="10" stroke-width="1.713"/>
                </g>
                <g id="Group_41894" data-name="Group 41894">
                  <path id="Path_51284" data-name="Path 51284" d="M1804.059,7356.886l34.168-43.7a2.861,2.861,0,0,0,.01-3.551l-33.919-43.882a3.023,3.023,0,0,1,2.651-4.8l116.171.275a3.334,3.334,0,0,1,2.633,1.26l33.738,43.638a8.969,8.969,0,0,1-.032,11.135l-33.988,43.455a3.338,3.338,0,0,1-2.642,1.246l-116.167-.27A3.021,3.021,0,0,1,1804.059,7356.886Z" fill="none" stroke="#fff" stroke-miterlimit="10" stroke-width="1.713"/>
                  <path id="Path_51285" data-name="Path 51285" d="M1889.742,7356.886l34.168-43.7a2.861,2.861,0,0,0,.01-3.551L1890,7265.756a3.023,3.023,0,0,1,2.652-4.8l116.171.275a3.336,3.336,0,0,1,2.633,1.26l33.738,43.638a8.968,8.968,0,0,1-.033,11.135l-33.987,43.455a3.338,3.338,0,0,1-2.642,1.246l-116.167-.27A3.021,3.021,0,0,1,1889.742,7356.886Z" fill="none" stroke="#fff" stroke-miterlimit="10" stroke-width="1.713"/>
                </g>
              </g>
            </g>
            <g id="Group_41905" data-name="Group 41905">
              <g id="Group_41901" data-name="Group 41901">
                <g id="Group_41897" data-name="Group 41897">
                  <path id="Path_51286" data-name="Path 51286" d="M4295.338,7356.886l34.167-43.7a2.859,2.859,0,0,0,.01-3.551l-33.919-43.883a3.022,3.022,0,0,1,2.651-4.8l116.171.275a3.336,3.336,0,0,1,2.634,1.26l33.737,43.638a8.967,8.967,0,0,1-.032,11.134l-33.988,43.456a3.339,3.339,0,0,1-2.641,1.246l-116.168-.271A3.02,3.02,0,0,1,4295.338,7356.886Z" fill="none" stroke="#fff" stroke-miterlimit="10" stroke-width="1.713"/>
                  <path id="Path_51287" data-name="Path 51287" d="M4381.02,7356.886l34.168-43.7a2.861,2.861,0,0,0,.01-3.551l-33.919-43.883a3.022,3.022,0,0,1,2.651-4.8l116.171.275a3.334,3.334,0,0,1,2.633,1.26l33.738,43.638a8.968,8.968,0,0,1-.032,11.134l-33.988,43.456a3.341,3.341,0,0,1-2.642,1.246l-116.167-.271A3.02,3.02,0,0,1,4381.02,7356.886Z" fill="none" stroke="#fff" stroke-miterlimit="10" stroke-width="1.713"/>
                </g>
                <g id="Group_41898" data-name="Group 41898">
                  <path id="Path_51288" data-name="Path 51288" d="M4067.115,7356.886l34.168-43.7a2.861,2.861,0,0,0,.01-3.551l-33.919-43.883a3.022,3.022,0,0,1,2.651-4.8l116.171.275a3.336,3.336,0,0,1,2.633,1.26l33.738,43.638a8.967,8.967,0,0,1-.033,11.134l-33.987,43.456a3.34,3.34,0,0,1-2.642,1.246l-116.167-.271A3.02,3.02,0,0,1,4067.115,7356.886Z" fill="none" stroke="#fff" stroke-miterlimit="10" stroke-width="1.713"/>
                  <path id="Path_51289" data-name="Path 51289" d="M4152.8,7356.886l34.168-43.7a2.861,2.861,0,0,0,.01-3.551l-33.92-43.883a3.022,3.022,0,0,1,2.652-4.8l116.171.275a3.337,3.337,0,0,1,2.633,1.26l33.738,43.638a8.966,8.966,0,0,1-.033,11.134l-33.987,43.456a3.341,3.341,0,0,1-2.642,1.246l-116.167-.271A3.02,3.02,0,0,1,4152.8,7356.886Z" fill="none" stroke="#fff" stroke-miterlimit="10" stroke-width="1.713"/>
                </g>
                <g id="Group_41899" data-name="Group 41899">
                  <path id="Path_51290" data-name="Path 51290" d="M3835.571,7356.886l34.168-43.7a2.862,2.862,0,0,0,.01-3.551l-33.92-43.883a3.022,3.022,0,0,1,2.652-4.8l116.171.275a3.335,3.335,0,0,1,2.633,1.26l33.738,43.638a8.967,8.967,0,0,1-.033,11.134L3957,7360.721a3.337,3.337,0,0,1-2.641,1.246l-116.167-.27A3.021,3.021,0,0,1,3835.571,7356.886Z" fill="none" stroke="#fff" stroke-miterlimit="10" stroke-width="1.713"/>
                  <path id="Path_51291" data-name="Path 51291" d="M3921.254,7356.886l34.168-43.7a2.861,2.861,0,0,0,.009-3.551l-33.919-43.883a3.022,3.022,0,0,1,2.651-4.8l116.171.275a3.337,3.337,0,0,1,2.634,1.26l33.737,43.638a8.967,8.967,0,0,1-.032,11.134l-33.988,43.456a3.339,3.339,0,0,1-2.641,1.246l-116.167-.271A3.02,3.02,0,0,1,3921.254,7356.886Z" fill="none" stroke="#fff" stroke-miterlimit="10" stroke-width="1.713"/>
                </g>
                <g id="Group_41900" data-name="Group 41900">
                  <path id="Path_51292" data-name="Path 51292" d="M3607.349,7356.886l34.167-43.7a2.859,2.859,0,0,0,.01-3.551l-33.919-43.882a3.023,3.023,0,0,1,2.651-4.8l116.171.275a3.336,3.336,0,0,1,2.634,1.26l33.737,43.638a8.967,8.967,0,0,1-.032,11.134l-33.988,43.456a3.336,3.336,0,0,1-2.641,1.246l-116.168-.27A3.02,3.02,0,0,1,3607.349,7356.886Z" fill="none" stroke="#fff" stroke-miterlimit="10" stroke-width="1.713"/>
                  <path id="Path_51293" data-name="Path 51293" d="M3693.032,7356.886l34.167-43.7a2.859,2.859,0,0,0,.01-3.551l-33.919-43.882a3.023,3.023,0,0,1,2.651-4.8l116.171.275a3.337,3.337,0,0,1,2.634,1.26l33.737,43.638a8.967,8.967,0,0,1-.032,11.134l-33.988,43.456a3.338,3.338,0,0,1-2.641,1.246l-116.168-.27A3.02,3.02,0,0,1,3693.032,7356.886Z" fill="none" stroke="#fff" stroke-miterlimit="10" stroke-width="1.713"/>
                </g>
              </g>
              <g id="Group_41904" data-name="Group 41904">
                <g id="Group_41902" data-name="Group 41902">
                  <path id="Path_51294" data-name="Path 51294" d="M3368.816,7356.886l34.168-43.7a2.86,2.86,0,0,0,.01-3.551l-33.92-43.882a3.023,3.023,0,0,1,2.652-4.8l116.171.275a3.336,3.336,0,0,1,2.633,1.26l33.738,43.638a8.967,8.967,0,0,1-.033,11.134l-33.987,43.456a3.338,3.338,0,0,1-2.642,1.246l-116.167-.27A3.021,3.021,0,0,1,3368.816,7356.886Z" fill="none" stroke="#fff" stroke-miterlimit="10" stroke-width="1.713"/>
                  <path id="Path_51295" data-name="Path 51295" d="M3454.5,7356.886l34.168-43.7a2.861,2.861,0,0,0,.009-3.551l-33.919-43.882a3.023,3.023,0,0,1,2.652-4.8l116.171.275a3.335,3.335,0,0,1,2.633,1.26l33.738,43.638a8.968,8.968,0,0,1-.033,11.134l-33.988,43.456a3.334,3.334,0,0,1-2.641,1.246l-116.167-.27A3.021,3.021,0,0,1,3454.5,7356.886Z" fill="none" stroke="#fff" stroke-miterlimit="10" stroke-width="1.713"/>
                </g>
                <g id="Group_41903" data-name="Group 41903">
                  <path id="Path_51296" data-name="Path 51296" d="M3140.594,7356.886l34.167-43.7a2.859,2.859,0,0,0,.01-3.551l-33.919-43.882a3.023,3.023,0,0,1,2.651-4.8l116.171.275a3.337,3.337,0,0,1,2.634,1.26l33.737,43.638a8.968,8.968,0,0,1-.032,11.135l-33.988,43.455a3.336,3.336,0,0,1-2.641,1.246l-116.168-.27A3.021,3.021,0,0,1,3140.594,7356.886Z" fill="none" stroke="#fff" stroke-miterlimit="10" stroke-width="1.713"/>
                  <path id="Path_51297" data-name="Path 51297" d="M3226.277,7356.886l34.167-43.7a2.86,2.86,0,0,0,.01-3.551l-33.919-43.882a3.023,3.023,0,0,1,2.651-4.8l116.171.275a3.336,3.336,0,0,1,2.634,1.26l33.737,43.638a8.968,8.968,0,0,1-.032,11.135l-33.988,43.455a3.336,3.336,0,0,1-2.641,1.246l-116.168-.27A3.02,3.02,0,0,1,3226.277,7356.886Z" fill="none" stroke="#fff" stroke-miterlimit="10" stroke-width="1.713"/>
                </g>
              </g>
            </g>
          </g>
        </g>
      </g>
    </g>
    <g id="heartLines" transform="translate(-2845.221 -7004.645)">
      <g id="Group_41911" data-name="Group 41911">
        <path id="Path_51298" data-name="Path 51298" d="M3658.266,7205.744l-9.114-17.033-8.64,17.033h-33.5l-7.527,34.628L3586.07,7108.98l-30.736,95.8h-6.558l-8.152-16.552-8.147,16.552h-27.224v.964h-31.481l-9.114-17.033-8.64,17.033h-33.5l-7.526,34.628-13.415-131.393-30.736,95.8h-6.558l-8.152-16.552-8.147,16.552h-27.224v.964h-31.222l-9.114-17.033-8.64,17.033h-33.5l-7.526,34.628-13.415-131.393-30.736,95.8h-6.558l-8.152-16.552-8.147,16.552h-27.224v.964h-31.481l-9.114-17.033-8.64,17.033h-33.5l-7.527,34.628-13.415-131.393-30.736,95.8h-6.558l-8.152-16.552-8.147,16.552h-135.7v9.655h141.709l2.142-4.351,2.142,4.351h19.608l18.779-58.537,14.884,145.774,18.752-86.273h31.649l2.941-5.8,3.1,5.8h42.25v-.964h28.247l2.142-4.351,2.142,4.351h19.608l18.779-58.537,14.884,145.774,18.752-86.273h31.649l2.941-5.8,3.1,5.8H3326v-.964h27.989l2.142-4.351,2.142,4.351h19.608l18.779-58.537,14.884,145.774L3430.3,7215.4h31.649l2.941-5.8,3.1,5.8h42.25v-.964h28.247l2.142-4.351,2.142,4.351h19.607l18.779-58.537,14.884,145.774,18.752-86.273h31.649l2.941-5.8,3.1,5.8h42.25v-9.655Z" fill="#f1f1f1"/>
        <path id="Path_51299" data-name="Path 51299" d="M4491.984,7205.744l-9.114-17.033-8.64,17.033h-33.5l-7.527,34.628-13.415-131.393-30.735,95.8h-6.559l-8.152-16.552-8.147,16.552h-27.224v.964H4307.49l-9.114-17.033-8.64,17.033h-33.5l-7.526,34.628-13.415-131.393-30.735,95.8H4198l-8.152-16.552-8.147,16.552h-27.224v.964h-31.222l-9.114-17.033-8.64,17.033H4072l-7.526,34.628-13.415-131.393-30.736,95.8h-6.558l-8.152-16.552-8.147,16.552h-27.224v.964h-31.481l-9.114-17.033-8.64,17.033h-33.5l-7.527,34.628-13.415-131.393-30.736,95.8h-6.558l-8.152-16.552-8.147,16.552H3694.361v9.655h124.618l2.142-4.351,2.142,4.351h19.608l18.779-58.537,14.884,145.774,18.752-86.273h31.649l2.941-5.8,3.1,5.8h42.25v-.964h28.247l2.142-4.351,2.142,4.351h19.608l18.779-58.537,14.884,145.774,18.752-86.273h31.649l2.941-5.8,3.1,5.8h42.25v-.964h27.989l2.142-4.351,2.142,4.351H4211.6l18.779-58.537,14.884,145.774,18.752-86.273h31.648l2.941-5.8,3.1,5.8h42.25v-.964H4372.2l2.142-4.351,2.142,4.351h19.607l18.779-58.537,14.884,145.774,18.752-86.273h31.649l2.941-5.8,3.1,5.8h42.25v-9.655Z" fill="#f1f1f1"/>
      </g>
      <g id="Group_41912" data-name="Group 41912">
        <path id="Path_51300" data-name="Path 51300" d="M4672.2,7210.133a147.242,147.242,0,1,1-147.241-147.244A147.241,147.241,0,0,1,4672.2,7210.133Z" fill="url(#radial-gradient)" style="mix-blend-mode: color-dodge;isolation: isolate"/>
        <path id="Path_51301" data-name="Path 51301" d="M4954.617,7210.133c0,39-192.36,70.6-429.654,70.6s-429.658-31.609-429.658-70.6,192.361-70.609,429.658-70.609S4954.617,7171.138,4954.617,7210.133Z" fill="url(#radial-gradient-2)" style="mix-blend-mode: screen;isolation: isolate"/>
      </g>
    </g>
  </g>
</svg>
