<svg xmlns="http://www.w3.org/2000/svg" xmlns:xlink="http://www.w3.org/1999/xlink" width="595" height="75" viewBox="0 0 595 75">
  <defs>
    <clipPath id="clip-path">
      <rect id="Rectangle_17705" data-name="Rectangle 17705" width="393.14" height="73.413" transform="translate(81.389 15)" fill="none" stroke="#707070" stroke-width="0.5"/>
    </clipPath>
  </defs>
  <g id="header" transform="translate(0)">
    <g id="headerBg" transform="translate(-3609.221 -7004.907)">
      <rect id="Rectangle_17704" data-name="Rectangle 17704" width="595" height="75" transform="translate(3609.221 7004.907)" fill="#2e3191"/>
    </g>
    <g id="Arrows" transform="translate(-2834.683 -7023.2)" opacity="0.57">
      <g id="Group_41908" data-name="Group 41908" transform="translate(2753.293 7008.2)" clip-path="url(#clip-path)">
        <g id="Group_41907" data-name="Group 41907" transform="translate(1.38 17.415)" opacity="0.8">
          <g id="Group_41868" data-name="Group 41868" transform="translate(0)" style="mix-blend-mode: overlay;isolation: isolate">
            <g id="Group_41858" data-name="Group 41858">
              <g id="Group_41854" data-name="Group 41854" transform="translate(97.012)">
                <g id="Group_41850" data-name="Group 41850" transform="translate(142.994)">
                  <path id="Path_51226" data-name="Path 51226" d="M2808.311,7040.317l7.1-9.083a.6.6,0,0,0,0-.738l-7.05-9.121a.628.628,0,0,1,.551-1l24.145.057a.7.7,0,0,1,.547.261l7.012,9.071a1.864,1.864,0,0,1-.007,2.314l-7.064,9.031a.7.7,0,0,1-.549.259l-24.144-.056A.628.628,0,0,1,2808.311,7040.317Z" transform="translate(-2808.181 -7020.379)" fill="none" stroke="#fff" stroke-miterlimit="10" stroke-width="0.5"/>
                  <path id="Path_51227" data-name="Path 51227" d="M2893.994,7040.317l7.1-9.083a.594.594,0,0,0,0-.738l-7.051-9.121a.628.628,0,0,1,.552-1l24.146.057a.7.7,0,0,1,.547.261l7.012,9.071a1.863,1.863,0,0,1-.007,2.314l-7.063,9.031a.7.7,0,0,1-.55.259l-24.144-.056A.628.628,0,0,1,2893.994,7040.317Z" transform="translate(-2876.055 -7020.379)" fill="none" stroke="#fff" stroke-miterlimit="10" stroke-width="0.5"/>
                </g>
                <g id="Group_41851" data-name="Group 41851" transform="translate(95.56)">
                  <path id="Path_51228" data-name="Path 51228" d="M2580.089,7040.317l7.1-9.083a.6.6,0,0,0,0-.738l-7.05-9.121a.628.628,0,0,1,.552-1l24.145.057a.7.7,0,0,1,.547.261l7.012,9.071a1.864,1.864,0,0,1-.007,2.314l-7.064,9.031a.693.693,0,0,1-.549.259l-24.145-.056A.628.628,0,0,1,2580.089,7040.317Z" transform="translate(-2579.958 -7020.379)" fill="none" stroke="#fff" stroke-miterlimit="10" stroke-width="0.5"/>
                  <path id="Path_51229" data-name="Path 51229" d="M2665.772,7040.317l7.1-9.083a.6.6,0,0,0,0-.738l-7.05-9.121a.628.628,0,0,1,.551-1l24.145.057a.7.7,0,0,1,.547.261l7.013,9.071a1.864,1.864,0,0,1-.007,2.314l-7.064,9.031a.693.693,0,0,1-.549.259l-24.144-.056A.628.628,0,0,1,2665.772,7040.317Z" transform="translate(-2647.833 -7020.379)" fill="none" stroke="#fff" stroke-miterlimit="10" stroke-width="0.5"/>
                </g>
                <g id="Group_41852" data-name="Group 41852" transform="translate(47.435)">
                  <path id="Path_51230" data-name="Path 51230" d="M2348.545,7040.317l7.1-9.083a.594.594,0,0,0,0-.738l-7.05-9.121a.628.628,0,0,1,.551-1l24.145.057a.7.7,0,0,1,.547.261l7.012,9.071a1.864,1.864,0,0,1-.007,2.314l-7.064,9.031a.693.693,0,0,1-.549.259l-24.145-.056A.628.628,0,0,1,2348.545,7040.317Z" transform="translate(-2348.415 -7020.379)" fill="none" stroke="#fff" stroke-miterlimit="10" stroke-width="0.5"/>
                  <path id="Path_51231" data-name="Path 51231" d="M2434.228,7040.317l7.1-9.083a.594.594,0,0,0,0-.738l-7.05-9.121a.628.628,0,0,1,.551-1l24.146.057a.7.7,0,0,1,.547.261l7.012,9.071a1.864,1.864,0,0,1-.007,2.314l-7.064,9.031a.693.693,0,0,1-.549.259l-24.145-.056A.628.628,0,0,1,2434.228,7040.317Z" transform="translate(-2416.289 -7020.379)" fill="none" stroke="#fff" stroke-miterlimit="10" stroke-width="0.5"/>
                </g>
                <g id="Group_41853" data-name="Group 41853">
                  <path id="Path_51232" data-name="Path 51232" d="M2120.323,7040.317l7.1-9.083a.594.594,0,0,0,0-.738l-7.05-9.121a.628.628,0,0,1,.551-1l24.145.057a.7.7,0,0,1,.548.261l7.012,9.071a1.864,1.864,0,0,1-.007,2.314l-7.064,9.031a.693.693,0,0,1-.549.259l-24.145-.056A.627.627,0,0,1,2120.323,7040.317Z" transform="translate(-2120.192 -7020.379)" fill="none" stroke="#fff" stroke-miterlimit="10" stroke-width="0.5"/>
                  <path id="Path_51233" data-name="Path 51233" d="M2206,7040.317l7.1-9.083a.594.594,0,0,0,0-.738l-7.05-9.121a.628.628,0,0,1,.551-1l24.145.057a.7.7,0,0,1,.547.261l7.012,9.071a1.864,1.864,0,0,1-.007,2.314l-7.064,9.031a.694.694,0,0,1-.549.259l-24.145-.056A.628.628,0,0,1,2206,7040.317Z" transform="translate(-2188.066 -7020.379)" fill="none" stroke="#fff" stroke-miterlimit="10" stroke-width="0.5"/>
                </g>
              </g>
              <g id="Group_41857" data-name="Group 41857">
                <g id="Group_41855" data-name="Group 41855" transform="translate(47.435)">
                  <path id="Path_51234" data-name="Path 51234" d="M1881.79,7040.317l7.1-9.083a.594.594,0,0,0,0-.737l-7.05-9.121a.628.628,0,0,1,.551-1l24.146.057a.7.7,0,0,1,.547.261l7.012,9.071a1.864,1.864,0,0,1-.006,2.314l-7.064,9.031a.693.693,0,0,1-.549.259l-24.145-.056A.628.628,0,0,1,1881.79,7040.317Z" transform="translate(-1881.659 -7020.379)" fill="none" stroke="#fff" stroke-miterlimit="10" stroke-width="0.5"/>
                  <path id="Path_51235" data-name="Path 51235" d="M1967.473,7040.317l7.1-9.083a.594.594,0,0,0,0-.738l-7.05-9.121a.628.628,0,0,1,.551-1l24.145.057a.7.7,0,0,1,.548.261l7.012,9.071a1.864,1.864,0,0,1-.007,2.314l-7.064,9.031a.693.693,0,0,1-.549.259l-24.145-.056A.628.628,0,0,1,1967.473,7040.317Z" transform="translate(-1949.534 -7020.379)" fill="none" stroke="#fff" stroke-miterlimit="10" stroke-width="0.5"/>
                </g>
                <g id="Group_41856" data-name="Group 41856">
                  <path id="Path_51236" data-name="Path 51236" d="M1653.568,7040.317l7.1-9.083a.594.594,0,0,0,0-.737l-7.05-9.121a.628.628,0,0,1,.551-1l24.145.057a.7.7,0,0,1,.547.261l7.012,9.071a1.864,1.864,0,0,1-.007,2.314l-7.064,9.031a.693.693,0,0,1-.549.259l-24.145-.056A.627.627,0,0,1,1653.568,7040.317Z" transform="translate(-1653.437 -7020.379)" fill="none" stroke="#fff" stroke-miterlimit="10" stroke-width="0.5"/>
                  <path id="Path_51237" data-name="Path 51237" d="M1739.251,7040.317l7.1-9.083a.593.593,0,0,0,0-.737l-7.05-9.121a.628.628,0,0,1,.551-1l24.145.057a.7.7,0,0,1,.548.261l7.012,9.071a1.864,1.864,0,0,1-.007,2.314l-7.064,9.031a.693.693,0,0,1-.549.259l-24.145-.056A.628.628,0,0,1,1739.251,7040.317Z" transform="translate(-1721.311 -7020.379)" fill="none" stroke="#fff" stroke-miterlimit="10" stroke-width="0.5"/>
                </g>
              </g>
            </g>
            <g id="Group_41867" data-name="Group 41867" transform="translate(277.791)">
              <g id="Group_41863" data-name="Group 41863" transform="translate(97.012)">
                <g id="Group_41859" data-name="Group 41859" transform="translate(142.994)">
                  <path id="Path_51238" data-name="Path 51238" d="M4144.845,7040.317l7.1-9.083a.594.594,0,0,0,0-.738l-7.05-9.121a.629.629,0,0,1,.551-1l24.146.057a.7.7,0,0,1,.547.261l7.012,9.071a1.864,1.864,0,0,1-.006,2.314l-7.065,9.031a.689.689,0,0,1-.548.259l-24.145-.056A.628.628,0,0,1,4144.845,7040.317Z" transform="translate(-4144.714 -7020.379)" fill="none" stroke="#fff" stroke-miterlimit="10" stroke-width="0.5"/>
                  <path id="Path_51239" data-name="Path 51239" d="M4230.528,7040.317l7.1-9.083a.594.594,0,0,0,0-.738l-7.049-9.121a.628.628,0,0,1,.55-1l24.146.057a.7.7,0,0,1,.547.261l7.012,9.071a1.863,1.863,0,0,1-.007,2.314l-7.063,9.031a.693.693,0,0,1-.549.259l-24.146-.056A.628.628,0,0,1,4230.528,7040.317Z" transform="translate(-4212.589 -7020.379)" fill="none" stroke="#fff" stroke-miterlimit="10" stroke-width="0.5"/>
                </g>
                <g id="Group_41860" data-name="Group 41860" transform="translate(95.56)">
                  <path id="Path_51241" data-name="Path 51241" d="M4002.306,7040.317l7.1-9.083a.6.6,0,0,0,0-.738l-7.05-9.121a.628.628,0,0,1,.551-1l24.146.057a.7.7,0,0,1,.547.261l7.012,9.071a1.862,1.862,0,0,1-.007,2.314l-7.063,9.031a.694.694,0,0,1-.55.259l-24.144-.056A.628.628,0,0,1,4002.306,7040.317Z" transform="translate(-3984.367 -7020.379)" fill="none" stroke="#fff" stroke-miterlimit="10" stroke-width="0.5"/>
                </g>
                <g id="Group_41861" data-name="Group 41861" transform="translate(47.435)">
                  <path id="Path_51242" data-name="Path 51242" d="M3685.079,7040.317l7.1-9.083a.593.593,0,0,0,0-.738l-7.05-9.121a.628.628,0,0,1,.552-1l24.145.057a.7.7,0,0,1,.547.261l7.013,9.071a1.865,1.865,0,0,1-.007,2.314l-7.064,9.031a.694.694,0,0,1-.549.259l-24.145-.056A.628.628,0,0,1,3685.079,7040.317Z" transform="translate(-3684.948 -7020.379)" fill="none" stroke="#fff" stroke-miterlimit="10" stroke-width="0.5"/>
                  <path id="Path_51243" data-name="Path 51243" d="M3770.761,7040.317l7.1-9.083a.593.593,0,0,0,0-.738l-7.049-9.121a.628.628,0,0,1,.551-1l24.145.057a.7.7,0,0,1,.548.261l7.012,9.071a1.863,1.863,0,0,1-.007,2.314l-7.064,9.031a.694.694,0,0,1-.549.259l-24.145-.056A.628.628,0,0,1,3770.761,7040.317Z" transform="translate(-3752.822 -7020.379)" fill="none" stroke="#fff" stroke-miterlimit="10" stroke-width="0.5"/>
                </g>
                <g id="Group_41862" data-name="Group 41862">
                  <path id="Path_51244" data-name="Path 51244" d="M3456.857,7040.317l7.1-9.083a.6.6,0,0,0,0-.738l-7.05-9.121a.628.628,0,0,1,.551-1l24.146.057a.7.7,0,0,1,.547.261l7.012,9.071a1.864,1.864,0,0,1-.007,2.314l-7.064,9.031a.694.694,0,0,1-.549.259l-24.145-.056A.628.628,0,0,1,3456.857,7040.317Z" transform="translate(-3456.726 -7020.379)" fill="none" stroke="#fff" stroke-miterlimit="10" stroke-width="0.5"/>
                  <path id="Path_51245" data-name="Path 51245" d="M3542.54,7040.317l7.1-9.083a.594.594,0,0,0,0-.738l-7.05-9.121a.628.628,0,0,1,.551-1l24.146.057a.7.7,0,0,1,.547.261l7.012,9.071a1.865,1.865,0,0,1-.007,2.314l-7.064,9.031a.693.693,0,0,1-.549.259l-24.145-.056A.628.628,0,0,1,3542.54,7040.317Z" transform="translate(-3524.601 -7020.379)" fill="none" stroke="#fff" stroke-miterlimit="10" stroke-width="0.5"/>
                </g>
              </g>
              <g id="Group_41866" data-name="Group 41866">
                <g id="Group_41864" data-name="Group 41864" transform="translate(47.435)">
                  <path id="Path_51246" data-name="Path 51246" d="M3218.324,7040.317l7.1-9.083a.594.594,0,0,0,0-.737l-7.049-9.121a.628.628,0,0,1,.551-1l24.145.057a.7.7,0,0,1,.548.261l7.012,9.071a1.864,1.864,0,0,1-.007,2.314l-7.064,9.031a.693.693,0,0,1-.549.259l-24.145-.056A.628.628,0,0,1,3218.324,7040.317Z" transform="translate(-3218.194 -7020.379)" fill="none" stroke="#fff" stroke-miterlimit="10" stroke-width="0.5"/>
                  <path id="Path_51247" data-name="Path 51247" d="M3304.007,7040.317l7.1-9.083a.6.6,0,0,0,0-.738l-7.05-9.121a.628.628,0,0,1,.551-1l24.146.057a.7.7,0,0,1,.547.261l7.012,9.071a1.864,1.864,0,0,1-.007,2.314l-7.064,9.031a.694.694,0,0,1-.549.259l-24.144-.056A.628.628,0,0,1,3304.007,7040.317Z" transform="translate(-3286.068 -7020.379)" fill="none" stroke="#fff" stroke-miterlimit="10" stroke-width="0.5"/>
                </g>
                <g id="Group_41865" data-name="Group 41865">
                  <path id="Path_51248" data-name="Path 51248" d="M2990.1,7040.317l7.1-9.083a.594.594,0,0,0,0-.737l-7.05-9.121a.628.628,0,0,1,.552-1l24.145.057a.7.7,0,0,1,.547.261l7.012,9.071a1.864,1.864,0,0,1-.007,2.314l-7.064,9.031a.694.694,0,0,1-.549.259l-24.145-.056A.627.627,0,0,1,2990.1,7040.317Z" transform="translate(-2989.971 -7020.379)" fill="none" stroke="#fff" stroke-miterlimit="10" stroke-width="0.5"/>
                  <path id="Path_51249" data-name="Path 51249" d="M3075.785,7040.317l7.1-9.083a.593.593,0,0,0,0-.737l-7.05-9.121a.628.628,0,0,1,.552-1l24.146.057a.7.7,0,0,1,.547.261l7.012,9.071a1.864,1.864,0,0,1-.007,2.314l-7.064,9.031a.693.693,0,0,1-.549.259l-24.145-.056A.628.628,0,0,1,3075.785,7040.317Z" transform="translate(-3057.846 -7020.379)" fill="none" stroke="#fff" stroke-miterlimit="10" stroke-width="0.5"/>
                </g>
              </g>
            </g>
            <g id="Group_44394" data-name="Group 44394" transform="translate(586.212)">
              <g id="Group_41863-2" data-name="Group 41863" transform="translate(97.012)">
                <g id="Group_41859-2" data-name="Group 41859" transform="translate(125.186)">
                  <path id="Path_51238-2" data-name="Path 51238" d="M4144.845,7040.317l7.1-9.083a.594.594,0,0,0,0-.738l-7.05-9.121a.629.629,0,0,1,.551-1l24.146.057a.7.7,0,0,1,.547.261l7.012,9.071a1.864,1.864,0,0,1-.006,2.314l-7.065,9.031a.689.689,0,0,1-.548.259l-24.145-.056A.628.628,0,0,1,4144.845,7040.317Z" transform="translate(-4144.714 -7020.379)" fill="none" stroke="#fff" stroke-miterlimit="10" stroke-width="0.5"/>
                  <path id="Path_51239-2" data-name="Path 51239" d="M4230.528,7040.317l7.1-9.083a.594.594,0,0,0,0-.738l-7.049-9.121a.628.628,0,0,1,.55-1l24.146.057a.7.7,0,0,1,.547.261l7.012,9.071a1.863,1.863,0,0,1-.007,2.314l-7.063,9.031a.693.693,0,0,1-.549.259l-24.146-.056A.628.628,0,0,1,4230.528,7040.317Z" transform="translate(-4212.589 -7020.379)" fill="none" stroke="#fff" stroke-miterlimit="10" stroke-width="0.5"/>
                </g>
                <g id="Group_41860-2" data-name="Group 41860" transform="translate(77.751)">
                  <path id="Path_51240" data-name="Path 51240" d="M3916.624,7040.317l7.1-9.083a.594.594,0,0,0,0-.738l-7.05-9.121a.628.628,0,0,1,.551-1l24.146.057a.7.7,0,0,1,.547.261l7.012,9.071a1.864,1.864,0,0,1-.006,2.314l-7.065,9.031a.693.693,0,0,1-.548.259l-24.146-.056A.628.628,0,0,1,3916.624,7040.317Z" transform="translate(-3916.493 -7020.379)" fill="none" stroke="#fff" stroke-miterlimit="10" stroke-width="0.5"/>
                  <path id="Path_51241-2" data-name="Path 51241" d="M4002.306,7040.317l7.1-9.083a.6.6,0,0,0,0-.738l-7.05-9.121a.628.628,0,0,1,.551-1l24.146.057a.7.7,0,0,1,.547.261l7.012,9.071a1.862,1.862,0,0,1-.007,2.314l-7.063,9.031a.694.694,0,0,1-.55.259l-24.144-.056A.628.628,0,0,1,4002.306,7040.317Z" transform="translate(-3984.367 -7020.379)" fill="none" stroke="#fff" stroke-miterlimit="10" stroke-width="0.5"/>
                </g>
                <g id="Group_41861-2" data-name="Group 41861" transform="translate(29.626)">
                  <path id="Path_51242-2" data-name="Path 51242" d="M3685.079,7040.317l7.1-9.083a.593.593,0,0,0,0-.738l-7.05-9.121a.628.628,0,0,1,.552-1l24.145.057a.7.7,0,0,1,.547.261l7.013,9.071a1.865,1.865,0,0,1-.007,2.314l-7.064,9.031a.694.694,0,0,1-.549.259l-24.145-.056A.628.628,0,0,1,3685.079,7040.317Z" transform="translate(-3684.948 -7020.379)" fill="none" stroke="#fff" stroke-miterlimit="10" stroke-width="0.5"/>
                  <path id="Path_51243-2" data-name="Path 51243" d="M3770.761,7040.317l7.1-9.083a.593.593,0,0,0,0-.738l-7.049-9.121a.628.628,0,0,1,.551-1l24.145.057a.7.7,0,0,1,.548.261l7.012,9.071a1.863,1.863,0,0,1-.007,2.314l-7.064,9.031a.694.694,0,0,1-.549.259l-24.145-.056A.628.628,0,0,1,3770.761,7040.317Z" transform="translate(-3752.822 -7020.379)" fill="none" stroke="#fff" stroke-miterlimit="10" stroke-width="0.5"/>
                </g>
                <g id="Group_41862-2" data-name="Group 41862" transform="translate(0)">
                  <path id="Path_51245-2" data-name="Path 51245" d="M3542.54,7040.317l7.1-9.083a.594.594,0,0,0,0-.738l-7.05-9.121a.628.628,0,0,1,.551-1l24.146.057a.7.7,0,0,1,.547.261l7.012,9.071a1.865,1.865,0,0,1-.007,2.314l-7.064,9.031a.693.693,0,0,1-.549.259l-24.145-.056A.628.628,0,0,1,3542.54,7040.317Z" transform="translate(-3542.409 -7020.379)" fill="none" stroke="#fff" stroke-miterlimit="10" stroke-width="0.5"/>
                </g>
              </g>
              <g id="Group_41866-2" data-name="Group 41866" transform="translate(0)">
                <g id="Group_41864-2" data-name="Group 41864" transform="translate(29.626)">
                  <path id="Path_51246-2" data-name="Path 51246" d="M3218.324,7040.317l7.1-9.083a.594.594,0,0,0,0-.737l-7.049-9.121a.628.628,0,0,1,.551-1l24.145.057a.7.7,0,0,1,.548.261l7.012,9.071a1.864,1.864,0,0,1-.007,2.314l-7.064,9.031a.693.693,0,0,1-.549.259l-24.145-.056A.628.628,0,0,1,3218.324,7040.317Z" transform="translate(-3218.194 -7020.379)" fill="none" stroke="#fff" stroke-miterlimit="10" stroke-width="0.5"/>
                  <path id="Path_51247-2" data-name="Path 51247" d="M3304.007,7040.317l7.1-9.083a.6.6,0,0,0,0-.738l-7.05-9.121a.628.628,0,0,1,.551-1l24.146.057a.7.7,0,0,1,.547.261l7.012,9.071a1.864,1.864,0,0,1-.007,2.314l-7.064,9.031a.694.694,0,0,1-.549.259l-24.144-.056A.628.628,0,0,1,3304.007,7040.317Z" transform="translate(-3286.068 -7020.379)" fill="none" stroke="#fff" stroke-miterlimit="10" stroke-width="0.5"/>
                </g>
                <g id="Group_41865-2" data-name="Group 41865">
                  <path id="Path_51249-2" data-name="Path 51249" d="M3075.785,7040.317l7.1-9.083a.593.593,0,0,0,0-.737l-7.05-9.121a.628.628,0,0,1,.552-1l24.146.057a.7.7,0,0,1,.547.261l7.012,9.071a1.864,1.864,0,0,1-.007,2.314l-7.064,9.031a.693.693,0,0,1-.549.259l-24.145-.056A.628.628,0,0,1,3075.785,7040.317Z" transform="translate(-3075.654 -7020.379)" fill="none" stroke="#fff" stroke-miterlimit="10" stroke-width="0.5"/>
                </g>
              </g>
            </g>
            <g id="Group_44395" data-name="Group 44395" transform="translate(859.017)">
              <g id="Group_41863-3" data-name="Group 41863" transform="translate(97.012)">
                <g id="Group_41859-3" data-name="Group 41859" transform="translate(142.994)">
                  <path id="Path_51238-3" data-name="Path 51238" d="M4144.845,7040.317l7.1-9.083a.594.594,0,0,0,0-.738l-7.05-9.121a.629.629,0,0,1,.551-1l24.146.057a.7.7,0,0,1,.547.261l7.012,9.071a1.864,1.864,0,0,1-.006,2.314l-7.065,9.031a.689.689,0,0,1-.548.259l-24.145-.056A.628.628,0,0,1,4144.845,7040.317Z" transform="translate(-4144.714 -7020.379)" fill="none" stroke="#fff" stroke-miterlimit="10" stroke-width="0.5"/>
                  <path id="Path_51239-3" data-name="Path 51239" d="M4230.528,7040.317l7.1-9.083a.594.594,0,0,0,0-.738l-7.049-9.121a.628.628,0,0,1,.55-1l24.146.057a.7.7,0,0,1,.547.261l7.012,9.071a1.863,1.863,0,0,1-.007,2.314l-7.063,9.031a.693.693,0,0,1-.549.259l-24.146-.056A.628.628,0,0,1,4230.528,7040.317Z" transform="translate(-4212.589 -7020.379)" fill="none" stroke="#fff" stroke-miterlimit="10" stroke-width="0.5"/>
                </g>
                <g id="Group_41860-3" data-name="Group 41860" transform="translate(95.56)">
                  <path id="Path_51240-2" data-name="Path 51240" d="M3916.624,7040.317l7.1-9.083a.594.594,0,0,0,0-.738l-7.05-9.121a.628.628,0,0,1,.551-1l24.146.057a.7.7,0,0,1,.547.261l7.012,9.071a1.864,1.864,0,0,1-.006,2.314l-7.065,9.031a.693.693,0,0,1-.548.259l-24.146-.056A.628.628,0,0,1,3916.624,7040.317Z" transform="translate(-3916.493 -7020.379)" fill="none" stroke="#fff" stroke-miterlimit="10" stroke-width="0.5"/>
                  <path id="Path_51241-3" data-name="Path 51241" d="M4002.306,7040.317l7.1-9.083a.6.6,0,0,0,0-.738l-7.05-9.121a.628.628,0,0,1,.551-1l24.146.057a.7.7,0,0,1,.547.261l7.012,9.071a1.862,1.862,0,0,1-.007,2.314l-7.063,9.031a.694.694,0,0,1-.55.259l-24.144-.056A.628.628,0,0,1,4002.306,7040.317Z" transform="translate(-3984.367 -7020.379)" fill="none" stroke="#fff" stroke-miterlimit="10" stroke-width="0.5"/>
                </g>
                <g id="Group_41861-3" data-name="Group 41861" transform="translate(47.435)">
                  <path id="Path_51242-3" data-name="Path 51242" d="M3685.079,7040.317l7.1-9.083a.593.593,0,0,0,0-.738l-7.05-9.121a.628.628,0,0,1,.552-1l24.145.057a.7.7,0,0,1,.547.261l7.013,9.071a1.865,1.865,0,0,1-.007,2.314l-7.064,9.031a.694.694,0,0,1-.549.259l-24.145-.056A.628.628,0,0,1,3685.079,7040.317Z" transform="translate(-3684.948 -7020.379)" fill="none" stroke="#fff" stroke-miterlimit="10" stroke-width="0.5"/>
                  <path id="Path_51243-3" data-name="Path 51243" d="M3770.761,7040.317l7.1-9.083a.593.593,0,0,0,0-.738l-7.049-9.121a.628.628,0,0,1,.551-1l24.145.057a.7.7,0,0,1,.548.261l7.012,9.071a1.863,1.863,0,0,1-.007,2.314l-7.064,9.031a.694.694,0,0,1-.549.259l-24.145-.056A.628.628,0,0,1,3770.761,7040.317Z" transform="translate(-3752.822 -7020.379)" fill="none" stroke="#fff" stroke-miterlimit="10" stroke-width="0.5"/>
                </g>
                <g id="Group_41862-3" data-name="Group 41862">
                  <path id="Path_51244-2" data-name="Path 51244" d="M3456.857,7040.317l7.1-9.083a.6.6,0,0,0,0-.738l-7.05-9.121a.628.628,0,0,1,.551-1l24.146.057a.7.7,0,0,1,.547.261l7.012,9.071a1.864,1.864,0,0,1-.007,2.314l-7.064,9.031a.694.694,0,0,1-.549.259l-24.145-.056A.628.628,0,0,1,3456.857,7040.317Z" transform="translate(-3456.726 -7020.379)" fill="none" stroke="#fff" stroke-miterlimit="10" stroke-width="0.5"/>
                  <path id="Path_51245-3" data-name="Path 51245" d="M3542.54,7040.317l7.1-9.083a.594.594,0,0,0,0-.738l-7.05-9.121a.628.628,0,0,1,.551-1l24.146.057a.7.7,0,0,1,.547.261l7.012,9.071a1.865,1.865,0,0,1-.007,2.314l-7.064,9.031a.693.693,0,0,1-.549.259l-24.145-.056A.628.628,0,0,1,3542.54,7040.317Z" transform="translate(-3524.601 -7020.379)" fill="none" stroke="#fff" stroke-miterlimit="10" stroke-width="0.5"/>
                </g>
              </g>
              <g id="Group_41866-3" data-name="Group 41866">
                <g id="Group_41864-3" data-name="Group 41864" transform="translate(47.435)">
                  <path id="Path_51246-3" data-name="Path 51246" d="M3218.324,7040.317l7.1-9.083a.594.594,0,0,0,0-.737l-7.049-9.121a.628.628,0,0,1,.551-1l24.145.057a.7.7,0,0,1,.548.261l7.012,9.071a1.864,1.864,0,0,1-.007,2.314l-7.064,9.031a.693.693,0,0,1-.549.259l-24.145-.056A.628.628,0,0,1,3218.324,7040.317Z" transform="translate(-3218.194 -7020.379)" fill="none" stroke="#fff" stroke-miterlimit="10" stroke-width="0.5"/>
                  <path id="Path_51247-3" data-name="Path 51247" d="M3304.007,7040.317l7.1-9.083a.6.6,0,0,0,0-.738l-7.05-9.121a.628.628,0,0,1,.551-1l24.146.057a.7.7,0,0,1,.547.261l7.012,9.071a1.864,1.864,0,0,1-.007,2.314l-7.064,9.031a.694.694,0,0,1-.549.259l-24.144-.056A.628.628,0,0,1,3304.007,7040.317Z" transform="translate(-3286.068 -7020.379)" fill="none" stroke="#fff" stroke-miterlimit="10" stroke-width="0.5"/>
                </g>
                <g id="Group_41865-3" data-name="Group 41865">
                  <path id="Path_51248-2" data-name="Path 51248" d="M2990.1,7040.317l7.1-9.083a.594.594,0,0,0,0-.737l-7.05-9.121a.628.628,0,0,1,.552-1l24.145.057a.7.7,0,0,1,.547.261l7.012,9.071a1.864,1.864,0,0,1-.007,2.314l-7.064,9.031a.694.694,0,0,1-.549.259l-24.145-.056A.627.627,0,0,1,2990.1,7040.317Z" transform="translate(-2989.971 -7020.379)" fill="none" stroke="#fff" stroke-miterlimit="10" stroke-width="0.5"/>
                  <path id="Path_51249-3" data-name="Path 51249" d="M3075.785,7040.317l7.1-9.083a.593.593,0,0,0,0-.737l-7.05-9.121a.628.628,0,0,1,.552-1l24.146.057a.7.7,0,0,1,.547.261l7.012,9.071a1.864,1.864,0,0,1-.007,2.314l-7.064,9.031a.693.693,0,0,1-.549.259l-24.145-.056A.628.628,0,0,1,3075.785,7040.317Z" transform="translate(-3057.846 -7020.379)" fill="none" stroke="#fff" stroke-miterlimit="10" stroke-width="0.5"/>
                </g>
              </g>
            </g>
          </g>
          <g id="Group_41887" data-name="Group 41887" transform="translate(0.099 25.604)" style="mix-blend-mode: overlay;isolation: isolate">
            <g id="Group_44390" data-name="Group 44390" transform="translate(289.664)">
              <g id="Group_41877" data-name="Group 41877">
                <g id="Group_41873" data-name="Group 41873">
                  <g id="Group_41869" data-name="Group 41869" transform="translate(0 0)">
                    <path id="Path_51250" data-name="Path 51250" d="M3574.008,7141.9l-7.1,9.083a.594.594,0,0,0,0,.738l7.049,9.12a.628.628,0,0,1-.551,1l-24.146-.057a.7.7,0,0,1-.547-.262l-7.012-9.07a1.865,1.865,0,0,1,.006-2.314l7.065-9.032a.693.693,0,0,1,.549-.258l24.145.056A.627.627,0,0,1,3574.008,7141.9Z" transform="translate(-3523.49 -7140.847)" fill="none" stroke="#fff" stroke-miterlimit="10" stroke-width="0.5"/>
                    <path id="Path_51251" data-name="Path 51251" d="M3488.325,7141.9l-7.1,9.083a.594.594,0,0,0,0,.738l7.05,9.12a.628.628,0,0,1-.551,1l-24.146-.057a.7.7,0,0,1-.547-.262l-7.012-9.07a1.864,1.864,0,0,1,.006-2.314l7.064-9.032a.692.692,0,0,1,.549-.258l24.145.056A.628.628,0,0,1,3488.325,7141.9Z" transform="translate(-3455.617 -7140.847)" fill="none" stroke="#fff" stroke-miterlimit="10" stroke-width="0.5"/>
                  </g>
                  <g id="Group_41870" data-name="Group 41870" transform="translate(47.435)">
                    <path id="Path_51252" data-name="Path 51252" d="M3802.23,7141.9l-7.1,9.083a.594.594,0,0,0,0,.738l7.05,9.121a.628.628,0,0,1-.551,1l-24.146-.056a.69.69,0,0,1-.546-.262l-7.013-9.071a1.863,1.863,0,0,1,.006-2.314l7.064-9.031a.7.7,0,0,1,.549-.259l24.145.057A.627.627,0,0,1,3802.23,7141.9Z" transform="translate(-3751.713 -7140.846)" fill="none" stroke="#fff" stroke-miterlimit="10" stroke-width="0.5"/>
                    <path id="Path_51253" data-name="Path 51253" d="M3716.548,7141.9l-7.1,9.083a.594.594,0,0,0,0,.738l7.05,9.121a.628.628,0,0,1-.551,1l-24.146-.056a.693.693,0,0,1-.547-.262l-7.012-9.071a1.864,1.864,0,0,1,.007-2.314l7.064-9.031a.694.694,0,0,1,.549-.259l24.145.057A.628.628,0,0,1,3716.548,7141.9Z" transform="translate(-3683.839 -7140.846)" fill="none" stroke="#fff" stroke-miterlimit="10" stroke-width="0.5"/>
                  </g>
                  <g id="Group_41871" data-name="Group 41871" transform="translate(95.56)">
                    <path id="Path_51254" data-name="Path 51254" d="M4033.775,7141.9l-7.1,9.083a.6.6,0,0,0,0,.738l7.051,9.121a.628.628,0,0,1-.552,1l-24.145-.056a.694.694,0,0,1-.548-.262l-7.012-9.071a1.862,1.862,0,0,1,.007-2.314l7.064-9.031a.7.7,0,0,1,.549-.259l24.145.057A.628.628,0,0,1,4033.775,7141.9Z" transform="translate(-3983.257 -7140.846)" fill="none" stroke="#fff" stroke-miterlimit="10" stroke-width="0.5"/>
                    <path id="Path_51255" data-name="Path 51255" d="M3948.092,7141.9l-7.1,9.083a.594.594,0,0,0,0,.738l7.05,9.121a.628.628,0,0,1-.551,1l-24.145-.056a.694.694,0,0,1-.548-.262l-7.012-9.071a1.865,1.865,0,0,1,.007-2.314l7.064-9.031a.694.694,0,0,1,.549-.259l24.145.057A.627.627,0,0,1,3948.092,7141.9Z" transform="translate(-3915.383 -7140.846)" fill="none" stroke="#fff" stroke-miterlimit="10" stroke-width="0.5"/>
                  </g>
                </g>
                <g id="Group_41876" data-name="Group 41876" transform="translate(192.572)">
                  <g id="Group_41874" data-name="Group 41874">
                    <path id="Path_51258" data-name="Path 51258" d="M4500.53,7141.9l-7.1,9.083a.6.6,0,0,0,0,.738l7.05,9.121a.628.628,0,0,1-.552,1l-24.146-.056a.693.693,0,0,1-.547-.262l-7.012-9.071a1.862,1.862,0,0,1,.007-2.314l7.063-9.031a.7.7,0,0,1,.548-.259l24.146.057A.628.628,0,0,1,4500.53,7141.9Z" transform="translate(-4450.012 -7140.846)" fill="none" stroke="#fff" stroke-miterlimit="10" stroke-width="0.5"/>
                    <path id="Path_51259" data-name="Path 51259" d="M4414.847,7141.9l-7.1,9.083a.6.6,0,0,0,0,.738l7.05,9.121a.628.628,0,0,1-.551,1l-24.146-.056a.694.694,0,0,1-.547-.262l-7.013-9.071a1.864,1.864,0,0,1,.007-2.314l7.065-9.031a.692.692,0,0,1,.548-.259l24.146.057A.628.628,0,0,1,4414.847,7141.9Z" transform="translate(-4382.137 -7140.846)" fill="none" stroke="#fff" stroke-miterlimit="10" stroke-width="0.5"/>
                  </g>
                  <g id="Group_41875" data-name="Group 41875" transform="translate(47.435)">
                    <path id="Path_51261" data-name="Path 51261" d="M4643.069,7141.9l-7.1,9.083a.6.6,0,0,0,0,.738l7.05,9.121a.628.628,0,0,1-.551,1l-24.146-.056a.692.692,0,0,1-.547-.262l-7.012-9.071a1.864,1.864,0,0,1,.006-2.314l7.064-9.031a.7.7,0,0,1,.55-.259l24.144.057A.628.628,0,0,1,4643.069,7141.9Z" transform="translate(-4610.36 -7140.846)" fill="none" stroke="#fff" stroke-miterlimit="10" stroke-width="0.5"/>
                  </g>
                </g>
              </g>
            </g>
            <g id="Group_44391" data-name="Group 44391" transform="translate(580.277)">
              <g id="Group_41877-2" data-name="Group 41877">
                <g id="Group_41873-2" data-name="Group 41873">
                  <g id="Group_41869-2" data-name="Group 41869" transform="translate(0 0)">
                    <path id="Path_51250-2" data-name="Path 51250" d="M3574.008,7141.9l-7.1,9.083a.594.594,0,0,0,0,.738l7.049,9.12a.628.628,0,0,1-.551,1l-24.146-.057a.7.7,0,0,1-.547-.262l-7.012-9.07a1.865,1.865,0,0,1,.006-2.314l7.065-9.032a.693.693,0,0,1,.549-.258l24.145.056A.627.627,0,0,1,3574.008,7141.9Z" transform="translate(-3523.49 -7140.847)" fill="none" stroke="#fff" stroke-miterlimit="10" stroke-width="0.5"/>
                    <path id="Path_51251-2" data-name="Path 51251" d="M3488.325,7141.9l-7.1,9.083a.594.594,0,0,0,0,.738l7.05,9.12a.628.628,0,0,1-.551,1l-24.146-.057a.7.7,0,0,1-.547-.262l-7.012-9.07a1.864,1.864,0,0,1,.006-2.314l7.064-9.032a.692.692,0,0,1,.549-.258l24.145.056A.628.628,0,0,1,3488.325,7141.9Z" transform="translate(-3455.617 -7140.847)" fill="none" stroke="#fff" stroke-miterlimit="10" stroke-width="0.5"/>
                  </g>
                  <g id="Group_41870-2" data-name="Group 41870" transform="translate(47.435)">
                    <path id="Path_51252-2" data-name="Path 51252" d="M3802.23,7141.9l-7.1,9.083a.594.594,0,0,0,0,.738l7.05,9.121a.628.628,0,0,1-.551,1l-24.146-.056a.69.69,0,0,1-.546-.262l-7.013-9.071a1.863,1.863,0,0,1,.006-2.314l7.064-9.031a.7.7,0,0,1,.549-.259l24.145.057A.627.627,0,0,1,3802.23,7141.9Z" transform="translate(-3751.713 -7140.846)" fill="none" stroke="#fff" stroke-miterlimit="10" stroke-width="0.5"/>
                    <path id="Path_51253-2" data-name="Path 51253" d="M3716.548,7141.9l-7.1,9.083a.594.594,0,0,0,0,.738l7.05,9.121a.628.628,0,0,1-.551,1l-24.146-.056a.693.693,0,0,1-.547-.262l-7.012-9.071a1.864,1.864,0,0,1,.007-2.314l7.064-9.031a.694.694,0,0,1,.549-.259l24.145.057A.628.628,0,0,1,3716.548,7141.9Z" transform="translate(-3683.839 -7140.846)" fill="none" stroke="#fff" stroke-miterlimit="10" stroke-width="0.5"/>
                  </g>
                  <g id="Group_41871-2" data-name="Group 41871" transform="translate(113.368)">
                    <path id="Path_51254-2" data-name="Path 51254" d="M4033.775,7141.9l-7.1,9.083a.6.6,0,0,0,0,.738l7.051,9.121a.628.628,0,0,1-.552,1l-24.145-.056a.694.694,0,0,1-.548-.262l-7.012-9.071a1.862,1.862,0,0,1,.007-2.314l7.064-9.031a.7.7,0,0,1,.549-.259l24.145.057A.628.628,0,0,1,4033.775,7141.9Z" transform="translate(-4001.066 -7140.846)" fill="none" stroke="#fff" stroke-miterlimit="10" stroke-width="0.5"/>
                  </g>
                  <g id="Group_41872" data-name="Group 41872" transform="translate(142.994)">
                    <path id="Path_51256" data-name="Path 51256" d="M4262,7141.9l-7.1,9.083a.594.594,0,0,0,0,.738l7.05,9.121a.628.628,0,0,1-.551,1l-24.146-.056a.693.693,0,0,1-.548-.262l-7.012-9.071a1.862,1.862,0,0,1,.007-2.314l7.063-9.031a.7.7,0,0,1,.549-.259l24.146.057A.627.627,0,0,1,4262,7141.9Z" transform="translate(-4211.479 -7140.846)" fill="none" stroke="#fff" stroke-miterlimit="10" stroke-width="0.5"/>
                    <path id="Path_51257" data-name="Path 51257" d="M4176.314,7141.9l-7.1,9.083a.594.594,0,0,0,0,.738l7.049,9.121a.627.627,0,0,1-.551,1l-24.145-.056a.694.694,0,0,1-.548-.262L4144,7152.45a1.864,1.864,0,0,1,.006-2.314l7.064-9.031a.7.7,0,0,1,.55-.259l24.145.057A.628.628,0,0,1,4176.314,7141.9Z" transform="translate(-4143.605 -7140.846)" fill="none" stroke="#fff" stroke-miterlimit="10" stroke-width="0.5"/>
                  </g>
                </g>
                <g id="Group_41876-2" data-name="Group 41876" transform="translate(192.572)">
                  <g id="Group_41874-2" data-name="Group 41874">
                    <path id="Path_51258-2" data-name="Path 51258" d="M4500.53,7141.9l-7.1,9.083a.6.6,0,0,0,0,.738l7.05,9.121a.628.628,0,0,1-.552,1l-24.146-.056a.693.693,0,0,1-.547-.262l-7.012-9.071a1.862,1.862,0,0,1,.007-2.314l7.063-9.031a.7.7,0,0,1,.548-.259l24.146.057A.628.628,0,0,1,4500.53,7141.9Z" transform="translate(-4450.012 -7140.846)" fill="none" stroke="#fff" stroke-miterlimit="10" stroke-width="0.5"/>
                    <path id="Path_51259-2" data-name="Path 51259" d="M4414.847,7141.9l-7.1,9.083a.6.6,0,0,0,0,.738l7.05,9.121a.628.628,0,0,1-.551,1l-24.146-.056a.694.694,0,0,1-.547-.262l-7.013-9.071a1.864,1.864,0,0,1,.007-2.314l7.065-9.031a.692.692,0,0,1,.548-.259l24.146.057A.628.628,0,0,1,4414.847,7141.9Z" transform="translate(-4382.137 -7140.846)" fill="none" stroke="#fff" stroke-miterlimit="10" stroke-width="0.5"/>
                  </g>
                  <g id="Group_41875-2" data-name="Group 41875" transform="translate(47.435)">
                    <path id="Path_51260" data-name="Path 51260" d="M4728.751,7141.9l-7.1,9.083a.6.6,0,0,0,0,.738l7.05,9.121a.628.628,0,0,1-.551,1l-24.146-.056a.692.692,0,0,1-.546-.262l-7.013-9.071a1.863,1.863,0,0,1,.006-2.314l7.065-9.031a.692.692,0,0,1,.548-.259l24.145.057A.627.627,0,0,1,4728.751,7141.9Z" transform="translate(-4678.233 -7140.846)" fill="none" stroke="#fff" stroke-miterlimit="10" stroke-width="0.5"/>
                    <path id="Path_51261-2" data-name="Path 51261" d="M4643.069,7141.9l-7.1,9.083a.6.6,0,0,0,0,.738l7.05,9.121a.628.628,0,0,1-.551,1l-24.146-.056a.692.692,0,0,1-.547-.262l-7.012-9.071a1.864,1.864,0,0,1,.006-2.314l7.064-9.031a.7.7,0,0,1,.55-.259l24.144.057A.628.628,0,0,1,4643.069,7141.9Z" transform="translate(-4610.36 -7140.846)" fill="none" stroke="#fff" stroke-miterlimit="10" stroke-width="0.5"/>
                  </g>
                </g>
              </g>
            </g>
            <g id="Group_41886" data-name="Group 41886">
              <g id="Group_41882" data-name="Group 41882">
                <g id="Group_41878" data-name="Group 41878" transform="translate(0 0)">
                  <path id="Path_51262" data-name="Path 51262" d="M2237.474,7141.9l-7.1,9.083a.594.594,0,0,0,0,.738l7.05,9.12a.628.628,0,0,1-.551,1l-24.146-.057a.7.7,0,0,1-.547-.262l-7.012-9.07a1.865,1.865,0,0,1,.007-2.314l7.064-9.032a.693.693,0,0,1,.549-.258l24.145.056A.628.628,0,0,1,2237.474,7141.9Z" transform="translate(-2186.956 -7140.847)" fill="none" stroke="#fff" stroke-miterlimit="10" stroke-width="0.5"/>
                  <path id="Path_51263" data-name="Path 51263" d="M2151.791,7141.9l-7.1,9.083a.594.594,0,0,0,0,.738l7.05,9.12a.628.628,0,0,1-.551,1l-24.145-.057a.7.7,0,0,1-.548-.262l-7.012-9.07a1.864,1.864,0,0,1,.007-2.314l7.064-9.032a.692.692,0,0,1,.549-.258l24.145.056A.628.628,0,0,1,2151.791,7141.9Z" transform="translate(-2119.082 -7140.847)" fill="none" stroke="#fff" stroke-miterlimit="10" stroke-width="0.5"/>
                </g>
                <g id="Group_41879" data-name="Group 41879" transform="translate(47.435)">
                  <path id="Path_51264" data-name="Path 51264" d="M2465.7,7141.9l-7.1,9.083a.6.6,0,0,0,0,.738l7.05,9.121a.628.628,0,0,1-.551,1l-24.146-.056a.694.694,0,0,1-.548-.262l-7.012-9.071a1.864,1.864,0,0,1,.007-2.314l7.065-9.031a.694.694,0,0,1,.549-.259l24.145.057A.628.628,0,0,1,2465.7,7141.9Z" transform="translate(-2415.179 -7140.846)" fill="none" stroke="#fff" stroke-miterlimit="10" stroke-width="0.5"/>
                  <path id="Path_51265" data-name="Path 51265" d="M2380.013,7141.9l-7.1,9.083a.594.594,0,0,0,0,.738l7.05,9.121a.628.628,0,0,1-.551,1l-24.146-.056a.692.692,0,0,1-.547-.262l-7.012-9.071a1.863,1.863,0,0,1,.007-2.314l7.064-9.031a.7.7,0,0,1,.549-.259l24.145.057A.627.627,0,0,1,2380.013,7141.9Z" transform="translate(-2347.304 -7140.846)" fill="none" stroke="#fff" stroke-miterlimit="10" stroke-width="0.5"/>
                </g>
                <g id="Group_41880" data-name="Group 41880" transform="translate(95.56)">
                  <path id="Path_51266" data-name="Path 51266" d="M2697.24,7141.9l-7.1,9.083a.594.594,0,0,0,0,.738l7.049,9.121a.628.628,0,0,1-.551,1l-24.145-.056a.694.694,0,0,1-.548-.262l-7.012-9.071a1.863,1.863,0,0,1,.006-2.314L2672,7141.1a.7.7,0,0,1,.549-.259l24.145.057A.627.627,0,0,1,2697.24,7141.9Z" transform="translate(-2646.722 -7140.846)" fill="none" stroke="#fff" stroke-miterlimit="10" stroke-width="0.5"/>
                  <path id="Path_51267" data-name="Path 51267" d="M2611.558,7141.9l-7.1,9.083a.594.594,0,0,0,0,.738l7.05,9.121a.627.627,0,0,1-.551,1l-24.146-.056a.693.693,0,0,1-.547-.262l-7.012-9.071a1.864,1.864,0,0,1,.006-2.314l7.065-9.031a.7.7,0,0,1,.549-.259l24.145.057A.628.628,0,0,1,2611.558,7141.9Z" transform="translate(-2578.848 -7140.846)" fill="none" stroke="#fff" stroke-miterlimit="10" stroke-width="0.5"/>
                </g>
                <g id="Group_41881" data-name="Group 41881" transform="translate(142.994)">
                  <path id="Path_51268" data-name="Path 51268" d="M2925.463,7141.9l-7.1,9.083a.6.6,0,0,0,0,.738l7.05,9.121a.628.628,0,0,1-.551,1l-24.145-.056a.692.692,0,0,1-.547-.262l-7.013-9.071a1.864,1.864,0,0,1,.007-2.314l7.064-9.031a.7.7,0,0,1,.55-.259l24.144.057A.628.628,0,0,1,2925.463,7141.9Z" transform="translate(-2874.945 -7140.846)" fill="none" stroke="#fff" stroke-miterlimit="10" stroke-width="0.5"/>
                  <path id="Path_51269" data-name="Path 51269" d="M2839.78,7141.9l-7.1,9.083a.6.6,0,0,0,0,.738l7.051,9.121a.628.628,0,0,1-.552,1l-24.146-.056a.693.693,0,0,1-.547-.262l-7.012-9.071a1.862,1.862,0,0,1,.007-2.314l7.064-9.031a.7.7,0,0,1,.549-.259l24.145.057A.627.627,0,0,1,2839.78,7141.9Z" transform="translate(-2807.071 -7140.846)" fill="none" stroke="#fff" stroke-miterlimit="10" stroke-width="0.5"/>
                </g>
              </g>
              <g id="Group_41885" data-name="Group 41885" transform="translate(192.572)">
                <g id="Group_41883" data-name="Group 41883">
                  <path id="Path_51270" data-name="Path 51270" d="M3164,7141.9l-7.1,9.083a.594.594,0,0,0,0,.738l7.05,9.121a.628.628,0,0,1-.551,1l-24.145-.056a.693.693,0,0,1-.548-.262l-7.012-9.071a1.863,1.863,0,0,1,.007-2.314l7.064-9.031a.7.7,0,0,1,.549-.259l24.145.057A.627.627,0,0,1,3164,7141.9Z" transform="translate(-3113.477 -7140.846)" fill="none" stroke="#fff" stroke-miterlimit="10" stroke-width="0.5"/>
                  <path id="Path_51271" data-name="Path 51271" d="M3078.312,7141.9l-7.1,9.083a.594.594,0,0,0,0,.738l7.05,9.121a.628.628,0,0,1-.551,1l-24.145-.056a.693.693,0,0,1-.547-.262L3046,7152.45a1.863,1.863,0,0,1,.006-2.314l7.064-9.031a.7.7,0,0,1,.549-.259l24.145.057A.627.627,0,0,1,3078.312,7141.9Z" transform="translate(-3045.603 -7140.846)" fill="none" stroke="#fff" stroke-miterlimit="10" stroke-width="0.5"/>
                </g>
                <g id="Group_41884" data-name="Group 41884" transform="translate(47.435)">
                  <path id="Path_51272" data-name="Path 51272" d="M3392.218,7141.9l-7.1,9.083a.594.594,0,0,0,0,.738l7.049,9.121a.628.628,0,0,1-.551,1l-24.145-.056a.692.692,0,0,1-.547-.262l-7.012-9.071a1.863,1.863,0,0,1,.007-2.314l7.064-9.031a.7.7,0,0,1,.549-.259l24.145.057A.627.627,0,0,1,3392.218,7141.9Z" transform="translate(-3341.7 -7140.846)" fill="none" stroke="#fff" stroke-miterlimit="10" stroke-width="0.5"/>
                  <path id="Path_51273" data-name="Path 51273" d="M3306.534,7141.9l-7.1,9.083a.593.593,0,0,0,0,.738l7.05,9.121a.628.628,0,0,1-.552,1l-24.146-.056a.692.692,0,0,1-.547-.262l-7.012-9.071a1.864,1.864,0,0,1,.007-2.314l7.064-9.031a.694.694,0,0,1,.549-.259l24.144.057A.627.627,0,0,1,3306.534,7141.9Z" transform="translate(-3273.826 -7140.846)" fill="none" stroke="#fff" stroke-miterlimit="10" stroke-width="0.5"/>
                </g>
              </g>
            </g>
          </g>
          <g id="Group_41906" data-name="Group 41906" transform="translate(0.079 50.003)" style="mix-blend-mode: overlay;isolation: isolate">
            <g id="Group_41896" data-name="Group 41896">
              <g id="Group_41892" data-name="Group 41892" transform="translate(97.012)">
                <g id="Group_41888" data-name="Group 41888" transform="translate(142.994)">
                  <path id="Path_51274" data-name="Path 51274" d="M2958.3,7280.9l7.1-9.083a.594.594,0,0,0,0-.737l-7.05-9.121a.628.628,0,0,1,.551-1l24.145.058a.693.693,0,0,1,.547.262l7.012,9.069a1.863,1.863,0,0,1-.007,2.314l-7.063,9.032a.7.7,0,0,1-.55.259l-24.145-.057A.627.627,0,0,1,2958.3,7280.9Z" transform="translate(-2958.174 -7260.957)" fill="none" stroke="#fff" stroke-miterlimit="10" stroke-width="0.5"/>
                  <path id="Path_51275" data-name="Path 51275" d="M3043.988,7280.9l7.1-9.083a.6.6,0,0,0,0-.737l-7.05-9.121a.628.628,0,0,1,.552-1l24.146.058a.693.693,0,0,1,.547.262l7.012,9.069a1.864,1.864,0,0,1-.007,2.314l-7.064,9.032a.694.694,0,0,1-.55.259l-24.145-.057A.627.627,0,0,1,3043.988,7280.9Z" transform="translate(-3026.049 -7260.957)" fill="none" stroke="#fff" stroke-miterlimit="10" stroke-width="0.5"/>
                </g>
                <g id="Group_41889" data-name="Group 41889" transform="translate(95.56)">
                  <path id="Path_51276" data-name="Path 51276" d="M2730.083,7280.9l7.1-9.083a.594.594,0,0,0,0-.737l-7.05-9.121a.628.628,0,0,1,.551-1l24.145.058a.694.694,0,0,1,.548.262l7.012,9.069a1.865,1.865,0,0,1-.007,2.314l-7.064,9.032a.693.693,0,0,1-.549.259l-24.145-.057A.627.627,0,0,1,2730.083,7280.9Z" transform="translate(-2729.953 -7260.957)" fill="none" stroke="#fff" stroke-miterlimit="10" stroke-width="0.5"/>
                  <path id="Path_51277" data-name="Path 51277" d="M2815.765,7280.9l7.1-9.083a.593.593,0,0,0,0-.737l-7.05-9.121a.628.628,0,0,1,.551-1l24.145.058a.7.7,0,0,1,.548.262l7.012,9.069a1.864,1.864,0,0,1-.007,2.314l-7.064,9.032a.693.693,0,0,1-.549.259l-24.145-.057A.627.627,0,0,1,2815.765,7280.9Z" transform="translate(-2797.826 -7260.957)" fill="none" stroke="#fff" stroke-miterlimit="10" stroke-width="0.5"/>
                </g>
                <g id="Group_41890" data-name="Group 41890" transform="translate(47.435)">
                  <path id="Path_51278" data-name="Path 51278" d="M2498.539,7280.9l7.1-9.083a.593.593,0,0,0,0-.737l-7.05-9.121a.628.628,0,0,1,.551-1l24.146.058a.7.7,0,0,1,.547.262l7.012,9.069a1.865,1.865,0,0,1-.007,2.314l-7.065,9.032a.692.692,0,0,1-.549.259l-24.145-.057A.627.627,0,0,1,2498.539,7280.9Z" transform="translate(-2498.408 -7260.957)" fill="none" stroke="#fff" stroke-miterlimit="10" stroke-width="0.5"/>
                  <path id="Path_51279" data-name="Path 51279" d="M2584.221,7280.9l7.1-9.083a.593.593,0,0,0,0-.737l-7.05-9.121a.628.628,0,0,1,.551-1l24.145.058a.693.693,0,0,1,.547.262l7.013,9.069a1.865,1.865,0,0,1-.007,2.314l-7.064,9.032a.693.693,0,0,1-.549.259l-24.145-.057A.627.627,0,0,1,2584.221,7280.9Z" transform="translate(-2566.282 -7260.957)" fill="none" stroke="#fff" stroke-miterlimit="10" stroke-width="0.5"/>
                </g>
                <g id="Group_41891" data-name="Group 41891">
                  <path id="Path_51280" data-name="Path 51280" d="M2270.316,7280.9l7.1-9.083a.594.594,0,0,0,0-.737l-7.05-9.121a.628.628,0,0,1,.551-1l24.145.058a.7.7,0,0,1,.547.262l7.012,9.069a1.864,1.864,0,0,1-.007,2.314l-7.064,9.032a.693.693,0,0,1-.549.259l-24.145-.057A.627.627,0,0,1,2270.316,7280.9Z" transform="translate(-2270.185 -7260.957)" fill="none" stroke="#fff" stroke-miterlimit="10" stroke-width="0.5"/>
                  <path id="Path_51281" data-name="Path 51281" d="M2356,7280.9l7.1-9.083a.593.593,0,0,0,0-.737l-7.05-9.121a.628.628,0,0,1,.552-1l24.145.058a.693.693,0,0,1,.547.262l7.013,9.069a1.864,1.864,0,0,1-.007,2.314l-7.064,9.032a.694.694,0,0,1-.549.259l-24.145-.057A.627.627,0,0,1,2356,7280.9Z" transform="translate(-2338.059 -7260.957)" fill="none" stroke="#fff" stroke-miterlimit="10" stroke-width="0.5"/>
                </g>
              </g>
              <g id="Group_41895" data-name="Group 41895">
                <g id="Group_41893" data-name="Group 41893" transform="translate(47.435)">
                  <path id="Path_51282" data-name="Path 51282" d="M2031.784,7280.9l7.1-9.083a.593.593,0,0,0,0-.737l-7.05-9.121a.628.628,0,0,1,.551-1l24.145.058a.7.7,0,0,1,.548.262l7.012,9.069a1.864,1.864,0,0,1-.007,2.314l-7.064,9.032a.693.693,0,0,1-.549.259l-24.145-.057A.627.627,0,0,1,2031.784,7280.9Z" transform="translate(-2031.653 -7260.957)" fill="none" stroke="#fff" stroke-miterlimit="10" stroke-width="0.5"/>
                  <path id="Path_51283" data-name="Path 51283" d="M2117.467,7280.9l7.1-9.083a.594.594,0,0,0,0-.737l-7.05-9.121a.628.628,0,0,1,.551-1l24.145.058a.694.694,0,0,1,.548.262l7.012,9.069a1.863,1.863,0,0,1-.007,2.314l-7.064,9.032a.692.692,0,0,1-.549.259l-24.145-.057A.627.627,0,0,1,2117.467,7280.9Z" transform="translate(-2099.528 -7260.957)" fill="none" stroke="#fff" stroke-miterlimit="10" stroke-width="0.5"/>
                </g>
                <g id="Group_41894" data-name="Group 41894">
                  <path id="Path_51284" data-name="Path 51284" d="M1803.561,7280.9l7.1-9.083a.593.593,0,0,0,0-.737l-7.05-9.121a.628.628,0,0,1,.551-1l24.146.058a.694.694,0,0,1,.547.262l7.012,9.069a1.864,1.864,0,0,1-.007,2.314l-7.064,9.032a.694.694,0,0,1-.549.259l-24.144-.057A.627.627,0,0,1,1803.561,7280.9Z" transform="translate(-1803.431 -7260.957)" fill="none" stroke="#fff" stroke-miterlimit="10" stroke-width="0.5"/>
                  <path id="Path_51285" data-name="Path 51285" d="M1889.244,7280.9l7.1-9.083a.593.593,0,0,0,0-.737l-7.05-9.121a.628.628,0,0,1,.551-1l24.146.058a.694.694,0,0,1,.547.262l7.012,9.069a1.864,1.864,0,0,1-.007,2.314l-7.064,9.032a.694.694,0,0,1-.549.259l-24.145-.057A.627.627,0,0,1,1889.244,7280.9Z" transform="translate(-1871.304 -7260.957)" fill="none" stroke="#fff" stroke-miterlimit="10" stroke-width="0.5"/>
                </g>
              </g>
            </g>
            <g id="Group_41905" data-name="Group 41905" transform="translate(277.791)">
              <g id="Group_41901" data-name="Group 41901" transform="translate(97.012)">
                <g id="Group_41897" data-name="Group 41897" transform="translate(142.994)">
                  <path id="Path_51286" data-name="Path 51286" d="M4294.838,7280.9l7.1-9.083a.593.593,0,0,0,0-.737l-7.05-9.121a.628.628,0,0,1,.551-1l24.145.058a.693.693,0,0,1,.548.262l7.012,9.069a1.865,1.865,0,0,1-.006,2.314l-7.064,9.032a.694.694,0,0,1-.549.259l-24.144-.057A.628.628,0,0,1,4294.838,7280.9Z" transform="translate(-4294.708 -7260.957)" fill="none" stroke="#fff" stroke-miterlimit="10" stroke-width="0.5"/>
                  <path id="Path_51287" data-name="Path 51287" d="M4380.521,7280.9l7.1-9.083a.592.592,0,0,0,0-.737l-7.049-9.121a.628.628,0,0,1,.55-1l24.146.058a.693.693,0,0,1,.548.262l7.013,9.069a1.866,1.866,0,0,1-.007,2.314l-7.065,9.032a.693.693,0,0,1-.549.259l-24.145-.057A.628.628,0,0,1,4380.521,7280.9Z" transform="translate(-4362.582 -7260.957)" fill="none" stroke="#fff" stroke-miterlimit="10" stroke-width="0.5"/>
                </g>
                <g id="Group_41898" data-name="Group 41898" transform="translate(95.56)">
                  <path id="Path_51289" data-name="Path 51289" d="M4152.3,7280.9l7.1-9.083a.592.592,0,0,0,0-.737l-7.049-9.121a.628.628,0,0,1,.55-1l24.146.058a.694.694,0,0,1,.548.262l7.013,9.069a1.864,1.864,0,0,1-.008,2.314l-7.063,9.032a.7.7,0,0,1-.55.259l-24.144-.057A.628.628,0,0,1,4152.3,7280.9Z" transform="translate(-4134.36 -7260.957)" fill="none" stroke="#fff" stroke-miterlimit="10" stroke-width="0.5"/>
                </g>
                <g id="Group_41899" data-name="Group 41899" transform="translate(47.435)">
                  <path id="Path_51290" data-name="Path 51290" d="M3835.072,7280.9l7.1-9.083a.594.594,0,0,0,0-.737l-7.05-9.121a.629.629,0,0,1,.551-1l24.146.058a.694.694,0,0,1,.547.262l7.012,9.069a1.864,1.864,0,0,1-.007,2.314l-7.064,9.032a.693.693,0,0,1-.549.259l-24.145-.057A.627.627,0,0,1,3835.072,7280.9Z" transform="translate(-3834.942 -7260.957)" fill="none" stroke="#fff" stroke-miterlimit="10" stroke-width="0.5"/>
                  <path id="Path_51291" data-name="Path 51291" d="M3920.756,7280.9l7.1-9.083a.594.594,0,0,0,0-.737l-7.05-9.121a.628.628,0,0,1,.551-1l24.146.058a.693.693,0,0,1,.547.262l7.012,9.069a1.865,1.865,0,0,1-.006,2.314l-7.064,9.032a.7.7,0,0,1-.549.259l-24.144-.057A.627.627,0,0,1,3920.756,7280.9Z" transform="translate(-3902.817 -7260.957)" fill="none" stroke="#fff" stroke-miterlimit="10" stroke-width="0.5"/>
                </g>
                <g id="Group_41900" data-name="Group 41900">
                  <path id="Path_51292" data-name="Path 51292" d="M3606.851,7280.9l7.1-9.083a.594.594,0,0,0,0-.737l-7.051-9.121a.629.629,0,0,1,.552-1l24.145.058a.7.7,0,0,1,.547.262l7.012,9.069a1.865,1.865,0,0,1-.007,2.314l-7.064,9.032a.692.692,0,0,1-.549.259l-24.145-.057A.627.627,0,0,1,3606.851,7280.9Z" transform="translate(-3606.72 -7260.957)" fill="none" stroke="#fff" stroke-miterlimit="10" stroke-width="0.5"/>
                  <path id="Path_51293" data-name="Path 51293" d="M3692.533,7280.9l7.1-9.083a.594.594,0,0,0,0-.737l-7.05-9.121a.628.628,0,0,1,.551-1l24.146.058a.7.7,0,0,1,.547.262l7.012,9.069a1.865,1.865,0,0,1-.006,2.314l-7.064,9.032a.7.7,0,0,1-.549.259l-24.145-.057A.627.627,0,0,1,3692.533,7280.9Z" transform="translate(-3674.594 -7260.957)" fill="none" stroke="#fff" stroke-miterlimit="10" stroke-width="0.5"/>
                </g>
              </g>
              <g id="Group_41904" data-name="Group 41904">
                <g id="Group_41902" data-name="Group 41902" transform="translate(47.435)">
                  <path id="Path_51294" data-name="Path 51294" d="M3368.318,7280.9l7.1-9.083a.594.594,0,0,0,0-.737l-7.05-9.121a.629.629,0,0,1,.552-1l24.145.058a.694.694,0,0,1,.548.262l7.012,9.069a1.864,1.864,0,0,1-.007,2.314l-7.064,9.032a.693.693,0,0,1-.549.259l-24.145-.057A.627.627,0,0,1,3368.318,7280.9Z" transform="translate(-3368.188 -7260.957)" fill="none" stroke="#fff" stroke-miterlimit="10" stroke-width="0.5"/>
                  <path id="Path_51295" data-name="Path 51295" d="M3454,7280.9l7.1-9.083a.594.594,0,0,0,0-.737l-7.05-9.121a.628.628,0,0,1,.551-1l24.146.058a.7.7,0,0,1,.547.262l7.012,9.069a1.865,1.865,0,0,1-.007,2.314l-7.064,9.032a.694.694,0,0,1-.549.259l-24.145-.057A.627.627,0,0,1,3454,7280.9Z" transform="translate(-3436.062 -7260.957)" fill="none" stroke="#fff" stroke-miterlimit="10" stroke-width="0.5"/>
                </g>
                <g id="Group_41903" data-name="Group 41903">
                  <path id="Path_51296" data-name="Path 51296" d="M3140.1,7280.9l7.1-9.083a.594.594,0,0,0,0-.737l-7.05-9.121a.628.628,0,0,1,.551-1l24.146.058a.693.693,0,0,1,.547.262l7.012,9.069a1.864,1.864,0,0,1-.007,2.314l-7.064,9.032a.692.692,0,0,1-.549.259l-24.145-.057A.627.627,0,0,1,3140.1,7280.9Z" transform="translate(-3139.965 -7260.957)" fill="none" stroke="#fff" stroke-miterlimit="10" stroke-width="0.5"/>
                  <path id="Path_51297" data-name="Path 51297" d="M3225.779,7280.9l7.1-9.083a.594.594,0,0,0,0-.737l-7.05-9.121a.628.628,0,0,1,.551-1l24.145.058a.694.694,0,0,1,.548.262l7.012,9.069a1.864,1.864,0,0,1-.007,2.314l-7.064,9.032a.694.694,0,0,1-.549.259l-24.145-.057A.627.627,0,0,1,3225.779,7280.9Z" transform="translate(-3207.84 -7260.957)" fill="none" stroke="#fff" stroke-miterlimit="10" stroke-width="0.5"/>
                </g>
              </g>
            </g>
            <g id="Group_44392" data-name="Group 44392" transform="translate(586.212)">
              <g id="Group_41901-2" data-name="Group 41901" transform="translate(97.012)">
                <g id="Group_41897-2" data-name="Group 41897" transform="translate(125.186)">
                  <path id="Path_51286-2" data-name="Path 51286" d="M4294.838,7280.9l7.1-9.083a.593.593,0,0,0,0-.737l-7.05-9.121a.628.628,0,0,1,.551-1l24.145.058a.693.693,0,0,1,.548.262l7.012,9.069a1.865,1.865,0,0,1-.006,2.314l-7.064,9.032a.694.694,0,0,1-.549.259l-24.144-.057A.628.628,0,0,1,4294.838,7280.9Z" transform="translate(-4294.708 -7260.957)" fill="none" stroke="#fff" stroke-miterlimit="10" stroke-width="0.5"/>
                  <path id="Path_51287-2" data-name="Path 51287" d="M4380.521,7280.9l7.1-9.083a.592.592,0,0,0,0-.737l-7.049-9.121a.628.628,0,0,1,.55-1l24.146.058a.693.693,0,0,1,.548.262l7.013,9.069a1.866,1.866,0,0,1-.007,2.314l-7.065,9.032a.693.693,0,0,1-.549.259l-24.145-.057A.628.628,0,0,1,4380.521,7280.9Z" transform="translate(-4362.582 -7260.957)" fill="none" stroke="#fff" stroke-miterlimit="10" stroke-width="0.5"/>
                </g>
                <g id="Group_41898-2" data-name="Group 41898" transform="translate(77.751)">
                  <path id="Path_51288" data-name="Path 51288" d="M4066.616,7280.9l7.1-9.083a.592.592,0,0,0,0-.737l-7.049-9.121a.628.628,0,0,1,.551-1l24.145.058a.693.693,0,0,1,.547.262l7.013,9.069a1.864,1.864,0,0,1-.007,2.314l-7.064,9.032a.694.694,0,0,1-.549.259l-24.144-.057A.628.628,0,0,1,4066.616,7280.9Z" transform="translate(-4066.486 -7260.957)" fill="none" stroke="#fff" stroke-miterlimit="10" stroke-width="0.5"/>
                  <path id="Path_51289-2" data-name="Path 51289" d="M4152.3,7280.9l7.1-9.083a.592.592,0,0,0,0-.737l-7.049-9.121a.628.628,0,0,1,.55-1l24.146.058a.694.694,0,0,1,.548.262l7.013,9.069a1.864,1.864,0,0,1-.008,2.314l-7.063,9.032a.7.7,0,0,1-.55.259l-24.144-.057A.628.628,0,0,1,4152.3,7280.9Z" transform="translate(-4134.36 -7260.957)" fill="none" stroke="#fff" stroke-miterlimit="10" stroke-width="0.5"/>
                </g>
                <g id="Group_41899-2" data-name="Group 41899" transform="translate(29.626)">
                  <path id="Path_51290-2" data-name="Path 51290" d="M3835.072,7280.9l7.1-9.083a.594.594,0,0,0,0-.737l-7.05-9.121a.629.629,0,0,1,.551-1l24.146.058a.694.694,0,0,1,.547.262l7.012,9.069a1.864,1.864,0,0,1-.007,2.314l-7.064,9.032a.693.693,0,0,1-.549.259l-24.145-.057A.627.627,0,0,1,3835.072,7280.9Z" transform="translate(-3834.942 -7260.957)" fill="none" stroke="#fff" stroke-miterlimit="10" stroke-width="0.5"/>
                  <path id="Path_51291-2" data-name="Path 51291" d="M3920.756,7280.9l7.1-9.083a.594.594,0,0,0,0-.737l-7.05-9.121a.628.628,0,0,1,.551-1l24.146.058a.693.693,0,0,1,.547.262l7.012,9.069a1.865,1.865,0,0,1-.006,2.314l-7.064,9.032a.7.7,0,0,1-.549.259l-24.144-.057A.627.627,0,0,1,3920.756,7280.9Z" transform="translate(-3902.817 -7260.957)" fill="none" stroke="#fff" stroke-miterlimit="10" stroke-width="0.5"/>
                </g>
                <g id="Group_41900-2" data-name="Group 41900" transform="translate(0)">
                  <path id="Path_51293-2" data-name="Path 51293" d="M3692.533,7280.9l7.1-9.083a.594.594,0,0,0,0-.737l-7.05-9.121a.628.628,0,0,1,.551-1l24.146.058a.7.7,0,0,1,.547.262l7.012,9.069a1.865,1.865,0,0,1-.006,2.314l-7.064,9.032a.7.7,0,0,1-.549.259l-24.145-.057A.627.627,0,0,1,3692.533,7280.9Z" transform="translate(-3692.403 -7260.957)" fill="none" stroke="#fff" stroke-miterlimit="10" stroke-width="0.5"/>
                </g>
              </g>
              <g id="Group_41904-2" data-name="Group 41904" transform="translate(0)">
                <g id="Group_41902-2" data-name="Group 41902" transform="translate(29.626)">
                  <path id="Path_51294-2" data-name="Path 51294" d="M3368.318,7280.9l7.1-9.083a.594.594,0,0,0,0-.737l-7.05-9.121a.629.629,0,0,1,.552-1l24.145.058a.694.694,0,0,1,.548.262l7.012,9.069a1.864,1.864,0,0,1-.007,2.314l-7.064,9.032a.693.693,0,0,1-.549.259l-24.145-.057A.627.627,0,0,1,3368.318,7280.9Z" transform="translate(-3368.188 -7260.957)" fill="none" stroke="#fff" stroke-miterlimit="10" stroke-width="0.5"/>
                  <path id="Path_51295-2" data-name="Path 51295" d="M3454,7280.9l7.1-9.083a.594.594,0,0,0,0-.737l-7.05-9.121a.628.628,0,0,1,.551-1l24.146.058a.7.7,0,0,1,.547.262l7.012,9.069a1.865,1.865,0,0,1-.007,2.314l-7.064,9.032a.694.694,0,0,1-.549.259l-24.145-.057A.627.627,0,0,1,3454,7280.9Z" transform="translate(-3436.062 -7260.957)" fill="none" stroke="#fff" stroke-miterlimit="10" stroke-width="0.5"/>
                </g>
                <g id="Group_41903-2" data-name="Group 41903">
                  <path id="Path_51297-2" data-name="Path 51297" d="M3225.779,7280.9l7.1-9.083a.594.594,0,0,0,0-.737l-7.05-9.121a.628.628,0,0,1,.551-1l24.145.058a.694.694,0,0,1,.548.262l7.012,9.069a1.864,1.864,0,0,1-.007,2.314l-7.064,9.032a.694.694,0,0,1-.549.259l-24.145-.057A.627.627,0,0,1,3225.779,7280.9Z" transform="translate(-3225.648 -7260.957)" fill="none" stroke="#fff" stroke-miterlimit="10" stroke-width="0.5"/>
                </g>
              </g>
            </g>
            <g id="Group_44393" data-name="Group 44393" transform="translate(859.017)">
              <g id="Group_41901-3" data-name="Group 41901" transform="translate(97.012)">
                <g id="Group_41897-3" data-name="Group 41897" transform="translate(142.994)">
                  <path id="Path_51286-3" data-name="Path 51286" d="M4294.838,7280.9l7.1-9.083a.593.593,0,0,0,0-.737l-7.05-9.121a.628.628,0,0,1,.551-1l24.145.058a.693.693,0,0,1,.548.262l7.012,9.069a1.865,1.865,0,0,1-.006,2.314l-7.064,9.032a.694.694,0,0,1-.549.259l-24.144-.057A.628.628,0,0,1,4294.838,7280.9Z" transform="translate(-4294.708 -7260.957)" fill="none" stroke="#fff" stroke-miterlimit="10" stroke-width="0.5"/>
                  <path id="Path_51287-3" data-name="Path 51287" d="M4380.521,7280.9l7.1-9.083a.592.592,0,0,0,0-.737l-7.049-9.121a.628.628,0,0,1,.55-1l24.146.058a.693.693,0,0,1,.548.262l7.013,9.069a1.866,1.866,0,0,1-.007,2.314l-7.065,9.032a.693.693,0,0,1-.549.259l-24.145-.057A.628.628,0,0,1,4380.521,7280.9Z" transform="translate(-4362.582 -7260.957)" fill="none" stroke="#fff" stroke-miterlimit="10" stroke-width="0.5"/>
                </g>
                <g id="Group_41898-3" data-name="Group 41898" transform="translate(95.56)">
                  <path id="Path_51288-2" data-name="Path 51288" d="M4066.616,7280.9l7.1-9.083a.592.592,0,0,0,0-.737l-7.049-9.121a.628.628,0,0,1,.551-1l24.145.058a.693.693,0,0,1,.547.262l7.013,9.069a1.864,1.864,0,0,1-.007,2.314l-7.064,9.032a.694.694,0,0,1-.549.259l-24.144-.057A.628.628,0,0,1,4066.616,7280.9Z" transform="translate(-4066.486 -7260.957)" fill="none" stroke="#fff" stroke-miterlimit="10" stroke-width="0.5"/>
                  <path id="Path_51289-3" data-name="Path 51289" d="M4152.3,7280.9l7.1-9.083a.592.592,0,0,0,0-.737l-7.049-9.121a.628.628,0,0,1,.55-1l24.146.058a.694.694,0,0,1,.548.262l7.013,9.069a1.864,1.864,0,0,1-.008,2.314l-7.063,9.032a.7.7,0,0,1-.55.259l-24.144-.057A.628.628,0,0,1,4152.3,7280.9Z" transform="translate(-4134.36 -7260.957)" fill="none" stroke="#fff" stroke-miterlimit="10" stroke-width="0.5"/>
                </g>
                <g id="Group_41899-3" data-name="Group 41899" transform="translate(47.435)">
                  <path id="Path_51290-3" data-name="Path 51290" d="M3835.072,7280.9l7.1-9.083a.594.594,0,0,0,0-.737l-7.05-9.121a.629.629,0,0,1,.551-1l24.146.058a.694.694,0,0,1,.547.262l7.012,9.069a1.864,1.864,0,0,1-.007,2.314l-7.064,9.032a.693.693,0,0,1-.549.259l-24.145-.057A.627.627,0,0,1,3835.072,7280.9Z" transform="translate(-3834.942 -7260.957)" fill="none" stroke="#fff" stroke-miterlimit="10" stroke-width="0.5"/>
                  <path id="Path_51291-3" data-name="Path 51291" d="M3920.756,7280.9l7.1-9.083a.594.594,0,0,0,0-.737l-7.05-9.121a.628.628,0,0,1,.551-1l24.146.058a.693.693,0,0,1,.547.262l7.012,9.069a1.865,1.865,0,0,1-.006,2.314l-7.064,9.032a.7.7,0,0,1-.549.259l-24.144-.057A.627.627,0,0,1,3920.756,7280.9Z" transform="translate(-3902.817 -7260.957)" fill="none" stroke="#fff" stroke-miterlimit="10" stroke-width="0.5"/>
                </g>
                <g id="Group_41900-3" data-name="Group 41900">
                  <path id="Path_51292-2" data-name="Path 51292" d="M3606.851,7280.9l7.1-9.083a.594.594,0,0,0,0-.737l-7.051-9.121a.629.629,0,0,1,.552-1l24.145.058a.7.7,0,0,1,.547.262l7.012,9.069a1.865,1.865,0,0,1-.007,2.314l-7.064,9.032a.692.692,0,0,1-.549.259l-24.145-.057A.627.627,0,0,1,3606.851,7280.9Z" transform="translate(-3606.72 -7260.957)" fill="none" stroke="#fff" stroke-miterlimit="10" stroke-width="0.5"/>
                  <path id="Path_51293-3" data-name="Path 51293" d="M3692.533,7280.9l7.1-9.083a.594.594,0,0,0,0-.737l-7.05-9.121a.628.628,0,0,1,.551-1l24.146.058a.7.7,0,0,1,.547.262l7.012,9.069a1.865,1.865,0,0,1-.006,2.314l-7.064,9.032a.7.7,0,0,1-.549.259l-24.145-.057A.627.627,0,0,1,3692.533,7280.9Z" transform="translate(-3674.594 -7260.957)" fill="none" stroke="#fff" stroke-miterlimit="10" stroke-width="0.5"/>
                </g>
              </g>
              <g id="Group_41904-3" data-name="Group 41904">
                <g id="Group_41902-3" data-name="Group 41902" transform="translate(47.435)">
                  <path id="Path_51294-3" data-name="Path 51294" d="M3368.318,7280.9l7.1-9.083a.594.594,0,0,0,0-.737l-7.05-9.121a.629.629,0,0,1,.552-1l24.145.058a.694.694,0,0,1,.548.262l7.012,9.069a1.864,1.864,0,0,1-.007,2.314l-7.064,9.032a.693.693,0,0,1-.549.259l-24.145-.057A.627.627,0,0,1,3368.318,7280.9Z" transform="translate(-3368.188 -7260.957)" fill="none" stroke="#fff" stroke-miterlimit="10" stroke-width="0.5"/>
                  <path id="Path_51295-3" data-name="Path 51295" d="M3454,7280.9l7.1-9.083a.594.594,0,0,0,0-.737l-7.05-9.121a.628.628,0,0,1,.551-1l24.146.058a.7.7,0,0,1,.547.262l7.012,9.069a1.865,1.865,0,0,1-.007,2.314l-7.064,9.032a.694.694,0,0,1-.549.259l-24.145-.057A.627.627,0,0,1,3454,7280.9Z" transform="translate(-3436.062 -7260.957)" fill="none" stroke="#fff" stroke-miterlimit="10" stroke-width="0.5"/>
                </g>
                <g id="Group_41903-3" data-name="Group 41903">
                  <path id="Path_51296-2" data-name="Path 51296" d="M3140.1,7280.9l7.1-9.083a.594.594,0,0,0,0-.737l-7.05-9.121a.628.628,0,0,1,.551-1l24.146.058a.693.693,0,0,1,.547.262l7.012,9.069a1.864,1.864,0,0,1-.007,2.314l-7.064,9.032a.692.692,0,0,1-.549.259l-24.145-.057A.627.627,0,0,1,3140.1,7280.9Z" transform="translate(-3139.965 -7260.957)" fill="none" stroke="#fff" stroke-miterlimit="10" stroke-width="0.5"/>
                  <path id="Path_51297-3" data-name="Path 51297" d="M3225.779,7280.9l7.1-9.083a.594.594,0,0,0,0-.737l-7.05-9.121a.628.628,0,0,1,.551-1l24.145.058a.694.694,0,0,1,.548.262l7.012,9.069a1.864,1.864,0,0,1-.007,2.314l-7.064,9.032a.694.694,0,0,1-.549.259l-24.145-.057A.627.627,0,0,1,3225.779,7280.9Z" transform="translate(-3207.84 -7260.957)" fill="none" stroke="#fff" stroke-miterlimit="10" stroke-width="0.5"/>
                </g>
              </g>
            </g>
          </g>
        </g>
      </g>
    </g>
  </g>
</svg>
