<svg xmlns="http://www.w3.org/2000/svg" xmlns:xlink="http://www.w3.org/1999/xlink" width="1201" height="75.107" viewBox="0 0 1201 75.107">
  <defs>
    <clipPath id="clip-path">
      <rect id="Rectangle_17705" data-name="Rectangle 17705" width="949.259" height="75.107" transform="translate(-89.707 -8)" fill="none" stroke="#707070" stroke-width="0.5"/>
    </clipPath>
  </defs>
  <g id="header" transform="translate(1)">
    <g id="headerBg" transform="translate(-3609.221 -7004.907)">
      <rect id="Rectangle_17704" data-name="Rectangle 17704" width="1200" height="75" transform="translate(3609.221 7004.907)" fill="#2e3191"/>
    </g>
    <g id="Arrows" transform="translate(-2754.294 -7026.458)" opacity="0.57">
      <g id="Group_41908" data-name="Group 41908" transform="translate(2843 7034.458)" clip-path="url(#clip-path)">
        <g id="Group_41907" data-name="Group 41907" transform="translate(-87.787 -19.293)" opacity="0.8">
          <g id="Group_41868" data-name="Group 41868" transform="translate(0)" style="mix-blend-mode: overlay;isolation: isolate">
            <g id="Group_41858" data-name="Group 41858">
              <g id="Group_41854" data-name="Group 41854" transform="translate(135.031)">
                <g id="Group_41850" data-name="Group 41850" transform="translate(199.033)">
                  <path id="Path_51226" data-name="Path 51226" d="M2808.363,7048.132l9.885-12.642a.829.829,0,0,0,0-1.028l-9.813-12.694a.874.874,0,0,1,.767-1.388l33.608.08a.968.968,0,0,1,.762.364l9.76,12.625a2.6,2.6,0,0,1-.009,3.222l-9.833,12.571a.969.969,0,0,1-.764.361l-33.607-.079A.874.874,0,0,1,2808.363,7048.132Z" transform="translate(-2808.181 -7020.38)" fill="none" stroke="#fff" stroke-miterlimit="10" stroke-width="0.5"/>
                  <path id="Path_51227" data-name="Path 51227" d="M2894.045,7048.132l9.885-12.642a.828.828,0,0,0,0-1.028l-9.813-12.694a.875.875,0,0,1,.767-1.388l33.608.08a.969.969,0,0,1,.762.364l9.76,12.625a2.6,2.6,0,0,1-.01,3.222l-9.832,12.571a.969.969,0,0,1-.764.361l-33.607-.079A.874.874,0,0,1,2894.045,7048.132Z" transform="translate(-2869.076 -7020.38)" fill="none" stroke="#fff" stroke-miterlimit="10" stroke-width="0.5"/>
                </g>
                <g id="Group_41851" data-name="Group 41851" transform="translate(133.009)">
                  <path id="Path_51228" data-name="Path 51228" d="M2580.14,7048.132l9.885-12.642a.829.829,0,0,0,0-1.028l-9.813-12.694a.875.875,0,0,1,.767-1.388l33.608.08a.969.969,0,0,1,.762.364l9.76,12.625a2.6,2.6,0,0,1-.01,3.222l-9.832,12.571a.968.968,0,0,1-.764.361l-33.607-.079A.874.874,0,0,1,2580.14,7048.132Z" transform="translate(-2579.958 -7020.38)" fill="none" stroke="#fff" stroke-miterlimit="10" stroke-width="0.5"/>
                  <path id="Path_51229" data-name="Path 51229" d="M2665.823,7048.132l9.885-12.642a.829.829,0,0,0,0-1.028l-9.813-12.694a.875.875,0,0,1,.767-1.388l33.608.08a.968.968,0,0,1,.762.364l9.761,12.625a2.6,2.6,0,0,1-.01,3.222l-9.833,12.571a.968.968,0,0,1-.764.361l-33.606-.079A.874.874,0,0,1,2665.823,7048.132Z" transform="translate(-2640.854 -7020.38)" fill="none" stroke="#fff" stroke-miterlimit="10" stroke-width="0.5"/>
                </g>
                <g id="Group_41852" data-name="Group 41852" transform="translate(66.024)">
                  <path id="Path_51230" data-name="Path 51230" d="M2348.6,7048.132l9.885-12.642a.829.829,0,0,0,0-1.028l-9.813-12.694a.875.875,0,0,1,.767-1.388l33.608.08a.969.969,0,0,1,.762.364l9.76,12.625a2.6,2.6,0,0,1-.009,3.222l-9.833,12.571a.968.968,0,0,1-.764.361l-33.607-.079A.874.874,0,0,1,2348.6,7048.132Z" transform="translate(-2348.414 -7020.38)" fill="none" stroke="#fff" stroke-miterlimit="10" stroke-width="0.5"/>
                  <path id="Path_51231" data-name="Path 51231" d="M2434.279,7048.132l9.884-12.642a.828.828,0,0,0,0-1.028l-9.813-12.694a.874.874,0,0,1,.767-1.388l33.608.08a.969.969,0,0,1,.762.364l9.76,12.625a2.6,2.6,0,0,1-.009,3.222l-9.833,12.571a.967.967,0,0,1-.764.361l-33.607-.079A.874.874,0,0,1,2434.279,7048.132Z" transform="translate(-2409.309 -7020.38)" fill="none" stroke="#fff" stroke-miterlimit="10" stroke-width="0.5"/>
                </g>
                <g id="Group_41853" data-name="Group 41853">
                  <path id="Path_51232" data-name="Path 51232" d="M2120.374,7048.132l9.885-12.642a.828.828,0,0,0,0-1.028l-9.813-12.694a.874.874,0,0,1,.767-1.388l33.608.08a.968.968,0,0,1,.762.364l9.76,12.625a2.6,2.6,0,0,1-.009,3.222l-9.833,12.571a.969.969,0,0,1-.764.361l-33.607-.079A.874.874,0,0,1,2120.374,7048.132Z" transform="translate(-2120.192 -7020.38)" fill="none" stroke="#fff" stroke-miterlimit="10" stroke-width="0.5"/>
                  <path id="Path_51233" data-name="Path 51233" d="M2206.056,7048.132l9.885-12.642a.828.828,0,0,0,0-1.028l-9.813-12.694a.875.875,0,0,1,.767-1.388l33.608.08a.969.969,0,0,1,.762.364l9.76,12.625a2.6,2.6,0,0,1-.009,3.222l-9.833,12.571a.968.968,0,0,1-.765.361l-33.606-.079A.874.874,0,0,1,2206.056,7048.132Z" transform="translate(-2181.087 -7020.38)" fill="none" stroke="#fff" stroke-miterlimit="10" stroke-width="0.5"/>
                </g>
              </g>
              <g id="Group_41857" data-name="Group 41857">
                <g id="Group_41855" data-name="Group 41855" transform="translate(66.024)">
                  <path id="Path_51234" data-name="Path 51234" d="M1881.841,7048.132l9.885-12.642a.827.827,0,0,0,0-1.027l-9.813-12.7a.875.875,0,0,1,.767-1.388l33.608.08a.969.969,0,0,1,.762.364l9.76,12.625a2.6,2.6,0,0,1-.009,3.222l-9.833,12.571a.968.968,0,0,1-.764.361l-33.607-.079A.874.874,0,0,1,1881.841,7048.132Z" transform="translate(-1881.659 -7020.38)" fill="none" stroke="#fff" stroke-miterlimit="10" stroke-width="0.5"/>
                  <path id="Path_51235" data-name="Path 51235" d="M1967.524,7048.132l9.884-12.642a.828.828,0,0,0,0-1.028l-9.813-12.694a.875.875,0,0,1,.767-1.388l33.608.08a.969.969,0,0,1,.762.364l9.76,12.625a2.6,2.6,0,0,1-.009,3.222l-9.833,12.571a.968.968,0,0,1-.764.361l-33.607-.079A.874.874,0,0,1,1967.524,7048.132Z" transform="translate(-1942.554 -7020.38)" fill="none" stroke="#fff" stroke-miterlimit="10" stroke-width="0.5"/>
                </g>
                <g id="Group_41856" data-name="Group 41856">
                  <path id="Path_51236" data-name="Path 51236" d="M1653.619,7048.132l9.885-12.642a.827.827,0,0,0,0-1.027l-9.813-12.7a.875.875,0,0,1,.767-1.388l33.608.08a.969.969,0,0,1,.762.364l9.76,12.625a2.6,2.6,0,0,1-.009,3.222l-9.833,12.571a.967.967,0,0,1-.764.361l-33.607-.079A.874.874,0,0,1,1653.619,7048.132Z" transform="translate(-1653.437 -7020.38)" fill="none" stroke="#fff" stroke-miterlimit="10" stroke-width="0.5"/>
                  <path id="Path_51237" data-name="Path 51237" d="M1739.3,7048.132l9.884-12.642a.827.827,0,0,0,0-1.027l-9.813-12.7a.875.875,0,0,1,.767-1.388l33.608.08a.969.969,0,0,1,.762.364l9.76,12.625a2.6,2.6,0,0,1-.009,3.222l-9.833,12.571a.968.968,0,0,1-.764.361l-33.607-.079A.874.874,0,0,1,1739.3,7048.132Z" transform="translate(-1714.332 -7020.38)" fill="none" stroke="#fff" stroke-miterlimit="10" stroke-width="0.5"/>
                </g>
              </g>
            </g>
            <g id="Group_41867" data-name="Group 41867" transform="translate(386.656)">
              <g id="Group_41863" data-name="Group 41863" transform="translate(135.031)">
                <g id="Group_41859" data-name="Group 41859" transform="translate(199.034)">
                  <path id="Path_51238" data-name="Path 51238" d="M4144.9,7048.132l9.885-12.642a.828.828,0,0,0,0-1.028l-9.812-12.694a.875.875,0,0,1,.767-1.388l33.607.08a.968.968,0,0,1,.762.364l9.76,12.625a2.6,2.6,0,0,1-.009,3.222l-9.833,12.571a.965.965,0,0,1-.764.361l-33.607-.079A.874.874,0,0,1,4144.9,7048.132Z" transform="translate(-4144.715 -7020.38)" fill="none" stroke="#fff" stroke-miterlimit="10" stroke-width="0.5"/>
                  <path id="Path_51239" data-name="Path 51239" d="M4230.58,7048.132l9.884-12.642a.828.828,0,0,0,0-1.028l-9.812-12.694a.875.875,0,0,1,.767-1.388l33.607.08a.968.968,0,0,1,.762.364l9.76,12.625a2.594,2.594,0,0,1-.01,3.222l-9.833,12.571a.966.966,0,0,1-.764.361l-33.607-.079A.874.874,0,0,1,4230.58,7048.132Z" transform="translate(-4205.61 -7020.38)" fill="none" stroke="#fff" stroke-miterlimit="10" stroke-width="0.5"/>
                </g>
                <g id="Group_41860" data-name="Group 41860" transform="translate(133.009)">
                  <path id="Path_51240" data-name="Path 51240" d="M3916.675,7048.132l9.885-12.642a.829.829,0,0,0,0-1.028l-9.813-12.694a.874.874,0,0,1,.767-1.388l33.608.08a.969.969,0,0,1,.762.364l9.76,12.625a2.6,2.6,0,0,1-.009,3.222l-9.833,12.571a.967.967,0,0,1-.764.361l-33.607-.079A.874.874,0,0,1,3916.675,7048.132Z" transform="translate(-3916.493 -7020.38)" fill="none" stroke="#fff" stroke-miterlimit="10" stroke-width="0.5"/>
                  <path id="Path_51241" data-name="Path 51241" d="M4002.358,7048.132l9.884-12.642a.829.829,0,0,0,0-1.028l-9.813-12.694a.874.874,0,0,1,.767-1.388l33.608.08a.969.969,0,0,1,.762.364l9.76,12.625a2.6,2.6,0,0,1-.009,3.222l-9.833,12.571a.968.968,0,0,1-.764.361l-33.607-.079A.874.874,0,0,1,4002.358,7048.132Z" transform="translate(-3977.388 -7020.38)" fill="none" stroke="#fff" stroke-miterlimit="10" stroke-width="0.5"/>
                </g>
                <g id="Group_41861" data-name="Group 41861" transform="translate(66.024)">
                  <path id="Path_51242" data-name="Path 51242" d="M3685.13,7048.132l9.885-12.642a.828.828,0,0,0,0-1.028l-9.813-12.694a.875.875,0,0,1,.768-1.388l33.608.08a.968.968,0,0,1,.762.364l9.76,12.625a2.6,2.6,0,0,1-.009,3.222l-9.833,12.571a.968.968,0,0,1-.764.361l-33.607-.079A.874.874,0,0,1,3685.13,7048.132Z" transform="translate(-3684.948 -7020.38)" fill="none" stroke="#fff" stroke-miterlimit="10" stroke-width="0.5"/>
                  <path id="Path_51243" data-name="Path 51243" d="M3770.813,7048.132l9.885-12.642a.828.828,0,0,0,0-1.028l-9.813-12.694a.875.875,0,0,1,.767-1.388l33.608.08a.969.969,0,0,1,.762.364l9.76,12.625a2.594,2.594,0,0,1-.009,3.222l-9.832,12.571a.968.968,0,0,1-.765.361l-33.606-.079A.874.874,0,0,1,3770.813,7048.132Z" transform="translate(-3745.844 -7020.38)" fill="none" stroke="#fff" stroke-miterlimit="10" stroke-width="0.5"/>
                </g>
                <g id="Group_41862" data-name="Group 41862">
                  <path id="Path_51244" data-name="Path 51244" d="M3456.908,7048.132l9.885-12.642a.829.829,0,0,0,0-1.028l-9.813-12.694a.875.875,0,0,1,.767-1.388l33.608.08a.968.968,0,0,1,.762.364l9.76,12.625a2.594,2.594,0,0,1-.009,3.222l-9.833,12.571a.968.968,0,0,1-.764.361l-33.607-.079A.874.874,0,0,1,3456.908,7048.132Z" transform="translate(-3456.726 -7020.38)" fill="none" stroke="#fff" stroke-miterlimit="10" stroke-width="0.5"/>
                  <path id="Path_51245" data-name="Path 51245" d="M3542.591,7048.132l9.885-12.642a.828.828,0,0,0,0-1.028l-9.812-12.694a.874.874,0,0,1,.767-1.388l33.608.08a.968.968,0,0,1,.762.364l9.76,12.625a2.6,2.6,0,0,1-.009,3.222l-9.833,12.571a.968.968,0,0,1-.764.361l-33.607-.079A.874.874,0,0,1,3542.591,7048.132Z" transform="translate(-3517.622 -7020.38)" fill="none" stroke="#fff" stroke-miterlimit="10" stroke-width="0.5"/>
                </g>
              </g>
              <g id="Group_41866" data-name="Group 41866">
                <g id="Group_41864" data-name="Group 41864" transform="translate(66.024)">
                  <path id="Path_51246" data-name="Path 51246" d="M3218.376,7048.132l9.885-12.642a.827.827,0,0,0,0-1.027l-9.812-12.7a.874.874,0,0,1,.767-1.388l33.608.08a.967.967,0,0,1,.761.364l9.761,12.625a2.6,2.6,0,0,1-.009,3.222l-9.833,12.571a.969.969,0,0,1-.765.361l-33.606-.079A.874.874,0,0,1,3218.376,7048.132Z" transform="translate(-3218.194 -7020.38)" fill="none" stroke="#fff" stroke-miterlimit="10" stroke-width="0.5"/>
                  <path id="Path_51247" data-name="Path 51247" d="M3304.058,7048.132l9.885-12.642a.828.828,0,0,0,0-1.028l-9.813-12.694a.875.875,0,0,1,.767-1.388l33.608.08a.969.969,0,0,1,.762.364l9.76,12.625a2.6,2.6,0,0,1-.01,3.222l-9.832,12.571a.969.969,0,0,1-.764.361l-33.607-.079A.874.874,0,0,1,3304.058,7048.132Z" transform="translate(-3279.089 -7020.38)" fill="none" stroke="#fff" stroke-miterlimit="10" stroke-width="0.5"/>
                </g>
                <g id="Group_41865" data-name="Group 41865">
                  <path id="Path_51248" data-name="Path 51248" d="M2990.153,7048.132l9.885-12.642a.828.828,0,0,0,0-1.027l-9.813-12.7a.875.875,0,0,1,.767-1.388l33.608.08a.969.969,0,0,1,.762.364l9.76,12.625a2.6,2.6,0,0,1-.01,3.222l-9.833,12.571a.968.968,0,0,1-.764.361l-33.607-.079A.874.874,0,0,1,2990.153,7048.132Z" transform="translate(-2989.971 -7020.38)" fill="none" stroke="#fff" stroke-miterlimit="10" stroke-width="0.5"/>
                  <path id="Path_51249" data-name="Path 51249" d="M3075.836,7048.132l9.885-12.642a.827.827,0,0,0,0-1.027l-9.813-12.7a.875.875,0,0,1,.767-1.388l33.608.08a.969.969,0,0,1,.761.364l9.76,12.625a2.6,2.6,0,0,1-.01,3.222l-9.833,12.571a.967.967,0,0,1-.764.361l-33.607-.079A.874.874,0,0,1,3075.836,7048.132Z" transform="translate(-3050.866 -7020.38)" fill="none" stroke="#fff" stroke-miterlimit="10" stroke-width="0.5"/>
                </g>
              </g>
            </g>
            <g id="Group_44394" data-name="Group 44394" transform="translate(791.16)">
              <g id="Group_41863-2" data-name="Group 41863" transform="translate(135.031)">
                <g id="Group_41859-2" data-name="Group 41859" transform="translate(199.034)">
                  <path id="Path_51238-2" data-name="Path 51238" d="M4144.9,7048.132l9.885-12.642a.828.828,0,0,0,0-1.028l-9.812-12.694a.875.875,0,0,1,.767-1.388l33.607.08a.968.968,0,0,1,.762.364l9.76,12.625a2.6,2.6,0,0,1-.009,3.222l-9.833,12.571a.965.965,0,0,1-.764.361l-33.607-.079A.874.874,0,0,1,4144.9,7048.132Z" transform="translate(-4144.715 -7020.38)" fill="none" stroke="#fff" stroke-miterlimit="10" stroke-width="0.5"/>
                  <path id="Path_51239-2" data-name="Path 51239" d="M4230.58,7048.132l9.884-12.642a.828.828,0,0,0,0-1.028l-9.812-12.694a.875.875,0,0,1,.767-1.388l33.607.08a.968.968,0,0,1,.762.364l9.76,12.625a2.594,2.594,0,0,1-.01,3.222l-9.833,12.571a.966.966,0,0,1-.764.361l-33.607-.079A.874.874,0,0,1,4230.58,7048.132Z" transform="translate(-4205.61 -7020.38)" fill="none" stroke="#fff" stroke-miterlimit="10" stroke-width="0.5"/>
                </g>
                <g id="Group_41860-2" data-name="Group 41860" transform="translate(133.009)">
                  <path id="Path_51240-2" data-name="Path 51240" d="M3916.675,7048.132l9.885-12.642a.829.829,0,0,0,0-1.028l-9.813-12.694a.874.874,0,0,1,.767-1.388l33.608.08a.969.969,0,0,1,.762.364l9.76,12.625a2.6,2.6,0,0,1-.009,3.222l-9.833,12.571a.967.967,0,0,1-.764.361l-33.607-.079A.874.874,0,0,1,3916.675,7048.132Z" transform="translate(-3916.493 -7020.38)" fill="none" stroke="#fff" stroke-miterlimit="10" stroke-width="0.5"/>
                  <path id="Path_51241-2" data-name="Path 51241" d="M4002.358,7048.132l9.884-12.642a.829.829,0,0,0,0-1.028l-9.813-12.694a.874.874,0,0,1,.767-1.388l33.608.08a.969.969,0,0,1,.762.364l9.76,12.625a2.6,2.6,0,0,1-.009,3.222l-9.833,12.571a.968.968,0,0,1-.764.361l-33.607-.079A.874.874,0,0,1,4002.358,7048.132Z" transform="translate(-3977.388 -7020.38)" fill="none" stroke="#fff" stroke-miterlimit="10" stroke-width="0.5"/>
                </g>
                <g id="Group_41861-2" data-name="Group 41861" transform="translate(66.024)">
                  <path id="Path_51242-2" data-name="Path 51242" d="M3685.13,7048.132l9.885-12.642a.828.828,0,0,0,0-1.028l-9.813-12.694a.875.875,0,0,1,.768-1.388l33.608.08a.968.968,0,0,1,.762.364l9.76,12.625a2.6,2.6,0,0,1-.009,3.222l-9.833,12.571a.968.968,0,0,1-.764.361l-33.607-.079A.874.874,0,0,1,3685.13,7048.132Z" transform="translate(-3684.948 -7020.38)" fill="none" stroke="#fff" stroke-miterlimit="10" stroke-width="0.5"/>
                  <path id="Path_51243-2" data-name="Path 51243" d="M3770.813,7048.132l9.885-12.642a.828.828,0,0,0,0-1.028l-9.813-12.694a.875.875,0,0,1,.767-1.388l33.608.08a.969.969,0,0,1,.762.364l9.76,12.625a2.594,2.594,0,0,1-.009,3.222l-9.832,12.571a.968.968,0,0,1-.765.361l-33.606-.079A.874.874,0,0,1,3770.813,7048.132Z" transform="translate(-3745.844 -7020.38)" fill="none" stroke="#fff" stroke-miterlimit="10" stroke-width="0.5"/>
                </g>
                <g id="Group_41862-2" data-name="Group 41862">
                  <path id="Path_51245-2" data-name="Path 51245" d="M3542.591,7048.132l9.885-12.642a.828.828,0,0,0,0-1.028l-9.812-12.694a.874.874,0,0,1,.767-1.388l33.608.08a.968.968,0,0,1,.762.364l9.76,12.625a2.6,2.6,0,0,1-.009,3.222l-9.833,12.571a.968.968,0,0,1-.764.361l-33.607-.079A.874.874,0,0,1,3542.591,7048.132Z" transform="translate(-3517.622 -7020.38)" fill="none" stroke="#fff" stroke-miterlimit="10" stroke-width="0.5"/>
                </g>
              </g>
              <g id="Group_41866-2" data-name="Group 41866">
                <g id="Group_41864-2" data-name="Group 41864" transform="translate(66.024)">
                  <path id="Path_51246-2" data-name="Path 51246" d="M3218.376,7048.132l9.885-12.642a.827.827,0,0,0,0-1.027l-9.812-12.7a.874.874,0,0,1,.767-1.388l33.608.08a.967.967,0,0,1,.761.364l9.761,12.625a2.6,2.6,0,0,1-.009,3.222l-9.833,12.571a.969.969,0,0,1-.765.361l-33.606-.079A.874.874,0,0,1,3218.376,7048.132Z" transform="translate(-3218.194 -7020.38)" fill="none" stroke="#fff" stroke-miterlimit="10" stroke-width="0.5"/>
                  <path id="Path_51247-2" data-name="Path 51247" d="M3304.058,7048.132l9.885-12.642a.828.828,0,0,0,0-1.028l-9.813-12.694a.875.875,0,0,1,.767-1.388l33.608.08a.969.969,0,0,1,.762.364l9.76,12.625a2.6,2.6,0,0,1-.01,3.222l-9.832,12.571a.969.969,0,0,1-.764.361l-33.607-.079A.874.874,0,0,1,3304.058,7048.132Z" transform="translate(-3279.089 -7020.38)" fill="none" stroke="#fff" stroke-miterlimit="10" stroke-width="0.5"/>
                </g>
                <g id="Group_41865-2" data-name="Group 41865">
                  <path id="Path_51248-2" data-name="Path 51248" d="M2990.153,7048.132l9.885-12.642a.828.828,0,0,0,0-1.027l-9.813-12.7a.875.875,0,0,1,.767-1.388l33.608.08a.969.969,0,0,1,.762.364l9.76,12.625a2.6,2.6,0,0,1-.01,3.222l-9.833,12.571a.968.968,0,0,1-.764.361l-33.607-.079A.874.874,0,0,1,2990.153,7048.132Z" transform="translate(-2989.971 -7020.38)" fill="none" stroke="#fff" stroke-miterlimit="10" stroke-width="0.5"/>
                  <path id="Path_51249-2" data-name="Path 51249" d="M3075.836,7048.132l9.885-12.642a.827.827,0,0,0,0-1.027l-9.813-12.7a.875.875,0,0,1,.767-1.388l33.608.08a.969.969,0,0,1,.761.364l9.76,12.625a2.6,2.6,0,0,1-.01,3.222l-9.833,12.571a.967.967,0,0,1-.764.361l-33.607-.079A.874.874,0,0,1,3075.836,7048.132Z" transform="translate(-3050.866 -7020.38)" fill="none" stroke="#fff" stroke-miterlimit="10" stroke-width="0.5"/>
                </g>
              </g>
            </g>
            <g id="Group_44395" data-name="Group 44395" transform="translate(1195.663)">
              <g id="Group_41863-3" data-name="Group 41863" transform="translate(135.031)">
                <g id="Group_41859-3" data-name="Group 41859" transform="translate(199.034)">
                  <path id="Path_51238-3" data-name="Path 51238" d="M4144.9,7048.132l9.885-12.642a.828.828,0,0,0,0-1.028l-9.812-12.694a.875.875,0,0,1,.767-1.388l33.607.08a.968.968,0,0,1,.762.364l9.76,12.625a2.6,2.6,0,0,1-.009,3.222l-9.833,12.571a.965.965,0,0,1-.764.361l-33.607-.079A.874.874,0,0,1,4144.9,7048.132Z" transform="translate(-4144.715 -7020.38)" fill="none" stroke="#fff" stroke-miterlimit="10" stroke-width="0.5"/>
                  <path id="Path_51239-3" data-name="Path 51239" d="M4230.58,7048.132l9.884-12.642a.828.828,0,0,0,0-1.028l-9.812-12.694a.875.875,0,0,1,.767-1.388l33.607.08a.968.968,0,0,1,.762.364l9.76,12.625a2.594,2.594,0,0,1-.01,3.222l-9.833,12.571a.966.966,0,0,1-.764.361l-33.607-.079A.874.874,0,0,1,4230.58,7048.132Z" transform="translate(-4205.61 -7020.38)" fill="none" stroke="#fff" stroke-miterlimit="10" stroke-width="0.5"/>
                </g>
                <g id="Group_41860-3" data-name="Group 41860" transform="translate(133.009)">
                  <path id="Path_51240-3" data-name="Path 51240" d="M3916.675,7048.132l9.885-12.642a.829.829,0,0,0,0-1.028l-9.813-12.694a.874.874,0,0,1,.767-1.388l33.608.08a.969.969,0,0,1,.762.364l9.76,12.625a2.6,2.6,0,0,1-.009,3.222l-9.833,12.571a.967.967,0,0,1-.764.361l-33.607-.079A.874.874,0,0,1,3916.675,7048.132Z" transform="translate(-3916.493 -7020.38)" fill="none" stroke="#fff" stroke-miterlimit="10" stroke-width="0.5"/>
                  <path id="Path_51241-3" data-name="Path 51241" d="M4002.358,7048.132l9.884-12.642a.829.829,0,0,0,0-1.028l-9.813-12.694a.874.874,0,0,1,.767-1.388l33.608.08a.969.969,0,0,1,.762.364l9.76,12.625a2.6,2.6,0,0,1-.009,3.222l-9.833,12.571a.968.968,0,0,1-.764.361l-33.607-.079A.874.874,0,0,1,4002.358,7048.132Z" transform="translate(-3977.388 -7020.38)" fill="none" stroke="#fff" stroke-miterlimit="10" stroke-width="0.5"/>
                </g>
                <g id="Group_41861-3" data-name="Group 41861" transform="translate(66.024)">
                  <path id="Path_51242-3" data-name="Path 51242" d="M3685.13,7048.132l9.885-12.642a.828.828,0,0,0,0-1.028l-9.813-12.694a.875.875,0,0,1,.768-1.388l33.608.08a.968.968,0,0,1,.762.364l9.76,12.625a2.6,2.6,0,0,1-.009,3.222l-9.833,12.571a.968.968,0,0,1-.764.361l-33.607-.079A.874.874,0,0,1,3685.13,7048.132Z" transform="translate(-3684.948 -7020.38)" fill="none" stroke="#fff" stroke-miterlimit="10" stroke-width="0.5"/>
                  <path id="Path_51243-3" data-name="Path 51243" d="M3770.813,7048.132l9.885-12.642a.828.828,0,0,0,0-1.028l-9.813-12.694a.875.875,0,0,1,.767-1.388l33.608.08a.969.969,0,0,1,.762.364l9.76,12.625a2.594,2.594,0,0,1-.009,3.222l-9.832,12.571a.968.968,0,0,1-.765.361l-33.606-.079A.874.874,0,0,1,3770.813,7048.132Z" transform="translate(-3745.844 -7020.38)" fill="none" stroke="#fff" stroke-miterlimit="10" stroke-width="0.5"/>
                </g>
                <g id="Group_41862-3" data-name="Group 41862">
                  <path id="Path_51244-2" data-name="Path 51244" d="M3456.908,7048.132l9.885-12.642a.829.829,0,0,0,0-1.028l-9.813-12.694a.875.875,0,0,1,.767-1.388l33.608.08a.968.968,0,0,1,.762.364l9.76,12.625a2.594,2.594,0,0,1-.009,3.222l-9.833,12.571a.968.968,0,0,1-.764.361l-33.607-.079A.874.874,0,0,1,3456.908,7048.132Z" transform="translate(-3456.726 -7020.38)" fill="none" stroke="#fff" stroke-miterlimit="10" stroke-width="0.5"/>
                  <path id="Path_51245-3" data-name="Path 51245" d="M3542.591,7048.132l9.885-12.642a.828.828,0,0,0,0-1.028l-9.812-12.694a.874.874,0,0,1,.767-1.388l33.608.08a.968.968,0,0,1,.762.364l9.76,12.625a2.6,2.6,0,0,1-.009,3.222l-9.833,12.571a.968.968,0,0,1-.764.361l-33.607-.079A.874.874,0,0,1,3542.591,7048.132Z" transform="translate(-3517.622 -7020.38)" fill="none" stroke="#fff" stroke-miterlimit="10" stroke-width="0.5"/>
                </g>
              </g>
              <g id="Group_41866-3" data-name="Group 41866">
                <g id="Group_41864-3" data-name="Group 41864" transform="translate(66.024)">
                  <path id="Path_51246-3" data-name="Path 51246" d="M3218.376,7048.132l9.885-12.642a.827.827,0,0,0,0-1.027l-9.812-12.7a.874.874,0,0,1,.767-1.388l33.608.08a.967.967,0,0,1,.761.364l9.761,12.625a2.6,2.6,0,0,1-.009,3.222l-9.833,12.571a.969.969,0,0,1-.765.361l-33.606-.079A.874.874,0,0,1,3218.376,7048.132Z" transform="translate(-3218.194 -7020.38)" fill="none" stroke="#fff" stroke-miterlimit="10" stroke-width="0.5"/>
                  <path id="Path_51247-3" data-name="Path 51247" d="M3304.058,7048.132l9.885-12.642a.828.828,0,0,0,0-1.028l-9.813-12.694a.875.875,0,0,1,.767-1.388l33.608.08a.969.969,0,0,1,.762.364l9.76,12.625a2.6,2.6,0,0,1-.01,3.222l-9.832,12.571a.969.969,0,0,1-.764.361l-33.607-.079A.874.874,0,0,1,3304.058,7048.132Z" transform="translate(-3279.089 -7020.38)" fill="none" stroke="#fff" stroke-miterlimit="10" stroke-width="0.5"/>
                </g>
                <g id="Group_41865-3" data-name="Group 41865">
                  <path id="Path_51248-3" data-name="Path 51248" d="M2990.153,7048.132l9.885-12.642a.828.828,0,0,0,0-1.027l-9.813-12.7a.875.875,0,0,1,.767-1.388l33.608.08a.969.969,0,0,1,.762.364l9.76,12.625a2.6,2.6,0,0,1-.01,3.222l-9.833,12.571a.968.968,0,0,1-.764.361l-33.607-.079A.874.874,0,0,1,2990.153,7048.132Z" transform="translate(-2989.971 -7020.38)" fill="none" stroke="#fff" stroke-miterlimit="10" stroke-width="0.5"/>
                  <path id="Path_51249-3" data-name="Path 51249" d="M3075.836,7048.132l9.885-12.642a.827.827,0,0,0,0-1.027l-9.813-12.7a.875.875,0,0,1,.767-1.388l33.608.08a.969.969,0,0,1,.761.364l9.76,12.625a2.6,2.6,0,0,1-.01,3.222l-9.833,12.571a.967.967,0,0,1-.764.361l-33.607-.079A.874.874,0,0,1,3075.836,7048.132Z" transform="translate(-3050.866 -7020.38)" fill="none" stroke="#fff" stroke-miterlimit="10" stroke-width="0.5"/>
                </g>
              </g>
            </g>
          </g>
          <g id="Group_41887" data-name="Group 41887" transform="translate(0.138 35.638)" style="mix-blend-mode: overlay;isolation: isolate">
            <g id="Group_44390" data-name="Group 44390" transform="translate(403.182)">
              <g id="Group_41877" data-name="Group 41877">
                <g id="Group_41873" data-name="Group 41873">
                  <g id="Group_41869" data-name="Group 41869" transform="translate(0 0)">
                    <path id="Path_51250" data-name="Path 51250" d="M3586.827,7142.317l-9.884,12.642a.826.826,0,0,0,0,1.026l9.813,12.7a.874.874,0,0,1-.767,1.388l-33.608-.079a.967.967,0,0,1-.762-.364l-9.76-12.625a2.594,2.594,0,0,1,.009-3.221l9.833-12.572a.963.963,0,0,1,.764-.359l33.607.078A.874.874,0,0,1,3586.827,7142.317Z" transform="translate(-3516.511 -7140.848)" fill="none" stroke="#fff" stroke-miterlimit="10" stroke-width="0.5"/>
                    <path id="Path_51251" data-name="Path 51251" d="M3501.144,7142.317l-9.884,12.642a.826.826,0,0,0,0,1.026l9.813,12.7a.874.874,0,0,1-.767,1.388l-33.608-.079a.968.968,0,0,1-.762-.364l-9.76-12.625a2.593,2.593,0,0,1,.009-3.221l9.833-12.572a.964.964,0,0,1,.764-.359l33.607.078A.874.874,0,0,1,3501.144,7142.317Z" transform="translate(-3455.616 -7140.848)" fill="none" stroke="#fff" stroke-miterlimit="10" stroke-width="0.5"/>
                  </g>
                  <g id="Group_41870" data-name="Group 41870" transform="translate(66.024)">
                    <path id="Path_51252" data-name="Path 51252" d="M3815.049,7142.316l-9.884,12.641a.828.828,0,0,0,0,1.028l9.813,12.7a.874.874,0,0,1-.767,1.388l-33.608-.08a.965.965,0,0,1-.761-.364l-9.76-12.625a2.594,2.594,0,0,1,.009-3.222l9.833-12.571a.967.967,0,0,1,.764-.361l33.607.079A.873.873,0,0,1,3815.049,7142.316Z" transform="translate(-3744.734 -7140.846)" fill="none" stroke="#fff" stroke-miterlimit="10" stroke-width="0.5"/>
                    <path id="Path_51253" data-name="Path 51253" d="M3729.366,7142.316l-9.885,12.642a.828.828,0,0,0,0,1.027l9.813,12.7a.874.874,0,0,1-.767,1.388l-33.608-.08a.965.965,0,0,1-.761-.364l-9.76-12.625a2.6,2.6,0,0,1,.01-3.222l9.832-12.571a.968.968,0,0,1,.764-.361l33.607.079A.874.874,0,0,1,3729.366,7142.316Z" transform="translate(-3683.839 -7140.846)" fill="none" stroke="#fff" stroke-miterlimit="10" stroke-width="0.5"/>
                  </g>
                  <g id="Group_41871" data-name="Group 41871" transform="translate(133.009)">
                    <path id="Path_51254" data-name="Path 51254" d="M4046.594,7142.316l-9.885,12.641a.828.828,0,0,0,0,1.028l9.813,12.7a.875.875,0,0,1-.768,1.388l-33.608-.08a.966.966,0,0,1-.762-.364l-9.76-12.625a2.594,2.594,0,0,1,.01-3.222l9.832-12.571a.969.969,0,0,1,.764-.361l33.607.079A.874.874,0,0,1,4046.594,7142.316Z" transform="translate(-3976.278 -7140.846)" fill="none" stroke="#fff" stroke-miterlimit="10" stroke-width="0.5"/>
                    <path id="Path_51255" data-name="Path 51255" d="M3960.911,7142.316l-9.885,12.641a.829.829,0,0,0,0,1.028l9.813,12.7a.874.874,0,0,1-.767,1.388l-33.608-.08a.965.965,0,0,1-.762-.364l-9.76-12.625a2.6,2.6,0,0,1,.009-3.222l9.833-12.571a.968.968,0,0,1,.765-.361l33.606.079A.873.873,0,0,1,3960.911,7142.316Z" transform="translate(-3915.383 -7140.846)" fill="none" stroke="#fff" stroke-miterlimit="10" stroke-width="0.5"/>
                  </g>
                  <g id="Group_41872" data-name="Group 41872" transform="translate(199.034)">
                    <path id="Path_51256" data-name="Path 51256" d="M4274.816,7142.316l-9.884,12.641a.828.828,0,0,0,0,1.028l9.813,12.7a.874.874,0,0,1-.767,1.388l-33.608-.08a.967.967,0,0,1-.762-.364l-9.76-12.625a2.6,2.6,0,0,1,.01-3.222l9.833-12.571a.968.968,0,0,1,.764-.361l33.607.079A.874.874,0,0,1,4274.816,7142.316Z" transform="translate(-4204.5 -7140.846)" fill="none" stroke="#fff" stroke-miterlimit="10" stroke-width="0.5"/>
                    <path id="Path_51257" data-name="Path 51257" d="M4189.133,7142.316l-9.885,12.641a.828.828,0,0,0,0,1.028l9.813,12.7a.874.874,0,0,1-.767,1.388l-33.608-.08a.967.967,0,0,1-.762-.364l-9.76-12.625a2.6,2.6,0,0,1,.009-3.222l9.833-12.571a.969.969,0,0,1,.765-.361l33.607.079A.873.873,0,0,1,4189.133,7142.316Z" transform="translate(-4143.605 -7140.846)" fill="none" stroke="#fff" stroke-miterlimit="10" stroke-width="0.5"/>
                  </g>
                </g>
                <g id="Group_41876" data-name="Group 41876" transform="translate(268.04)">
                  <g id="Group_41874" data-name="Group 41874">
                    <path id="Path_51258" data-name="Path 51258" d="M4513.349,7142.316l-9.885,12.641a.829.829,0,0,0,0,1.028l9.813,12.7a.874.874,0,0,1-.768,1.388l-33.608-.08a.965.965,0,0,1-.762-.364l-9.76-12.625a2.6,2.6,0,0,1,.01-3.222l9.832-12.571a.969.969,0,0,1,.764-.361l33.607.079A.874.874,0,0,1,4513.349,7142.316Z" transform="translate(-4443.033 -7140.846)" fill="none" stroke="#fff" stroke-miterlimit="10" stroke-width="0.5"/>
                    <path id="Path_51259" data-name="Path 51259" d="M4427.666,7142.316l-9.885,12.641a.829.829,0,0,0,0,1.028l9.813,12.7a.874.874,0,0,1-.767,1.388l-33.608-.08a.966.966,0,0,1-.762-.364l-9.76-12.625a2.6,2.6,0,0,1,.009-3.222l9.833-12.571a.968.968,0,0,1,.764-.361l33.607.079A.874.874,0,0,1,4427.666,7142.316Z" transform="translate(-4382.138 -7140.846)" fill="none" stroke="#fff" stroke-miterlimit="10" stroke-width="0.5"/>
                  </g>
                  <g id="Group_41875" data-name="Group 41875" transform="translate(66.024)">
                    <path id="Path_51260" data-name="Path 51260" d="M4741.57,7142.316l-9.885,12.641a.83.83,0,0,0,0,1.028l9.813,12.7a.874.874,0,0,1-.767,1.388l-33.608-.08a.966.966,0,0,1-.761-.364L4696.6,7157a2.594,2.594,0,0,1,.009-3.222l9.833-12.571a.966.966,0,0,1,.764-.361l33.607.079A.873.873,0,0,1,4741.57,7142.316Z" transform="translate(-4671.255 -7140.846)" fill="none" stroke="#fff" stroke-miterlimit="10" stroke-width="0.5"/>
                    <path id="Path_51261" data-name="Path 51261" d="M4655.888,7142.316,4646,7154.957a.828.828,0,0,0,0,1.028l9.813,12.7a.874.874,0,0,1-.767,1.388l-33.608-.08a.966.966,0,0,1-.762-.364l-9.76-12.625a2.6,2.6,0,0,1,.009-3.222l9.833-12.571a.969.969,0,0,1,.765-.361l33.607.079A.874.874,0,0,1,4655.888,7142.316Z" transform="translate(-4610.36 -7140.846)" fill="none" stroke="#fff" stroke-miterlimit="10" stroke-width="0.5"/>
                  </g>
                </g>
              </g>
            </g>
            <g id="Group_44391" data-name="Group 44391" transform="translate(807.686)">
              <g id="Group_41877-2" data-name="Group 41877">
                <g id="Group_41873-2" data-name="Group 41873">
                  <g id="Group_41869-2" data-name="Group 41869" transform="translate(0 0)">
                    <path id="Path_51250-2" data-name="Path 51250" d="M3586.827,7142.317l-9.884,12.642a.826.826,0,0,0,0,1.026l9.813,12.7a.874.874,0,0,1-.767,1.388l-33.608-.079a.967.967,0,0,1-.762-.364l-9.76-12.625a2.594,2.594,0,0,1,.009-3.221l9.833-12.572a.963.963,0,0,1,.764-.359l33.607.078A.874.874,0,0,1,3586.827,7142.317Z" transform="translate(-3516.511 -7140.848)" fill="none" stroke="#fff" stroke-miterlimit="10" stroke-width="0.5"/>
                    <path id="Path_51251-2" data-name="Path 51251" d="M3501.144,7142.317l-9.884,12.642a.826.826,0,0,0,0,1.026l9.813,12.7a.874.874,0,0,1-.767,1.388l-33.608-.079a.968.968,0,0,1-.762-.364l-9.76-12.625a2.593,2.593,0,0,1,.009-3.221l9.833-12.572a.964.964,0,0,1,.764-.359l33.607.078A.874.874,0,0,1,3501.144,7142.317Z" transform="translate(-3455.616 -7140.848)" fill="none" stroke="#fff" stroke-miterlimit="10" stroke-width="0.5"/>
                  </g>
                  <g id="Group_41870-2" data-name="Group 41870" transform="translate(66.024)">
                    <path id="Path_51252-2" data-name="Path 51252" d="M3815.049,7142.316l-9.884,12.641a.828.828,0,0,0,0,1.028l9.813,12.7a.874.874,0,0,1-.767,1.388l-33.608-.08a.965.965,0,0,1-.761-.364l-9.76-12.625a2.594,2.594,0,0,1,.009-3.222l9.833-12.571a.967.967,0,0,1,.764-.361l33.607.079A.873.873,0,0,1,3815.049,7142.316Z" transform="translate(-3744.734 -7140.846)" fill="none" stroke="#fff" stroke-miterlimit="10" stroke-width="0.5"/>
                    <path id="Path_51253-2" data-name="Path 51253" d="M3729.366,7142.316l-9.885,12.642a.828.828,0,0,0,0,1.027l9.813,12.7a.874.874,0,0,1-.767,1.388l-33.608-.08a.965.965,0,0,1-.761-.364l-9.76-12.625a2.6,2.6,0,0,1,.01-3.222l9.832-12.571a.968.968,0,0,1,.764-.361l33.607.079A.874.874,0,0,1,3729.366,7142.316Z" transform="translate(-3683.839 -7140.846)" fill="none" stroke="#fff" stroke-miterlimit="10" stroke-width="0.5"/>
                  </g>
                  <g id="Group_41871-2" data-name="Group 41871" transform="translate(133.009)">
                    <path id="Path_51254-2" data-name="Path 51254" d="M4046.594,7142.316l-9.885,12.641a.828.828,0,0,0,0,1.028l9.813,12.7a.875.875,0,0,1-.768,1.388l-33.608-.08a.966.966,0,0,1-.762-.364l-9.76-12.625a2.594,2.594,0,0,1,.01-3.222l9.832-12.571a.969.969,0,0,1,.764-.361l33.607.079A.874.874,0,0,1,4046.594,7142.316Z" transform="translate(-3976.278 -7140.846)" fill="none" stroke="#fff" stroke-miterlimit="10" stroke-width="0.5"/>
                  </g>
                  <g id="Group_41872-2" data-name="Group 41872" transform="translate(199.034)">
                    <path id="Path_51256-2" data-name="Path 51256" d="M4274.816,7142.316l-9.884,12.641a.828.828,0,0,0,0,1.028l9.813,12.7a.874.874,0,0,1-.767,1.388l-33.608-.08a.967.967,0,0,1-.762-.364l-9.76-12.625a2.6,2.6,0,0,1,.01-3.222l9.833-12.571a.968.968,0,0,1,.764-.361l33.607.079A.874.874,0,0,1,4274.816,7142.316Z" transform="translate(-4204.5 -7140.846)" fill="none" stroke="#fff" stroke-miterlimit="10" stroke-width="0.5"/>
                    <path id="Path_51257-2" data-name="Path 51257" d="M4189.133,7142.316l-9.885,12.641a.828.828,0,0,0,0,1.028l9.813,12.7a.874.874,0,0,1-.767,1.388l-33.608-.08a.967.967,0,0,1-.762-.364l-9.76-12.625a2.6,2.6,0,0,1,.009-3.222l9.833-12.571a.969.969,0,0,1,.765-.361l33.607.079A.873.873,0,0,1,4189.133,7142.316Z" transform="translate(-4143.605 -7140.846)" fill="none" stroke="#fff" stroke-miterlimit="10" stroke-width="0.5"/>
                  </g>
                </g>
                <g id="Group_41876-2" data-name="Group 41876" transform="translate(268.04)">
                  <g id="Group_41874-2" data-name="Group 41874">
                    <path id="Path_51258-2" data-name="Path 51258" d="M4513.349,7142.316l-9.885,12.641a.829.829,0,0,0,0,1.028l9.813,12.7a.874.874,0,0,1-.768,1.388l-33.608-.08a.965.965,0,0,1-.762-.364l-9.76-12.625a2.6,2.6,0,0,1,.01-3.222l9.832-12.571a.969.969,0,0,1,.764-.361l33.607.079A.874.874,0,0,1,4513.349,7142.316Z" transform="translate(-4443.033 -7140.846)" fill="none" stroke="#fff" stroke-miterlimit="10" stroke-width="0.5"/>
                    <path id="Path_51259-2" data-name="Path 51259" d="M4427.666,7142.316l-9.885,12.641a.829.829,0,0,0,0,1.028l9.813,12.7a.874.874,0,0,1-.767,1.388l-33.608-.08a.966.966,0,0,1-.762-.364l-9.76-12.625a2.6,2.6,0,0,1,.009-3.222l9.833-12.571a.968.968,0,0,1,.764-.361l33.607.079A.874.874,0,0,1,4427.666,7142.316Z" transform="translate(-4382.138 -7140.846)" fill="none" stroke="#fff" stroke-miterlimit="10" stroke-width="0.5"/>
                  </g>
                  <g id="Group_41875-2" data-name="Group 41875" transform="translate(66.024)">
                    <path id="Path_51260-2" data-name="Path 51260" d="M4741.57,7142.316l-9.885,12.641a.83.83,0,0,0,0,1.028l9.813,12.7a.874.874,0,0,1-.767,1.388l-33.608-.08a.966.966,0,0,1-.761-.364L4696.6,7157a2.594,2.594,0,0,1,.009-3.222l9.833-12.571a.966.966,0,0,1,.764-.361l33.607.079A.873.873,0,0,1,4741.57,7142.316Z" transform="translate(-4671.255 -7140.846)" fill="none" stroke="#fff" stroke-miterlimit="10" stroke-width="0.5"/>
                    <path id="Path_51261-2" data-name="Path 51261" d="M4655.888,7142.316,4646,7154.957a.828.828,0,0,0,0,1.028l9.813,12.7a.874.874,0,0,1-.767,1.388l-33.608-.08a.966.966,0,0,1-.762-.364l-9.76-12.625a2.6,2.6,0,0,1,.009-3.222l9.833-12.571a.969.969,0,0,1,.765-.361l33.607.079A.874.874,0,0,1,4655.888,7142.316Z" transform="translate(-4610.36 -7140.846)" fill="none" stroke="#fff" stroke-miterlimit="10" stroke-width="0.5"/>
                  </g>
                </g>
              </g>
            </g>
            <g id="Group_41886" data-name="Group 41886">
              <g id="Group_41882" data-name="Group 41882">
                <g id="Group_41878" data-name="Group 41878" transform="translate(0 0)">
                  <path id="Path_51262" data-name="Path 51262" d="M2250.292,7142.317l-9.885,12.642a.827.827,0,0,0,0,1.026l9.813,12.7a.874.874,0,0,1-.767,1.388l-33.608-.079a.967.967,0,0,1-.761-.364l-9.76-12.625a2.594,2.594,0,0,1,.01-3.221l9.833-12.572a.964.964,0,0,1,.764-.359l33.607.078A.874.874,0,0,1,2250.292,7142.317Z" transform="translate(-2179.977 -7140.848)" fill="none" stroke="#fff" stroke-miterlimit="10" stroke-width="0.5"/>
                  <path id="Path_51263" data-name="Path 51263" d="M2164.61,7142.317l-9.885,12.642a.827.827,0,0,0,0,1.026l9.813,12.7a.874.874,0,0,1-.767,1.388l-33.608-.079a.967.967,0,0,1-.762-.364l-9.76-12.625a2.593,2.593,0,0,1,.01-3.221l9.833-12.572a.963.963,0,0,1,.764-.359l33.607.078A.874.874,0,0,1,2164.61,7142.317Z" transform="translate(-2119.082 -7140.848)" fill="none" stroke="#fff" stroke-miterlimit="10" stroke-width="0.5"/>
                </g>
                <g id="Group_41879" data-name="Group 41879" transform="translate(66.024)">
                  <path id="Path_51264" data-name="Path 51264" d="M2478.515,7142.316l-9.885,12.641a.828.828,0,0,0,0,1.028l9.813,12.7a.874.874,0,0,1-.767,1.388l-33.608-.08a.966.966,0,0,1-.762-.364l-9.76-12.625a2.6,2.6,0,0,1,.009-3.222l9.833-12.571a.967.967,0,0,1,.764-.361l33.607.079A.874.874,0,0,1,2478.515,7142.316Z" transform="translate(-2408.199 -7140.846)" fill="none" stroke="#fff" stroke-miterlimit="10" stroke-width="0.5"/>
                  <path id="Path_51265" data-name="Path 51265" d="M2392.832,7142.316l-9.885,12.641a.828.828,0,0,0,0,1.028l9.813,12.7a.874.874,0,0,1-.767,1.388l-33.608-.08a.966.966,0,0,1-.762-.364L2347.86,7157a2.594,2.594,0,0,1,.009-3.222l9.833-12.571a.968.968,0,0,1,.764-.361l33.607.079A.873.873,0,0,1,2392.832,7142.316Z" transform="translate(-2347.304 -7140.846)" fill="none" stroke="#fff" stroke-miterlimit="10" stroke-width="0.5"/>
                </g>
                <g id="Group_41880" data-name="Group 41880" transform="translate(133.009)">
                  <path id="Path_51266" data-name="Path 51266" d="M2710.059,7142.316l-9.884,12.641a.828.828,0,0,0,0,1.028l9.813,12.7a.874.874,0,0,1-.767,1.388l-33.608-.08a.966.966,0,0,1-.762-.364l-9.76-12.625a2.6,2.6,0,0,1,.009-3.222l9.833-12.571a.967.967,0,0,1,.764-.361l33.607.079A.873.873,0,0,1,2710.059,7142.316Z" transform="translate(-2639.743 -7140.846)" fill="none" stroke="#fff" stroke-miterlimit="10" stroke-width="0.5"/>
                  <path id="Path_51267" data-name="Path 51267" d="M2624.376,7142.316l-9.885,12.641a.829.829,0,0,0,0,1.028l9.813,12.7a.874.874,0,0,1-.767,1.388l-33.608-.08a.965.965,0,0,1-.762-.364L2579.4,7157a2.6,2.6,0,0,1,.009-3.222l9.833-12.571a.968.968,0,0,1,.764-.361l33.607.079A.874.874,0,0,1,2624.376,7142.316Z" transform="translate(-2578.849 -7140.846)" fill="none" stroke="#fff" stroke-miterlimit="10" stroke-width="0.5"/>
                </g>
                <g id="Group_41881" data-name="Group 41881" transform="translate(199.034)">
                  <path id="Path_51268" data-name="Path 51268" d="M2938.281,7142.316l-9.885,12.641a.83.83,0,0,0,0,1.028l9.813,12.7a.874.874,0,0,1-.768,1.388l-33.607-.08a.966.966,0,0,1-.762-.364L2893.31,7157a2.6,2.6,0,0,1,.01-3.222l9.832-12.571a.969.969,0,0,1,.765-.361l33.606.079A.873.873,0,0,1,2938.281,7142.316Z" transform="translate(-2867.966 -7140.846)" fill="none" stroke="#fff" stroke-miterlimit="10" stroke-width="0.5"/>
                  <path id="Path_51269" data-name="Path 51269" d="M2852.6,7142.316l-9.885,12.641a.828.828,0,0,0,0,1.028l9.813,12.7a.874.874,0,0,1-.767,1.388l-33.608-.08a.967.967,0,0,1-.762-.364l-9.76-12.625a2.6,2.6,0,0,1,.01-3.222l9.832-12.571a.969.969,0,0,1,.764-.361l33.607.079A.873.873,0,0,1,2852.6,7142.316Z" transform="translate(-2807.071 -7140.846)" fill="none" stroke="#fff" stroke-miterlimit="10" stroke-width="0.5"/>
                </g>
              </g>
              <g id="Group_41885" data-name="Group 41885" transform="translate(268.04)">
                <g id="Group_41883" data-name="Group 41883">
                  <path id="Path_51270" data-name="Path 51270" d="M3176.814,7142.316l-9.885,12.641a.828.828,0,0,0,0,1.028l9.813,12.7a.874.874,0,0,1-.767,1.388l-33.608-.08a.965.965,0,0,1-.762-.364l-9.76-12.625a2.6,2.6,0,0,1,.009-3.222l9.833-12.571a.968.968,0,0,1,.764-.361l33.607.079A.873.873,0,0,1,3176.814,7142.316Z" transform="translate(-3106.498 -7140.846)" fill="none" stroke="#fff" stroke-miterlimit="10" stroke-width="0.5"/>
                  <path id="Path_51271" data-name="Path 51271" d="M3091.131,7142.316l-9.885,12.641a.828.828,0,0,0,0,1.028l9.813,12.7a.874.874,0,0,1-.767,1.388l-33.608-.08a.966.966,0,0,1-.762-.364l-9.76-12.625a2.6,2.6,0,0,1,.009-3.222l9.833-12.571a.968.968,0,0,1,.764-.361l33.607.079A.873.873,0,0,1,3091.131,7142.316Z" transform="translate(-3045.603 -7140.846)" fill="none" stroke="#fff" stroke-miterlimit="10" stroke-width="0.5"/>
                </g>
                <g id="Group_41884" data-name="Group 41884" transform="translate(66.024)">
                  <path id="Path_51272" data-name="Path 51272" d="M3405.037,7142.316l-9.885,12.641a.828.828,0,0,0,0,1.028l9.813,12.7a.874.874,0,0,1-.767,1.388l-33.608-.08a.966.966,0,0,1-.762-.364l-9.76-12.625a2.6,2.6,0,0,1,.009-3.222l9.833-12.571a.968.968,0,0,1,.764-.361l33.607.079A.874.874,0,0,1,3405.037,7142.316Z" transform="translate(-3334.721 -7140.846)" fill="none" stroke="#fff" stroke-miterlimit="10" stroke-width="0.5"/>
                  <path id="Path_51273" data-name="Path 51273" d="M3319.354,7142.316l-9.885,12.641a.828.828,0,0,0,0,1.028l9.813,12.7a.874.874,0,0,1-.767,1.388l-33.608-.08a.966.966,0,0,1-.762-.364l-9.76-12.625a2.6,2.6,0,0,1,.01-3.222l9.833-12.571a.968.968,0,0,1,.764-.361l33.607.079A.874.874,0,0,1,3319.354,7142.316Z" transform="translate(-3273.826 -7140.846)" fill="none" stroke="#fff" stroke-miterlimit="10" stroke-width="0.5"/>
                </g>
              </g>
            </g>
          </g>
          <g id="Group_41906" data-name="Group 41906" transform="translate(0.109 69.599)" style="mix-blend-mode: overlay;isolation: isolate">
            <g id="Group_41896" data-name="Group 41896">
              <g id="Group_41892" data-name="Group 41892" transform="translate(135.031)">
                <g id="Group_41888" data-name="Group 41888" transform="translate(199.033)">
                  <path id="Path_51274" data-name="Path 51274" d="M2958.356,7288.71l9.885-12.642a.827.827,0,0,0,0-1.027l-9.812-12.7a.874.874,0,0,1,.767-1.388l33.608.079a.967.967,0,0,1,.761.365l9.76,12.624a2.593,2.593,0,0,1-.01,3.221l-9.832,12.572a.965.965,0,0,1-.765.36l-33.607-.078A.874.874,0,0,1,2958.356,7288.71Z" transform="translate(-2958.174 -7260.958)" fill="none" stroke="#fff" stroke-miterlimit="10" stroke-width="0.5"/>
                  <path id="Path_51275" data-name="Path 51275" d="M3044.039,7288.71l9.885-12.642a.828.828,0,0,0,0-1.027l-9.813-12.7a.874.874,0,0,1,.767-1.388l33.608.079a.968.968,0,0,1,.762.365l9.76,12.624a2.593,2.593,0,0,1-.01,3.221l-9.832,12.572a.965.965,0,0,1-.764.36l-33.607-.078A.874.874,0,0,1,3044.039,7288.71Z" transform="translate(-3019.07 -7260.958)" fill="none" stroke="#fff" stroke-miterlimit="10" stroke-width="0.5"/>
                </g>
                <g id="Group_41889" data-name="Group 41889" transform="translate(133.009)">
                  <path id="Path_51276" data-name="Path 51276" d="M2730.135,7288.71l9.885-12.642a.827.827,0,0,0,0-1.027l-9.812-12.7a.874.874,0,0,1,.767-1.388l33.608.079a.967.967,0,0,1,.762.365l9.76,12.624a2.594,2.594,0,0,1-.009,3.221l-9.833,12.572a.965.965,0,0,1-.764.36l-33.607-.078A.874.874,0,0,1,2730.135,7288.71Z" transform="translate(-2729.952 -7260.958)" fill="none" stroke="#fff" stroke-miterlimit="10" stroke-width="0.5"/>
                  <path id="Path_51277" data-name="Path 51277" d="M2815.817,7288.71l9.885-12.642a.827.827,0,0,0,0-1.027l-9.812-12.7a.874.874,0,0,1,.767-1.388l33.608.079a.969.969,0,0,1,.762.365l9.76,12.624a2.593,2.593,0,0,1-.009,3.221l-9.833,12.572a.964.964,0,0,1-.764.36l-33.607-.078A.874.874,0,0,1,2815.817,7288.71Z" transform="translate(-2790.847 -7260.958)" fill="none" stroke="#fff" stroke-miterlimit="10" stroke-width="0.5"/>
                </g>
                <g id="Group_41890" data-name="Group 41890" transform="translate(66.024)">
                  <path id="Path_51278" data-name="Path 51278" d="M2498.59,7288.71l9.885-12.642a.827.827,0,0,0,0-1.027l-9.813-12.7a.874.874,0,0,1,.767-1.388l33.608.079a.968.968,0,0,1,.762.365l9.76,12.624a2.594,2.594,0,0,1-.009,3.221l-9.833,12.572a.963.963,0,0,1-.764.36l-33.607-.078A.874.874,0,0,1,2498.59,7288.71Z" transform="translate(-2498.408 -7260.958)" fill="none" stroke="#fff" stroke-miterlimit="10" stroke-width="0.5"/>
                  <path id="Path_51279" data-name="Path 51279" d="M2584.272,7288.71l9.885-12.642a.827.827,0,0,0,0-1.027l-9.813-12.7a.874.874,0,0,1,.767-1.388l33.608.079a.966.966,0,0,1,.761.365l9.761,12.624a2.594,2.594,0,0,1-.009,3.221l-9.833,12.572a.964.964,0,0,1-.764.36l-33.607-.078A.874.874,0,0,1,2584.272,7288.71Z" transform="translate(-2559.303 -7260.958)" fill="none" stroke="#fff" stroke-miterlimit="10" stroke-width="0.5"/>
                </g>
                <g id="Group_41891" data-name="Group 41891">
                  <path id="Path_51280" data-name="Path 51280" d="M2270.367,7288.71l9.885-12.642a.827.827,0,0,0,0-1.027l-9.813-12.7a.874.874,0,0,1,.767-1.388l33.608.079a.968.968,0,0,1,.762.365l9.76,12.624a2.593,2.593,0,0,1-.01,3.221l-9.832,12.572a.964.964,0,0,1-.764.36l-33.607-.078A.874.874,0,0,1,2270.367,7288.71Z" transform="translate(-2270.186 -7260.958)" fill="none" stroke="#fff" stroke-miterlimit="10" stroke-width="0.5"/>
                  <path id="Path_51281" data-name="Path 51281" d="M2356.05,7288.71l9.885-12.642a.827.827,0,0,0,0-1.027l-9.813-12.7a.874.874,0,0,1,.767-1.388l33.608.079a.967.967,0,0,1,.761.365l9.76,12.624a2.593,2.593,0,0,1-.01,3.221l-9.832,12.572a.965.965,0,0,1-.764.36l-33.607-.078A.874.874,0,0,1,2356.05,7288.71Z" transform="translate(-2331.08 -7260.958)" fill="none" stroke="#fff" stroke-miterlimit="10" stroke-width="0.5"/>
                </g>
              </g>
              <g id="Group_41895" data-name="Group 41895">
                <g id="Group_41893" data-name="Group 41893" transform="translate(66.024)">
                  <path id="Path_51282" data-name="Path 51282" d="M2031.835,7288.71l9.884-12.642a.826.826,0,0,0,0-1.027l-9.812-12.7a.874.874,0,0,1,.767-1.388l33.608.079a.968.968,0,0,1,.762.365l9.76,12.624a2.594,2.594,0,0,1-.009,3.221l-9.833,12.572a.964.964,0,0,1-.764.36l-33.607-.078A.874.874,0,0,1,2031.835,7288.71Z" transform="translate(-2031.653 -7260.958)" fill="none" stroke="#fff" stroke-miterlimit="10" stroke-width="0.5"/>
                  <path id="Path_51283" data-name="Path 51283" d="M2117.518,7288.71l9.885-12.642a.827.827,0,0,0,0-1.027l-9.813-12.7a.874.874,0,0,1,.767-1.388l33.608.079a.968.968,0,0,1,.762.365l9.76,12.624a2.593,2.593,0,0,1-.009,3.221l-9.833,12.572a.963.963,0,0,1-.764.36l-33.607-.078A.874.874,0,0,1,2117.518,7288.71Z" transform="translate(-2092.548 -7260.958)" fill="none" stroke="#fff" stroke-miterlimit="10" stroke-width="0.5"/>
                </g>
                <g id="Group_41894" data-name="Group 41894">
                  <path id="Path_51284" data-name="Path 51284" d="M1803.612,7288.71l9.885-12.642a.827.827,0,0,0,0-1.027l-9.813-12.7a.874.874,0,0,1,.767-1.388l33.608.079a.968.968,0,0,1,.762.365l9.76,12.624a2.6,2.6,0,0,1-.009,3.222l-9.833,12.571a.965.965,0,0,1-.764.36l-33.607-.078A.874.874,0,0,1,1803.612,7288.71Z" transform="translate(-1803.431 -7260.958)" fill="none" stroke="#fff" stroke-miterlimit="10" stroke-width="0.5"/>
                  <path id="Path_51285" data-name="Path 51285" d="M1889.3,7288.71l9.885-12.642a.827.827,0,0,0,0-1.027l-9.813-12.7a.874.874,0,0,1,.767-1.388l33.608.079a.968.968,0,0,1,.762.365l9.76,12.624a2.6,2.6,0,0,1-.009,3.222l-9.832,12.571a.965.965,0,0,1-.764.36l-33.607-.078A.874.874,0,0,1,1889.3,7288.71Z" transform="translate(-1864.325 -7260.958)" fill="none" stroke="#fff" stroke-miterlimit="10" stroke-width="0.5"/>
                </g>
              </g>
            </g>
            <g id="Group_41905" data-name="Group 41905" transform="translate(386.656)">
              <g id="Group_41901" data-name="Group 41901" transform="translate(135.031)">
                <g id="Group_41897" data-name="Group 41897" transform="translate(199.034)">
                  <path id="Path_51286" data-name="Path 51286" d="M4294.891,7288.71l9.884-12.642a.827.827,0,0,0,0-1.027l-9.812-12.7a.874.874,0,0,1,.767-1.388l33.607.079a.967.967,0,0,1,.762.365l9.76,12.624a2.594,2.594,0,0,1-.009,3.221l-9.833,12.572a.963.963,0,0,1-.764.36l-33.607-.078A.874.874,0,0,1,4294.891,7288.71Z" transform="translate(-4294.709 -7260.958)" fill="none" stroke="#fff" stroke-miterlimit="10" stroke-width="0.5"/>
                  <path id="Path_51287" data-name="Path 51287" d="M4380.573,7288.71l9.885-12.642a.827.827,0,0,0,0-1.027l-9.813-12.7a.874.874,0,0,1,.767-1.388l33.608.079a.967.967,0,0,1,.762.365l9.76,12.624a2.594,2.594,0,0,1-.009,3.221l-9.833,12.572a.963.963,0,0,1-.764.36l-33.607-.078A.874.874,0,0,1,4380.573,7288.71Z" transform="translate(-4355.604 -7260.958)" fill="none" stroke="#fff" stroke-miterlimit="10" stroke-width="0.5"/>
                </g>
                <g id="Group_41898" data-name="Group 41898" transform="translate(133.009)">
                  <path id="Path_51288" data-name="Path 51288" d="M4066.668,7288.71l9.885-12.642a.827.827,0,0,0,0-1.027l-9.812-12.7a.874.874,0,0,1,.767-1.388l33.608.079a.966.966,0,0,1,.762.365l9.761,12.624a2.594,2.594,0,0,1-.01,3.221l-9.833,12.572a.963.963,0,0,1-.764.36l-33.607-.078A.874.874,0,0,1,4066.668,7288.71Z" transform="translate(-4066.487 -7260.958)" fill="none" stroke="#fff" stroke-miterlimit="10" stroke-width="0.5"/>
                  <path id="Path_51289" data-name="Path 51289" d="M4152.351,7288.71l9.885-12.642a.828.828,0,0,0,0-1.027l-9.813-12.7a.874.874,0,0,1,.767-1.388l33.607.079a.969.969,0,0,1,.762.365l9.76,12.624a2.593,2.593,0,0,1-.01,3.221l-9.832,12.572a.966.966,0,0,1-.765.36l-33.606-.078A.874.874,0,0,1,4152.351,7288.71Z" transform="translate(-4127.382 -7260.958)" fill="none" stroke="#fff" stroke-miterlimit="10" stroke-width="0.5"/>
                </g>
                <g id="Group_41899" data-name="Group 41899" transform="translate(66.024)">
                  <path id="Path_51290" data-name="Path 51290" d="M3835.125,7288.71l9.885-12.642a.828.828,0,0,0,0-1.027l-9.813-12.7a.874.874,0,0,1,.767-1.388l33.608.079a.968.968,0,0,1,.762.365l9.76,12.624a2.593,2.593,0,0,1-.01,3.221l-9.833,12.572a.963.963,0,0,1-.764.36l-33.607-.078A.874.874,0,0,1,3835.125,7288.71Z" transform="translate(-3834.942 -7260.958)" fill="none" stroke="#fff" stroke-miterlimit="10" stroke-width="0.5"/>
                  <path id="Path_51291" data-name="Path 51291" d="M3920.807,7288.71l9.885-12.642a.827.827,0,0,0,0-1.027l-9.813-12.7a.874.874,0,0,1,.767-1.388l33.608.079a.967.967,0,0,1,.762.365l9.76,12.624a2.593,2.593,0,0,1-.009,3.221l-9.833,12.572a.965.965,0,0,1-.764.36l-33.607-.078A.874.874,0,0,1,3920.807,7288.71Z" transform="translate(-3895.837 -7260.958)" fill="none" stroke="#fff" stroke-miterlimit="10" stroke-width="0.5"/>
                </g>
                <g id="Group_41900" data-name="Group 41900">
                  <path id="Path_51292" data-name="Path 51292" d="M3606.9,7288.71l9.885-12.642a.827.827,0,0,0,0-1.027l-9.813-12.7a.874.874,0,0,1,.767-1.388l33.608.079a.969.969,0,0,1,.762.365l9.76,12.624a2.594,2.594,0,0,1-.009,3.221l-9.833,12.572a.964.964,0,0,1-.764.36l-33.607-.078A.874.874,0,0,1,3606.9,7288.71Z" transform="translate(-3606.72 -7260.958)" fill="none" stroke="#fff" stroke-miterlimit="10" stroke-width="0.5"/>
                  <path id="Path_51293" data-name="Path 51293" d="M3692.585,7288.71l9.885-12.642a.827.827,0,0,0,0-1.027l-9.813-12.7a.874.874,0,0,1,.767-1.388l33.608.079a.968.968,0,0,1,.762.365l9.76,12.624a2.594,2.594,0,0,1-.01,3.221l-9.833,12.572a.964.964,0,0,1-.764.36l-33.607-.078A.874.874,0,0,1,3692.585,7288.71Z" transform="translate(-3667.615 -7260.958)" fill="none" stroke="#fff" stroke-miterlimit="10" stroke-width="0.5"/>
                </g>
              </g>
              <g id="Group_41904" data-name="Group 41904">
                <g id="Group_41902" data-name="Group 41902" transform="translate(66.024)">
                  <path id="Path_51294" data-name="Path 51294" d="M3368.369,7288.71l9.885-12.642a.827.827,0,0,0,0-1.027l-9.813-12.7a.874.874,0,0,1,.768-1.388l33.607.079a.967.967,0,0,1,.762.365l9.761,12.624a2.594,2.594,0,0,1-.01,3.221l-9.833,12.572a.964.964,0,0,1-.764.36l-33.607-.078A.874.874,0,0,1,3368.369,7288.71Z" transform="translate(-3368.187 -7260.958)" fill="none" stroke="#fff" stroke-miterlimit="10" stroke-width="0.5"/>
                  <path id="Path_51295" data-name="Path 51295" d="M3454.052,7288.71l9.885-12.642a.827.827,0,0,0,0-1.027l-9.812-12.7a.874.874,0,0,1,.767-1.388l33.608.079a.967.967,0,0,1,.762.365l9.76,12.624a2.594,2.594,0,0,1-.009,3.221l-9.833,12.572a.964.964,0,0,1-.764.36l-33.607-.078A.874.874,0,0,1,3454.052,7288.71Z" transform="translate(-3429.083 -7260.958)" fill="none" stroke="#fff" stroke-miterlimit="10" stroke-width="0.5"/>
                </g>
                <g id="Group_41903" data-name="Group 41903">
                  <path id="Path_51296" data-name="Path 51296" d="M3140.147,7288.71l9.885-12.642a.827.827,0,0,0,0-1.027l-9.813-12.7a.874.874,0,0,1,.767-1.388l33.608.079a.967.967,0,0,1,.762.365l9.76,12.624a2.594,2.594,0,0,1-.009,3.222l-9.833,12.571a.963.963,0,0,1-.764.36l-33.607-.078A.874.874,0,0,1,3140.147,7288.71Z" transform="translate(-3139.965 -7260.958)" fill="none" stroke="#fff" stroke-miterlimit="10" stroke-width="0.5"/>
                  <path id="Path_51297" data-name="Path 51297" d="M3225.83,7288.71l9.884-12.642a.826.826,0,0,0,0-1.027l-9.813-12.7a.874.874,0,0,1,.767-1.388l33.608.079a.967.967,0,0,1,.762.365l9.76,12.624a2.6,2.6,0,0,1-.01,3.222l-9.833,12.571a.964.964,0,0,1-.764.36l-33.607-.078A.874.874,0,0,1,3225.83,7288.71Z" transform="translate(-3200.86 -7260.958)" fill="none" stroke="#fff" stroke-miterlimit="10" stroke-width="0.5"/>
                </g>
              </g>
            </g>
            <g id="Group_44392" data-name="Group 44392" transform="translate(791.16)">
              <g id="Group_41901-2" data-name="Group 41901" transform="translate(135.031)">
                <g id="Group_41897-2" data-name="Group 41897" transform="translate(199.034)">
                  <path id="Path_51286-2" data-name="Path 51286" d="M4294.891,7288.71l9.884-12.642a.827.827,0,0,0,0-1.027l-9.812-12.7a.874.874,0,0,1,.767-1.388l33.607.079a.967.967,0,0,1,.762.365l9.76,12.624a2.594,2.594,0,0,1-.009,3.221l-9.833,12.572a.963.963,0,0,1-.764.36l-33.607-.078A.874.874,0,0,1,4294.891,7288.71Z" transform="translate(-4294.709 -7260.958)" fill="none" stroke="#fff" stroke-miterlimit="10" stroke-width="0.5"/>
                  <path id="Path_51287-2" data-name="Path 51287" d="M4380.573,7288.71l9.885-12.642a.827.827,0,0,0,0-1.027l-9.813-12.7a.874.874,0,0,1,.767-1.388l33.608.079a.967.967,0,0,1,.762.365l9.76,12.624a2.594,2.594,0,0,1-.009,3.221l-9.833,12.572a.963.963,0,0,1-.764.36l-33.607-.078A.874.874,0,0,1,4380.573,7288.71Z" transform="translate(-4355.604 -7260.958)" fill="none" stroke="#fff" stroke-miterlimit="10" stroke-width="0.5"/>
                </g>
                <g id="Group_41898-2" data-name="Group 41898" transform="translate(133.009)">
                  <path id="Path_51288-2" data-name="Path 51288" d="M4066.668,7288.71l9.885-12.642a.827.827,0,0,0,0-1.027l-9.812-12.7a.874.874,0,0,1,.767-1.388l33.608.079a.966.966,0,0,1,.762.365l9.761,12.624a2.594,2.594,0,0,1-.01,3.221l-9.833,12.572a.963.963,0,0,1-.764.36l-33.607-.078A.874.874,0,0,1,4066.668,7288.71Z" transform="translate(-4066.487 -7260.958)" fill="none" stroke="#fff" stroke-miterlimit="10" stroke-width="0.5"/>
                  <path id="Path_51289-2" data-name="Path 51289" d="M4152.351,7288.71l9.885-12.642a.828.828,0,0,0,0-1.027l-9.813-12.7a.874.874,0,0,1,.767-1.388l33.607.079a.969.969,0,0,1,.762.365l9.76,12.624a2.593,2.593,0,0,1-.01,3.221l-9.832,12.572a.966.966,0,0,1-.765.36l-33.606-.078A.874.874,0,0,1,4152.351,7288.71Z" transform="translate(-4127.382 -7260.958)" fill="none" stroke="#fff" stroke-miterlimit="10" stroke-width="0.5"/>
                </g>
                <g id="Group_41899-2" data-name="Group 41899" transform="translate(66.024)">
                  <path id="Path_51290-2" data-name="Path 51290" d="M3835.125,7288.71l9.885-12.642a.828.828,0,0,0,0-1.027l-9.813-12.7a.874.874,0,0,1,.767-1.388l33.608.079a.968.968,0,0,1,.762.365l9.76,12.624a2.593,2.593,0,0,1-.01,3.221l-9.833,12.572a.963.963,0,0,1-.764.36l-33.607-.078A.874.874,0,0,1,3835.125,7288.71Z" transform="translate(-3834.942 -7260.958)" fill="none" stroke="#fff" stroke-miterlimit="10" stroke-width="0.5"/>
                  <path id="Path_51291-2" data-name="Path 51291" d="M3920.807,7288.71l9.885-12.642a.827.827,0,0,0,0-1.027l-9.813-12.7a.874.874,0,0,1,.767-1.388l33.608.079a.967.967,0,0,1,.762.365l9.76,12.624a2.593,2.593,0,0,1-.009,3.221l-9.833,12.572a.965.965,0,0,1-.764.36l-33.607-.078A.874.874,0,0,1,3920.807,7288.71Z" transform="translate(-3895.837 -7260.958)" fill="none" stroke="#fff" stroke-miterlimit="10" stroke-width="0.5"/>
                </g>
                <g id="Group_41900-2" data-name="Group 41900">
                  <path id="Path_51293-2" data-name="Path 51293" d="M3692.585,7288.71l9.885-12.642a.827.827,0,0,0,0-1.027l-9.813-12.7a.874.874,0,0,1,.767-1.388l33.608.079a.968.968,0,0,1,.762.365l9.76,12.624a2.594,2.594,0,0,1-.01,3.221l-9.833,12.572a.964.964,0,0,1-.764.36l-33.607-.078A.874.874,0,0,1,3692.585,7288.71Z" transform="translate(-3667.615 -7260.958)" fill="none" stroke="#fff" stroke-miterlimit="10" stroke-width="0.5"/>
                </g>
              </g>
              <g id="Group_41904-2" data-name="Group 41904">
                <g id="Group_41902-2" data-name="Group 41902" transform="translate(66.024)">
                  <path id="Path_51294-2" data-name="Path 51294" d="M3368.369,7288.71l9.885-12.642a.827.827,0,0,0,0-1.027l-9.813-12.7a.874.874,0,0,1,.768-1.388l33.607.079a.967.967,0,0,1,.762.365l9.761,12.624a2.594,2.594,0,0,1-.01,3.221l-9.833,12.572a.964.964,0,0,1-.764.36l-33.607-.078A.874.874,0,0,1,3368.369,7288.71Z" transform="translate(-3368.187 -7260.958)" fill="none" stroke="#fff" stroke-miterlimit="10" stroke-width="0.5"/>
                  <path id="Path_51295-2" data-name="Path 51295" d="M3454.052,7288.71l9.885-12.642a.827.827,0,0,0,0-1.027l-9.812-12.7a.874.874,0,0,1,.767-1.388l33.608.079a.967.967,0,0,1,.762.365l9.76,12.624a2.594,2.594,0,0,1-.009,3.221l-9.833,12.572a.964.964,0,0,1-.764.36l-33.607-.078A.874.874,0,0,1,3454.052,7288.71Z" transform="translate(-3429.083 -7260.958)" fill="none" stroke="#fff" stroke-miterlimit="10" stroke-width="0.5"/>
                </g>
                <g id="Group_41903-2" data-name="Group 41903">
                  <path id="Path_51296-2" data-name="Path 51296" d="M3140.147,7288.71l9.885-12.642a.827.827,0,0,0,0-1.027l-9.813-12.7a.874.874,0,0,1,.767-1.388l33.608.079a.967.967,0,0,1,.762.365l9.76,12.624a2.594,2.594,0,0,1-.009,3.222l-9.833,12.571a.963.963,0,0,1-.764.36l-33.607-.078A.874.874,0,0,1,3140.147,7288.71Z" transform="translate(-3139.965 -7260.958)" fill="none" stroke="#fff" stroke-miterlimit="10" stroke-width="0.5"/>
                  <path id="Path_51297-2" data-name="Path 51297" d="M3225.83,7288.71l9.884-12.642a.826.826,0,0,0,0-1.027l-9.813-12.7a.874.874,0,0,1,.767-1.388l33.608.079a.967.967,0,0,1,.762.365l9.76,12.624a2.6,2.6,0,0,1-.01,3.222l-9.833,12.571a.964.964,0,0,1-.764.36l-33.607-.078A.874.874,0,0,1,3225.83,7288.71Z" transform="translate(-3200.86 -7260.958)" fill="none" stroke="#fff" stroke-miterlimit="10" stroke-width="0.5"/>
                </g>
              </g>
            </g>
            <g id="Group_44393" data-name="Group 44393" transform="translate(1195.663)">
              <g id="Group_41901-3" data-name="Group 41901" transform="translate(135.031)">
                <g id="Group_41897-3" data-name="Group 41897" transform="translate(199.034)">
                  <path id="Path_51286-3" data-name="Path 51286" d="M4294.891,7288.71l9.884-12.642a.827.827,0,0,0,0-1.027l-9.812-12.7a.874.874,0,0,1,.767-1.388l33.607.079a.967.967,0,0,1,.762.365l9.76,12.624a2.594,2.594,0,0,1-.009,3.221l-9.833,12.572a.963.963,0,0,1-.764.36l-33.607-.078A.874.874,0,0,1,4294.891,7288.71Z" transform="translate(-4294.709 -7260.958)" fill="none" stroke="#fff" stroke-miterlimit="10" stroke-width="0.5"/>
                  <path id="Path_51287-3" data-name="Path 51287" d="M4380.573,7288.71l9.885-12.642a.827.827,0,0,0,0-1.027l-9.813-12.7a.874.874,0,0,1,.767-1.388l33.608.079a.967.967,0,0,1,.762.365l9.76,12.624a2.594,2.594,0,0,1-.009,3.221l-9.833,12.572a.963.963,0,0,1-.764.36l-33.607-.078A.874.874,0,0,1,4380.573,7288.71Z" transform="translate(-4355.604 -7260.958)" fill="none" stroke="#fff" stroke-miterlimit="10" stroke-width="0.5"/>
                </g>
                <g id="Group_41898-3" data-name="Group 41898" transform="translate(133.009)">
                  <path id="Path_51288-3" data-name="Path 51288" d="M4066.668,7288.71l9.885-12.642a.827.827,0,0,0,0-1.027l-9.812-12.7a.874.874,0,0,1,.767-1.388l33.608.079a.966.966,0,0,1,.762.365l9.761,12.624a2.594,2.594,0,0,1-.01,3.221l-9.833,12.572a.963.963,0,0,1-.764.36l-33.607-.078A.874.874,0,0,1,4066.668,7288.71Z" transform="translate(-4066.487 -7260.958)" fill="none" stroke="#fff" stroke-miterlimit="10" stroke-width="0.5"/>
                  <path id="Path_51289-3" data-name="Path 51289" d="M4152.351,7288.71l9.885-12.642a.828.828,0,0,0,0-1.027l-9.813-12.7a.874.874,0,0,1,.767-1.388l33.607.079a.969.969,0,0,1,.762.365l9.76,12.624a2.593,2.593,0,0,1-.01,3.221l-9.832,12.572a.966.966,0,0,1-.765.36l-33.606-.078A.874.874,0,0,1,4152.351,7288.71Z" transform="translate(-4127.382 -7260.958)" fill="none" stroke="#fff" stroke-miterlimit="10" stroke-width="0.5"/>
                </g>
                <g id="Group_41899-3" data-name="Group 41899" transform="translate(66.024)">
                  <path id="Path_51290-3" data-name="Path 51290" d="M3835.125,7288.71l9.885-12.642a.828.828,0,0,0,0-1.027l-9.813-12.7a.874.874,0,0,1,.767-1.388l33.608.079a.968.968,0,0,1,.762.365l9.76,12.624a2.593,2.593,0,0,1-.01,3.221l-9.833,12.572a.963.963,0,0,1-.764.36l-33.607-.078A.874.874,0,0,1,3835.125,7288.71Z" transform="translate(-3834.942 -7260.958)" fill="none" stroke="#fff" stroke-miterlimit="10" stroke-width="0.5"/>
                  <path id="Path_51291-3" data-name="Path 51291" d="M3920.807,7288.71l9.885-12.642a.827.827,0,0,0,0-1.027l-9.813-12.7a.874.874,0,0,1,.767-1.388l33.608.079a.967.967,0,0,1,.762.365l9.76,12.624a2.593,2.593,0,0,1-.009,3.221l-9.833,12.572a.965.965,0,0,1-.764.36l-33.607-.078A.874.874,0,0,1,3920.807,7288.71Z" transform="translate(-3895.837 -7260.958)" fill="none" stroke="#fff" stroke-miterlimit="10" stroke-width="0.5"/>
                </g>
                <g id="Group_41900-3" data-name="Group 41900">
                  <path id="Path_51292-2" data-name="Path 51292" d="M3606.9,7288.71l9.885-12.642a.827.827,0,0,0,0-1.027l-9.813-12.7a.874.874,0,0,1,.767-1.388l33.608.079a.969.969,0,0,1,.762.365l9.76,12.624a2.594,2.594,0,0,1-.009,3.221l-9.833,12.572a.964.964,0,0,1-.764.36l-33.607-.078A.874.874,0,0,1,3606.9,7288.71Z" transform="translate(-3606.72 -7260.958)" fill="none" stroke="#fff" stroke-miterlimit="10" stroke-width="0.5"/>
                  <path id="Path_51293-3" data-name="Path 51293" d="M3692.585,7288.71l9.885-12.642a.827.827,0,0,0,0-1.027l-9.813-12.7a.874.874,0,0,1,.767-1.388l33.608.079a.968.968,0,0,1,.762.365l9.76,12.624a2.594,2.594,0,0,1-.01,3.221l-9.833,12.572a.964.964,0,0,1-.764.36l-33.607-.078A.874.874,0,0,1,3692.585,7288.71Z" transform="translate(-3667.615 -7260.958)" fill="none" stroke="#fff" stroke-miterlimit="10" stroke-width="0.5"/>
                </g>
              </g>
              <g id="Group_41904-3" data-name="Group 41904">
                <g id="Group_41902-3" data-name="Group 41902" transform="translate(66.024)">
                  <path id="Path_51294-3" data-name="Path 51294" d="M3368.369,7288.71l9.885-12.642a.827.827,0,0,0,0-1.027l-9.813-12.7a.874.874,0,0,1,.768-1.388l33.607.079a.967.967,0,0,1,.762.365l9.761,12.624a2.594,2.594,0,0,1-.01,3.221l-9.833,12.572a.964.964,0,0,1-.764.36l-33.607-.078A.874.874,0,0,1,3368.369,7288.71Z" transform="translate(-3368.187 -7260.958)" fill="none" stroke="#fff" stroke-miterlimit="10" stroke-width="0.5"/>
                  <path id="Path_51295-3" data-name="Path 51295" d="M3454.052,7288.71l9.885-12.642a.827.827,0,0,0,0-1.027l-9.812-12.7a.874.874,0,0,1,.767-1.388l33.608.079a.967.967,0,0,1,.762.365l9.76,12.624a2.594,2.594,0,0,1-.009,3.221l-9.833,12.572a.964.964,0,0,1-.764.36l-33.607-.078A.874.874,0,0,1,3454.052,7288.71Z" transform="translate(-3429.083 -7260.958)" fill="none" stroke="#fff" stroke-miterlimit="10" stroke-width="0.5"/>
                </g>
                <g id="Group_41903-3" data-name="Group 41903">
                  <path id="Path_51296-3" data-name="Path 51296" d="M3140.147,7288.71l9.885-12.642a.827.827,0,0,0,0-1.027l-9.813-12.7a.874.874,0,0,1,.767-1.388l33.608.079a.967.967,0,0,1,.762.365l9.76,12.624a2.594,2.594,0,0,1-.009,3.222l-9.833,12.571a.963.963,0,0,1-.764.36l-33.607-.078A.874.874,0,0,1,3140.147,7288.71Z" transform="translate(-3139.965 -7260.958)" fill="none" stroke="#fff" stroke-miterlimit="10" stroke-width="0.5"/>
                  <path id="Path_51297-3" data-name="Path 51297" d="M3225.83,7288.71l9.884-12.642a.826.826,0,0,0,0-1.027l-9.813-12.7a.874.874,0,0,1,.767-1.388l33.608.079a.967.967,0,0,1,.762.365l9.76,12.624a2.6,2.6,0,0,1-.01,3.222l-9.833,12.571a.964.964,0,0,1-.764.36l-33.607-.078A.874.874,0,0,1,3225.83,7288.71Z" transform="translate(-3200.86 -7260.958)" fill="none" stroke="#fff" stroke-miterlimit="10" stroke-width="0.5"/>
                </g>
              </g>
            </g>
          </g>
        </g>
      </g>
    </g>
    <g id="heartLines" transform="translate(-1635.072 -7068.991)">
      <g id="Group_41911" data-name="Group 41911" transform="translate(2994.553 7077.665)">
        <path id="Path_62983" data-name="Path 62983" d="M3104.734,7140l-2.922-5.46-2.77,5.46H3088.3l-2.413,11.1-4.3-42.122-9.854,30.712h-2.1l-2.613-5.306-2.612,5.306h-8.728V7140h-10.092l-2.922-5.46-2.77,5.46h-10.74l-2.413,11.1-4.3-42.122-9.853,30.712h-2.1l-2.613-5.306-2.612,5.306h-8.728V7140h-10.009l-2.922-5.46-2.77,5.46H2970.1l-2.413,11.1-4.3-42.122-9.853,30.712h-2.1l-2.613-5.306-2.612,5.306h-8.728V7140h-10.092l-2.922-5.46-2.77,5.46h-10.74l-2.413,11.1-4.3-42.122-9.853,30.712h-2.1l-2.613-5.306-2.612,5.306h-43.5v3.1h45.429l.687-1.4.687,1.4h6.286l6.02-18.767,4.771,46.732,6.012-27.657h10.146l.943-1.858.994,1.858h13.545v-.309h9.055l.687-1.4.687,1.4h6.286l6.021-18.767,4.771,46.732,6.011-27.657h10.146l.943-1.858.994,1.858h13.544v-.309h8.973l.687-1.4.687,1.4h6.286l6.021-18.767,4.771,46.732,6.012-27.657H3041.8l.943-1.858.994,1.858h13.545v-.309h9.055l.687-1.4.687,1.4h6.286l6.021-18.767,4.771,46.732,6.011-27.657h10.146l.943-1.858.994,1.858h13.544V7140Z" transform="translate(-3657.424 -7108.979)" fill="#f1f1f1"/>
        <path id="Path_62984" data-name="Path 62984" d="M3104.734,7140l-2.922-5.46-2.77,5.46H3088.3l-2.413,11.1-4.3-42.122-9.854,30.712h-2.1l-2.613-5.306-2.612,5.306h-8.728V7140h-10.092l-2.922-5.46-2.77,5.46h-10.74l-2.413,11.1-4.3-42.122-9.853,30.712h-2.1l-2.613-5.306-2.612,5.306h-8.728V7140h-10.009l-2.922-5.46-2.77,5.46H2970.1l-2.413,11.1-4.3-42.122-9.853,30.712h-2.1l-2.613-5.306-2.612,5.306h-8.728V7140h-10.092l-2.922-5.46-2.77,5.46h-10.74l-2.413,11.1-4.3-42.122-9.853,30.712h-2.1l-2.613-5.306-2.612,5.306h-43.5v3.1h45.429l.687-1.4.687,1.4h6.286l6.02-18.767,4.771,46.732,6.012-27.657h10.146l.943-1.858.994,1.858h13.545v-.309h9.055l.687-1.4.687,1.4h6.286l6.021-18.767,4.771,46.732,6.011-27.657h10.146l.943-1.858.994,1.858h13.544v-.309h8.973l.687-1.4.687,1.4h6.286l6.021-18.767,4.771,46.732,6.012-27.657H3041.8l.943-1.858.994,1.858h13.545v-.309h9.055l.687-1.4.687,1.4h6.286l6.021-18.767,4.771,46.732,6.011-27.657h10.146l.943-1.858.994,1.858h13.544V7140Z" transform="translate(-3930.424 -7108.979)" fill="#f1f1f1"/>
        <path id="Path_62985" data-name="Path 62985" d="M3104.734,7140l-2.922-5.46-2.77,5.46H3088.3l-2.413,11.1-4.3-42.122-9.854,30.712h-2.1l-2.613-5.306-2.612,5.306h-8.728V7140h-10.092l-2.922-5.46-2.77,5.46h-10.74l-2.413,11.1-4.3-42.122-9.853,30.712h-2.1l-2.613-5.306-2.612,5.306h-8.728V7140h-10.009l-2.922-5.46-2.77,5.46H2970.1l-2.413,11.1-4.3-42.122-9.853,30.712h-2.1l-2.613-5.306-2.612,5.306h-8.728V7140h-10.092l-2.922-5.46-2.77,5.46h-10.74l-2.413,11.1-4.3-42.122-9.853,30.712h-2.1l-2.613-5.306-2.612,5.306h-43.5v3.1h45.429l.687-1.4.687,1.4h6.286l6.02-18.767,4.771,46.732,6.012-27.657h10.146l.943-1.858.994,1.858h13.545v-.309h9.055l.687-1.4.687,1.4h6.286l6.021-18.767,4.771,46.732,6.011-27.657h10.146l.943-1.858.994,1.858h13.544v-.309h8.973l.687-1.4.687,1.4h6.286l6.021-18.767,4.771,46.732,6.012-27.657H3041.8l.943-1.858.994,1.858h13.545v-.309h9.055l.687-1.4.687,1.4h6.286l6.021-18.767,4.771,46.732,6.011-27.657h10.146l.943-1.858.994,1.858h13.544V7140Z" transform="translate(-4203.424 -7108.979)" fill="#f1f1f1"/>
      </g>
    </g>
  </g>
</svg>
