<svg xmlns="http://www.w3.org/2000/svg" width="318.253" height="668.378" viewBox="0 0 318.253 668.378">
  <g id="ribbonBg" transform="translate(-848.329 0)">
    <path id="Path_61554" data-name="Path 61554" d="M4788.844-.7l-.521,448.421a9.552,9.552,0,0,1-3.975,7.728l-137.642,99.029a29.948,29.948,0,0,1-35.119-.1L4474.52,454.62a9.552,9.552,0,0,1-3.929-7.753L4471.1-.7Z" transform="translate(-3622.262 0.7)" fill="#1b1477"/>
    <g id="Group_44358" data-name="Group 44358" transform="translate(980.798 413.261)">
      <path id="Path_62929" data-name="Path 62929" d="M4863.52,1201.489l-3.883-38.034-4.9,15.273h-5.116l-.559-1.135-.559,1.135h-8.67v-2.519h7.1l2.125-4.318,2.127,4.318h1.711l8.02-25,3.5,34.281,1.964-9.035h8.741l2.254-4.444,2.378,4.444h9.514v2.519h-11.023l-.809-1.513-.767,1.513h-8.257Z" transform="translate(-4839.833 -1151.213)" fill="#45c6e7"/>
    </g>
    <g id="Group_44364" data-name="Group 44364" transform="translate(977.64 491.763)">
      <g id="Group_44360" data-name="Group 44360" transform="translate(0 0)">
        <g id="Group_44359" data-name="Group 44359">
          <path id="Path_62930" data-name="Path 62930" d="M4894.869,1461.667l-27.343-19.9a1.9,1.9,0,0,0-2.222-.006l-27.459,19.751a1.9,1.9,0,0,1-3-1.544l.172-67.646a1.9,1.9,0,0,1,.789-1.533l27.306-19.645a5.943,5.943,0,0,1,6.967.019l27.191,19.791a1.893,1.893,0,0,1,.779,1.538l-.169,67.644A1.9,1.9,0,0,1,4894.869,1461.667Z" transform="translate(-4833.476 -1370.029)" fill="#e3d535"/>
          <path id="Path_62931" data-name="Path 62931" d="M4891.057,1697.51l-27.343-19.9a1.9,1.9,0,0,0-2.222-.006l-27.459,19.751a1.9,1.9,0,0,1-3-1.544l.172-67.646a1.9,1.9,0,0,1,.789-1.533l27.306-19.645a5.941,5.941,0,0,1,6.967.019l27.192,19.791a1.893,1.893,0,0,1,.779,1.538l-.169,67.644A1.9,1.9,0,0,1,4891.057,1697.51Z" transform="translate(-4831.031 -1521.262)" fill="#e3d535"/>
        </g>
        <path id="Path_62932" data-name="Path 62932" d="M4907.467,1440.54a1.62,1.62,0,0,0-1.987.234,4.6,4.6,0,0,0-.978,1.182c-.45.812-.874,1.65-1.282,2.461q-.166.328-.333.658a2.7,2.7,0,0,0-1.445-.875,2.967,2.967,0,0,0-.691-.106.971.971,0,0,0,.072-.214c.174-.855.336-1.748.495-2.73.249-1.542.468-2.964.672-4.375a6.178,6.178,0,0,0,.093-1.492,1.992,1.992,0,0,0-1.746-1.616h0a2.019,2.019,0,0,0-2.016,1.88c-.1.728-.208,1.309-.334,1.831-.178.738-.368,1.472-.557,2.206-.141.545-.283,1.09-.418,1.637a.7.7,0,0,0-.015.14,2.864,2.864,0,0,0-.463-.184,3.114,3.114,0,0,0-1.295-.115,1.062,1.062,0,0,0,.039-.45q-.14-1.232-.276-2.464l-.321-2.888c-.1-.9-.2-1.832-.321-2.75-.106-.8-.321-1.682-1.535-1.926a1.82,1.82,0,0,0-2.3,1.329,6.933,6.933,0,0,0-.173,1.117c-.012.126-.024.246-.038.357l-.007.055,0,.055q.053.978.108,1.927c.084,1.477.165,2.872.231,4.287l0,.114c.021.448.042.9.083,1.36a2.29,2.29,0,0,0-1.853.261,1.385,1.385,0,0,0-.17-.675c-.012-.027-.019-.057-.028-.087-.013-.045-.027-.089-.042-.135l-.165-.459a33.255,33.255,0,0,1-1.645-5.573,2.31,2.31,0,0,0-1.928-2.049,1.585,1.585,0,0,0-1.852.97,5.005,5.005,0,0,0-.2.789c-.012.062-.021.115-.031.159l-.021.09.008.092c.017.2.03.375.041.539.023.339.042.631.092.93.262,1.588.476,2.807.693,3.952.146.767.321,1.658.564,2.53.332,1.185.7,2.376,1.063,3.528l.062.2a1.564,1.564,0,0,0-.334.084,2.112,2.112,0,0,0-1.361,2.068,8.22,8.22,0,0,0,.287,2.322c.266,1.119.521,2.261.768,3.368a.953.953,0,0,0-.554.184,1.468,1.468,0,0,1-1.37.231c-.833-.308-1.666-.685-2.473-1.05l-.04-.018c-.165-.075-.332-.172-.508-.274a5.175,5.175,0,0,0-.846-.422,5.472,5.472,0,0,0-4.738.527,3.047,3.047,0,0,0-1.324,1.355,1.515,1.515,0,0,0,.049,1.35,1.147,1.147,0,0,0,.857.607c.145.018.291.031.436.043a6.1,6.1,0,0,1,.611.073l.375.067a6.192,6.192,0,0,1,1.25.3,16.692,16.692,0,0,1,2.26,1.134,19.986,19.986,0,0,1,1.973,1.39c.22.171.428.367.648.575a9.6,9.6,0,0,0,.773.678c.371.283.758.544,1.131.8.352.238.715.484,1.052.74.366.278.72.592,1.094.924.181.16.365.323.56.491l.275.238a5.672,5.672,0,0,1-.2.626c-.3.773-.646,1.551-.981,2.3-.181.405-.361.81-.536,1.217-.329.766-.668,1.579-1.008,2.417a.822.822,0,0,0,.33.978,4.419,4.419,0,0,0,.789.355l.172.054c.794.251,1.614.511,2.436.737a21.462,21.462,0,0,0,5.667.8h.117c1.081-.007,2.169-.085,3.221-.16l.216-.015-.07.242.855-.068c.062-.005.118-.008.171-.01a2.348,2.348,0,0,0,.395-.042c.378-.081.755-.165,1.132-.25.325-.073.649-.145.974-.215a.828.828,0,0,0,.571-.383.914.914,0,0,0,.037-.75c-.288-.931-.557-1.852-.873-2.948-.052-.18-.092-.364-.13-.546-.02-.093-.041-.187-.062-.28l-.035-.151c.163-.387.327-.773.489-1.153l.088-.207a11.157,11.157,0,0,1,2.974-4.138c1.145-1,2.221-2.1,3.262-3.158l.028-.029a3.1,3.1,0,0,0,.9-2.586,4.952,4.952,0,0,1,.032-1c.01-.1.02-.207.028-.311.013-.163.038-.326.062-.49a5.2,5.2,0,0,0,.082-.968,2.067,2.067,0,0,0-1.337-1.951c-.3-.121-.592-.26-.9-.408-.185-.088-.37-.176-.557-.26-.169-.077-.342-.145-.515-.213l-.075-.03.256-.4c.1-.159.2-.308.3-.45a9.081,9.081,0,0,0,.573-.931c.975-1.912,1.836-3.64,2.633-5.283a6.749,6.749,0,0,0,.533-1.557A1.736,1.736,0,0,0,4907.467,1440.54Zm-8.891-.659c.192-.741.383-1.481.562-2.225.135-.56.249-1.178.356-1.944a.884.884,0,0,1,.841-.86.95.95,0,0,1,.569.544,5.378,5.378,0,0,1-.09,1.238c-.2,1.376-.417,2.791-.666,4.327-.154.954-.311,1.823-.479,2.653-.021.031-.07.087-.1.126s-.069.079-.1.119a1.916,1.916,0,0,1-.133.142,3.034,3.034,0,0,0-.216.238.579.579,0,0,1-.179.173.5.5,0,0,1-.16-.321l-.02-.229c-.042-.5-.086-1.011-.178-1.521a2.113,2.113,0,0,0-.264-.661c-.039-.071-.079-.142-.11-.216l-.021-.048C4898.312,1440.9,4898.444,1440.392,4898.576,1439.881Zm-7.051-6.734a5.96,5.96,0,0,1,.139-.928c.083-.309.256-.6.927-.47.359.072.49.137.593.919.119.9.22,1.83.318,2.724l.321,2.889c.088.789.176,1.577.266,2.373a2.644,2.644,0,0,0-1.055,1.944c-.061.375-.105.751-.149,1.116-.017.14-.033.28-.051.419-.24-.163-.34-.447-.5-.928l-.062-.191a11.9,11.9,0,0,1-.444-3.24l-.006-.115c-.066-1.421-.146-2.819-.231-4.3q-.053-.924-.106-1.872C4891.5,1433.381,4891.514,1433.266,4891.525,1433.147Zm-6.728,6.624c-.215-1.135-.428-2.345-.688-3.923-.04-.243-.057-.5-.08-.819-.01-.146-.021-.3-.035-.472.006-.034.014-.07.021-.109a3.968,3.968,0,0,1,.148-.6c.1-.268.459-.218.531-.205.375.066.823.249.966,1.083a34.255,34.255,0,0,0,1.7,5.773l.164.457c.009.024.015.049.023.074a1.56,1.56,0,0,0,.112.295c.048.093.057.11-.011.233a3.612,3.612,0,0,0-.342,2.429c.069.413.123.842.174,1.257.025.2.05.4.077.6l.011.083a3.493,3.493,0,0,0,.056.354.232.232,0,0,1-.031.185.215.215,0,0,1-.158.086,1.1,1.1,0,0,1-.812-.2.207.207,0,0,1-.046-.07l-.183-.586c-.357-1.143-.726-2.326-1.053-3.494C4885.108,1441.375,4884.938,1440.514,4884.8,1439.771Zm.165,21.667c-.362-.274-.739-.529-1.1-.776s-.733-.5-1.078-.759a8.677,8.677,0,0,1-.677-.6c-.231-.219-.471-.444-.735-.65a21.148,21.148,0,0,0-2.093-1.471,17.905,17.905,0,0,0-2.421-1.214,7.147,7.147,0,0,0-1.49-.373c-.121-.021-.241-.042-.359-.064a6.975,6.975,0,0,0-.731-.089c-.118-.01-.235-.02-.353-.034a.332.332,0,0,1-.016-.287,1.884,1.884,0,0,1,.838-.826,4.28,4.28,0,0,1,3.748-.441,4.225,4.225,0,0,1,.653.333,6.939,6.939,0,0,0,.614.328l.041.018c.825.373,1.678.759,2.549,1.082a2.516,2.516,0,0,0,1.991-.1c.31,1.322.631,2.68.975,4.012a13.392,13.392,0,0,1,.429,2.554C4885.487,1461.857,4885.232,1461.642,4884.962,1461.438Zm13.663,10.622-.657.146c.217-.723.449-1.459.708-2.19.2.674.379,1.292.566,1.906Zm5.737-19.539.2.094c.312.149.635.3.968.437a.888.888,0,0,1,.6.894,4.233,4.233,0,0,1-.069.751c-.028.19-.057.38-.072.57q-.012.146-.026.293a5.925,5.925,0,0,0-.03,1.242,1.9,1.9,0,0,1-.564,1.625l-.028.029c-1.025,1.045-2.085,2.126-3.195,3.094a12.321,12.321,0,0,0-3.286,4.566l-.089.207c-.463,1.086-.942,2.209-1.368,3.337-.2.526-.36,1.064-.517,1.584-.091.3-.18.6-.278.9l-.5.035c-1.033.074-2.1.151-3.145.157a19.993,19.993,0,0,1-5.463-.755c-.8-.219-1.609-.476-2.391-.724l-.172-.054a2.178,2.178,0,0,1-.242-.094c.29-.711.579-1.4.861-2.059.173-.4.351-.8.53-1.2.341-.766.694-1.557,1-2.359a7.41,7.41,0,0,0,.387-3.839c-.115-.763-.3-1.516-.472-2.243-.08-.332-.16-.664-.234-1q-.177-.8-.354-1.607-.237-1.081-.478-2.16l-.067-.3c-.255-1.144-.52-2.327-.795-3.489a7.053,7.053,0,0,1-.257-1.988c.035-.676.263-.9.594-1.021a.253.253,0,0,1,.108-.025.164.164,0,0,1,.048.04,2.6,2.6,0,0,0,2.454.871,1.578,1.578,0,0,0,1.3-1.774c-.047-.381-.1-.761-.148-1.142-.057-.432-.115-.863-.168-1.3a2.082,2.082,0,0,1,.188-1.343,1.078,1.078,0,0,1,1.281-.425.249.249,0,0,1,.068.076c.137.394.261.792.385,1.191.116.373.232.746.358,1.116a2.184,2.184,0,0,0,1.724,1.405,1.012,1.012,0,0,0,.772-.116,1.062,1.062,0,0,0,.463-.678c.058-.25.09-.495.121-.732l.032-.233c.022-.155.041-.311.06-.467.037-.3.071-.586.129-.86a.979.979,0,0,1,.429-.687,1.542,1.542,0,0,1,1.2-.049,1.24,1.24,0,0,1,.965,1.217c.03.372.06.743.083,1.114a1.684,1.684,0,0,0,1.093,1.542,1.517,1.517,0,0,0,1.788-.657c.213-.323.663-.281,1-.188.821.224,1.114.617,1.159,1.559l.013.252c.063,1.347.13,2.74.323,4.106a9.9,9.9,0,0,0,.543,1.933c.086.24.171.481.249.723a5.029,5.029,0,0,0,.2.5c.027.063.056.127.082.19l.219.489,1.086-.331Zm2.694-10.337a5.511,5.511,0,0,1-.438,1.278c-.765,1.576-1.589,3.232-2.517,5.055q-.031-.5-.066-1c-.018-.278-.038-.555-.058-.833-.024-.333-.048-.666-.07-1l.372-.734c.4-.8.821-1.628,1.26-2.42a3.506,3.506,0,0,1,.73-.874.48.48,0,0,1,.573-.111A.578.578,0,0,1,4907.056,1442.184Z" transform="translate(-4857.748 -1408.826)" fill="#1b1464"/>
      </g>
      <g id="Group_44363" data-name="Group 44363" transform="translate(2.887 106.562)">
        <g id="Group_44362" data-name="Group 44362" transform="translate(4.66)">
          <g id="Group_44361" data-name="Group 44361">
            <path id="Path_62933" data-name="Path 62933" d="M4907.76,1715.606q9.456,0,18.913,0a.879.879,0,0,1,.628.168.579.579,0,0,1,.22.6.572.572,0,0,1-.466.456,2.752,2.752,0,0,1-.49.048c-1.414,0-2.827,0-4.242-.013-.206,0-.28.072-.286.249,0,.09,0,.18,0,.27q0,7.228,0,14.455a.976.976,0,0,0,.017.335.394.394,0,0,0,.21.228,2.916,2.916,0,0,1,.464,5.5,3.129,3.129,0,0,1-4.123-1.328,2.81,2.81,0,0,1,.931-3.7,9.124,9.124,0,0,1,.932-.463.545.545,0,0,0,.219-.256.811.811,0,0,0,.011-.3v-9.119c0-.1,0-.2,0-.3,0-.138-.083-.2-.223-.206-.094,0-.188,0-.283,0h-18.347c-.612,0-1.225.016-1.837.015-1.127,0-2.254-.012-3.381-.015-.389,0-.4.006-.4.38q0,4.694,0,9.389a.405.405,0,0,0,.335.456,2.877,2.877,0,0,1,2.016,2.154,2.781,2.781,0,0,1-1.422,3.174,2.9,2.9,0,0,1-2.162.371,3.027,3.027,0,0,1-2.2-1.582,2.884,2.884,0,0,1,1.315-3.935,3.3,3.3,0,0,1,.556-.209c.171-.048.266-.133.264-.307,0-.079,0-.158,0-.236v-14.556c0-.445,0-.437-.475-.437-1.861,0-3.724,0-5.585-.005a1.372,1.372,0,0,1-.64-.139.548.548,0,0,1-.262-.618.761.761,0,0,1,.564-.5,3.272,3.272,0,0,1,.389-.009Zm.714,1.276h-11.913c-.335,0-.338,0-.338.339q0,1.655,0,3.31c0,.411,0,.419.429.412.835-.014,1.67-.056,2.505-.055.988,0,1.977.054,2.966.055q8.979.009,17.957,0c.095,0,.189-.007.283,0,.242.019.334-.081.333-.314q-.01-1.739,0-3.479c0-.226-.081-.278-.312-.278Q4914.431,1716.888,4908.475,1716.882Zm12.938,16.682a1.675,1.675,0,0,0-1.822,1.693,1.692,1.692,0,0,0,1.784,1.68,1.744,1.744,0,0,0,1.782-1.677A1.7,1.7,0,0,0,4921.412,1733.565Zm-27.607,1.685a1.7,1.7,0,0,0,1.756,1.691,1.694,1.694,0,1,0-.018-3.382A1.662,1.662,0,0,0,4893.8,1735.25Z" transform="translate(-4875.076 -1698.188)" fill="#1b1464"/>
            <path id="Path_62934" data-name="Path 62934" d="M4904.858,1697.36q5.832,0,11.662,0a4.036,4.036,0,0,1,2.939,1.09,4.488,4.488,0,0,1,.986,1.581c.108.26.218.521.318.784a.646.646,0,0,1-1.188.506c-.2-.393-.369-.8-.533-1.209a2.509,2.509,0,0,0-2.315-1.479c-1.248.03-2.5.006-3.746.007-.444,0-.453.03-.285.443.144.354.269.717.384,1.081.168.534-.064.685-.379.809a.676.676,0,0,1-.858-.45q-.255-.61-.479-1.231c-.232-.65-.228-.652-.947-.652h-17.069c-.118,0-.236,0-.354,0-.447.007-.6.144-.6.566,0,.731,0,1.463,0,2.194a1.327,1.327,0,0,1-.052.4.671.671,0,0,1-.715.48.68.68,0,0,1-.567-.642c-.007-.1,0-.2,0-.3,0-.675.038-1.353-.01-2.025a1.841,1.841,0,0,1,2.009-1.946c.342.005.684,0,1.025,0Z" transform="translate(-4877.058 -1686.488)" fill="#1b1464"/>
            <path id="Path_62935" data-name="Path 62935" d="M4859.444,1670.623a3.557,3.557,0,0,1-3.646,3.493,3.534,3.534,0,1,1,.006-7.057A3.552,3.552,0,0,1,4859.444,1670.623Zm-5.955-.043a2.283,2.283,0,0,0,2.293,2.255,2.252,2.252,0,1,0-.006-4.5A2.206,2.206,0,0,0,4853.49,1670.58Z" transform="translate(-4852.067 -1667.059)" fill="#1b1464"/>
            <path id="Path_62936" data-name="Path 62936" d="M4985.178,1694.314a3.559,3.559,0,0,1-3.66,3.527,3.527,3.527,0,1,1,3.66-3.527Zm-1.34.008a2.248,2.248,0,0,0-2.326-2.254,2.291,2.291,0,0,0-2.354,2.249,2.248,2.248,0,0,0,2.277,2.245A2.222,2.222,0,0,0,4983.838,1694.322Z" transform="translate(-4932.703 -1682.278)" fill="#1b1464"/>
          </g>
        </g>
        <path id="Path_62937" data-name="Path 62937" d="M4854.753,1700.157c-.981-.43-1.967-.852-2.952-1.275-.5-.217-1.018-.414-1.51-.651a4.338,4.338,0,0,1-1.411-1.2c-.729-.866-1.487-1.71-2.231-2.566a1.21,1.21,0,0,1-.117-.2,1.379,1.379,0,0,1,.238-.016c.526.056,1.052.111,1.577.178a.668.668,0,0,1,.618.664c.007.225-.008.45,0,.675a.643.643,0,0,0,1.283.026c.014-.337.021-.676,0-1.012a1.892,1.892,0,0,0-1.453-1.562c-.779-.1-1.566-.179-2.353-.209a2.116,2.116,0,0,0-1.937,1.085,2.765,2.765,0,0,0-.331,1.229c-.055.48-.068.965-.12,1.445-.122,1.129-.263,2.256-.383,3.385-.131,1.229-.249,2.46-.37,3.691-.037.369-.055.74-.1,1.109-.125,1.128-.256,2.256-.384,3.384a1.977,1.977,0,0,0-.018.336l-.077.744c-.007.017-.014.034-.021.051a.124.124,0,0,0,.007.075l-.175,1.683c-.023.159-.043.318-.057.478a4.889,4.889,0,0,1-.4,1.561c-.332.755-.646,1.517-.973,2.274-.384.892-.784,1.778-1.159,2.673-.279.666-.553,1.335-.788,2.016a2.351,2.351,0,0,0,.9,2.491,2.532,2.532,0,0,0,3.674-.627c.369-.622.65-1.293.959-1.947.7-1.473,1.375-2.951,2.076-4.421a5.859,5.859,0,0,0,.738-2.848,5.348,5.348,0,0,1,.084-.872.4.4,0,0,1,.056-.118,1.132,1.132,0,0,1,.067.108,3.21,3.21,0,0,1,.414,1.38c0,.639,0,1.279,0,1.919,0,1.733,0,3.467-.015,5.2a3.652,3.652,0,0,0,.216,1.356,2.452,2.452,0,0,0,1.141,1.281,2.689,2.689,0,0,0,2.209.112,2.316,2.316,0,0,0,1.533-2.147q0-4.238,0-8.476a2.134,2.134,0,0,0-.063-.635c-2.766-8.9-4.133-8.769-4.248-8.768-1.272.015-2.545.007-3.817,0-.343,0-.365-.022-.356-.345.007-.213.031-.426.056-.638.046-.4.107-.8.146-1.207.085-.884.152-1.769.242-2.652.1-.973.215-1.944.328-2.916a1.01,1.01,0,0,1,.071-.206,1.044,1.044,0,0,1,.157.125q1.183,1.36,2.363,2.724a4.522,4.522,0,0,0,1.571,1.224c.884.392,1.772.774,2.659,1.16q.9.39,1.8.777a.754.754,0,0,0,.962-.235A.634.634,0,0,0,4854.753,1700.157Zm-9.889,4.211c.554,0,2.6,0,3.075,0a2.029,2.029,0,0,1,1.6,1.479c.241,1.112,2.4,6.535,2.4,7.052q-.013,3.949-.008,7.9a1.471,1.471,0,0,1-.317,1.011,1.206,1.206,0,0,1-1.99-.333,2.2,2.2,0,0,1-.152-.788c-.018-.911-.007-1.823-.007-2.734h.061c0-1.248-.006-2.5,0-3.745a6.656,6.656,0,0,0-.664-2.938c-.267-.562-.5-1.137-.739-1.71a.959.959,0,0,0-.795-.64.807.807,0,0,0-.778.371.728.728,0,0,0-.126.343c-.079,1.177-.148,2.356-.219,3.534a4.587,4.587,0,0,1-.47,1.682q-.937,2-1.872,3.993c-.39.829-.777,1.66-1.184,2.481a1.055,1.055,0,0,1-1.319.625,1.146,1.146,0,0,1-.915-1.39,4.435,4.435,0,0,1,.275-.8c.523-1.226,1.058-2.448,1.584-3.672.418-.976.881-1.938,1.225-2.938a10.488,10.488,0,0,0,.348-1.952c.056-.4.167-1.608.171-1.643.019-.156.408-3.988.477-4.8A.372.372,0,0,1,4844.865,1704.367Z" transform="translate(-4839.076 -1683.701)" fill="#1b1464"/>
      </g>
    </g>
    <g id="Group_44379" data-name="Group 44379" transform="translate(1083.523 420.967)">
      <path id="Path_62938" data-name="Path 62938" d="M5190.008,1264.33l-27.342-19.9a1.9,1.9,0,0,0-2.222-.006l-27.459,19.751a1.9,1.9,0,0,1-3-1.544l.172-67.646a1.9,1.9,0,0,1,.789-1.533l27.306-19.645a5.942,5.942,0,0,1,6.967.019l27.191,19.791a1.893,1.893,0,0,1,.78,1.538l-.169,67.644A1.9,1.9,0,0,1,5190.008,1264.33Z" transform="translate(-5128.615 -1172.692)" fill="#e3d535"/>
      <path id="Path_62939" data-name="Path 62939" d="M5186.2,1500.175l-27.343-19.9a1.9,1.9,0,0,0-2.222-.006l-27.459,19.751a1.9,1.9,0,0,1-3-1.543l.172-67.646a1.9,1.9,0,0,1,.789-1.533l27.306-19.645a5.942,5.942,0,0,1,6.967.019l27.192,19.791a1.9,1.9,0,0,1,.779,1.538l-.169,67.643A1.9,1.9,0,0,1,5186.2,1500.175Z" transform="translate(-5126.17 -1323.926)" fill="#e3d535"/>
      <g id="Group_44377" data-name="Group 44377" transform="translate(10.639 19.665)">
        <g id="Group_44369" data-name="Group 44369" transform="translate(15.172)">
          <g id="Group_44366" data-name="Group 44366" transform="translate(0 0.62)">
            <g id="Group_44365" data-name="Group 44365">
              <path id="Path_62940" data-name="Path 62940" d="M5199.271,1235.2v-1.765a3.288,3.288,0,0,1,3.325-3.035v-1.165a4.451,4.451,0,0,0-4.48,4.2v1.765Z" transform="translate(-5198.115 -1229.236)" fill="#1b1464"/>
              <path id="Path_62941" data-name="Path 62941" d="M5241.655,1233.441v1.766h1.156v-1.766a4.442,4.442,0,0,0-4.409-4.2v1.168A3.275,3.275,0,0,1,5241.655,1233.441Z" transform="translate(-5223.949 -1229.242)" fill="#1b1464"/>
              <path id="Path_62942" data-name="Path 62942" d="M5218.419,1238.487v-1.765a2.6,2.6,0,0,0-2.578-2.355v1.154c.8.1,1.422.609,1.422,1.2v1.529h-12.889v-1.529c0-.61.665-1.127,1.494-1.207v-1.155a2.613,2.613,0,0,0-2.65,2.361v1.765Z" transform="translate(-5201.387 -1232.522)" fill="#1b1464"/>
            </g>
          </g>
          <g id="Group_44368" data-name="Group 44368" transform="translate(3.508)">
            <g id="Group_44367" data-name="Group 44367">
              <path id="Path_62943" data-name="Path 62943" d="M5217.636,1231.714H5210a2.1,2.1,0,1,1,0-4.207h7.638a2.1,2.1,0,0,1,0,4.207Zm-7.638-3.051a.947.947,0,0,0,0,1.895h7.638a.947.947,0,0,0,0-1.895Z" transform="translate(-5207.894 -1227.507)" fill="#1b1464"/>
            </g>
          </g>
        </g>
        <g id="Group_44374" data-name="Group 44374" transform="translate(0 6.26)">
          <g id="Group_44373" data-name="Group 44373">
            <g id="Group_44370" data-name="Group 44370">
              <path id="Path_62944" data-name="Path 62944" d="M5199.5,1279.987h-38.142a5.539,5.539,0,0,1-5.532-5.532v-23.967a5.539,5.539,0,0,1,5.532-5.532H5199.5a5.539,5.539,0,0,1,5.533,5.532v23.967A5.539,5.539,0,0,1,5199.5,1279.987Zm-38.142-33.875a4.381,4.381,0,0,0-4.376,4.376v23.967a4.381,4.381,0,0,0,4.376,4.376H5199.5a4.381,4.381,0,0,0,4.376-4.376v-23.967a4.381,4.381,0,0,0-4.376-4.376Z" transform="translate(-5155.825 -1244.956)" fill="#1b1464"/>
            </g>
            <g id="Group_44371" data-name="Group 44371" transform="translate(0 27.758)">
              <path id="Path_62945" data-name="Path 62945" d="M5200.059,1329.6H5160.8a4.978,4.978,0,0,1-4.973-4.973v-1.722a.578.578,0,0,1,.579-.578h48.049a.578.578,0,0,1,.579.578v1.722A4.978,4.978,0,0,1,5200.059,1329.6Zm-43.077-6.117v1.144a3.821,3.821,0,0,0,3.817,3.817h39.26a3.821,3.821,0,0,0,3.817-3.817v-1.144Z" transform="translate(-5155.825 -1322.327)" fill="#1b1464"/>
            </g>
            <g id="Group_44372" data-name="Group 44372">
              <path id="Path_62946" data-name="Path 62946" d="M5204.453,1252.23H5156.4a.578.578,0,0,1-.579-.578v-1.722a4.979,4.979,0,0,1,4.973-4.974h39.26a4.979,4.979,0,0,1,4.973,4.974v1.722A.578.578,0,0,1,5204.453,1252.23Zm-47.472-1.156h46.894v-1.143a3.821,3.821,0,0,0-3.817-3.818H5160.8a3.822,3.822,0,0,0-3.817,3.818Z" transform="translate(-5155.825 -1244.956)" fill="#1b1464"/>
            </g>
          </g>
        </g>
        <g id="Group_44376" data-name="Group 44376" transform="translate(15.705 14.846)">
          <g id="Group_44375" data-name="Group 44375">
            <path id="Path_62947" data-name="Path 62947" d="M5208.531,1286.748a8.93,8.93,0,1,1,8.931-8.93A8.941,8.941,0,0,1,5208.531,1286.748Zm0-16.7a7.774,7.774,0,1,0,7.775,7.774A7.783,7.783,0,0,0,5208.531,1270.044Z" transform="translate(-5199.601 -1268.887)" fill="#1b1464"/>
          </g>
          <path id="Path_62948" data-name="Path 62948" d="M5221.587,1289.221a5.123,5.123,0,1,1-2.262-9.721c.144,0,.285.006.426.017a5.124,5.124,0,0,0,1.836,9.7Z" transform="translate(-5208.964 -1275.693)" fill="#1b1464"/>
        </g>
      </g>
      <g id="Group_44378" data-name="Group 44378" transform="translate(5.032 105.028)">
        <path id="Path_62949" data-name="Path 62949" d="M5150.443,1465.47c7.154.447,13.946.875,20.738,1.294,5.3.327,10.6.659,15.9.956a5.848,5.848,0,0,1,4.333,1.786,5.264,5.264,0,0,1,1.357,3.969q-.743,12.112-1.494,24.224c-.082,1.319-.133,2.645-.3,3.955a4.974,4.974,0,0,1-2.548,3.766.819.819,0,0,0-.451.717,4.617,4.617,0,0,1-4.957,4.377c-3.37-.155-6.736-.4-10.1-.612q-6.257-.383-12.514-.765c-.937-.058-1.875-.11-2.811-.193a.892.892,0,0,0-.789.322c-1.452,1.446-2.908,2.888-4.407,4.285-.874.814-1.247.805-2.242.179a29.945,29.945,0,0,1-7.478-6.318,9.915,9.915,0,0,1-2.41-4.949,6.862,6.862,0,0,1,2.6-6.627,1.245,1.245,0,0,0,.542-.988q.579-9.818,1.186-19.633c.092-1.512.26-3.021.283-4.534A5.254,5.254,0,0,1,5150.443,1465.47Zm10.3,35.718c.136.018.23.037.325.043,4.4.273,8.8.557,13.2.807a2.195,2.195,0,0,0,2.387-2.191c.176-2.621.322-5.244.484-7.865q.321-5.2.646-10.391c.177-2.889.363-5.779.516-8.67a2.18,2.18,0,0,0-2.214-2.458c-3.157-.2-6.314-.391-9.472-.589q-7.835-.49-15.672-.98a2.2,2.2,0,0,0-2.478,2.145c-.2,2.83-.367,5.663-.543,8.5q-.387,6.2-.768,12.4c-.054.871-.1,1.742-.14,2.481l3.169,1.174a5.848,5.848,0,0,1,6.375-1.04C5159.4,1495.785,5160.6,1498.15,5160.743,1501.188Zm-.483,2.512c.168.016.316.033.464.043l9.7.6c5.051.313,10.1.644,15.153.931a4.3,4.3,0,0,0,4.577-3.926c.246-2.883.386-5.776.567-8.664q.385-6.113.759-12.226c.148-2.411.319-4.821.42-7.234a4.332,4.332,0,0,0-4.006-4.568c-5.031-.329-10.063-.626-15.1-.938q-6.113-.379-12.226-.763c-3.424-.211-6.848-.457-10.276-.6a4.329,4.329,0,0,0-4.539,4.11c-.227,3.251-.4,6.505-.6,9.758q-.319,5.166-.646,10.332c-.091,1.466-.174,2.932-.261,4.408.516-.116.975-.258,1.445-.314.369-.044.47-.2.49-.546q.688-11.481,1.4-22.962a3.085,3.085,0,0,1,3.358-3.081c1.59.063,3.178.175,4.766.273q7.2.442,14.407.891c2.143.134,4.289.227,6.424.441a3.008,3.008,0,0,1,2.65,3.224c-.1,1.838-.221,3.674-.335,5.511q-.672,10.733-1.342,21.467a3.1,3.1,0,0,1-3.337,3.049c-3.923-.226-7.844-.492-11.766-.738-.586-.037-1.173-.054-1.746-.08Zm-13.7-8.28a9.153,9.153,0,0,0-.969.094,5.938,5.938,0,0,0-4.521,6.553,8.776,8.776,0,0,0,1.728,4.081,27.164,27.164,0,0,0,8.123,7.02.834.834,0,0,0,.744-.132c.926-.774,1.844-1.562,2.707-2.4a21.612,21.612,0,0,0,4.56-6.018,7.25,7.25,0,0,0,.6-5.617c-1.373-4.109-6.024-5.4-8.953-2.566a.605.605,0,0,1-.906.036A5.115,5.115,0,0,0,5146.562,1495.42ZM5157.9,1508.1c.1.01.224.028.35.036q4.706.292,9.413.583,7.719.482,15.439.96a4.123,4.123,0,0,0,.971-.08,3.7,3.7,0,0,0,3.015-3.557c-1.1,0-2.208.011-3.312-.005-.536-.008-1.071-.068-1.606-.1q-5.224-.323-10.446-.644c-3.807-.237-7.614-.481-11.421-.709a.6.6,0,0,0-.473.183C5159.17,1505.853,5158.544,1506.965,5157.9,1508.1Z" transform="translate(-5140.196 -1465.444)" fill="#1b1464"/>
        <path id="Path_62950" data-name="Path 62950" d="M5178.223,1497.077c.829-1.144,1.61-2.229,2.4-3.31.549-.754,1.062-.722,1.527.085l.795,1.382c.592-1.814,1.142-3.5,1.692-5.183q.311-.955.625-1.91a.72.72,0,0,1,.8-.593c.417.051.6.342.657.754.342,2.583.693,5.164,1.049,7.8.587.046,1.172.1,1.757.135.861.055,1.723.1,2.584.148.345.02.776,0,.739.495-.035.453-.432.387-.765.366-1.416-.094-2.831-.195-4.248-.263a.853.853,0,0,1-.932-.859c-.283-2.224-.593-4.444-.893-6.665a.48.48,0,0,0-.165-.324c-.131.387-.265.773-.392,1.161q-.859,2.62-1.71,5.242c-.117.364-.253.692-.693.742s-.654-.234-.839-.569c-.268-.486-.544-.966-.852-1.509-.86,1.19-1.677,2.342-2.517,3.476-.471.635-1.082.534-1.4-.206-.029-.07-.052-.144-.08-.215q-1.089-2.873-2.181-5.746c-.073-.195-.156-.387-.265-.653-.888,1.4-1.765,2.727-2.574,4.092a1.347,1.347,0,0,1-1.45.749c-1.24-.116-2.488-.145-3.729-.26-.215-.02-.563-.272-.579-.442-.04-.424.329-.42.654-.4,1.244.08,2.487.172,3.732.215a.845.845,0,0,0,.622-.329c.883-1.345,1.714-2.725,2.606-4.065a1.174,1.174,0,0,1,.825-.541c.261.027.584.4.7.7.771,1.939,1.493,3.9,2.233,5.849C5178.037,1496.619,5178.117,1496.811,5178.223,1497.077Z" transform="translate(-5157.118 -1479.614)" fill="#1b1464"/>
        <path id="Path_62951" data-name="Path 62951" d="M5186.163,1522.032c-.657.73-1.279,1.4-1.876,2.1a1.09,1.09,0,0,1-1,.427c-.629-.059-1.262-.1-1.893-.117a.856.856,0,0,1-.873-.679c-.4-1.277-.824-2.549-1.239-3.823-.058-.177-.126-.35-.227-.625-.134.259-.235.428-.314.607q-1.46,3.248-2.913,6.5c-.169.378-.343.764-.836.745s-.637-.412-.785-.8c-.619-1.627-1.247-3.251-1.92-5-.426.609-.832,1.129-1.167,1.69a1.3,1.3,0,0,1-1.376.69c-1.336-.118-2.677-.173-4.017-.256-.317-.02-.679-.057-.66-.466.021-.455.4-.426.741-.4,1.319.084,2.639.183,3.96.235a.9.9,0,0,0,.636-.314c.438-.556.791-1.18,1.241-1.724a1.1,1.1,0,0,1,.793-.394c.224.021.51.329.61.574.6,1.47,1.154,2.959,1.726,4.442.065.17.143.336.258.605.143-.292.244-.487.334-.687.982-2.182,1.95-4.37,2.959-6.539a1.246,1.246,0,0,1,.716-.626c.446-.111.664.266.791.66.458,1.42.933,2.836,1.371,4.263.114.371.3.447.669.529a2.376,2.376,0,0,0,2.752-1.152,8.012,8.012,0,0,1,.911-1.034c.519-.552.981-.5,1.377.161.375.624.713,1.271,1.114,1.877a.969.969,0,0,0,.606.392c.74.093,1.493.088,2.233.187.189.026.346.294.519.451-.182.124-.366.356-.547.353a21.608,21.608,0,0,1-2.637-.16,1.332,1.332,0,0,1-.78-.567C5186.97,1523.481,5186.6,1522.771,5186.163,1522.032Z" transform="translate(-5156.142 -1499.249)" fill="#1b1464"/>
        <path id="Path_62952" data-name="Path 62952" d="M5172.9,1481.078c-1.355-.083-2.714-.147-4.067-.266-.219-.019-.577-.261-.594-.428-.044-.422.328-.425.651-.406l4.814.285c.325.02.688.089.584.5-.042.165-.408.3-.646.349a2.725,2.725,0,0,1-.741-.043Z" transform="translate(-5158.174 -1474.76)" fill="#1b1464"/>
        <path id="Path_62953" data-name="Path 62953" d="M5169.951,1486.685a14.234,14.234,0,0,1-1.6-.107c-.2-.033-.358-.3-.535-.455.2-.13.4-.374.6-.37q1.55.034,3.1.19c.194.02.361.293.542.45-.2.128-.4.352-.605.366a12.521,12.521,0,0,1-1.491-.062Z" transform="translate(-5157.905 -1478.468)" fill="#1b1464"/>
        <path id="Path_62954" data-name="Path 62954" d="M5258.054,1531.636a2.957,2.957,0,0,1-.044,5.914,2.982,2.982,0,0,1-2.94-2.985A2.951,2.951,0,0,1,5258.054,1531.636Zm0,.852a2.1,2.1,0,1,0,2.073,2.092A2.1,2.1,0,0,0,5258.057,1532.487Z" transform="translate(-5213.857 -1507.889)" fill="#1b1464"/>
        <path id="Path_62955" data-name="Path 62955" d="M5259.614,1557.215a2.95,2.95,0,1,1-2.94-2.978A2.962,2.962,0,0,1,5259.614,1557.215Zm-2.98,2.083a2.094,2.094,0,1,0-2.08-2.093A2.1,2.1,0,0,0,5256.634,1559.3Z" transform="translate(-5212.988 -1522.382)" fill="#1b1464"/>
        <path id="Path_62956" data-name="Path 62956" d="M5267.144,1516.614c0-.268-.008-.536,0-.8a1.917,1.917,0,0,1,.075-.452c.232-.794.9-.995,2.477-.756a1.118,1.118,0,0,1,1,1.194c-.012.612-.051,1.226-.116,1.834a1.085,1.085,0,0,1-1.132,1,9.82,9.82,0,0,1-1.2-.064,1.175,1.175,0,0,1-1.179-1.437c.012-.172.028-.344.043-.516Zm.8.163-.087.024c.086.291.1.775.272.836a3.869,3.869,0,0,0,1.355.118c.1,0,.25-.23.269-.369a9.1,9.1,0,0,0,.089-1.487.619.619,0,0,0-.375-.447c-1.29-.29-1.452-.155-1.517,1.152C5267.95,1516.662,5267.948,1516.719,5267.945,1516.777Z" transform="translate(-5221.549 -1496.906)" fill="#1b1464"/>
        <path id="Path_62957" data-name="Path 62957" d="M5270.682,1488.815c-.072-.005-.263-.013-.453-.032-1.039-.1-1.4-.536-1.327-1.593.03-.439.055-.879.092-1.318a1.172,1.172,0,0,1,1.3-1.152c.382.014.765.041,1.146.077a1.148,1.148,0,0,1,1.106,1.226c-.01.593-.046,1.187-.115,1.776C5272.347,1488.559,5271.84,1488.861,5270.682,1488.815Zm.961-2.065c.044-1.114.044-1.114-1.067-1.148-.076,0-.153,0-.229-.009-.338-.042-.5.112-.514.445-.021.477-.075.955-.054,1.43.007.15.2.41.321.418C5271.629,1487.988,5271.6,1488.292,5271.643,1486.75Z" transform="translate(-5222.722 -1477.804)" fill="#1b1464"/>
        <path id="Path_62958" data-name="Path 62958" d="M5254.971,1502.811c-.191-.012-.382-.021-.573-.037a1.163,1.163,0,0,1-1.174-1.277q.024-.8.1-1.6a1.166,1.166,0,0,1,1.3-1.154,11.666,11.666,0,0,1,1.259.1,1.072,1.072,0,0,1,.99,1.137c-.008.631-.05,1.263-.117,1.891a1.124,1.124,0,0,1-1.1.99,6.3,6.3,0,0,1-.687-.029Zm-.853-1.868c-.036.977-.036.977.973,1.017.134.005.294.062.4.007.169-.092.4-.237.43-.391a7.591,7.591,0,0,0,.094-1.485c0-.146-.214-.406-.337-.411-1.568-.062-1.463-.444-1.554,1.205C5254.119,1500.9,5254.12,1500.924,5254.118,1500.943Z" transform="translate(-5212.673 -1486.793)" fill="#1b1464"/>
        <path id="Path_62959" data-name="Path 62959" d="M5271.589,1501.783c-.057,1.9-.5,2.1-2.247,1.936-1.02-.1-1.441-.536-1.361-1.558.035-.439.048-.879.084-1.318a1.156,1.156,0,0,1,1.272-1.177,10.693,10.693,0,0,1,1.089.059,1.172,1.172,0,0,1,1.2,1.37C5271.618,1501.325,5271.6,1501.554,5271.589,1501.783Zm-.872-.105a2.332,2.332,0,0,1,.03-.368c.1-.5-.043-.725-.6-.749-1.228-.052-1.227-.08-1.275,1.237a3.869,3.869,0,0,1-.021.458c-.074.465.158.606.582.62C5270.835,1502.922,5270.657,1503.03,5270.717,1501.678Z" transform="translate(-5222.13 -1487.389)" fill="#1b1464"/>
        <path id="Path_62960" data-name="Path 62960" d="M5254.2,1513.717c.249.013.5.007.745.043a1.1,1.1,0,0,1,1.009,1.13c-.007.65-.049,1.3-.12,1.948a1.032,1.032,0,0,1-1,.937,8.871,8.871,0,0,1-1.489-.067,1.117,1.117,0,0,1-1.023-1.237c.006-.363.045-.726.059-1.089C5252.438,1513.94,5252.765,1513.641,5254.2,1513.717Zm-1,2.112h-.017a1.513,1.513,0,0,0,.009.457c.067.2.186.54.3.546a9.668,9.668,0,0,0,1.474-.082c.024,0,.045-.137.051-.212.035-.478.058-.956.1-1.433.031-.349-.141-.47-.458-.517-1.3-.193-1.381-.133-1.454,1.184C5253.209,1515.79,5253.208,1515.809,5253.207,1515.828Z" transform="translate(-5212.095 -1496.391)" fill="#1b1464"/>
        <path id="Path_62961" data-name="Path 62961" d="M5256,1483.9a6.474,6.474,0,0,1,.688,0,1.15,1.15,0,0,1,1.111,1.223c-.011.612-.051,1.225-.12,1.833a1.063,1.063,0,0,1-1.043.967,9.1,9.1,0,0,1-1.488-.077,1.108,1.108,0,0,1-1-1.2c.011-.593.05-1.186.114-1.776a1.118,1.118,0,0,1,1.168-1.036c.19,0,.382.017.573.027Zm.895,1.958c.049-1.111.049-1.111-1.064-1.153-.077,0-.154,0-.229-.009-.345-.045-.5.127-.513.452a13,13,0,0,0-.051,1.43.6.6,0,0,0,.377.423C5256.816,1487.262,5256.837,1487.237,5256.9,1485.858Z" transform="translate(-5213.266 -1477.241)" fill="#1b1464"/>
        <path id="Path_62962" data-name="Path 62962" d="M5157.964,1564.369c-.475,1.171-.915,2.293-1.391,3.4a2.4,2.4,0,0,1-.493.557c-.172-.2-.422-.369-.5-.6-.4-1.138-.75-2.291-1.122-3.438a1.139,1.139,0,0,0-.3-.506c-.282,1.276-.552,2.556-.857,3.827a3.186,3.186,0,0,1-.38.716,3.135,3.135,0,0,1-.7-.47c-.475-.552-.883-1.159-1.358-1.71a.885.885,0,0,0-.613-.267c-.823.019-1.645.089-2.467.147-.321.023-.641-.044-.607-.408.015-.162.338-.4.541-.423.971-.105,1.948-.171,2.924-.2a.987.987,0,0,1,.663.321c.43.482.807,1.012,1.277,1.617.334-1.51.646-2.918.958-4.325a2.83,2.83,0,0,1,.155-.668c.09-.182.272-.427.428-.437s.394.223.454.4c.446,1.3.855,2.62,1.279,3.931.076.235.16.467.272.8.4-1,.762-1.9,1.129-2.8.276-.678.511-.777,1.034-.276a2.446,2.446,0,0,0,2.348.673,6.2,6.2,0,0,1,1.547-.085c.2.011.39.245.585.377-.181.154-.35.423-.545.444-.971.1-1.948.156-2.925.193a1.113,1.113,0,0,1-.571-.208C5158.469,1564.786,5158.241,1564.582,5157.964,1564.369Z" transform="translate(-5144.668 -1527.041)" fill="#1b1464"/>
      </g>
    </g>
    <g id="Group_44389" data-name="Group 44389" transform="translate(867.14 390.382)">
      <g id="Group_44380" data-name="Group 44380" transform="translate(0 0)">
        <path id="Path_62963" data-name="Path 62963" d="M4586.863,1179.08l-27.343-19.9a1.9,1.9,0,0,0-2.222-.006l-27.458,19.751a1.9,1.9,0,0,1-3-1.544l.172-67.646a1.9,1.9,0,0,1,.789-1.533l27.306-19.645a5.941,5.941,0,0,1,6.967.019l27.192,19.791a1.892,1.892,0,0,1,.78,1.538l-.169,67.643A1.9,1.9,0,0,1,4586.863,1179.08Z" transform="translate(-4525.47 -1087.442)" fill="#e3d535"/>
        <path id="Path_62964" data-name="Path 62964" d="M4583.05,1414.925l-27.342-19.9a1.9,1.9,0,0,0-2.222-.006l-27.459,19.751a1.9,1.9,0,0,1-3-1.543l.172-67.646a1.9,1.9,0,0,1,.788-1.533l27.306-19.645a5.943,5.943,0,0,1,6.967.019l27.192,19.791a1.9,1.9,0,0,1,.78,1.538l-.169,67.643A1.9,1.9,0,0,1,4583.05,1414.925Z" transform="translate(-4523.025 -1238.675)" fill="#e3d535"/>
        <path id="Path_62965" data-name="Path 62965" d="M4583.05,1665.079l-27.342-19.9a1.9,1.9,0,0,0-2.222-.006l-27.459,19.751a1.9,1.9,0,0,1-3-1.544l.172-67.646a1.9,1.9,0,0,1,.788-1.533l27.306-19.645a5.942,5.942,0,0,1,6.967.019l27.192,19.791a1.9,1.9,0,0,1,.78,1.538l-.169,67.644A1.9,1.9,0,0,1,4583.05,1665.079Z" transform="translate(-4523.025 -1399.084)" fill="#e3d535"/>
      </g>
      <g id="Group_44383" data-name="Group 44383" transform="translate(11.966 191.487)">
        <g id="Group_44381" data-name="Group 44381">
          <path id="Path_62966" data-name="Path 62966" d="M4580.913,1670.133a5.753,5.753,0,0,1-1-.088c-6.6-1.174-13.024-7.338-13.294-7.6a22.541,22.541,0,0,1-3.771-4.906,12.273,12.273,0,0,1-1.53-5.636c-3.372-3.067-5.032-6.294-4.934-9.595a9.545,9.545,0,0,1,1.921-5.393,12.917,12.917,0,0,0,.806-1.134,13.488,13.488,0,0,0,1.893-8.415.565.565,0,0,1,1.114-.185,14.459,14.459,0,0,1-2.043,9.189,14.121,14.121,0,0,1-.875,1.234c-1.117,1.454-4.124,6.533,2.17,12.791a12.745,12.745,0,0,1,3.972-8.066l1.671-1.572q.286-.269.591-.506a26.188,26.188,0,0,1-.192-5.63c.013-.165.026-.328.042-.49-3.083-1.32-2.349-6.7-2.315-6.937a.565.565,0,0,1,1.118.16c-.007.047-.588,4.315,1.347,5.576a13.739,13.739,0,0,1,3.943-8.206v-2.97a.565.565,0,0,1,1.13,0v3.477l-.192.169c-4.592,4.038-4.132,11.633-3.832,14.157a8.081,8.081,0,0,1,5.454-.876,9.882,9.882,0,0,0,.951-2.731c-.116-.016-.245-.035-.383-.056a2.589,2.589,0,0,1-2.167-2.9,10.7,10.7,0,0,1,1.87-4.565.565.565,0,1,1,.9.686,9.205,9.205,0,0,0-.856,1.47,46.174,46.174,0,0,0,5.417.273c-.262-5.03-4-5.62-4.162-5.643l-.485-.069,0-.491v-2.9a.565.565,0,1,1,1.129,0v2.441c1.769.46,4.432,2.268,4.65,6.648,1.4-.035,2.966-.128,4.648-.313.011,0,.789-.082,2.072-.243a.565.565,0,1,1,.141,1.121c-1.3.162-2.084.244-2.092.245-1.925.212-3.69.307-5.239.334a.6.6,0,0,1-.142,0,44.428,44.428,0,0,1-6.374-.319,8.2,8.2,0,0,0-.355,1.482,1.456,1.456,0,0,0,1.222,1.625c.515.08.911.124.915.124l.549.06-.047.55a10.6,10.6,0,0,1-1.386,4.1l-.162.271a20.359,20.359,0,0,0-1.953,4.705c-.969,3.64-.493,6.589,1.412,8.763a.565.565,0,1,1-.85.744c-2.144-2.446-2.713-5.844-1.647-9.826a21.372,21.372,0,0,1,1.828-4.542,6.958,6.958,0,0,0-4.933,1.211.507.507,0,0,1-.062.044,7.23,7.23,0,0,0-.726.6l-1.671,1.572a11.592,11.592,0,0,0-3.673,8.414.544.544,0,0,1,0,.171,11.157,11.157,0,0,0,1.392,5.256,21.416,21.416,0,0,0,3.576,4.649c.056.054,6.443,6.179,12.7,7.291a4.479,4.479,0,0,0,4.563-1.97,17.068,17.068,0,0,0,1.406-2.749,21.026,21.026,0,0,0,1.563-6.187,26.555,26.555,0,0,0-.617-8.34,11.093,11.093,0,0,0-6.319-6.906.619.619,0,0,1-.329-.325,18.863,18.863,0,0,1-1.012-6.72l0-.539.539-.021c.024,0,2.491-.1,5.676-.376h0s.881-.1,2.1-.263a.565.565,0,0,1,.15,1.119c-1.232.165-2.126.266-2.135.267-2.34.206-4.294.313-5.2.357a18.126,18.126,0,0,0,.851,5.547,12.215,12.215,0,0,1,6.761,7.541,27.153,27.153,0,0,1,.659,8.753,22.119,22.119,0,0,1-1.644,6.522,18.2,18.2,0,0,1-1.5,2.932A5.6,5.6,0,0,1,4580.913,1670.133Zm17.687-4.946-7.019-4.21a.565.565,0,0,1,.581-.969l4.585,2.751-1.178-4.209,7.345,4.318a.565.565,0,0,1-.573.974l-4.93-2.9Zm-18.44-5.041a.565.565,0,0,1-.274-.071,5.11,5.11,0,0,1-2.8-3.377,5.353,5.353,0,0,1,.784-3.71,7.375,7.375,0,0,1-2.3-3.9.565.565,0,0,1,1.118-.164,6.468,6.468,0,0,0,2.245,3.5l.027.02a.567.567,0,0,1,.069.063,11.155,11.155,0,0,0,2.317,1.511.565.565,0,0,1-.5,1.012,12.6,12.6,0,0,1-2.1-1.3,4.134,4.134,0,0,0-.547,2.743,4.05,4.05,0,0,0,2.243,2.607.565.565,0,0,1-.275,1.058Zm13.408-4.984a.565.565,0,0,1-.06-1.126l5.315-.577-3.48-2.644,8.461-.992a.565.565,0,1,1,.132,1.122l-5.679.666,3.51,2.665-8.137.883A.577.577,0,0,1,4593.567,1655.161Zm-2.224-6.5a.565.565,0,0,1-.326-1.026l4.367-3.083-4.326-.623,6.917-4.974a.565.565,0,1,1,.659.917l-4.642,3.338,4.362.628-6.686,4.719A.562.562,0,0,1,4591.344,1648.658Z" transform="translate(-4556.379 -1621.189)" fill="#1b1464"/>
        </g>
        <g id="Group_44382" data-name="Group 44382" transform="translate(7.829 31.72)">
          <path id="Path_62967" data-name="Path 62967" d="M4582.567,1717.144c.307.292,6.21,5.844,11.826,6.843a2.916,2.916,0,0,0,.508.045,2.8,2.8,0,0,0,2.365-1.279,15.45,15.45,0,0,0,1.265-2.479,20.868,20.868,0,0,0,1.448-5.74,18.22,18.22,0,0,1-1.257,2.161,7.631,7.631,0,0,1-9.381,2.532,25.5,25.5,0,0,1-11.141-9.624,9.45,9.45,0,0,0,1.086,3.277,19.7,19.7,0,0,0,3.281,4.263" transform="translate(-4578.2 -1709.604)" fill="#1b1464"/>
        </g>
      </g>
      <g id="Group_44384" data-name="Group 44384" transform="translate(10.451 99.607)">
        <path id="Path_62968" data-name="Path 62968" d="M4559.968,1370.53a8.8,8.8,0,0,1,.175-.948,2.117,2.117,0,0,1,2.05-1.466c.716-.017,1.433-.015,2.149,0a.427.427,0,0,0,.49-.356,3.767,3.767,0,0,1,7.208-.006c.09.273.208.371.488.362.549-.018,1.1,0,1.649,0,1.8,0,2.459.571,2.725,2.419h.568c1.549,0,3.1,0,4.647,0a2.344,2.344,0,0,1,2.612,2.633q0,4.9,0,9.794v.685c.183-.155.267-.224.349-.3a3.739,3.739,0,0,1,5.162.027.741.741,0,0,0,.866.205,2.557,2.557,0,0,1,3,1.084,2.6,2.6,0,0,1-3.558,3.6,2.522,2.522,0,0,1-1.115-3.023.691.691,0,0,0-.289-.914,2.238,2.238,0,0,0-3.157.177,25.267,25.267,0,0,0-5.9,11.293,8.591,8.591,0,0,0,.309,5.106,5.26,5.26,0,0,0,4.8,3.274,14.934,14.934,0,0,0,7.618-1.656,29.273,29.273,0,0,0,6.619-4.252,2.313,2.313,0,0,0,.293-3.374.669.669,0,0,0-.851-.235,2.591,2.591,0,0,1-1.752-4.875,2.454,2.454,0,0,1,2.69.508,2.407,2.407,0,0,1,.725,2.635.879.879,0,0,0,.237.994,3.661,3.661,0,0,1-.2,5.247,26.189,26.189,0,0,1-11.361,6.105,40.984,40.984,0,0,1-4.389.514l-.074-.143c-.009.176-.025.352-.025.528,0,1.966-.034,3.932.01,5.9a2.43,2.43,0,0,1-2.588,2.615q-13.717-.052-27.433,0a2.44,2.44,0,0,1-2.564-2.575q.047-19.513.019-39.026a2.294,2.294,0,0,1,2.569-2.553c1.549-.006,3.1,0,4.647,0Zm-.041,1.448h-4.952c-1.173,0-1.377.2-1.377,1.357q0,19.264,0,38.529c0,.15,0,.3.006.449a.863.863,0,0,0,.905.92c.149.011.3.006.45.006h26.985c.15,0,.3,0,.449-.009a.849.849,0,0,0,.878-.941q.012-3.323,0-6.646a1.309,1.309,0,0,0-.132-.39,1.417,1.417,0,0,0-.42.183c-.379.35-.734.726-1.1,1.089a2.392,2.392,0,0,1-2.493.791,1.819,1.819,0,0,0-2.138.652,1.767,1.767,0,0,1-.155.126,14.525,14.525,0,0,1-9.2,3.354,7.2,7.2,0,0,1-7.245-7.247,13.353,13.353,0,0,1,1.9-6.94.637.637,0,0,0-.04-.793,5.74,5.74,0,1,1,4.916,2.487,6.054,6.054,0,0,1-3.516-1.04c-.05.039-.085.054-.1.08a11.255,11.255,0,0,0-1.674,6.719,5.62,5.62,0,0,0,4.121,5.048,7.935,7.935,0,0,0,3.416.163,14.567,14.567,0,0,0,7.363-3.662.474.474,0,0,0,.148-.635,2.778,2.778,0,0,1,.644-3.128c.368-.386.768-.742,1.119-1.142a.651.651,0,0,0,.134-.517,12.139,12.139,0,0,1,.129-6.556,26.416,26.416,0,0,1,4.034-8.309,1.632,1.632,0,0,0,.283-.864c.018-4,.013-8,.011-11.993,0-.857-.28-1.137-1.139-1.139q-2.374,0-4.747,0c-.163,0-.325.018-.48.027-.2,2-1.3,2.431-2.9,2.407-3.763-.055-7.529-.018-11.293-.018-1.831,0-2.388-.467-2.708-2.267A.894.894,0,0,0,4559.927,1371.978Zm8.494.992h.35c1.9,0,3.8,0,5.695,0,.7,0,.917-.22.922-.878q.006-.824,0-1.649c0-.646-.222-.866-.871-.87-.966-.005-1.931,0-2.9,0a.728.728,0,0,1-.845-.762,2.361,2.361,0,0,0-2.321-2.286,2.322,2.322,0,0,0-2.328,2.207c-.087.647-.3.84-.939.842-.916,0-1.832,0-2.748,0-.754,0-.965.219-.968.99,0,.45,0,.9,0,1.348,0,.863.194,1.06,1.057,1.061Q4565.472,1372.972,4568.42,1372.97Zm-1.468,15.949a4.289,4.289,0,1,0,4.326,4.256A4.3,4.3,0,0,0,4566.952,1388.919Zm14.386,15.808-1.931-1.931a4.231,4.231,0,0,0-.918.849,1.391,1.391,0,0,0,1.932,1.984A12.405,12.405,0,0,0,4581.338,1404.727Zm9.4-18.686a1.155,1.155,0,1,0,2.311-.033,1.155,1.155,0,0,0-2.311.033Zm7.34,5.015a1.133,1.133,0,0,0-1.158,1.115,1.157,1.157,0,0,0,1.143,1.191,1.179,1.179,0,0,0,1.139-1.152A1.142,1.142,0,0,0,4598.083,1391.057Z" transform="translate(-4552.154 -1365.085)" fill="#1b1464"/>
        <path id="Path_62969" data-name="Path 62969" d="M4575.731,1407.707h11.043c.184,0,.415-.061.539.027a1.477,1.477,0,0,1,.582.642.58.58,0,0,1-.466.715,2.116,2.116,0,0,1-.591.064q-11.119,0-22.237,0c-.05,0-.1,0-.15,0-.6-.011-.948-.277-.953-.725s.339-.724.94-.724Q4570.084,1407.706,4575.731,1407.707Z" transform="translate(-4559.428 -1392.403)" fill="#1b1464"/>
        <path id="Path_62970" data-name="Path 62970" d="M4575.7,1418.551h-11.041a3.645,3.645,0,0,1-.548-.018.648.648,0,0,1-.583-.7.638.638,0,0,1,.548-.676,3.38,3.38,0,0,1,.6-.034q11.065,0,22.131,0a3.922,3.922,0,0,1,.5.021.7.7,0,0,1-.013,1.395,5.478,5.478,0,0,1-.549.011Z" transform="translate(-4559.448 -1398.454)" fill="#1b1464"/>
        <path id="Path_62971" data-name="Path 62971" d="M4570.049,1399.776c-1.879,0-3.759.017-5.638-.02a1.007,1.007,0,0,1-.723-.454.847.847,0,0,1,.156-.743.973.973,0,0,1,.672-.224c.947-.024,1.9-.01,2.844-.01h8.032a2.855,2.855,0,0,1,.448.01.718.718,0,0,1-.055,1.436c-.682.016-1.364.005-2.046.006Z" transform="translate(-4559.526 -1386.397)" fill="#1b1464"/>
        <path id="Path_62972" data-name="Path 62972" d="M4591.579,1439.25a2.388,2.388,0,1,1-4.775-.018,2.388,2.388,0,0,1,4.775.018Zm-1.454-.023a.934.934,0,1,0-1.865.065.933.933,0,0,0,1.865-.065Z" transform="translate(-4574.373 -1411.125)" fill="#1b1464"/>
      </g>
      <g id="Group_44388" data-name="Group 44388" transform="translate(7.716 25.465)">
        <g id="Group_44385" data-name="Group 44385" transform="translate(0 7.768)">
          <path id="Path_62973" data-name="Path 62973" d="M4544.531,1195.432a2.544,2.544,0,0,1,2.306-1.967c.265-.027.527-.074.791-.11.791-.109,1.587-.193,2.371-.342a.945.945,0,0,0,.582-.429q1.053-2.011,2.04-4.057a3.393,3.393,0,0,1,2.058-1.909.551.551,0,0,0,.267-.386c.054-.326.014-.667.068-.993a2.318,2.318,0,0,1,4.607.337c.007.281,0,.561,0,.881h1.722c.009-.19.025-.368.025-.545,0-1.349,0-2.7,0-4.048a1.583,1.583,0,0,1,1.784-1.787q12.541,0,25.084,0a1.086,1.086,0,0,1,.663.131.926.926,0,0,1,.33.7c-.05.234-.331.456-.563.6-.148.09-.39.03-.589.03h-24.584c-.667,0-.668,0-.668.686q0,5.6,0,11.193c0,.437-.081.809-.576.911-.52.108-.871-.229-.879-.863-.013-1.016,0-2.032,0-3.048,0-.683-.014-1.366,0-2.049.009-.332-.117-.422-.436-.429-1.315-.028-1.315-.038-1.315,1.293,0,.9.005,1.8,0,2.7a2.289,2.289,0,0,1-2.411,2.421c-1.782.024-3.569-.071-5.345.03-1.706.1-3.4.362-5.1.587-.551.073-.761.447-.709,1.115.267.012.542.018.817.038a.715.715,0,1,1-.007,1.43c-.262.015-.525,0-.85,0v2.746c0,.433-.008.866,0,1.3a.84.84,0,0,0,.808.907c.781.036,1.565.033,2.347,0,.127-.006.3-.258.355-.427a3.94,3.94,0,0,1,5.721-2.235,3.816,3.816,0,0,1,1.808,2.3c.074.25.152.4.46.4,1.149-.018,2.3-.011,3.448,0,.254,0,.407-.048.4-.352-.011-1.466-.008-2.932-.013-4.4a1.224,1.224,0,0,0-.062-.219h-10.757a4.292,4.292,0,0,1-.548-.018.709.709,0,0,1,.022-1.409c.232-.022.466-.016.7-.016h43.481v-14.575h-1.84c-.217,0-.435.01-.649-.009a.675.675,0,0,1-.673-.674.628.628,0,0,1,.591-.737,23.57,23.57,0,0,1,2.888.037,1.415,1.415,0,0,1,1.175,1.371c.011.132.005.267.005.4q0,10.094,0,20.188c0,1.288-.573,1.867-1.852,1.869-2.182,0-4.364.009-6.546-.008a.537.537,0,0,0-.618.461,3.91,3.91,0,0,1-7.472-.005.54.54,0,0,0-.625-.453q-10.469.013-20.937,0a.541.541,0,0,0-.619.461,3.909,3.909,0,0,1-7.47-.007c-.11-.354-.264-.476-.624-.453-.464.029-.932.007-1.4.007-1.8,0-2.309-.329-3-1.953Zm49.67,2.126h-20.476c-3.446,0-6.893.007-10.339-.008-.425,0-.581.1-.57.553q.046,1.922,0,3.845c-.011.464.132.586.588.584q7.567-.023,15.133,0a.568.568,0,0,0,.666-.468,3.918,3.918,0,0,1,7.483.038.506.506,0,0,0,.588.43c2.148-.015,4.3-.007,6.443-.009.158,0,.316-.022.482-.034Zm-42.133-4.663c1.842,0,3.566.019,5.29-.012.519-.009.791-.362.8-.9.013-1.213,0-2.426.011-3.639,0-.309-.114-.4-.41-.4-.714.014-1.429-.005-2.144.009a1.538,1.538,0,0,0-1.423.773C4553.474,1190.07,4552.8,1191.439,4552.068,1192.9Zm1.207,7.89a2.465,2.465,0,0,0-2.455,2.493,2.467,2.467,0,0,0,4.934-.034A2.442,2.442,0,0,0,4553.274,1200.785Zm27.2,2.455a2.477,2.477,0,0,0,2.466,2.486,2.506,2.506,0,0,0,2.471-2.494,2.474,2.474,0,0,0-2.455-2.447A2.441,2.441,0,0,0,4580.476,1203.24Zm-24.047-16.79h1.735c-.046-.588.2-1.231-.442-1.554a1.1,1.1,0,0,0-.912.044C4556.238,1185.287,4556.453,1185.9,4556.429,1186.45Z" transform="translate(-4544.531 -1180.077)" fill="#1b1464"/>
          <path id="Path_62974" data-name="Path 62974" d="M4603.511,1207.068c-.532,0-1.064.014-1.6,0a1.468,1.468,0,0,1-1.493-1.434,15.873,15.873,0,0,1,0-1.745,1.445,1.445,0,0,1,1.425-1.449q1.693-.057,3.39,0a1.436,1.436,0,0,1,1.417,1.452c.023.581.024,1.164,0,1.745a1.456,1.456,0,0,1-1.443,1.426c-.564.022-1.13,0-1.7,0Zm0-1.444v0h.448c1.365,0,1.358,0,1.268-1.386-.018-.274-.111-.384-.388-.377-.564.012-1.128,0-1.693,0-1.358,0-1.358,0-1.287,1.362,0,.016-.007.04,0,.049.117.117.228.32.357.333C4602.641,1205.651,4603.075,1205.624,4603.507,1205.624Z" transform="translate(-4580.354 -1194.397)" fill="#1b1464"/>
          <path id="Path_62975" data-name="Path 62975" d="M4568.371,1243.406a.717.717,0,0,1-.746.7.741.741,0,0,1-.709-.745.727.727,0,0,1,.754-.692A.712.712,0,0,1,4568.371,1243.406Z" transform="translate(-4558.885 -1220.212)" fill="#1b1464"/>
          <path id="Path_62976" data-name="Path 62976" d="M4649.58,1243.4a.7.7,0,0,1,.7-.732.723.723,0,0,1,.747.7.737.737,0,0,1-.714.739A.715.715,0,0,1,4649.58,1243.4Z" transform="translate(-4611.893 -1220.213)" fill="#1b1464"/>
        </g>
        <g id="Group_44386" data-name="Group 44386" transform="translate(6.499)">
          <path id="Path_62977" data-name="Path 62977" d="M4580.008,1176.03a.282.282,0,0,1-.338-.45l2.042-1.719-2.178-.127,3.23-2.767a.282.282,0,1,1,.367.428l-2.168,1.857,2.2.127-3.127,2.632Z" transform="translate(-4573.475 -1166.423)" fill="#1b1464"/>
          <path id="Path_62978" data-name="Path 62978" d="M4571.589,1167.669a.445.445,0,0,1-.871-.177l.613-4.167-2.705,2.13.918-6.647a.445.445,0,1,1,.881.122l-.616,4.461,2.727-2.148-.938,6.378A.4.4,0,0,1,4571.589,1167.669Z" transform="translate(-4566.48 -1158.423)" fill="#1b1464"/>
          <path id="Path_62979" data-name="Path 62979" d="M4566.556,1181.235a.229.229,0,0,1-.392.237l-1.223-1.8-.283,1.753-1.973-2.845a.229.229,0,1,1,.377-.261l1.324,1.909.285-1.768,1.871,2.75A.159.159,0,0,1,4566.556,1181.235Z" transform="translate(-4562.645 -1171.12)" fill="#1b1464"/>
        </g>
        <g id="Group_44387" data-name="Group 44387" transform="translate(36.528 11.664)">
          <path id="Path_62980" data-name="Path 62980" d="M4654.189,1199.453a4.816,4.816,0,1,1-4.085-8.445q.2-.044.395-.072a4.816,4.816,0,0,0,3.69,8.518Z" transform="translate(-4646.348 -1190.935)" fill="#1b1464"/>
        </g>
      </g>
    </g>
  </g>
</svg>
