<svg xmlns="http://www.w3.org/2000/svg" width="104.795" height="104.795" viewBox="0 0 104.795 104.795">
  <g id="userAvatar" transform="translate(-5025.208 -5489.259)">
    <circle id="Ellipse_1583" data-name="Ellipse 1583" cx="52.398" cy="52.398" r="52.398" transform="translate(5025.208 5489.259)" fill="#e3d535"/>
    <g id="Group_43002" data-name="Group 43002">
      <g id="Group_43001" data-name="Group 43001">
        <path id="Path_58430" data-name="Path 58430" d="M5111.889,5575.938h-5.326a28.662,28.662,0,0,0-10.756-22.426,27.758,27.758,0,0,0-19.549-6.454,28.055,28.055,0,0,0-19.517,8.919,28.563,28.563,0,0,0-8.077,19.921h-5.341a33.827,33.827,0,0,1,6.342-19.809,34.29,34.29,0,0,1,16.675-12.55c-.2-.168-.32-.285-.454-.385a19.485,19.485,0,0,1-7.342-21.195c2.1-7.4,7.07-12.052,14.506-14.025,1.049-.279,2.145-.377,3.218-.559h2.679c1.074.182,2.17.28,3.218.559,7.437,1.974,12.461,6.614,14.489,14.03,2.122,7.757-.036,14.482-5.876,20.007-.574.543-1.219,1.01-1.878,1.551.2.089.331.16.472.212a34.345,34.345,0,0,1,21.981,26.237c.229,1.311.36,2.638.536,3.958Zm-19.821-48.722a14.46,14.46,0,1,0-14.516,14.438A14.505,14.505,0,0,0,5092.068,5527.216Z" fill="#1b1477"/>
      </g>
    </g>
  </g>
</svg>
