<svg xmlns="http://www.w3.org/2000/svg" data-name="Layer 1" viewBox="0 0 64 64"><path d="M48,32.051v-.043a3.967,3.967,0,0,0-2.042-3.422,4.993,4.993,0,0,0-2.988-4.178A11.009,11.009,0,0,0,35,14.426V11a1,1,0,0,0-1-1H33V8h2a1,1,0,0,0,1,1h4a1,1,0,0,0,1-1V4a1,1,0,0,0-1-1H37a1,1,0,0,0-1-1H32a1,1,0,0,0-1,1v7H30a1,1,0,0,0-1,1v3.426a11.009,11.009,0,0,0-7.97,9.982,5,5,0,0,0-2.987,4.163A3.933,3.933,0,0,0,16,31.973v.078A15.007,15.007,0,0,0,2,47V59a1,1,0,0,0,1,1H16v1a1,1,0,0,0,1,1H47a1,1,0,0,0,1-1V60H61a1,1,0,0,0,1-1V47A15.007,15.007,0,0,0,48,32.051ZM37,5h2V7H37ZM33,4h2V6H33ZM12,58H8V48a2,2,0,0,1,4,0Zm4,0H14V48a4,4,0,0,0-8,0V58H4V47A13.017,13.017,0,0,1,16,34.038ZM31,12h2v2H31Zm1,4a9.01,9.01,0,0,1,8.941,8H23.059A9.01,9.01,0,0,1,32,16ZM23,26H41a3.006,3.006,0,0,1,2.829,2H20.171A3.006,3.006,0,0,1,23,26ZM34,60H30V47a2,2,0,0,1,4,0Zm4,0H36V47a4,4,0,0,0-8,0V60H26V44a4,4,0,0,1,4-4h4a4,4,0,0,1,4,4Zm8-27V60H40V44a6.006,6.006,0,0,0-6-6H30a6.006,6.006,0,0,0-6,6V60H18V31.973A2.074,2.074,0,0,1,20.158,30H43.805A2.11,2.11,0,0,1,46,32.008ZM56,58H52V48a2,2,0,0,1,4,0Zm4,0H58V48a4,4,0,0,0-8,0V58H48V34.038A13.017,13.017,0,0,1,60,47Z"/></svg>