<svg xmlns="http://www.w3.org/2000/svg" data-name="Layer 15" viewBox="0 0 59.85 27.84"><path fill="#ffb031" d="M51.82,294.61v17.84a1.43,1.43,0,0,1-1.44,1.44H24.52a4.76,4.76,0,0,0-6.68,0h-9a1.44,1.44,0,0,1-1.44-1.44V294.61a1.45,1.45,0,0,1,1.44-1.44H50.38A1.44,1.44,0,0,1,51.82,294.61Z" transform="translate(-7.4 -293.17)"/><path fill="#ffd41d" d="M52.38,315.2V318H25.86a4.17,4.17,0,0,0,.06-.71,4.73,4.73,0,0,0-.47-2.07Z" transform="translate(-7.4 -293.17)"/><path fill="#bfbfbf" d="M63.76,301.36H55.6a1.73,1.73,0,0,0-1.74,1.73v11.27a4.74,4.74,0,0,1,3.57-1.83,4.81,4.81,0,0,1,4.9,4.28,4.87,4.87,0,0,1-.25,2h.8l3-.59a1.64,1.64,0,0,0,1.33-1.6v-8.5l-1.84-5.59A1.74,1.74,0,0,0,63.76,301.36Zm-5.06,5.89v-3.39a1.21,1.21,0,0,1,1.21-1.21h2.46A1.73,1.73,0,0,1,64.05,304l.73,2.88a1,1,0,0,1-1,1.3H59.58A.88.88,0,0,1,58.7,307.25Z" transform="translate(-7.4 -293.17)"/><path fill="#515151" d="M24.29 315.2a3.73 3.73 0 00-1.5-1.31A3.74 3.74 0 1024.85 318a3.35 3.35 0 00.07-.71A3.69 3.69 0 0024.29 315.2zm-3.11 3.62a1.56 1.56 0 111.55-1.55A1.55 1.55 0 0121.18 318.82zM57.57 313.52a3.82 3.82 0 00-3.68 4.16 3.52 3.52 0 00.32 1.15 3.73 3.73 0 006.79 0 3.68 3.68 0 00.35-1.56A3.75 3.75 0 0057.57 313.52zm0 5.3a1.56 1.56 0 111.55-1.55A1.56 1.56 0 0157.61 318.82z" transform="translate(-7.4 -293.17)"/></svg>