<svg xmlns="http://www.w3.org/2000/svg" width="398.354" height="172.096" viewBox="0 0 398.354 172.096">
  <g id="ambulance" transform="translate(-257.799 -237)">
    <g id="Group_82" data-name="Group 82" transform="translate(257.799 237)" opacity="0.38">
      <g id="Group_55" data-name="Group 55" transform="translate(12.925 3.126)">
        <path id="Path_77" data-name="Path 77" d="M206.915,194.723H333.732a8.081,8.081,0,0,0-8.081-8.081H215a8.081,8.081,0,0,0-8.08,8.081Z" transform="translate(-206.915 -186.642)" fill="#d32f2f"/>
        <path id="Path_78" data-name="Path 78" d="M377.5,194.723h0a8.081,8.081,0,0,0-8.081-8.081H322.13a8.081,8.081,0,0,0-8.08,8.081Z" transform="translate(-244.778 -186.642)" fill="#bc2424"/>
      </g>
      <path id="Path_79" data-name="Path 79" d="M252.442,404.717c0,11.261,2.071,20.418,13.275,20.658.15,0,7.238.005,7.388.005a20.664,20.664,0,1,0,0-41.328c-.149,0-7.237,0-7.386,0C254.514,384.3,252.442,393.454,252.442,404.717Z" transform="translate(-210.081 -253.284)" fill="#181c1a"/>
      <path id="Path_80" data-name="Path 80" d="M349.344,404.717a20.664,20.664,0,1,0,20.663-20.664A20.663,20.663,0,0,0,349.344,404.717Z" transform="translate(-244.328 -253.284)" fill="#161918"/>
      <path id="Path_81" data-name="Path 81" d="M367.313,339.254l-173.973-.008a6.413,6.413,0,0,1-6.413-6.413V204.341a9.451,9.451,0,0,1,9.451-9.451H448.789c3.986,0,9.827,2.629,9.827,8.607V339.245l-91.3.009" transform="translate(-186.926 -186.431)" fill="#d6b927"/>
      <path id="Path_82" data-name="Path 82" d="M563.2,245.906l14.9,44.6a6.413,6.413,0,0,0,2.03,3.018l29.5,24.419a6.415,6.415,0,0,1,2.324,4.941v26.392a6.414,6.414,0,0,1-6.413,6.413H465.992a6.413,6.413,0,0,1-6.413-6.413V247.828a6.414,6.414,0,0,1,6.413-6.413h91.09A6.413,6.413,0,0,1,563.2,245.906Z" transform="translate(-283.287 -202.874)" fill="#e8cd2e"/>
      <path id="Path_83" data-name="Path 83" d="M578.062,404.717a20.664,20.664,0,1,0,20.664-20.664A20.664,20.664,0,0,0,578.062,404.717Z" transform="translate(-325.161 -253.284)" fill="#161918"/>
      <path id="Path_84" data-name="Path 84" d="M396.964,344.4" transform="translate(-261.157 -239.27)" fill="#1ab871"/>
      <g id="Group_56" data-name="Group 56" transform="translate(229.447 45.713)">
        <path id="Path_85" data-name="Path 85" d="M597.583,284.159l-8.122-25.491c-.936-3.341-2.8-6.163-6.34-6.163H548.036c-3.543,0-7.132,3.652-6.053,7.518L550.142,285c1.28,4.514,3.3,5.986,6.838,5.986H591.3C594.843,290.987,598.6,288.274,597.583,284.159Z" transform="translate(-541.787 -252.506)" fill="#a2d0f2"/>
        <path id="Path_86" data-name="Path 86" d="M581.506,252.506,552.34,282.974l-2.46-7.529,22.495-22.939Z" transform="translate(-544.647 -252.506)" fill="#f1efe3" opacity="0.5"/>
        <path id="Path_87" data-name="Path 87" d="M590.491,253.18s-34.131,34.339-34.555,34.695a9.2,9.2,0,0,1-.943-2.306s32.347-32.821,32.629-33.041A5.527,5.527,0,0,1,590.491,253.18Z" transform="translate(-546.454 -252.51)" fill="#f1efe3" opacity="0.5"/>
      </g>
      <path id="Path_88" data-name="Path 88" d="M353.547,328.816a10.425,10.425,0,0,1-10.426,10.438l-149.781-.008a6.413,6.413,0,0,1-6.413-6.413V204.039a9.149,9.149,0,0,1,9.149-9.149h146.9A10.426,10.426,0,0,1,353.4,205.3Z" transform="translate(-186.926 -186.431)" fill="#fae436"/>
      <g id="Group_59" data-name="Group 59" transform="translate(176.292 38.541)">
        <path id="Path_89" data-name="Path 89" d="M459.582,354.306h83.494V322.384a6.413,6.413,0,0,0-1.714-4.364l-22.886-24.645a6.418,6.418,0,0,1-1.419-2.442l-14.138-45a6.449,6.449,0,0,0-6.152-4.516H466.819a7.24,7.24,0,0,0-7.24,7.24V355.689" transform="translate(-459.579 -241.415)" fill="#fae436"/>
        <g id="Group_57" data-name="Group 57" transform="translate(9.957 58.46)">
          <path id="Path_90" data-name="Path 90" d="M482.057,335.032H476.58a1.6,1.6,0,1,1,0-3.2h5.477a1.6,1.6,0,1,1,0,3.2Z" transform="translate(-474.978 -331.829)" fill="#1d1a37"/>
        </g>
        <g id="Group_58" data-name="Group 58" transform="translate(7.119 7.192)">
          <path id="Path_91" data-name="Path 91" d="M509.543,283.484,502.2,258.632c-1.113-3.874-3.2-6.091-6.74-6.091H477a6.414,6.414,0,0,0-6.413,6.415l.012,25.654a6.414,6.414,0,0,0,6.413,6.411h26.473C507.029,291.022,510.17,287.388,509.543,283.484Z" transform="translate(-470.59 -252.539)" fill="#a2d0f2"/>
          <path id="Path_92" data-name="Path 92" d="M490.988,252.541l-20.4,29.1v-7.849l14.817-21.251Z" transform="translate(-470.59 -252.539)" fill="#f1efe3" opacity="0.5"/>
          <path id="Path_93" data-name="Path 93" d="M500.146,252.955c-26.551,35.171-27.271,35.516-26.44,34.818a6.933,6.933,0,0,1-.8-2.454s24.436-32.492,24.667-32.778A6.452,6.452,0,0,1,500.146,252.955Z" transform="translate(-471.41 -252.538)" fill="#f1efe3" opacity="0.5"/>
        </g>
      </g>
      <path id="Path_94" data-name="Path 94" d="M193.3,374.491H353.547V330.115s-84,11.452-166.621-35.521v73.527A6.37,6.37,0,0,0,193.3,374.491Z" transform="translate(-186.926 -221.668)" fill="#e53f37"/>
      <path id="Path_95" data-name="Path 95" d="M527.526,336.783s13.009,14.091,13.526,14.61a11.353,11.353,0,0,1,1.752,2.441h-.012a2.152,2.152,0,0,1,.283,1.054v29.736h-83.5V345.152C507.97,343.862,527.526,336.783,527.526,336.783Z" transform="translate(-283.287 -236.578)" fill="#e53f37"/>
      <g id="Group_60" data-name="Group 60" transform="translate(204.045 25.671)">
        <path id="Path_96" data-name="Path 96" d="M509.916,231.307H550.43a9.716,9.716,0,0,0-9.716-9.716H519.632a9.716,9.716,0,0,0-9.716,9.716Z" transform="translate(-505.121 -221.538)" fill="#e53f37"/>
        <path id="Path_97" data-name="Path 97" d="M529.427,231.278a9.769,9.769,0,1,0-19.538,0" transform="translate(-505.112 -221.509)" fill="#d32f2f"/>
        <rect id="Rectangle_67" data-name="Rectangle 67" width="50.804" height="4.429" rx="2.214" transform="translate(50.804 12.871) rotate(180)" fill="#8e9494"/>
      </g>
      <g id="Group_61" data-name="Group 61" transform="translate(0 8.459)">
        <path id="Path_98" data-name="Path 98" d="M458.616,203.5c0-5.978-5.841-8.607-9.827-8.607H196.377a9.451,9.451,0,0,0-9.451,9.451Z" transform="translate(-186.926 -194.89)" fill="#d32f2f"/>
        <path id="Path_99" data-name="Path 99" d="M186.926,204.039a9.149,9.149,0,0,1,9.149-9.149h146.9a10.427,10.427,0,0,1,10.319,8.934" transform="translate(-186.926 -194.89)" fill="#e53f37"/>
      </g>
      <g id="Group_62" data-name="Group 62" transform="translate(51.128 26.808)">
        <text id="AMBULANCE-2" data-name="AMBULANCE" transform="translate(30.233 34.536)" fill="#e53f37" font-size="8" font-family="Montserrat-Regular, Montserrat"><tspan x="-26.908" y="0">AMBULANCE</tspan></text>
        <path id="Path_100" data-name="Path 100" d="M320.656,230.035l-2.9-4.008-5.4,3.9v-6.661h-4.946v6.661l-5.4-3.9-2.9,4.008,6.548,4.734-6.548,4.734,2.9,4.008,5.4-3.9v6.661h4.946v-6.661l5.4,3.9,2.9-4.008-6.548-4.734Z" transform="translate(-277.704 -223.268)" fill="#e53f37"/>
        <text id="_9999" data-name="9999" transform="translate(0.074 59.639)" fill="#e53f37" font-size="25" font-family="Montserrat-Bold, Montserrat" font-weight="700"><tspan x="0" y="0">9999</tspan></text>
      </g>
      <g id="Group_63" data-name="Group 63" transform="translate(6.078 120.486)">
        <path id="Path_101" data-name="Path 101" d="M414.331,390.559l11.2-11.2-11.2-11.2" transform="translate(-273.373 -368.151)" fill="none" stroke="#fae436" stroke-miterlimit="10" stroke-width="10.453"/>
        <path id="Path_102" data-name="Path 102" d="M383.187,390.559l11.2-11.2-11.2-11.2" transform="translate(-262.366 -368.151)" fill="none" stroke="#fae436" stroke-miterlimit="10" stroke-width="10.453"/>
        <path id="Path_103" data-name="Path 103" d="M352.043,390.559l11.2-11.2-11.2-11.2" transform="translate(-251.359 -368.151)" fill="none" stroke="#fae436" stroke-miterlimit="10" stroke-width="10.453"/>
        <path id="Path_104" data-name="Path 104" d="M320.9,390.559l11.2-11.2-11.2-11.2" transform="translate(-240.352 -368.151)" fill="none" stroke="#fae436" stroke-miterlimit="10" stroke-width="10.453"/>
        <path id="Path_105" data-name="Path 105" d="M289.756,390.559l11.2-11.2-11.2-11.2" transform="translate(-229.346 -368.151)" fill="none" stroke="#fae436" stroke-miterlimit="10" stroke-width="10.453"/>
        <path id="Path_106" data-name="Path 106" d="M258.613,390.559l11.2-11.2-11.2-11.2" transform="translate(-218.339 -368.151)" fill="none" stroke="#fae436" stroke-miterlimit="10" stroke-width="10.453"/>
        <path id="Path_107" data-name="Path 107" d="M227.469,390.559l11.2-11.2-11.2-11.2" transform="translate(-207.332 -368.151)" fill="none" stroke="#fae436" stroke-miterlimit="10" stroke-width="10.453"/>
        <path id="Path_108" data-name="Path 108" d="M196.326,390.559l11.2-11.2-11.2-11.2" transform="translate(-196.326 -368.151)" fill="none" stroke="#fae436" stroke-miterlimit="10" stroke-width="10.453"/>
      </g>
      <g id="Group_65" data-name="Group 65" transform="translate(119.017 44.969)">
        <rect id="Rectangle_68" data-name="Rectangle 68" width="36.85" height="89.935" transform="translate(36.85 89.935) rotate(180)" fill="none" stroke="#606060" stroke-miterlimit="10" stroke-width="4"/>
        <g id="Group_64" data-name="Group 64" transform="translate(3.804 40.627)">
          <path id="Path_109" data-name="Path 109" d="M380.084,315.791v5.477a1.6,1.6,0,0,1-3.2,0v-5.477a1.6,1.6,0,1,1,3.2,0Z" transform="translate(-376.88 -314.189)" fill="#1d1a37"/>
        </g>
      </g>
      <g id="Group_67" data-name="Group 67" transform="translate(8.971 44.969)">
        <rect id="Rectangle_69" data-name="Rectangle 69" width="36.85" height="89.935" transform="translate(36.85 89.935) rotate(180)" fill="none" stroke="#606060" stroke-miterlimit="10" stroke-width="4"/>
        <g id="Group_66" data-name="Group 66" transform="translate(3.804 40.627)">
          <path id="Path_110" data-name="Path 110" d="M209.887,315.791v5.477a1.6,1.6,0,0,1-3.2,0v-5.477a1.6,1.6,0,1,1,3.2,0Z" transform="translate(-206.683 -314.189)" fill="#1d1a37"/>
        </g>
      </g>
      <g id="Group_69" data-name="Group 69" transform="translate(30.204 130.769)">
        <path id="Path_111" data-name="Path 111" d="M238.137,404.717h-4.5A20.664,20.664,0,0,1,254.3,384.053h4.5a20.664,20.664,0,0,0-20.663,20.664v1.391h-4.5v-1.391" transform="translate(-233.639 -384.053)" fill="#373f3e"/>
        <g id="Group_68" data-name="Group 68" transform="translate(4.214)">
          <path id="Path_112" data-name="Path 112" d="M240.157,404.717a20.664,20.664,0,1,0,20.664-20.664A20.664,20.664,0,0,0,240.157,404.717Z" transform="translate(-240.157 -384.053)" fill="#1d2220"/>
          <ellipse id="Ellipse_10" data-name="Ellipse 10" cx="12.721" cy="12.721" rx="12.721" ry="12.721" transform="translate(5.352 11.221) rotate(-13.34)" fill="#8e9494"/>
          <path id="Path_113" data-name="Path 113" d="M265.159,413.553a4.5,4.5,0,1,0,4.5-4.5A4.5,4.5,0,0,0,265.159,413.553Z" transform="translate(-248.993 -392.889)" fill="#373f3e"/>
        </g>
      </g>
      <line id="Line_1" data-name="Line 1" x1="10.595" transform="translate(153.739 8.459)" fill="#fff"/>
      <g id="Group_70" data-name="Group 70" transform="translate(105.996)">
        <path id="Path_114" data-name="Path 114" d="M350.859,190.266H483.618a8.459,8.459,0,0,0-8.459-8.459h-90.8a8.459,8.459,0,0,0-8.459,8.459Z" transform="translate(-350.859 -181.807)" fill="#bfd8db"/>
        <path id="Path_115" data-name="Path 115" d="M529.439,190.266h0a8.459,8.459,0,0,0-8.459-8.459H471.473a8.459,8.459,0,0,0-8.459,8.459Z" transform="translate(-390.497 -181.807)" fill="#fff"/>
      </g>
      <path id="Path_116" data-name="Path 116" d="M459.579,394.874H611.955v13.209a1.841,1.841,0,0,1-1.841,1.84H459.579Z" transform="translate(-283.287 -257.109)" fill="#8e9494"/>
      <g id="Group_73" data-name="Group 73" transform="translate(187.084 130.769)">
        <path id="Path_117" data-name="Path 117" d="M495.073,404.717c0,11.261,2.071,20.418,13.274,20.658.15,0,7.238.005,7.389.005a20.664,20.664,0,0,0,0-41.328c-.15,0-7.237,0-7.387,0C497.145,384.3,495.073,393.454,495.073,404.717Z" transform="translate(-482.915 -384.053)" fill="#181c1a"/>
        <g id="Group_72" data-name="Group 72">
          <path id="Path_118" data-name="Path 118" d="M480.767,404.717h-4.5a20.664,20.664,0,0,1,20.663-20.664h4.5a20.664,20.664,0,0,0-20.663,20.664v1.391h-4.5v-1.391" transform="translate(-476.269 -384.053)" fill="#373f3e"/>
          <g id="Group_71" data-name="Group 71" transform="translate(4.215)">
            <path id="Path_119" data-name="Path 119" d="M482.788,404.717a20.664,20.664,0,1,0,20.663-20.664A20.663,20.663,0,0,0,482.788,404.717Z" transform="translate(-482.788 -384.053)" fill="#1d2220"/>
            <path id="Path_120" data-name="Path 120" d="M495.073,409.058a12.721,12.721,0,1,0,12.72-12.72A12.72,12.72,0,0,0,495.073,409.058Z" transform="translate(-487.13 -388.395)" fill="#8e9494"/>
            <path id="Path_121" data-name="Path 121" d="M507.789,413.553a4.5,4.5,0,1,0,4.5-4.5A4.5,4.5,0,0,0,507.789,413.553Z" transform="translate(-491.624 -392.889)" fill="#373f3e"/>
          </g>
        </g>
      </g>
      <path id="Path_122" data-name="Path 122" d="M564.666,336.783h64.011l18.094,14.864a6.752,6.752,0,0,1,2.324,4.941c-14.574,1.777-68.879,2.937-68.879-.256a6.182,6.182,0,0,0-1.783-4.543Z" transform="translate(-320.426 -236.578)" fill="#d32f2f"/>
      <path id="Rectangle_70" data-name="Rectangle 70" d="M4.269,0H64.61a4.269,4.269,0,0,1,4.269,4.269V31.553a4.269,4.269,0,0,1-4.269,4.269H0a0,0,0,0,1,0,0V4.269A4.269,4.269,0,0,1,4.269,0Z" transform="translate(259.789 116.993)" fill="#d32f2f"/>
      <path id="Path_123" data-name="Path 123" d="M588.715,409.923h67.038a1.841,1.841,0,0,0,1.841-1.84V394.874H588.715" transform="translate(-328.926 -257.109)" fill="#373f3e"/>
      <g id="Group_76" data-name="Group 76" transform="translate(313.072 124.402)">
        <g id="Group_74" data-name="Group 74" transform="translate(0 16.905)">
          <rect id="Rectangle_71" data-name="Rectangle 71" width="11.674" height="4.688" rx="2.044" transform="translate(11.674 4.688) rotate(180)" fill="#cc2e2e"/>
          <rect id="Rectangle_72" data-name="Rectangle 72" width="11.674" height="4.688" rx="2.044" transform="translate(13.479 4.688) rotate(180)" fill="#e53f37"/>
        </g>
        <g id="Group_75" data-name="Group 75">
          <rect id="Rectangle_73" data-name="Rectangle 73" width="11.674" height="10.777" rx="2.044" transform="translate(11.674 10.777) rotate(180)" fill="#f4eaea"/>
          <rect id="Rectangle_74" data-name="Rectangle 74" width="11.674" height="10.777" rx="2.044" transform="translate(13.479 10.777) rotate(180)" fill="#fff"/>
        </g>
      </g>
      <g id="Group_79" data-name="Group 79" transform="translate(268.422 124.402)">
        <g id="Group_77" data-name="Group 77" transform="translate(0 16.905)">
          <rect id="Rectangle_75" data-name="Rectangle 75" width="11.674" height="4.688" rx="2.044" transform="translate(11.674 4.688) rotate(180)" fill="#cc2e2e"/>
          <rect id="Rectangle_76" data-name="Rectangle 76" width="11.674" height="4.688" rx="2.044" transform="translate(13.479 4.688) rotate(180)" fill="#e53f37"/>
        </g>
        <g id="Group_78" data-name="Group 78">
          <rect id="Rectangle_77" data-name="Rectangle 77" width="11.674" height="10.777" rx="2.044" transform="translate(11.674 10.777) rotate(180)" fill="#f4eaea"/>
          <rect id="Rectangle_78" data-name="Rectangle 78" width="11.674" height="10.777" rx="2.044" transform="translate(13.479 10.777) rotate(180)" fill="#fff"/>
        </g>
      </g>
      <g id="Group_81" data-name="Group 81" transform="translate(286.058 125.223)">
        <rect id="Rectangle_79" data-name="Rectangle 79" width="22.192" height="16.084" rx="4.849" transform="translate(22.192 16.084) rotate(180)" fill="#373f3e"/>
        <g id="Group_80" data-name="Group 80" transform="translate(2.529 3.319)">
          <line id="Line_2" data-name="Line 2" x1="17.134" fill="none" stroke="#8e9494" stroke-linecap="round" stroke-linejoin="round" stroke-width="2"/>
          <line id="Line_3" data-name="Line 3" x1="17.134" transform="translate(0 3.149)" fill="none" stroke="#8e9494" stroke-linecap="round" stroke-linejoin="round" stroke-width="2"/>
          <line id="Line_4" data-name="Line 4" x1="17.134" transform="translate(0 6.298)" fill="none" stroke="#8e9494" stroke-linecap="round" stroke-linejoin="round" stroke-width="2"/>
          <line id="Line_5" data-name="Line 5" x1="17.134" transform="translate(0 9.447)" fill="none" stroke="#8e9494" stroke-linecap="round" stroke-linejoin="round" stroke-width="2"/>
        </g>
      </g>
    </g>
    <g id="Group_90" data-name="Group 90" transform="translate(598.455 280)" opacity="0.38">
      <path id="Path_124" data-name="Path 124" d="M133.7,412.652c-.833-.335-2.108-.153-4.4.063-4.379.413-12.544,2.088-13.734,1.4s-3.3-18.423-3.3-18.423l11.153-.744s-1.563,11.362-1.563,11.776,3.316-1.228,7.867.482c.667.251,4.214.882,4.214.882a8.66,8.66,0,0,1,.363,2.146A8.144,8.144,0,0,1,133.7,412.652Z" transform="translate(-91.193 -306.795)" fill="#fdeeeb"/>
      <path id="Path_125" data-name="Path 125" d="M109.644,381.13a50.616,50.616,0,0,0,12.392,7.807s7.828-6.539,7.828-14.462-.992-9.634-.992-9.634-14.1,4.936-19.959,4.936-7.023.021-7.023.021,1,9.106,1.37,11.549a46.508,46.508,0,0,0,2.41,8.673l2.12-5.449Z" transform="translate(-87.529 -296.155)" fill="#fdeeeb"/>
      <path id="Path_126" data-name="Path 126" d="M141.614,413.369a1.122,1.122,0,0,0-.206-.08l.028-.048s-11.514-3.7-20.327-1.719c.389.863,1.669,9.659,1.669,9.659l14.284-2.492c.738,1.189,3.016,4.8,3.7,5.158.823.435.9-.965,1.24-2.473S142.44,413.8,141.614,413.369Z" transform="translate(-94.321 -312.445)" fill="#eace28"/>
      <g id="Group_83" data-name="Group 83" transform="translate(0 46.408)">
        <path id="Path_127" data-name="Path 127" d="M80.772,331.068c.927-.822,2.844-.078,3.191.131s.751,2.864.751,2.864h0c1.077.729,3.005,1.888,5.175,3.151a2.532,2.532,0,0,1,.852,3.567h0a2.531,2.531,0,0,1-3.79.522c-1.544-1.351-3.032-2.725-4.008-3.547a13.468,13.468,0,0,1-2.892-3.063A2.85,2.85,0,0,1,80.772,331.068Z" transform="translate(-79.679 -330.493)" fill="#58a9db"/>
        <path id="Path_128" data-name="Path 128" d="M84,334.873a4.249,4.249,0,0,1-1.2,1.606c-.658.38-2.275-.392-2.275-.392a5.1,5.1,0,0,0,1.8.875c1.624,0,2.266-2.923,2.266-2.923Z" transform="translate(-79.976 -331.677)" fill="#070707" opacity="0.11"/>
        <path id="Path_129" data-name="Path 129" d="M86.34,333.966c.888.268,2.083,1.021,2.6-.189a33.812,33.812,0,0,0,1.11-3.393s3.492,3.629,6.12,3.629c0,0-2.589,8.67-4.651,8.832s-7.609-5.5-7.609-5.5S86.208,335.008,86.34,333.966Z" transform="translate(-81.174 -330.385)" fill="#fdeeeb"/>
      </g>
      <path id="Path_130" data-name="Path 130" d="M94.212,288.611l-4.637-3.924.395,2.42,2.7,2.6Z" transform="translate(-83.176 -267.826)" fill="#2d4870"/>
      <g id="Group_88" data-name="Group 88" transform="translate(6.064)">
        <g id="Group_87" data-name="Group 87" transform="translate(0.375 1.626)">
          <g id="Group_85" data-name="Group 85" transform="translate(0.256 0.89)">
            <path id="Path_131" data-name="Path 131" d="M110.5,262.579a23.644,23.644,0,0,1,5.765,2.392c3.026,1.766,6.195,4.639,6.621,9.031a18.806,18.806,0,0,1-.642,7.215c-1.629,5.444-5.935,9.677-12.782,10.964-4.832.908-10.064.243-13.955-2.615s-6.22-8.923-5.253-13.975a14.076,14.076,0,0,1,6.876-10.07C100.715,263.185,105.349,262.2,110.5,262.579Z" transform="translate(-90.033 -262.502)" fill="#824838"/>
            <g id="Group_84" data-name="Group 84" transform="translate(10.999 14.059)">
              <path id="Path_132" data-name="Path 132" d="M108.781,288.538l-.029,0a4.7,4.7,0,0,1-.72-.117,1.239,1.239,0,0,1-.946-.775,1.315,1.315,0,0,1,.366-1.241,3.346,3.346,0,0,0,.462-1.825.327.327,0,0,1,.32-.334h.006a.327.327,0,0,1,.328.319,4.031,4.031,0,0,1-.609,2.253c-.2.252-.3.482-.249.631s.222.261.5.341a4.2,4.2,0,0,0,.6.094.327.327,0,0,1-.028.654Z" transform="translate(-107.044 -284.245)" fill="#070707" opacity="0.21"/>
            </g>
            <path id="Path_133" data-name="Path 133" d="M98.9,285.079c-.025.668.339,1.224.811,1.241s.875-.51.9-1.179-.339-1.223-.811-1.241S98.928,284.412,98.9,285.079Z" transform="translate(-93.168 -270.064)" fill="#0e251f"/>
            <path id="Path_134" data-name="Path 134" d="M119.293,285.866c-.025.668.339,1.223.811,1.241s.875-.511.9-1.179-.339-1.223-.811-1.241S119.317,285.2,119.293,285.866Z" transform="translate(-100.374 -270.342)" fill="#0e251f"/>
            <path id="Path_135" data-name="Path 135" d="M120.872,291.734a2.957,2.957,0,1,0,2.9-3.01A2.957,2.957,0,0,0,120.872,291.734Z" transform="translate(-100.932 -271.769)" fill="#070707" opacity="0.07"/>
            <path id="Path_136" data-name="Path 136" d="M92.279,292.866a2.957,2.957,0,1,0-.368-5.6,18.886,18.886,0,0,0,.014,3.321C92.107,291.958,92.279,292.866,92.279,292.866Z" transform="translate(-90.672 -271.177)" fill="#070707" opacity="0.07"/>
          </g>
          <g id="Group_86" data-name="Group 86">
            <path id="Path_137" data-name="Path 137" d="M96.485,262.234c.2-.2.57.061.857.061,3.448,0,12.619-2.435,18.024-.28a14.744,14.744,0,0,1,8.913,13.332c0,5.444-3.654,10.309-5.065,10.826,1.311-2.27,1.578-5.175.37-4.247a7.443,7.443,0,0,0-2.078,3.7s-3.184-.067-2.141-1.11,2.329-8.534-.823-9.328c-8.416-2.12-16.353-9.57-21.408-2.829-4.143,5.525-1.078,12.943-1.078,12.943-4.787-5.079-1-14.313-1-14.313S93.373,265.345,96.485,262.234Z" transform="translate(-89.637 -261.125)" fill="#0e251f"/>
          </g>
          <path id="Path_138" data-name="Path 138" d="M113.878,292.454l7-1.57v2.235l-5.171,1.365Z" transform="translate(-98.204 -271.643)" fill="#2d4870"/>
          <path id="Path_139" data-name="Path 139" d="M96.15,290.929l-5.037-3.391V290l4.445,3.136Z" transform="translate(-90.159 -270.46)" fill="#2d4870"/>
          <path id="Path_140" data-name="Path 140" d="M104.471,287.125c-1.788-1.126-3.431-.119-4.434.46s-6,4.549-7.052,4.549A6.46,6.46,0,0,1,95,296.7s4.119,5.008,9.566,4.413c5.119-.559,7.862-1.15,7.862-1.15a36.824,36.824,0,0,1-.722-5.239S106.707,288.535,104.471,287.125Z" transform="translate(-90.82 -270.134)" fill="#58a9db"/>
        </g>
        <path id="Path_141" data-name="Path 141" d="M96.735,295.781a5.805,5.805,0,0,0,2.247.085,5.225,5.225,0,0,0,.927-.19c3.684-.253,10.031-.773,13.6-.773,4.9,0,12.277-4.89,11.66-18.222-.328-7.092-3.618-18.07-14.364-18.07s-18.658.89-20.714,8.052S88.477,292.635,96.735,295.781Zm-4.014-22.7c1.2-6.832,2.972-8.646,6.5-9.54s9.044.159,11.581,4.588c3.254,5.681,3.178,17.628-7.3,21.325a6.049,6.049,0,0,1-6.832-1.616S91.4,280.632,92.721,273.085Z" transform="translate(-89.056 -258.611)" fill="#fdeeeb"/>
      </g>
      <path id="Path_142" data-name="Path 142" d="M123.771,407.658l-4.658,4.177s.767,4.924.308,5.72l-1.561.032-.976-6.866,7.335-6.365Z" transform="translate(-92.828 -310.12)" fill="#30211e" opacity="0.1"/>
      <path id="Path_143" data-name="Path 143" d="M126.145,353.124c-.148-1.624-.182-6.54-.182-6.54l-5.713-23.75s6.036-4.318,5.686-4.924-1.294-2.608-5.32-4.445a18.453,18.453,0,0,0-8.142-1.279,18.455,18.455,0,0,0-4.842.286c-3.014.58-4.909.992-4.909.992l-3.792,2.267c-3.62,2.164-4.634,6.392-5.524,8.2.3,1.972,5.751,3.825,5.751,3.825l-.266,23.411c.493.31,4.984,16.474,4.984,16.474-2.319,4.016-2.742,8.741-2.742,12.164,0,1.735-2.643,20.25-2.643,20.25a8.606,8.606,0,0,0,4.3,1.569c0-1.239,5.286-8.436,6.691-12.815s.413-8.592.413-9.584,5.815-5.589,9.145-8.92C122.256,367.093,127.033,362.867,126.145,353.124Z" transform="translate(-84.53 -277.528)" fill="#fdeeeb"/>
      <path id="Path_144" data-name="Path 144" d="M110.277,423.8c-1.068.1-10.956-1.77-10.956-1.77L96.58,439.179c-1.706.461-4.911,1.373-5.391,1.853-.658.658.658,1.14,2,1.913s7.1,2.644,7.765,1.983a1.321,1.321,0,0,0,.189-.258C102.366,442.97,109.256,433.058,110.277,423.8Z" transform="translate(-83.685 -316.367)" fill="#eace28"/>
      <path id="Path_145" data-name="Path 145" d="M111.63,317.214s8.34-1.165,12.127-3.352l-1.629-.6a31.878,31.878,0,0,1-12.42,2.749c-4.472-.108-6.048-.829-6.048-.829L102.3,316a23.533,23.533,0,0,0,7.488,1.219,274.708,274.708,0,0,0,1.388,39.936l-6.238,12.144.66,1.913,2.339-4.866,4.77-8.855C110.333,327.378,111.63,317.214,111.63,317.214Z" transform="translate(-87.672 -277.925)" fill="#30211e" opacity="0.1"/>
      <path id="Path_146" data-name="Path 146" d="M102.035,331.073l-.457,4.807-.941,2.51Z" transform="translate(-87.085 -284.22)" fill="#30211e" opacity="0.1"/>
      <path id="Path_147" data-name="Path 147" d="M133.627,334.184l1.311,5.7,2.1,8.84-3.455,2.014-4.841-.086,4.672-10.266Z" transform="translate(-97.018 -285.32)" fill="#30211e" opacity="0.1"/>
      <g id="Group_89" data-name="Group 89" transform="translate(19.226 67.577)">
        <path id="Path_148" data-name="Path 148" d="M124,375.9l-1.9-6.774a2.662,2.662,0,0,1,1.843-3.282l9.329-2.621a2.662,2.662,0,0,1,3.283,1.843l1.9,6.773" transform="translate(-113.861 -363.126)" fill="none" stroke="#e53f37" stroke-miterlimit="10" stroke-width="3.478"/>
        <rect id="Rectangle_80" data-name="Rectangle 80" width="33.354" height="23.519" rx="6.153" transform="translate(0 10.589) rotate(-15.692)" fill="#e53f37"/>
        <path id="Path_149" data-name="Path 149" d="M140.49,381.983l-3.47.975a.318.318,0,0,1-.392-.22l-.975-3.469a.318.318,0,0,0-.392-.22l-3.177.892a.318.318,0,0,0-.22.392l.975,3.47a.318.318,0,0,1-.22.392l-3.469.975a.318.318,0,0,0-.22.392l.892,3.177a.319.319,0,0,0,.392.22l3.469-.975a.319.319,0,0,1,.392.22l.974,3.469a.318.318,0,0,0,.392.22L138.62,391a.318.318,0,0,0,.22-.392l-.974-3.469a.318.318,0,0,1,.22-.392l3.47-.974a.318.318,0,0,0,.22-.392l-.892-3.177A.318.318,0,0,0,140.49,381.983Z" transform="translate(-116.307 -368.749)" fill="#fdeeeb"/>
      </g>
      <path id="Path_150" data-name="Path 150" d="M133.546,362.733c.1,1.772-3.223,4.675-4.831,3.241s-2.108-2.043-1.1-4.046a17.3,17.3,0,0,0,.545-2.27l4.841.086a9.055,9.055,0,0,1,.223,1.338A11.4,11.4,0,0,0,133.546,362.733Z" transform="translate(-96.436 -294.323)" fill="#58a9db"/>
      <path id="Path_151" data-name="Path 151" d="M128.74,345.422c2.241-3.752,7.057-12.286,7.057-12.286s-3.274-6.393-3.732-7.041a6.64,6.64,0,0,1,5.546-6.719c3.979,5.052,4.937,13.618,5.226,14.88.48,2.1-9.037,11.13-9.255,11.252" transform="translate(-97.018 -280.086)" fill="#fdeeeb"/>
    </g>
  </g>
</svg>
