<svg id="Group_4355" data-name="Group 4355" xmlns="http://www.w3.org/2000/svg" width="24" height="24" viewBox="0 0 24 24">
  <rect id="Rectangle_1895" data-name="Rectangle 1895" width="24" height="24" rx="4" fill="#ddde40"/>
  <path id="Path_888" data-name="Path 888" d="M251.9,250.237a.991.991,0,0,0-1.346-.14,1.742,1.742,0,0,0-.517.868c-.07.2-.141.4-.216.594-.188.5-.381.988-.576,1.481-.1.256-.2.512-.306.766-.481,1.159-1.49,4.5-1.806,5.449-.155-.683-.484-1.626-.638-2.067l-.434-1.241c-.07-.2-.134-.4-.21-.6-.115-.3-.162-.61-.435-.779a.921.921,0,0,0-.733-.136.691.691,0,0,0-.307.2c-.324.308-.189.837-.07,1.214.195.614.384,1.288.579,1.9.239.754.483,1.448.723,2.2l.351,1.106.01-.009a1.223,1.223,0,0,0,2.253.182c.035-.009.065-.1.079-.124.053-.108.1-.22.144-.331.158-.386.3-.777.447-1.169.06-.162.117-.325.176-.487.051-.127.094-.244.125-.341l.145-.37.377-.963.523-1.337.584-1.493.56-1.43.449-1.148.124-.317a2,2,0,0,0,.219-.773,1.19,1.19,0,0,0-.272-.711" transform="translate(-236.17 -243.897)" fill="#1a51a0"/>
</svg>
