<svg id="create" xmlns="http://www.w3.org/2000/svg" width="50.21" height="50.22" viewBox="0 0 50.21 50.22">
  <path id="Path_38180" data-name="Path 38180" d="M48.71,50.22H5.4A5.4,5.4,0,0,1,0,44.82V1.5a1.5,1.5,0,1,1,3,0V44.82a2.4,2.4,0,0,0,2.4,2.4H48.71a1.5,1.5,0,0,1,0,3Z" fill="#f5f7f9"/>
  <rect id="Rectangle_17615" data-name="Rectangle 17615" width="9.89" height="6.66" rx="2.26" transform="translate(42.47 0.754) rotate(45)" fill="#9ce9fd"/>
  <path id="Path_38181" data-name="Path 38181" d="M33.01,10.22,15.66,27.57a2.19,2.19,0,0,0-.65,1.57v4.34a1.73,1.73,0,0,0,1.73,1.73h4.34a2.25,2.25,0,0,0,1.57-.65L40,17.21a2.22,2.22,0,0,0,0-3.13l-3.86-3.86a2.22,2.22,0,0,0-3.13,0Z" fill="#f5f7f9"/>
  <path id="Path_38182" data-name="Path 38182" d="M31.19,36.71h-24a1.5,1.5,0,0,1,0-3h24a1.5,1.5,0,1,1,0,3Z" fill="#dad754"/>
</svg>
