<?xml version="1.0" encoding="utf-8"?>
<!-- Generator: Adobe Illustrator 16.0.0, SVG Export Plug-In . SVG Version: 6.00 Build 0)  -->
<!DOCTYPE svg PUBLIC "-//W3C//DTD SVG 1.1//EN" "http://www.w3.org/Graphics/SVG/1.1/DTD/svg11.dtd">
<svg version="1.1" id="Layer_1" xmlns="http://www.w3.org/2000/svg" xmlns:xlink="http://www.w3.org/1999/xlink" x="0px" y="0px"
	 width="250px" height="60px" viewBox="0 0 250 60" enable-background="new 0 0 250 60" xml:space="preserve">
<text transform="matrix(1 0 0 1 71.2002 42.7354)" font-family="'Georgia'" font-size="40" letter-spacing="1">eService</text>
<g>
	<linearGradient id="SVGID_1_" gradientUnits="userSpaceOnUse" x1="39.27" y1="75.2119" x2="39.27" y2="-8.6646">
		<stop  offset="0" style="stop-color:#B403F4"/>
		<stop  offset="1" style="stop-color:#26C2BF"/>
	</linearGradient>
	<path fill="url(#SVGID_1_)" d="M62.613,21.01c-1.31,3.882-9.136,23.489-32.47,19.028v2.514l-9.196-5.984l9.196-5.977v4.049
		c0,0,13.771,2.645,22.257-3.91c5.033-3.874,6.14-10.909,2.901-16.396C51.069,7.142,42.457,3.857,35.54,3.857
		c-13.204,0-23.939,10.695-24.194,23.987c-0.255,13.719,8.21,24.958,24.734,24.958c23.631,0,29.127-22.902,31.12-29.527
		L62.613,21.01z M35.54,14.224c5.517,0,10.004,4.539,10.004,10.118c0,0.827-0.1,1.648-0.286,2.436h-19.42
		c-0.195-0.787-0.294-1.609-0.294-2.436C25.544,18.763,30.022,14.224,35.54,14.224z"/>
	<linearGradient id="SVGID_2_" gradientUnits="userSpaceOnUse" x1="38.8208" y1="47.959" x2="33.1654" y2="38.1235">
		<stop  offset="0" style="stop-color:#22039A"/>
		<stop  offset="1" style="stop-color:#26C2BF;stop-opacity:0"/>
	</linearGradient>
	<path opacity="0.42" fill="url(#SVGID_2_)" d="M52.543,36.208c-8.188,8.418-19.049,13.078-27.125,14.709
		c-4.229-1.674-7.527-4.385-9.857-7.795c0.7-1.01,1.371-1.811,1.764-2.047c0.796-0.486,4.717-1.182,8.236-1.504l4.583,2.98v-2.514
		c8.923,1.707,15.582-0.107,20.472-3.217C51.272,36.628,51.921,36.427,52.543,36.208z"/>
	<linearGradient id="SVGID_3_" gradientUnits="userSpaceOnUse" x1="70.1094" y1="11.4282" x2="64.2725" y2="23.3674">
		<stop  offset="0" style="stop-color:#EFAF42"/>
		<stop  offset="1" style="stop-color:#E83723"/>
	</linearGradient>
	<polygon fill="url(#SVGID_3_)" points="70.477,24.879 67.2,23.275 62.613,21.01 59.279,19.375 67.952,15.733 	"/>
	<linearGradient id="SVGID_4_" gradientUnits="userSpaceOnUse" x1="50.8438" y1="25.1289" x2="48.3845" y2="14.6771">
		<stop  offset="0" style="stop-color:#22039A"/>
		<stop  offset="1" style="stop-color:#26C2BF;stop-opacity:0"/>
	</linearGradient>
	<path opacity="0.42" fill="url(#SVGID_4_)" d="M57.07,19.707c0,0,0,0.005,0,0.009c-0.329,4.057-3.645,7.061-7.082,7.061h-4.73
		c0.186-0.787,0.286-1.609,0.286-2.436c0-3.515-1.782-6.62-4.483-8.43l6.528-8.911c3.083,1.709,5.828,4.132,7.713,7.332
		C56.296,16.021,56.885,17.862,57.07,19.707z"/>
</g>
<polyline fill="#EC1C24" points="229.457,23.676 242.385,22.053 234.43,10.982 "/>
<text transform="matrix(1 0 0 1 2.4619 55.6699)" display="none" font-family="'BahamasPlain'" font-size="25" letter-spacing="1">2.eService</text>
<text transform="matrix(1 0 0 1 84.3589 23.1777)" display="none" font-family="'BauderieScriptSSi'" font-size="25" letter-spacing="1">1.eService</text>
</svg>
