<svg xmlns="http://www.w3.org/2000/svg" xmlns:xlink="http://www.w3.org/1999/xlink" width="288.065" height="202.131" viewBox="0 0 288.065 202.131">
  <defs>
    <clipPath id="clip-path">
      <path id="Path_26" data-name="Path 26" d="M99.006,143.863s3.982,10.03,11.7,12.15c.892.245-1.268-8.852.241-8.7,11.529,1.133,43.154.523,43.154.523s-.548,7.946.769,7.119c3.949-2.48,11.642-7.8,10-10.654-2.183-3.809-4.408-1.064-9.934-.066s-38.279,1.473-45.627-.3S97.566,140.968,99.006,143.863Z" transform="translate(-98.734 -142.116)" fill="none"/>
    </clipPath>
  </defs>
  <g id="peoples" transform="translate(-58.561 -105.797)" opacity="0.25">
    <g id="Group_22" data-name="Group 22" transform="translate(58.561 105.797)">
      <g id="Group_19" data-name="Group 19">
        <g id="Group_12" data-name="Group 12" transform="translate(41.123 13.399)">
          <path id="Path_2" data-name="Path 2" d="M118.827,175.8s-5.1-.509-5.436-6.965,3.115-7.822,3.115-7.822Z" transform="translate(-113.368 -132.982)" fill="#f2cfad"/>
          <path id="Path_3" data-name="Path 3" d="M168.026,174.691a9.47,9.47,0,0,0,5.435-9.147c-.249-6.825-4.159-5.953-4.159-5.953Z" transform="translate(-127.014 -132.618)" fill="#f2cfad"/>
          <path id="Path_4" data-name="Path 4" d="M127.083,189.7l-.368,19.134-4.148,2s-3.947,9.038,7.46,8.3S154.8,208.882,154.8,208.882l-4.171-1.517V189.7Z" transform="translate(-115.5 -140.145)" fill="#f2cfad"/>
          <path id="Path_5" data-name="Path 5" d="M128.557,201.642v3.741s10.557,7.218,23.737-.821l.071-5.842Z" transform="translate(-117.16 -142.396)" fill="#e7ab81"/>
          <path id="Path_6" data-name="Path 6" d="M117.935,141.24s-3.358,52.247,19.89,50.345c24.148-1.976,18.595-50.345,18.595-50.345Z" transform="translate(-114.466 -128.045)" fill="#f2cfad"/>
          <path id="Path_7" data-name="Path 7" d="M117.719,163a77.468,77.468,0,0,1-3.475-23.056c0-14.563,20.293-17.218,26.8-16.035s16.317,6.024,16.6,13.558c0,0,1.688,14.6-2.434,26.522,0,0-1.1-20.165-1.775-25.735-12.2,3.581-22.921,3.977-34.573-.176Z" transform="translate(-113.586 -123.654)" fill="#726660"/>
          <g id="Group_1" data-name="Group 1" transform="translate(18.86 32.542)">
            <path id="Path_8" data-name="Path 8" d="M142.8,177.83c.066.052-.118.469-.681,1.021a5.613,5.613,0,0,1-2.913,1.454l-.7.125.226-.708a38.026,38.026,0,0,0,1.1-4.17c.955-4.623.648-8.5.948-8.526.254-.06,1.036,3.912.047,8.727a24.488,24.488,0,0,1-1.269,4.269l-.472-.582a6.28,6.28,0,0,0,2.717-.987C142.4,178.06,142.718,177.765,142.8,177.83Z" transform="translate(-138.503 -167.025)" fill="#e7ab81"/>
          </g>
          <g id="Group_2" data-name="Group 2" transform="translate(17.774 46.626)">
            <path id="Path_9" data-name="Path 9" d="M148.244,185.83c.084.13-.4.627-1.279,1.3a12.73,12.73,0,0,1-3.893,2.047,7.327,7.327,0,0,1-4.489,0c-1.113-.4-1.6-.982-1.516-1.092.095-.146.7.151,1.721.31a9,9,0,0,0,3.956-.315,24.759,24.759,0,0,0,3.8-1.64C147.514,185.958,148.157,185.7,148.244,185.83Z" transform="translate(-137.056 -185.795)" fill="#e59a83"/>
          </g>
          <g id="Group_3" data-name="Group 3" transform="translate(21.26 52.714)" opacity="0.36">
            <path id="Path_10" data-name="Path 10" d="M145.765,194.542c-.111.3-1.032.251-2.023.622-1,.334-1.688.954-1.965.787-.125-.083-.106-.395.149-.789a3,3,0,0,1,3.226-1.14C145.6,194.169,145.81,194.4,145.765,194.542Z" transform="translate(-141.702 -193.909)" fill="#e59a83"/>
          </g>
          <g id="Group_5" data-name="Group 5" transform="translate(27.122 30.387)">
            <g id="Group_4" data-name="Group 4">
              <path id="Path_11" data-name="Path 11" d="M158.189,165.91c-.191.3-2.058-.771-4.447-.449-2.394.291-3.929,1.8-4.192,1.555-.126-.1.088-.654.76-1.3a5.975,5.975,0,0,1,6.817-.872C157.94,165.3,158.286,165.777,158.189,165.91Z" transform="translate(-149.515 -164.153)" fill="#433859"/>
            </g>
            <path id="Path_12" data-name="Path 12" d="M155.11,164.43a1.662,1.662,0,1,1-.071.009" transform="translate(-150.54 -164.221)" fill="#433859"/>
          </g>
          <g id="Group_7" data-name="Group 7" transform="translate(9.716 30.59)">
            <g id="Group_6" data-name="Group 6">
              <path id="Path_13" data-name="Path 13" d="M126.333,166.18c.191.3,2.058-.771,4.447-.449,2.394.29,3.929,1.8,4.191,1.554.127-.1-.087-.654-.759-1.3a5.973,5.973,0,0,0-6.817-.873C126.582,165.569,126.236,166.048,126.333,166.18Z" transform="translate(-126.317 -164.424)" fill="#433859"/>
            </g>
            <path id="Path_14" data-name="Path 14" d="M131.608,164.836a1.647,1.647,0,1,0,.071.008" transform="translate(-127.187 -164.525)" fill="#433859"/>
          </g>
          <g id="Group_8" data-name="Group 8" transform="translate(27.366 35.735)" opacity="0.25">
            <path id="Path_15" data-name="Path 15" d="M160.59,174.318c.045,1.753-2.325,3.236-5.292,3.313s-5.412-1.282-5.457-3.034,2.324-3.235,5.292-3.312S160.544,172.566,160.59,174.318Z" transform="translate(-149.84 -171.281)" fill="#e59a83"/>
          </g>
          <g id="Group_9" data-name="Group 9" transform="translate(6.911 36.026)" opacity="0.25">
            <path id="Path_16" data-name="Path 16" d="M133.328,174.7c.046,1.753-2.325,3.235-5.292,3.313s-5.412-1.282-5.457-3.034,2.324-3.235,5.293-3.311S133.282,172.952,133.328,174.7Z" transform="translate(-122.578 -171.668)" fill="#e59a83"/>
          </g>
          <g id="Group_10" data-name="Group 10" transform="translate(28.062 26.733)">
            <path id="Path_17" data-name="Path 17" d="M159.229,160.359c-.044.528-1.931.8-4.221.83s-4.183-.21-4.239-.738,1.829-1.143,4.218-1.167S159.273,159.84,159.229,160.359Z" transform="translate(-150.767 -159.284)" fill="#726660"/>
          </g>
          <g id="Group_11" data-name="Group 11" transform="translate(8.415 26.595)">
            <path id="Path_18" data-name="Path 18" d="M133.829,160.537c-.188.518-2.179.209-4.541.509-1.2.129-2.332.315-3.2.343s-1.444-.086-1.5-.343.4-.6,1.183-.966a10.816,10.816,0,0,1,3.313-.927,7.641,7.641,0,0,1,3.533.393C133.471,159.89,133.9,160.3,133.829,160.537Z" transform="translate(-124.583 -159.099)" fill="#726660"/>
          </g>
        </g>
        <path id="Path_19" data-name="Path 19" d="M99.006,143.863s3.982,10.03,11.7,12.15c.892.245-1.268-8.852.241-8.7,11.529,1.133,43.154.523,43.154.523s-.548,7.946.769,7.119c3.949-2.48,11.642-7.8,10-10.654-2.183-3.809-4.408-1.064-9.934-.066s-38.279,1.473-45.627-.3S97.566,140.968,99.006,143.863Z" transform="translate(-68.591 -114.865)" fill="#c48e47"/>
        <path id="Path_20" data-name="Path 20" d="M144.408,110.7a28.014,28.014,0,0,0-18.021.239c-6.09,2.2-13.089,6.877-13.155,16.8l-.4,8.01,16.165,3.9,20.987-1.759,8.476-1.842.075-11.435S157.292,114.825,144.408,110.7Z" transform="translate(-72.11 -106.678)" fill="#e5c53c"/>
        <rect id="Rectangle_2" data-name="Rectangle 2" width="21.736" height="10.671" transform="translate(57.912 21.735) rotate(-89.623)" fill="#c48e47"/>
        <rect id="Rectangle_3" data-name="Rectangle 3" width="7.986" height="48.94" transform="translate(38.653 25.595) rotate(-89.623)" fill="#302a3f"/>
        <path id="Path_21" data-name="Path 21" d="M79.009,292.016s-.074,1.331-.192,3.508c-.535,9.916-1.964,37.377-1.337,36.5.765-1.076,86.594-2.605,86.594-2.605s2.574-92.34.93-96.882-23.56-14.992-23.56-14.992,1.729-18.021-6.371-14.781c-1.275.509-18.094,18.348-18.094,18.348s-2.293-18.6-10.448-16.564c0,0-4.587,4.332-3.822,13.761,0,0-19.113,5.822-23.7,10.683s-14.965,18.3-19.132,64.867c0,0-1.706,31.317-1.234,31.39,4.671.72,18.79-.239,18.79-.239" transform="translate(-58.561 -129.909)" fill="#302a3f"/>
        <path id="Path_22" data-name="Path 22" d="M89.421,313.212s31.516-5.862,81.524,0V283.4s-49.488-7.135-81.524-1.019Z" transform="translate(-66.266 -149.266)" fill="#e5c53c"/>
        <path id="Path_23" data-name="Path 23" d="M89.421,306.284s56.206-4.587,81.524,2.039V297.7s-44.813-7.819-81.524,0Z" transform="translate(-66.266 -152.842)" fill="#bababa"/>
        <g id="Group_13" data-name="Group 13" transform="translate(45.834 72.824)">
          <path id="Path_24" data-name="Path 24" d="M121.277,322.008c-.437.005-.919-7.18-1.255-18.8-.318-11.623-.562-27.679-.179-45.438.1-4.443.24-8.779.511-12.988.05-1.047.131-2.095.238-3.139s.137-2.035.359-3.139l.278-1.6c.143-.529.366-1.052.549-1.57a8.9,8.9,0,0,1,.658-1.447l.708-1.36a77.5,77.5,0,0,1,6.391-9.081c2.134-2.708,4.236-5.118,6.161-7.312,7.782-8.694,13.11-13.567,13.423-13.262s-4.42,5.71-11.709,14.711c-1.8,2.265-3.781,4.738-5.787,7.465a82.341,82.341,0,0,0-5.924,8.9l-.6,1.225a7,7,0,0,0-.533,1.228c-.131.411-.305.8-.415,1.232l-.2,1.358c-.173.872-.191,1.935-.289,2.918-.089,1-.158,2.018-.2,3.059-.224,4.137-.339,8.457-.441,12.878-.293,17.69-.558,33.7-.75,45.354C122.027,314.814,121.716,322,121.277,322.008Z" transform="translate(-119.647 -202.854)" fill="#8b85a0"/>
        </g>
        <g id="Group_15" data-name="Group 15" transform="translate(30.143 27.251)">
          <g id="Group_14" data-name="Group 14" clip-path="url(#clip-path)">
            <path id="Path_25" data-name="Path 25" d="M96.983,143.831s.653-1.031,11.671,2.147,39.73,1.82,47.106-.808,7.595-.729,7.595-.729l3.485-5.324-5.862-4.032-29.073,7.252L104.287,138.7l-12.5-2.444Z" transform="translate(-97.001 -140.36)" fill="#e5c53c"/>
          </g>
        </g>
        <g id="Group_16" data-name="Group 16" transform="translate(40.484 29.625)">
          <path id="Path_27" data-name="Path 27" d="M155.4,145.3a7.289,7.289,0,0,1-1.647.421c-1.069.229-2.628.5-4.562.773a110.876,110.876,0,0,1-30.463.014c-1.934-.275-3.494-.541-4.562-.768a7.286,7.286,0,0,1-1.648-.42,7.328,7.328,0,0,1,1.695.127c1.08.137,2.646.322,4.581.527a145.784,145.784,0,0,0,15.167.817,145.689,145.689,0,0,0,15.164-.831c1.934-.207,3.5-.393,4.581-.531A7.285,7.285,0,0,1,155.4,145.3Z" transform="translate(-112.516 -145.28)" fill="#ffeedc"/>
        </g>
        <circle id="Ellipse_1" data-name="Ellipse 1" cx="8.255" cy="8.255" r="8.255" transform="translate(51.683 21.056) rotate(-45)" fill="#ffeedc"/>
        <path id="Path_28" data-name="Path 28" d="M114.266,149.6s36.521.717,43.709.1V152.8H114.391Z" transform="translate(-72.469 -116.734)" fill="#302a3f" opacity="0.36"/>
        <path id="Path_29" data-name="Path 29" d="M61.754,301.747c.04-.247,19.962.246,19.962.246l-1.4,32.383-21.753.446A302.135,302.135,0,0,1,61.754,301.747Z" transform="translate(-58.561 -154.703)" fill="#e5c53c"/>
        <path id="Path_30" data-name="Path 30" d="M60.455,318.606h21.43v9.684l-22.649,1.747S59.721,322.155,60.455,318.606Z" transform="translate(-58.729 -158.93)" fill="#bababa"/>
        <g id="Group_17" data-name="Group 17" transform="translate(20.274 125.629)">
          <path id="Path_31" data-name="Path 31" d="M86.657,338.179c-.866-.007-1.446-14.832-.8-33.1.533-15.4,1.76-28.307,2.644-31.826l.792.074c-.229.775-.408,1.119-.544,1.1s-.221-.4-.245-1.2l.792.074c.482,3.6.265,16.524-.266,31.891C88.384,323.411,87.543,338.187,86.657,338.179Z" transform="translate(-85.581 -273.229)" fill="#8b85a0"/>
        </g>
        <g id="Group_18" data-name="Group 18" transform="translate(47.251 73.686)">
          <path id="Path_32" data-name="Path 32" d="M131.606,221.969c-.9.053-1.793-4.58-4.235-9.645-.6-1.272-1.237-2.454-1.843-3.518a12.724,12.724,0,0,0-1.635-2.469c-.995-1.08-2.111-.936-2.331-1.3-.105-.174.072-.578.737-.855a3.46,3.46,0,0,1,2.881.312,9.165,9.165,0,0,1,2.787,2.694,22.189,22.189,0,0,1,2.27,3.769,20.835,20.835,0,0,1,2.033,7.675C132.371,220.68,132.027,221.939,131.606,221.969Z" transform="translate(-121.535 -204.003)" fill="#8b85a0"/>
        </g>
      </g>
      <g id="Group_20" data-name="Group 20" transform="translate(43.26 4.412)">
        <path id="Path_33" data-name="Path 33" d="M129.02,111.7c.095.228-3.883,1.313-7.486,4.663-3.654,3.3-5.083,7.163-5.3,7.048a6.494,6.494,0,0,1,.888-2.5,18.242,18.242,0,0,1,9.326-8.542A6.511,6.511,0,0,1,129.02,111.7Z" transform="translate(-116.216 -111.677)" fill="#ffeedc"/>
      </g>
      <g id="Group_21" data-name="Group 21" transform="translate(23.452 92.711)">
        <path id="Path_34" data-name="Path 34" d="M108.884,229.385c.053.212-4.266,1.429-9.518,3.139s-9.466,3.251-9.549,3.048c-.078-.186,4.025-2.062,9.314-3.773S108.838,229.188,108.884,229.385Z" transform="translate(-89.817 -229.358)" fill="#ffeedc"/>
      </g>
      <path id="Path_35" data-name="Path 35" d="M186.337,295.3v3.268l19,1.724v-5.415Z" transform="translate(-90.463 -153.007)" fill="#302a3f" opacity="0.14"/>
    </g>
    <g id="Group_39" data-name="Group 39" transform="translate(244.291 108.563)">
      <g id="Group_37" data-name="Group 37">
        <path id="Path_36" data-name="Path 36" d="M344.364,190.174s-4.793-1.1-5.177-5.929,2.454-4.53,2.454-4.53Z" transform="translate(-314.347 -127.018)" fill="#f2cfad"/>
        <path id="Path_37" data-name="Path 37" d="M384.148,186.509c-1.252,2.163-.335,5.086,1.52,6.762a12.586,12.586,0,0,0,6.881,2.676,47.063,47.063,0,0,1,7.4,1.126c2.392.725,4.707,2.261,5.581,4.6,1.388,3.723-1.083,8.576,1.543,11.559,1.994,2.264,5.611,1.833,8.376,3.043a9.361,9.361,0,0,1,4.718,5.3,20.833,20.833,0,0,1,1.146,7.153c.076,3.723-.3,7.664-2.459,10.7-2.318,3.256-6.28,4.893-10.139,5.935-9.215,2.487-19.268,2.433-28.11-1.163a37.192,37.192,0,0,1-19.7-18.906,36.285,36.285,0,0,1-.968-27.25c1.829-4.915,4.935-9.573,9.537-12.087s10.85-2.4,14.668,1.2" transform="translate(-318.99 -128.148)" fill="#c69546"/>
        <path id="Path_38" data-name="Path 38" d="M314.8,237.33s14.526-6.625,16.564-9.174,11.468-11.3,11.468-11.3l20.707,3.122s8.345,4.517,11.658,5.71,18.51,10.141,18.51,10.141L391,271.224l-4.077,56.38-58.612-1.336Z" transform="translate(-308.267 -136.292)" fill="#383756"/>
        <path id="Path_39" data-name="Path 39" d="M391.992,186.859s3.717-.371,3.965-5.08-2.272-5.7-2.272-5.7Z" transform="translate(-327.54 -126.11)" fill="#f2cfad"/>
        <path id="Path_40" data-name="Path 40" d="M345.625,222.334l5.67-3.456-1.1-18.562h23.55l-2.186,19.359,6.7,1.776" transform="translate(-315.963 -132.163)" fill="#f2cfad"/>
        <path id="Path_41" data-name="Path 41" d="M375.276,205.25l-1.543,9.561s-8.031,7.17-21.209-.869l-.678-11.367Z" transform="translate(-317.517 -132.726)" fill="#e7ab81" opacity="0.65"/>
        <path id="Path_42" data-name="Path 42" d="M381.338,151.854s3.328,49.71-19.713,47.9c-23.935-1.88-18.431-47.9-18.431-47.9Z" transform="translate(-315.22 -120.063)" fill="#f2cfad"/>
        <path id="Path_43" data-name="Path 43" d="M378.405,177.087s4.8-13.465,4.8-26.534c0-14.563-20.293-17.218-26.8-16.035s-16.317,6.024-16.6,13.558c0,0-.956,18.734,4.8,30.958,0,0-1.266-24.6-.589-30.17,12.2,3.58,22.921,3.976,34.573-.176Z" transform="translate(-314.497 -115.672)" fill="#c69546"/>
        <g id="Group_23" data-name="Group 23" transform="translate(45.386 72.715)" opacity="0.36">
          <path id="Path_44" data-name="Path 44" d="M366.588,207.028c-.046-.144.165-.374.612-.521a3,3,0,0,1,3.227,1.141c.255.395.275.705.149.789-.277.167-.96-.453-1.964-.787C367.62,207.279,366.7,207.332,366.588,207.028Z" transform="translate(-366.582 -206.395)" fill="#e59a83"/>
        </g>
        <g id="Group_25" data-name="Group 25" transform="translate(34.33 49.418)">
          <g id="Group_24" data-name="Group 24">
            <path id="Path_45" data-name="Path 45" d="M351.862,177.1c.192.3,2.058-.771,4.448-.449,2.394.29,3.929,1.8,4.191,1.554.127-.1-.087-.654-.76-1.3a5.973,5.973,0,0,0-6.817-.873C352.111,176.492,351.766,176.971,351.862,177.1Z" transform="translate(-351.846 -175.347)" fill="#433859"/>
          </g>
          <path id="Path_46" data-name="Path 46" d="M357.138,175.624a1.646,1.646,0,1,0,.071.008" transform="translate(-352.717 -175.414)" fill="#433859"/>
        </g>
        <g id="Group_27" data-name="Group 27" transform="translate(51.499 49.621)">
          <g id="Group_26" data-name="Group 26">
            <path id="Path_47" data-name="Path 47" d="M383.4,177.373c-.192.3-2.058-.77-4.448-.449-2.394.29-3.929,1.8-4.191,1.555-.127-.105.087-.654.76-1.3a5.971,5.971,0,0,1,6.817-.872C383.154,176.763,383.5,177.241,383.4,177.373Z" transform="translate(-374.729 -175.617)" fill="#433859"/>
          </g>
          <path id="Path_48" data-name="Path 48" d="M379.922,176.082a1.647,1.647,0,1,1-.071.008" transform="translate(-375.654 -175.731)" fill="#433859"/>
        </g>
        <g id="Group_28" data-name="Group 28" transform="translate(31.252 54.332)" opacity="0.25">
          <path id="Path_49" data-name="Path 49" d="M347.745,184.933c.046-1.753,2.489-3.111,5.457-3.034s5.338,1.56,5.292,3.313-2.488,3.11-5.456,3.033S347.7,186.685,347.745,184.933Z" transform="translate(-347.744 -181.896)" fill="#e59a83"/>
        </g>
        <g id="Group_29" data-name="Group 29" transform="translate(51.707 54.622)" opacity="0.25">
          <path id="Path_50" data-name="Path 50" d="M375.007,185.319c.046-1.753,2.489-3.111,5.456-3.034s5.339,1.56,5.293,3.313-2.488,3.11-5.457,3.033S374.962,187.071,375.007,185.319Z" transform="translate(-375.006 -182.282)" fill="#e59a83"/>
        </g>
        <g id="Group_30" data-name="Group 30" transform="translate(31.75 46.951)">
          <path id="Path_51" data-name="Path 51" d="M348.409,172.671c-.027-.2,2.36-.661,5.342-.609s5.354.58,5.32.78c-.032.216-2.407.024-5.333-.018S348.434,172.888,348.409,172.671Z" transform="translate(-348.409 -172.058)" fill="#c69546"/>
        </g>
        <g id="Group_31" data-name="Group 31" transform="translate(50.689 47.374)">
          <path id="Path_52" data-name="Path 52" d="M373.65,173.427c-.027-.2,2.263-.666,5.132-.777s5.188.161,5.177.366-2.315.279-5.147.4S373.677,173.641,373.65,173.427Z" transform="translate(-373.65 -172.622)" fill="#c69546"/>
        </g>
        <path id="Path_53" data-name="Path 53" d="M324.865,134.137s3.312,15.823,21.71,15.454,36.061,4.416,43.052-15.454a18.81,18.81,0,0,1-9.567-17.663s-10.671,2.576-22.814-6.991c0,0-6.255,8.831-21.342,6.991C335.9,116.475,332.224,134.874,324.865,134.137Z" transform="translate(-310.78 -109.484)" fill="#383756"/>
        <path id="Path_54" data-name="Path 54" d="M342.029,148.515v-5.888s6.624-7.84,21.342-6.312,19.5,8.52,19.5,8.52v3.68Z" transform="translate(-315.065 -116.134)" fill="#302a3f"/>
        <path id="Path_55" data-name="Path 55" d="M339.333,158.859s3.495,9.48,22.445,9.112S382.2,155.092,382.2,155.092H339.333Z" transform="translate(-314.392 -120.871)" fill="#302a3f"/>
        <path id="Path_56" data-name="Path 56" d="M364.544,120.061l-3.884.822.172,6.182,5.257,3.624,4.188-3.412-1.095-6.87Z" transform="translate(-319.717 -112.125)" fill="#ffd073"/>
        <rect id="Rectangle_4" data-name="Rectangle 4" width="42.868" height="4.048" transform="translate(24.94 32.381)" fill="#433859"/>
        <path id="Path_57" data-name="Path 57" d="M388.145,274.514V280.7s10.321,3.5,10.129,3.5,7.454-3.5,7.454-3.5v-6.188Z" transform="translate(-326.579 -150.688)" fill="#555582"/>
        <path id="Path_58" data-name="Path 58" d="M345.711,275.135v6.188s10.321,3.5,10.129,3.5,7.454-3.5,7.454-3.5v-6.188Z" transform="translate(-315.985 -150.843)" fill="#555582"/>
        <path id="Path_59" data-name="Path 59" d="M356.748,230.48c-7.018-2.143,23.356-2.234,23.356-2.234l-7.173,18.3Z" transform="translate(-318.478 -139.136)" fill="#fff"/>
        <g id="Group_32" data-name="Group 32" transform="translate(55.152 107.409)">
          <path id="Path_60" data-name="Path 60" d="M379.716,252.634a18.518,18.518,0,0,1,.376,3.484c.158,2.246.347,5.5.551,9.519.41,8.04.891,19.152,1.342,31.426s.789,23.394.969,31.439c.091,4.022.142,7.277.149,9.526a18.439,18.439,0,0,1-.119,3.493,18.72,18.72,0,0,1-.376-3.492c-.158-2.249-.347-5.5-.551-9.522-.41-8.04-.89-19.148-1.342-31.419s-.789-23.376-.969-31.421c-.09-4.023-.141-7.278-.148-9.53A18.636,18.636,0,0,1,379.716,252.634Z" transform="translate(-379.597 -252.634)" fill="#555582"/>
        </g>
        <g id="Group_33" data-name="Group 33" transform="translate(42.131 66.391)">
          <path id="Path_61" data-name="Path 61" d="M375.508,198c.08.117-.485.7-1.635,1.324a11.791,11.791,0,0,1-9.892.386c-1.195-.527-1.8-1.069-1.732-1.192.15-.306,2.956,1.128,6.676.945C372.648,199.358,375.334,197.709,375.508,198Z" transform="translate(-362.244 -197.967)" fill="#e59a83"/>
        </g>
        <g id="Group_34" data-name="Group 34" transform="translate(45.256 68.369)" opacity="0.36">
          <path id="Path_62" data-name="Path 62" d="M373.467,200.644c.1.11-.122.524-.706.978a5.39,5.39,0,0,1-5.472.494c-.655-.342-.946-.711-.869-.836.171-.279,1.665.4,3.57.2C371.9,201.335,373.249,200.4,373.467,200.644Z" transform="translate(-366.408 -200.603)" fill="#e59a83"/>
        </g>
        <g id="Group_35" data-name="Group 35" transform="translate(44.711 67.207)" opacity="0.36">
          <path id="Path_63" data-name="Path 63" d="M365.695,200.442c-.079-.125.209-.5.861-.843a5.39,5.39,0,0,1,5.477.447c.587.449.811.862.714.972-.216.246-1.573-.678-3.484-.807C367.356,200.028,365.868,200.72,365.695,200.442Z" transform="translate(-365.682 -199.054)" fill="#e59a83"/>
        </g>
        <g id="Group_36" data-name="Group 36" transform="translate(40.917 49.078)">
          <path id="Path_64" data-name="Path 64" d="M367.09,188.7a2.748,2.748,0,0,1-1.5.472,5.559,5.559,0,0,1-3.971-1.147l-.992-.77,1.228.281c1.326.3,2.986-.758,3.61-2.364a9.944,9.944,0,0,0,.506-3.969,23.3,23.3,0,0,0-.268-3.345,19.626,19.626,0,0,0-.867-2.965,5.667,5.667,0,0,1,1.307,2.876,19.438,19.438,0,0,1,.412,3.412,9.911,9.911,0,0,1-.5,4.231c-.714,1.833-2.646,3.085-4.317,2.668l.236-.488a5.568,5.568,0,0,0,3.6,1.251C366.528,188.831,367.067,188.63,367.09,188.7Z" transform="translate(-360.625 -174.893)" fill="#e7ab81"/>
        </g>
        <path id="Path_65" data-name="Path 65" d="M380.679,221.018c-.41.777-.23,23.722-.23,23.722l6.4-10.958-1.164-3,2.183.687,3.058-4.741Z" transform="translate(-324.648 -137.331)" fill="#302a3f"/>
        <path id="Path_66" data-name="Path 66" d="M347.428,215.742l-12.118,11.12,12.889,4.584,4.968-1.294-2.294,4.607,17.785,9.66Z" transform="translate(-313.388 -136.014)" fill="#302a3f"/>
        <path id="Path_67" data-name="Path 67" d="M321.513,245.349s5.475,7.525,11.082,27.912c1,3.625,2.018,6.944,3.023,9.951,4.647,13.9,8.954,21.14,8.954,21.14L380.5,293.139l6.88,12.741s-51.706,28.909-54.28,25.993-24.381-46.5-25.739-54.173S302.022,235.276,321.513,245.349Z" transform="translate(-306.093 -142.953)" fill="#302a3f"/>
        <path id="Path_68" data-name="Path 68" d="M363.647,305.742l-6.626-1.7-10.857-5.5,8.413,19.546a10.679,10.679,0,0,1,4.723-2.321,9.133,9.133,0,0,1,2.783-.248Z" transform="translate(-316.098 -156.687)" fill="#f2cfad"/>
        <path id="Path_69" data-name="Path 69" d="M405.223,240.352s11.977,6,12.742,28.1c.454,13.116.908,25.9,1.2,34.124.284,7.925-6.688,14.478-14.5,13.12a10.9,10.9,0,0,1-3.461-1.21c-11.168-6.222-33.825-12.722-33.825-12.722l2.166-15.968,20.963,4.447,12.261,2.6Z" transform="translate(-321.395 -142.158)" fill="#383756"/>
      </g>
      <path id="Path_70" data-name="Path 70" d="M400.939,256.86H394.5l-3.221,5.578,3.221,5.578h6.441l3.221-5.578Z" transform="translate(-327.362 -146.28)" fill="#ffd073"/>
      <g id="Group_38" data-name="Group 38" transform="translate(45.297 142.902)">
        <path id="Path_71" data-name="Path 71" d="M402.007,330.088a13.666,13.666,0,0,1-2.751-.819c-1.751-.6-4.28-1.507-7.423-2.659-6.286-2.3-15.028-5.594-24.908-9.379l-.462-.178.066-.493c.275-2.045.564-4.191.858-6.376.455-3.306.9-6.526,1.318-9.591l.09-.656.645.132c9.575,1.962,17.919,3.725,23.863,5.034,2.972.654,5.344,1.2,6.968,1.592a11.637,11.637,0,0,1,2.488.721,11.788,11.788,0,0,1-2.573-.3c-1.651-.264-4.047-.684-7.041-1.232-5.986-1.095-14.363-2.7-23.95-4.6l.736-.524c-.411,3.067-.843,6.288-1.286,9.6-.3,2.183-.592,4.329-.871,6.373l-.4-.67c9.863,3.828,18.549,7.262,24.755,9.774,3.1,1.256,5.586,2.283,7.286,3.013A13.719,13.719,0,0,1,402.007,330.088Z" transform="translate(-366.463 -299.938)" fill="#555582"/>
      </g>
      <path id="Path_72" data-name="Path 72" d="M409.855,293.714l3.621-.864s8.665.429,8.41,1.7,1.02,2.721-5.1,1.871h-4.332l-3.313,2.207s8.674,1.056,10.576,2.167c2.618,1.53,2.55,4.32.146,3.385a35.827,35.827,0,0,0-7.409-1.562l-2.454.852-12.261-2.6,2.928-6.318,10.162-8.812s9.525.377,9.78,2.428-8.155,1.205-8.155,1.205l-6.116,5.179,3.515-.839" transform="translate(-328.976 -153.491)" fill="#f2cfad"/>
    </g>
    <g id="Group_56" data-name="Group 56" transform="translate(152.446 119.265)">
      <g id="Group_55" data-name="Group 55" transform="translate(0.962)">
        <path id="Path_73" data-name="Path 73" d="M203.424,230.562l32.38-15.341,23.917-1.472S299.83,227,301.3,245.026l-27.141,32.866.648,49.191-64.026,6.255Z" transform="translate(-189.576 -146.218)" fill="#8cb9dd"/>
        <path id="Path_74" data-name="Path 74" d="M233.944,219.378l10.426,14.161,32.85-16.352-9.878-3.853-23.918,1.472Z" transform="translate(-197.196 -146.114)" fill="#fff"/>
        <path id="Path_75" data-name="Path 75" d="M237.091,175.892s-5.1-.51-5.437-6.966,3.116-7.821,3.116-7.821Z" transform="translate(-196.619 -133.074)" fill="#f2cfad"/>
        <path id="Path_76" data-name="Path 76" d="M286.289,174.782a9.469,9.469,0,0,0,5.435-9.146c-.248-6.825-4.159-5.954-4.159-5.954Z" transform="translate(-210.266 -132.71)" fill="#f2cfad"/>
        <path id="Path_77" data-name="Path 77" d="M245.347,189.794l-.368,19.134-4.148,2s-3.947,9.038,7.459,8.3,24.777-10.257,24.777-10.257l-4.171-1.518V189.794Z" transform="translate(-198.751 -140.237)" fill="#f2cfad"/>
        <path id="Path_78" data-name="Path 78" d="M246.821,201.733v3.741s10.557,7.218,23.736-.821l.071-5.842Z" transform="translate(-200.411 -142.488)" fill="#e7ab81"/>
        <path id="Path_79" data-name="Path 79" d="M236.2,141.331s-3.358,52.247,19.889,50.345c24.148-1.975,18.6-50.345,18.6-50.345Z" transform="translate(-197.717 -128.137)" fill="#f2cfad"/>
        <path id="Path_80" data-name="Path 80" d="M190.978,327.864s-4.185-.485-4.352-15.425c-.051-4.56-2.321-15.157-1.465-22.088l18.805-2.475v17.961Z" transform="translate(-184.968 -164.725)" fill="#e7ab81"/>
        <path id="Path_81" data-name="Path 81" d="M235.983,163.086a77.468,77.468,0,0,1-3.475-23.056c0-14.563,20.293-17.218,26.8-16.034s16.318,6.023,16.6,13.558c0,0,1.687,14.6-2.435,26.522,0,0-1.1-20.165-1.775-25.735-12.2,3.581-22.922,3.976-34.573-.176Z" transform="translate(-196.838 -123.746)" fill="#302a3f"/>
        <g id="Group_40" data-name="Group 40" transform="translate(53.871 32.541)">
          <path id="Path_82" data-name="Path 82" d="M261.059,177.921c.067.051-.117.469-.681,1.021a5.622,5.622,0,0,1-2.914,1.454l-.7.124.226-.707a37.908,37.908,0,0,0,1.1-4.171c.956-4.622.649-8.5.948-8.526.254-.059,1.037,3.913.047,8.727a24.406,24.406,0,0,1-1.269,4.269l-.472-.582a6.267,6.267,0,0,0,2.717-.987C260.665,178.152,260.981,177.856,261.059,177.921Z" transform="translate(-256.766 -167.116)" fill="#e7ab81"/>
        </g>
        <g id="Group_41" data-name="Group 41" transform="translate(52.786 46.625)">
          <path id="Path_83" data-name="Path 83" d="M266.507,185.921c.084.13-.395.627-1.279,1.3a12.748,12.748,0,0,1-3.893,2.048,7.327,7.327,0,0,1-4.489,0c-1.113-.4-1.6-.981-1.517-1.092.095-.146.705.151,1.721.31a8.991,8.991,0,0,0,3.956-.315,24.7,24.7,0,0,0,3.8-1.64C265.778,186.049,266.421,185.786,266.507,185.921Z" transform="translate(-255.319 -185.886)" fill="#e59a83"/>
        </g>
        <g id="Group_42" data-name="Group 42" transform="translate(56.272 52.713)" opacity="0.36">
          <path id="Path_84" data-name="Path 84" d="M264.028,194.633c-.11.3-1.032.251-2.023.622-1,.334-1.687.954-1.964.787-.126-.083-.107-.395.149-.789a3,3,0,0,1,3.227-1.14C263.863,194.26,264.074,194.49,264.028,194.633Z" transform="translate(-259.965 -194)" fill="#e59a83"/>
        </g>
        <g id="Group_44" data-name="Group 44" transform="translate(62.135 30.387)">
          <g id="Group_43" data-name="Group 43">
            <path id="Path_85" data-name="Path 85" d="M276.453,166c-.192.3-2.058-.771-4.448-.449-2.394.29-3.929,1.8-4.191,1.554-.127-.1.087-.654.76-1.3a5.973,5.973,0,0,1,6.817-.873C276.2,165.39,276.549,165.869,276.453,166Z" transform="translate(-267.779 -164.245)" fill="#433859"/>
          </g>
          <path id="Path_86" data-name="Path 86" d="M272.972,165.41a1.646,1.646,0,1,1-.071.008" transform="translate(-268.704 -164.534)" fill="#433859"/>
        </g>
        <g id="Group_46" data-name="Group 46" transform="translate(44.728 30.589)">
          <g id="Group_45" data-name="Group 45">
            <path id="Path_87" data-name="Path 87" d="M244.6,166.271c.192.3,2.058-.771,4.448-.449,2.394.29,3.929,1.8,4.191,1.554.127-.1-.087-.654-.76-1.3a5.971,5.971,0,0,0-6.817-.872C244.845,165.661,244.5,166.139,244.6,166.271Z" transform="translate(-244.58 -164.515)" fill="#433859"/>
          </g>
          <path id="Path_88" data-name="Path 88" d="M249.872,165.68a1.664,1.664,0,1,0,.071.009" transform="translate(-245.451 -164.804)" fill="#433859"/>
        </g>
        <g id="Group_47" data-name="Group 47" transform="translate(62.378 35.735)" opacity="0.25">
          <path id="Path_89" data-name="Path 89" d="M278.853,174.409c.046,1.753-2.324,3.236-5.292,3.313s-5.411-1.281-5.457-3.034,2.324-3.235,5.293-3.312S278.808,172.658,278.853,174.409Z" transform="translate(-268.103 -171.373)" fill="#e59a83"/>
        </g>
        <g id="Group_48" data-name="Group 48" transform="translate(41.923 36.025)" opacity="0.25">
          <path id="Path_90" data-name="Path 90" d="M251.591,174.795c.046,1.753-2.324,3.236-5.292,3.313s-5.411-1.281-5.457-3.034,2.324-3.235,5.293-3.312S251.546,173.044,251.591,174.795Z" transform="translate(-240.841 -171.759)" fill="#e59a83"/>
        </g>
        <g id="Group_49" data-name="Group 49" transform="translate(62.42 25.786)">
          <path id="Path_91" data-name="Path 91" d="M278.823,159.294c-.063.53-2.44.673-5.321.725s-5.261-.026-5.342-.553c-.082-.511,2.284-1.306,5.311-1.351S278.889,158.781,278.823,159.294Z" transform="translate(-268.159 -158.112)" fill="#433859"/>
        </g>
        <g id="Group_50" data-name="Group 50" transform="translate(43.837 26.708)">
          <path id="Path_92" data-name="Path 92" d="M253.7,160.706c-.067.527-2.38.663-5.184.555s-5.1-.436-5.124-.966,2.3-1.055,5.2-.936S253.768,160.19,253.7,160.706Z" transform="translate(-243.393 -159.342)" fill="#433859"/>
        </g>
        <path id="Path_93" data-name="Path 93" d="M228.7,223.287l13.6,21.236,5.678-3.01-15.339-20.124Z" transform="translate(-195.887 -148.125)" fill="#3d6fb6"/>
        <path id="Path_94" data-name="Path 94" d="M248.2,234.688l4.646,6.1L288.1,221.9l-7.317-3.429Z" transform="translate(-200.755 -147.396)" fill="#3d6fb6"/>
        <g id="Group_53" data-name="Group 53" transform="translate(24.152 66.388)">
          <g id="Group_51" data-name="Group 51" transform="translate(10.391 1.144)">
            <path id="Path_95" data-name="Path 95" d="M241.506,213.783c.083.184-.954.75-2.445,1.856a18.277,18.277,0,0,0-4.782,5.273,20.4,20.4,0,0,0-2.363,6.749c-.311,1.835-.381,3.016-.578,3.02-.152.008-.405-1.174-.314-3.121a16.438,16.438,0,0,1,2.159-7.289,15.188,15.188,0,0,1,5.382-5.381C240.267,213.923,241.45,213.647,241.506,213.783Z" transform="translate(-231.005 -213.75)" fill="#234670"/>
          </g>
          <g id="Group_52" data-name="Group 52" transform="translate(45.301)">
            <path id="Path_96" data-name="Path 96" d="M277.553,260.116c-.184-.079.893-2.742,2.263-7.151a96.267,96.267,0,0,0,3.657-17.6,94.015,94.015,0,0,0,.548-9.888c-.008-1.523-.033-2.971-.1-4.325a23.072,23.072,0,0,0-.35-3.7,6.526,6.526,0,0,0-2.611-4.355,11.855,11.855,0,0,0-1.781-.8c-.017-.056.787-.24,2.031.377a5.742,5.742,0,0,1,1.878,1.609,8.1,8.1,0,0,1,1.357,2.971,21.845,21.845,0,0,1,.526,3.832c.111,1.369.177,2.835.217,4.379a79.661,79.661,0,0,1-.456,10.036,78.051,78.051,0,0,1-4.068,17.749c-.806,2.19-1.544,3.926-2.108,5.1A6.3,6.3,0,0,1,277.553,260.116Z" transform="translate(-277.533 -212.225)" fill="#234670"/>
          </g>
          <circle id="Ellipse_2" data-name="Ellipse 2" cx="5.653" cy="5.653" r="5.653" transform="translate(38.288 45.675)" fill="#c5ced6"/>
          <path id="Path_97" data-name="Path 97" d="M277,279.09a2.163,2.163,0,1,1-2.824-1.175A2.164,2.164,0,0,1,277,279.09Z" transform="translate(-231.059 -228.585)" fill="#234670"/>
          <path id="Path_98" data-name="Path 98" d="M233.762,246.6c.015-1.05,0-2.129-.053-3.23a21.48,21.48,0,0,0-.349-3.442,7.661,7.661,0,0,0-1.622-3.514,4.948,4.948,0,0,0-3.811-1.828,5.905,5.905,0,0,0-3.812,1.606,8.89,8.89,0,0,0-2.133,3.161,27.177,27.177,0,0,0-1.08,3.256q-.451,1.577-.834,3.1a103.055,103.055,0,0,0-2.155,10.868c-.877,6.249-.851,10.159-.616,10.174.015,0,.032-.014.048-.035.357.415,1.886.77,3.8.865l.965.049.008-1,0-.446c0-.327-.01-.646-.026-.95l-.074-1.412-1.2.553a1.61,1.61,0,0,0-.951,1.357,6.117,6.117,0,0,0-2.352.5c.3-1.235.783-4.63,1.727-9.427.6-3.058,1.42-6.679,2.523-10.643a59.812,59.812,0,0,1,1.931-6.061,7.169,7.169,0,0,1,1.689-2.495,4.067,4.067,0,0,1,2.568-1.11,3.06,3.06,0,0,1,2.355,1.163,5.848,5.848,0,0,1,1.23,2.662,20.392,20.392,0,0,1,.358,3.151c.071,1.065.105,2.111.114,3.132a97.108,97.108,0,0,1-.578,10.889c-.519,4.862-.938,8.275-.959,9.551a10.725,10.725,0,0,0-3.111-.455l-.118,0a1.726,1.726,0,0,1-.04-.407c.011-.185.032-.412.029-.618a1.678,1.678,0,0,0-.315-1.072c-.206-.227-.4-.23-.5-.149a1.135,1.135,0,0,0-.206.386l-.3.576c-.071.139-.151.284-.241.5a2.624,2.624,0,0,0-.178.888,1.8,1.8,0,0,0,.455,1.276,1.631,1.631,0,0,0,.768.456,2.544,2.544,0,0,0,.606.071c2.147.046,3.9-.343,3.908-.869,0-.16-.17-.312-.452-.451a74.756,74.756,0,0,0,1.991-9.508A77.6,77.6,0,0,0,233.762,246.6ZM227.1,266.839v0C227.1,266.829,227.1,266.841,227.1,266.839Z" transform="translate(-217.157 -217.808)" fill="#234670"/>
        </g>
        <path id="Path_99" data-name="Path 99" d="M284.346,257.165,265.752,307.91l-24.208-10.327s34.126,22.919,34.126,22,10.765-31.687,10.765-31.687Z" transform="translate(-199.094 -157.058)" fill="#74aeb7" opacity="0.58"/>
        <path id="Path_100" data-name="Path 100" d="M302.328,225.9l-13.289,50.92,28.119,9.935s9.983-32.588,4.479-43.2C315.8,232.295,302.328,225.9,302.328,225.9Z" transform="translate(-210.952 -149.251)" fill="#8cb9dd"/>
        <path id="Path_101" data-name="Path 101" d="M241.324,313.531l20.758,8.514,10.624-25.737,22.709,8.023s-17.188,47.081-22.76,43.227-52.3-26.468-52.3-26.468l-18.4-11.607,16.251-4,23.122,8.051" transform="translate(-189.209 -166.831)" fill="#f2cfad"/>
        <path id="Path_102" data-name="Path 102" d="M244.579,301.125s11.995-4.79,22.942.225l-6.277,15.206s-14.591-4.76-16.665-4.76-39.759,19.6-39.759,19.6-14.822,2.95-16.242-6.125c-.014-.091-.028-.181-.041-.271a14.646,14.646,0,0,1,12.129-16.441Z" transform="translate(-185.822 -167.518)" fill="#eac09d"/>
        <g id="Group_54" data-name="Group 54" transform="translate(74.871 129.359)">
          <path id="Path_103" data-name="Path 103" d="M293.29,296.152c.324.091-.789,4.924-3.166,10.537s-5.048,9.79-5.339,9.621c-.318-.178,1.84-4.569,4.17-10.115C291.3,300.659,292.941,296.048,293.29,296.152Z" transform="translate(-284.753 -296.151)" fill="#e7ab81"/>
        </g>
        <path id="Path_104" data-name="Path 104" d="M234.066,330.063l-3.887-1.893,18.193-8.908L252,320.75l-17.934,9.313" transform="translate(-196.256 -172.562)" fill="#302a3f" opacity="0.14"/>
      </g>
      <path id="Path_105" data-name="Path 105" d="M199.6,235.4c-2.376,1.242-16.741,6.746-15.875,44.394l27.282-.606Z" transform="translate(-183.687 -151.624)" fill="#8cb9dd"/>
    </g>
  </g>
</svg>
