<svg xmlns="http://www.w3.org/2000/svg" width="39.709" height="46.24" viewBox="0 0 39.709 46.24">
  <g id="report-icon" transform="translate(-29.638 -220.647)">
    <path id="report-icon-2" data-name="report-icon" d="M37.114,32.727,38.182,33.8a.715.715,0,0,1,0,1.019l-.858.861a5.816,5.816,0,0,1,.534,1.426h1.129a.722.722,0,0,1,.722.722v1.5a.726.726,0,0,1-.722.726H37.772a5.793,5.793,0,0,1-.628,1.381l.786.786a.726.726,0,0,1,0,1.023l-1.065,1.087a.726.726,0,0,1-1.023,0l-.858-.858a5.974,5.974,0,0,1-1.445.534v1.129a.726.726,0,0,1-.722.722h-1.5a.726.726,0,0,1-.726-.722V43.926a5.763,5.763,0,0,1-1.384-.632l-.786.79a.726.726,0,0,1-1.023,0L26.332,43a.719.719,0,0,1,0-1.019l.858-.861a5.974,5.974,0,0,1-.534-1.426H25.527a.726.726,0,0,1-.7-.722v-1.5a.73.73,0,0,1,.722-.726h1.2a5.8,5.8,0,0,1,.632-1.377l-.79-.786a.726.726,0,0,1,0-1.023l1.072-1.068a.719.719,0,0,1,1.019,0l.861.858a5.955,5.955,0,0,1,1.426-.534V31.678a.726.726,0,0,1,.722-.722h1.5a.726.726,0,0,1,.722.722v1.215a5.643,5.643,0,0,1,1.381.632l.794-.8A.73.73,0,0,1,37.114,32.727ZM22.668,44.013a1.129,1.129,0,0,1,0,2.227H2.592A2.592,2.592,0,0,1,0,43.637V2.577A2.569,2.569,0,0,1,2.588,0h31.84A2.6,2.6,0,0,1,37.02,2.592V25.734a1.129,1.129,0,0,1-2.235,0V2.592h0a.366.366,0,0,0-.361-.365H2.592a.354.354,0,0,0-.376.376V43.637h0A.366.366,0,0,0,2.581,44H22.668ZM7.147,38.618V36.113H17.993v2.494H7.151ZM27.95,22.48v2.3H24.685v-2.3Zm-5.842-2.024v4.322H18.839V20.456Zm-5.842-6.192V24.8H13V14.264ZM10.42,9.935V24.779H7.147V9.935Zm15.536,1.091,4.932.019a4.943,4.943,0,0,1-1.471,3.495,5.1,5.1,0,0,1-.719.587Zm-.5-.978L25.2,4.777a.192.192,0,0,1,.181-.2h.2a5.477,5.477,0,0,1,5.526,5.078.2.2,0,0,1-.177.2l-5.267.376a.184.184,0,0,1-.2-.173h0Zm.312-5.1.245,4.706,4.424-.4a4.394,4.394,0,0,0-1.5-2.957A4.192,4.192,0,0,0,25.8,4.954Zm-.9,5.846L27.5,15.374a5.285,5.285,0,1,1-3.4-9.807L24.85,10.8ZM7.147,31.911V29.4H22.518v2.494Zm25.1,3.529a2.968,2.968,0,1,1-2.968,2.968A2.968,2.968,0,0,1,32.25,35.44Z" transform="translate(29.638 220.648)" fill="#fff" fill-rule="evenodd"/>
    <path id="report-icon-3" data-name="report-icon" d="M37.114,32.727,38.182,33.8a.715.715,0,0,1,0,1.019l-.858.861a5.816,5.816,0,0,1,.534,1.426h1.129a.722.722,0,0,1,.722.722v1.5a.726.726,0,0,1-.722.726H37.772a5.793,5.793,0,0,1-.628,1.381l.786.786a.726.726,0,0,1,0,1.023l-1.065,1.087a.726.726,0,0,1-1.023,0l-.858-.858a5.974,5.974,0,0,1-1.445.534v1.129a.726.726,0,0,1-.722.722h-1.5a.726.726,0,0,1-.726-.722V43.926a5.763,5.763,0,0,1-1.384-.632l-.786.79a.726.726,0,0,1-1.023,0L26.332,43a.719.719,0,0,1,0-1.019l.858-.861a5.974,5.974,0,0,1-.534-1.426H25.527a.726.726,0,0,1-.7-.722v-1.5a.73.73,0,0,1,.722-.726h1.2a5.8,5.8,0,0,1,.632-1.377l-.79-.786a.726.726,0,0,1,0-1.023l1.072-1.068a.719.719,0,0,1,1.019,0l.861.858a5.955,5.955,0,0,1,1.426-.534V31.678a.726.726,0,0,1,.722-.722h1.5a.726.726,0,0,1,.722.722v1.215a5.643,5.643,0,0,1,1.381.632l.794-.8A.73.73,0,0,1,37.114,32.727ZM2.216,43.637C2.218,43.731,2.209,2.5,2.216,43.637ZM25.956,11.026l4.932.019a4.943,4.943,0,0,1-1.471,3.495,5.1,5.1,0,0,1-.719.587Zm-.5-.978L25.2,4.777a.192.192,0,0,1,.181-.2h.2a5.477,5.477,0,0,1,5.526,5.078.2.2,0,0,1-.177.2l-5.267.376a.184.184,0,0,1-.2-.173h0Zm.312-5.1.245,4.706,4.424-.4a4.394,4.394,0,0,0-1.5-2.957A4.192,4.192,0,0,0,25.8,4.954Zm-.9,5.846L27.5,15.374a5.285,5.285,0,1,1-3.4-9.807L24.85,10.8ZM32.25,35.44a2.968,2.968,0,1,1-2.968,2.968A2.968,2.968,0,0,1,32.25,35.44Z" transform="translate(29.638 220.648)" fill="#9ce9fd" fill-rule="evenodd"/>
  </g>
</svg>
