<?xml version="1.0" standalone="no"?>
<!DOCTYPE svg PUBLIC "-//W3C//DTD SVG 20010904//EN"
 "http://www.w3.org/TR/2001/REC-SVG-20010904/DTD/svg10.dtd">
<svg version="1.0" xmlns="http://www.w3.org/2000/svg"
 width="67.000000pt" height="62.000000pt" viewBox="0 0 67.000000 62.000000"
 preserveAspectRatio="xMidYMid meet">

<g transform="translate(0.000000,62.000000) scale(0.100000,-0.100000)"
fill="#000000" stroke="none">
<path d="M10 599 c0 -12 7 -19 20 -19 19 0 20 -7 20 -194 0 -192 0 -195 -22
-198 -12 -2 -23 -9 -26 -15 -3 -10 20 -13 93 -13 73 0 96 3 93 13 -3 6 -14 13
-26 15 -21 3 -22 9 -22 88 l0 84 55 0 c63 0 72 -7 151 -114 l44 -58 -32 -41
c-56 -70 -100 -107 -127 -107 -36 0 -59 -16 -45 -30 7 -7 45 -10 100 -8 71 2
89 6 89 18 0 8 -7 14 -17 12 -9 -1 -19 2 -22 7 -6 10 54 103 70 108 5 2 22
-17 38 -42 37 -59 61 -75 114 -75 36 0 49 5 73 31 30 33 38 59 16 59 -7 0 -18
-9 -25 -20 -8 -13 -23 -20 -41 -20 -31 0 -71 40 -107 105 l-18 33 53 61 c42
49 59 61 82 61 19 0 29 5 29 15 0 12 -16 15 -80 15 -78 0 -104 -12 -60 -28 20
-7 19 -9 -10 -49 l-31 -42 -62 62 -62 62 27 32 c53 64 42 160 -22 189 -14 7
-89 14 -167 17 -135 4 -143 3 -143 -14z m285 -69 c15 -17 17 -27 9 -57 -10
-42 -28 -50 -111 -52 l-53 -1 0 65 0 65 68 0 c56 0 72 -4 87 -20z"/>
</g>
</svg>
