<svg xmlns="http://www.w3.org/2000/svg" width="46.001" height="46.24" viewBox="0 0 46.001 46.24">
  <g id="Sync" transform="translate(-0.171)">
    <path id="Path_38176" data-name="Path 38176" d="M1.7,15.064A1.033,1.033,0,0,1,.67,14.031,14.025,14.025,0,0,1,27.908,9.32a1.035,1.035,0,0,1-1.951.694A11.962,11.962,0,0,0,2.729,14.031,1.022,1.022,0,0,1,1.7,15.064Zm12.99,12.99A13.957,13.957,0,0,1,1.284,18.149a1.035,1.035,0,1,1,1.98-.607,11.958,11.958,0,0,0,23.387-3.519,1.033,1.033,0,0,1,2.066,0A14.034,14.034,0,0,1,14.694,28.054Z" transform="translate(-0.139)" fill="#ddde40"/>
    <path id="Path_38177" data-name="Path 38177" d="M26.8,10.961a1.176,1.176,0,0,1-.224-.022L18.6,9.183a1.036,1.036,0,0,1,.448-2.023l6.965,1.532,1.532-6.965a1.036,1.036,0,0,1,2.023.448l-1.756,7.976A1.035,1.035,0,0,1,26.8,10.961ZM1.2,27.246a.622.622,0,0,1-.116-.007A1.031,1.031,0,0,1,.177,26.1l.918-8.121a1.026,1.026,0,0,1,1.142-.91l8.114.918a1.032,1.032,0,0,1-.231,2.052l-7.088-.8-.8,7.088A1.038,1.038,0,0,1,1.2,27.246Z" transform="translate(0 -0.253)" fill="#9ce9fd"/>
    <path id="Path_38178" data-name="Path 38178" d="M31.353,48.3H7.453A1.033,1.033,0,0,1,6.42,47.263V34.381a1.033,1.033,0,1,1,2.066,0V46.222H30.927L45.832,31.317V9.476H34.409a1.033,1.033,0,1,1,0-2.066H46.872a1.033,1.033,0,0,1,1.033,1.033v23.3a1.028,1.028,0,0,1-.3.73L32.09,47.992A1.045,1.045,0,0,1,31.353,48.3Z" transform="translate(-1.734 -2.056)" fill="#f5f7f9"/>
    <path id="Path_38179" data-name="Path 38179" d="M40.533,57.223A1.033,1.033,0,0,1,39.5,56.19V40.613a1.016,1.016,0,0,1,.3-.73,1.028,1.028,0,0,1,.73-.3h.007l15.512.065a1.037,1.037,0,0,1,0,2.074h-.007l-14.479-.058V56.2A1.031,1.031,0,0,1,40.533,57.223Z" transform="translate(-10.914 -10.984)" fill="#f5f7f9"/>
  </g>
</svg>
