<svg xmlns="http://www.w3.org/2000/svg" xmlns:xlink="http://www.w3.org/1999/xlink" width="219.259" height="99.922" viewBox="0 0 219.259 99.922">
  <defs>
    <clipPath id="clip-path">
      <rect x="-7" y="80" width="219.259" height="99.922" fill="none"/>
    </clipPath>
  </defs>
  <g id="Scroll_Group_13" data-name="Scroll Group 13" transform="translate(7 -80)" clip-path="url(#clip-path)" style="isolation: isolate">
    <path id="Blob_2" data-name="Blob 2" d="M144.4,196.106a56.488,56.488,0,0,0,10.917,3.023c30.258,5.2,59.864-15.764,65-46.032a56.894,56.894,0,0,0,.7-6.1c.992-16.5,6.72-32.446,17.258-45.183a43.518,43.518,0,0,0,9.341-20.261c4.139-23.517-12.141-46.652-35.675-50.688a43.887,43.887,0,0,0-9.582-.584,51.785,51.785,0,0,1-38.292-14.523A57.076,57.076,0,0,0,134.778.832c-22.289-4.069-49.724,6.943-61.7,29.813A88.359,88.359,0,0,1,34.563,69.082,62.316,62.316,0,0,0,.9,114.151c-5.769,32.843,16.689,65.62,49.41,72.041a62.454,62.454,0,0,0,20.73.587C95.858,183.3,121.049,187.023,144.4,196.106Z" transform="translate(0 0)" fill="#070707" opacity="0.18"/>
  </g>
</svg>
