<svg class="svg-icon" viewBox="0 0 1024 1024" xml:space="preserve" xmlns="http://www.w3.org/2000/svg" xmlns:xlink="http://www.w3.org/1999/xlink">
    <path d="M799.9 867.4h-149v80.1h149v-80.1zM483.8 691H335.3v79.6h148.5V691z m-223.3-9.3h149v-79.6h-149v79.6zM410 779.4H260.5v79.1H410v-79.1z m157.3 0H418.8v79.1h148.5v-79.1z m0-177.3H418.8v79.6h148.5v-79.6z m74.3 88.9H493.1v79.6h148.5V691z m84 88.4H576.2v79.1h149.4v-79.1z m0-177.3h-149v79.6h149v-79.6z m74.3-88.5H650.4v80.1h149.5v-80.1z m0 176.9h-149v80.1h149v-80.1zM641.6 867.4H493.1v80.1h148.5v-80.1z m-157.8 0H335.3v80.1h148.5v-80.1z m-157.8 0H177v80.1h149v-80.1z m0-176.9H177v80.1h149v-80.1z m0.4-176.9H177v80.1h149.5v-80.1z m235.9-271H554c-1.5 0-3 0.6-4.1 1.5-1.1 1-1.7 2.3-1.7 3.7v16.5c0 16.2-6 30.1-17.4 40.1-10.8 9.6-25.8 14.8-42.2 14.8-16.4 0-31.4-5.3-42.2-14.8-11.4-10.1-17.4-24-17.4-40.1v-16.5c0-1.4-0.6-2.7-1.7-3.7s-2.5-1.5-4.1-1.5H415v-18.4c11 5.2 24.8 9.2 41.3 9.2H521c16.5 0 30.3-3.9 41.3-9.2v18.4z m33.2-44.9c1.8-2.6 1-6-1.8-7.7-1.1-0.7-2.4-0.9-3.7-0.9-8.4 9.5-31.3 30.3-69 30.3-2.2 0-3.9-1.6-3.9-3.6s1.7-3.6 3.9-3.6c35.3 0 56.8-20.8 63.7-28.6 0.1-1.8 0.6-3.2-1.6-5.4-3.3-3.2-9.3-2.7-9.3-2.7l-0.1-22.2c0-27.8-16.2-52.2-40.5-65.6v40.8c0 2-1.7 3.6-3.9 3.6s-3.9-1.6-3.9-3.6V81.9c0-1.8-3.4-11.3-18.3-12h-36.6c-14.4-0.4-18.3 10.3-18.3 12v46.6c0 2-1.8 3.6-3.9 3.6-2.2 0-3.9-1.6-3.9-3.6V87.7c-24.3 13.5-40.5 37.8-40.5 65.6l-0.1 22.2s-6-0.5-9.3 2.7c-2.2 2.2-1.8 3.6-1.6 5.4 6.8 7.8 28.4 28.6 63.7 28.6 2.2 0 3.9 1.6 3.9 3.6s-1.8 3.6-3.9 3.6c-37.6 0-60.5-20.8-69-30.3-1.3-0.1-2.5 0.2-3.7 0.9-2.8 1.7-3.7 5.1-1.8 7.7 0.5 0.8 7.8 10.9 21.8 20.1-0.1 0.4-0.1 0.8-0.1 1.2v28.9c0 1.4 0.6 2.7 1.7 3.7s2.5 1.5 4.1 1.5h8.2v11.2c0 18.9 7.4 35.8 20.9 47.7 13 11.5 30.8 17.8 50.2 17.8 19.4 0 37.2-6.3 50.2-17.8 13.5-11.9 20.9-28.9 20.9-47.7v-11.2h8.2c1.5 0 3-0.6 4.1-1.5 1.1-1 1.7-2.3 1.7-3.7V219c0-0.4 0-0.8-0.1-1.2 13.8-9.2 21-19.3 21.6-20.1m105 260.5L656.9 407l-22.5-26.7c-0.6-0.7-1.3-1.3-2-2-19.4-22.7-48.1-38.1-82.6-38.1l-152.6-0.1c-59.4 0-106 48.4-106 108.8v55.9h43.9v88.4h28.7V460.3h20.6v133h208.9v-133H607l37.4 44.5h111.9l56.8-67.7-0.1-0.1c9.1-16.1 8.3-36-6.6-48.5-15.3-12.8-36.2-9.8-50.1 3.2l-55.8 66.5z m202.1-68L782.9 289.7l-53.6 63.8 28.8 24.2c7.4-4.7 15.9-7.3 24.7-7.3 10.8 0 21.2 3.8 29.5 10.7 15.7 13.2 20.6 34.3 12.8 52.8l24 20.1 53.5-63.8z"  />
</svg>