<svg xmlns="http://www.w3.org/2000/svg" enable-background="new 0 0 512 512" viewBox="0 0 512 512"><path fill="#fff" d="M503.972,161.055v246.452c0,13.279-10.719,23.997-23.997,23.997H32.025
			c-13.278,0-23.997-10.719-23.997-23.997V161.055H503.972z"/><path fill="#ffcd7e" d="M503.972,161.075v-56.576c0-13.252-10.744-23.997-23.997-23.997H32.025
			c-13.253,0-23.997,10.745-23.997,23.997v56.576H503.972z"/><path fill="#43c3ff" d="M133.743 244.997v12.111c0 12.352-10.014 22.366-22.366 22.366h0c-12.352 0-22.366-10.014-22.366-22.366v-12.111c0-12.352 10.014-22.366 22.366-22.366h0C123.73 222.631 133.743 232.644 133.743 244.997zM166.19 356.939c-36.541 17.318-73.083 17.318-109.624 0 0-30.292 24.552-54.844 54.78-54.844C141.637 302.095 166.19 326.647 166.19 356.939z"/><path fill="#33226e" d="M479.975,72.501H32.025c-17.643,0-31.996,14.35-31.996,31.996c0,107.223,0,196.969,0,303.005
				c0,17.646,14.354,31.996,31.996,31.996h447.95c17.643,0,31.996-14.35,31.996-31.996c0-107.902,0-190.413,0-303.005
				C511.971,86.851,497.618,72.501,479.975,72.501z M32.025,88.499h447.95c8.823,0,15.998,7.179,15.998,15.998v48.557H16.027
				v-48.557C16.027,95.678,23.202,88.499,32.025,88.499z M479.975,423.501H32.025c-8.823,0-15.998-7.179-15.998-15.998V169.076
				h479.947v238.427C495.973,416.322,488.798,423.501,479.975,423.501z"/><path fill="#33226e" d="M148.766 128.792h214.468c4.417 0 7.999-3.578 7.999-7.999 0-4.421-3.582-7.999-7.999-7.999H148.766c-4.417 0-7.999 3.578-7.999 7.999C140.767 125.214 144.348 128.792 148.766 128.792zM111.379 287.469c16.744 0 30.364-13.623 30.364-30.364v-12.108c0-16.74-13.62-30.364-30.364-30.364s-30.368 13.623-30.368 30.364v12.108C81.012 273.846 94.635 287.469 111.379 287.469zM97.01 244.997c0-7.921 6.445-14.366 14.369-14.366 7.921 0 14.366 6.445 14.366 14.366v12.108c0 7.921-6.445 14.366-14.366 14.366-7.925 0-14.369-6.445-14.369-14.366V244.997zM111.344 294.093c-34.617 0-62.778 28.192-62.778 62.845 0 3.093 1.781 5.906 4.574 7.226 38.622 18.315 77.83 18.327 116.475 0 2.793-1.32 4.574-4.132 4.574-7.226C174.189 322.286 145.997 294.093 111.344 294.093zM64.834 351.899c2.515-23.474 22.415-41.808 46.51-41.808 24.13 0 44.058 18.334 46.577 41.808C126.655 365.367 96.1 365.367 64.834 351.899zM206.224 237.959h98.899c4.417 0 7.999-3.578 7.999-7.999s-3.582-7.999-7.999-7.999h-98.899c-4.417 0-7.999 3.578-7.999 7.999S201.807 237.959 206.224 237.959zM455.435 266.175H206.224c-4.417 0-7.999 3.578-7.999 7.999s3.582 7.999 7.999 7.999h249.211c4.417 0 7.999-3.578 7.999-7.999S459.852 266.175 455.435 266.175zM206.224 326.387h98.899c4.417 0 7.999-3.578 7.999-7.999s-3.582-7.999-7.999-7.999h-98.899c-4.417 0-7.999 3.578-7.999 7.999S201.807 326.387 206.224 326.387zM455.435 354.602H206.224c-4.417 0-7.999 3.578-7.999 7.999s3.582 7.999 7.999 7.999h249.211c4.417 0 7.999-3.578 7.999-7.999S459.852 354.602 455.435 354.602z"/></svg>