<?xml version="1.0" encoding="UTF-8"?> <!-- Generator: Adobe Illustrator 22.0.0, SVG Export Plug-In . SVG Version: 6.00 Build 0) --> <svg xmlns="http://www.w3.org/2000/svg" xmlns:xlink="http://www.w3.org/1999/xlink" id="Layer_1" x="0px" y="0px" viewBox="0 0 674.412 674.412" xml:space="preserve"> <g> <circle fill="#402954" cx="338.232" cy="337.789" r="327.81"></circle> <path fill="#FFFFFF" d="M338.232,674.994c-90.071,0-174.751-35.075-238.441-98.765S1.026,427.859,1.026,337.789 S36.102,163.038,99.792,99.348S248.161,0.583,338.232,0.583s174.751,35.075,238.441,98.765s98.765,148.37,98.765,238.441 s-35.075,174.751-98.765,238.441S428.303,674.994,338.232,674.994z M338.232,19.374c-85.051,0-165.012,33.121-225.153,93.261 S19.818,252.737,19.818,337.789s33.121,165.012,93.261,225.153s140.101,93.261,225.153,93.261s165.012-33.121,225.153-93.261 s93.261-140.101,93.261-225.153s-33.121-165.012-93.261-225.153S423.283,19.374,338.232,19.374z"></path> </g> <g> <path id="_x38_5_5_" fill="#FFFFFF" d="M183.756,615.091c-0.1,0.1-0.1,0.1-0.2,0.2l0,0l-16.8-37.6l-2.7-0.9l1-3l-40.1-92.4 l163.3-55.9l73.5,117.2l0,0c-0.1,0.1-0.2,0.3-0.2,0.6c0.1,0.7,0.7,1.5-0.3,1.3s-4.4-0.9-5.1-0.9c-0.6-0.1-4.2-0.4-4.8,0 c-0.6,0.4-1.8,1.4-2.4,1.3c-0.6-0.1-3.3-0.6-5.1-0.5c-1.8,0.1-4.2,0.8-4.7,1s-1.9,0.9-2.7,0.8c-0.8-0.1-3.9-0.3-4.8-0.3 c-0.8,0.1-2.8,0-3.4,0.3s-2.1,0.5-3.3,0.4c-1.3-0.1-3,0.2-3.5,0.3s-4.7,1.4-5.3,1.6c-0.6,0.3-1.2,0.8-1.7,0.9 c-0.5,0.1-1.2-0.1-1.8,0.3c-0.6,0.3-2.3,2-2.4,2.7c-0.2,0.7-0.5,1.6-0.8,2.1s-0.9,1.6-0.9,2.1s0.3,0.8-0.1,1.6 c-0.3,0.8-0.4,1.3-1.1,1.5c-0.6,0.3-2.3,1-2.7,1.6c-0.4,0.6-0.9,1.1-1.5,1.4s-1.6,0.7-1.7,1.2s-0.5,1.1-0.8,1.4 c-0.3,0.4-1.9,4.1-1,4.8c0.9,0.8,2.5,1.4,2.9,1.8s1.8,1.8,1.3,3.2c-0.6,1.4-0.8,1.8-1.1,2.3s-0.8,2.6-1.2,2.8 c-0.4,0.3-0.9,0.3-0.9,0.9c0.1,0.7,1.4,2.4,0.6,2.9c-0.8,0.4-2.3,1.4-2.6,1.8c-0.3,0.4-0.8,1.3-0.6,1.9c0.2,0.6,0.1,1.4-0.4,1.8 c-0.5,0.4-1.3,2-1.7,2.6c-0.4,0.6-1.9,1.8-2.1,2.1c-0.3,0.3-1,1.1-1.4,1.6s-1.8,2.2-2,1.9c-0.3-0.3-0.5-0.9-0.9-0.8 c-0.4,0.1-0.5,0.2-1,0.4s-0.9,0.6-1.4,0.6c-0.4,0-1-0.1-1.3,0.3c-0.3,0.4-0.4,0.4-0.8,0.4s-1.1-0.1-1.5,0.2s-1.1,0.6-1.6,0.6 s-1.8-0.1-2.3,0.1c-0.5,0.2-1.8,0.9-2.6,0.8c-0.9-0.1-1.4-0.3-1.9-0.3s-2.1-0.3-2.4-0.3c-0.3,0-2.2-0.3-1.8-0.8 c0.4-0.4,1.5-2-0.7-2.4c-2.2-0.4-3.3-0.2-4.1-0.4c-0.9-0.2-2.6-0.3-3.3-0.3c-0.7,0-2.8-0.8-3.8-0.3c-1,0.4-1.8,0.6-2.6,0.5 c-0.8-0.1-2.4-0.6-2.9-0.4c-0.5,0.2-0.8,0.4-1.3,0.4c-0.6,0-2.9-0.1-3.8-0.1c-0.9,0.1-3.6,0.3-4.4,0.4c-0.9,0.2-2.3,0.3-2.8,0.4 c-0.6,0.1-1.6,0.4-2.1,0.1s-2.3-0.6-2.8-0.3c-0.4,0.4-1.1,0.9-1.9,1.3c-0.8,0.4-2.7,0.5-2.5,1.4s0.6,1.1,0.2,1.6 c-0.4,0.5-1.8,2.2-2.4,2c-0.6-0.2-1.5-0.6-2.1-0.3s-2,0.9-2.8,0.9s-2.4,0.1-2.8,0.2c-0.4,0.1-2,1.1-2.6,1.2 c-0.6,0.1-1.4-0.1-1.9,0.6c-0.6,0.7-1.4,1.3-2.1,1.7c-0.6,0.4-1.1,0.9-1.5,1.3c-0.4,0.3-1.5,0.9-2,1.1s-0.9,0.4-1.4,0.9 c-0.6,0.4-1.2,1.1-1.9,0.8c-0.8-0.3-2.7-0.8-3.7-0.7s-2-0.1-2.7,0s-2.8,0.4-3.3,0.5c-0.6,0.1-1.4,0.3-2.3,0.3 c-0.8,0.1-2.1,0.3-2.8,0.7c-0.8,0.4-1.4,1.1-2.3,1.1c-0.9,0-2.5,0.5-3.1,0.6C188.056,613.591,184.056,614.691,183.756,615.091z"></path> <g> <circle id="XMLID_46_" fill="#462657" cx="227.856" cy="529.492" r="5.3"></circle> </g> <path id="_x36_17_5_" fill="#FFFFFF" d="M402.456,232.091c0,0-0.2,2.9,0.2,4.6c0.4,1.7,1.7,4.4,1,5.4c-0.6,1-6.2,7.5-6.2,7.5 l-3.5-2.5l-9.6,30.6l0.8,5.4l-10.4,60.3l-60.9,7.5l13-40.5l-25.1-40.3c0,0,7.9-23.8,12.5-38.1c0.8,0,7.9,0.4,11.8,0 c4.2-0.4,7.9-4.2,9.6-5.4c1.7-1.3,3.5-2.5,5.4-2.5s4.4-1,4.4-3.3s-1.9-4.2-2.9-6.5s-0.6-4.2-0.2-5.6c0.4-1.5,5-2.1,6.7-2.5 s-1.2-3.3-1.9-4.6c-0.6-1.3-0.4-2.5,0-3.3s8.5-0.8,11.4-0.8c2,0,3.6-1,4.8-2c0.2,0.3,1.5,2.9,2.7,3.3c1.3,0.4,4.2,0.2,4.4,2.1 c0.2,1.9,0.4,4.8,1.5,5.6c1,0.8,2.1,1.3,2.7,2.7s2.9,5.6,5,5.4c2.1-0.2,4.6-1.3,5.4-1c0.8,0.2,2.7,0.2,3.3,1.7 c0.6,1.5,2.5,6.2,4,6.5c1.4,0.2,7.5-0.2,7.1,1.9c-0.4,2.1-2.5,2.7-1,4.2c1.2,1.2,2.8,3.2,4.3,4.4L402.456,232.091z"></path> <g> <circle id="XMLID_45_" fill="#462657" cx="351.056" cy="287.591" r="5.3"></circle> </g> <path id="_x36_05_5_" fill="#FFFFFF" d="M453.914,207.953c0,0,0.188,6.873,0.188,9.416s0.565,1.977,1.412,3.107 c0.753,1.224-1.789,3.107-2.354,4.708s-2.542,1.412-3.955,1.789s-2.166,2.542-2.919,3.955c-0.753,1.412-1.412,2.919-1.601,4.143 s-1.977,1.977-2.919,2.73s-1.977,3.107-3.107,3.955c-1.224,0.753-6.497-1.601-8.003-1.789c-1.601-0.188-2.166,0.377-4.331,0.753 c-2.166,0.377-6.497-1.412-8.003-2.166c-1.601-0.753-2.166-1.789-2.354-3.107c-0.188-1.412-5.649-4.331-7.438-5.273 c-0.282-0.188-0.565-0.377-0.847-0.565c-1.506-1.13-2.919-3.013-4.049-4.143c-1.412-1.412,0.565-1.977,0.942-3.955 c0.377-1.977-5.273-1.601-6.685-1.789c-1.412-0.188-3.107-4.708-3.766-6.12c-0.565-1.412-2.354-1.412-3.107-1.601 c-0.753-0.188-3.107,0.753-5.084,0.942s-4.143-3.766-4.708-5.084c-0.565-1.412-1.601-1.789-2.542-2.542 c-0.942-0.753-1.224-3.484-1.412-5.273c-0.188-1.789-2.919-1.601-4.143-1.977c-1.13-0.377-2.354-2.825-2.542-3.107 c0.565-0.471,0.942-0.942,1.318-1.412c1.224-1.412-0.565-3.578-1.789-4.143c-1.224-0.565-2.542-1.601-2.919-3.295 c-0.377-1.789,1.224-4.896,1.224-6.685c0-1.789,1.601-2.542,3.295-3.295c1.789-0.753-0.188-1.601-0.942-2.542 c-0.753-0.942-3.107-0.753-4.331-1.601c-1.224-0.753-0.188-2.354,0-3.295s0.377-3.295,0.377-4.519c0-1.224-2.166-2.919-3.107-5.273 c-0.942-2.354,0.565-1.601,1.224-2.542c0.565-0.942-1.789-3.295-2.73-3.955c-0.753-0.471-1.318-0.753-1.601-0.942 c0.282-0.659,0.471-1.224,0.659-1.506c0.282-0.847,1.977-1.318,2.73-1.601c0.847-0.282,3.86-1.883,4.614-2.448 c0.753-0.471,1.224-2.542,1.318-3.295c0.094-0.753,0.942-2.071,0.942-2.071l0,0c0,0.188,0,0.377,0.094,0.471 c0.094,0.753,0,1.789,0.282,2.166c0.282,0.282,0.847,1.506,0.942,1.977c0.094,0.565,0.565,2.448,0.847,2.919 c0.282,0.565,1.318,1.789,1.695,2.542c0.377,0.753,1.695,3.484,1.789,4.143c0.094,0.659,1.318,4.049,1.506,4.425 c0.094,0.377,4.143,7.344,4.614,8.003c0.565,0.659,4.802,4.049,5.084,4.331c0.282,0.282,1.507,2.825,2.166,3.295 c0.565,0.471,2.636,1.977,2.73,2.448c0.188,0.377,1.036,3.201,1.695,4.049c0.753,0.753,1.695,2.919,2.166,3.295 c0.471,0.377,4.237,4.049,4.614,4.425c0.377,0.377,4.802,4.802,5.743,5.273c0.942,0.471,4.143,2.542,5.084,2.919 c0.847,0.377,8.568,3.107,10.64,3.484c1.977,0.377,4.99,1.13,5.555,1.506c0.565,0.377,5.461,2.448,6.873,2.73 c1.412,0.377,4.331,0.094,4.896,0s1.318-0.377,1.789,0.094c0.471,0.471,2.542,2.354,3.39,2.636 c0.847,0.282,4.331,0.847,5.743,0.471c1.13-0.282,2.448-0.377,3.295-0.377v0.188L453.914,207.953L453.914,207.953z"></path> <g> <circle id="XMLID_44_" fill="#462657" cx="406.456" cy="201.691" r="5.3"></circle> </g> <path id="_x36_13_5_" fill="#FFFFFF" d="M341.756,143.091c-0.3,0.8-1.3-0.2-2.2-0.5c-0.9-0.3,1,2.9,1.2,3.4s1.6,3.1,2.2,4 c0.5,0.9,1.6,0.7,2.4,0.9c0.8,0.2,1.3,0.1,1.8-0.5c0.4-0.4,1-1.9,1.6-3.1c0.3,0.1,0.9,0.5,1.7,1c1,0.6,3.5,3.1,2.9,4.2 c-0.6,1-2.3,0.2-1.3,2.7s3.3,4.4,3.3,5.6s-0.2,3.7-0.4,4.8c-0.2,1-1.3,2.7,0,3.5s3.7,0.6,4.6,1.7c0.8,1,2.9,1.9,1,2.7 s-3.5,1.7-3.5,3.5c0,1.9-1.7,5.2-1.3,7.1c0.4,1.9,1.9,2.9,3.1,3.5c1.3,0.6,3.1,2.9,1.9,4.4c-0.4,0.5-0.9,1-1.4,1.5 c-1.2,1.1-2.8,2-4.8,2c-2.9,0-11,0-11.4,0.8s-0.6,2.1,0,3.3c0.6,1.3,3.5,4.2,1.9,4.6c-1.7,0.4-6.2,1-6.7,2.5 c-0.4,1.5-0.8,3.3,0.2,5.6s2.9,4.2,2.9,6.5s-2.5,3.3-4.4,3.3s-3.7,1.3-5.4,2.5c-1.7,1.3-5.4,5-9.6,5.4c-3.9,0.4-10.9,0-11.8,0 c1.8-5.4,3-9.4,3.2-10.3c0.8-3,3.9-25.9,3.9-25.9l14.4-1.5l2.1-11.4c0,0-2.8,0.6-3.5,0.5c-0.6-0.1-2.4-0.8-2.9-1.3s3.2-4.5,4.1-5.6 c0.9-1.1-1.1-15-1.1-16.2s1.1-2.3,1.2-3.7c0.1-1.4-2.5-10.3-2.5-11.9c0-1.5,5.8-4.7,6.6-5.1c0.8-0.3,2.3-0.3,3-0.2 c0.8,0.1,1.8,1,2.3,1.5C341.656,139.591,342.056,142.291,341.756,143.091z"></path> <g> <circle id="XMLID_43_" fill="#462657" cx="331.856" cy="203.992" r="5.3"></circle> </g> <path id="_x36_21_5_" fill="#4BA28F" d="M406.556,233.492c1.9,1,7.7,4.2,7.9,5.6c0.2,1.5,0.8,2.5,2.5,3.3s6.2,2.7,8.5,2.3 s2.9-1,4.6-0.8s7.3,2.7,8.5,1.9c1.3-0.8,2.3-3.3,3.3-4.2c1-0.8,2.9-1.7,3.1-2.9c0.2-1.3,0.8-2.9,1.7-4.4c0.8-1.5,1.7-3.7,3.1-4.2 c1.5-0.4,3.5-0.2,4.2-1.9c0.6-1.7,3.3-3.7,2.5-5c0,0,2.7-1,3.3,0c0.6,1,0.4,2.5,1.5,3.3c1,0.8,2.5,1,3.1,2.1c0.6,1,3.3,5.2,5,6.4 c0,0-0.4,1.5,0.4,3.1c0.8,1.7,1.4,3.7,1.7,5.2c0.2,1.5,1.5,4.2-0.2,4.2s-3.7-0.4-4.6,0c-0.8,0.4-4.4,3.1-6,3.5 c-1.7,0.4-3.3,0.6-4.6,1.9s-3.8,2.5-3.8,3.5c0,1,0,6,0,6l-3.1,1.5l4.8,109.2l-76.1-28.9l10.4-60.3l-0.8-5.4l9.6-30.6l3.5,2.5 c0,0,5.6-6.5,6.2-7.5s-0.6-3.8-1-5.4c-0.4-1.7-0.2-4.6-0.2-4.6l0.2-0.2C405.956,233.191,406.256,233.391,406.556,233.492z"></path> <g> <circle id="XMLID_42_" fill="#462657" cx="421.256" cy="290.091" r="5.3"></circle> </g> <path id="_x36_23_5_" fill="#FFFFFF" d="M476.703,402.913c-0.288,0.098-2.875,0.783-3.163,0.88s-0.479-0.098-0.958-0.391 c-0.479-0.293-1.054-0.685-1.533-0.783c-0.479-0.098-2.3-0.489-2.3-1.076c0-0.587,0.671-3.131,0.863-2.446 c0.288,0.685,0.767,1.565,1.054,1.272c0.288-0.293,0.383-0.587,0.096-0.978c-0.288-0.391-0.383-1.761,0-3.033h0.096 c3.354,1.467,4.025-3.62,4.409-6.065s-0.767-7.533-0.767-7.533l-16.293-8.511l-4.6-106.83l2.971-1.467c0,0,0-4.891,0-5.87 s2.396-2.25,3.642-3.424s2.779-1.467,4.409-1.859c1.629-0.391,4.984-3.033,5.75-3.424s2.779,0,4.409,0 c1.629,0,0.383-2.641,0.192-4.109c-0.192-1.467-0.767-3.424-1.629-5.087c-0.767-1.663-0.383-3.033-0.383-3.033 c1.629,1.272,6.996,5.283,8.53,5.478c1.629,0.196,3.354-0.391,4.409,0.783c0.958,1.272,4.6,4.305,6.23,6.065 c1.629,1.859,7.763,5.478,9.009,5.283c1.15-0.196,2.204-2.054,3.163-2.054c0.958,0,2.588,0.391,2.588,0.391l-0.192,7.337h14.759 l0.192-0.098c0.287,0.783,0.767,2.935,1.821,3.522c1.15,0.587,1.821,1.272,2.109,1.565c0.287,0.391,0.479,1.272,0.958,1.565 s1.342,1.272,1.438,1.565c0.096,0.293,0.479,1.272,0.958,1.467c0.479,0.196,1.917,1.761,2.108,2.054 c0.192,0.293,4.409,3.228,4.121,3.326c-0.287,0.098-0.863,1.174-0.287,1.272c0.575,0.098,1.342-0.196,1.725-0.391 c0.383-0.293,1.246-0.587,1.629-0.587c0.383,0,2.779-0.196,3.163,0.098c0.383,0.293,1.533,1.174,1.725,1.174 s2.204,0.489,2.013,1.076c-0.192,0.587-0.479,0.978-0.096,1.272c0.383,0.293,1.629,0.783,1.725,0.293s-0.863-1.565-0.383-1.761 c0.479-0.196,1.342-1.37,2.204-0.685c0.767,0.685,0.767,1.076,1.054,1.565c0.287,0.489,2.204,4.109,1.821,4.696 c-0.383,0.587-0.767,1.37-0.767,2.054c0,0.587,0.096,2.348,0.096,3.033c0,0.587-0.096,3.815-0.288,4.5 c-0.096,0.783-0.575,3.131-0.863,3.522c-0.288,0.391-1.629,3.033-2.013,3.522c-0.383,0.587-1.246,1.076-1.438,1.565 c-0.192,0.391-0.767,1.663-1.246,1.957s-1.342,1.076-1.342,1.565c-0.096,0.489,0,2.348-0.383,2.935s-0.863,1.37-0.767,2.054 c0.096,0.685-0.671,3.326-1.15,3.522c-0.479,0.196-2.779,2.348-2.779,2.935s-0.575,2.25-1.054,2.641 c-0.479,0.391-2.779,2.739-3.163,3.424c-0.288,0.783-0.958,4.305-1.246,5.674c-0.288,1.272-1.438,3.718-1.821,4.305 c-0.383,0.587-2.204,3.033-2.492,3.522c-0.287,0.489-1.15,1.957-1.246,2.544s-0.096,2.054-0.767,2.348 c-0.671,0.293-3.067,1.076-3.546,1.565c-0.479,0.489-2.3,1.37-2.684,1.565c-0.287,0.196-3.929,2.641-4.217,3.033 c-0.287,0.391-3.259,2.544-3.642,3.131c-0.383,0.587-3.163,4.305-3.738,4.794c-0.671,0.489-3.929,3.326-4.217,4.109 c-0.288,0.783-2.779,3.815-3.067,4.402c-0.288,0.587-2.013,2.739-2.013,3.228c0.096,0.587,0.096,3.033-0.958,3.815 c-1.054,0.783-2.204,1.565-2.204,1.859c0,0.391,0.192,1.957-0.383,2.054s-1.533,0.587-1.821,0.783 c-0.288,0.196-0.863,0.391-0.767,0.88c0.096,0.391,0.288,0.783-0.192,0.88c-0.383,0.196-0.671,0.391-0.575,0.88 c0.096,0.489,0.096,1.663,0.863,1.761c0.767,0.098,1.246,0,1.533-0.489c0.288-0.489,1.246-1.761,1.246-1.076 c-0.096,0.783-0.288,1.859-0.767,2.054c-0.575,0.098-0.863,0.196-1.054,0.489c-0.192,0.293-0.863,0.88-1.054,0.783 c-0.096-0.196-0.479-0.783-0.575-0.196c-0.096,0.587-0.383,1.859-0.863,2.25c-0.479,0.293-2.684,1.859-2.875,2.739 c-0.288,0.88-0.767,2.837-0.863,3.424c-0.096,0.587-0.383,1.859-0.575,2.054c-0.192,0.196-1.054,1.272-1.15,1.761 c-0.096,0.391-0.192,2.348-0.288,2.837c-0.096,0.489-0.288,3.228-1.15,3.326c-0.863,0.098-1.438,0.196-1.629,0.783 s-0.767,2.25-1.725,2.348s-2.492-0.293-2.971-0.587C478.141,403.5,476.991,402.815,476.703,402.913z"></path> <g> <circle id="XMLID_41_" fill="#462657" cx="496.056" cy="333.591" r="5.3"></circle> </g> <path fill="#FFFFFF" d="M502.867,389.608c0.671-0.391,0.671-2.544,0.767-3.424s1.15-0.978,1.725-0.978 c0.575,0,0.383,1.37,0.096,2.446c0,0-0.479,1.761-0.479,2.544c0,0.783,0.958,1.272,1.438,1.663 c0.575,0.391,0.192,1.859,0.575,2.837c0.383,0.978-0.575,1.565-1.342,2.054c-0.671,0.489-2.492,1.467-3.354,2.25 c-0.863,0.685-1.438,1.957-1.629,3.326c-0.192,1.37-1.342,0.196-2.204,0.196c-0.863-0.098,0.479,1.272,1.054,1.565 c0.575,0.293-0.192,2.641-0.383,3.033c-0.192,0.391-0.288,1.076-0.671,1.663c-0.383,0.587-2.588,3.131-2.971,3.424 c-0.479,0.293-2.3,2.25-3.163,2.544s-0.863-1.565-0.863-2.739s-0.288-3.717-0.192-4.207c0.192-0.489,0.096-2.348,0-2.739 c-0.096-0.391,1.917-3.033,2.684-3.424c0.767-0.391,0.383-1.076,0.383-1.467c0-0.391,1.15-0.685,1.533-0.293 c0.383,0.391,1.438,0,2.013-0.489c0.671-0.489,1.054-2.837,1.054-3.815s2.108-4.011,2.396-4.598 C501.717,390.391,502.197,389.999,502.867,389.608z"></path> <path id="_x34_51_5_" fill="#FFFFFF" d="M459.556,208.891c0.7,0.1,5.3,1.3,6.1,1.6c0.9,0.3,3.3,1.6,3.7,2.1 c0.4,0.5,0.1,1.8,5.3,2.1c0,0,3.6,0.2,4.2,0s2.2-0.8,2.6-1.1s0.8-1,1.4-0.8s0.9,0.2,1.4,0.2c0.4,0,1.9-0.3,2.4-0.2s2.4,0.9,2.4,1.4 c0,0.6-0.2,1.2,0.1,1.6c0.3,0.4,1.1,1.8,1.6,1.8c0.4,0,1.3,0.1,1.4,0.3s1.3,0.9,1.7,1.2c0.4,0.3,0.9,0.3,1.3,0.2s0.9-0.6,1.3-0.3 c0.3,0.3,1.9,2,1.8,2.6s0.4,4.6,1.2,5.1c0.8,0.5,2.2,1.5,2.5,1.9s3.8,2.5,4.1,3.4c0.4,0.9,0.8,3.4,1.4,3.6c0.6,0.3,2.1,2.1,2.1,2.8 c0.1,0.6,1,3.7,1.8,4.2s2.2,1.1,2.3,1.8s0.6,2.3,0.9,2.8c0.3,0.4,2.7,1.9,3.4,2.4c0.7,0.5,2.1,1.3,2.6,1.7c0.4,0.4,2.2,1.9,2.3,2.5 c0.1,0.6,1.1,3.7,1.4,4.3c0,0,0,0.1,0.1,0.1l-0.2,0.1h-15.4l0.2-7.5c0,0-1.7-0.4-2.7-0.4s-2.1,1.9-3.3,2.1 c-1.3,0.2-7.7-3.5-9.4-5.4c-1.7-1.9-5.4-5-6.5-6.2c-1-1.3-2.9-0.6-4.6-0.8s-7.3-4.4-8.9-5.6c-1.7-1.2-4.4-5.4-5-6.4 s-2.1-1.3-3.1-2.1s-0.8-2.3-1.5-3.3c-0.6-1-3.3,0-3.3,0c-0.8-1.3-1.5-0.6-1.5-3.3s-0.2-10-0.2-10v-0.2 C459.056,208.891,459.356,208.891,459.556,208.891z"></path> <g> <circle id="XMLID_40_" fill="#462657" cx="492.356" cy="225.492" r="5.3"></circle> </g> <path id="_x36_25_5_" fill="#FFFFFF" d="M469.781,392.039c-0.393,2.453-0.981,7.556-4.514,6.084h-0.098 c0.098-0.196,0.098-0.491,0.196-0.687c0.589-1.374,2.061-4.514,0.785-5.103c-1.374-0.589-1.57-0.491-2.257-0.294 c-0.687,0.294-1.766,0.393-2.257,0.589c-0.589,0.294-1.865,1.079-2.355,1.178c-0.393,0.098-2.257,0.981-2.453,1.374 c-0.294,0.393-0.589,2.159-0.491,2.748c0.098,0.589,0.589,1.766-0.196,1.963c-0.785,0.196-4.22,1.865-4.809,2.65 c-0.589,0.785-1.276,1.57-0.883,2.551c0.393,0.883,1.276,1.178,0.883,1.963c-0.294,0.785-0.294,1.374-1.079,1.57 c-0.785,0.196-1.963,1.079-2.551,1.276c-0.589,0.294-2.159,1.276-2.355,1.766c-0.294,0.393-0.589,1.472-0.981,1.963 c-0.393,0.491-0.785,1.276-0.785,1.668c0,0.393,0.098,1.766,0.294,2.061c0.294,0.294,0.687,1.57,0.687,2.061 c0,0.589-0.393,3.238-0.491,3.729c-0.098,0.589-1.079,2.748-1.079,3.337c0.098,0.589,0.294,1.57-0.098,2.257 c-0.393,0.687-1.276,1.766-1.374,3.042s-0.196,2.944-0.687,3.337c-0.491,0.393-2.257,3.238-2.355,3.729 c-0.196,0.393-1.374,1.766-1.57,2.355s-0.196,3.042,0.294,3.337c0.393,0.294,1.374,0.393,1.374,1.276 c0,0.785,0.098,4.122-0.294,4.514c-0.393,0.393-0.981,0.883-0.687,1.57c0.294,0.687,2.65,4.514,2.944,5.495 c0.294,0.883,1.079,2.257,1.079,2.944c0,0.687-0.491,3.435-0.785,4.023c-0.294,0.589-0.883,1.865-0.785,2.453 s1.766,5.103,2.257,5.692c0.393,0.589,1.668,1.276,1.374,2.061c-0.294,0.785-0.981,2.846-0.785,3.238 c0.294,0.393,1.079,1.276,1.079,1.668c0.098,0.393,0.785,1.079,0.981,1.276c0.196,0.294,0.785,0.883,0.196,1.57 c-0.589,0.589-1.57,2.355-2.551,2.257c-1.079-0.196-1.57,0.098-2.159,0.491c-0.589,0.393-1.276,1.472-2.355,1.374 c-1.079-0.098-5.692,0.098-6.673-0.294c-0.981-0.294-3.631-0.294-4.22-0.294c-0.589,0-5.495,0.687-6.771,0.883 c-1.374,0.294-3.042,0.294-3.631,0.589c-0.589,0.294-1.374,0.785-1.865,0.785c-0.393,0.098-1.178,0-1.57,0.098 c-0.393,0.098-2.65,0.883-3.042,0.883c-0.393,0.098-2.061,0.294-2.748,0.589c-0.687,0.294-4.318,1.276-5.103,1.57 c-0.785,0.393-3.042,1.374-4.023,1.865c-1.079,0.491-3.042,1.766-3.631,1.963c-0.589,0.294-1.865,1.079-2.551,1.472 s-2.944,2.159-3.14,2.551c-0.196,0.393-4.514,5.005-4.907,5.397c-0.393,0.393-1.374,1.079-1.668,1.276 c-0.294,0.294-0.883,1.178-0.981,1.668c-0.098,0.491-0.098,3.042-0.098,3.729c0,0.687,0.785,2.748,0.098,3.337 c-0.589,0.589-1.963,2.159-1.865,3.042c0.098,0.883,0.098,3.238-0.098,3.827c-0.196,0.687-1.079,3.238-1.374,3.827 c-0.294,0.589-1.57,2.552-1.374,3.14c0.196,0.589,0.589,3.336,0.098,3.827c-0.491,0.393-1.276,1.472-1.865,1.766 c-0.687,0.294-2.846,0.687-3.238,1.472c-0.294,0.785-0.785,2.65-1.276,3.14c-0.589,0.491-1.178,0.785-1.374,1.079 c-0.196,0.294-0.883,1.374-1.668,1.865c-0.491,0.393-0.883,0.491-1.079,0.785l0,0l-72.128-115.012l0,0l23.258-72.324l59.763-7.36 l74.679,28.361l16.683,8.538C468.898,384.483,470.174,389.586,469.781,392.039z"></path> <g> <circle id="XMLID_39_" fill="#462657" cx="379.356" cy="442.491" r="5.3"></circle> </g> <path id="_x36_15_5_" fill="#FFFFFF" d="M373.056,62.291c0,0,0.3,0.6,0.5,1c0.1,0.4,0.5,0.6-0.1,0.6s-1.8-0.1-2.1-0.1 c-0.4,0.1-2,0.5-2.2,1s-0.5,0.6-0.8,0.8c-0.3,0.3-0.4,0.6-0.4,1c0.1,0.4,0.9,0.8,1.1,1.1c0.1,0.3,0.7,0.8,0.9,0.7 c0.3-0.1,0.6-0.6,1.2-0.6s1.1-0.3,0.9,0.4c-0.1,0.6-0.4,2.7-0.8,2.4c-0.4-0.3-0.6-0.9-0.9-0.9s-0.6,0-0.6,0.4 c-0.1,0.4-0.1,1.6,0.3,1.6s0.9,0.1,1.2,0.6c0.3,0.5,0.8,1.9,0.1,1.6c-0.7-0.3-1.3-0.8-1.6-0.8c-0.4,0.1-1.2,0.1-1.4-0.4 c-0.2-0.5-0.4-1.6-0.7-1.3c-0.3,0.4-1.3,0.8-1.1,0.2c0.2-0.6,0.5-1.3,0.1-1.4c-0.4-0.1-0.5-0.1-0.9,0.4c-0.4,0.4-1.3,1.1-1.6,1.3 c-0.3,0.3-0.8,0.5-0.4,0.8c0.4,0.3,0.4,0.3,0.4,0.8c0,0.6-0.1,2.1,0.3,1.7c0.3-0.4,0.4-1.6,0.9-1.6s0.8-0.3,0.8,0.4 s0.1,2.6,0.4,2.4c0.3-0.2,0.9-0.4,1.3-0.3c0.4,0.1,1.8,0.3,2.3,0.3s1.9,0.4,1.1,0.6c-0.8,0.2-1.4,0.1-1.4,0.5s-0.1,1.2-0.6,1.3 c-0.6,0.1-1.8-0.1-2.1,0.3c-0.3,0.4-0.4,1.4,0,1.4c0.4-0.1,0.9-0.4,1.3-0.3c0.4,0.1,0.8,0.4,0.8,0.8s-0.1,1-0.4,1.2 c-0.3,0.2-1.3,0.9-0.8,1c0.5,0.1,0.8,0.3,0.8,0.6c0,0.4,0.1,0.8,0.4,0.8s0.9-0.1,0.9,0.4c-0.1,0.6-0.1,0.8-0.6,0.8 c-0.4-0.1-2.3-0.4-2.3,0.2s0.7,0.9,0.6,1.6c-0.1,0.6-0.3,1.9-0.7,1.9c-0.4,0.1-1,0.4-1,0.8c0,0.4-0.1,0.9-0.1,1.3s-0.3,1.9-0.6,2.1 c-0.3,0.1-0.8,0.4-0.8,0.8c-0.1,0.3-1.2,2.8-1.5,2.4c-0.3-0.4-0.6-0.8-0.9-0.3s-0.8,1.3-0.9,1.8c-0.1,0.6-0.1,1.7-0.1,2.4 c0,0.4,0,1.1,0,1.8h-0.2c-0.5,0-2.2,0.3-3.3,0.2c-1.2-0.1-2.3-2-2.6-2.9c-0.3-0.9-0.1-4.6-0.1-5.3c0-0.6-1-3.2-1.1-3.9 c-0.1-0.7,0.8-2.4,0.8-2.4s0.3-2.2,0.3-2.9c0-0.8,0.9-1.7,1.2-2.4c0.3-0.7,0.3-2.7,0.1-3.5c-0.2-0.8-1.2-1.8-1.7-2.3 c-0.5-0.4-2.2-0.4-2.7-0.4c1.1-2.3,3.1-5.7,3.3-6.1c0.3-0.6,1-2.3,1.6-3.4s1.2,1.1,1.2,1.8c0,0.7,0.2,0.8,0.8,0.7 c0.6-0.2,2-0.3,2.5-0.5c0.5-0.2,1.1,1.2,1.8,1.2c0.7,0,2.5-0.7,2.8-1.1s0.9-0.1,1.5-0.1s0.6,0,0.6-0.6c0-0.6-1.8-0.6-2.5-0.5 c-0.8,0.1-1.3,1.1-1.9,1c-0.6-0.1,0.1-2.1,0.2-2.9c0.1-0.7,0.9,0.1,1.3,0.4c0.4,0.3,0.5,0.1,0.8-0.5c0.3-0.6-1.6-1.6-1.9-2.2 s0.5-0.6,1.1-0.8c0.7-0.2,0.4-0.6,0.3-0.9c-0.1-0.4,0.3-1.1,0.5-1.7c0.2-0.6,0.7-0.2,1.3,0.2c0.6,0.4,0.8,0.5,0.9,0.7 c0.2,0.3,0.6,0.6,1.1,0.6c0.6,0,1.6,0.8,2.2,0.7c0.7-0.1,0.7-0.6,0.7-1C372.056,61.491,372.756,61.991,373.056,62.291z"></path> <g> <circle id="XMLID_38_" fill="#462657" cx="362.556" cy="84.191" r="5.3"></circle> </g> </g> </svg> 