<?xml version="1.0" encoding="UTF-8"?> <!-- Generator: Adobe Illustrator 23.0.3, SVG Export Plug-In . SVG Version: 6.00 Build 0) --> <svg xmlns="http://www.w3.org/2000/svg" xmlns:xlink="http://www.w3.org/1999/xlink" id="Layer_1" x="0px" y="0px" viewBox="0 0 674.4 674.4" style="enable-background:new 0 0 674.4 674.4;" xml:space="preserve"> <style type="text/css"> .st0{fill:#004A63;} .st1{fill:#FFFFFF;} .st2{fill:#4BA28F;} .st3{fill:#462657;} </style> <g> <circle class="st0" cx="338" cy="337.5" r="327.8"></circle> <path class="st1" d="M338,674.8c-90.1,0-174.8-35.1-238.4-98.8S0.8,427.6,0.8,337.5S35.9,162.8,99.6,99.1S248,0.3,338,0.3 s174.8,35.1,238.4,98.8s98.8,148.4,98.8,238.4S640.2,512.3,576.5,576S428.1,674.8,338,674.8z M338,19.1 c-85.1,0-165,33.1-225.2,93.3S19.6,252.5,19.6,337.5s33.1,165,93.3,225.2C173,622.8,253,656,338,656s165-33.1,225.2-93.3 c60.1-60.1,93.3-140.1,93.3-225.2s-33.1-165-93.3-225.2S423.1,19.1,338,19.1z"></path> </g> <g> <path id="_x38_5" class="st2" d="M183.6,614.8c-0.1,0.1-0.1,0.1-0.2,0.2l0,0l-16.8-37.6l-2.7-0.9l1-3l-40.1-92.4l163.3-55.9 l73.5,117.2l0,0c-0.1,0.1-0.2,0.3-0.2,0.6c0.1,0.7,0.7,1.5-0.3,1.3s-4.4-0.9-5.1-0.9c-0.6-0.1-4.2-0.4-4.8,0 c-0.6,0.4-1.8,1.4-2.4,1.3c-0.6-0.1-3.3-0.6-5.1-0.5c-1.8,0.1-4.2,0.8-4.7,1s-1.9,0.9-2.7,0.8c-0.8-0.1-3.9-0.3-4.8-0.3 c-0.8,0.1-2.8,0-3.4,0.3s-2.1,0.5-3.3,0.4c-1.3-0.1-3,0.2-3.5,0.3s-4.7,1.4-5.3,1.6c-0.6,0.3-1.2,0.8-1.7,0.9 c-0.5,0.1-1.2-0.1-1.8,0.3c-0.6,0.3-2.3,2-2.4,2.7c-0.2,0.7-0.5,1.6-0.8,2.1s-0.9,1.6-0.9,2.1s0.3,0.8-0.1,1.6 c-0.3,0.8-0.4,1.3-1.1,1.5c-0.6,0.3-2.3,1-2.7,1.6c-0.4,0.6-0.9,1.1-1.5,1.4s-1.6,0.7-1.7,1.2s-0.5,1.1-0.8,1.4 c-0.3,0.4-1.9,4.1-1,4.8c0.9,0.8,2.5,1.4,2.9,1.8s1.8,1.8,1.3,3.2c-0.6,1.4-0.8,1.8-1.1,2.3s-0.8,2.6-1.2,2.8 c-0.4,0.3-0.9,0.3-0.9,0.9c0.1,0.7,1.4,2.4,0.6,2.9c-0.8,0.4-2.3,1.4-2.6,1.8c-0.3,0.4-0.8,1.3-0.6,1.9c0.2,0.6,0.1,1.4-0.4,1.8 c-0.5,0.4-1.3,2-1.7,2.6c-0.4,0.6-1.9,1.8-2.1,2.1c-0.3,0.3-1,1.1-1.4,1.6s-1.8,2.2-2,1.9c-0.3-0.3-0.5-0.9-0.9-0.8 c-0.4,0.1-0.5,0.2-1,0.4s-0.9,0.6-1.4,0.6c-0.4,0-1-0.1-1.3,0.3c-0.3,0.4-0.4,0.4-0.8,0.4s-1.1-0.1-1.5,0.2s-1.1,0.6-1.6,0.6 s-1.8-0.1-2.3,0.1c-0.5,0.2-1.8,0.9-2.6,0.8c-0.9-0.1-1.4-0.3-1.9-0.3s-2.1-0.3-2.4-0.3s-2.2-0.3-1.8-0.8c0.4-0.4,1.5-2-0.7-2.4 s-3.3-0.2-4.1-0.4c-0.9-0.2-2.6-0.3-3.3-0.3c-0.7,0-2.8-0.8-3.8-0.3c-1,0.4-1.8,0.6-2.6,0.5c-0.8-0.1-2.4-0.6-2.9-0.4 c-0.5,0.2-0.8,0.4-1.3,0.4c-0.6,0-2.9-0.1-3.8-0.1c-0.9,0.1-3.6,0.3-4.4,0.4c-0.9,0.2-2.3,0.3-2.8,0.4c-0.6,0.1-1.6,0.4-2.1,0.1 s-2.3-0.6-2.8-0.3c-0.4,0.4-1.1,0.9-1.9,1.3c-0.8,0.4-2.7,0.5-2.5,1.4s0.6,1.1,0.2,1.6c-0.4,0.5-1.8,2.2-2.4,2 c-0.6-0.2-1.5-0.6-2.1-0.3s-2,0.9-2.8,0.9s-2.4,0.1-2.8,0.2c-0.4,0.1-2,1.1-2.6,1.2c-0.6,0.1-1.4-0.1-1.9,0.6 c-0.6,0.7-1.4,1.3-2.1,1.7c-0.6,0.4-1.1,0.9-1.5,1.3c-0.4,0.3-1.5,0.9-2,1.1s-0.9,0.4-1.4,0.9c-0.6,0.4-1.2,1.1-1.9,0.8 c-0.8-0.3-2.7-0.8-3.7-0.7s-2-0.1-2.7,0s-2.8,0.4-3.3,0.5c-0.6,0.1-1.4,0.3-2.3,0.3c-0.8,0.1-2.1,0.3-2.8,0.7 c-0.8,0.4-1.4,1.1-2.3,1.1c-0.9,0-2.5,0.5-3.1,0.6C187.9,613.3,183.9,614.4,183.6,614.8z"></path> <g> <circle id="XMLID_61_" class="st3" cx="227.7" cy="529.2" r="5.3"></circle> </g> <path id="_x36_17" class="st1" d="M402.3,231.8c0,0-0.2,2.9,0.2,4.6c0.4,1.7,1.7,4.4,1,5.4c-0.6,1-6.2,7.5-6.2,7.5l-3.5-2.5 l-9.6,30.6l0.8,5.4l-10.4,60.3l-60.9,7.5l13-40.5l-25.1-40.3c0,0,7.9-23.8,12.5-38.1c0.8,0,7.9,0.4,11.8,0c4.2-0.4,7.9-4.2,9.6-5.4 c1.7-1.3,3.5-2.5,5.4-2.5s4.4-1,4.4-3.3s-1.9-4.2-2.9-6.5s-0.6-4.2-0.2-5.6c0.4-1.5,5-2.1,6.7-2.5s-1.2-3.3-1.9-4.6 c-0.6-1.3-0.4-2.5,0-3.3s8.5-0.8,11.4-0.8c2,0,3.6-1,4.8-2c0.2,0.3,1.5,2.9,2.7,3.3c1.3,0.4,4.2,0.2,4.4,2.1 c0.2,1.9,0.4,4.8,1.5,5.6c1,0.8,2.1,1.3,2.7,2.7s2.9,5.6,5,5.4c2.1-0.2,4.6-1.3,5.4-1c0.8,0.2,2.7,0.2,3.3,1.7 c0.6,1.5,2.5,6.2,4,6.5c1.4,0.2,7.5-0.2,7.1,1.9c-0.4,2.1-2.5,2.7-1,4.2c1.2,1.2,2.8,3.2,4.3,4.4L402.3,231.8z"></path> <g> <circle id="XMLID_59_" class="st3" cx="350.9" cy="287.3" r="5.3"></circle> </g> <path id="_x36_05" class="st1" d="M453.7,207.7c0,0,0.2,6.9,0.2,9.4s0.6,2,1.4,3.1c0.8,1.2-1.8,3.1-2.4,4.7c-0.6,1.6-2.5,1.4-4,1.8 s-2.2,2.5-2.9,4c-0.8,1.4-1.4,2.9-1.6,4.1s-2,2-2.9,2.7c-0.9,0.8-2,3.1-3.1,4c-1.2,0.8-6.5-1.6-8-1.8c-1.6-0.2-2.2,0.4-4.3,0.8 c-2.2,0.4-6.5-1.4-8-2.2c-1.6-0.8-2.2-1.8-2.4-3.1c-0.2-1.4-5.6-4.3-7.4-5.3c-0.3-0.2-0.6-0.4-0.8-0.6c-1.5-1.1-2.9-3-4-4.1 c-1.4-1.4,0.6-2,0.9-4c0.4-2-5.3-1.6-6.7-1.8s-3.1-4.7-3.8-6.1c-0.6-1.4-2.4-1.4-3.1-1.6s-3.1,0.8-5.1,0.9s-4.1-3.8-4.7-5.1 c-0.6-1.4-1.6-1.8-2.5-2.5c-0.9-0.8-1.2-3.5-1.4-5.3s-2.9-1.6-4.1-2c-1.1-0.4-2.4-2.8-2.5-3.1c0.6-0.5,0.9-0.9,1.3-1.4 c1.2-1.4-0.6-3.6-1.8-4.1s-2.5-1.6-2.9-3.3c-0.4-1.8,1.2-4.9,1.2-6.7s1.6-2.5,3.3-3.3c1.8-0.8-0.2-1.6-0.9-2.5 c-0.8-0.9-3.1-0.8-4.3-1.6c-1.2-0.8-0.2-2.4,0-3.3c0.2-0.9,0.4-3.3,0.4-4.5s-2.2-2.9-3.1-5.3s0.6-1.6,1.2-2.5 c0.6-0.9-1.8-3.3-2.7-4c-0.8-0.5-1.3-0.8-1.6-0.9c0.3-0.7,0.5-1.2,0.7-1.5c0.3-0.8,2-1.3,2.7-1.6c0.8-0.3,3.9-1.9,4.6-2.4 c0.8-0.5,1.2-2.5,1.3-3.3c0.1-0.8,0.9-2.1,0.9-2.1l0,0c0,0.2,0,0.4,0.1,0.5c0.1,0.8,0,1.8,0.3,2.2c0.3,0.3,0.8,1.5,0.9,2 c0.1,0.6,0.6,2.4,0.8,2.9c0.3,0.6,1.3,1.8,1.7,2.5s1.7,3.5,1.8,4.1c0.1,0.7,1.3,4,1.5,4.4c0.1,0.4,4.1,7.3,4.6,8 c0.6,0.7,4.8,4,5.1,4.3s1.5,2.8,2.2,3.3c0.6,0.5,2.6,2,2.7,2.4c0.2,0.4,1,3.2,1.7,4c0.8,0.8,1.7,2.9,2.2,3.3s4.2,4,4.6,4.4 c0.4,0.4,4.8,4.8,5.7,5.3s4.1,2.5,5.1,2.9c0.8,0.4,8.6,3.1,10.6,3.5c2,0.4,5,1.1,5.6,1.5s5.5,2.4,6.9,2.7c1.4,0.4,4.3,0.1,4.9,0 s1.3-0.4,1.8,0.1s2.5,2.4,3.4,2.6c0.8,0.3,4.3,0.8,5.7,0.5c1.1-0.3,2.4-0.4,3.3-0.4v0.2L453.7,207.7L453.7,207.7z"></path> <g> <circle id="XMLID_54_" class="st3" cx="406.3" cy="201.4" r="5.3"></circle> </g> <path id="_x36_13" class="st1" d="M341.6,142.8c-0.3,0.8-1.3-0.2-2.2-0.5c-0.9-0.3,1,2.9,1.2,3.4s1.6,3.1,2.2,4 c0.5,0.9,1.6,0.7,2.4,0.9s1.3,0.1,1.8-0.5c0.4-0.4,1-1.9,1.6-3.1c0.3,0.1,0.9,0.5,1.7,1c1,0.6,3.5,3.1,2.9,4.2 c-0.6,1-2.3,0.2-1.3,2.7s3.3,4.4,3.3,5.6s-0.2,3.7-0.4,4.8c-0.2,1-1.3,2.7,0,3.5s3.7,0.6,4.6,1.7c0.8,1,2.9,1.9,1,2.7 s-3.5,1.7-3.5,3.5c0,1.9-1.7,5.2-1.3,7.1c0.4,1.9,1.9,2.9,3.1,3.5c1.3,0.6,3.1,2.9,1.9,4.4c-0.4,0.5-0.9,1-1.4,1.5 c-1.2,1.1-2.8,2-4.8,2c-2.9,0-11,0-11.4,0.8s-0.6,2.1,0,3.3c0.6,1.3,3.5,4.2,1.9,4.6c-1.7,0.4-6.2,1-6.7,2.5 c-0.4,1.5-0.8,3.3,0.2,5.6s2.9,4.2,2.9,6.5s-2.5,3.3-4.4,3.3s-3.7,1.3-5.4,2.5c-1.7,1.3-5.4,5-9.6,5.4c-3.9,0.4-10.9,0-11.8,0 c1.8-5.4,3-9.4,3.2-10.3c0.8-3,3.9-25.9,3.9-25.9l14.4-1.5l2.1-11.4c0,0-2.8,0.6-3.5,0.5c-0.6-0.1-2.4-0.8-2.9-1.3s3.2-4.5,4.1-5.6 s-1.1-15-1.1-16.2s1.1-2.3,1.2-3.7S329,144,329,142.4c0-1.5,5.8-4.7,6.6-5.1c0.8-0.3,2.3-0.3,3-0.2c0.8,0.1,1.8,1,2.3,1.5 C341.5,139.3,341.9,142,341.6,142.8z"></path> <g> <circle id="XMLID_56_" class="st3" cx="331.7" cy="203.7" r="5.3"></circle> </g> <path id="_x36_21" class="st1" d="M406.4,233.2c1.9,1,7.7,4.2,7.9,5.6c0.2,1.5,0.8,2.5,2.5,3.3s6.2,2.7,8.5,2.3s2.9-1,4.6-0.8 s7.3,2.7,8.5,1.9c1.3-0.8,2.3-3.3,3.3-4.2c1-0.8,2.9-1.7,3.1-2.9c0.2-1.3,0.8-2.9,1.7-4.4c0.8-1.5,1.7-3.7,3.1-4.2 c1.5-0.4,3.5-0.2,4.2-1.9c0.6-1.7,3.3-3.7,2.5-5c0,0,2.7-1,3.3,0c0.6,1,0.4,2.5,1.5,3.3c1,0.8,2.5,1,3.1,2.1c0.6,1,3.3,5.2,5,6.4 c0,0-0.4,1.5,0.4,3.1c0.8,1.7,1.4,3.7,1.7,5.2c0.2,1.5,1.5,4.2-0.2,4.2s-3.7-0.4-4.6,0c-0.8,0.4-4.4,3.1-6,3.5 c-1.7,0.4-3.3,0.6-4.6,1.9s-3.8,2.5-3.8,3.5c0,1,0,6,0,6l-3.1,1.5l4.8,109.2l-76.1-28.9l10.4-60.3l-0.8-5.4l9.6-30.6l3.5,2.5 c0,0,5.6-6.5,6.2-7.5s-0.6-3.8-1-5.4c-0.4-1.7-0.2-4.6-0.2-4.6l0.2-0.2C405.8,232.9,406.1,233.1,406.4,233.2z"></path> <g> <circle id="XMLID_58_" class="st3" cx="421.1" cy="289.8" r="5.3"></circle> </g> <path id="_x36_23" class="st1" d="M476.5,402.7c-0.3,0.1-2.9,0.8-3.2,0.9c-0.3,0.1-0.5-0.1-1-0.4s-1.1-0.7-1.5-0.8 s-2.3-0.5-2.3-1.1c0-0.6,0.7-3.1,0.9-2.4c0.3,0.7,0.8,1.6,1.1,1.3c0.3-0.3,0.4-0.6,0.1-1c-0.3-0.4-0.4-1.8,0-3h0.1 c3.4,1.5,4-3.6,4.4-6.1c0.4-2.4-0.8-7.5-0.8-7.5L458,374l-4.6-106.8l3-1.5c0,0,0-4.9,0-5.9s2.4-2.3,3.6-3.4 c1.2-1.2,2.8-1.5,4.4-1.9c1.6-0.4,5-3,5.8-3.4c0.8-0.4,2.8,0,4.4,0c1.6,0,0.4-2.6,0.2-4.1c-0.2-1.5-0.8-3.4-1.6-5.1 c-0.8-1.7-0.4-3-0.4-3c1.6,1.3,7,5.3,8.5,5.5c1.6,0.2,3.4-0.4,4.4,0.8c1,1.3,4.6,4.3,6.2,6.1c1.6,1.9,7.8,5.5,9,5.3 c1.1-0.2,2.2-2.1,3.2-2.1s2.6,0.4,2.6,0.4l-0.2,7.3h14.8l0.2-0.1c0.3,0.8,0.8,2.9,1.8,3.5c1.2,0.6,1.8,1.3,2.1,1.6 c0.3,0.4,0.5,1.3,1,1.6s1.3,1.3,1.4,1.6c0.1,0.3,0.5,1.3,1,1.5c0.5,0.2,1.9,1.8,2.1,2.1c0.2,0.3,4.4,3.2,4.1,3.3 c-0.3,0.1-0.9,1.2-0.3,1.3c0.6,0.1,1.3-0.2,1.7-0.4c0.4-0.3,1.2-0.6,1.6-0.6s2.8-0.2,3.2,0.1c0.4,0.3,1.5,1.2,1.7,1.2 c0.2,0,2.2,0.5,2,1.1c-0.2,0.6-0.5,1-0.1,1.3s1.6,0.8,1.7,0.3c0.1-0.5-0.9-1.6-0.4-1.8c0.5-0.2,1.3-1.4,2.2-0.7 c0.8,0.7,0.8,1.1,1.1,1.6c0.3,0.5,2.2,4.1,1.8,4.7s-0.8,1.4-0.8,2.1c0,0.6,0.1,2.3,0.1,3c0,0.6-0.1,3.8-0.3,4.5 c-0.1,0.8-0.6,3.1-0.9,3.5c-0.3,0.4-1.6,3-2,3.5c-0.4,0.6-1.2,1.1-1.4,1.6c-0.2,0.4-0.8,1.7-1.2,2s-1.3,1.1-1.3,1.6 c-0.1,0.5,0,2.3-0.4,2.9s-0.9,1.4-0.8,2.1s-0.7,3.3-1.2,3.5s-2.8,2.3-2.8,2.9s-0.6,2.3-1.1,2.6s-2.8,2.7-3.2,3.4 c-0.3,0.8-1,4.3-1.2,5.7c-0.3,1.3-1.4,3.7-1.8,4.3c-0.4,0.6-2.2,3-2.5,3.5c-0.3,0.5-1.2,2-1.2,2.5c-0.1,0.6-0.1,2.1-0.8,2.3 c-0.7,0.3-3.1,1.1-3.5,1.6s-2.3,1.4-2.7,1.6c-0.3,0.2-3.9,2.6-4.2,3c-0.3,0.4-3.3,2.5-3.6,3.1c-0.4,0.6-3.2,4.3-3.7,4.8 c-0.7,0.5-3.9,3.3-4.2,4.1s-2.8,3.8-3.1,4.4s-2,2.7-2,3.2c0.1,0.6,0.1,3-1,3.8c-1.1,0.8-2.2,1.6-2.2,1.9c0,0.4,0.2,2-0.4,2.1 c-0.6,0.1-1.5,0.6-1.8,0.8s-0.9,0.4-0.8,0.9c0.1,0.4,0.3,0.8-0.2,0.9c-0.4,0.2-0.7,0.4-0.6,0.9c0.1,0.5,0.1,1.7,0.9,1.8 s1.2,0,1.5-0.5c0.3-0.5,1.2-1.8,1.2-1.1c-0.1,0.8-0.3,1.9-0.8,2.1c-0.6,0.1-0.9,0.2-1.1,0.5c-0.2,0.3-0.9,0.9-1.1,0.8 c-0.1-0.2-0.5-0.8-0.6-0.2s-0.4,1.9-0.9,2.3c-0.5,0.3-2.7,1.9-2.9,2.7c-0.3,0.9-0.8,2.8-0.9,3.4s-0.4,1.9-0.6,2.1 c-0.2,0.2-1.1,1.3-1.1,1.8c-0.1,0.4-0.2,2.3-0.3,2.8s-0.3,3.2-1.1,3.3c-0.9,0.1-1.4,0.2-1.6,0.8c-0.2,0.6-0.8,2.3-1.7,2.3 s-2.5-0.3-3-0.6C477.9,403.3,476.8,402.6,476.5,402.7z"></path> <g> <circle id="XMLID_57_" class="st3" cx="495.9" cy="333.3" r="5.3"></circle> </g> <path class="st1" d="M502.7,389.4c0.7-0.4,0.7-2.5,0.8-3.4s1.1-1,1.7-1s0.4,1.4,0.1,2.4c0,0-0.5,1.8-0.5,2.5c0,0.8,1,1.3,1.4,1.7 c0.6,0.4,0.2,1.9,0.6,2.8c0.4,1-0.6,1.6-1.3,2.1c-0.7,0.5-2.5,1.5-3.4,2.3c-0.9,0.7-1.4,2-1.6,3.3c-0.2,1.4-1.3,0.2-2.2,0.2 c-0.9-0.1,0.5,1.3,1.1,1.6s-0.2,2.6-0.4,3c-0.2,0.4-0.3,1.1-0.7,1.7s-2.6,3.1-3,3.4c-0.5,0.3-2.3,2.3-3.2,2.5 c-0.9,0.3-0.9-1.6-0.9-2.7s-0.3-3.7-0.2-4.2c0.2-0.5,0.1-2.3,0-2.7c-0.1-0.4,1.9-3,2.7-3.4c0.8-0.4,0.4-1.1,0.4-1.5 c0-0.4,1.1-0.7,1.5-0.3s1.4,0,2-0.5c0.7-0.5,1.1-2.8,1.1-3.8s2.1-4,2.4-4.6C501.5,390.1,502,389.8,502.7,389.4z"></path> <path id="_x34_51" class="st1" d="M459.4,208.6c0.7,0.1,5.3,1.3,6.1,1.6c0.9,0.3,3.3,1.6,3.7,2.1c0.4,0.5,0.1,1.8,5.3,2.1 c0,0,3.6,0.2,4.2,0s2.2-0.8,2.6-1.1s0.8-1,1.4-0.8s0.9,0.2,1.4,0.2c0.4,0,1.9-0.3,2.4-0.2s2.4,0.9,2.4,1.4c0,0.6-0.2,1.2,0.1,1.6 c0.3,0.4,1.1,1.8,1.6,1.8c0.4,0,1.3,0.1,1.4,0.3s1.3,0.9,1.7,1.2c0.4,0.3,0.9,0.3,1.3,0.2s0.9-0.6,1.3-0.3c0.3,0.3,1.9,2,1.8,2.6 s0.4,4.6,1.2,5.1c0.8,0.5,2.2,1.5,2.5,1.9s3.8,2.5,4.1,3.4c0.4,0.9,0.8,3.4,1.4,3.6c0.6,0.3,2.1,2.1,2.1,2.8c0.1,0.6,1,3.7,1.8,4.2 s2.2,1.1,2.3,1.8s0.6,2.3,0.9,2.8c0.3,0.4,2.7,1.9,3.4,2.4s2.1,1.3,2.6,1.7c0.4,0.4,2.2,1.9,2.3,2.5s1.1,3.7,1.4,4.3 c0,0,0,0.1,0.1,0.1L524,258h-15.4l0.2-7.5c0,0-1.7-0.4-2.7-0.4s-2.1,1.9-3.3,2.1c-1.3,0.2-7.7-3.5-9.4-5.4c-1.7-1.9-5.4-5-6.5-6.2 c-1-1.3-2.9-0.6-4.6-0.8s-7.3-4.4-8.9-5.6c-1.7-1.2-4.4-5.4-5-6.4s-2.1-1.3-3.1-2.1s-0.8-2.3-1.5-3.3c-0.6-1-3.3,0-3.3,0 c-0.8-1.3-1.5-0.6-1.5-3.3s-0.2-10-0.2-10v-0.2C458.9,208.6,459.2,208.6,459.4,208.6z"></path> <g> <circle id="XMLID_53_" class="st3" cx="492.2" cy="225.2" r="5.3"></circle> </g> <path id="_x36_25" class="st1" d="M469.6,391.8c-0.4,2.5-1,7.6-4.5,6.1H465c0.1-0.2,0.1-0.5,0.2-0.7c0.6-1.4,2.1-4.5,0.8-5.1 c-1.4-0.6-1.6-0.5-2.3-0.3c-0.7,0.3-1.8,0.4-2.3,0.6c-0.6,0.3-1.9,1.1-2.4,1.2c-0.4,0.1-2.3,1-2.5,1.4c-0.3,0.4-0.6,2.2-0.5,2.7 s0.6,1.8-0.2,2c-0.8,0.2-4.2,1.9-4.8,2.6s-1.3,1.6-0.9,2.6c0.4,0.9,1.3,1.2,0.9,2c-0.3,0.8-0.3,1.4-1.1,1.6s-2,1.1-2.6,1.3 c-0.6,0.3-2.2,1.3-2.4,1.8c-0.3,0.4-0.6,1.5-1,2c-0.4,0.5-0.8,1.3-0.8,1.7s0.1,1.8,0.3,2.1c0.3,0.3,0.7,1.6,0.7,2.1 c0,0.6-0.4,3.2-0.5,3.7c-0.1,0.6-1.1,2.7-1.1,3.3c0.1,0.6,0.3,1.6-0.1,2.3c-0.4,0.7-1.3,1.8-1.4,3s-0.2,2.9-0.7,3.3 s-2.3,3.2-2.4,3.7c-0.2,0.4-1.4,1.8-1.6,2.4c-0.2,0.6-0.2,3,0.3,3.3c0.4,0.3,1.4,0.4,1.4,1.3c0,0.8,0.1,4.1-0.3,4.5s-1,0.9-0.7,1.6 c0.3,0.7,2.6,4.5,2.9,5.5c0.3,0.9,1.1,2.3,1.1,2.9s-0.5,3.4-0.8,4c-0.3,0.6-0.9,1.9-0.8,2.5s1.8,5.1,2.3,5.7 c0.4,0.6,1.7,1.3,1.4,2.1s-1,2.8-0.8,3.2c0.3,0.4,1.1,1.3,1.1,1.7c0.1,0.4,0.8,1.1,1,1.3c0.2,0.3,0.8,0.9,0.2,1.6 c-0.6,0.6-1.6,2.4-2.6,2.3c-1.1-0.2-1.6,0.1-2.2,0.5s-1.3,1.5-2.4,1.4s-5.7,0.1-6.7-0.3c-1-0.3-3.6-0.3-4.2-0.3s-5.5,0.7-6.8,0.9 c-1.4,0.3-3,0.3-3.6,0.6s-1.4,0.8-1.9,0.8c-0.4,0.1-1.2,0-1.6,0.1s-2.6,0.9-3,0.9c-0.4,0.1-2.1,0.3-2.7,0.6 c-0.7,0.3-4.3,1.3-5.1,1.6c-0.8,0.4-3,1.4-4,1.9c-1.1,0.5-3,1.8-3.6,2c-0.6,0.3-1.9,1.1-2.6,1.5c-0.7,0.4-2.9,2.2-3.1,2.6 c-0.2,0.4-4.5,5-4.9,5.4s-1.4,1.1-1.7,1.3c-0.3,0.3-0.9,1.2-1,1.7s-0.1,3-0.1,3.7s0.8,2.7,0.1,3.3c-0.6,0.6-2,2.2-1.9,3 s0.1,3.2-0.1,3.8c-0.2,0.7-1.1,3.2-1.4,3.8c-0.3,0.6-1.6,2.6-1.4,3.1s0.6,3.3,0.1,3.8c-0.5,0.4-1.3,1.5-1.9,1.8 c-0.7,0.3-2.8,0.7-3.2,1.5c-0.3,0.8-0.8,2.7-1.3,3.1c-0.6,0.5-1.2,0.8-1.4,1.1c-0.2,0.3-0.9,1.4-1.7,1.9c-0.5,0.4-0.9,0.5-1.1,0.8 l0,0l-72.1-115l0,0l23.3-72.3l59.8-7.4l74.7,28.4l16.7,8.5C468.7,384.2,470,389.3,469.6,391.8z"></path> <g> <circle id="XMLID_60_" class="st3" cx="379.2" cy="442.2" r="5.3"></circle> </g> <path id="_x36_15" class="st1" d="M372.9,62c0,0,0.3,0.6,0.5,1c0.1,0.4,0.5,0.6-0.1,0.6s-1.8-0.1-2.1-0.1c-0.4,0.1-2,0.5-2.2,1 s-0.5,0.6-0.8,0.8c-0.3,0.3-0.4,0.6-0.4,1c0.1,0.4,0.9,0.8,1.1,1.1c0.1,0.3,0.7,0.8,0.9,0.7c0.3-0.1,0.6-0.6,1.2-0.6 s1.1-0.3,0.9,0.4c-0.1,0.6-0.4,2.7-0.8,2.4c-0.4-0.3-0.6-0.9-0.9-0.9s-0.6,0-0.6,0.4c-0.1,0.4-0.1,1.6,0.3,1.6s0.9,0.1,1.2,0.6 c0.3,0.5,0.8,1.9,0.1,1.6c-0.7-0.3-1.3-0.8-1.6-0.8c-0.4,0.1-1.2,0.1-1.4-0.4c-0.2-0.5-0.4-1.6-0.7-1.3c-0.3,0.4-1.3,0.8-1.1,0.2 c0.2-0.6,0.5-1.3,0.1-1.4s-0.5-0.1-0.9,0.4c-0.4,0.4-1.3,1.1-1.6,1.3c-0.3,0.3-0.8,0.5-0.4,0.8s0.4,0.3,0.4,0.8 c0,0.6-0.1,2.1,0.3,1.7c0.3-0.4,0.4-1.6,0.9-1.6s0.8-0.3,0.8,0.4s0.1,2.6,0.4,2.4s0.9-0.4,1.3-0.3s1.8,0.3,2.3,0.3s1.9,0.4,1.1,0.6 s-1.4,0.1-1.4,0.5s-0.1,1.2-0.6,1.3c-0.6,0.1-1.8-0.1-2.1,0.3c-0.3,0.4-0.4,1.4,0,1.4c0.4-0.1,0.9-0.4,1.3-0.3s0.8,0.4,0.8,0.8 s-0.1,1-0.4,1.2s-1.3,0.9-0.8,1s0.8,0.3,0.8,0.6c0,0.4,0.1,0.8,0.4,0.8s0.9-0.1,0.9,0.4c-0.1,0.6-0.1,0.8-0.6,0.8 c-0.4-0.1-2.3-0.4-2.3,0.2s0.7,0.9,0.6,1.6c-0.1,0.6-0.3,1.9-0.7,1.9c-0.4,0.1-1,0.4-1,0.8s-0.1,0.9-0.1,1.3s-0.3,1.9-0.6,2.1 c-0.3,0.1-0.8,0.4-0.8,0.8c-0.1,0.3-1.2,2.8-1.5,2.4s-0.6-0.8-0.9-0.3s-0.8,1.3-0.9,1.8c-0.1,0.6-0.1,1.7-0.1,2.4 c0,0.4,0,1.1,0,1.8h-0.2c-0.5,0-2.2,0.3-3.3,0.2c-1.2-0.1-2.3-2-2.6-2.9c-0.3-0.9-0.1-4.6-0.1-5.3c0-0.6-1-3.2-1.1-3.9 c-0.1-0.7,0.8-2.4,0.8-2.4s0.3-2.2,0.3-2.9c0-0.8,0.9-1.7,1.2-2.4c0.3-0.7,0.3-2.7,0.1-3.5c-0.2-0.8-1.2-1.8-1.7-2.3 c-0.5-0.4-2.2-0.4-2.7-0.4c1.1-2.3,3.1-5.7,3.3-6.1c0.3-0.6,1-2.3,1.6-3.4s1.2,1.1,1.2,1.8c0,0.7,0.2,0.8,0.8,0.7 c0.6-0.2,2-0.3,2.5-0.5s1.1,1.2,1.8,1.2c0.7,0,2.5-0.7,2.8-1.1s0.9-0.1,1.5-0.1s0.6,0,0.6-0.6s-1.8-0.6-2.5-0.5 c-0.8,0.1-1.3,1.1-1.9,1s0.1-2.1,0.2-2.9c0.1-0.7,0.9,0.1,1.3,0.4s0.5,0.1,0.8-0.5s-1.6-1.6-1.9-2.2c-0.3-0.6,0.5-0.6,1.1-0.8 c0.7-0.2,0.4-0.6,0.3-0.9c-0.1-0.4,0.3-1.1,0.5-1.7c0.2-0.6,0.7-0.2,1.3,0.2c0.6,0.4,0.8,0.5,0.9,0.7c0.2,0.3,0.6,0.6,1.1,0.6 c0.6,0,1.6,0.8,2.2,0.7c0.7-0.1,0.7-0.6,0.7-1C371.9,61.2,372.6,61.7,372.9,62z"></path> <g> <circle id="XMLID_55_" class="st3" cx="362.4" cy="83.9" r="5.3"></circle> </g> </g> </svg> 