<svg xmlns="http://www.w3.org/2000/svg" width="400.114" height="337.672" viewBox="0 0 400.114 337.672">
  <g id="desk" transform="translate(-51.827 -84.249)">
    <g id="OBJECTS">
      <g id="Group_1218" data-name="Group 1218">
        <circle id="Ellipse_71" data-name="Ellipse 71" cx="85.82" cy="85.82" r="85.82" transform="translate(280.301 84.249)" fill="#e5f1ff"/>
        <circle id="Ellipse_72" data-name="Ellipse 72" cx="50.16" cy="50.16" r="50.16" transform="translate(74.06 350.985) rotate(-45)" fill="#e5f1ff"/>
        <g id="Group_1217" data-name="Group 1217">
          <path id="Path_1650" data-name="Path 1650" d="M144.33,112.859a45.857,45.857,0,1,0,45.857,45.857A45.856,45.856,0,0,0,144.33,112.859Zm0,75.175a29.318,29.318,0,1,1,29.318-29.318A29.318,29.318,0,0,1,144.33,188.034Z" fill="#a9ccea"/>
          <path id="Path_1651" data-name="Path 1651" d="M317.577,406.04a5.262,5.262,0,0,1-5.262,5.262H179.256a5.262,5.262,0,0,1,0-10.524h47.235l6.515-12.028h25.559l6.515,12.028h47.235A5.262,5.262,0,0,1,317.577,406.04Z" fill="#0f3157"/>
          <rect id="Rectangle_524" data-name="Rectangle 524" width="21.801" height="6.39" transform="translate(233.787 377.85)" fill="#ff4d6b"/>
          <rect id="Rectangle_525" data-name="Rectangle 525" width="21.801" height="6.39" transform="translate(233.787 367.325)" fill="#ff4d6b"/>
          <path id="Path_1652" data-name="Path 1652" d="M418.264,345.7A34.07,34.07,0,1,1,437.079,328" fill="none" stroke="#ff4d6b" stroke-linecap="round" stroke-linejoin="round" stroke-miterlimit="10" stroke-width="1.128" stroke-dasharray="0 5.638"/>
          <path id="Path_1653" data-name="Path 1653" d="M322,153.811h-5.443a44.838,44.838,0,0,0-5.579-13.472l3.848-3.848a4.248,4.248,0,0,0,0-6.008l-8.55-8.55a4.248,4.248,0,0,0-6.008,0l-3.848,3.847a44.794,44.794,0,0,0-13.471-5.578v-5.443a4.248,4.248,0,0,0-4.248-4.248H266.614a4.248,4.248,0,0,0-4.248,4.248V120.2a44.836,44.836,0,0,0-13.472,5.578l-3.848-3.847a4.248,4.248,0,0,0-6.008,0l-8.549,8.55a4.248,4.248,0,0,0,0,6.008l3.848,3.848a44.816,44.816,0,0,0-5.579,13.472h-5.443a4.248,4.248,0,0,0-4.248,4.248V170.15a4.248,4.248,0,0,0,4.248,4.248h5.443a44.836,44.836,0,0,0,5.578,13.472l-3.847,3.848a4.248,4.248,0,0,0,0,6.008l8.549,8.55a4.248,4.248,0,0,0,6.008,0l3.848-3.847a44.817,44.817,0,0,0,13.472,5.579v5.443a4.248,4.248,0,0,0,4.248,4.248h12.091a4.248,4.248,0,0,0,4.248-4.248v-5.443a44.838,44.838,0,0,0,13.472-5.579l3.848,3.847a4.248,4.248,0,0,0,6.008,0l8.55-8.55a4.248,4.248,0,0,0,0-6.008l-3.848-3.848a44.817,44.817,0,0,0,5.579-13.472H322a4.248,4.248,0,0,0,4.248-4.248V158.059A4.249,4.249,0,0,0,322,153.811ZM272.66,185.672A21.567,21.567,0,1,1,294.228,164.1,21.567,21.567,0,0,1,272.66,185.672Z" fill="#289df2"/>
          <path id="Path_1654" data-name="Path 1654" d="M96.011,364.453a11.467,11.467,0,0,1-11.467-11.468V173.522a11.467,11.467,0,0,1,11.468-11.468H395.56a11.468,11.468,0,0,1,11.468,11.467V352.984a11.468,11.468,0,0,1-11.468,11.468H96.011Z" fill="#0f3775"/>
          <rect id="Rectangle_526" data-name="Rectangle 526" width="33.265" height="7.33" transform="translate(108.058 187.094)" fill="#284d89"/>
          <rect id="Rectangle_527" data-name="Rectangle 527" width="33.265" height="7.33" transform="translate(148.088 187.094)" fill="#284d89"/>
          <rect id="Rectangle_528" data-name="Rectangle 528" width="33.265" height="7.33" transform="translate(249.574 187.094)" fill="#284d89"/>
          <rect id="Rectangle_529" data-name="Rectangle 529" width="33.265" height="7.33" transform="translate(351.06 187.094)" fill="#284d89"/>
          <rect id="Rectangle_530" data-name="Rectangle 530" width="59.482" height="7.33" transform="translate(185.863 187.094)" fill="#ff4d6b"/>
          <rect id="Rectangle_531" data-name="Rectangle 531" width="59.482" height="7.33" transform="translate(286.785 187.094)" fill="#2889db"/>
          <rect id="Rectangle_532" data-name="Rectangle 532" width="5.826" height="3.571" transform="translate(108.246 181.268)" fill="#2889db"/>
          <g id="Group_1182" data-name="Group 1182">
            <rect id="Rectangle_533" data-name="Rectangle 533" width="60.797" height="3.571" transform="translate(108.246 200.438)" fill="#fff"/>
            <rect id="Rectangle_534" data-name="Rectangle 534" width="18.042" height="3.571" transform="translate(108.246 206.734)" fill="#fff"/>
          </g>
          <path id="Path_1655" data-name="Path 1655" d="M172.614,338.759H116.233a7.611,7.611,0,0,1-7.611-7.611V229.1a7.611,7.611,0,0,1,7.611-7.611h56.381a7.611,7.611,0,0,1,7.611,7.611v102.05A7.611,7.611,0,0,1,172.614,338.759Z" fill="#284d89"/>
          <g id="Group_1183" data-name="Group 1183">
            <rect id="Rectangle_535" data-name="Rectangle 535" width="23.962" height="3.665" transform="translate(117.643 238.683)" fill="#fff"/>
            <rect id="Rectangle_536" data-name="Rectangle 536" width="23.962" height="3.665" transform="translate(117.643 246.858)" fill="#fff"/>
            <rect id="Rectangle_537" data-name="Rectangle 537" width="23.962" height="3.665" transform="translate(117.643 255.033)" fill="#fff"/>
          </g>
          <rect id="Rectangle_538" data-name="Rectangle 538" width="14.659" height="3.665" transform="translate(117.643 289.144)" fill="#fff"/>
          <rect id="Rectangle_539" data-name="Rectangle 539" width="14.659" height="3.665" transform="translate(117.643 297.319)" fill="#fff"/>
          <rect id="Rectangle_540" data-name="Rectangle 540" width="14.659" height="3.665" transform="translate(142.826 297.319)" fill="#fff"/>
          <rect id="Rectangle_541" data-name="Rectangle 541" width="9.209" height="3.665" transform="translate(117.643 279.841)" fill="#fff"/>
          <rect id="Rectangle_542" data-name="Rectangle 542" width="4.886" height="3.665" transform="translate(157.109 279.841)" fill="#fff"/>
          <rect id="Rectangle_543" data-name="Rectangle 543" width="25.184" height="3.665" transform="translate(130.046 279.841)" fill="#ff4d6b"/>
          <rect id="Rectangle_544" data-name="Rectangle 544" width="3.524" height="3.665" transform="translate(117.643 266.028)" fill="#2889db"/>
          <rect id="Rectangle_545" data-name="Rectangle 545" width="3.524" height="3.665" transform="translate(117.643 272.511)" fill="#ff4d6b"/>
          <path id="Path_1656" data-name="Path 1656" d="M137.188,301.736h-1.316l3.148-4.7h1.316Z" fill="#fff"/>
          <rect id="Rectangle_546" data-name="Rectangle 546" width="54.408" height="3.101" transform="translate(117.643 308.031)" fill="#282e5c"/>
          <rect id="Rectangle_547" data-name="Rectangle 547" width="54.408" height="3.101" transform="translate(117.643 315.079)" fill="#282e5c"/>
          <path id="Path_1657" data-name="Path 1657" d="M433.752,269.974h-149.6a6.766,6.766,0,0,1-6.766-6.766V222.614a6.766,6.766,0,0,1,6.766-6.766h149.6a6.766,6.766,0,0,1,6.766,6.766v40.594A6.767,6.767,0,0,1,433.752,269.974Z" fill="#289df2"/>
          <path id="Path_1658" data-name="Path 1658" d="M325.876,250.8s8.269-20.3,31.949-15.411,35.708,31.573,66.154,9.773" fill="none" stroke="#fff" stroke-miterlimit="10" stroke-width="1.128"/>
          <rect id="Rectangle_548" data-name="Rectangle 548" width="3.383" height="3.383" transform="translate(399.171 251.932)" fill="#289df2" stroke="#fff" stroke-miterlimit="10" stroke-width="1.128"/>
          <line id="Line_1" data-name="Line 1" x2="42.849" transform="translate(330.011 234.454)" fill="#289df2" stroke="#fff" stroke-miterlimit="10" stroke-width="0.564"/>
          <line id="Line_2" data-name="Line 2" x2="42.85" transform="translate(379.438 254.564)" fill="#289df2" stroke="#fff" stroke-miterlimit="10" stroke-width="0.564"/>
          <rect id="Rectangle_549" data-name="Rectangle 549" width="3.383" height="3.383" transform="translate(348.053 232.763)" fill="#289df2" stroke="#fff" stroke-miterlimit="10" stroke-width="1.128"/>
          <g id="Group_1187" data-name="Group 1187">
            <path id="Path_1659" data-name="Path 1659" d="M305.955,283.882H273.63A4.886,4.886,0,0,1,268.744,279V230.508a4.886,4.886,0,0,1,4.886-4.886h32.325a4.886,4.886,0,0,1,4.886,4.886V279A4.886,4.886,0,0,1,305.955,283.882Z" fill="#284d89"/>
            <g id="Group_1186" data-name="Group 1186">
              <g id="Group_1184" data-name="Group 1184">
                <rect id="Rectangle_550" data-name="Rectangle 550" width="23.962" height="3.304" transform="translate(275.321 233.891)" fill="#fff"/>
                <rect id="Rectangle_551" data-name="Rectangle 551" width="23.962" height="3.304" transform="translate(275.321 241.26)" fill="#fff"/>
                <rect id="Rectangle_552" data-name="Rectangle 552" width="9.021" height="3.304" transform="translate(275.321 248.63)" fill="#fff"/>
              </g>
              <g id="Group_1185" data-name="Group 1185">
                <rect id="Rectangle_553" data-name="Rectangle 553" width="15.599" height="3.304" transform="translate(275.321 256.254)" fill="#289df2"/>
                <rect id="Rectangle_554" data-name="Rectangle 554" width="10.524" height="3.304" transform="translate(275.321 263.624)" fill="#289df2"/>
                <rect id="Rectangle_555" data-name="Rectangle 555" width="10.524" height="3.304" transform="translate(275.321 270.993)" fill="#fff"/>
              </g>
            </g>
          </g>
          <line id="Line_3" data-name="Line 3" x2="16.915" transform="translate(414.206 208.519)" fill="none" stroke="#284d89" stroke-linecap="round" stroke-linejoin="round" stroke-miterlimit="10" stroke-width="2.255"/>
          <g id="Group_1192" data-name="Group 1192">
            <path id="Path_1660" data-name="Path 1660" d="M376.2,303.958l-5.838,4.569-8.376,1.523s-7.868-.508-8.63-.508-6.091-4.315-6.091-4.315l-9.9-3.553-6.853,2.538-8.122-1.777-12.183-.762-11.675,4.569-9.645,1.523-8.63,2.792-9.645.762L260.209,303.2l-9.645-1.777-9.9,5.584-7.868,2.538-8.933-.254-11.258,6.853h-6.713l-11.337,3.976" fill="none" stroke="#ff5c66" stroke-miterlimit="10" stroke-width="1.015"/>
            <g id="Group_1189" data-name="Group 1189">
              <g id="Group_1188" data-name="Group 1188">
                <line id="Line_4" data-name="Line 4" x2="181.729" transform="translate(194.726 320.287)" fill="none" stroke="#f7f7f7" stroke-miterlimit="10" stroke-width="0.254"/>
                <rect id="Rectangle_556" data-name="Rectangle 556" width="1.861" height="4.569" transform="translate(192.95 318.002)" fill="#f7f7f7"/>
                <rect id="Rectangle_557" data-name="Rectangle 557" width="1.861" height="4.569" transform="translate(375.356 318.002)" fill="#f7f7f7"/>
              </g>
              <path id="Path_1661" data-name="Path 1661" d="M194.726,320.287" fill="none" stroke="#f7f7f7" stroke-miterlimit="10" stroke-width="0.508"/>
            </g>
            <line id="Line_5" data-name="Line 5" y1="15.314" transform="translate(376.286 304.973)" fill="none" stroke="#f7f7f7" stroke-miterlimit="10" stroke-width="0.254"/>
            <path id="Path_1662" data-name="Path 1662" d="M377.3,304.212a1.438,1.438,0,1,1-1.438-1.438A1.438,1.438,0,0,1,377.3,304.212Z" fill="#f7f7f7"/>
            <text id="beta_test" data-name="beta test" transform="translate(194.98 331.004)" fill="#f7f7f7" font-size="8.12" font-family="BebasNeue, Bebas Neue"><tspan x="0" y="0">beta test</tspan></text>
            <rect id="Rectangle_558" data-name="Rectangle 558" width="113.031" height="2.03" transform="translate(236.69 326.886)" fill="#28385e"/>
            <rect id="Rectangle_559" data-name="Rectangle 559" width="69.375" height="2.03" transform="translate(236.69 326.886)" fill="#ff4d6b"/>
            <rect id="Rectangle_560" data-name="Rectangle 560" width="55.585" height="2.03" transform="translate(236.69 330.777)" fill="#28385e"/>
            <g id="Group_1190" data-name="Group 1190">
              <path id="Path_1663" data-name="Path 1663" d="M201.452,336.827H208.3l.889-1.9H195.361V338.1h4.822Z" fill="#ff4d6b"/>
              <rect id="Rectangle_561" data-name="Rectangle 561" width="0.762" height="0.761" transform="translate(214.894 334.902)" fill="#f7f7f7"/>
              <rect id="Rectangle_562" data-name="Rectangle 562" width="0.761" height="0.761" transform="translate(219.621 334.902)" fill="#f7f7f7"/>
              <rect id="Rectangle_563" data-name="Rectangle 563" width="0.762" height="0.761" transform="translate(224.348 334.902)" fill="#f7f7f7"/>
            </g>
            <text id="_500" data-name="500" transform="translate(367.4 299.137)" fill="#f7f7f7" font-size="8.12" font-family="BebasNeue, Bebas Neue"><tspan x="0" y="0">500</tspan></text>
            <g id="Group_1191" data-name="Group 1191">
              <path id="Path_1664" data-name="Path 1664" d="M357.843,332.977H356.15l-2.707-6.091h1.692Z" fill="#28385e"/>
              <path id="Path_1665" data-name="Path 1665" d="M362.242,332.977H360.55l-2.707-6.091h1.692Z" fill="#28385e"/>
              <path id="Path_1666" data-name="Path 1666" d="M366.641,332.977h-1.692l-2.707-6.091h1.692Z" fill="#28385e"/>
              <path id="Path_1667" data-name="Path 1667" d="M371.041,332.977h-1.692l-2.708-6.091h1.692Z" fill="#28385e"/>
              <path id="Path_1668" data-name="Path 1668" d="M375.356,332.977h-1.693l-2.707-6.091h1.692Z" fill="#28385e"/>
            </g>
          </g>
          <g id="Group_1194" data-name="Group 1194">
            <g id="Group_1193" data-name="Group 1193">
              <rect id="Rectangle_564" data-name="Rectangle 564" width="27.513" height="4.928" transform="translate(340.497 123.252)" fill="#a9ccea"/>
              <rect id="Rectangle_565" data-name="Rectangle 565" width="41.484" height="4.927" transform="translate(340.497 132.07)" fill="#a9ccea"/>
              <rect id="Rectangle_566" data-name="Rectangle 566" width="51.157" height="4.928" transform="translate(340.497 140.888)" fill="#a9ccea"/>
              <rect id="Rectangle_567" data-name="Rectangle 567" width="19.56" height="4.928" transform="translate(340.497 149.706)" fill="#a9ccea"/>
            </g>
          </g>
          <g id="Group_1196" data-name="Group 1196">
            <g id="Group_1195" data-name="Group 1195">
              <rect id="Rectangle_568" data-name="Rectangle 568" width="27.513" height="4.928" transform="translate(51.827 182.64)" fill="#2889db"/>
              <rect id="Rectangle_569" data-name="Rectangle 569" width="41.484" height="4.927" transform="translate(51.827 191.458)" fill="#a9ccea"/>
              <rect id="Rectangle_570" data-name="Rectangle 570" width="51.157" height="4.928" transform="translate(51.827 200.275)" fill="#a9ccea"/>
              <rect id="Rectangle_571" data-name="Rectangle 571" width="19.56" height="4.928" transform="translate(51.827 209.094)" fill="#a9ccea"/>
            </g>
          </g>
          <rect id="Rectangle_572" data-name="Rectangle 572" width="117.272" height="15.223" transform="translate(120.462 355.673)" fill="none" stroke="#289df2" stroke-miterlimit="10" stroke-width="1.128"/>
          <rect id="Rectangle_573" data-name="Rectangle 573" width="5.638" height="34.58" transform="translate(177.03 235.77)" fill="none" stroke="#289df2" stroke-miterlimit="10" stroke-width="1.128"/>
          <g id="Group_1200" data-name="Group 1200">
            <ellipse id="Ellipse_73" data-name="Ellipse 73" cx="19.432" cy="19.433" rx="19.432" ry="19.433" transform="translate(383.749 297.767) rotate(-9.161)" fill="#ff4d6b"/>
            <g id="Group_1199" data-name="Group 1199">
              <g id="Group_1197" data-name="Group 1197">
                <path id="Path_1669" data-name="Path 1669" d="M404.642,312.04l-7.718,2.828,7.718,2.8v2.9l-11.033-4.2v-3.013l11.033-4.2Z" fill="#f9fbfc"/>
              </g>
              <g id="Group_1198" data-name="Group 1198">
                <path id="Path_1670" data-name="Path 1670" d="M407.163,309.166l11.033,4.2v3.013l-11.033,4.2v-2.9l7.718-2.8-7.718-2.828Z" fill="#f9fbfc"/>
              </g>
            </g>
          </g>
          <path id="Path_1671" data-name="Path 1671" d="M438.45,329.738a2.537,2.537,0,1,1-2.537-2.537A2.537,2.537,0,0,1,438.45,329.738Z" fill="none" stroke="#ff4d6b" stroke-miterlimit="10" stroke-width="1.128"/>
          <rect id="Rectangle_574" data-name="Rectangle 574" width="91.901" height="9.585" transform="translate(114.26 145.936)" fill="none" stroke="#289df2" stroke-miterlimit="10" stroke-width="1.128"/>
          <rect id="Rectangle_575" data-name="Rectangle 575" width="56.945" height="2.819" transform="translate(118.206 149.037)" fill="#289df2"/>
          <g id="Group_1201" data-name="Group 1201">
            <rect id="Rectangle_576" data-name="Rectangle 576" width="67.281" height="3.383" transform="translate(192.441 220.735)" fill="#284d89"/>
            <rect id="Rectangle_577" data-name="Rectangle 577" width="30.493" height="3.383" transform="translate(192.441 220.735)" fill="#2889db"/>
          </g>
          <g id="Group_1202" data-name="Group 1202">
            <rect id="Rectangle_578" data-name="Rectangle 578" width="67.281" height="3.383" transform="translate(192.441 229.474)" fill="#284d89"/>
            <rect id="Rectangle_579" data-name="Rectangle 579" width="46.843" height="3.383" transform="translate(192.441 229.474)" fill="#ff4d6b"/>
          </g>
          <g id="Group_1203" data-name="Group 1203">
            <rect id="Rectangle_580" data-name="Rectangle 580" width="67.281" height="3.383" transform="translate(192.441 238.213)" fill="#284d89"/>
            <rect id="Rectangle_581" data-name="Rectangle 581" width="13.719" height="3.383" transform="translate(192.441 238.213)" fill="#1ae5ff"/>
          </g>
          <g id="Group_1204" data-name="Group 1204">
            <rect id="Rectangle_582" data-name="Rectangle 582" width="1.316" height="1.316" transform="translate(192.723 214.815)" fill="#284d89"/>
            <rect id="Rectangle_583" data-name="Rectangle 583" width="1.316" height="1.316" transform="translate(197.234 214.815)" fill="#284d89"/>
            <rect id="Rectangle_584" data-name="Rectangle 584" width="1.316" height="1.316" transform="translate(201.744 214.815)" fill="#284d89"/>
          </g>
          <g id="Group_1205" data-name="Group 1205">
            <rect id="Rectangle_585" data-name="Rectangle 585" width="2.192" height="2.193" transform="translate(317.92 260.891)" fill="#fff"/>
            <rect id="Rectangle_586" data-name="Rectangle 586" width="2.193" height="2.193" transform="translate(325.438 260.891)" fill="#fff"/>
            <rect id="Rectangle_587" data-name="Rectangle 587" width="2.193" height="2.193" transform="translate(332.955 260.891)" fill="#fff"/>
          </g>
          <g id="Group_1206" data-name="Group 1206">
            <rect id="Rectangle_588" data-name="Rectangle 588" width="4.111" height="4.111" transform="translate(349.568 173.763)" fill="#fff"/>
            <rect id="Rectangle_589" data-name="Rectangle 589" width="4.111" height="4.111" transform="translate(363.663 173.763)" fill="#fff"/>
            <rect id="Rectangle_590" data-name="Rectangle 590" width="4.111" height="4.111" transform="translate(377.758 173.763)" fill="#fff"/>
          </g>
          <g id="Group_1207" data-name="Group 1207">
            <rect id="Rectangle_591" data-name="Rectangle 591" width="4.111" height="4.111" transform="translate(291.308 343.657)" fill="#fff"/>
            <rect id="Rectangle_592" data-name="Rectangle 592" width="4.111" height="4.111" transform="translate(305.403 343.657)" fill="#fff"/>
            <rect id="Rectangle_593" data-name="Rectangle 593" width="4.111" height="4.111" transform="translate(319.498 343.657)" fill="#fff"/>
          </g>
          <g id="Group_1208" data-name="Group 1208">
            <rect id="Rectangle_594" data-name="Rectangle 594" width="2.192" height="2.193" transform="translate(118.833 229.818)" fill="#fff"/>
            <rect id="Rectangle_595" data-name="Rectangle 595" width="2.193" height="2.193" transform="translate(126.35 229.818)" fill="#fff"/>
            <rect id="Rectangle_596" data-name="Rectangle 596" width="2.193" height="2.193" transform="translate(133.868 229.818)" fill="#fff"/>
          </g>
          <g id="Group_1209" data-name="Group 1209">
            <rect id="Rectangle_597" data-name="Rectangle 597" width="36.46" height="3.571" transform="translate(389.775 227.125)" fill="#fff"/>
            <rect id="Rectangle_598" data-name="Rectangle 598" width="10.82" height="3.571" transform="translate(389.775 233.421)" fill="#287dd1"/>
          </g>
          <path id="Path_1672" data-name="Path 1672" d="M95.654,234.454H87.761v-7.893h-7.33v7.893H72.538v7.33h7.893v7.893h7.33v-7.893h7.893Z" fill="#1ae5ff"/>
          <path id="Path_1673" data-name="Path 1673" d="M74.532,256.443H69.719V251.63H65.25v4.813H60.436v4.469H65.25v4.813h4.469v-4.813h4.813Z" fill="#2889db"/>
          <g id="Group_1210" data-name="Group 1210">
            <path id="Path_1674" data-name="Path 1674" d="M206.267,252.24a12.344,12.344,0,1,0,12.344,12.344A12.345,12.345,0,0,0,206.267,252.24Zm0,18.777a6.433,6.433,0,1,1,6.433-6.433A6.432,6.432,0,0,1,206.267,271.017Z" fill="#284d89"/>
            <path id="Path_1675" data-name="Path 1675" d="M197.864,263.367a3.022,3.022,0,0,0,2.674-1.7,6.43,6.43,0,0,1,11.459,0,3.021,3.021,0,0,0,2.674,1.7h0a2.951,2.951,0,0,0,2.688-4.2,12.345,12.345,0,0,0-22.182,0,2.95,2.95,0,0,0,2.687,4.2Z" fill="#289df2"/>
          </g>
          <g id="Group_1211" data-name="Group 1211">
            <path id="Path_1676" data-name="Path 1676" d="M227,264.584a12.344,12.344,0,1,0,12.344-12.344A12.345,12.345,0,0,0,227,264.584Zm18.777,0a6.433,6.433,0,1,1-6.433-6.433A6.433,6.433,0,0,1,245.776,264.584Z" fill="#284d89"/>
            <path id="Path_1677" data-name="Path 1677" d="M238.127,272.987a3.023,3.023,0,0,0-1.7-2.674,6.43,6.43,0,0,1,0-11.459,3.021,3.021,0,0,0,1.7-2.674h0a2.951,2.951,0,0,0-4.2-2.688,12.346,12.346,0,0,0,0,22.183,2.951,2.951,0,0,0,4.2-2.688Z" fill="#ff4d6b"/>
          </g>
          <rect id="Rectangle_599" data-name="Rectangle 599" width="22.552" height="54.126" transform="translate(148.464 215.849)" fill="none" stroke="#289df2" stroke-miterlimit="10" stroke-width="1.128"/>
          <g id="Group_1212" data-name="Group 1212">
            <rect id="Rectangle_600" data-name="Rectangle 600" width="6.578" height="1.944" transform="translate(151.659 226.279)" fill="#1ae5ff"/>
            <rect id="Rectangle_601" data-name="Rectangle 601" width="6.578" height="1.944" transform="translate(151.659 230.616)" fill="#1ae5ff"/>
            <rect id="Rectangle_602" data-name="Rectangle 602" width="6.578" height="1.944" transform="translate(151.659 234.953)" fill="#1ae5ff"/>
            <rect id="Rectangle_603" data-name="Rectangle 603" width="6.578" height="1.944" transform="translate(151.659 257.506)" fill="#1ae5ff"/>
          </g>
          <g id="Group_1213" data-name="Group 1213">
            <rect id="Rectangle_604" data-name="Rectangle 604" width="9.585" height="1.944" transform="translate(151.659 241.314)" fill="#1ae5ff"/>
            <rect id="Rectangle_605" data-name="Rectangle 605" width="9.585" height="1.944" transform="translate(151.659 245.651)" fill="#fff"/>
            <rect id="Rectangle_606" data-name="Rectangle 606" width="9.585" height="1.944" transform="translate(151.659 249.988)" fill="#fff"/>
          </g>
          <rect id="Rectangle_607" data-name="Rectangle 607" width="28.566" height="28.566" transform="translate(67.651 283.506)" fill="#289df2"/>
          <rect id="Rectangle_608" data-name="Rectangle 608" width="28.566" height="28.566" transform="translate(52.617 290.271)" fill="none" stroke="#289df2" stroke-miterlimit="10" stroke-width="1.128"/>
          <rect id="Rectangle_609" data-name="Rectangle 609" width="12.028" height="12.028" transform="translate(407.441 366.198)" fill="none" stroke="#289df2" stroke-miterlimit="10" stroke-width="1.128"/>
          <g id="Group_1214" data-name="Group 1214">
            <path id="Path_1678" data-name="Path 1678" d="M263.105,347.216h10.149l5.638,5.638h58.636l9.021-9.021h31.574" fill="none" stroke="#fff" stroke-miterlimit="10" stroke-width="1.128"/>
            <circle id="Ellipse_74" data-name="Ellipse 74" cx="2.96" cy="2.96" r="2.96" transform="translate(257.185 344.397)" fill="none" stroke="#fff" stroke-miterlimit="10" stroke-width="1.128"/>
            <circle id="Ellipse_75" data-name="Ellipse 75" cx="2.96" cy="2.96" r="2.96" transform="translate(378.216 340.732)" fill="none" stroke="#fff" stroke-miterlimit="10" stroke-width="1.128"/>
          </g>
          <path id="Path_1679" data-name="Path 1679" d="M420.972,188.034a3.759,3.759,0,1,1-3.759-3.759A3.759,3.759,0,0,1,420.972,188.034Z" fill="#289df2"/>
          <path id="Path_1680" data-name="Path 1680" d="M73.665,334.625a3.759,3.759,0,1,1-3.759-3.759A3.759,3.759,0,0,1,73.665,334.625Z" fill="#ff4d6b"/>
          <path id="Path_1681" data-name="Path 1681" d="M90.956,348.532a6.578,6.578,0,1,1-6.578-6.578A6.578,6.578,0,0,1,90.956,348.532Z" fill="#ff4d6b"/>
          <g id="Group_1215" data-name="Group 1215">
            <rect id="Rectangle_610" data-name="Rectangle 610" width="26.311" height="6.014" transform="translate(288.665 370.708)" fill="none" stroke="#289df2" stroke-miterlimit="10" stroke-width="1.128"/>
            <rect id="Rectangle_611" data-name="Rectangle 611" width="57.696" height="6.014" transform="translate(288.665 381.984)" fill="none" stroke="#289df2" stroke-miterlimit="10" stroke-width="1.128"/>
          </g>
          <g id="Group_1216" data-name="Group 1216">
            <line id="Line_6" data-name="Line 6" x1="6.377" y2="6.377" transform="translate(121.104 376.468)" fill="none" stroke="#289df2" stroke-linecap="round" stroke-linejoin="round" stroke-miterlimit="10" stroke-width="1.128"/>
            <line id="Line_7" data-name="Line 7" x1="6.377" y2="6.377" transform="translate(127.235 376.468)" fill="none" stroke="#289df2" stroke-linecap="round" stroke-linejoin="round" stroke-miterlimit="10" stroke-width="1.128"/>
            <line id="Line_8" data-name="Line 8" x1="6.377" y2="6.377" transform="translate(133.367 376.468)" fill="none" stroke="#289df2" stroke-linecap="round" stroke-linejoin="round" stroke-miterlimit="10" stroke-width="1.128"/>
            <line id="Line_9" data-name="Line 9" x1="6.377" y2="6.377" transform="translate(139.498 376.468)" fill="none" stroke="#289df2" stroke-linecap="round" stroke-linejoin="round" stroke-miterlimit="10" stroke-width="1.128"/>
            <line id="Line_10" data-name="Line 10" x1="6.377" y2="6.377" transform="translate(145.63 376.468)" fill="none" stroke="#289df2" stroke-linecap="round" stroke-linejoin="round" stroke-miterlimit="10" stroke-width="1.128"/>
          </g>
        </g>
      </g>
    </g>
  </g>
</svg>
