<svg width="1440" height="605" viewBox="0 0 1440 605" fill="none" xmlns="http://www.w3.org/2000/svg">
<path opacity="0.04" fill-rule="evenodd" clip-rule="evenodd" d="M1507 910.71C1689.25 910.71 1837 762.964 1837 580.71C1837 398.456 1689.25 250.71 1507 250.71C1324.75 250.71 1177 398.456 1177 580.71C1177 762.964 1324.75 910.71 1507 910.71Z" fill="white"/>
<path opacity="0.08" fill-rule="evenodd" clip-rule="evenodd" d="M1557 960.71C1739.25 960.71 1887 812.964 1887 630.71C1887 448.456 1739.25 300.71 1557 300.71C1374.75 300.71 1227 448.456 1227 630.71C1227 812.964 1374.75 960.71 1557 960.71Z" fill="white"/>
<path opacity="0.04" fill-rule="evenodd" clip-rule="evenodd" d="M-95 493.71C32.0255 493.71 135 390.735 135 263.71C135 136.684 32.0255 33.71 -95 33.71C-222.025 33.71 -325 136.684 -325 263.71C-325 390.735 -222.025 493.71 -95 493.71Z" fill="white"/>
<path opacity="0.08" fill-rule="evenodd" clip-rule="evenodd" d="M-145 460.71C-17.9745 460.71 85 357.735 85 230.71C85 103.684 -17.9745 0.709961 -145 0.709961C-272.025 0.709961 -375 103.684 -375 230.71C-375 357.735 -272.025 460.71 -145 460.71Z" fill="white"/>
</svg>
