<svg xmlns="http://www.w3.org/2000/svg" xmlns:xlink="http://www.w3.org/1999/xlink" width="266" height="222" viewBox="0 0 266 222">
  <defs>
    <filter id="Path_223" x="6.837" y="6.726" width="258.711" height="214.59" filterUnits="userSpaceOnUse">
      <feOffset dx="1.802" dy="1.802" input="SourceAlpha"/>
      <feGaussianBlur stdDeviation="0.901" result="blur"/>
      <feFlood flood-opacity="0.502"/>
      <feComposite operator="in" in2="blur"/>
      <feComposite in="SourceGraphic"/>
    </filter>
    <radialGradient id="radial-gradient" cx="0.5" cy="0.5" r="17.442" gradientTransform="matrix(-0.025, 0, 0, 0.026, 13.501, -0.535)" gradientUnits="objectBoundingBox">
      <stop offset="0" stop-color="#999d9f"/>
      <stop offset="0.371" stop-color="#9b9fa1"/>
      <stop offset="0.545" stop-color="#a2a6a8"/>
      <stop offset="0.678" stop-color="#afb2b4"/>
      <stop offset="0.79" stop-color="#c1c4c5"/>
      <stop offset="0.889" stop-color="#d9dbdb"/>
      <stop offset="0.978" stop-color="#f6f6f6"/>
      <stop offset="1" stop-color="#fff"/>
    </radialGradient>
    <radialGradient id="radial-gradient-2" cx="0.5" cy="0.5" r="0.5" gradientTransform="matrix(-1, 0, 0, 1, 138.137, 0)" gradientUnits="objectBoundingBox">
      <stop offset="0.853"/>
      <stop offset="1" stop-color="#484b4b"/>
    </radialGradient>
    <linearGradient id="linear-gradient" x1="95.367" y1="0.5" x2="96.367" y2="0.5" gradientUnits="objectBoundingBox">
      <stop offset="0" stop-color="#ececed"/>
      <stop offset="0.119" stop-color="#cfd1d2"/>
      <stop offset="0.253" stop-color="#b7babb"/>
      <stop offset="0.395" stop-color="#a6a9ab"/>
      <stop offset="0.549" stop-color="#9ca0a2"/>
      <stop offset="0.734" stop-color="#999d9f"/>
      <stop offset="1" stop-color="#fff"/>
    </linearGradient>
    <radialGradient id="radial-gradient-3" cx="0.5" cy="0.5" r="0.5" gradientTransform="matrix(-1, 0, 0, 1, 152.245, 0)" xlink:href="#radial-gradient-2"/>
    <linearGradient id="linear-gradient-2" x1="105.174" y1="0.5" x2="106.174" y2="0.5" xlink:href="#linear-gradient"/>
    <linearGradient id="linear-gradient-3" x1="13.043" y1="1.203" x2="13.043" y2="-0.096" gradientUnits="objectBoundingBox">
      <stop offset="0" stop-color="#999d9f"/>
      <stop offset="1" stop-color="#fff"/>
    </linearGradient>
    <linearGradient id="linear-gradient-4" x1="13.28" y1="-0.079" x2="13.28" y2="1.112" gradientUnits="objectBoundingBox">
      <stop offset="0" stop-color="#999d9f" stop-opacity="0"/>
      <stop offset="1" stop-color="#fff"/>
    </linearGradient>
    <linearGradient id="linear-gradient-5" x1="14.722" y1="-0.408" x2="14.768" y2="1.626" xlink:href="#linear-gradient-4"/>
    <clipPath id="clip-path">
      <path id="Path_247" data-name="Path 247" d="M345.88,757.365s.1-2.091.3-4.959c.128-1.923.3-4.2.508-6.421.017-.187.035-.373.053-.559l.014-.144.008-.085c.028-.278.055-.554.084-.828l.016-.151q.035-.336.071-.666c.01-.087.019-.173.029-.259.027-.243.055-.484.083-.721.012-.1.024-.2.036-.3.018-.148.036-.294.055-.439.015-.116.03-.233.045-.347q.041-.306.081-.6c.016-.108.031-.213.047-.318.018-.127.037-.252.056-.376.015-.1.03-.194.045-.288.031-.2.063-.383.1-.566.011-.064.023-.126.034-.188.031-.17.062-.333.093-.491l.013-.066.006-.028c.019-.1.039-.186.059-.277l0-.014c.021-.1.043-.192.064-.283l.009-.034c.02-.086.041-.17.061-.249.009-.035.019-.067.028-.1.047-.174.1-.337.144-.48.016-.047.032-.089.049-.133s.037-.1.056-.144.033-.075.05-.11.044-.089.067-.129c.013-.023.026-.048.039-.069a.91.91,0,0,1,.111-.145c1.551-1.555,18.037-15.712,18.037-15.712s-3.938-3.705-3.641-4.181a.074.074,0,0,1,.035-.021l.019-.006a.577.577,0,0,1,.058-.015l.028-.006c.028-.006.06-.011.1-.016l.026,0c.046-.007.1-.014.156-.02h0c.182-.021.418-.041.71-.061h.007l.21-.014.1-.006.218-.013.125-.007.22-.012.158-.008.234-.011.16-.007.261-.012.177-.008.262-.011.218-.008.264-.011.137-.005.689-.024.176-.007.375-.012.168-.005.359-.012.244-.007.33-.01.268-.008.351-.01.281-.008.359-.009.254-.007.43-.012.14,0c10.373-.265,27.571-.458,34.286-.538,9.859-.121,33.633-1.078,50.655,2.927s31.3,17.44,38.11,18.995,37.216,5.912,42.71,8.421a5.862,5.862,0,0,1,.583.311c.056.034.111.072.166.108.135.087.269.178.4.277.059.044.119.09.178.137q.2.157.387.33c.048.044.1.085.145.131.172.163.341.333.506.513l.023.026q.234.259.457.539c.046.057.091.117.137.176.112.145.223.293.332.446.044.062.089.125.133.189.12.174.238.351.353.533.024.037.048.073.072.111q.294.471.566.967c.036.065.072.13.107.2.052.1.1.2.154.293s.091.175.135.263.086.168.127.253q.118.242.232.484l.1.216q.087.189.171.38c.025.057.05.113.075.171q.117.271.23.543c.015.039.031.077.047.116q.1.246.2.49l.037.1q.233.6.436,1.183l.009.026a44.641,44.641,0,0,1,1.386,4.828h0c.028.127.046.214.056.261l0,.013.005.028a3.586,3.586,0,0,1,1.079,2.571c.059,1.731,0,4.361,0,4.361s.418.238.3,1.911a30.258,30.258,0,0,1-.469,3.18c-.442,2.216-1.165,4.682-2.1,4.943a40.539,40.539,0,0,1-4.006.778c0,.027-.043,1.915-11.308,2.509a19.715,19.715,0,1,0-38.748-5.139,19.97,19.97,0,0,0,.336,3.646l-85.584,0a19.356,19.356,0,1,0-38.341-3.771,19.7,19.7,0,0,0,.258,3.169s-16.326-2.927-17.1-3.345c-.594-.324-3.443-5.326-4.732-8.55a7.512,7.512,0,0,1-.641-2.262C343.731,762.5,344.208,758.857,345.88,757.365Z" fill="none"/>
    </clipPath>
    <linearGradient id="linear-gradient-6" x1="118.971" y1="3.178" x2="119.011" y2="-2.072" gradientUnits="objectBoundingBox">
      <stop offset="0.183" stop-color="#4d4d4d"/>
      <stop offset="0.928" stop-color="#070707"/>
      <stop offset="1"/>
    </linearGradient>
    <linearGradient id="linear-gradient-7" x1="184.841" y1="-1.292" x2="184.841" y2="1.808" xlink:href="#linear-gradient-6"/>
    <linearGradient id="linear-gradient-8" x1="73.707" y1="1.909" x2="73.732" y2="-1.223" xlink:href="#linear-gradient-6"/>
    <linearGradient id="linear-gradient-9" x1="88.158" y1="-0.852" x2="88.158" y2="1.519" xlink:href="#linear-gradient-6"/>
    <linearGradient id="linear-gradient-10" x1="49.583" y1="1.771" x2="49.601" y2="-1.2" xlink:href="#linear-gradient-6"/>
    <linearGradient id="linear-gradient-11" x1="61.464" y1="-0.376" x2="61.464" y2="1.399" xlink:href="#linear-gradient-6"/>
    <linearGradient id="linear-gradient-12" x1="281.885" y1="0.5" x2="282.885" y2="0.5" xlink:href="#linear-gradient-6"/>
    <linearGradient id="linear-gradient-13" x1="260.058" y1="0.5" x2="261.058" y2="0.5" xlink:href="#linear-gradient-6"/>
    <linearGradient id="linear-gradient-14" x1="26.776" y1="2.127" x2="26.762" y2="0.04" gradientUnits="objectBoundingBox">
      <stop offset="0" stop-color="#d3d3d3"/>
      <stop offset="1" stop-color="#fff" stop-opacity="0"/>
    </linearGradient>
    <radialGradient id="radial-gradient-4" cx="0.175" cy="0.316" r="1.508" gradientTransform="matrix(-0.651, 0, 0, 1, 327.33, 0)" gradientUnits="objectBoundingBox">
      <stop offset="0" stop-color="#fff"/>
      <stop offset="1" stop-color="#999d9f"/>
    </radialGradient>
    <linearGradient id="linear-gradient-15" x1="317.731" y1="0.5" x2="318.731" y2="0.5" xlink:href="#linear-gradient-6"/>
    <linearGradient id="linear-gradient-16" x1="972.552" y1="0.5" x2="973.552" y2="0.5" xlink:href="#linear-gradient-3"/>
    <radialGradient id="radial-gradient-5" cx="0.032" cy="0" r="2.233" gradientTransform="matrix(-0.387, 0, 0, 1, 294.238, 0)" gradientUnits="objectBoundingBox">
      <stop offset="0" stop-color="#adadad"/>
      <stop offset="1" stop-color="#999d9f"/>
    </radialGradient>
    <radialGradient id="radial-gradient-6" cx="0.07" cy="0.076" r="3.006" gradientTransform="matrix(-0.387, 0, 0, 1, 304.885, 0)" xlink:href="#radial-gradient-5"/>
    <radialGradient id="radial-gradient-7" cx="0.793" cy="0.465" r="3.228" gradientTransform="matrix(-0.325, 0, 0, 1, 174.842, 0)" gradientUnits="objectBoundingBox">
      <stop offset="0" stop-color="#ff0204"/>
      <stop offset="0.768" stop-color="#760204"/>
    </radialGradient>
    <linearGradient id="linear-gradient-17" x1="162.208" y1="0.5" x2="163.544" y2="0.5" gradientUnits="objectBoundingBox">
      <stop offset="0" stop-color="#760204"/>
      <stop offset="1" stop-color="#ff0204"/>
    </linearGradient>
    <linearGradient id="linear-gradient-18" x1="96.807" y1="0.5" x2="97.807" y2="0.5" xlink:href="#linear-gradient-3"/>
    <linearGradient id="linear-gradient-19" x1="670.758" y1="0.162" x2="667.605" y2="0.888" xlink:href="#linear-gradient-3"/>
    <linearGradient id="linear-gradient-20" x1="187.037" y1="48.014" x2="188.303" y2="47.462" xlink:href="#linear-gradient-3"/>
    <linearGradient id="linear-gradient-21" x1="96.817" y1="0.5" x2="97.817" y2="0.5" xlink:href="#linear-gradient-3"/>
    <linearGradient id="linear-gradient-22" x1="97.877" y1="-0.782" x2="97.831" y2="1.358" xlink:href="#linear-gradient-14"/>
    <linearGradient id="linear-gradient-23" x1="13.11" y1="-0.339" x2="13.113" y2="0.823" xlink:href="#linear-gradient-6"/>
    <linearGradient id="linear-gradient-24" x1="35.194" y1="-0.059" x2="35.198" y2="0.959" xlink:href="#linear-gradient-4"/>
    <clipPath id="clip-path-2">
      <rect id="Rectangle_33" data-name="Rectangle 33" width="181.942" height="59.45" transform="translate(527.09 706.92) rotate(-180)" fill="none"/>
    </clipPath>
    <linearGradient id="linear-gradient-25" x1="12.789" y1="1.108" x2="12.789" y2="-0.107" xlink:href="#linear-gradient-3"/>
    <clipPath id="clip-Vehicle_Inspection_NOC_">
      <rect width="266" height="222"/>
    </clipPath>
  </defs>
  <g id="Vehicle_Inspection_NOC_" data-name="Vehicle Inspection (NOC)" clip-path="url(#clip-Vehicle_Inspection_NOC_)">
    <g id="Group_201" data-name="Group 201" transform="translate(-286 -577)">
      <g transform="matrix(1, 0, 0, 1, 286, 577)" filter="url(#Path_223)">
        <path id="Path_223-2" data-name="Path 223" d="M516.458,793.812a126.653,126.653,0,1,0-192.134,0Z" transform="translate(-286 -577)" fill="#d7563d" opacity="0.5"/>
      </g>
      <g id="Group_170" data-name="Group 170">
        <ellipse id="Ellipse_1" data-name="Ellipse 1" cx="118.335" cy="2.996" rx="118.335" ry="2.996" transform="translate(312.574 789.881)" fill="url(#radial-gradient)" style="mix-blend-mode: multiply;isolation: isolate"/>
        <g id="Group_169" data-name="Group 169">
          <g id="Group_140" data-name="Group 140">
            <g id="Group_134" data-name="Group 134">
              <path id="Path_224" data-name="Path 224" d="M489.875,779.29l5.013-.948,5.245.132,7.42,5.034,10.564-3.567s5.47-1.765,10.17.842l2.788-5.26s-.7-22-23.522-22S489.875,779.29,489.875,779.29Z" fill="#1e1e1e"/>
              <path id="Path_225" data-name="Path 225" d="M366.208,778.692l5.012-.947,4.166,3.038,9.052,3.055,10.012-4.495s5.141-2.656,9.841-.049l3.116-4.369s-.7-22-23.522-22S366.208,778.692,366.208,778.692Z" fill="#1e1e1e"/>
            </g>
            <g id="Group_139" data-name="Group 139">
              <g id="Group_136" data-name="Group 136">
                <g id="Group_135" data-name="Group 135">
                  <path id="Path_226" data-name="Path 226" d="M494.612,775.525a14.52,14.52,0,1,0,14.52-14.52A14.52,14.52,0,0,0,494.612,775.525Zm6.3-.646a7.549,7.549,0,1,1,7.548,7.549A7.548,7.548,0,0,1,500.916,774.879Z" fill="#121212"/>
                  <path id="Path_227" data-name="Path 227" d="M491.551,775.525a17.581,17.581,0,1,0,17.582-17.582A17.582,17.582,0,0,0,491.551,775.525Zm7.275,0a10.307,10.307,0,1,1,10.307,10.306A10.308,10.308,0,0,1,498.826,775.525Z" fill="url(#radial-gradient-2)"/>
                </g>
                <path id="Path_228" data-name="Path 228" d="M496.491,775.523a12.641,12.641,0,1,0,12.641-12.641A12.64,12.64,0,0,0,496.491,775.523Zm5.711-7.22,3.486,4.671a4.28,4.28,0,0,0-.49.846l-5.785-.684A10,10,0,0,1,502.2,768.3Zm6.93,8.8a1.579,1.579,0,1,1,1.579-1.579A1.578,1.578,0,0,1,509.132,777.1Zm-.668-11.563-.331,5.819a4.069,4.069,0,0,0-.916.331l-3.991-4.244A9.94,9.94,0,0,1,508.464,765.539Zm6.578,1.906-4,4.244a4.123,4.123,0,0,0-.916-.331l-.331-5.819A9.959,9.959,0,0,1,515.042,767.445Zm3.813,5.691-5.786.684a4.274,4.274,0,0,0-.489-.846l3.482-4.671A10.016,10.016,0,0,1,518.855,773.136Zm-5.612,3.61a4.347,4.347,0,0,0,.17-.966l5.67-1.335a9.394,9.394,0,0,1,.062,1.078,9.979,9.979,0,0,1-1.028,4.418Zm-.066,7.937L511.5,779.1a4.107,4.107,0,0,0,.746-.626l5.206,2.624A10.09,10.09,0,0,1,513.177,784.683Zm-6.835.456,2.3-5.355a4.138,4.138,0,0,0,.978,0l2.3,5.355a10,10,0,0,1-5.579,0Zm-5.529-4.041,5.21-2.624a4.175,4.175,0,0,0,.746.626l-1.678,5.583A10.1,10.1,0,0,1,500.813,781.1Zm-.663-1.157a9.925,9.925,0,0,1-1.028-4.418,10.4,10.4,0,0,1,.058-1.078l5.674,1.339a4.32,4.32,0,0,0,.17.958Z" fill="url(#linear-gradient)"/>
              </g>
              <g id="Group_138" data-name="Group 138">
                <g id="Group_137" data-name="Group 137">
                  <path id="Path_229" data-name="Path 229" d="M370.586,775.525a14.52,14.52,0,1,0,14.52-14.52A14.52,14.52,0,0,0,370.586,775.525Zm6.3-.646a7.548,7.548,0,1,1,7.548,7.549A7.548,7.548,0,0,1,376.89,774.879Z" fill="#121212"/>
                  <path id="Path_230" data-name="Path 230" d="M367.525,775.525a17.581,17.581,0,1,0,17.582-17.582A17.581,17.581,0,0,0,367.525,775.525Zm7.275,0a10.307,10.307,0,1,1,10.307,10.306A10.308,10.308,0,0,1,374.8,775.525Z" fill="url(#radial-gradient-3)"/>
                </g>
                <path id="Path_231" data-name="Path 231" d="M372.464,775.523a12.642,12.642,0,1,0,12.642-12.641A12.641,12.641,0,0,0,372.464,775.523Zm5.712-7.22,3.485,4.671a4.325,4.325,0,0,0-.489.846l-5.786-.684A10.012,10.012,0,0,1,378.176,768.3Zm6.93,8.8a1.579,1.579,0,1,1,1.579-1.579A1.578,1.578,0,0,1,385.106,777.1Zm-.668-11.563-.331,5.819a4.069,4.069,0,0,0-.916.331l-3.991-4.244A9.94,9.94,0,0,1,384.438,765.539Zm6.578,1.906-4,4.244a4.123,4.123,0,0,0-.916-.331l-.331-5.819A9.959,9.959,0,0,1,391.016,767.445Zm3.813,5.691-5.786.684a4.275,4.275,0,0,0-.489-.846l3.481-4.671A10.011,10.011,0,0,1,394.829,773.136Zm-5.612,3.61a4.347,4.347,0,0,0,.17-.966l5.67-1.335a9.4,9.4,0,0,1,.062,1.078,9.979,9.979,0,0,1-1.028,4.418Zm-.066,7.937-1.679-5.583a4.14,4.14,0,0,0,.746-.626l5.206,2.624A10.1,10.1,0,0,1,389.151,784.683Zm-6.835.456,2.3-5.355a4.138,4.138,0,0,0,.978,0l2.3,5.355a10,10,0,0,1-5.579,0Zm-5.529-4.041,5.21-2.624a4.175,4.175,0,0,0,.746.626l-1.678,5.583A10.1,10.1,0,0,1,376.787,781.1Zm-.663-1.157a9.925,9.925,0,0,1-1.028-4.418,10.4,10.4,0,0,1,.058-1.078l5.674,1.339a4.32,4.32,0,0,0,.17.958Z" fill="url(#linear-gradient-2)"/>
              </g>
            </g>
          </g>
          <g id="Group_168" data-name="Group 168">
            <g id="Group_141" data-name="Group 141">
              <path id="Path_232" data-name="Path 232" d="M343.731,764.535a7.512,7.512,0,0,0,.641,2.262c1.289,3.224,4.138,8.226,4.732,8.55.778.418,17.1,3.345,17.1,3.345a19.7,19.7,0,0,1-.258-3.169,19.354,19.354,0,1,1,38.341,3.771l85.584,0a19.97,19.97,0,0,1-.336-3.646,19.712,19.712,0,1,1,38.748,5.139c11.265-.594,11.308-2.482,11.308-2.509a40.539,40.539,0,0,0,4.006-.778c.933-.261,1.656-2.727,2.1-4.943a30.258,30.258,0,0,0,.469-3.18c.121-1.673-.3-1.911-.3-1.911s.059-2.63,0-4.361a3.586,3.586,0,0,0-1.079-2.571s-2.446-12.126-7.944-14.634-35.9-6.87-42.71-8.421-21.085-14.994-38.11-18.995-40.8-3.048-50.655-2.927-42.291.477-42.588.954,3.641,4.181,3.641,4.181S349.94,734.845,348.389,736.4c-1.043,1.044-1.817,10.144-2.212,16.006-.2,2.868-.3,4.959-.3,4.959C344.208,758.857,343.731,762.5,343.731,764.535Z" fill="url(#linear-gradient-3)"/>
              <path id="Path_233" data-name="Path 233" d="M346.177,752.406c3.611-.985,11.8-5.635,11.8-5.635,4.123.188,5.916,5.1,6.9,6.979s5.377,1.973,5.377,1.973,4.388-5.107,14.872-5.107,18.729,8.331,18.729,8.331c2.2-.492,1.431-5.107,3.939-6.541s76.878,2.508,78.941,3.5,3.314,3.853,3.314,3.853c6.362-7.081,11.938-9.777,22.559-9.14,10.984.657,19.284,13.4,19.284,13.4h4.243l-.332-1.207a1.147,1.147,0,0,1,1.766-1.243c.922-1.59,7.225-1.039,7.225-1.039a39.517,39.517,0,0,0-3.649-10.1,10.475,10.475,0,0,0-4.295-4.536c-5.494-2.509-35.9-6.87-42.71-8.421s-21.085-14.994-38.11-18.995-40.8-3.048-50.655-2.927c-8.8.106-35.621.4-41.459.8a3.85,3.85,0,0,0-1.129.149c-.3.476,3.641,4.181,3.641,4.181s-9.991,8.581-15.149,13.118c-1.47,1.289-2.544,2.25-2.888,2.594a2.663,2.663,0,0,0-.473,1.051c-.094.325-.183.712-.273,1.145-.344,1.688-.641,4.123-.891,6.686C346.513,747.724,346.318,750.28,346.177,752.406Z" fill="url(#linear-gradient-4)"/>
              <path id="Path_234" data-name="Path 234" d="M363.914,716.358c5.838,1.935,12.827,6.5,12.827,6.5,1.191,10.582,39.484,15.784,39.484,15.784s83.986,5.494,95.1,6.452c8.663.742,23.645,3.958,29.823,5.337a10.475,10.475,0,0,0-4.295-4.536c-5.494-2.509-35.9-6.87-42.71-8.421s-21.085-14.994-38.11-18.995-40.8-3.048-50.655-2.927C396.57,715.659,369.752,715.956,363.914,716.358Z" fill="url(#linear-gradient-5)"/>
            </g>
            <g id="Group_150" data-name="Group 150">
              <g id="Group_149" data-name="Group 149" clip-path="url(#clip-path)">
                <g id="Group_148" data-name="Group 148">
                  <g id="Group_142" data-name="Group 142">
                    <path id="Path_235" data-name="Path 235" d="M540.485,785.536,414.249,740.744,551.56,770.718" fill="#556f79"/>
                    <path id="Path_236" data-name="Path 236" d="M416.165,742.886l.107-.361c1.33.313,133.09,31.32,135.323,31.735l.284.053-9.652,14.078Zm3.2.754,122.718,44.3,9.165-13.366C544.789,773.146,439.169,748.3,419.363,743.64Z" fill="#fff"/>
                  </g>
                  <g id="Group_143" data-name="Group 143">
                    <path id="Path_237" data-name="Path 237" d="M529.023,785.536,372.464,728.587l142.01,65.4Z" fill="#556f79"/>
                    <path id="Path_238" data-name="Path 238" d="M372.385,730.3l.146-.347,156.213,58.166-13.687,8.933Zm4.362,1.625,138.28,64.7,12.886-8.41Z" fill="#fff"/>
                  </g>
                  <g id="Group_144" data-name="Group 144">
                    <path id="Path_239" data-name="Path 239" d="M493.765,752.925l-72.352-40.538H375.386l63.638,29.722Z"/>
                    <path id="Path_240" data-name="Path 240" d="M437.74,743.92l-69.106-33.566h11.693l60.166,29.61,37.755,7.439,8.988,5.726Zm2.632-3.6-60.133-29.593h-9.967l67.562,32.823,47.568,8.851-7.261-4.639Z" fill="#fff"/>
                  </g>
                  <g id="Group_146" data-name="Group 146">
                    <g id="Group_145" data-name="Group 145">
                      <path id="Path_241" data-name="Path 241" d="M547.914,763.14,505.688,754.4l-68.754-40.7H546.19Z"/>
                      <path id="Path_242" data-name="Path 242" d="M547.914,763.14,505.688,754.4l-68.754-40.7,69.851,34.377,40.687,2.356Z" fill="#556f79"/>
                    </g>
                    <path id="Path_243" data-name="Path 243" d="M506.756,750.835l-.039,0-72.229-38.279.165-.339,72.942,32.5,43.089,1.049.237.006-2.057,7.949Zm.792-5.742h-.038l-67.962-30.284,67.274,35.654,41.756,2.862,1.859-7.187Z" fill="#fff"/>
                  </g>
                  <path id="Path_244" data-name="Path 244" d="M417.334,761.215l-8.767,2.8,2.131-2.733-40.784-24.739Z" fill="#556f79"/>
                  <g id="Group_147" data-name="Group 147">
                    <path id="Path_245" data-name="Path 245" d="M452.528,769.052,372.464,732.9l51.714,29.373L409.7,766.594Z"/>
                    <path id="Path_246" data-name="Path 246" d="M415.105,766.044l4.522-4.167-47.255-26.905.17-.335,78.024,35.3Zm5.157-4.239-4.292,3.954,32.283,3.542-72.166-32.648Z" fill="#fff"/>
                  </g>
                </g>
              </g>
            </g>
            <g id="Group_167" data-name="Group 167">
              <g id="Group_166" data-name="Group 166">
                <g id="Group_165" data-name="Group 165">
                  <g id="Group_156" data-name="Group 156">
                    <g id="Group_155" data-name="Group 155">
                      <g id="Group_154" data-name="Group 154">
                        <g id="Group_151" data-name="Group 151">
                          <path id="Path_248" data-name="Path 248" d="M378.227,723.916c.075.125.157.257.247.394a11.017,11.017,0,0,0,3.7,3.724c.668.336,5.006,1.7,10.437,3.267l4.127-5.74,3.579-4.979c-9.761.333-17.268.727-18.5,1.005C378.227,722.392,377.419,722.571,378.227,723.916Z" fill="url(#linear-gradient-6)"/>
                          <path id="Path_249" data-name="Path 249" d="M395.616,723.1c-8.08.316-12.524.612-13.295.775-.371.083-.744.167-1.094.248a6.9,6.9,0,0,0,1.99,1.813c.469.213,3.452,1.188,8.454,2.651Z" fill="url(#linear-gradient-7)"/>
                        </g>
                        <g id="Group_152" data-name="Group 152">
                          <path id="Path_250" data-name="Path 250" d="M396.488,732.4a186.762,186.762,0,0,0,18.385,4.419c2.317.333,8.862.743,17.138,1.106l-.363-9.968-.289-8c-9.183.039-19.659.262-28.623.547l-2.775,5.279Z" fill="url(#linear-gradient-8)"/>
                          <path id="Path_251" data-name="Path 251" d="M429.1,722.315c-7.53.055-16.414.23-24.922.49l-4.259,8.106a156.806,156.806,0,0,0,15.29,3.587c1.931.276,7.215.631,14.369.968Z" fill="url(#linear-gradient-9)"/>
                        </g>
                        <g id="Group_153" data-name="Group 153">
                          <path id="Path_252" data-name="Path 252" d="M436.318,719.953l1.9,8.452,2.215,9.855c19.718.708,43.758,1.036,46.927-.187,0,0-4.951-3.322-11.368-7.077-7.612-4.455-17.287-9.523-23.218-10.4A151.2,151.2,0,0,0,436.318,719.953Z" fill="url(#linear-gradient-10)"/>
                          <path id="Path_253" data-name="Path 253" d="M471.053,736.547c4.109,0,7.137-.056,9.365-.136-7.56-4.7-20.856-12.441-27.988-13.494a114.685,114.685,0,0,0-13.178-.6l3.071,13.662C452.864,736.342,463.246,736.547,471.053,736.547Z" fill="url(#linear-gradient-11)"/>
                        </g>
                        <path id="Path_254" data-name="Path 254" d="M431.359,719.957l.289,8,.363,9.968c2.654.121,5.491.235,8.421.336l-2.215-9.855-1.9-8.452C434.723,719.945,433.063,719.945,431.359,719.957Z" fill="url(#linear-gradient-12)"/>
                        <path id="Path_255" data-name="Path 255" d="M392.607,731.3l.613.176,3.267.922,3.474-6.616,2.774-5.279-.141,0-1.84.059-.442.016-3.579,4.978Z" fill="url(#linear-gradient-13)"/>
                      </g>
                      <path id="Path_256" data-name="Path 256" d="M378.227,723.916c.075.125.157.257.247.394l3.091.211,12.418.852,2.751.188,3.227.222,2.556.176L429.3,727.8l2.348.16,6.569.449,2.442.168,29.956,2.056,5.376.367c-7.612-4.455-17.287-9.523-23.218-10.4a151.2,151.2,0,0,0-16.455-.645c-1.6-.008-3.255-.008-4.959,0-9.183.039-19.659.262-28.623.547l-.141,0-1.84.059-.442.015c-9.761.333-17.268.727-18.5,1.005C378.227,722.392,377.419,722.571,378.227,723.916Z" fill="url(#linear-gradient-14)"/>
                    </g>
                    <path id="Path_257" data-name="Path 257" d="M482.519,738.833a1.366,1.366,0,0,0,.8-2.4c-2.662-2.265-7.125-5.7-9.664-5.7-3.786,0-2.491,8.012-.115,8.012C475.241,738.737,479.414,739.007,482.519,738.833Z" fill="url(#radial-gradient-4)"/>
                  </g>
                  <g id="Group_164" data-name="Group 164">
                    <g id="Group_157" data-name="Group 157">
                      <path id="Path_258" data-name="Path 258" d="M541.93,769.3l-4.424-.289-1.706-6.2a1.147,1.147,0,0,1,1.766-1.244,18.394,18.394,0,0,1,5.44,6.026A1.15,1.15,0,0,1,541.93,769.3Z" fill="url(#linear-gradient-15)"/>
                      <path id="Path_259" data-name="Path 259" d="M538.108,766.264c.354,1.025,1.1,1.7,1.665,1.5s.737-1.186.383-2.211-1.1-1.7-1.666-1.5S537.753,765.238,538.108,766.264Z" fill="url(#linear-gradient-16)"/>
                    </g>
                    <g id="Group_158" data-name="Group 158">
                      <path id="Path_260" data-name="Path 260" d="M439.024,744.3c0,2.243,4.752,3.778,6.588,3.778a14.771,14.771,0,0,0,3.212-.273c.633-.141,2.611-.8,2.154-1.755a1.1,1.1,0,0,0-.176-.254,1.883,1.883,0,0,0-.813-.445,38.087,38.087,0,0,0-4.771-1.317C444.362,743.856,439.024,742.617,439.024,744.3Zm2.376,1.656s7.221.813,7.034.923C444.878,748.905,441.4,745.954,441.4,745.954Zm-.113-.918s4.064-1.454,7.151,1.122Z" fill="url(#radial-gradient-5)"/>
                      <path id="Path_261" data-name="Path 261" d="M392.608,741.614c0,2.243,4.752,3.778,6.589,3.778a14.776,14.776,0,0,0,3.212-.273c.633-.141,2.61-.8,2.153-1.755a1.07,1.07,0,0,0-.176-.254,1.894,1.894,0,0,0-.813-.445,38.1,38.1,0,0,0-4.771-1.317C397.946,741.172,392.608,739.934,392.608,741.614Zm2.376,1.657s7.222.812,7.034.922C398.462,746.221,394.984,743.271,394.984,743.271Zm-.113-.919s4.064-1.453,7.151,1.122Z" fill="url(#radial-gradient-6)"/>
                    </g>
                    <g id="Group_159" data-name="Group 159">
                      <path id="Path_262" data-name="Path 262" d="M346.752,745.282H362.23a1.893,1.893,0,0,0,1.266-.484l3.227-2.9a1.891,1.891,0,0,0-1.266-3.3H347.643c-.094.465-.184.985-.274,1.548-.164,1.07-.316,2.3-.461,3.591C346.857,744.243,346.8,744.759,346.752,745.282Z" fill="url(#radial-gradient-7)"/>
                      <path id="Path_263" data-name="Path 263" d="M346.908,743.735h12.121a2.455,2.455,0,0,0,1.141-.258l2.912-1.563c1.16-.621.422-1.77-1.141-1.77H347.369C347.2,741.214,347.053,742.441,346.908,743.735Z" fill="url(#linear-gradient-17)"/>
                    </g>
                    <g id="Group_160" data-name="Group 160">
                      <path id="Path_264" data-name="Path 264" d="M389.774,753.041l.367-.133c-.036-.1-3.566-9.878-3.566-11.969,0-2.056,6.122-9.439,6.184-9.514l-.3-.249c-.256.308-6.274,7.567-6.274,9.763C386.184,743.1,389.627,752.636,389.774,753.041Z"/>
                      <path id="Path_265" data-name="Path 265" d="M484.51,774.022c4.447-27.548-.677-35.211-.9-35.524l-.319.225c.053.076,5.244,7.9.832,35.237Z"/>
                      <path id="Path_266" data-name="Path 266" d="M437.3,770.718a167.36,167.36,0,0,0-.818-32.639l-.387.054a166.867,166.867,0,0,1,.815,32.551Z"/>
                      <path id="Path_267" data-name="Path 267" d="M524.741,758.506a14.683,14.683,0,0,0,4.282-6.254l-.374-.113a14.58,14.58,0,0,1-4.163,6.07Z"/>
                    </g>
                    <g id="Group_163" data-name="Group 163">
                      <g id="Group_161" data-name="Group 161">
                        <path id="Path_268" data-name="Path 268" d="M540.045,752.407s.09-3.225-1.075-3.852-21.98-5.914-23.31-4.122,7.63,6.63,10.049,7.258S538.97,753.3,540.045,752.407Z" fill="url(#linear-gradient-18)"/>
                        <path id="Path_269" data-name="Path 269" d="M534.48,750.432a1.778,1.778,0,1,0,1.762-2.016A1.9,1.9,0,0,0,534.48,750.432Z" fill="url(#linear-gradient-19)"/>
                        <path id="Path_270" data-name="Path 270" d="M523.162,748.358c-.18,1.316,2.5,2.77,5.987,3.248s6.46-.2,6.64-1.517-2.5-2.771-5.987-3.249S523.342,747.041,523.162,748.358Z" fill="url(#linear-gradient-20)"/>
                      </g>
                      <g id="Group_162" data-name="Group 162">
                        <path id="Path_271" data-name="Path 271" d="M525.708,751.691c2.419.629,13.262,1.614,14.337.715,0,0,.008-.3-.016-.75-.051-.993-.254-2.669-1.059-3.1-1.164-.625-21.98-5.912-23.309-4.119,0,.008-.011.016-.015.024C514.407,746.267,523.3,751.065,525.708,751.691Z" opacity="0.2" fill="url(#linear-gradient-21)"/>
                        <path id="Path_272" data-name="Path 272" d="M515.646,744.458c6.377,3.915,20.862,6.592,24.383,7.2-.051-.993-.254-2.669-1.059-3.1-1.164-.625-21.98-5.912-23.309-4.119C515.657,744.442,515.65,744.45,515.646,744.458Z" fill="url(#linear-gradient-22)"/>
                      </g>
                    </g>
                  </g>
                </g>
                <path id="Path_273" data-name="Path 273" d="M344.372,766.8c1.289,3.224,4.138,8.226,4.732,8.55.778.418,17.1,3.345,17.1,3.345a19.7,19.7,0,0,1-.258-3.169,19.354,19.354,0,1,1,38.341,3.771l85.584,0a19.97,19.97,0,0,1-.336-3.646,19.712,19.712,0,1,1,38.748,5.139c11.265-.594,11.308-2.482,11.308-2.509a40.539,40.539,0,0,0,4.006-.778c.933-.261,1.656-2.727,2.1-4.943a89.181,89.181,0,0,1-13.532,1,23.118,23.118,0,0,0-46.141,1.254,23.775,23.775,0,0,0-7.717-2.509c-4.06-.476-70.857-2.551-70.857-2.551a23.065,23.065,0,0,0-44.23-1.446s-11.547-.3-13.161-.3S345.908,767.81,344.372,766.8Z" fill="url(#linear-gradient-23)"/>
              </g>
              <path id="Path_274" data-name="Path 274" d="M482.81,768.614c-7.049.32-73.114-3.075-73.114-3.075s.477-2.657,4.539-2.657,60.028,2.475,64.752,3.027A4.43,4.43,0,0,1,482.81,768.614Z" fill="url(#linear-gradient-24)"/>
            </g>
          </g>
        </g>
      </g>
      <g id="Group_179" data-name="Group 179">
        <g id="Group_178" data-name="Group 178" clip-path="url(#clip-path-2)">
          <g id="Group_177" data-name="Group 177">
            <rect id="Rectangle_32" data-name="Rectangle 32" width="207.394" height="63.432" transform="translate(544.018 708.599) rotate(-180)" fill="url(#linear-gradient-25)"/>
            <g id="Group_171" data-name="Group 171">
              <path id="Path_275" data-name="Path 275" d="M537.307,721.724l-142.688-50.39,154.16,34.026" fill="#556f79"/>
              <path id="Path_276" data-name="Path 276" d="M396.629,673.51l.08-.27c1.5.354,149.772,35.424,152.1,35.856l.206.039-9.91,15.492Zm2.46.583,139.894,50.192,9.567-14.954C542.476,708,418.194,678.611,399.089,674.093Z" fill="#fff"/>
            </g>
            <g id="Group_172" data-name="Group 172">
              <path id="Path_277" data-name="Path 277" d="M513.962,717.911,351.169,658.694l147.665,68Z" fill="#556f79"/>
              <path id="Path_278" data-name="Path 278" d="M351.11,660.425l.109-.261,162.07,60.347.262.1-14.115,9.213Zm3.268,1.217L499.413,729.5l13.516-8.821Z" fill="#fff"/>
            </g>
            <g id="Group_173" data-name="Group 173">
              <path id="Path_279" data-name="Path 279" d="M477.3,684l-75.233-42.153h-47.86l66.172,30.906Z"/>
              <path id="Path_280" data-name="Path 280" d="M419.054,674.583l-71.63-34.793h11.908l62.557,30.786,39.266,7.737,9.089,5.795Zm2.744-3.738-62.532-30.773H348.652l70.473,34.237,49.745,9.256-7.8-4.98Z" fill="#fff"/>
            </g>
            <g id="Group_175" data-name="Group 175">
              <g id="Group_174" data-name="Group 174">
                <path id="Path_281" data-name="Path 281" d="M548.319,697.882,489.7,685.533l-71.492-42.32H546.412Z"/>
                <path id="Path_282" data-name="Path 282" d="M548.319,697.882,489.7,685.533l-71.492-42.32,72.632,35.746,57.021,5.71Z" fill="#556f79"/>
              </g>
              <path id="Path_283" data-name="Path 283" d="M490.78,681.769l-75.092-39.8.123-.253,75.861,33.8,59.533,4.35.168.012-2.109,8.151Zm.822-5.969-72.123-32.138,71.385,37.832,58.188,6.235,1.963-7.588Z" fill="#fff"/>
            </g>
            <path id="Path_284" data-name="Path 284" d="M397.826,692.621l-9.116,2.915,2.216-2.842L348.517,666.97Z" fill="#556f79"/>
            <g id="Group_176" data-name="Group 176">
              <path id="Path_285" data-name="Path 285" d="M434.421,700.769l-83.252-37.591,53.773,30.542-15.059,4.494Z"/>
              <path id="Path_286" data-name="Path 286" d="M395.634,697.6l4.668-4.3-49.2-28.013.128-.251,80.817,36.561Zm4.976-4.452.168.1-4.5,4.144,34.031,3.732-76.429-34.575Z" fill="#fff"/>
            </g>
          </g>
        </g>
      </g>
      <g id="Group_200" data-name="Group 200">
        <path id="Path_287" data-name="Path 287" d="M321.91,630.72s-4.836-.392-9.258,6.4c11.535-2.628,17.751-.449,17.751-.449S327.13,630.407,321.91,630.72Z" fill="#808285"/>
        <path id="Path_288" data-name="Path 288" d="M351.989,631.5a38.03,38.03,0,0,1-5.08-7.718c2.07-1.823,2.281-5.444,1.457-8.077a9.425,9.425,0,0,0-5.576-5.741,13.222,13.222,0,0,0-8.131-.316c-3.24.843-6.352,2.867-7.641,5.956s-.171,7.235,2.887,8.6a37.909,37.909,0,0,1-6.341,11.481c8.069.068,16.141.137,24.207-.1a7.052,7.052,0,0,0,3.8-.844A2.183,2.183,0,0,0,351.989,631.5Zm-9.464-11.117a5.486,5.486,0,0,1-5.115.525,3.838,3.838,0,0,1-2.44-4.987,5.144,5.144,0,0,1,1.744-2.514c1.1-.869,6.656-2.347,7.927,2.185C345.141,617.375,344,619.349,342.525,620.382Z" fill="#bcbec0"/>
        <path id="Path_289" data-name="Path 289" d="M330.277,635.729a66.3,66.3,0,0,1,4.251-11.474A7.755,7.755,0,0,1,332.3,610.49a10.164,10.164,0,0,0-5.282,5.113c-1.289,3.09-.171,7.235,2.887,8.6a37.909,37.909,0,0,1-6.341,11.481Q326.919,635.708,330.277,635.729Z" fill="#d1d3d4"/>
        <g id="Group_180" data-name="Group 180">
          <path id="Path_290" data-name="Path 290" d="M292.218,633.288H396.3l13.3,151.724-102.822,12.4Z" fill="#375a64"/>
          <path id="Path_291" data-name="Path 291" d="M369.587,649.136s9.393-3.48,6.348-15.848H362.917Z" fill="#155f99"/>
          <path id="Path_292" data-name="Path 292" d="M292.218,633.288l-3.908,2.847L302.964,795.9l3.819,1.51Z" fill="#2b454e"/>
          <path id="Path_293" data-name="Path 293" d="M409.605,785.012l-9.17-104.591-7.329-40.739-92.049-1.816s-1,119.818,17.774,158.09Z" fill="#878787"/>
        </g>
        <path id="Path_294" data-name="Path 294" d="M302.87,640.8l92.831-1.665c3.1,45.719,8.461,91.281,17.334,136.238-30.892.945-61.939,5.261-92.3,11.066C312.265,755.658,302.87,668.1,302.87,640.8Z" fill="#fff"/>
        <path id="Path_295" data-name="Path 295" d="M365.605,639.674l3.982,9.462a11.579,11.579,0,0,0,6.887-9.657Z" fill="#e6e7e8"/>
        <path id="Path_296" data-name="Path 296" d="M331.892,631.873l19.668-.895a38.033,38.033,0,0,1-3.46-4.987,28.268,28.268,0,0,0-6.589,1.357A51.118,51.118,0,0,0,331.892,631.873Z" fill="#808285"/>
        <g id="Group_181" data-name="Group 181">
          <path id="Path_297" data-name="Path 297" d="M326.983,649.107l42.6.029c2.243-4.858,1.265-10.694-.524-15.968a4.6,4.6,0,0,0-3.931-3.118,189.589,189.589,0,0,0-43.222.67C326.654,633.218,327.4,642.267,326.983,649.107Z" fill="#bcbec0"/>
          <path id="Path_298" data-name="Path 298" d="M370.211,637.189l-44.058.123a34.9,34.9,0,0,1,.93,8.327l43.606-.23A22.214,22.214,0,0,0,370.211,637.189Z" fill="#d1d3d4"/>
          <path id="Path_299" data-name="Path 299" d="M346.412,630.118a20.066,20.066,0,0,0-7.664,1.274c-.427.187-.913.532-.827.99.074.4.532.577.923.68,6,1.577,12.274,1.505,18.417,1.051,1.206-.089,7.4.087,7.136-1.558-.349-2.2-5.732-1.934-7.247-2.07A97.186,97.186,0,0,0,346.412,630.118Z" fill="#d1d3d4"/>
          <ellipse id="Ellipse_2" data-name="Ellipse 2" cx="2.98" cy="1.154" rx="2.98" ry="1.154" transform="translate(330.147 631.257)" fill="#d1d3d4"/>
        </g>
        <g id="Group_182" data-name="Group 182">
          <path id="Path_300" data-name="Path 300" d="M391.842,683.041l-16.86.855-3.223-20.444,16.86-.855Zm-15.121-1.287,12.74-.645-2.58-16.37-12.741.646Z" fill="#bcbec0"/>
        </g>
        <g id="Group_183" data-name="Group 183">
          <path id="Path_301" data-name="Path 301" d="M396.988,718.7l-16.864.777-3.129-20.458,16.863-.777Zm-15.116-1.356,12.744-.588-2.506-16.381-12.743.587Z" fill="#bcbec0"/>
        </g>
        <g id="Group_184" data-name="Group 184">
          <path id="Path_302" data-name="Path 302" d="M386.75,755.3l-3.49-20.4,16.847-1.074,3.491,20.4Zm-1.084-18.5,2.794,16.335,12.732-.812L398.4,735.989Z" fill="#bcbec0"/>
        </g>
        <g id="Group_189" data-name="Group 189">
          <g id="Group_185" data-name="Group 185">
            <path id="Path_303" data-name="Path 303" d="M312.664,674.973a1.282,1.282,0,0,1-.04-2.563l53.121-1.7a1.282,1.282,0,0,1,.083,2.562l-53.122,1.7Z" fill="#808285"/>
          </g>
          <g id="Group_186" data-name="Group 186">
            <path id="Path_304" data-name="Path 304" d="M313.691,680.35a1.281,1.281,0,0,1-.04-2.562l53.121-1.7a1.281,1.281,0,1,1,.082,2.561l-53.121,1.7Z" fill="#808285"/>
          </g>
          <g id="Group_187" data-name="Group 187">
            <path id="Path_305" data-name="Path 305" d="M314.718,685.727a1.281,1.281,0,0,1-.04-2.562l26.56-.85a1.282,1.282,0,1,1,.083,2.562l-26.561.85Z" fill="#808285"/>
          </g>
          <g id="Group_188" data-name="Group 188">
            <path id="Path_306" data-name="Path 306" d="M311.483,669.625a1.281,1.281,0,0,1-.04-2.562l26.561-.85a1.282,1.282,0,0,1,.082,2.562l-26.561.85Z" fill="#d7563d"/>
          </g>
        </g>
        <g id="Group_194" data-name="Group 194">
          <g id="Group_190" data-name="Group 190">
            <path id="Path_307" data-name="Path 307" d="M319.849,713.443a1.282,1.282,0,0,1-.119-2.558l52.913-5a1.282,1.282,0,0,1,.241,2.552l-52.913,5C319.93,713.441,319.889,713.443,319.849,713.443Z" fill="#808285"/>
          </g>
          <g id="Group_191" data-name="Group 191">
            <path id="Path_308" data-name="Path 308" d="M321.208,718.746a1.281,1.281,0,0,1-.119-2.557l52.913-5a1.282,1.282,0,1,1,.241,2.552l-52.913,5C321.289,718.744,321.248,718.746,321.208,718.746Z" fill="#808285"/>
          </g>
          <g id="Group_192" data-name="Group 192">
            <path id="Path_309" data-name="Path 309" d="M322.567,724.049a1.282,1.282,0,0,1-.119-2.558l26.457-2.5a1.282,1.282,0,0,1,.24,2.553l-26.456,2.5C322.648,724.047,322.607,724.049,322.567,724.049Z" fill="#808285"/>
          </g>
          <g id="Group_193" data-name="Group 193">
            <path id="Path_310" data-name="Path 310" d="M318.338,708.179a1.282,1.282,0,0,1-.119-2.558l26.457-2.5a1.282,1.282,0,0,1,.24,2.552l-26.456,2.5C318.419,708.177,318.378,708.179,318.338,708.179Z" fill="#d7563d"/>
          </g>
        </g>
        <g id="Group_199" data-name="Group 199">
          <g id="Group_195" data-name="Group 195">
            <path id="Path_311" data-name="Path 311" d="M326.127,750.946a1.281,1.281,0,0,1-.139-2.555l52.824-5.86a1.282,1.282,0,0,1,.283,2.548l-52.825,5.859A1.384,1.384,0,0,1,326.127,750.946Z" fill="#808285"/>
          </g>
          <g id="Group_196" data-name="Group 196">
            <path id="Path_312" data-name="Path 312" d="M327.573,756.226a1.281,1.281,0,0,1-.14-2.555l52.825-5.86a1.282,1.282,0,0,1,.282,2.548l-52.825,5.859A1.13,1.13,0,0,1,327.573,756.226Z" fill="#808285"/>
          </g>
          <g id="Group_197" data-name="Group 197">
            <path id="Path_313" data-name="Path 313" d="M329.018,761.506a1.281,1.281,0,0,1-.14-2.555l26.413-2.93a1.282,1.282,0,1,1,.282,2.548L329.161,761.5A1.145,1.145,0,0,1,329.018,761.506Z" fill="#808285"/>
          </g>
          <g id="Group_198" data-name="Group 198">
            <path id="Path_314" data-name="Path 314" d="M324.531,745.707a1.281,1.281,0,0,1-.14-2.555l26.412-2.93a1.281,1.281,0,0,1,.283,2.547l-26.412,2.93A1.156,1.156,0,0,1,324.531,745.707Z" fill="#d7563d"/>
          </g>
        </g>
        <path id="Path_315" data-name="Path 315" d="M370.919,665.514a22.726,22.726,0,0,1,9.838,5.756c3.6-4.635,6.846-8.831,11.925-12.442a65.847,65.847,0,0,0-11.059,19.032A36.463,36.463,0,0,0,370.919,665.514Z" fill="#d7563d"/>
        <path id="Path_316" data-name="Path 316" d="M376.11,702.819a22.715,22.715,0,0,1,9.837,5.755c3.6-4.634,6.846-8.83,11.926-12.442a65.877,65.877,0,0,0-11.06,19.032A36.468,36.468,0,0,0,376.11,702.819Z" fill="#d7563d"/>
        <path id="Path_317" data-name="Path 317" d="M382.548,737.682a22.738,22.738,0,0,1,9.837,5.756c3.6-4.635,6.846-8.831,11.925-12.442a65.847,65.847,0,0,0-11.059,19.032A36.471,36.471,0,0,0,382.548,737.682Z" fill="#d7563d"/>
      </g>
    </g>
  </g>
</svg>
