<svg xmlns="http://www.w3.org/2000/svg" xmlns:xlink="http://www.w3.org/1999/xlink" width="145" height="145" viewBox="0 0 145 145">
  <defs>
    <radialGradient id="radial-gradient" cx="1.276" cy="-0.115" r="1.608" gradientTransform="translate(-0.265) scale(1.529 1)" gradientUnits="objectBoundingBox">
      <stop offset="0" stop-color="#ff9191"/>
      <stop offset="0.5" stop-color="#f6455e"/>
      <stop offset="0.586" stop-color="#ee4164"/>
      <stop offset="0.714" stop-color="#da3875"/>
      <stop offset="0.868" stop-color="#b82990"/>
      <stop offset="1" stop-color="#971aad"/>
    </radialGradient>
    <radialGradient id="radial-gradient-2" cx="0.688" cy="-1.127" r="2.488" gradientTransform="translate(0.219) scale(0.563 1)" gradientUnits="objectBoundingBox">
      <stop offset="0" stop-color="#ff6ef6"/>
      <stop offset="0.5" stop-color="#f6455e"/>
      <stop offset="0.586" stop-color="#ee4164"/>
      <stop offset="0.714" stop-color="#da3875"/>
      <stop offset="0.868" stop-color="#b82990"/>
      <stop offset="1" stop-color="#115ecd"/>
    </radialGradient>
    <radialGradient id="radial-gradient-3" cx="0.534" cy="0" r="1.056" gradientTransform="translate(0.529 -0.534) rotate(89.371)" gradientUnits="objectBoundingBox">
      <stop offset="0" stop-color="#115ecd"/>
      <stop offset="0.566" stop-color="#115ecd"/>
      <stop offset="1" stop-color="#ca3182"/>
    </radialGradient>
    <radialGradient id="radial-gradient-4" cx="0.037" cy="-0.347" r="3.322" gradientTransform="translate(0.037) scale(0.926 1)" gradientUnits="objectBoundingBox">
      <stop offset="0" stop-color="#488334"/>
      <stop offset="1" stop-color="#90e545"/>
    </radialGradient>
    <radialGradient id="radial-gradient-5" cx="7.39" cy="-3.278" r="10.271" gradientTransform="translate(-0.264) scale(1.529 1)" xlink:href="#radial-gradient"/>
    <radialGradient id="radial-gradient-6" cx="10.854" cy="-6.124" r="17.447" gradientTransform="translate(-0.264) scale(1.529 1)" xlink:href="#radial-gradient"/>
    <radialGradient id="radial-gradient-7" cx="9.914" cy="-5.124" r="17.447" xlink:href="#radial-gradient"/>
  </defs>
  <g id="Group_2" data-name="Group 2" transform="translate(-490.301 -148)">
    <path id="Path_1" data-name="Path 1" d="M515.4,200.63l1.68,49.46,54.42-36.32-1.68-49.46Zm5.67,41.97-1.42-39.98,46.18-30.82,1.43,39.97Z" fill="url(#radial-gradient)"/>
    <path id="Path_2" data-name="Path 2" d="M617.741,236.11l-44.1-19.14-54.422,36.319,44.1,19.14Z" fill="url(#radial-gradient-2)"/>
    <path id="Path_3" data-name="Path 3" d="M626.371,185.62l-5.76,11.53a62.384,62.384,0,1,1-18.46-24.99l11.71-3.12a72.306,72.306,0,1,0,12.51,16.58Z" fill="url(#radial-gradient-3)"/>
    <path id="Path_4" data-name="Path 4" d="M585.338,180.83l16.966,9.395,7.162,20.193,20.735-41.54Z" fill="url(#radial-gradient-4)"/>
    <path id="Path_5" data-name="Path 5" d="M526.112,208.609l.486,14.316,15.753-10.512-.486-14.316Z" fill="url(#radial-gradient-5)"/>
    <path id="Path_6" data-name="Path 6" d="M542.35,212.41l.286,8.428,9.274-6.189-.286-8.428Z" fill="url(#radial-gradient-6)"/>
    <path id="Path_7" data-name="Path 7" d="M551.34,197.792l.286,8.428,9.274-6.189-.286-8.428Z" fill="url(#radial-gradient-7)"/>
  </g>
</svg>
