<?xml version="1.0" standalone="no"?>
<!DOCTYPE svg PUBLIC "-//W3C//DTD SVG 20010904//EN"
 "http://www.w3.org/TR/2001/REC-SVG-20010904/DTD/svg10.dtd">
<svg version="1.0" xmlns="http://www.w3.org/2000/svg"
 width="615.000000pt" height="627.000000pt" viewBox="0 0 615.000000 627.000000"
 preserveAspectRatio="xMidYMid meet">

<g transform="translate(0.000000,627.000000) scale(0.100000,-0.100000)"
fill="#000000" stroke="none">
<path d="M3261 5755 c-29 -190 -51 -348 -48 -351 2 -3 21 -7 40 -11 42 -6 38
-19 67 177 22 145 40 193 82 223 38 28 108 28 145 1 48 -36 50 -56 19 -255
-31 -197 -31 -199 26 -199 33 0 30 -7 63 208 28 179 27 224 -2 269 -43 65
-181 90 -256 46 l-37 -22 5 22 c14 63 35 220 30 228 -4 5 -23 9 -43 9 l-38 0
-53 -345z"/>
<path d="M2914 5833 c3 -43 9 -130 13 -194 l6 -116 -35 -38 c-29 -31 -42 -38
-84 -42 -40 -4 -54 -1 -76 17 -35 27 -43 60 -63 255 -9 88 -18 161 -20 163 -2
2 -21 1 -42 -3 l-39 -6 17 -176 c22 -227 24 -237 60 -278 66 -75 192 -72 270
6 l39 39 0 -36 c0 -36 0 -37 36 -31 20 3 38 8 41 10 3 4 -28 337 -43 460 l-6
47 -40 0 -41 0 7 -77z"/>
<path d="M4270 5489 c-107 -155 -196 -287 -198 -294 -3 -11 47 -55 62 -55 2 0
80 108 172 240 91 133 168 239 170 238 1 -2 -35 -134 -81 -293 -47 -160 -85
-295 -85 -302 0 -6 15 -21 34 -33 l35 -21 223 164 c313 229 297 223 196 77
-48 -69 -123 -178 -167 -242 l-81 -117 35 -27 c20 -15 37 -25 39 -23 2 2 94
134 205 294 l201 289 -28 22 c-76 62 -48 73 -332 -136 -140 -103 -256 -186
-258 -185 -2 2 35 134 82 294 48 160 86 297 86 305 0 13 -91 86 -108 86 -4 0
-95 -127 -202 -281z"/>
<path d="M2097 5744 c-59 -18 -129 -84 -147 -139 -18 -55 -8 -161 22 -226 33
-72 69 -113 121 -138 103 -50 251 -6 312 93 27 44 30 58 30 125 0 62 -6 87
-28 136 -66 141 -171 192 -310 149z m145 -80 c36 -19 64 -56 88 -120 42 -113
18 -198 -66 -236 -64 -28 -106 -18 -160 36 -56 56 -93 167 -75 227 29 98 122
138 213 93z"/>
<path d="M1538 5470 c-71 -21 -128 -95 -128 -164 l0 -35 -54 6 c-47 5 -61 2
-99 -20 -45 -26 -80 -80 -92 -142 l-7 -30 -17 24 c-15 19 -21 21 -38 13 -50
-27 -48 -30 108 -227 83 -105 156 -195 162 -202 9 -9 20 -5 45 16 l32 28 -103
129 c-57 72 -109 144 -116 162 -26 61 0 126 61 158 50 26 81 2 208 -159 63
-80 120 -146 125 -146 6 0 23 11 38 24 l28 25 -99 123 c-55 67 -107 137 -116
154 -25 50 -21 97 14 137 34 39 67 50 104 37 13 -6 79 -78 146 -161 128 -159
130 -160 172 -113 15 17 10 26 -108 173 -148 186 -187 214 -266 190z"/>
<path d="M5038 4913 c-23 -6 -22 -11 1 -49 18 -30 22 -31 69 -26 46 4 51 2 87
-33 43 -43 69 -98 61 -129 -3 -12 -19 -34 -35 -50 l-30 -29 -88 85 c-49 47
-103 92 -120 102 -68 34 -159 12 -199 -50 -23 -34 -23 -109 0 -152 27 -51 94
-110 147 -129 l48 -17 -16 -27 c-15 -25 -15 -29 6 -58 12 -17 24 -31 27 -31 2
0 20 18 40 40 20 22 89 80 155 130 65 50 125 100 134 112 9 13 15 44 15 74 0
45 -6 61 -42 116 -58 86 -122 128 -192 127 -28 -1 -59 -3 -68 -6z m-19 -255
c31 -28 68 -60 84 -71 15 -12 27 -24 27 -28 0 -17 -88 -59 -124 -59 -119 0
-208 155 -118 205 39 21 68 11 131 -47z"/>
<path d="M832 4744 c-78 -39 -125 -113 -130 -204 -5 -81 13 -125 72 -183 97
-94 232 -127 322 -80 81 43 133 131 134 226 0 72 -23 121 -85 175 -104 91
-217 115 -313 66z m152 -70 c63 -22 149 -101 164 -152 28 -91 -43 -182 -142
-182 -83 0 -205 90 -225 166 -24 89 44 178 140 183 8 1 37 -6 63 -15z"/>
<path d="M387 4443 c-9 -15 -197 -516 -195 -518 21 -13 71 -26 77 -19 4 5 23
51 42 103 19 51 39 95 44 97 6 3 136 -43 289 -101 153 -58 283 -105 290 -105
15 0 41 69 30 80 -5 5 -134 56 -288 114 -153 57 -280 107 -283 110 -3 3 11 49
31 102 20 53 36 102 36 109 0 6 -11 17 -25 23 -30 14 -42 15 -48 5z"/>
<path d="M5445 4379 c-33 -16 -135 -65 -227 -109 l-167 -79 13 -33 c8 -18 19
-34 24 -36 5 -1 73 27 150 63 202 94 261 95 292 7 13 -39 17 -42 52 -42 37 0
38 1 38 35 0 65 -43 115 -99 115 -31 0 -32 13 -1 26 29 13 29 14 16 46 -8 18
-18 33 -23 35 -4 1 -35 -12 -68 -28z"/>
<path d="M5627 4053 c-14 -4 -16 -11 -11 -38 5 -31 4 -34 -28 -43 -18 -6 -94
-30 -168 -52 -165 -52 -185 -62 -198 -99 -11 -30 -1 -95 19 -132 9 -18 11 -18
45 -2 25 12 33 21 28 32 -27 65 -16 75 136 120 58 17 126 37 152 45 l48 15 11
-40 c13 -40 18 -43 57 -32 18 4 22 11 18 27 -20 70 -25 63 67 91 l85 27 -38
34 -38 34 -60 -19 -61 -19 -10 29 c-10 28 -18 31 -54 22z"/>
<path d="M204 3646 c-3 -8 0 -33 6 -56 6 -23 9 -44 6 -47 -2 -3 -26 0 -53 5
-26 6 -48 10 -49 9 -1 -1 -5 -17 -9 -34 -7 -33 -6 -33 32 -33 21 0 48 -3 59
-6 l22 -6 -24 -41 c-30 -53 -30 -61 3 -76 30 -14 36 -8 55 52 6 20 15 37 19
37 4 0 23 -18 42 -40 19 -22 36 -40 39 -40 3 0 14 12 23 27 l18 27 -44 38 -43
37 46 21 c26 11 50 25 53 30 6 10 -15 60 -25 60 -4 0 -26 -13 -48 -30 -23 -16
-44 -30 -46 -30 -2 0 -7 25 -11 55 -6 53 -8 55 -36 55 -16 0 -32 -6 -35 -14z"/>
<path d="M5879 3270 l-11 -59 -44 36 c-43 35 -45 35 -64 18 -30 -27 -24 -43
25 -67 25 -12 45 -25 45 -29 0 -4 -20 -20 -45 -36 -25 -15 -45 -30 -45 -33 0
-3 8 -17 18 -32 l18 -27 46 40 47 39 12 -55 c13 -59 28 -68 64 -41 19 14 19
15 -2 65 l-21 51 59 0 59 0 0 31 0 31 -60 -4 c-33 -2 -60 -4 -60 -4 0 1 9 25
20 55 12 29 19 55 17 58 -2 2 -18 8 -35 13 l-31 8 -12 -58z"/>
<path d="M833 2558 c-17 -8 -21 -18 -20 -57 l2 -46 -155 -52 c-85 -28 -163
-52 -172 -52 -11 -1 -19 10 -23 32 -10 46 -12 47 -46 35 -25 -8 -30 -15 -25
-32 19 -66 23 -60 -68 -89 l-85 -28 38 -34 38 -35 58 20 c32 11 59 20 61 20 1
0 7 -13 12 -29 9 -27 14 -29 39 -22 25 7 28 12 25 44 -2 23 2 37 8 37 7 0 85
23 173 52 184 58 217 80 217 143 0 44 -24 105 -42 104 -7 0 -23 -5 -35 -11z"/>
<path d="M5826 2313 c-22 -60 -40 -109 -41 -110 -1 -2 -131 45 -290 102 -159
58 -294 104 -300 101 -14 -5 -36 -74 -26 -80 4 -3 133 -50 287 -106 153 -56
282 -105 287 -109 4 -4 -8 -50 -27 -102 -47 -126 -46 -119 -3 -135 36 -13 38
-12 46 9 47 124 181 499 181 506 0 5 -11 12 -24 15 -13 3 -30 8 -38 11 -10 4
-24 -25 -52 -102z"/>
<path d="M879 2069 c-167 -80 -212 -88 -253 -50 -14 14 -29 40 -32 59 -6 32
-9 34 -37 28 -16 -3 -33 -6 -38 -6 -5 0 -9 -18 -9 -39 0 -54 37 -97 93 -109
l42 -8 -32 -17 -33 -17 16 -34 17 -34 101 48 c55 26 161 77 233 114 l133 66
-17 35 c-9 19 -21 35 -27 34 -6 0 -77 -32 -157 -70z"/>
<path d="M5078 2036 c-105 -39 -167 -127 -168 -240 0 -96 64 -179 185 -237
134 -65 259 -19 331 121 28 55 24 146 -9 203 -68 116 -236 192 -339 153z m139
-95 c57 -27 130 -95 143 -137 16 -48 5 -98 -31 -139 -66 -75 -171 -65 -274 27
-47 41 -65 77 -65 132 0 37 6 52 32 82 18 20 41 40 52 44 36 15 99 10 143 -9z"/>
<path d="M1119 1914 c-7 -15 -73 -73 -146 -131 -73 -57 -142 -116 -153 -130
-42 -53 -18 -148 59 -235 68 -76 145 -103 219 -77 l32 11 -22 37 c-21 36 -22
37 -58 27 -47 -12 -92 11 -133 70 -38 54 -38 96 -2 134 16 17 32 30 37 30 4 0
45 -36 91 -79 100 -94 130 -111 196 -111 42 0 56 5 86 31 73 64 69 153 -11
239 -39 41 -77 65 -137 84 -17 5 -17 7 -1 31 16 24 15 27 -7 60 -13 19 -27 35
-30 35 -3 0 -12 -12 -20 -26z m75 -168 c84 -35 125 -142 70 -185 -49 -39 -72
-29 -192 80 -58 52 -61 57 -44 71 52 46 109 58 166 34z"/>
<path d="M4722 1591 l-33 -28 97 -119 c123 -151 134 -169 134 -223 0 -36 -6
-49 -34 -77 -41 -41 -82 -45 -123 -10 -15 13 -75 83 -133 154 -58 72 -107 131
-110 131 -3 1 -20 -11 -37 -26 l-32 -28 100 -120 c56 -66 110 -139 122 -163
20 -40 20 -45 7 -84 -15 -44 -66 -88 -101 -88 -28 0 -72 43 -185 181 -58 71
-111 129 -118 129 -7 0 -23 -11 -36 -25 l-23 -24 39 -48 c190 -236 224 -271
269 -288 42 -17 48 -17 89 -1 64 25 114 83 122 144 l6 49 49 -5 c88 -8 170 60
185 155 l6 41 22 -24 21 -24 30 24 c28 22 29 25 14 43 -9 10 -78 95 -154 188
-76 94 -143 175 -149 182 -8 9 -19 5 -44 -16z"/>
<path d="M1317 1167 l-198 -292 26 -20 c13 -11 37 -28 53 -37 l27 -16 250 189
c138 104 251 185 253 180 2 -5 -33 -138 -78 -296 -44 -159 -80 -293 -80 -299
1 -10 110 -90 115 -84 16 21 388 576 391 583 5 14 -67 59 -75 47 -55 -85 -326
-481 -327 -479 -2 2 34 139 80 305 l83 302 -35 22 c-30 18 -38 19 -55 8 -17
-10 -413 -305 -476 -354 -8 -6 61 100 152 236 92 135 167 248 167 251 0 5 -64
47 -71 47 -2 0 -93 -132 -202 -293z"/>
<path d="M3876 1054 c-119 -43 -180 -148 -156 -268 41 -207 194 -308 355 -232
99 46 140 108 139 211 0 126 -85 264 -181 293 -52 16 -108 14 -157 -4z m147
-83 c51 -29 107 -143 107 -219 0 -110 -108 -179 -205 -132 -54 26 -97 93 -116
177 -32 142 93 244 214 174z"/>
<path d="M2525 908 c-19 -115 -45 -317 -45 -360 0 -33 7 -62 20 -84 43 -69
168 -96 250 -54 l40 20 0 -20 c0 -11 -7 -66 -15 -122 -9 -55 -14 -102 -13
-103 2 -2 21 -5 43 -7 l40 -3 51 352 50 351 -39 6 c-22 4 -41 5 -43 3 -2 -2
-13 -66 -24 -143 -26 -181 -36 -216 -72 -251 -26 -24 -37 -28 -90 -28 -53 0
-62 3 -84 28 -31 36 -31 75 -2 274 12 84 20 154 18 156 -3 3 -22 7 -42 11 -36
6 -37 6 -43 -26z"/>
<path d="M3329 910 c-44 -8 -99 -41 -119 -72 l-14 -23 -6 30 c-4 26 -10 30
-43 33 -25 2 -37 -1 -37 -10 0 -7 12 -125 27 -261 l27 -248 40 7 c23 3 42 7
43 8 1 1 -4 58 -12 127 -8 68 -15 155 -15 193 0 64 2 70 33 101 56 56 139 58
180 3 14 -19 23 -67 40 -211 l21 -187 30 0 c58 0 58 -1 36 201 -23 204 -42
261 -95 290 -37 20 -89 28 -136 19z"/>
</g>
</svg>
