<svg xmlns="http://www.w3.org/2000/svg" xmlns:xlink="http://www.w3.org/1999/xlink" width="242" height="198" viewBox="0 0 242 198">
  <defs>
    <clipPath id="clip-eService">
      <rect width="242" height="198"/>
    </clipPath>
  </defs>
  <g id="eService" clip-path="url(#clip-eService)">
    <g id="eServices" transform="translate(-128.697 -97.065)">
      <path id="Path_2" data-name="Path 2" d="M360.035,115.065H206.393a9.268,9.268,0,0,0-9.269,9.269V140.3h11.192V126.256h149.8V228H324.378a16.342,16.342,0,0,0-29.788-1.724h13.279l4.618,7.54-4.618,7.541H294.59a16.344,16.344,0,0,0,29.95-2.166h35.495a9.269,9.269,0,0,0,9.269-9.269V124.333a9.268,9.268,0,0,0-9.269-9.268Z" fill="#3382d1"/>
      <path id="Path_3" data-name="Path 3" d="M326.952,241.9v13.272H173.266V153.656H326.952V225.21h13.355V149.461a9.368,9.368,0,0,0-.047-.938,9.174,9.174,0,0,0-5.548-7.5c-.274-.116-.555-.219-.841-.308a9.117,9.117,0,0,0-1.788-.365,9.344,9.344,0,0,0-.936-.047H169.071a9.341,9.341,0,0,0-.936.047,9.119,9.119,0,0,0-1.788.365c-.286.089-.567.192-.841.308a9.155,9.155,0,0,0-5.548,7.5,9.346,9.346,0,0,0-.047.937V259.37a9.151,9.151,0,0,0,9.16,9.161H331.147a9.151,9.151,0,0,0,9.16-9.161V241.9Z" fill="#002d4f"/>
      <path id="Path_4" data-name="Path 4" d="M356.1,268.531H264.776a4.549,4.549,0,0,1-4.518,4.117h-20.3a4.549,4.549,0,0,1-4.518-4.117H144.12v.024a8.82,8.82,0,0,0,8.821,8.82H347.278a8.82,8.82,0,0,0,8.821-8.821Z" fill="#002d4f"/>
      <g id="Group_3" data-name="Group 3">
        <path id="Path_5" data-name="Path 5" d="M251.927,145.834h-7.779a1.331,1.331,0,0,0,0,2.662h7.779a1.331,1.331,0,1,0,0-2.662Z" fill="#fff"/>
        <path id="Path_6" data-name="Path 6" d="M256.07,145.834a1.331,1.331,0,1,0,1.331,1.331A1.331,1.331,0,0,0,256.07,145.834Z" fill="#fff"/>
      </g>
      <g id="Group_4" data-name="Group 4">
        <path id="Path_7" data-name="Path 7" d="M285.032,119.24h-7.779a1.332,1.332,0,0,0,0,2.663h7.779a1.332,1.332,0,0,0,0-2.663Z" fill="#fff"/>
        <path id="Path_8" data-name="Path 8" d="M289.175,119.24a1.332,1.332,0,1,0,1.331,1.331,1.332,1.332,0,0,0-1.331-1.331Z" fill="#fff"/>
      </g>
      <g id="Group_6" data-name="Group 6">
        <g id="Group_5" data-name="Group 5">
          <path id="Path_9" data-name="Path 9" d="M289.134,196.016H283.3a34.033,34.033,0,0,0-3.786-9.128l4.128-4.128a2.687,2.687,0,0,0,0-3.8l-8.079-8.079a2.688,2.688,0,0,0-3.8,0l-4.128,4.129a33.994,33.994,0,0,0-9.127-3.786v-5.833a2.687,2.687,0,0,0-2.687-2.687H244.4a2.687,2.687,0,0,0-2.687,2.687v5.833a33.993,33.993,0,0,0-9.127,3.786l-4.128-4.129a2.688,2.688,0,0,0-3.8,0l-8.079,8.079a2.686,2.686,0,0,0,0,3.8l4.128,4.128a34.031,34.031,0,0,0-3.786,9.128h-5.833A2.687,2.687,0,0,0,208.4,198.7v11.425a2.687,2.687,0,0,0,2.687,2.687h5.834a34,34,0,0,0,3.785,9.128l-4.128,4.128a2.688,2.688,0,0,0,0,3.8l8.079,8.078a2.686,2.686,0,0,0,3.8,0l4.128-4.128a34.006,34.006,0,0,0,9.127,3.786v5.833a2.687,2.687,0,0,0,2.687,2.687h11.426a2.687,2.687,0,0,0,2.687-2.687V237.6a34.026,34.026,0,0,0,9.127-3.786l4.128,4.128a2.686,2.686,0,0,0,3.8,0l8.079-8.078a2.688,2.688,0,0,0,0-3.8l-4.128-4.128a34,34,0,0,0,3.785-9.128h5.834a2.687,2.687,0,0,0,2.687-2.687V198.7A2.687,2.687,0,0,0,289.134,196.016Zm-39.025,25.772a17.372,17.372,0,1,1,17.373-17.373,17.372,17.372,0,0,1-17.373,17.373Z" fill="#ea3560"/>
        </g>
        <path id="Path_10" data-name="Path 10" d="M250.109,217.43a13.014,13.014,0,1,1,13.015-13.015,13.014,13.014,0,0,1-13.015,13.015Zm0-25.029a12.014,12.014,0,1,0,12.015,12.014A12.014,12.014,0,0,0,250.109,192.4Z" fill="#ea3560"/>
      </g>
      <g id="Group_7" data-name="Group 7">
        <rect id="Rectangle_2" data-name="Rectangle 2" width="40.927" height="40.927" transform="translate(146.158 186.172)" fill="#ea3560"/>
        <rect id="Rectangle_3" data-name="Rectangle 3" width="23.715" height="23.715" transform="translate(130.697 152.671)" fill="#ea3560"/>
        <rect id="Rectangle_4" data-name="Rectangle 4" width="16.104" height="16.104" transform="translate(171.111 132.248)" fill="#ea3560"/>
      </g>
      <path id="Path_11" data-name="Path 11" d="M320.376,175.007v-4.474l-2.883-.738a10.207,10.207,0,0,0-.688-1.7l1.655-2.794-3.2-3.2-2.745,1.627a10.2,10.2,0,0,0-1.673-.712l-.786-3.071h-4.521l-.767,3a10.163,10.163,0,0,0-1.793.725l-2.644-1.567-3.2,3.2,1.539,2.6a10.115,10.115,0,0,0-.789,1.894l-2.883.738v4.474l2.883.738a10.116,10.116,0,0,0,.789,1.894l-1.539,2.6,3.2,3.2,2.644-1.567a10.16,10.16,0,0,0,1.793.724l.767,3h4.521l.786-3.071a10.189,10.189,0,0,0,1.673-.711l2.745,1.627,3.2-3.2-1.655-2.794a10.172,10.172,0,0,0,.688-1.7Zm-12.686,1.984a4.221,4.221,0,1,1,4.221-4.221,4.221,4.221,0,0,1-4.221,4.221Z" fill="#002d4f"/>
      <path id="Path_12" data-name="Path 12" d="M206.434,240.643v-3.284l-2.115-.541a7.563,7.563,0,0,0-.505-1.245l1.215-2.05-2.346-2.346-2.015,1.193a7.627,7.627,0,0,0-1.228-.522l-.577-2.254h-3.318l-.563,2.2a7.545,7.545,0,0,0-1.316.531l-1.94-1.149-2.346,2.346,1.129,1.9a7.423,7.423,0,0,0-.579,1.39l-2.116.541v3.284l2.116.541a7.423,7.423,0,0,0,.579,1.39l-1.129,1.9,2.346,2.346,1.94-1.15a7.472,7.472,0,0,0,1.316.532l.563,2.2h3.318l.577-2.254a7.453,7.453,0,0,0,1.228-.522l2.015,1.194,2.346-2.346-1.215-2.05a7.565,7.565,0,0,0,.505-1.245Zm-9.31,3.2A4.841,4.841,0,1,1,201.965,239a4.841,4.841,0,0,1-4.841,4.843Z" fill="#002d4f"/>
      <rect id="Rectangle_5" data-name="Rectangle 5" width="162.074" height="1" transform="translate(169.072 268.03)" fill="#365b7a"/>
    </g>
  </g>
</svg>
