<svg id="Enjaz" xmlns="http://www.w3.org/2000/svg" width="890.188" height="962.699" viewBox="0 0 890.188 962.699">
  <rect id="Rectangle_2137" data-name="Rectangle 2137" width="80.733" height="80.69" transform="translate(138.08 283.168)" fill="#0085c7"/>
  <rect id="Rectangle_2138" data-name="Rectangle 2138" width="134.928" height="134.878" transform="translate(16.85 351.515)" fill="#f18c29"/>
  <rect id="Rectangle_2139" data-name="Rectangle 2139" width="110.082" height="110.024" transform="translate(29.272 586.793)" fill="#f18c29"/>
  <rect id="Rectangle_2140" data-name="Rectangle 2140" width="110.095" height="110.096" transform="translate(426.724 734.025)" fill="#f18c29"/>
  <rect id="Rectangle_2141" data-name="Rectangle 2141" width="110.067" height="109.995" transform="translate(536.82 844.123)" fill="#0b61ab"/>
  <rect id="Rectangle_2142" data-name="Rectangle 2142" width="110.123" height="110.01" transform="translate(462.248 0)" fill="#f18c29"/>
  <rect id="Rectangle_2143" data-name="Rectangle 2143" width="110.067" height="110.072" transform="translate(572.257 110.008)" fill="#0b61ab"/>
  <rect id="Rectangle_2144" data-name="Rectangle 2144" width="114.867" height="114.918" transform="translate(257.89 442.815)" fill="#0b61ab"/>
  <rect id="Rectangle_2145" data-name="Rectangle 2145" width="110.024" height="110.023" transform="translate(54.15 205.984)" fill="#0b61ab"/>
  <rect id="Rectangle_2146" data-name="Rectangle 2146" width="71.003" height="70.94" transform="translate(629.215 799.031)" fill="#0085c7"/>
  <rect id="Rectangle_2147" data-name="Rectangle 2147" width="70.99" height="70.969" transform="translate(732.804 280.548)" fill="#0085c7"/>
  <rect id="Rectangle_2148" data-name="Rectangle 2148" width="70.946" height="70.982" transform="translate(819.242 341.118)" fill="#0b61ab"/>
  <rect id="Rectangle_2149" data-name="Rectangle 2149" width="70.99" height="71.025" transform="translate(481.806 392.663)" fill="#0085c7"/>
  <rect id="Rectangle_2150" data-name="Rectangle 2150" width="57.921" height="57.921" transform="translate(624.4 721.638)" fill="#f18c29"/>
  <rect id="Rectangle_2151" data-name="Rectangle 2151" width="64.483" height="64.461" transform="translate(362.255 389.976)" fill="#f18c29"/>
  <rect id="Rectangle_2152" data-name="Rectangle 2152" width="57.934" height="57.949" transform="translate(220.749 96.538)" fill="#0b61ab"/>
  <rect id="Rectangle_2153" data-name="Rectangle 2153" width="44.251" height="44.272" transform="translate(726.701 706.362)" fill="#f18c29"/>
  <rect id="Rectangle_2154" data-name="Rectangle 2154" width="44.307" height="44.207" transform="translate(691.32 782.913)" fill="#f18c29"/>
  <rect id="Rectangle_2155" data-name="Rectangle 2155" width="44.25" height="44.301" transform="translate(825.948 260.988)" fill="#f18c29"/>
  <rect id="Rectangle_2156" data-name="Rectangle 2156" width="44.237" height="44.286" transform="translate(354.674 22.116)" fill="#f18c29"/>
  <rect id="Rectangle_2157" data-name="Rectangle 2157" width="44.322" height="44.257" transform="translate(315.279 178.414)" fill="#0085c7"/>
  <rect id="Rectangle_2158" data-name="Rectangle 2158" width="44.22" height="44.314" transform="translate(781.714 464.234)" fill="#f18c29"/>
  <rect id="Rectangle_2159" data-name="Rectangle 2159" width="44.279" height="44.257" transform="translate(803.794 389.976)" fill="#f18c29"/>
  <rect id="Rectangle_2160" data-name="Rectangle 2160" width="44.292" height="44.301" transform="translate(495.135 477.422)" fill="#0b61ab"/>
  <rect id="Rectangle_2161" data-name="Rectangle 2161" width="44.366" height="44.257" transform="translate(287.152 389.976)" fill="#0b61ab"/>
  <rect id="Rectangle_2162" data-name="Rectangle 2162" width="51.544" height="51.566" transform="translate(695.719 238.856)" fill="#f18c29"/>
  <rect id="Rectangle_2163" data-name="Rectangle 2163" width="44.237" height="44.264" transform="translate(169.762 586.777)" fill="#0b61ab"/>
  <rect id="Rectangle_2164" data-name="Rectangle 2164" width="44.22" height="44.25" transform="translate(161.195 711.917)" fill="#f18c29"/>
  <rect id="Rectangle_2165" data-name="Rectangle 2165" width="44.25" height="44.272" transform="translate(142.036 109.997)" fill="#f18c29"/>
  <rect id="Rectangle_2166" data-name="Rectangle 2166" width="44.264" height="44.279" transform="translate(404.613 441.865)" fill="#f18c29"/>
  <rect id="Rectangle_2167" data-name="Rectangle 2167" width="71.019" height="70.982" transform="translate(0 535.037)" fill="#0b61ab"/>
  <rect id="Rectangle_2168" data-name="Rectangle 2168" width="71.004" height="70.989" transform="translate(326.788 769.534)" fill="#0085c7"/>
  <rect id="Rectangle_2169" data-name="Rectangle 2169" width="81.751" height="81.772" transform="translate(400.056 99.744)" fill="#0b61ab"/>
  <rect id="Rectangle_2170" data-name="Rectangle 2170" width="70.99" height="70.995" transform="translate(463.153 165.047)" fill="#0085c7"/>
  <rect id="Rectangle_2171" data-name="Rectangle 2171" width="70.99" height="70.995" transform="translate(732.804 165.047)" fill="#0085c7"/>
  <rect id="Rectangle_2172" data-name="Rectangle 2172" width="70.947" height="71.004" transform="translate(646.87 61.06)" fill="#0085c7"/>
  <rect id="Rectangle_2173" data-name="Rectangle 2173" width="134.871" height="134.863" transform="translate(591.829 356.714)" fill="#f18c29"/>
  <rect id="Rectangle_2174" data-name="Rectangle 2174" width="70.946" height="71.004" transform="translate(664.668 456.096)" fill="#0085c7"/>
  <rect id="Rectangle_2175" data-name="Rectangle 2175" width="70.99" height="71.017" transform="translate(391.259 891.682)" fill="#0085c7"/>
  <rect id="Rectangle_2176" data-name="Rectangle 2176" width="71.017" height="70.997" transform="translate(128.606 789.068)" fill="#0085c7"/>
  <rect id="Rectangle_2177" data-name="Rectangle 2177" width="71.017" height="70.975" transform="translate(128.606 464.06)" fill="#0085c7"/>
  <rect id="Rectangle_2178" data-name="Rectangle 2178" width="90.592" height="90.463" transform="translate(183.374 840.523)" fill="#f18c29"/>
  <rect id="Rectangle_2179" data-name="Rectangle 2179" width="71.004" height="70.969" transform="translate(208.182 8.775)" fill="#0085c7"/>
  <rect id="Rectangle_2180" data-name="Rectangle 2180" width="79.43" height="79.371" transform="translate(188.962 406.371)" fill="#0085c7"/>
  <rect id="Rectangle_2181" data-name="Rectangle 2181" width="97.628" height="97.628" transform="translate(268.35 56.638)" fill="#f18c29"/>
  <rect id="Rectangle_2182" data-name="Rectangle 2182" width="90.52" height="90.485" transform="translate(196.63 170.504)" fill="#f18c29"/>
  <rect id="Rectangle_2183" data-name="Rectangle 2183" width="70.932" height="70.967" transform="translate(704.476 370.897)" fill="#0b61ab"/>
  <rect id="Rectangle_2184" data-name="Rectangle 2184" width="134.886" height="134.842" transform="translate(241.884 654.224)" fill="#f18c29"/>
  <rect id="Rectangle_2185" data-name="Rectangle 2185" width="70.96" height="71.032" transform="translate(232.901 604.035)" fill="#0085c7"/>
</svg>
