<svg xmlns="http://www.w3.org/2000/svg" xmlns:xlink="http://www.w3.org/1999/xlink" width="292.799" height="287.977" viewBox="0 0 292.799 287.977">
  <defs>
    <linearGradient id="linear-gradient" x1="-0.039" y1="0.421" x2="1.071" y2="0.584" gradientUnits="objectBoundingBox">
      <stop offset="0" stop-color="#cf5f05"/>
      <stop offset="1" stop-color="#f4b82e"/>
    </linearGradient>
    <linearGradient id="linear-gradient-2" x1="-0.423" y1="0.339" x2="0.899" y2="0.57" xlink:href="#linear-gradient"/>
    <linearGradient id="linear-gradient-3" x1="0.5" y1="-0.002" x2="0.5" y2="1.063" gradientUnits="objectBoundingBox">
      <stop offset="0" stop-color="#f4b82e"/>
      <stop offset="1" stop-color="#cf5f05"/>
    </linearGradient>
    <linearGradient id="linear-gradient-4" x1="1.379" y1="-0.006" x2="1.402" y2="1.093" xlink:href="#linear-gradient-3"/>
    <linearGradient id="linear-gradient-5" x1="0.5" y1="0" x2="0.5" y2="1" xlink:href="#linear-gradient-3"/>
    <linearGradient id="linear-gradient-6" x1="-0.146" y1="0.475" x2="1.169" y2="0.526" xlink:href="#linear-gradient"/>
    <linearGradient id="linear-gradient-7" x1="0.555" y1="0.004" x2="0.446" y2="0.987" xlink:href="#linear-gradient-3"/>
    <linearGradient id="linear-gradient-8" x1="-0.047" y1="0.513" x2="1.078" y2="0.486" xlink:href="#linear-gradient-3"/>
    <linearGradient id="linear-gradient-9" x1="-0.047" y1="0.52" x2="1.078" y2="0.479" xlink:href="#linear-gradient-3"/>
    <linearGradient id="linear-gradient-10" x1="0.515" y1="-0.01" x2="0.485" y2="1" xlink:href="#linear-gradient-3"/>
    <linearGradient id="linear-gradient-11" x1="0.512" y1="-0.138" x2="0.496" y2="0.714" xlink:href="#linear-gradient-3"/>
    <linearGradient id="linear-gradient-12" x1="-0.052" y1="0.681" x2="1.461" y2="0.184" xlink:href="#linear-gradient-3"/>
    <linearGradient id="linear-gradient-13" x1="0.461" y1="-0.587" x2="0.482" y2="0.251" xlink:href="#linear-gradient-3"/>
    <linearGradient id="linear-gradient-14" x1="0.505" y1="0.02" x2="0.492" y2="2.731" xlink:href="#linear-gradient-3"/>
    <linearGradient id="linear-gradient-15" x1="0.508" y1="-0.631" x2="0.495" y2="1.114" xlink:href="#linear-gradient-3"/>
  </defs>
  <g id="moi" transform="translate(-31.545 -515.944)">
    <g id="Group_10" data-name="Group 10" transform="translate(32.545 523)">
      <g id="Group_9" data-name="Group 9" transform="translate(0 0)">
        <g id="Group_58" data-name="Group 58" transform="translate(93.962 0)">
          <path id="Path_1" data-name="Path 1" d="M.458,41.8A41.346,41.346,0,0,1,55.467,2.78,40.685,40.685,0,0,0,2.781,55.467,41.261,41.261,0,0,1,.458,41.8Z" transform="translate(1.936 50.571) rotate(2)" fill="red"/>
          <g id="Group_1" data-name="Group 1" transform="translate(60.064 0)">
            <path id="Path_7" data-name="Path 7" d="M340.242,241.276a93.847,93.847,0,0,0-43.455-61.237l-5.895,6.977-3.982-1.7,6.228-7.37c-.486-.265-.988-.5-1.48-.76l-6.306,7.463-7.047-3.014,3.437-3.333a1.531,1.531,0,0,0,1.822,0,7.466,7.466,0,0,0,1.419-1.149l2.248-2.122c-.93-.424-1.86-.844-2.805-1.239l-1.648,1.538a2.312,2.312,0,0,0-2.115-.135,1.761,1.761,0,0,1,1.721,1.384l-4.9,4.706-.56-.24a2.19,2.19,0,0,0-.59-1.28l3.876-3.372-.179-.517a.9.9,0,0,1,.326-.816c.774-.774,1.077-1.047,1.079-1.049l.607-.541-.3-.339c.079-.073.2-.182.307-.277-.565-.218-1.127-.442-1.7-.649l-.06.053a1.124,1.124,0,0,0-.333.921c-.179.172-.424.411-.747.734a2.606,2.606,0,0,0-.807,1.9l-4.1,3.571c-1.475.462-1.067,2.336-1.067,2.336l.047-.008a2.745,2.745,0,0,0-.4.638,2.775,2.775,0,0,0-.053,2.041l-5.357-2.292a2.872,2.872,0,0,0-3.654,1.174,2.793,2.793,0,0,0,1.349,3.912l1.243.532v2.128l-2.713,12.4h-1.215a2.858,2.858,0,0,0-2.865,2.4,2.782,2.782,0,0,0,2.416,3.144l.393,2.961h-9.544c-11.165,6.482-6.843,22.689-3.782,25.93s15.667,17.108,15.667,17.108h4.167l-1.31-3.493h3.892l1.661,3.493h4.506l-1.393-3.493h3.673l1.628,3.493h3.389l-1.638-3.493h3.379l2.4,3.493h5.354l-3.757-8.951,1.6-31.026-3.42-3.061h-3.873l.939-4.746c.029-.023.06-.044.088-.069l17.765-15.056L328.036,216a36.452,36.452,0,0,1,6.153,8.608V242h-1.8v28.542l-4.456,7.968,4.816,22.594a92.97,92.97,0,0,0,6.338-17.056h-1.115v-13.82l3.422-5.809v7.67a93.861,93.861,0,0,0,.716-9.381h-4.137V242.357h-1.08V231.3Zm-70.674-30.521h-3.722l.053-2.926h3.955Zm1.578-8.508h-3.057l.283-2.882,1.891-5h1.418l.135,4.254Zm5.147-10.306,2.126.909L276.2,195.48ZM280,199.9a4.274,4.274,0,0,0-1,2.442,2.79,2.79,0,0,0-.687-.095h-2.647l.412-4.126,3.9-4.619a2.774,2.774,0,0,0,3.55-3.562l3.585,1.534Z" transform="translate(-245.658 -172.199)" fill="#566c78"/>
          </g>
        </g>
        <g id="Group_4" data-name="Group 4" transform="translate(0 231.144)">
          <path id="Path_14" data-name="Path 14" d="M257.61,274.069H164.843v.793A18.034,18.034,0,0,0,182.876,292.9h99.616" transform="translate(-164.843 -274.069)" fill="none" stroke="#e6943a" stroke-linecap="round" stroke-linejoin="round" stroke-width="2"/>
          <path id="Path_15" data-name="Path 15" d="M299.959,292.9h59.13a18.034,18.034,0,0,0,18.033-18.035v-.793H270.14v.182A2.394,2.394,0,0,1,268,276.837h-3.755A219.815,219.815,0,0,0,299.959,292.9ZM333.54,278.9a.993.993,0,0,1,.994-.992h14.655a.992.992,0,0,1,.992.992v.243a.993.993,0,0,1-.992.994H334.533a1,1,0,0,1-.994-.994Z" transform="translate(-104.394 -274.069)" fill="#566c78"/>
        </g>
        <g id="Group_5" data-name="Group 5" transform="translate(21.465 86.629)">
          <path id="Path_16" data-name="Path 16" d="M321.389,193.825h30.818a6.2,6.2,0,0,1,3,.764,5.5,5.5,0,0,1,2.932,4.8V303.708a5.757,5.757,0,0,1-5.932,5.561H243.38q8.619,6.653,17.485,12.466H367.284a9.214,9.214,0,0,0,1.063-4.3V193.457a9.255,9.255,0,0,0-9.255-9.255H301.749a48.416,48.416,0,0,1-1.216,9.623h20.855Z" transform="translate(-138.549 -184.202)" fill="#566c78"/>
          <path id="Path_17" data-name="Path 17" d="M178.191,220.636v74.643a9.214,9.214,0,0,0,1.063,4.3H241.46" transform="translate(-178.191 -162.046)" fill="none" stroke="#e6943a" stroke-linecap="round" stroke-linejoin="round" stroke-width="2"/>
          <path id="Path_18" data-name="Path 18" d="M224.491,280.629H190.474a6.1,6.1,0,0,1-4.414-1.846,5.334,5.334,0,0,1-1.521-3.715V231.3" transform="translate(-174.331 -155.562)" fill="none" stroke="#e6943a" stroke-linecap="round" stroke-linejoin="round" stroke-width="2"/>
          <path id="Path_19" data-name="Path 19" d="M189.407,193.843c.064,0,.124-.018.19-.018h51.67a48.421,48.421,0,0,1-1.216-9.623H185.983Q187.541,188.993,189.407,193.843Z" transform="translate(-173.453 -184.202)" fill="#566c78"/>
        </g>
        <g id="Group_59" data-name="Group 59" transform="translate(54.515 47.037)">
          <g id="Group_29" data-name="Group 29" transform="translate(0 0)">
            <rect id="Rectangle_185" data-name="Rectangle 185" width="74.878" height="7.413" transform="translate(47.513 14.197)" fill="url(#linear-gradient)"/>
            <rect id="Rectangle_186" data-name="Rectangle 186" width="19.463" height="3.577" transform="translate(122.392 16.115)" fill="url(#linear-gradient-2)"/>
            <path id="Path_57" data-name="Path 57" d="M397.254,163.382V14.977h-9.472v14.2H374.521v7.413h13.261v126.8h-18.5V178.5h46.477V163.382Z" transform="translate(-369.279 -14.977)" fill="url(#linear-gradient-3)"/>
            <path id="Path_58" data-name="Path 58" d="M401.819,25.527V44.168h22.11v-9.32l-4.552-9.321Zm10.459,2.167h5.586l3.493,7.154v2.6h-9.08Zm-8.563,0h6.774v14.27h-6.774Z" transform="translate(-373.844 -16.457)" fill="url(#linear-gradient-4)"/>
            <g id="Group_28" data-name="Group 28" transform="translate(141.855 17.969)">
              <path id="Path_59" data-name="Path 59" d="M542.622,87.615h-.806V36.685h-7.533v-.807h8.339Z" transform="translate(-534.283 -35.878)" fill="url(#linear-gradient-5)"/>
            </g>
            <rect id="Rectangle_187" data-name="Rectangle 187" width="20.06" height="1.711" transform="translate(137.99 69.706)" fill="url(#linear-gradient-6)"/>
          </g>
          <g id="Group_34" data-name="Group 34" transform="translate(40.092 32.997)">
            <g id="Group_30" data-name="Group 30" transform="translate(42.36)">
              <path id="Path_60" data-name="Path 60" d="M468.734,56.512V184.326h11.833V162.842h14.5v21.484H506.9V56.512Zm11.833,92.107h-7.143V136h7.143Zm0-18.391h-7.143V117.612h7.143Zm0-18.391h-7.143V99.221h7.143Zm0-18.391h-7.143V80.831h7.143Zm0-18.391h-7.143V62.44h7.143Zm10.82,73.564h-7.143V136h7.143Zm0-18.391h-7.143V117.612h7.143Zm0-18.391h-7.143V99.221h7.143Zm0-18.391h-7.143V80.831h7.143Zm0-18.391h-7.143V62.44h7.143Zm10.82,73.564h-7.143V136h7.143Zm0-18.391h-7.143V117.612h7.143Zm0-18.391h-7.143V99.221h7.143Zm0-18.391h-7.143V80.831h7.143Zm0-18.391h-7.143V62.44h7.143Z" transform="translate(-465.684 -53.801)" fill="url(#linear-gradient-7)"/>
              <rect id="Rectangle_188" data-name="Rectangle 188" width="44.264" height="2.711" fill="url(#linear-gradient-8)"/>
            </g>
            <g id="Group_31" data-name="Group 31" transform="translate(80.12 75.071)">
              <rect id="Rectangle_189" data-name="Rectangle 189" width="66.221" height="2.711" fill="url(#linear-gradient-9)"/>
              <path id="Path_61" data-name="Path 61" d="M512.656,143.833v52.743h11.832V175.092h36.455v21.484h11.832V143.833Zm53.869,25.355H518.906v-2.712h47.619Zm0-5.958H518.906v-2.712h47.619Zm0-5.958H518.906v-2.711h47.619Zm0-5.957H518.906V148.6h47.619Z" transform="translate(-509.605 -141.122)" fill="url(#linear-gradient-10)"/>
            </g>
            <g id="Group_33" data-name="Group 33" transform="translate(0 73.678)">
              <rect id="Rectangle_190" data-name="Rectangle 190" width="4.256" height="10.513" transform="translate(36.104 3.196)" fill="url(#linear-gradient-11)"/>
              <rect id="Rectangle_191" data-name="Rectangle 191" width="6.452" height="0.895" transform="translate(35.005 2.748)" fill="url(#linear-gradient-12)"/>
              <g id="Group_32" data-name="Group 32">
                <path id="Path_62" data-name="Path 62" d="M456.62,151.165,443.051,139.06l-13.569,12.106-13.569,12.106,1.7,1.695,1.9-1.695,9.974-8.9,13.569-12.106,13.569,12.106,9.974,8.9,1.9,1.695,1.7-1.695Z" transform="translate(-415.913 -139.06)" fill="url(#linear-gradient-13)"/>
                <path id="Path_63" data-name="Path 63" d="M455.409,153.292l-11.771-10.5-11.772,10.5-11.771,10.5H467.18Zm-11.771,7.355a3.968,3.968,0,1,1,3.967-3.968A3.968,3.968,0,0,1,443.638,160.647Z" transform="translate(-416.5 -139.583)" fill="url(#linear-gradient-14)"/>
                <path id="Path_64" data-name="Path 64" d="M420.1,167.222v32.635h17.993V181.191h11.1v18.666H467.18V167.222Zm12.547,24.8h-7.277V181.191h7.277Zm29.269,0h-7.276V181.191h7.276Z" transform="translate(-416.5 -143.011)" fill="url(#linear-gradient-15)"/>
              </g>
            </g>
          </g>
        </g>
      </g>
    </g>
    <path id="Path_26" data-name="Path 26" d="M255.935,325.206c-67.584-67.584-92.415-153.785-59.45-199.262a66.217,66.217,0,0,0-7.994,6.783c-42.689,42.689-19.107,135.48,52.667,207.256s164.567,95.356,207.256,52.667a66.326,66.326,0,0,0,6.783-7.992C409.719,417.62,323.518,392.79,255.935,325.206Z" transform="translate(-130.853 390)" fill="#e6943a"/>
  </g>
</svg>
