<svg xmlns="http://www.w3.org/2000/svg" xmlns:xlink="http://www.w3.org/1999/xlink" width="220" height="220" viewBox="0 0 220 220">
  <defs>
    <clipPath id="clip-GCC_Logo">
      <rect width="220" height="220"/>
    </clipPath>
  </defs>
  <g id="GCC_Logo" data-name="GCC Logo" clip-path="url(#clip-GCC_Logo)">
    <path id="logo" d="M674.875,513.208a101.3,101.3,0,0,1-2.682,19.546q-10.964,45.079-50.463,69.463a106.678,106.678,0,0,1-49.587,15.556,25.082,25.082,0,0,0-3.33.227h-7.624a1.621,1.621,0,0,0-.77-.1,106.232,106.232,0,0,1-25.471-4.066,110.183,110.183,0,0,1-79.72-98.723A9.3,9.3,0,0,0,455,512.73v-9.2c.171-.129.114-.322.118-.485.053-2.39.273-4.764.531-7.139.3-2.727.705-5.432,1.195-8.129a107.921,107.921,0,0,1,8.2-25.77,108.721,108.721,0,0,1,14.645-23.468c1.567-1.919,3.156-3.82,4.866-5.6a114.523,114.523,0,0,1,9.547-9.054c2.033-1.684,4.089-3.338,6.221-4.893a108.972,108.972,0,0,1,9.585-6.251c2.955-1.722,6-3.266,9.107-4.707,2.818-1.309,5.682-2.511,8.606-3.547a106.15,106.15,0,0,1,21.587-5.326c3.038-.4,6.073-.762,9.134-.929a11.2,11.2,0,0,0,2.587-.231h7.886a1.2,1.2,0,0,0,.641.1,109.354,109.354,0,0,1,39.778,9.168,109.239,109.239,0,0,1,50.649,45.1,107.837,107.837,0,0,1,14.888,48.461A11.515,11.515,0,0,0,675,503.4v9.331C674.81,512.851,674.882,513.045,674.875,513.208ZM564.336,410.931a97.072,97.072,0,1,0,97.74,96.193A97.05,97.05,0,0,0,564.336,410.931Zm.1,180.874q-36.419-20.966-72.858-41.9a1.028,1.028,0,0,1-.588-1.043q.023-20.944.011-41.891t-.011-41.891a.987.987,0,0,1,.58-.986q36.465-20.949,72.911-41.929a.889.889,0,0,1,1.032-.008q36.476,21,72.964,41.963a.933.933,0,0,1,.531.952q-.017,41.921,0,83.843a.987.987,0,0,1-.58.986q-36.437,20.932-72.858,41.9A.986.986,0,0,1,564.435,591.8ZM630.7,544.569q-.023-18.525-.011-37.047,0-18.611.008-37.218a.914.914,0,0,0-.516-.926q-32.329-18.582-64.631-37.2a.946.946,0,0,0-1.1.007q-32.306,18.617-64.631,37.2a.917.917,0,0,0-.508.929q.017,37.193,0,74.383a.909.909,0,0,0,.52.922q32.323,18.588,64.627,37.2a.94.94,0,0,0,1.1,0q32.232-18.576,64.479-37.115A1.121,1.121,0,0,0,630.7,544.569Zm-68.173-5.591c-.66.364-1.4.531-1.669.979-.429.725-.5,1.68-1.665,1.627-.061,0-.155.228-.193.36-.167.645-.318,1.294-.474,1.923-1.058.193-1.718-.019-1.942-1.127a2.741,2.741,0,0,0-.732-1.2c-1.434-1.582-3.251-2.818-4.3-4.764a9.819,9.819,0,0,0-1.142-1.324,3.615,3.615,0,0,1-.721-1.081,4.5,4.5,0,0,0-2.124-2.522c-.5-.311-1.123-.785-1.248-1.293a3.643,3.643,0,0,0-3.072-2.872c-.425-.095-.869-.118-1.282-.25-.573-.182-1.377-.277-1.646-.69a38.322,38.322,0,0,1-2.678-4.821c-.379-.827-.231-1.893-.58-2.742-.778-1.919-1.7-3.778-2.613-5.637a2.4,2.4,0,0,0-.9-.759,21.932,21.932,0,0,1-2.136-1.3,3.349,3.349,0,0,0-2.28-1.153,1.126,1.126,0,0,1-.831-.448,21.862,21.862,0,0,1-1.79-2.981,10.416,10.416,0,0,0-3.16-4.267,9.466,9.466,0,0,1-1.525-1.718c-.618-.77-1.191-1.574-1.794-2.356a37.417,37.417,0,0,1-2.83-3.732,5.51,5.51,0,0,0-3.581-2.981,1.1,1.1,0,0,1-.941-1.362,15.835,15.835,0,0,0-.011-2.242c-.038-.732-.16-1.46-.2-2.193s.254-1.149,1.085-1.168a3.219,3.219,0,0,0,3.031-2.3c.565-1.684.683-1.79,2.454-1.745.671.015.99-.08,1.221-.85a20.294,20.294,0,0,1,1.582-3.16,2.444,2.444,0,0,0-.2-.239c-.834-.91-1.938-1.559-2.363-2.845a2.641,2.641,0,0,1,1.313-2.845c1.244-.36,2.477-.751,3.71-1.146a.89.89,0,0,0,.417-.341c.573-.869,1.127-1.752,1.688-2.632h3.968c.447.5.891,1.438,1.354,1.445,2.014.038,3.615,1.18,5.42,1.752.395.129.679.717,1.062.77,1.138.163,2.344.061,2.974,1.343.064.133.3.174.463.258.671.345,1.369.645,2,1.047.338.212.516.671.85.876.713.44,1.495.766,2.223,1.184.144.083.2.364.247.565.4,1.969.611,2.162,2.61,2.3.22.015.44.061.656.076,2.139.167,4.275.326,6.41.493.622.049,1.244.1,1.961.159a.419.419,0,0,0,.076-.243c-.046-2.151,1.252-3.782,2.17-5.553.087-.171.41-.235.637-.307,1.286-.429,2.272.281,3.376.774a1.375,1.375,0,0,1,.854,2,2.753,2.753,0,0,0-.266,1.058,2.066,2.066,0,0,0,.467,1.13c1.161,1.24,2.39,2.416,3.566,3.645.375.391.933.854.952,1.3a2.932,2.932,0,0,0,2.412,2.959,9.607,9.607,0,0,1,2.739,1.586,4.859,4.859,0,0,1,1.677,1.858c.664,1.73.577,3.725,1.832,5.261.019.026,0,.08.023.106a8.639,8.639,0,0,0,1.195,1.624,13.81,13.81,0,0,0,2.291,1.491,10.23,10.23,0,0,0,1.544.588,4.461,4.461,0,0,0-.2-1.764,4.67,4.67,0,0,1-.645-3.353,5.445,5.445,0,0,1,.7-1.351,16.1,16.1,0,0,1,1.093,1.187c.114.148.026.432.083.641.182.645.413,1.278.58,1.927.228.861.869,2.044.531,2.538-.9,1.3-.038,1.783.679,2.409a2.112,2.112,0,0,0,2.678.414,9.176,9.176,0,0,1,3.535-1.074,6.828,6.828,0,0,0,4.7-2.3,7.254,7.254,0,0,0,2.162-2.83,7.274,7.274,0,0,1,1.153-2.526,9.3,9.3,0,0,0,2.094-4.62,5.09,5.09,0,0,1,.41-1.066l.394.023a38.866,38.866,0,0,1,2.12,5.561,8.743,8.743,0,0,0,4.005,5.982,3.512,3.512,0,0,0,1.392.577,26.262,26.262,0,0,0,3.622.152,2.12,2.12,0,0,1,1.813.781,7.858,7.858,0,0,0,2.435,2.257,8.9,8.9,0,0,1,2.754,1.673v.66a4.589,4.589,0,0,0-.269.592c-.778,2.553-1.517,5.117-2.333,7.654a4.294,4.294,0,0,1-.956,1.422c-.254.284-.827.364-.956.668-.854,2-2.238,3.979-.96,6.274.561,1.009.155,1.574-.6,2.1a6.235,6.235,0,0,1-1.153.618,1.89,1.89,0,0,0-1.324,1.806,4.228,4.228,0,0,1-1.707,3.167,22.073,22.073,0,0,0-3.657,3.6,2.012,2.012,0,0,1-1.506.963,2.919,2.919,0,0,0-1.806.6,8.57,8.57,0,0,1-4.59,2.583c-.687.209-1.7-.41-1.658-1.108.106-1.642-.8-2.845-1.658-4.081-.759-1.1-1.483-2.219-2.287-3.285a1.106,1.106,0,0,0-.925-.4c-2.117.766-4.207,1.608-6.3,2.428-.793.307-1.612.565-2.382.922-.63.292-1.187.74-1.809,1.043-.861.421-2.033.542-2.568,1.2a25.878,25.878,0,0,0-2.329,4.078q-.916,1.7-1.805,3.425c-.41.8-.77,1.62-1.183,2.412-.364.7-.459,1.669-1.616,1.62-.178-.008-.375.3-.561.455h-1.1c0-.626.03-1.252-.019-1.874-.083-1.089-.967-2.185-1.775-2.219-.85-.034-1.711.034-2.557-.061-.668-.076-1.3-.425-1.972-.489C564.609,540.226,563.134,540.7,562.523,538.978Zm17.926-45.316a14.058,14.058,0,0,1-1.146-2.469c-.087-.228.065-.755.239-.823a1.071,1.071,0,0,1,.971.11c.588.778,1.062,1.642,1.585,2.481-.284.512-.413,1.009-.611,1.036A1.221,1.221,0,0,1,580.449,493.662Z" transform="translate(-455 -398)" fill="#516a75"/>
  </g>
</svg>
