<?xml version="1.0" encoding="utf-8"?>
<!-- Generator: Adobe Illustrator 16.0.0, SVG Export Plug-In . SVG Version: 6.00 Build 0)  -->
<!DOCTYPE svg PUBLIC "-//W3C//DTD SVG 1.1//EN" "http://www.w3.org/Graphics/SVG/1.1/DTD/svg11.dtd">
<svg version="1.1" id="Layer_1" xmlns="http://www.w3.org/2000/svg" xmlns:xlink="http://www.w3.org/1999/xlink" x="0px" y="0px"
	 width="40px" height="40px" viewBox="0 0 40 40" enable-background="new 0 0 40 40" xml:space="preserve">
<path fill="#4A4A4A" d="M35.369,30.792c-1.609-0.069-2.307-0.558-2.71-1.065c-0.408-0.521-0.525-1.217-0.524-1.765
	c0-0.216,0.018-0.403,0.035-0.532c0.007-0.065,0.016-0.113,0.021-0.141c0.006-0.031,0.006-0.029,0.006-0.031l0.023-0.1v-1.801
	c0.482-0.262,1.283-0.691,2.154-1.159c1.398-0.747,2.998-1.591,3.686-1.913c0.33-0.158,0.582-0.307,0.805-0.512
	c0.212-0.199,0.436-0.52,0.438-0.938c0.002-0.339-0.156-0.614-0.295-0.771c-0.309-0.313-0.566-0.412-0.711-0.457l-5.73-2.983v-3.877
	h-0.901c0-0.001,0-0.001-5.413,0c-0.064,0-0.121-0.002-0.174-0.005L33.057-0.01l-1.582-0.867l-6.922,12.644
	c-0.049,0.063-0.119,0.16-0.193,0.282c-0.12,0.217-0.285,0.509-0.295,0.971c-0.025,0.41,0.256,0.972,0.697,1.207
	c0.428,0.252,0.891,0.32,1.488,0.325c2.434,0,3.773,0,4.511,0v3.168l6.067,3.159c-1.863,0.928-5.93,3.141-5.941,3.146l-0.47,0.258
	v2.679c-0.032,0.179-0.086,0.536-0.086,0.999c0.002,0.77,0.144,1.88,0.899,2.867c0.754,0.996,2.115,1.713,4.098,1.768h0.016h0.016
	c4.641,0,4.641,0,4.641,0v-1.805C40,30.791,39.999,30.791,35.369,30.792z M37.507,5.829c1.234,0,2.234-1.001,2.234-2.235
	c0-1.234-1.001-2.235-2.234-2.235s-2.233,1.002-2.233,2.235C35.273,4.829,36.273,5.83,37.507,5.829z M14.825,15.065
	c0.168-0.671,0.334-1.204,0.459-1.564c0.06-0.177,0.11-0.31,0.144-0.399l-1.639-0.762c-0.205,0.519-1.439,3.767-1.443,8.133
	c0,2.485,0.402,5.337,1.647,8.226l1.657-0.71c-1.129-2.623-1.5-5.224-1.5-7.516C14.148,18.298,14.486,16.405,14.825,15.065z
	 M23.32,16.76l-1.693-0.785c-0.241,1.269-0.43,2.798-0.432,4.498c0,1.55,0.16,3.241,0.578,4.998l1.69-0.707
	c-0.333-1.498-0.463-2.945-0.463-4.291C23.001,19.102,23.136,17.841,23.32,16.76z M19.465,15.065
	c0.006-0.029,0.014-0.055,0.02-0.083l-1.66-0.771c-0.398,1.467-0.836,3.668-0.838,6.262c0,2.007,0.265,4.253,1.021,6.566
	l1.672-0.696c-0.655-2.055-0.889-4.057-0.889-5.87C18.791,18.298,19.128,16.405,19.465,15.065z"/>
</svg>
