<svg xmlns="http://www.w3.org/2000/svg" width="51.161" height="34.879" viewBox="0 0 51.161 34.879">
  <g id="ambulance" transform="translate(0 0)">
    <g id="Group_44385" data-name="Group 44385" transform="translate(0 7.768)">
      <path id="Path_62973" data-name="Path 62973" d="M4544.531,1195.432a2.544,2.544,0,0,1,2.306-1.967c.265-.027.527-.074.791-.11.791-.109,1.587-.193,2.371-.342a.945.945,0,0,0,.582-.429q1.053-2.011,2.04-4.057a3.393,3.393,0,0,1,2.058-1.909.551.551,0,0,0,.267-.386c.054-.326.014-.667.068-.993a2.318,2.318,0,0,1,4.607.337c.007.281,0,.561,0,.881h1.722c.009-.19.025-.368.025-.545,0-1.349,0-2.7,0-4.048a1.583,1.583,0,0,1,1.784-1.787q12.541,0,25.084,0a1.086,1.086,0,0,1,.663.131.926.926,0,0,1,.33.7c-.05.234-.331.456-.563.6-.148.09-.39.03-.589.03h-24.584c-.667,0-.668,0-.668.686q0,5.6,0,11.193c0,.437-.081.809-.576.911-.52.108-.871-.229-.879-.863-.013-1.016,0-2.032,0-3.048,0-.683-.014-1.366,0-2.049.009-.332-.117-.422-.436-.429-1.315-.028-1.315-.038-1.315,1.293,0,.9.005,1.8,0,2.7a2.289,2.289,0,0,1-2.411,2.421c-1.782.024-3.569-.071-5.345.03-1.706.1-3.4.362-5.1.587-.551.073-.761.447-.709,1.115.267.012.542.018.817.038a.715.715,0,1,1-.007,1.43c-.262.015-.525,0-.85,0v2.746c0,.433-.008.866,0,1.3a.84.84,0,0,0,.808.907c.781.036,1.565.033,2.347,0,.127-.006.3-.258.355-.427a3.94,3.94,0,0,1,5.721-2.235,3.816,3.816,0,0,1,1.808,2.3c.074.25.152.4.46.4,1.149-.018,2.3-.011,3.448,0,.254,0,.407-.048.4-.352-.011-1.466-.008-2.932-.013-4.4a1.224,1.224,0,0,0-.062-.219h-10.757a4.292,4.292,0,0,1-.548-.018.709.709,0,0,1,.022-1.409c.232-.022.466-.016.7-.016h43.481v-14.575h-1.84c-.217,0-.435.01-.649-.009a.675.675,0,0,1-.673-.674.628.628,0,0,1,.591-.737,23.57,23.57,0,0,1,2.888.037,1.415,1.415,0,0,1,1.175,1.371c.011.132.005.267.005.4q0,10.094,0,20.188c0,1.288-.573,1.867-1.852,1.869-2.182,0-4.364.009-6.546-.008a.537.537,0,0,0-.618.461,3.91,3.91,0,0,1-7.472-.005.54.54,0,0,0-.625-.453q-10.469.013-20.937,0a.541.541,0,0,0-.619.461,3.909,3.909,0,0,1-7.47-.007c-.11-.354-.264-.476-.624-.453-.464.029-.932.007-1.4.007-1.8,0-2.309-.329-3-1.953Zm49.67,2.126h-20.476c-3.446,0-6.893.007-10.339-.008-.425,0-.581.1-.57.553q.046,1.922,0,3.845c-.011.464.132.586.588.584q7.567-.023,15.133,0a.568.568,0,0,0,.666-.468,3.918,3.918,0,0,1,7.483.038.506.506,0,0,0,.588.43c2.148-.015,4.3-.007,6.443-.009.158,0,.316-.022.482-.034Zm-42.133-4.663c1.842,0,3.566.019,5.29-.012.519-.009.791-.362.8-.9.013-1.213,0-2.426.011-3.639,0-.309-.114-.4-.41-.4-.714.014-1.429-.005-2.144.009a1.538,1.538,0,0,0-1.423.773C4553.474,1190.07,4552.8,1191.439,4552.068,1192.9Zm1.207,7.89a2.465,2.465,0,0,0-2.455,2.493,2.467,2.467,0,0,0,4.934-.034A2.442,2.442,0,0,0,4553.274,1200.785Zm27.2,2.455a2.477,2.477,0,0,0,2.466,2.486,2.506,2.506,0,0,0,2.471-2.494,2.474,2.474,0,0,0-2.455-2.447A2.441,2.441,0,0,0,4580.476,1203.24Zm-24.047-16.79h1.735c-.046-.588.2-1.231-.442-1.554a1.1,1.1,0,0,0-.912.044C4556.238,1185.287,4556.453,1185.9,4556.429,1186.45Z" transform="translate(-4544.531 -1180.077)" fill="#1b1464"/>
      <path id="Path_62974" data-name="Path 62974" d="M4603.511,1207.068c-.532,0-1.064.014-1.6,0a1.468,1.468,0,0,1-1.493-1.434,15.873,15.873,0,0,1,0-1.745,1.445,1.445,0,0,1,1.425-1.449q1.693-.057,3.39,0a1.436,1.436,0,0,1,1.417,1.452c.023.581.024,1.164,0,1.745a1.456,1.456,0,0,1-1.443,1.426c-.564.022-1.13,0-1.7,0Zm0-1.444v0h.448c1.365,0,1.358,0,1.268-1.386-.018-.274-.111-.384-.388-.377-.564.012-1.128,0-1.693,0-1.358,0-1.358,0-1.287,1.362,0,.016-.007.04,0,.049.117.117.228.32.357.333C4602.641,1205.651,4603.075,1205.624,4603.507,1205.624Z" transform="translate(-4580.354 -1194.397)" fill="#1b1464"/>
      <path id="Path_62975" data-name="Path 62975" d="M4568.371,1243.406a.717.717,0,0,1-.746.7.741.741,0,0,1-.709-.745.727.727,0,0,1,.754-.692A.712.712,0,0,1,4568.371,1243.406Z" transform="translate(-4558.885 -1220.212)" fill="#1b1464"/>
      <path id="Path_62976" data-name="Path 62976" d="M4649.58,1243.4a.7.7,0,0,1,.7-.732.723.723,0,0,1,.747.7.737.737,0,0,1-.714.739A.715.715,0,0,1,4649.58,1243.4Z" transform="translate(-4611.893 -1220.213)" fill="#1b1464"/>
    </g>
    <g id="Group_44386" data-name="Group 44386" transform="translate(6.499)">
      <path id="Path_62977" data-name="Path 62977" d="M4580.008,1176.03a.282.282,0,0,1-.338-.45l2.042-1.719-2.178-.127,3.23-2.767a.282.282,0,1,1,.367.428l-2.168,1.857,2.2.127-3.127,2.632Z" transform="translate(-4573.475 -1166.423)" fill="#1b1464"/>
      <path id="Path_62978" data-name="Path 62978" d="M4571.589,1167.669a.445.445,0,0,1-.871-.177l.613-4.167-2.705,2.13.918-6.647a.445.445,0,1,1,.881.122l-.616,4.461,2.727-2.148-.938,6.378A.4.4,0,0,1,4571.589,1167.669Z" transform="translate(-4566.48 -1158.423)" fill="#1b1464"/>
      <path id="Path_62979" data-name="Path 62979" d="M4566.556,1181.235a.229.229,0,0,1-.392.237l-1.223-1.8-.283,1.753-1.973-2.845a.229.229,0,1,1,.377-.261l1.324,1.909.285-1.768,1.871,2.75A.159.159,0,0,1,4566.556,1181.235Z" transform="translate(-4562.645 -1171.12)" fill="#1b1464"/>
    </g>
    <g id="Group_44387" data-name="Group 44387" transform="translate(36.528 11.664)">
      <path id="Path_62980" data-name="Path 62980" d="M4654.189,1199.453a4.816,4.816,0,1,1-4.085-8.445q.2-.044.395-.072a4.816,4.816,0,0,0,3.69,8.518Z" transform="translate(-4646.348 -1190.935)" fill="#1b1464"/>
    </g>
  </g>
</svg>
