<svg xmlns="http://www.w3.org/2000/svg" width="74.391" height="77.457" viewBox="0 0 74.391 77.457">
  <g id="attendance_" data-name="attendance " transform="translate(-37.798 -34.003)">
    <path id="Path_65531" data-name="Path 65531" d="M37.8,72.752V39.546a5.429,5.429,0,0,1,4.227-5.379,5.2,5.2,0,0,1,1.195-.134H91.135a20.342,20.342,0,0,1,3.135.073,5.406,5.406,0,0,1,4.53,5.283v9.552a1.4,1.4,0,1,1-2.793,0v-9.16a2.673,2.673,0,0,0-2.959-2.951H43.324a2.624,2.624,0,0,0-2.72,2.755q0,14.624,0,29.248v36.99a2.642,2.642,0,0,0,2.851,2.836H93.048a3.02,3.02,0,0,0,1.618-.353,2.69,2.69,0,0,0,1.341-2.521q0-7.251,0-14.5a5.383,5.383,0,0,1,0-.557,1.395,1.395,0,0,1,2.774.088v15.1a5.418,5.418,0,0,1-5.56,5.537H43.735a6.424,6.424,0,0,1-2.528-.384,5.414,5.414,0,0,1-3.4-5.03V72.745Z" transform="translate(0 0)" fill="#1b1464"/>
    <path id="Path_65532" data-name="Path 65532" d="M100.592,123.119H96.238a4.227,4.227,0,0,1-3.693-1.986c-.319-.476-.619-.964-.945-1.437a1.475,1.475,0,0,0-2.275-.307,4.317,4.317,0,0,1-6.686-.961c-1.068-1.552-2.163-3.089-3.239-4.661a1.4,1.4,0,0,1,1.452-2.2,1.51,1.51,0,0,1,.911.7q1.625,2.344,3.266,4.692a1.511,1.511,0,0,0,2.482.307,4.3,4.3,0,0,1,6.428.888c.311.465.619.934.914,1.406a1.621,1.621,0,0,0,1.479.792h7.224c.588,0,.6,0,.626-.607a19.465,19.465,0,0,0-1.81-8.837,1.406,1.406,0,0,1,.934-2.121,11.108,11.108,0,0,0,4.653-2.828.722.722,0,0,0,.246-.638,2.832,2.832,0,0,1,.384-1.61Q114.77,92.5,120.956,81.3c1.821-3.3,3.623-6.605,5.464-9.894a5.921,5.921,0,0,1,5.041-3.258,5.479,5.479,0,0,1,5.222,2.713,5.633,5.633,0,0,1,.161,6.009q-4.423,8.069-8.884,16.107-4.476,8.1-8.953,16.215a3.212,3.212,0,0,1-1.376,1.429.53.53,0,0,0-.273.407,10.966,10.966,0,0,0,.054,5.487,1.421,1.421,0,0,1-1.337,1.96,18.1,18.1,0,0,0-9.737,4.257,1.564,1.564,0,0,1-1.1.384C103.666,123.111,102.129,123.119,100.592,123.119Zm22.67-40.037c-.177,0-.2.15-.254.254L111.1,104.883c-.161.292-.127.446.173.611q2.305,1.253,4.584,2.536c.327.184.5.123.68-.2q5.925-10.759,11.877-21.517c.146-.265.081-.353-.154-.484-1.595-.868-3.185-1.752-4.776-2.632A1.263,1.263,0,0,0,123.262,83.081ZM109.3,117.448a1.3,1.3,0,0,0,.184-.031,21.9,21.9,0,0,1,4.611-1.46c.3-.058.269-.219.242-.426a13.887,13.887,0,0,1,.169-4.7.361.361,0,0,0-.211-.476q-2.075-1.122-4.134-2.279a.323.323,0,0,0-.473.058,13,13,0,0,1-3.961,2.69c-.246.108-.265.219-.173.453a20.22,20.22,0,0,1,.98,3.377c.1.461.177.922.284,1.475.269-.488.488-.888.711-1.287a1.422,1.422,0,0,1,1.99-.672,1.407,1.407,0,0,1,.473,2.017Zm22.286-46.493a3.289,3.289,0,0,0-2.69,1.752c-.438.742-.826,1.506-1.256,2.255-.115.2-.108.3.115.423q2.451,1.337,4.888,2.69c.188.108.284.1.384-.1.469-.872.98-1.721,1.426-2.6a3.074,3.074,0,0,0-2.847-4.43Zm-.115,9.806c0-.161-.123-.181-.215-.231q-2.438-1.354-4.876-2.69c-.184-.1-.281-.115-.384.1-.43.811-.872,1.61-1.326,2.405-.134.231-.05.311.146.419q2.425,1.326,4.841,2.69c.242.138.327.077.446-.146.407-.768.838-1.537,1.26-2.305Z" transform="translate(-25.445 -21.011)" fill="#1b1464"/>
    <path id="Path_65533" data-name="Path 65533" d="M71.009,86.528a10.033,10.033,0,0,1-.9-3.666c0-.273-.207-.223-.384-.227H59.974A1.4,1.4,0,0,1,58.525,80.8a1.414,1.414,0,0,1,1.46-.972h9.89a.6.6,0,0,0,.7-.507,9.506,9.506,0,0,1,1.883-3.393H60.05a1.76,1.76,0,0,1-.872-.192,1.4,1.4,0,0,1,.557-2.62,3.882,3.882,0,0,1,.473,0H75.962a2.759,2.759,0,0,0,.88-.142,9.767,9.767,0,0,1,6.29,0,2.6,2.6,0,0,0,.841.134h18.19a1.406,1.406,0,1,1,0,2.813H87.6c-.038.2.108.273.188.384A9.495,9.495,0,0,1,89.4,79.42a.473.473,0,0,0,.553.415h12.127a1.391,1.391,0,0,1,1.437,1.8,1.306,1.306,0,0,1-1.049.957,3.553,3.553,0,0,1-.642.046H90.3c-.342,0-.465.073-.48.438a9.3,9.3,0,0,1-.692,3c-.054.131-.1.261-.181.461h11.07a1.387,1.387,0,0,1,1.333,1.987,1.349,1.349,0,0,1-1.318.8H87.45a1.018,1.018,0,0,0-.768.284,9.825,9.825,0,0,1-13.364.027,1.064,1.064,0,0,0-.8-.311H60.008a1.4,1.4,0,1,1-.019-2.782h11.02Zm8.949,2.9a7.078,7.078,0,1,0-7.078-7.1A7.078,7.078,0,0,0,79.958,89.429Z" transform="translate(-12.719 -23.678)" fill="#1b1464"/>
    <path id="Path_65534" data-name="Path 65534" d="M81.024,59.567H59.995a1.408,1.408,0,0,1-1.452-1.887A1.433,1.433,0,0,1,60,56.762h41.928a1.948,1.948,0,0,1,.8.119,1.387,1.387,0,0,1,.818,1.537,1.368,1.368,0,0,1-1.41,1.153h-8Z" transform="translate(-12.717 -14.011)" fill="#1b1464"/>
    <path id="Path_65535" data-name="Path 65535" d="M77.9,130.094H60.055a1.445,1.445,0,0,1-1.506-.911,1.406,1.406,0,0,1,1.191-1.89,3.372,3.372,0,0,1,.342,0H95.731a1.423,1.423,0,0,1,1.56,1.714,1.387,1.387,0,0,1-1.372,1.087H77.9Z" transform="translate(-12.723 -57.442)" fill="#1b1464"/>
    <path id="Path_65536" data-name="Path 65536" d="M76.3,144.713H92.443a2.413,2.413,0,0,1,.684.058,1.376,1.376,0,0,1,1.011,1.379,1.349,1.349,0,0,1-1.08,1.322,2.812,2.812,0,0,1-.6.05H59.852a1.4,1.4,0,0,1,.069-2.8h3.312Z" transform="translate(-12.777 -68.169)" fill="#1b1464"/>
    <path id="Path_65537" data-name="Path 65537" d="M74.047,162.149h14.1a1.4,1.4,0,1,1,.023,2.793H59.965a1.4,1.4,0,1,1,.019-2.793Z" transform="translate(-12.714 -78.904)" fill="#1b1464"/>
    <path id="Path_65538" data-name="Path 65538" d="M110.713,89.846a1.349,1.349,0,0,1-.254.768q-1.883,2.928-3.773,5.852a1.391,1.391,0,0,1-2.305.207c-.922-.98-1.837-1.975-2.74-2.97a1.4,1.4,0,0,1,2.048-1.921c.457.476.911.957,1.341,1.456.2.227.28.177.426-.05q1.314-2.071,2.647-4.119a1.4,1.4,0,0,1,2.6.768Z" transform="translate(-39.078 -33.485)" fill="#1b1464"/>
  </g>
</svg>
