<svg xmlns="http://www.w3.org/2000/svg" width="77.114" height="58.006" viewBox="0 0 77.114 58.006">
  <g id="EMT" transform="translate(0 5.433)">
    <g id="Group_44385" data-name="Group 44385" transform="translate(0 11.709)">
      <path id="Path_62973" data-name="Path 62973" d="M4544.531,1203.222a3.835,3.835,0,0,1,3.475-2.966c.4-.04.794-.111,1.192-.166,1.192-.165,2.392-.29,3.573-.515a1.425,1.425,0,0,0,.877-.646q1.588-3.031,3.074-6.115a5.114,5.114,0,0,1,3.1-2.877.831.831,0,0,0,.4-.582c.081-.491.021-1.005.1-1.5a3.494,3.494,0,0,1,6.944.507c.011.423,0,.846,0,1.328h2.595c.014-.287.038-.554.039-.821,0-2.033-.005-4.067,0-6.1a2.387,2.387,0,0,1,2.688-2.694q18.9,0,37.809.006a1.637,1.637,0,0,1,1,.2,1.394,1.394,0,0,1,.5,1.051c-.075.352-.5.687-.849.9-.223.136-.587.045-.888.045h-37.056c-1.006,0-1.007,0-1.007,1.033q0,8.436,0,16.871c0,.659-.122,1.219-.868,1.374-.783.163-1.312-.345-1.325-1.3-.02-1.531-.006-3.063-.007-4.594,0-1.029-.021-2.059.007-3.088.014-.5-.176-.636-.657-.647-1.982-.043-1.982-.057-1.982,1.949,0,1.356.008,2.712,0,4.068a3.45,3.45,0,0,1-3.634,3.649c-2.686.036-5.379-.106-8.057.045-2.571.146-5.13.545-7.687.885-.831.11-1.147.673-1.069,1.68.4.018.818.027,1.231.057a1.078,1.078,0,1,1-.011,2.155c-.4.023-.792,0-1.281,0v4.138c0,.653-.013,1.306.006,1.958a1.267,1.267,0,0,0,1.218,1.367c1.178.054,2.36.051,3.538-.007.192-.009.452-.388.535-.644a5.938,5.938,0,0,1,8.623-3.368,5.75,5.75,0,0,1,2.725,3.46c.112.376.229.6.694.6,1.732-.027,3.465-.017,5.2-.007.384,0,.614-.072.61-.53-.017-2.209-.013-4.419-.019-6.628a1.892,1.892,0,0,0-.094-.33h-.925q-7.645,0-15.289,0a6.47,6.47,0,0,1-.827-.027,1.068,1.068,0,0,1,.033-2.124c.35-.032.7-.024,1.054-.024h65.539V1182.28h-2.774c-.327,0-.655.015-.979-.014a1.018,1.018,0,0,1-1.014-1.016.946.946,0,0,1,.891-1.111,35.519,35.519,0,0,1,4.354.055,2.134,2.134,0,0,1,1.771,2.066c.016.2.008.4.008.6q0,15.215,0,30.428c0,1.941-.863,2.815-2.791,2.817-3.289,0-6.578.013-9.867-.011a.809.809,0,0,0-.931.694,5.894,5.894,0,0,1-11.262-.008.814.814,0,0,0-.941-.684q-15.779.02-31.557,0a.816.816,0,0,0-.933.695,5.892,5.892,0,0,1-11.259-.011c-.167-.533-.4-.717-.94-.683-.7.044-1.405.011-2.108.011-2.719,0-3.48-.5-4.524-2.944Zm74.866,3.2h-30.863c-5.195,0-10.389.01-15.584-.012-.641,0-.875.148-.859.834q.07,2.9,0,5.8c-.016.7.2.883.887.881q11.4-.034,22.81,0a.857.857,0,0,0,1-.705,5.9,5.9,0,0,1,11.279.057.763.763,0,0,0,.887.647c3.237-.023,6.474-.011,9.711-.014.239,0,.476-.034.727-.052Zm-63.506-7.029c2.777,0,5.375.029,7.973-.018.783-.014,1.192-.546,1.2-1.363.02-1.828,0-3.657.017-5.485,0-.466-.172-.608-.619-.6-1.076.022-2.153-.007-3.231.013a2.318,2.318,0,0,0-2.145,1.165C4558.011,1195.139,4557,1197.2,4555.891,1199.4Zm1.819,11.892a3.715,3.715,0,0,0-3.7,3.757,3.718,3.718,0,0,0,7.437-.052A3.681,3.681,0,0,0,4557.71,1211.29Zm41,3.7a3.734,3.734,0,0,0,3.718,3.748,3.778,3.778,0,0,0,3.725-3.76,3.729,3.729,0,0,0-3.7-3.688A3.679,3.679,0,0,0,4598.709,1214.99Zm-36.245-25.307h2.615c-.07-.887.3-1.856-.667-2.342a1.653,1.653,0,0,0-1.375.066C4562.177,1187.93,4562.5,1188.85,4562.464,1189.683Z" transform="translate(-4544.531 -1180.077)" fill="#1b1464"/>
      <path id="Path_62974" data-name="Path 62974" d="M4605.09,1209.432c-.8,0-1.6.021-2.406-.005a2.213,2.213,0,0,1-2.25-2.161,23.86,23.86,0,0,1,0-2.63,2.178,2.178,0,0,1,2.148-2.184q2.552-.086,5.11,0a2.165,2.165,0,0,1,2.137,2.188c.035.876.037,1.755,0,2.63a2.2,2.2,0,0,1-2.176,2.149c-.85.034-1.7.006-2.555.006Zm-.006-2.177v0h.675c2.057,0,2.048,0,1.912-2.089-.027-.414-.168-.578-.585-.569-.85.018-1.7,0-2.552,0-2.047,0-2.047,0-1.94,2.052,0,.025-.01.061,0,.074.176.177.343.482.538.5C4603.779,1207.3,4604.434,1207.255,4605.084,1207.255Z" transform="translate(-4570.187 -1190.333)" fill="#1b1464"/>
      <path id="Path_62975" data-name="Path 62975" d="M4569.109,1243.781a1.081,1.081,0,0,1-1.124,1.052,1.116,1.116,0,0,1-1.068-1.123,1.1,1.1,0,0,1,1.137-1.043A1.074,1.074,0,0,1,4569.109,1243.781Z" transform="translate(-4554.811 -1208.821)" fill="#1b1464"/>
      <path id="Path_62976" data-name="Path 62976" d="M4649.58,1243.771a1.061,1.061,0,0,1,1.061-1.1,1.09,1.09,0,0,1,1.126,1.053,1.111,1.111,0,0,1-1.077,1.114A1.077,1.077,0,0,1,4649.58,1243.771Z" transform="translate(-4592.774 -1208.822)" fill="#1b1464"/>
    </g>
    <g id="Group_44387" data-name="Group 44387" transform="translate(55.058 17.581)">
      <path id="Path_62980" data-name="Path 62980" d="M4658.167,1203.774a7.259,7.259,0,1,1-6.157-12.729c.2-.045.4-.081.595-.109a7.26,7.26,0,0,0,5.563,12.839Z" transform="translate(-4646.348 -1190.935)" fill="#1b1464"/>
    </g>
    <g id="medicineReport" transform="translate(-303.094 -296.822)">
      <rect id="Rectangle_18421" data-name="Rectangle 18421" width="32" height="23" transform="translate(346.094 310.822)" fill="#fff"/>
      <g id="Group_45881" data-name="Group 45881" transform="translate(346.033 291.389)">
        <path id="Path_65857" data-name="Path 65857" d="M379.017,334.12H346.5a.462.462,0,0,1-.462-.462V291.851a.462.462,0,0,1,.462-.462h32.522a.462.462,0,0,1,.462.462v14.19a.462.462,0,0,1-.924,0V292.313h-31.6V333.2h31.6v-7.454a.462.462,0,1,1,.924,0v7.916A.462.462,0,0,1,379.017,334.12Z" transform="translate(-346.033 -291.389)" fill="#1b1477"/>
      </g>
      <g id="Group_45887" data-name="Group 45887" transform="translate(353.098 316.617)">
        <path id="Path_65863" data-name="Path 65863" d="M376.178,374.183h-16.49a.462.462,0,1,1,0-.924h16.49a.462.462,0,1,1,0,.924Z" transform="translate(-359.226 -373.259)" fill="#1b1477"/>
      </g>
      <g id="Group_45888" data-name="Group 45888" transform="translate(353.098 320.766)">
        <path id="Path_65864" data-name="Path 65864" d="M376.178,387.647h-16.49a.462.462,0,0,1,0-.924h16.49a.462.462,0,0,1,0,.924Z" transform="translate(-359.226 -386.723)" fill="#1b1477"/>
      </g>
      <g id="Group_45889" data-name="Group 45889" transform="translate(353.098 325.316)">
        <path id="Path_65865" data-name="Path 65865" d="M376.178,402.414h-16.49a.462.462,0,1,1,0-.924h16.49a.462.462,0,1,1,0,.924Z" transform="translate(-359.226 -401.49)" fill="#1b1477"/>
      </g>
      <g id="Group_45900" data-name="Group 45900" transform="translate(-0.072)">
        <g id="Group_45890" data-name="Group 45890" transform="translate(355.166 293.041)">
          <path id="Path_65866" data-name="Path 65866" d="M433.885,358.567a6.851,6.851,0,1,1,6.851-6.851A6.859,6.859,0,0,1,433.885,358.567Zm0-12.912a6.061,6.061,0,1,0,6.062,6.062A6.068,6.068,0,0,0,433.885,345.655Z" transform="translate(-427.034 -344.866)" fill="#1b1477"/>
        </g>
        <g id="Group_45891" data-name="Group 45891" transform="translate(357.693 295.568)">
          <path id="Path_65867" data-name="Path 65867" d="M442.366,363.118h-2.8a.4.4,0,0,1-.395-.395V360.59h-2.135a.4.4,0,0,1-.395-.395v-2.8a.4.4,0,0,1,.395-.395h2.135v-2.132a.4.4,0,0,1,.395-.395h2.8a.4.4,0,0,1,.395.395V357h2.132a.4.4,0,0,1,.395.395v2.8a.4.4,0,0,1-.395.395H442.76v2.134A.4.4,0,0,1,442.366,363.118Zm-2.407-.789h2.012v-2.134a.4.4,0,0,1,.395-.395H444.5v-2.012h-2.132a.4.4,0,0,1-.395-.395v-2.132h-2.012v2.132a.4.4,0,0,1-.395.395h-2.135V359.8h2.135a.4.4,0,0,1,.395.395Z" transform="translate(-436.64 -354.472)" fill="#1b1477"/>
        </g>
      </g>
    </g>
  </g>
</svg>
