<svg xmlns="http://www.w3.org/2000/svg" width="78.924" height="79.948" viewBox="0 0 78.924 79.948">
  <g id="governorate" transform="translate(-8.603 -11.553)">
    <path id="Path_65504" data-name="Path 65504" d="M88.75,195.756h.017v-.017H88.75Zm.373-.356Zm.678-.727v.017h-.017v.017H89.8v-.033Zm0,0Zm.254-.254Zm.017,0Zm.017-.017Zm.2-.254Zm.033-.017v-.017h-.017Zm0-.017Zm.017-.559Zm.119-.169Zm6.151-8.321,2.27,3.558h-.017v.017h-.051v.017h-.17v-.017h-.1v-.017h-.051v-.017h-.051v-.017H98.39v-.017h-.068v-.017H98.3v-.017h-.017v-.019h-.136V188.5h-.12v-.016h-.187v-.017h-.288v-.016h-.119v.017h-.051v.017h-.017v.017h-.033v.033h-.051v.017h-.051v.017H97.22v-.017H97.2v.017h-.017v-.017h-.068v.017H97v.017h-.017v.017H96.83v-.017h-.1v-.017h-.1v-.017H96.49v-.017h-.2v-.018h-.017v.017h-.136v-.017h-.017v.017h-.184v.017h-.017v.017h-.068v.017H95.83v.017h-.051v.017h-.051v.017h-.05v.017h-.017v.033h-.017v.017H95.61v.017h-.017v.017H95.56v.017h-.051v.017h-.017v.017h-.051v.017h-.02v-.017H95.4v-.017h-.016v.017h-.017v.017h-.085v.017h-.051v-.017h-.169v-.017h-.033v-.017h-.017v.017H95v-.017h-.083v.017h-.068v-.017h-.188v-.017h-.34v-.017H94.27v.017h-.033v-.017H94.22v.017h-.085v.017h-.152v.017h-.1v.017h-.033v-.017h-.017v.017h-.152v.017h-.17v.017H93.39v.017h-.118v.017h-.085v.017H93.1v.017h-.066v.017h-.085v.017h-.085v.017H92.8v.017h-.087v.017h-.066v.017h-.051v.017h-.066v.017h-.051v.017h-.051v.017h-.051v.017h-.033v.017h-.051v.017H92.24v.017h-.033v.017h-.033v.017h-.058v.017h-.033v.017H92.05v.017h-.033v.017h-.033v.017h-.033v.017h-.017v.017H91.9v.017h-.033v.017h-.033v.017H91.8l-.017.017h-.017v.017h-.051v.017h-.051v.017h-.033v.017h-.017v.066H91.6v.017h0v.017h-.017v.017H91.6v.033h-.017v.051h-.017v.033h0v.017h-.017v.051h0v.017h.017v.066h-.017v.066h-.017v.017h-.017v.017h-.033v.017h-.026v.017H91.4v.017h-.033v.033h-.015v.017h-.017v.033h-.017v.017H91.3v.017h-.017v.051h-.017v.186H91.3v.017h.017v.017h-.033v.033h-.017v.017h.017v.033h-.034v.017h-.017v.017h.017v.051h-.033v.017h-.033v.017h-.051v.017H91.12v.017h-.034v.017h-.017v.017h-.017v.017H91v.017h-.017v.017l-.017.017h-.051v.017h-.033v.017h-.033v.017h-.024v.017h-.051v.051h-.033v.017h-.016v.033h-.033v.017h-.033v.068h-.033v.017H90.6v.017h-.017V191h-.017v.017h-.017v.017h-.033v.017h-.033v.017h-.033v.017h-.017v.017H90.4v.017h-.017v.017h-.017v.033h-.033v.033h0v.085h-.017v.017h-.033v.033h0v.017h-.017v.017h-.017v.017h-.017v.017h-.017v.017h-.017v.033h-.017v.017H90.16v.051h-.027v.017h-.017v.033H90.1v.051h-.017v.051h-.016v.033H90.05v.084h-.016v.068h0v.017h.017v.017h0v.017h0v.051h.017v.017h.017v.237H90.1v.033h.017v.033h.017v.033h.017v.017h.017v.017h.017v.017H90.2v.017h.1v.017h.119v.017h.017v.017h.017v.017h.017v.033h.017v.051h0v.017h.017v.033h.017v.033h.017v.033h.017v.017h-.017v.017h.017v.017h.017v.017h.017v.033h.017v.051h.034v.017h.017v.017h-.034v.017h-.017v.033h0v.033h0v.017h0v.017h.017v.017h-.034v.017h-.017v.017h.017v.017h-.017v.017H90.56v.017h.017v.085H90.56v.017h-.017v.017h-.017v.017h-.051v.051h0v.017h-.017v.068h.017v.017h-.017v.033h-.017v.017h-.017v.017h-.017v.017H90.39v.017h-.017v.017h-.017v.017h.017v.017h-.017v.017h-.017v.017h0v.045h-.017v.033h.017v.017h-.017v.033h-.068v.017h-.017v.017H90.22v.017H90.2v.033h-.017v.033h-.017v.066h-.017v.051h.017v.017h.017v.017h0v.017H90.2v.017h.017v.017h0V194h.017v.017h.017v.033h.017v.017h.034v.017h.017v.051h-.017v.033h-.033l.017.017h-.034v.033h-.017v.051h-.017v.017H90.2v.017h-.033v.017h-.038v.017h-.017v.017h.017v.017h-.017v.017h-.033v.017h0v.017h-.016v.017h-.033v.017h-.05v.017h-.033v.017h-.017v.017h-.017v.017H89.9v.051h-.033v.051h0v.033h-.034v.033H89.8v.033h-.017v.085h0v.068H89.8v.026h-.017v.017H89.7v.017H89.58v.017H89.5v.017h-.033v.017h-.033V195h-.023v.033h-.017v-.017h-.016v.051h-.017v.017h-.017v.017h0v.017h-.017v.017h-.017v.017h0v.033h-.033v.017h-.017v.017h0v.017h0v.017h-.017v.017h0v.017h-.033v.033h-.017v.017h-.017v.033H89.12v.017h0v.017h0v.017H89.1v.033h-.017v.017H89.07v.017h-.033v.017h0v.017h0v.017H89.02v.02h-.033v.017H88.97v-.017h-.017v.017h-.017v.017h-.017v.017h.033v.017h-.034v.051h-.084v-.017h-.022v.017h.017v.051h-.017v.017h-.033v-.017h-.017v.033h-.016v.017h-.033v-.017h-.017v.017h.017v.017h-.051v.017h-.033v.017h0v.017h-.017v.017h0v.017h-.017v-.017h-.017v.033h-.051v.017h-.051v.051h-.017V196h0v.017h-.033v.017h-.017v.017h-.017v-.017h.017v-.051h.017v-.017h-.017v-.033h0v-.017h-.033V195.9h-.033v-.017h-.159v.017h-.017v.033H88.15v.033h-.017v.017h.017V196h-.017v.017h-.016v.051H88.1v.017h-.016v.017H88v.017h0v.017h-.017v.017h-.017v-.017h-.017v.017h-.034v.017H87.88v-.013h-.033v-.017H87.8v.083h-.033v.017h-.05v.017H87.68v-.017h0v-.017h-.017v-.033H87.63v-.017h-.017v-.016H87.6v-.017h-.017v-.016h0v.017h-.024v.1h-.017v.017h-.017v.017h-.033v.017h.017v.017h0v.017h-.05v.017h-.033v-.017h-.034v.017h-.017v-.017h-.017v.017h-.017v-.033h-.017v.017h-.034v-.017H87.27v.05h-.034v.017H87.2v-.017h0v-.017h-.017v.033h0v-.017h-.017v-.017h-.017v.017h-.017v-.017H87.1v.017H87.07v-.017h-.017v.017h-.034v-.017H87v.017h-.017v.017h-.033v-.017h-.066v.017h0v.017h-.091v.051h.017v.017h-.017v.017h-.017v.017h-.017v-.017h-.017v.017h-.017v-.017h-.033v.017h0v.033h-.033v.017h-.017v-.017h.017v-.033h-.033v-.017H86.61v.017h0v-.017h-.017v-.017h-.017v-.017H86.56v-.017h-.034v-.017h-.017v-.017h-.033v.033h-.033v.017h-.017v.017h-.033v-.017h.017v-.017h-.017v-.017h-.017v-.017h-.033v-.033h-.033v.017l-.017-.017v.017h-.017v.017h-.017v.017h-.109v-.017h-.015v.017h0v-.051h-.017v-.017h-.033v.017H86.05v-.051h-.017v-.017h-.017v.017H86v-.017h-.051v.017h-.017v-.017H85.9v.017h-.017v-.017h-.017v-.051h-.017v-.019H85.83v.017h-.017v-.017H85.8v.017H85.78V196.2h-.017v-.033h.017v-.033H85.8v-.033h.033v-.017h-.017v-.033H85.8v-.033h0v-.033h-.017v-.033h-.017v-.017h-.033v-.017h-.017v-.017h-.017v-.017h-.051l-.017-.017h-.033v-.017h-.087v-.017H85.44v-.017h-.085V195.8h-.17v-.017h-.017v.017h-.051v-.017h-.1v.017h-.033v-.017h-.041v-.017h-.066v.017h-.033v-.017h-.1v-.017h-.051v.017h-.051v-.017h-.2l-.017-.017h-.034v.017h-.1v.017h-.017v-.017H84.25v.017l-.017-.017v-.017h-.016v.017h-.305v.017h-.017v.017h-.033v-.033h-.033v.017h-.017v.017h-.017v-.017h-.017v-.017h-.033v-.017h-.034v.017h-.017v-.017h-.051v.017h-.021v-.017h-.61v.017h-.2v.017h-.017v-.017h-.017v-.017h-.017v.017h0v.033h0v-.017h-.034c-.149-.008-.035.025-.2.017H82.5v.017h-.119v.017h-.017c-.149-.008-.036.026-.2.017h-.017v.017h-.136v.017h-.136v.017h-.135l-.017.017H81.64v.017h-.1l-.017.017h-.1l-.017.017h-.1v.017h-.1v.017h-.136v.017h-.1v.017h-.136v.017h-.085v.017h-.051l-.017.017h-.033l-.017.017h-.033l-.017.017h-.017v.017h-.033v.017h-.017v.017h-.017v.017h-.017v.017h-.017v.017h-.017v.01h-.017v.033H80.39v.017h0v.033h-.017v.033h.017v.068h-.033v.017H80.34v-.017h-.017v.017h.051v-.017h.017v-.017h.017v-.017h.017v-.017h.068l.017-.017h.033l.017.017h-.017l-.085.033-.017.017h-.033v.017h0v.051h.017v-.017l.017.017h.017v-.017h-.017v-.017h.017l.017.017h.017v-.017l.017.017h.017l.033-.017.017-.017.017-.017.017-.017h.017v-.017h.017l-.033.017-.017.017-.033.033h-.017v.017h-.017v.017h-.017v.017H80.46v.033h-.136v.017h-.017v.017h-.057v.017h-.017v.051h-.016v.017H80.2v.017h-.049v.017h-.017v.017h-.017v-.017H80.1v-.017h-.033v.017H80v.017h-.017v.066h-.017v.017h-.034v-.017h-.017v.017h-.051l-.017-.017h-.136v.017h-.085l.017.017h-.066v-.008h-.169v.017h-.085v.017h0v.017h-.068v.017h-.133v.017H79.09v-.019h-.017v.017h-.017v-.017h-.085v.017h-.108l-.017.017h-.084l-.017.017h-.1v.017h-.066v.017h-.017v.017h-.051v.017h-.051l-.017.017V197h.017v.017h-.017v.017h-.017v.017h-.017v.017H78.39v.017h-.017v.017h-.017v.017h-.033v.017h-.017v.033h-.017v.017h-.033v.017h-.033v.017H78.19v.033h-.021v.017h-.033v.017h-.017v.017H78.1v.017h.017v.017H78.1v-.017h-.017v.017h-.051v.033h-.017v.017h-.033v.017H77.9v.033h-.017v.017h-.017v.017h-.017v.017h-.017v.033h-.017v.033H77.8v.033h.017v.033h.017v.051h-.017v.017h-.033v.017h-.1v.017h-.051v.017h-.022l-.017.017h-.016v.017h-.066v.017h-.066v.017H77.39v.033h-.085v.017h-.085v.017h-.033v.017h-.051v.017H77.12v.017h0v.017H77.1v-.017h-.084v-.017H77v-.017h-.04v.017h-.016v-.017h-.066v-.017h-.017v-.017H76.83v.017h-.017v-.017H76.8v.017h-.017v-.017h-.017v.017h-.033v-.017h-.017v-.017h-.017v.017h-.033v-.017H76.6v-.017h-.169v.017h-.04v-.017h-.017v.017h-.1v.017h-.049v.017h-.083v.017h-.017v-.017h-.068v.017h-.017v.017h-.02v.017H76v.017H75.98v-.017h-.068v.017h-.1v.017h-.066v.017h-.088V198h-.085v.017h-.033v.017h-.033v-.017h-.068v.017h-.17v.017h-.085v.017h-.066v.017H75.1v.017h-.019v.017h-.066v.017h-.086v.017H74.9v-.01h-.051v.017h-.051v.017h-.051v.017h-.119v.017h-.033v.017h-.017v.017h-.019v.017h-.033v.017h-.017v-.017h-.017v.017h-.017v-.017h-.017v.017h-.084v.017H74.3v.017h-.066l-.017.017h-.033v.017h-.1v.017h-.066v.017H74v.017h-.017v.017H73.95v.017h-.033v.017H73.9v.017h-.017v-.017h-.017v.017h-.051v.017h-.033v.017h-.033v.017h-.017v.017H73.7v.017h-.033v.017H73.6v.017h-.051v.017h-.033v.017h-.033v.017h-.017v.017h-.017l-.017.017H73.4v.017h-.033v-.014c-.7-1.624-1.367-3.259-2.082-4.879l-.136-.322-.1-.017L71,193.432h-.033l-.066-.017-.22-.033h-.033l-.017-.033-.017-.033h.017l.051-.017v-.017l.017-.017.066-.085.017-.033.051-.051.017-.051.051-.051v-.017l.033-.051-.085-.187c-1.83-4.343-3.68-8.681-5.506-13.029l-.169-.39.085-.033q11.548-3.8,23.091-7.59l.169-.051,3.27,5.489v.017l1.406,3.186.153.338.864,1.95.694,1.593.61.3,1.1.559Zm-1.643,3.711Zm-3.678,1.338Zm5.929.983Zm-.017.017v.017h-.017v-.017Zm-6.929.254Zm0,0Zm-.051.051Zm-.1.152Zm6.387.033v.033h.017v.017h.017v.136h.017v.084h.017v.033h.066v.017h.033v.017h.067v.017h.017v-.017h.083v.017h-.017v.033h-.017v.017h-.017v.033h-.017v-.017h0v.017h-.033v-.017h0v.017H96.69v.017h-.046v.017h-.017v.017h-.016v.017h-.033v.017h-.034v.017h-.017v.017h-.033v.017h-.017v-.017h-.033v.017h-.017v-.017h0v.017H96.41v-.017h-.017v.017h-.017v.017h-.017v-.017h-.034v-.017h-.017v.017h-.017v.017h-.017v-.017h0v.017h-.066v-.017h-.033v-.017h-.05v.017h-.017v-.017h-.033v-.017h-.043v.017h-.016v-.017h.017v-.017h-.017v.017h0v-.017h-.033v.017h-.017v-.017h0v-.017H95.95v.017h-.017v-.017h-.017v.017H95.9v-.033h-.033v-.017h-.017v-.017h-.017v.017h-.017v-.051h.017v-.017h0v-.017h-.017l-.017-.017h0v.017h-.033v-.017h.017v-.017H95.8v-.017h.017v-.017h0v-.017h.051v-.017H95.9v-.017h.033v-.014h.017v-.017h0v.017h.033v-.017h.068v-.016h-.017v-.017h.017v-.017h.033v.017h.085v-.017h.068v-.017h.017v-.016h.051v-.017h.033v-.017h.033v-.017h.017v-.017h.017v-.017h.017v-.017h.017v-.017h.017v-.017h.017v-.017h.033Zm-6.421.051Zm8.538.254Zm.017.017v.017h0v-.017Zm-3.727.033h.033v.017h.033v.017h.033v.017h.017v.017h.017v.017h.017v.017h.067v.017h.017v-.017h.017v.017h.017v.017h-.017v.017h.017v.033h-.017v.017h-.017v.017h-.017v.017h-.017v.017h-.05v.017h-.017v.017h-.017v-.017h.017v-.017h-.017v.017h-.017V192.2h-.068v.017H94.93V192.2h0v-.017h.033v-.033h0v-.017h-.05v.017H94.9v.017h-.033v-.017h-.034v.017h-.017v-.017h0v-.017h-.033v.017h0v.017h-.017v-.033h0v.017h-.017v-.017h.017v-.017h-.017V192.1h.033v-.017h-.034v-.017h.017v-.017h.017v.017h.033v-.017h.017v-.017h.017v-.017h.017v-.017H94.9v-.033h.018Zm3.829.017h.017v.017h.051v.033h.017v.017h.017v.017h0v.017h-.033v.017h0v.017h-.068v-.033h-.052v-.017h-.066v.033H98.61v-.017h.017v-.033h.033v-.017h.017v-.017h.017v-.033h.051Zm-3.93.051v.017h0v-.017Zm3.795.119Zm-5.59,0h.017v.017h.017v.033h0v.017h-.033v.017h0v.017H93v-.017h-.017v.033h0v.017H93v.017h-.017v.017h-.017V192.3h-.017v.017h-.033V192.3h0v-.017h.017v-.017h.017v-.033h0v-.017h-.017V192.2h0v-.017h.017v-.017h0v-.017h.017v.017h.017v-.017h.034Zm3.422.033Zm-3.4.033v.017h-.017v-.017Zm-2.541,1.034Zm-.017.1Zm-.255.628Zm.1.119Zm0,.033Zm-.017.017Zm-.441.508Zm-.152.254Zm-.373.2Zm-.017.017Zm-.373.508Zm-1.067.526Zm-.255,0Zm.017.017Zm.153.017Zm-.136.017Zm-.1.017Zm-.119.1Zm0,0Zm-1.22.119h.017v.017h-.017v-.013h-.017v-.017h.017v.017Zm.424.085h.017v.018h-.017Z" transform="translate(-37.87 -107.18)" fill="#1b1464"/>
    <path id="Path_65505" data-name="Path 65505" d="M148.294,135.006l-.389,1.373-.153.491,4.354,1.508,2.626.508,3.964.779.271-2.118.339-.373.033-.017,1.525-.525-.373-1.457.17-.033.407-.066,3.117,2.982v.187l-.033.779h.745v.066h.017v.017h.017v.051h.051v.033h-.017v.017h-.017v.085h-.017v.017h-.017v.017H164.9v.017h-.017v.017h-.017v.017h-.017v.017h-.019v.017h-.017v.033H164.8v.017h-.017v.017h-.017v.017h-.017v.017h-.015v.017h-.017v.017h-.017v.017h-.017v.017h-.017v.017h-.017v.033h-.017v.017h-.017v.033h-.017v.017h-.017v.051h-.017v.033h-.017v.051h-.017v.051h-.017v.153h-.017v.017h-.017v.017h.017v.017h-.017v.085l.017.017v.051h-.033v.017h-.017v.017h-.017v.017h-.017v.017h-.017v.033l-.017.017h.066v-.014h.017v.017h.017v.119h-.017v.017h.017v.068h.017v.169h.017v.085h-.017v.017h-.017v.017h-.066v.017h-.085v.017h-.051v.017h-.017v.017h-.017v.017h-.017v.017h-.02v.033h-.033V141h-.017v.017l-.017.017v.017h-.017v.017H164.1v.017h-.017v.017h-.017v.033h-.017v.017h-.017v.017h-.051v.017h-.017v.017h-.017v.017h-.017v.017H163.9v.017h-.033v.017h-.017l-.017.017h-.017v.017H163.8l-.017.017h-.017v.017h-.033v.017h-.017v.017H163.7v.017h-.033v.017h-.017v.017h-.017v.017h-.017v.017h-.017v.017h-.023v.017h-.017v.017h-.016v.017h-.033v.017h-.017v.017h0v.033h-.016v.033h-.017v.017h-.017v.017h-.017v.017H163.4v.017l-.017.017v.017h-.017v.017h-.017v.017h-.017v.033h-.017v.033H163.3v.017h.017v.017h0v.017h.017v.017h-.017v.085H163.3v.051h-.017v.051h-.017v.033h-.017v.033h-.017v.017l-.017.017v.033H163.2v.051h.017v.033H163.2v.017h-.017v.017h-.017v.092h-.017v.017h-.017v.017h-.017v.033H163.1v.033h-.017v.017h-.017v.017h-.017v.017h-.017v.033h-.017v.051H163v.051h-.017v.085h-.017v.1h-.019v.033l.017.017v.033h.017v.033h-.017v.033h.017v-.017h0v.033h-.017v.017h-.017v.033h-.017v.066h-.016v.051h0v.017h0v.033h-.017v.153h0v.033h-.016v.017h-.033v.017h-.017v.051h-.017v.017h-.017v.017h-.033l-.017.017v.033h0v.017h-.033v.033h-.1v.017h-.033v.033h-.017v.017h-.066v.033h0v.017h0v.017h0v.017h-.033v.017h-.033v.033h-.017v.017h-.017v.033h-.017v.017h-.017v.017h-.017v.017h-.017V144h-.017v.017h-.024v.017h-.017v.017h-.016v.033h-.135v-.017h-.033v.017h-.033v-.017h-.119v-.033h-.017v-.017H161.9V144h-.033v-.017h-.017V144h-.033v-.017H161.8v-.017h-.033v-.017h-.017v-.017h-.033l-.017-.017h-.033V143.9h-.017v-.017h-.033v-.017h-.033l-.017-.017h-.271l-.017.017h-.066v.017h-.051l-.017.017h-.017v.017h-.033l-.017.017h-.033v.017h-.051v-.017h-.061v-.017h-.033V143.9h-.033v-.033h-.017v-.017h-.033v-.017h-.033v-.017h-.051V143.8H160.7v-.017h-.051v0h-.033v-.017h-.033v-.016h-.119v-.017h-.017v-.016h-.017V143.7h-.033v-.016h-.017v-.033h-.017V143.6h0v-.033h.017v.017h-.017v.017h.017v-.017h.017v-.017h-.017v-.051h-.017v-.068h.017v-.017h.017v.017h.017v-.017h.017v-.017h.017v-.068h.017v-.017h.017v-.017h.017v-.017h.017v-.1h0v-.084h.085v-.033h.017v-.033h0v-.021h.017V143h.017v-.051h.017v-.033h.017v-.033h.017v-.033h.017v-.118h.017V142.7h.017v-.033h.017v-.033h.017v-.017h.05l.017-.017v-.017h.033v-.017h.033v-.033h.017V142.5h.017v-.033h.017v-.077h.017v-.033H161v-.017h-.017v-.05H161v-.017h-.017v-.033h-.066v.033h-.023v-.017l-.017-.017h.017v-.068h-.017v-.017h-.016v-.017h-.033v-.017H160.8v-.017h-.033v-.017h-.051v-.017h-.051v-.017h-.066v-.017h-.017v-.051h-.017v-.017h-.017v-.017h-.017v-.033h-.017V141.9h-.051v.017h-.051v.017h-.033v.017h-.068v.033h-.017V142h-.022v.017h-.017v.017h-.084v.017h-.051v.017H160.1v.017h-.017v.033h-.017v.017h-.017v.017h-.017l-.017.017H160l-.017.017h-.017l-.017.017h-.017v.017h-.051v.017h-.033v.017h-.017v.017h-.033v.017h-.033v.017h-.017v.017h-.033v.017h-.051l-.021.016h-.033v.017h-.017v.017h-.033v.017h-.033l-.017.017h-.017v.017h-.017v.017h-.017v.017h-.017v.017h-.017v.033H159.4v.066h-.017v.017h.017v.033h.017v.051H159.4v.051h-.017v.033h-.017v.033h.017v.033h-.017v.017h-.017v.033h-.017v.033h.017v.017h.017v.017h-.017v.085h-.017v.051h.017v.066h-.017v.033h0v.017h-.017v.017h-.05v.017h-.017v.017h-.033v.033H159.2v.017h-.068v.017h-.068v.017h-.051v.017h-.038v.017h-.051v.017h-.033v.017h-.051v.017h-.033v.017h-.033v.017h-.033v.017h-.017l-.017.017h-.017v.017h-.033v.017h-.017v.017h-.033v.017h-.017v.017h-.017v.017h-.017v.017h-.033v.017h-.017v.017h-.017v.033h-.017v.017h-.017v.033h-.017v.017h-.017v.051h-.017v.119h-.017v.017h.017v.085h.017v.033l.017.017v.017h.017v.017h.033v.017h.066v.017h.05v.017h.033v.033h-.017v.033h-.017v.033h-.017v.051h-.017v.017h-.017v.017h-.017v.067h-.017v.017H158.5v.017h-.017v.017h-.033v.017h-.033v.017h-.033v.017h-.033v.017h-.017l-.017.017H158.3v.017h-.033v.017h-.033v.017h-.033v.017h-.017v.017h-.033v.017h-.017v.017h-.033v.017h-.033v.017h-.017v.017h-.033v.017h-.017v.017h-.033v.017h-.017v.017h-.033v.017h-.017v.017h-.017v.017h-.017v.017h-.017v.017h-.017v.017h-.017v.017H157.8v.017h-.017v.017h-.017v.017h-.017v.017h-.017v.017h-.017V145h-.031v.017h-.017v.051h-.016v.017h0v.033h.017v.017h-.017v.033h-.017v.017h-.016v.017h-.017v.017h-.016v.017h-.017v.017h-.017v.017h-.017v.017h-.017v.033H157.5v.017h-.017v.068h-.017v.085h-.017v.033h-.017v.068h-.017v.033h.017v.068h0v.033h.017v.135h.017v.017h.017v.017h.017v.017h.033v-.015h.017v.017h.017v.1h-.017v.152h-.017v.068h-.017v.068H157.5v.085h-.017v.033h-.017v.051h-.017v.066h.017v.017h.017v.051h-.017v.051h-.017v.085h-.017v.033h-.017v.051H157.4v.066h-.017v.033h.017v.2h-.017v.033h-.017v.017h-.017v.017h-.017v.033h-.017v.017H157.3v.033h-.017v.033h-.017v.033h-.017v.066h-.017v.1h-.017v.066H157.2v.033h-.017v.017h-.017v.033h-.017v.033h-.017v.033h-.017v.033H157.1v.033h-.017v.033l-.017.017v.051h.017v.017h.017v.033l-.017.017v.051h-.019v.017l-.017.017v.033h-.016v.051h-.017v.033h-.016v.033h-.017v.033h-.017v.033h0v.051h-.017v.017h-.017v.017h-.017v.017h-.017v.033h-.017v.017h-.017v.051h-.017v.051h.017v.033h-.017v.051h-.017v.017h-.017v.017h-.017v.017h-.017v.017h-.017v.017h-.017v.017h-.017v.017h-.017v.017h-.017v.017h-.017v.017h-.017v.033h-.017l-.017.017v.017H156.6v.017h-.017v.017h-.017v.017l-.017.017-.017.017v.017h-.017v.017H156.5v.017l-.017.017V149h-.019v.033h-.017v.017l-.017.017v.017l-.017.017v.033l-.017.017v.051h-.017v.254h.017v.051h.034v-.017h.017l.033-.033h.1l.017.017h-.051v-.017h-.017c-.066,0-.033-.017-.085.033h-.015v.017h-.017v.051h.017v.033h.017v.033h.017v.017h.033v.017h.068l.017-.017h.017v-.085h.017v.051H156.6v.017h.017v.017h.017v.017h.017v.017h.016v.017h0v.017h0v.017h.034v-.017h.017v.014h.033v-.017h-.017v-.051h.017v-.119h.033v-.051h0v.017c.008.149-.026.035-.017.2v.017h-.017v.033h-.017v.017h-.017v.153H156.7v.017h-.017v.033h-.017v.033h-.017v.1h.017v.033h0v.085h-.017v.033h-.017v.033h.017v.017h-.017v.033h-.017v.051H156.6v.068h-.017v.066h-.017v.033l-.017.017v.051l-.017.017v.2h.017v.017h.017v.084h.017v.017h.017v.017h.033v.017h.017v.033l.017.017v.017h.033v.017h.017v.051h0v.017h.017v.066h.017v.051h.017v.033h.033v.017h.017v.033h.017v.017h.017v.051h.017v.033h.017v.017h.033v.033l.017.017h0v.068h.017v.033h.017v.033h.017v.068H157v.051h0v.017h.017v.085h0v.017h.017v.119h-.009v.152h-.017v.051h-.017v.033h-.017v.033h-.017v.068h-.017v.051h-.017v.033h-.017v.1h-.017v.1h-.017l.017.017v.066h-.017l.017.017h-.017v.051h.017v.3h0v.017h.017v.085h.017v.033h.017v.017h.017v.017l.017.017v.051l.017.017h0v.085h.017v.051h.017v.068h.017v.033h.017v.033h.017v.033h.017v.017h.017v.033h.017v.017h.017v.017h.066v-.017h.085v.017h.017v.033h.017v.017h.017v.017h.017v.051h0v.1h-.017v.068h-.017v.066h-.017v.407h.017v.033h.017v.033h.017v.017h.033v.017h.017v-.017h.033v.1h.017v.017h0v.017h0v.017h0v.051h0v.085h.017v.033h.017v.033h.017v.033h.017v.017h.017V155h.017v.033h.051v.017h.051v.033h0v.017h-.033v.017h-.017v.017H157.6v.017h-.017v.017h-.033v.017h-.033v.017H157.5v.017h-.017v.017h-.051v.017h-.017v.017h0v.051H157.4v.017h-.033v.017H157.3v-.017h-.119v.017h-.153v.017h-.085v.017h-.068v.017h-.017v.017h-.017v.017h-.017v.017h-.017v.017h-.033v.033h-.033v.017h-.033v.017h-.051v.017h-.017v.017h-.051v.017h-.033v-.017h-.017v.017h-.085v.049h-.033v-.017H156.4v.017h-.271v-.017h-.051v.017H155.3v-.017h-.289v.017h-.033v-.017h-.034v.017h-.017v-.017h-.033v.017h-.305v.017h-.254l-.017.017h-.152l-.017.017H154v.017h-.119v.017h-.136v.017h-.119v.017h-.1v.017h-.1v.017h-.085v.017h-.066v.017H153.2v.017h-.066v.017h-.066v.017h-.051v.017h-.051v.017h-.051v.017h-.068v.017h-.085v.017H152.7v.017h-.068V156h-.051v.017h-.051v.017h-.068v.017h-.06v.017h-.066v.017h-.066v.017h-.051v.017h-.068v.017h-.085v.017h-.084v.017h-.066v.017h-.051v.017H151.8v.017h-.066v.017h-.085v.017h-.051v.017h-.068v.017h-.051v.016h-.051v.017h-.033v.017h-.033l-.017.017h-.033v.017h-.033v.017h-.051v.017h-.051v.017h-.033v.017h-.061v.017h-.033v.017h-.051v.017h-.033v.017h-.033v.017H150.9v.017h-.017l-.017.017h-.017v.017h-.051v.017h-.033v.017h-.051v.017h-.033v.017h-.033v.017h-.051v.017h-.051v.017h-.051v.017h-.051v.017h-.055v.017h-.033l-.017.017H150.3v.017h-.033v.017h-.033v.017H150.2v.017h-.051v.017h-.033v.017H150.1l-.017.017h-.017v.017h-.033v.017h-.017v.017h-.033v.017h-.033v.016h-.017v.017H149.9V157h-.033v.017h-.017v.017h-.033v.017h-.029v.017h-.017v.017h-.016v.017h-.033v.017h-.017v.017h-.016v.017h-.033v.017h-.017v.017h-.033v.017h-.017v.017h-.017v.017h-.033v.017h-.017v.017h-.017v.017h-.017v.017h-.033v.017h-.017v.017h-.017v.017h-.017v.017h-.017v.033h-.017v.017h-.017v.017h-.017v.017h-.017v.017H149.3v.033h-.017v.017h-.017v.033h-.017v.017h-.017v.017h-.017v.017H149.2v.033h-.017v.017h-.023v.017h-.017v.017h-.016v.017h-.017v.017H149.1v.017h-.017v.017h-.017v.017h-.017v.017h-.017v.017h-.017v.017l-.017.017v.017h-.017v.017h-.017v.017h-.017v.017h-.017v.033h-.017v.017h-.017v.017h-.017V158h-.017v.017h-.017v.017h-.017v.033h-.017v.017h-.017v.017h-.017v.033h-.017v.017h-.017v.033h-.017v.017h-.017v.017h-.017v.017h-.017v.033h-.017v.017h-.017v.017h-.017v.017H148.6v.017h-.017v.017h-.017v.017h-.017v.017h-.033v.017h-.02v.017h0v.033h-.017v.017h-.016v.033h-.017v.017h-.016v.033h-.017v.033H148.4v.033h-.017v.051h-.017v.051h-.017v.051h-.017v.033h-.017v.033H148.3v.033h-.017v.033h-.017v.051h-.017v.066l.017.017v.033l.017.017v.2h.017v.186h.017v.169H148.3v.033l-.017.017v.017h-.017v.033h-.017v.033h-.017v.033h-.017v.051H148.2v.033h-.017v.017h-.017v.033h-.017v.033h-.017v.051h-.017v.186h0v.017h-.017v.017h0v.119h.017v.017h0v.135h-.017v.068h-.017v.085h-.017v.085h-.017v.085h-.017v.017h-.017v.033h-.017v.017h-.017v.033h-.017v.085h-.017v.033h-.017v.017h-.02v.033h-.017v.033h-.016v.033h-.017v.017h-.016v.017h-.017v.033h-.016v.033h-.017v.017l-.017.017v.017h-.017v.033h-.017v.017h-.017v.033l-.017.017v.068l-.017.017v.051h-.017v.017l.017.017h-.017v.051h-.017v.033h-.017v.051h.017v.017h0v.017l-.017-.017v.017h-.017v.017H147.6v.017h.017v.066H147.6v.017h.017v.033h.017v.051h.017v.169h.017v.068h-.017v.033h-.033v.017h-.051v.017H147.5v.017h-.033v.017h-.017v.017h-.017v.017h-.017v.033H147.4v.033h-.017v.017h-.017v.033h-.017v.017h-.017v.017H147.3v.017h-.056v.017h-.033v.017h-.033v.017h-.033v.017h-.033v.017h-.033v.017h-.017v.017h-.017v.017h-.017v.017h-.05v.017h-.033v.017h-.017v.017H146.9v.017h-.033v.033h-.033v.017h-.017v.017H146.8v.017h-.017v.017h-.017v.033h-.017v.017h-.017v.017h0v.2h-.017v.017h-.017v.017h-.017v.017h-.017v.017h-.017v.017H146.6v.017h-.016v.017h-.017v.017h-.016v.033h-.017v.017H146.5v.017h-.033v.017h-.033v.033h-.017v.017H146.4v.017h-.017v.017h-.017v.017H146.3v.017h-.033v.017h-.033v.017h-.017v.017H146.2v.017h-.017v.017h-.017v.017h-.017v.017h-.017v.066h-.017v.017h0v.051H146.1v.017h.017v.033h.017v.033h.017v.051h-.017v.051l-2.27-3.558-1.1-.559-.61-.3-.694-1.592-.864-1.95-.153-.339-1.406-3.185v-.017l-3.27-5.49.033-.1.017-.033.119-.356.066-.22c.1-.339.208-.649.322-.983l.066-.2.033-.136.033-.1c.24-.725.478-1.465.711-2.186l.068-.2.051-.169.066-.2c.623-1.937,1.263-3.873,1.881-5.811l.051-.136v-.017l3.642-.508,3.829-.559,1.186-.169.423-.051-.085.237m16.2,5.49Zm.033.085Zm-.017.051Zm-.271.458v.084H164.2v.051h-.017v.017h-.033v.027h-.033v-.017h.017V141.2h0v-.017h.017v-.051h.017v-.017h.017V141.1h.017v-.017h.017v.017Zm-4.148,1.163h.017v.017h.068v.085h.017v.051h.017v.033h-.017v.017h-.033V142.4h-.017v-.017H160.1v-.017h-.017v-.017h-.016v-.017h-.017v-.085h0v-.017h.017Zm.779.085v.033h-.017v.051h-.017v.068h.017v.033h-.017v.033H160.8v-.136h0v.033h.017v-.051h.017v-.051h.017V142.3Zm-.83.066v.017h0v-.017h0Zm.83.033Zm-.017.017Zm-.017,0h.017v.033h-.017Zm.066.017Zm-.017.017h.017v.051h-.017v.051h-.017v-.119h.017v.017Zm-.051.085Zm-.017.017Zm.068,0Zm-.085.068Zm-.1.066v.017h.017v.017h-.017v-.033h0Zm-.595.2v.033h-.013v-.017h.017Zm-.017.051Zm-2.792,5.7h.017v.017h-.017Zm.441,6.438v.017h0v.017h-.033v-.017h.017v-.017Zm-10.639,7.575v.017h0Z" transform="translate(-85.132 -82.468)" fill="#1b1464"/>
    <path id="Path_65506" data-name="Path 65506" d="M224.192,100.339h.017v.051h.017v.017h.017v.033h.017v.033h.017v.085h.017v.033h0v.017h.017v.033h.017v.033h.017v.017h.017v.017h.017v.017h.017v.017h.017v.017h.017v.017h.033v.017h-.018v-.017h-.017v-.017h0v.017h.017v.017h.017v.017h.051v.033H224.5v.033h.017v.051h.017v.033h.017v.033h.017v.033h.017v.033h.017v.033h.017v.033h.017v.033h.017v.051h.017v.033h.017v.033h.017v.017h0v.017h.017v.017h.017v-.017h.017v.033h.033v.017h.017v.017h.051v.017h.017v-.017h.1v.017h.017v.017h.066v.017h.017v.017h.017v.051h.017v.051h.017v.033h.017v.051h.017v.033h.017v.017h.017v.017h.017v.033h.017v.017h.017v.017h.119v.017h.017v.017h0v.017h.017v.017h-.017v.051h.017v.066h.017v.017h.017V102h.033v.033h.033v.017h.017v.017h.033v.017h.017l.017-.017h.017v.017l-.017-.017v.033h.017v.017h.033v-.033l.017.017h0l-.017.017v.017h.033v.017h.017v.017h.034v.017h.033v.033h.017v.017h.017v.017h.017v-.017h.017v-.017h.017V102.2h0v.017h-.017v.017H225.8v.017h0v.017h.017v.017h.017v.017h.017v.017h.017v.017h.017v.017h.033v.017h.017v.017h.017v.033h.033v.017H226v.017h.017v.017h.017v.017h.017v.039h.017v.017h.033v.017h.017v.017h.017v.017h.033v.017h.017v.017h.017v.017h.017v.017h0v.033H226.2v.017h.017v-.033h.017v-.017h.033v.017h.033v.017h.033v.017h.017v.017h.017v.017h.033v.017h.033v.017h.017v.017h.017v-.017h.085v.017h-.017v-.017h-.051v.033h.05v.017h-.017v.017h.017v.017h.017v.017h.033v.017h.017v.033h-.017v.033h-.033v-.017h-.017v-.017h-.017v.017h-.051v-.017h-.017v.017h-.017v.017h-.017v-.017h.017v-.033h.017v-.017h.017v-.033h.017v-.017h-.033v.017h-.017v.017h-.017v.017H226.4v.017h-.017v.017h-.017v.017h0v.033h.051V103H226.4v.017h-.033v.017h.066v.017h-.017v.017H226.4v.033l.017-.017h.017v-.033h.033v-.017h.068v.017h.017v.033h0v-.033h0v-.017h-.017v-.017h.066V103h.017v-.017h.017v-.033h-.017v-.033h.017v-.033h.051v.017h.017v-.017h.017v.017h.305v.017h.017v.017h.169l.017.017h.237v.017h.068v.017h.066V103h.033v.017h.051v.017h.033v.017h.033v.017h.068v.017h.051v.017h.017v-.017h.033v.017h.068v.017h.085v.017h0v.05h-.017v.017h-.017v.017h.017v.033h-.018v.033h-.017v.017H228v.017h-.017v.017h-.017v.017h-.017v.066h.034v.017h.033v.017h.017v.017h0v.017h.068v-.033h.017v.017h0v.017H228.1v.017h0v.033h-.033v.017h.017v-.017h.034v.017h.1v-.017h.033v-.017h.033V103.5h.034v-.017h.033v-.017h0v-.017h-.017l-.017-.017h-.084v-.017h-.017V103.4h-.017v-.033h-.017v-.033h0v-.017h-.017V103.3h-.017v-.017h-.017v-.017h-.017v-.017h-.017v-.017h-.017v-.016h-.017V103.2h.033v-.016h0v-.033h.016v-.033h.017v.017h.066v.017h.068v.017h0v.016h.017v.017h.017v.017h.017v.017h-.017v.017h0v-.017h-.012v.017h.033v.017h.017v-.033h.016v.033h.017v-.017h.017v.017h.085v-.017h.017v-.017h-.017v-.018h.017V103.2h-.017v-.016h-.136v.017h.017v.017h-.033V103.2h0v-.033H228.3v-.017h.051v-.017h.051v-.016h.051V103.1h.118v.017h.017v.017h.017v.017h-.017v.068h.017v.051h.017v.066h.017v.051h.017v.033h.017v.017h.033v.017h.017v.017h.017v.017h0v.017h.017v.051h.017v.033h.017v.017h.017v.033h.017v.066h.017v.066h0v.033h.017v.084h.017v.017h.017v.066h0v.017h.017v.033h-.017v.017h-.017v.017h-.033v.033h-.017v.017h-.017v.085h-.017v.051h-.017v.033h-.017v.152h.017v.033h.017v.017h.017v.085h-.017v.051h-.017v.051h-.017v.119h.017v.017h.017v.017h.017v.017h0v.1h-.017v.017h.017v.085h.017v.051h-.017v.051h-.017v.051h-.017v.066l-.017.017h0v.051h-.017v.051h-.017v.169h0v.017H228.7v.051h.017v.017H228.7v.017h-.033v.017h-.017v.017h-.017v.017H228.6v.017h-.017v.017h-.017v.017h-.017v.017h-.017v.017h-.017v.017H228.5v.031h-.017v.017h-.017v.017h-.017v.017h-.017v.017h-.017v.033H228.4v.051h.033V106h-.017v.017H228.4v.033h-.017v.033h-.017v.017h-.019v.017h-.017v.017h-.016v.033H228.3v.017h-.033v.017h-.017v.017h-.017v.017h-.017v.017h-.017v.017h-.017v.033h-.017v.017h-.017v.033h-.017v.017h0v.033h-.017v.033h-.017v.017h-.017v.033h-.017v.017h-.017v.017h-.017v.017h-.017v.033h-.017v.033h-.017v.051h-.017v.017h-.017v.017h-.017v.017h-.017v.017h-.017v.017h-.017v.017h-.017v.017h-.017v.017h-.017v.017H227.8v.017h-.017v.033h-.017v.033h-.017v.033h-.017v.017h-.019V107H227.7v.051h-.016v.1h.017v.017h.017v.017h0v.033H227.7v.066h-.017v.066h-.017v.051h-.016v.033h-.017v.017h-.017v.033H227.6v.017h.017l-.017.017h0v.066h-.017v.033h-.017v.033h-.017v.017h-.017v.033h-.017v.051H227.5v.033h.017v.017h.017v.017h.017v.033h.017v.068h-.017v.033h-.017v.033h-.017v.033H227.5v.017h-.017v.017h-.033v.017h-.017v.017h-.017v.017h-.033v.017h-.017v.017h-.017v.017h-.017l-.017.017H227.3v.017h-.017v.017h-.017v.017h-.017v.017h-.017v.033h-.017v.017h-.017v.017h-.017v.017h-.017v.017h-.017v.033h-.021v.017h-.017v.033h-.016v.017h-.017v.033h-.017v.017h-.017v.017h-.016v.033h-.017v.017h-.017v.033h-.017v.051h-.016v.017h0v.033h.017v.017h.017v-.051h0v.068h.017v.051h-.017v.017h-.017v.017h-.017v.017h-.017v.017h-.017v.017h-.017v.017h-.017v.017h-.033v.017l-.017.017v.017h-.017v.017H226.8v.017h-.017V109h-.017v.017h-.017v.017h-.017v.033h-.017v.017H226.7v.017h-.017v.017h-.017v.017h-.017v.017h-.017v.017h-.017v.017H226.6v.017h-.017v.017h-.017v.017l-.017.017v.017h-.017v.017h-.017v.017h-.021v.017h-.017v.033h-.016v.017h-.017v.017h-.016v.033h-.017v.017H226.4v.033h-.017v.033h-.017v.051h-.017v.033l-.017.017v.051h-.017v.1h.017v.017h.017v.085h-.017v.051h-.017v.033h-.017v.033h-.017v.033h-.017v.017h-.017v.033h-.017v.017h-.017v.033h-.017v.017h-.017v.033h-.017v.033h-.017v.033h-.017v.051h-.017v.051h.017v.017h.017v.051h-.017v.033h-.017v.033h-.017v.017h-.017v.033h-.017v.033h-.017v.033h-.017v.017H226v.033h-.017v.017l-.017.017v.017h-.017v.017h-.017v.017h-.017v.017H225.9v.033h-.017v.033h-.02v.033h-.017v.051h-.016v.051h-.017v.033H225.8v.017h-.017v.051h-.016v.033h-.017v.017h-.017v.017h-.017v.033H225.7v.033h-.017v.017h-.017v.017h-.017v.017h-.017v.033h-.017v.017H225.6v.017h-.017v.033h-.017v.051h-.017v.066h.017v.017h-.017v.017h-.017v.017h-.017v.017H225.5v.017h-.017v.033h-.017v.017h-.017v.033h-.017v.017h-.017v.017l-.017.017v.017h-.017v.017h-.017v.017h-.017v.033h-.017v.017h-.017v.017h-.017v.033h-.017v.068h-.017v.068h.017v.017h.033v.017h.017v.017l.017.017h-.017v.051h-.017v.017h-.017v.033h-.02v.017h-.033v.017h-.017v.017h-.033v.017h-.016l-.017.017h-.033v.017h-.033v.017h-.017l-.017.017h-.017v.017h-.051v.017h-.033v.017h-.033v.017h-.033v.017h-.033v.017h-.033v.017h-.033v.017h-.033v.017h-.033v.017h-.051v.017h-.033v.017h-.033v.017h-.061v.017h-.051v.017h-.033v.017h-.051v.017h-.033v.017h-.051v.017h-.033v.017h-.033l-.017.017h-.033v.017h-.033v.017h-.033v.017h-.033v.017h-.017v.017h-.017v.017h-.033v.076h-.017v.017h-.017v.017h-.017v.017h-.017v.017h-.026v.017h-.033v.017H223.9v.017h-.016v.017h-.017v.017h-.033v.017h-.017v.017H223.8v.017h-.017v.017l-.017.017h-.017v.017h-.017v.017h-.017v.017h-.033v.017h-.017v.017h-.033v.017h-.017v.017H223.6l-.017.017h-.017v.017h-.017v.017h-.017v.017h-.017v.017H223.5l-.017.017h-.017v.017h-.017v.017h-.017v.017h-.033v.017h-.017v.017h-.017v.017h-.017v.017h-.033v.017h-.022v.017h-.017v.017h-.016v.017h-.017v.018h-.016l-.017.017h-.017v.017h-.017v.017h-.017v.017h-.033v.017H223.1v.017h-.017v.017h-.017v.017h-.017v.017h-.017v.017h-.017v.017H223v.017h-.033v.017h-.017v.017h-.017v.017h-.017v.017H222.9v.017h-.017v.017h-.017v.017h-.017v.017h-.017v.033h-.017v.017H222.8v.017h-.017v.017h-.017v.017h-.017v.017h-.017v.017h-.017v.017h-.021v.017h-.017v.017h-.016v.033h-.017v.033h-.016v.017h-.017v.017h-.016v.017h-.017v.021h-.017v.033h-.017v.017h-.017v.017h-.017v.017h-.017v.033h-.017v.033h-.017v.017h-.017v.017h-.017v.033h-.017v.017h-.017v.017h-.033v.017h-.017v.017h-.017v.017h-.017v.017h-.017v.017h-.017v.017h-.017v.017h-.033v.017h-.017v.017h-.017v.017h-.033v.017h-.017v.017h-.017v.017H222.1v.017h-.017v.017h-.022v.017h-.017v.017h-.016v.017h-.017v.017H222v.017h-.017v.033h-.016v.017h-.017v.033h-.017v.017h-.017v.017H221.9v.017h-.017v.017h-.017v.017h-.017v.033h-.017v.017h-.017v.017H221.8v.017h-.017v.017h-.017v.033h-.017V115h-.017v.017h-.017v.017h-.017v.033h-.017v.017h-.017v.017h-.017v.017h-.017v.017h-.017v.017h-.017v.017h-.017v.033h-.017v.017h-.017v.033h-.017v.033h-.017v.017h-.017v.033h-.017v.017h-.017v.033h-.02v.033h-.017v.017H221.4v.033h-.017v.033h-.016v.017h-.017v.033h-.017v.017h-.017v.033H221.3v.017h-.017v.033h-.017v.017h-.017v.033h-.017v.017h-.017v.017H221.2v.033h-.017v.033h-.017v.033h-.017v.119h-.763l.033-.779c.046-1.258.122-2.524.169-3.778l-.288-2.1.779.491.948.61.424-.424.237-1.474.017-.033-.271-.983.407-.322.39-.322-.525-1.034-.033-.525-.033-.727-.491-.712.254-.2.745-.491.475.153.033.22.322.1.051-.186v-.017l.068-.2-.017-.559-.407-.457-.033-.051-.424-.678-.254-.186-.033-.356-.017-.39.711.2.559-.423m.457.881Zm.2.187ZM228,103.092Zm.356.119Zm-.3,0h.017v.051h-.017Zm.135.187ZM221.9,118.206h.1v.017h.017l.017.017h.017v.017h.017v.135h-.017v.066h-.017v.051h-.017v.085H222v.084h-.017v.085h-.017v.085h.017v.068H222v.051h.017V119h.017v.051h.017v.017h.017v.017h.017v.017h.033v.017h.033v.017h.017v.017h.017v.017h.066v.033h0v.085h-.017v.033h.017v.033h.017v.017h-.017v.084h.017v.033h.017v.017h.017v.051h.017v.033h.033v.017h.066v.017h.017v.017h0v.033h-.017v.017H222.4v.017h0v.017h-.017v.017h-.017v.017h-.017v.017h0v.017h-.017v.033h-.051v.017h-.033v.017h-.033v.017H222.2v.017h-.051v.017h-.014v-.017h-.017v.017h-.033v.017h-.033v.017h-.033v.051H222v.017h-.033v.017h-.033v.017h-.051v.017h-.017v.017h-.033v.017H221.8v.017h-.033v.017h-.017v.017h-.033v.017H221.7v.017h-.033v.017h-.017v.017h-.033v.017h-.033v.033h-.033v.017h-.017v.033h.017v.017h-.017v.017H221.5v.017h-.029v.017h-.017v.017h-.016v.017h-.017v.017H221.4v.033h-.017v.051h-.017v.033h-.017v.051h.017v.066h-.017v.051h-.017v.017h-.017v.017H221.3v.051h-.017v.033h-.017v.017h-.017v.017h-.017v.033h-.017v.017H221.2v.017h.017v.017h.017v.017h-.017v.051h.017v.033h-.017v.033H221.2v.033h-.017v.017h.017v.017h-.017v.051h.017v.017l-.017.017h-.017v.033h-.017v.017h-.017v.033h-.017v.017H221.1v.033h-.017v.017h-.017v.017h-.017v.085h.033v.017h-.033v.017h.017v.033h.034v.033h0v.017h0v.017h-.017v0h-.017v.017h-.017v.017h-.017l-.017.017h-.033v.017h-.017v.033h-.017v.017H220.9v.017h-.021v.017h-.017v.017h-.033v.017h-.016v.017h-.033v.017h-.017v.033h-.017v.051h-.033v.033h-.017V122h-.017v.033h-.017v.033h-.017v.068h-.033v.017h-.017v.017h-.033v.017h-.033v.033h-.051v.017h-.017v.017h-.033v.017h-.033v.017h-.051v.017h-.033v.017h-.033v.017h-.033v.022h-.027v.033H220.2v.017h.017v.033h-.033v.033h-.017v.017h-.016v.017h-.1v.017h-.033v.017H220v.017h-.017V122.5h-.017v-.033h0V122.4h-.017v-.017h-.017v-.051h.017V122.3h.017v-.047h-.017v-.033h-.017V122.2h.033v-.051h-.017v-.017h.017v-.017h-.017V122.1h-.017v-.033h-.017v-.017h0V122h-.017v-.085h.017v-.066h-.017v-.017h-.017v-.017h.017V121.8h0v-.066h-.017v-.085h.017v-.023h.017v-.066h-.017v-.033h.033v-.051h.017v-.187h-.017v-.068h.017v-.051h-.017v-.033h.017v-.066h.033v-.017h.017v-.033l.017-.017v-.017h.017v-.023h.033v-.033h.017v-.051h.033v-.033h.017V120.8h.054v-.017h.017v-.017h.033v-.017h.017v-.017h.017v-.017h.033V120.7h.017v-.017h.017v-.066h-.017v-.033h.017v-.033h.017v-.017h.033v-.017h.017V120.5h.033v-.017h.017v-.033h.017V120.4h.033v-.017h.017v-.017h.017v-.023h.017v.017h.017v.017h.017v.017h.017v.033h.017v.017h.034v-.017h.1v.017h.087v-.017h.017V120.4h.017v-.033h.05v-.017h.033v-.033h.017V120.3h.017v-.017h.017v-.049h.017v-.017h-.017v-.016h.017v-.068h.017v-.017h0V120.1h.033v-.033h.017v-.033h-.017v-.051h-.017v-.1h.017v-.051h.017v-.1h0v-.1h.017V119.6h.017v-.033h.017v-.033h.017V119.5h.017v-.017h.017v-.017h.017v-.033h.016V119.4h.017v-.017h.017v-.017h.017v-.017h.017v-.033h.017v-.033h.017v-.066h.017v-.033h.017l.017-.017h.017v-.051h.017V119.1h.017v-.033h.017v-.017h.017v-.017h.017v-.017h.02v-.033h.017v-.031h.017v-.017h.033v-.016h.033V118.9h.017v-.016h.017v-.017h.05v-.033h0v-.119h-.017v-.033h.017v-.051h.017V118.6h-.033v-.017h.017v.017h.017v.017h.017v-.033h.017v-.066h-.033V118.5h0v.017h.033V118.5h0v-.017h0v-.017h.017v-.017h0V118.4h.017v-.085h-.017v-.033h-.017v-.023h.017v-.017h.051v-.016h.017v-.017h.033v-.017h.017v.017h.017Zm-.407.066Zm-.22.576v.033h-.017v.033h-.017v.017l-.017.017v.017H221.2v.017h-.017V119h0v.017h-.033v.017h-.068V119h.017v-.017h.017v-.017l.017-.017v-.017h.017v-.015h.017V118.9h.017v-.016h.017v-.017h.017v-.016h.017v-.017h.033Zm.966.271v.017h0Zm-1.388.915v.066h.017v.017h.016v.017h-.016v.033h-.017v.017h-.033v.017H220.8v.017h-.019v.017h-.017v-.119h.017V120.1h.017v-.066l.017-.017v-.033h.017v-.017h.017v-.017h0v.033h-.017V120h.017v.017h-.017v.017h.017Zm-.2.22Zm-.017.017Zm-.085,0Zm.033.033v.017h0Zm-.017.017Zm.068.051Zm-.694.322Zm-.152.322h.017v.017h-.017Zm.118.474v.017h-.017l.017-.017Zm.017.847Zm.051.2Z" transform="translate(-141.378 -59.424)" fill="#1b1464"/>
    <path id="Path_65507" data-name="Path 65507" d="M203.286,92.015l.254.2.17-.152.407-.085.085.1.255.339.017.017.1.051.2-.034-.017-.017V92.4l-.017-.034h.034l.136-.034h.051l.051.187.56-.017.254-.017.085.644.017.1.678.424.085.1.271.288.2.22.119.136.085.17.118.186.356.085.017.39.034.356.254.186.423.678.034.051.407.457.017.559-.068.2v.017l-.051.186-.322-.1-.034-.22-.474-.152-.746.491-.254.2.491.711.034.728.034.526.525,1.034-.39.322-.407.322.271.983-.017.034-.237,1.474-.423.423-.949-.61-.779-.491.288,2.1v.1l-.017.068v.3l-.1,2.152-.051.966-3.117-2.982-.407.068-.17.034.372,1.457-1.524.525-.034.017-.153-.949-.186-1.254-.051-.356v-.017l.322-.441-.339-.982-.017-.034h-.576v-.153l.119-.152.119-.17-.237-.424-.406-.8-.407-.949-.034-.034-.491-.508-.051-.051-.2.085-.2.068-.339.085-.085-.254.322-.661.373-.424,1.236-1.44v-.237l-.372-.474.356-.881v-.356l.441-.491.119-.356.1-.288-.22-.186-.051-.051h0l.254-.136.1-.186-.136-.152.068-.085-.135-.169-.186-.356-.034-.322L200,94l.051.068.1-.068v-.136l.356-.22h.44l.1-.068.237-.17.119-.051.135-.034.068.034.474-.085.153-.237L202.32,93l.2-.068h.017l.034-.017h.017l.2-.051v-.017l.017-.068-.118-.051-.017-.034-.017-.017-.2-.068-.034-.271.034-.2.017-.1.271-.017.17-.051v-.017l.254-.17.119.237" transform="translate(-126.3 -53.709)" fill="#1b1464"/>
    <path id="Path_65508" data-name="Path 65508" d="M184.437,85.317l.017.017.085-.017h.1l.068.017h.051l.017.017.085.119h.017l-.068.067.051.2.22.2.237.2-.068.271.254.22-.051.068.085.305.051.017.1.017.1.119-.135.034.085.153.119.1-.271.017-.017.1-.034.2.034.271.2.068.017.017.017.034.119.051-.017.068V88.3l-.2.051h-.017l-.034.017h-.017l-.2.067-.085.034-.152.237-.475.085-.068-.034-.135.034-.119.05-.237.17-.1.068h-.441l-.356.22v.136l-.1.068-.051-.068-.508-.119.034.322.186.356.136.169-.068.085.136.152-.1.186-.254.136h0l.051.051.22.186-.1.288-.118.356-.441.491v.356l-.356.881.372.475v.237l-1.237,1.44-.373.424-.322.661.085.254.339-.085.2-.068.2-.085.051.051.491.508.034.034.407.949.407.8.237.424-.119.169-.119.152v.153h.576l.017.034.339.982-.322.441v.017l.051.356.186,1.254.152.949-.339.373-.271,2.118-3.964-.779-2.626-.508-4.354-1.508.152-.491.39-1.373.085-.237v-.136l.576-5.761v-.1l.017-.051.474-.542.017-.068.017-.356.085-1.136V93.28l-.017-.017-.22-.288.034-.186.068-.339.051-.2.356-.339.136-.119.322-.288.746-.068h.136v-.288l-.847-.779-.119-.119.339-.237.136-.373.034-.474.017-.034v-.136l-.2-.119.152-.271v-.017l.034-.051.119-.237-.034-.034-.153-.2v-.169l.237.119v-.034l-.017-.22.88-.237v-.356l.373-.254h.153l.288.22h.576l.017.2.491.338.423.17.356.068.084.084.153.034.254-.118.034-.068.017-.068.271.017.119.034.271.051.1.118.068-.05.085.033.356.034.068-.017.288-.067-.017.237.119.118h.17l.254-.22.22-.542.034-.186.288-.17.068-.271-.119-.085.034-.1.136-.136.085-.017.186-.2v-.085l.068-.034.034-.1-.034-.153.051-.3.373-.119.457.153.135-.339-.017-.3h.017l.118-.017v-.085l.593.017h.135l.017.305.1.017.051.017" transform="translate(-109.416 -49.146)" fill="#1b1464"/>
    <path id="Path_65509" data-name="Path 65509" d="M190.884,76.6v.017h-.017V76.6h.017m-.1,0v.017h0v.017h.017v.017h-.085v-.017H190.7v-.017h.033v.017h.033v-.017h0v-.017h.017Zm.051.017Zm-.017,0H190.8Zm-.068,0Zm-.1.017h.017Zm.118,0Zm-.152,0Zm.186,0Zm-.169,0Zm.033.017Zm0,0v.017h-.051v-.017h.036Zm-.153,0h-.017v.017h.034v.017h-.085v-.017h.051v-.017Zm.051,0v.017h-.017v-.017Zm.033.017Zm.678.136Zm.033-.017h0l-.017.017v-.017Zm-1.542.017h.033v.017h-.034v-.017h0Zm.119.017Zm-.017,0Zm-3.388.136v.017h.017v.017h.033v.017h.033v.017h.051v.017h.033v.017h.033v.017h.051V77.1h.017v-.017h0V77.1h0v.017h.017V77.1h.017v.017h.033v.017h.033v.017h.033v.019h.033v.017h.051V77.2h.051v.017h.066v.016h.085v.017h.051v.016h.051v.017h.033V77.3h.068v.017h.066v.017h.085v.017h.1v.017h.119v.017h.169V77.4h.2v-.017h.085v-.017h.051v-.017h.033v-.017h.033v-.017h.033V77.3h.033v-.017h.033V77.3l-.017.017h.017v.051h-.017v.017h.033v.033h.017v.033h.017v.017h.017V77.5h.017v.017h.017v.017h.017v.017h.017v.017h.017v.017h.033V77.6h.017v.017h.033v.017h.017v.017h.033v.017h.033v.017h.017V77.7h.033v.017h.017v.017h.033v.017h.033v.017h.033v.017h.033V77.8h.033v.017h.051v.017h.066v.017h.119v.017h.525v-.017h.119v-.017h.2v-.017h.39v.017c.016.231-.045.2-.051.441l-.017.221.17.017.085.033-.017.017-.017.085v.033l.068.1-.017.051-.017.051-.051.2-.017.051-.017.1.017.119v.085l-.119.017h-.017l.017.3-.135.339-.457-.153-.373.119-.051.3.033.153-.033.1-.066.033v.084l-.186.2-.085.017-.136.136-.033.1.119.085-.068.271-.288.17-.033.186-.22.542-.254.22h-.146l-.119-.119.017-.237-.288.066-.068.017-.356-.033-.085-.033-.066.051-.1-.118-.271-.051-.119-.033-.271-.017-.017.066-.033.066-.254.118-.152-.033-.085-.085-.356-.066-.423-.17-.491-.339-.017-.2h-.576l-.288-.22v-.254l-.135-.017-.44-.085.135-.322-.237-.322-.373-.322.1-.136.339-.136.186-.186-.407-.322.373-.2.966-.525.61-.3.712-.085h.033l.119.1.051.017.271-.356.339-.339.066-.1.033-.066.017-.017h.017V77.3l.017-.017.017.017v-.033l.017.017.017-.017V77.23l-.017-.017h-.017V77.2h-.017v-.017l.051-.085v-.135h.017v-.033h.017v.033Zm1.813.22Zm.085.017h.017v.017h-.017Zm-.017.017Zm.066,0v.017h.068v.017h-.033v-.017h-.051v-.017Zm-.017,0Zm-.068.017h.017v.017h-.017v-.017h0Z" transform="translate(-116.456 -43.551)" fill="#1b1464"/>
    <path id="Path_65510" data-name="Path 65510" d="M165.347,49.186v.068h.017v.051h.017v.084h.017v.05h.017v.051h.017v.068h.017v.051h.017v.033h.017v.033h.017v.051h.017v.051h.017v.033h.017v.066h.017v.051h.017v.051h.017v.033h.017v.023h.017v.051h.017v.033h.017v.051h.017v.051h.017v.033h.017v.033h.017v.033h.017v.017h.017v.017h.017v.017l.017.017V50.4l.017.017v.033h.017v.033h.017v.033h.017v.017h.017v.033h.017V50.6h.017v.059h.017v.051h.017v.068h.017v.033h.017v.051h.017v.066h.017v.085h.017v.033h.017v.085h.017v.051h.017v.033h.017v.051h.017V51.3h.017v.055h.017v.033h.017v.033h.017v.033h.017v.017h.017v.033h.017v.051h.017v.033h.017v.033h.017v.033h.017v.033h.017v.033h.017v.017h.017v.033h.017v.033h.017v.033h.017v.033h.017V51.9h.017v.033h.017v.033h.017V52l.017.017v.033h.017v.033h.017v.033h.017v.033h.017v.017l.017.017V52.2h.017v.033h.017v.033h.017v.017h.017v.033h.017v.017l.017.017v.017h.017V52.4h.017v.017h.017v.017h.017v.033h.017v.017h.017v.033h.017v.017h.017v.033h.017V52.6h.017v.017h.017v.017h.017v.033h.017v.042h.017v.033h.017v.017h.017v.016h.017v.017h.017v.033h.017v.017h.017v.017h.017v.017l.033-.017v-.017h-.017v-.017h0v.017h.017v.017l.033-.033h.017l.033-.017h0l-.033.017-.033.033h.017v.017h.017V52.9h.017v.017l.017.017v.017h.017v.017h0l-.017.017-.017-.017-.017-.017v-.017h-.017v-.016H167.1v-.033h-.017v-.017l-.033.033.017.017v.017h.017v.017h.017v.017l.017.017.017.017v.017h.017v.017l.017.017v.017l.017.017V53.1h.017v-.017h.033v-.017h.017v-.033h-.017v-.017l.017.017V53l-.017-.017v-.017h-.017v-.017l.017.017v.017l.017.017v.085h-.033v.066h.017V53.2h.017v.017l.033-.017.017-.017.017-.017v-.017l.017.017-.017-.017v.017H167.3v.017h-.017l-.017.017v.017h.017V53.2h0v.017h-.016v.033h.017v-.017h.017v-.017h.017V53.2h0v.017H167.3v.017h-.017v.033h.017v.017h.017V53.3h.017v.017h.017v.017h.017v.017h.017v.017h.017v.017h.017v.02h.017v.017h.017v.016h.017v.017h.017v.016h.017v.017h.017v.016h.017v.017h.017v.017h.017v.017h.017v.017h.017v.017h.017v.017h.017v.017h.017v.017h.017v.017h.017v.017h.017v.017h.033v.017h.017v.017h.033v.017h.017v.017h.054v.017h.017v.017h.017v.033h.017v.033h.017v.033h.017v.017h.017v.033h.017v.017l.017.017v.017h.017v.017h0v.017h.017l.017.017h0v.017h.017v.033h.017v.017h.017v.033h.017v.023l.017.017V54.2h.017v.017l.017.017v.017h.017v.017h.017V54.3h.017v.017h.017v.017h.017v.033h.017v.017l.017.017v.017h.017v.017l.017.017v.017l.017.017V54.5l.017.017h.017v.033h.017v.017h.017V54.6h.017v.017h.017v.033h.017v.017h.017V54.7h.017v.033h.017v.017h.016v.033h.017V54.8h.017v.033h.017v.025h.017v.033h.017v.033h.017v.017h.017v.033h.017v.017l.017.017v.017h.017v.017h.017v.033h.017v.017h.017v.017h.017v.033h.017v.017h.017v.017h.017v.033h.017v.017h.017v.033h.017v.017h.017v.033h.017v.017h.017v.017h.017v.033h.017v.017h.017v.017h.017v.017H169v.017h.017v.017h.017V55.5h.017v.033h.017v.033h.017v.026h.017v.033h.017v.033h.017v.017h.017V55.7h.017v.033h.016v.017h.017v.033h.017V55.8h.017v.033h.017v.017h.017v.017h.016V55.9h.017v.017h.017v.017h.017v.033h.017v.017h.017V56h.017v.017h.017v.017h.017v.033h.017v.017h.017V56.1h.017v.017h.017v.017h.017v.017h.017v.017h.017v.017h.017v.026h.017v.017h.017v.016h.017v.017h.017v.016h.017V56.3h.017v.016h.017v.017h.017v.016h.017v.017h.017v.017h.017V56.4h.017v.017h.017v.017h.033v.017h.017v.017h.017v.017h.017V56.5h.017v.017h.017v.017h.033v.017h.017v.017h.017v.017h.017V56.6h.017v.017h.033v.017h.017v.017h.017v.017h.033v.017h.017V56.7h.017v.017h.033v.017h.051v.017h.017v.017h.017v.017h.017V56.8h.017v.017h.017v.017h.017v.017h.017v.017h.017v.017h.017v.017h.033v.017h.017v.019h.017v.017h.017v.016h.033v.017h.017v.016h.033v.017h.017v.016h.017v.017h.017v.017h.017v.017h.017v.017h.017v.017h.017v.017l.017.017v.017h.017v.017h.017v.017h.017v.017h.033v.017h.017v.017h.017v.017h.017V57.3h.017v.017h.017v.017h.017v.017h.033v.017l.017-.017h0l-.017.017h.017v.017h.017V57.4h.017v.017h.033v.017h.017v.017H171v.017h.033v.017h.017V57.5h.033v.017h.033v.017h.017v.017h.033v.017h.033v.018h.033V57.6h.017l.017.017h.033v.019h.033v.017h.033v.016h.033v.017h.033V57.7h.033v.017h.033v.016h.033v.017h.051v.016h.033v.017h.033V57.8h.051v.017h.051v.017h.033v.017h.051v.017h.051v.017h.033V57.9h.051v.017h.051v.017h.033v.017h.051v.017h.051v.017h.033v.017h.068v.017h.068v.017h.051v.017h.066l.017.017h.033v.017h.051v.017h.033v.017h.051v.017h.051v.017h.051v.017h.051v.017h.051v.017h.068v.017h.085v.017h.051v.017h.051v.017h.051v.017h.084v-.016h0v.033h.05v.017h.033v.017h.051v.019h.066v.017h.068V58.4h.051v.017h.051v.016h.033v.017h.033v.016h.051v.017h.033V58.5h.051v.017h.051V58.5h.017V58.48h0V58.5l-.017.017v.017h.017l.017-.017-.017.017h.017v-.017l.017.017h-.017v.017h.017v.136l-.051.085v.017h.017V58.8h.017l.017.017v.033l-.017.017-.017-.017v.033l-.017-.017-.017.017v.033h-.017l-.017.017-.033.068-.033.066-.033.033-.339.339-.271.356-.051-.017-.119-.1h-.033l-.712.085-.61.3-.965.526-.373.2-.237-.136-.135.186-.2.051-.085.017-.169-.1-.068-.1.017-.271-.187-.068-.3-.1.033-.066.085-.186-.017-.033-.033-.051-.085.033-.1-.068v.017l-.1.22-.051.017-.085.033.033-.2-.017-.22V59.7l-.339.423-.847-.8-.457.085-.2-.475-.152-.322V58.6l-.187-.119-.116-.115-.017-.017-.033-.186-.033-.169v-.017l-.1-.068-.085-.066-.152-.051h-.271l-.119-.1.017-.017.017-.017.118-.118-.084-.066-.033-.033h-.017l-.17-.136.051-.051.2-.186-.066-.119h-.17l-.237-1.034-.271-.17v-.085l-.187-.085.119-.085.066-.1-.17-.085v-.017l.017-.085.085-.066-.068-.305v-.259l.338-.22.119-.3-.339-.288h-.288l-.254-.136-.186-.745h-.017l-.033-.153-.017-.085-.033-.085-.017-.085-.017-.033v-.051l-.033-.068v-.051l.051-.118.017-.051.186.033.033-.17V51.94a1.07,1.07,0,0,1-.066-.475v-.017c.071-.353.171-.289-.085-.661l-.017-.033.085-.051.017-.085a1.421,1.421,0,0,1,.017-.322v-.118l.017-.017h.051l.136-.033h.068l.033-.017.1-.017.051-.033.033-.033h.017L164.6,50l.033-.017v-.089h.186a1.348,1.348,0,0,0,.153-.1V49.77h.017c.07-.07.1-.2.153-.237l.017-.033-.017-.033h-.017l-.017-.017-.017-.017-.017-.033v-.017l-.017-.017-.017-.033-.017-.017V49.3l-.017-.017v-.017l-.017-.017v-.017l-.017-.033-.017-.017h.17l.033-.017v-.017h.085l.033-.017h.033l.033-.017v.066h.017" transform="translate(-103.929 -25.147)" fill="#1b1464"/>
    <path id="Path_65511" data-name="Path 65511" d="M148.159,73.089l.186.237.322-.017.051-.033.051-.033.17-.136.288.187.457.066h.033l.491-.017h.017l.17.136h.017l.033.033.084.068-.118.119-.017.017-.017.017.119.1h.271l.152.051.085.066.1.068v.017l.033.169.033.186.017.017.152.119.187.118v.017l.152.322.2.474.457-.085.847.8.338-.423v.066l.017.22-.033.2.085-.033.051-.017.1-.22V75.95l.1.066.085-.033.033.051.017.033-.085.186-.033.068.3.1.186.066-.017.271.068.1.169.1.085-.017.2-.051.135-.186.238.136.406.322-.186.187-.339.135-.1.136.373.322.237.322-.135.322.441.084.136.017v.254h-.152l-.373.254v.361l-.881.237.017.22v.033l-.237-.119v.17l.152.2.033.033-.118.237-.033.051v.017l-.153.271.2.119v.135l-.017.033-.033.474-.136.373-.338.237.119.118.847.779v.288h-.135l-.746.068-.322.288-.136.119-.356.339-.051.2-.068.339-.033.186.22.288.017.017v.017l-.085,1.135-.017.356-.017.066-.475.542-.017.051v.106l-.576,5.761v.135l-.423.051-1.186.17-3.827.56-3.642.508.051-.152.051-.136.051-.153c.261-.815.516-1.649.8-2.457l.066-.2.051-.17.051-.186c.111-.283.179-.581.288-.864l.068-.186c.341-1.25.43-.5-.2-1.694l-.085-.136c-.913-1.544-1.813-3.093-2.727-4.642l-.085-.136-.033-.066.033.017v-.02c.016-.261.162-.671.085-.881l.033-.066-.033-.066-.033-.068v-.066l.033-.066.017-.066.017-.066v-.085l-.017-.068-.051-.051a2.024,2.024,0,0,1,.017-.559l.017-.085-.033-.051.033-.066v-.066l-.017-.068v-.066l-.017-.066.017-.051.051-.051.017-.033.033-.033v-.068l-.033-.066v-.066l.017-.051.017-.051c-.04-.254.162-.422.288-.628l.051-.051.051-.066.033-.051c.264-.5.547-1,.8-1.508l.033-.051v-.033h.017l.017-.033.033-.068v.017h.017l.033.033h.017v.017h.017l.017.017.288.169.576.322,1.186-.727.066-.441.186.033.119.017v.17h.068l.628-.457-.017.2-.017.152.289-.2.237-.1.186-.066.1-.051.136-.017h.033l.068.033.066.033-.017.119.169.017.187-.085.085-.017h.017l.119-.033.085-.033-.2-.39.22-.22.051-.237.051-.1-.169-.407-.254-.559v-.017l-.136-.288.136-.017.322-.033v-.22l-.017-.033-.153-.423h.153l.033-.051V74.14l-.1-.39.068-.1h.017l.066-.017.068-.153-.051-.2.017-.085.051-.085.051-.033h.017l.017.017" transform="translate(-88.927 -41.187)" fill="#1b1464"/>
    <path id="Path_65512" data-name="Path 65512" d="M165.154,11.553v.033h-.016v-.033h.017m.1.066h.033v.017h-.017v-.017Zm.085.153Zm-.305.61v.033H165V12.4h.017v-.017h.017Zm-.864.136v.033h-.017v.068h-.018v.033h-.017v.033h.034V12.7h.017v-.017h.017v-.068h.051v.051h-.017V12.7H164.2v.017h0v.033h.051v-.017h.017v-.051h.017v-.017h.017V12.7h-.017v.017h.017v.017h-.017v.059h.017v-.017h.033v-.017h.017v-.033h.017v-.033h.017v-.033h.034v.033h.017v.033h0v.017h-.05v.033l.017.017v.017h-.017v.033h.017v.016h-.017v.033h-.017v.017h.017v.017h.033v-.017h.017v-.017h.017v-.017h.017v-.016h.017v-.017h.017v-.016h.017v-.017h.017v.033h.017v.017h.017v-.017h.017v-.016h.017v.017h-.017v.016h-.017v.033h.017v.033h0v.033h0v.017h.017v.033h.033v-.014h.017v.017h.034v-.017h.017V12.96h.017v-.017h.033v.068h-.017v.051h.017v-.017h.033v.017h.034v-.033h.051v.017h.085v.033h.017v-.017H165v-.017h.033v-.017h.017v-.017h0v-.018h-.017v-.017h0v-.017H165v-.017h-.017v-.033H165v-.019h-.033v-.017h-.051v-.033h-.033v-.016h-.017v-.017h.017v.017h.033v.017h.033v.016h.083v-.017h-.017v-.016h.033v-.051h0v-.017h0v.017h.05v.018h-.017v.066h-.017v.017h0l.017.017h0v.051h.017v.017h.017v.017H165.1v.051h-.017v.033h.051v.017h.017V13.06h.017v-.017h.017v.017h.017v.051h-.017v.017h-.017v.017h-.034v.017h-.017v-.017H165.1v-.017h-.033v.017h-.017v.017h-.017v-.05h.017v-.033h-.085V13.1h-.129v-.017h-.017V13.1h-.033v.017h-.016v.017h-.033v.033h-.017v.017H164.7v.033h-.017V13.2h.017v-.017h-.017v-.017h.017v-.017h-.034v.017h-.033v-.017h-.051v.033h-.017V13.2h-.017v-.017h-.017v-.017H164.5v.068h.017v.017h.017v.033h.017V13.3h0v.033h-.066V13.3h-.017V13.28h-.033V13.3H164.4v.033h-.017v-.017h-.033V13.3h-.017v.017h-.017v.017H164.3V13.4h.017v.017h.017V13.4h.017v.017h.017v.033h.017v.017h.017v.019h0V13.5h0v.016h-.066v.033h-.017v-.017h-.033v.033h.033v.017h.017V13.6h.033v.017h.017V13.6h.033v.017h-.051v.017h-.017v.017h.017v.017h.017v.017h.017V13.7h.017v-.017h.033v-.016h.033v-.017h0v.017h.017v.1h0v.017h.051v-.017h.017v.017h.017v.051h.017v-.017h.017v.017h.033v.017h.017V13.84h.034v-.017h.033v-.017h-.017v-.033h.05v-.017h-.017v-.033h-.019V13.69h.017v-.02h.017v-.017h.017v.068h.017v.017h.066v.017h.017v-.017h.017v-.017h.017v.066h0V13.8h.017v-.017h.033v-.017h.017v.017h-.051V13.8H164.9v.017h-.017v.033h-.017v.017h.017v.085h0v.033h.017v.033h.033v.033h0v.017h.017v.033h-.017v.017h.017v.024h-.017V14.13h-.051v.033h-.033v-.051h.017v-.017h-.017v-.017H164.8v-.018h.017v-.017h.017v-.017h.017V14.01h0v-.051h-.018v-.033h-.017v-.017h-.085v.017h-.017v.033H164.7v.017h0v.017h-.017v.017h-.051v.017h-.017v.017h.017v.017h.017v.017h.017v.017h-.017v.033h-.017v-.017h-.017v-.017h-.051v.017h0v.017h.033v.019h0v.017h-.017v.016h.033v.033h-.033v.017h0v.033h.017v-.017h.017V14.3h0v.033h-.017v.017h-.017v.017h.05v.017h.017v.033h.033V14.38h.017v-.033h.017V14.33h.017v-.017h.017v.051h.017v-.017h.017v.017h.017v-.017h.033v.017h-.017v.017h0V14.4h.017v.017h.017v.017h0v.017h0v.066h.05V14.5h.017v-.017h.017v.051h0v.033h.017v.017h.017V14.6h-.051v-.017H164.9V14.6h-.017v.017h-.033v-.033h0v-.017h0v-.017H164.8v.017h-.084v-.017H164.7v-.017h-.017v.033h-.017v.017h-.017v-.033h-.033v.017h0v.017H164.6V14.55h-.017v.017h-.017V14.6h-.051v-.017H164.5V14.55h-.017v-.017h-.017v-.017h0v-.051h-.017v-.033h-.033v.017H164.4v-.015h.017v-.017h0V14.4h.033v-.017h-.017v-.017h0v-.017h-.033v-.033h.017v-.033h.05v-.017h0v-.017h-.017v-.017h0V14.2h.017v-.033h-.017v-.02h-.051v.017h-.017v.016h-.017V14.2h-.017v.033h-.033v-.017h-.033v.033h-.033v.033h.017V14.3h-.017v.017h0v.033h.017v-.017h.017v.051h-.017v-.017h-.017v.017h-.017v.033H164.2v.033h-.017v-.011h-.016v.017h-.017v-.017h.017V14.4h.017v-.017h0v-.068h.017V14.3h-.017v-.033h-.017V14.25h-.017v-.017h.033v-.017h.017V14.2h-.017V14.18h.033v-.017h.017v.017h.085v-.017h-.017v-.016h.017V14.13h-.017v-.016h-.017V14.08h-.017v-.017h-.05v-.017H164.2V14.03h-.051v.017h-.015v.017h-.017V14.1H164.1V14.08h-.017v-.017h-.017v.017h-.017v.051h-.033v.015H164v.033h-.017v.033h-.017v.017h.05v.017h.017v.017h-.051v.017H164V14.3h-.017v.017h-.05v.017H163.9v.017h-.033v-.017h-.051v.017H163.8v.017h-.017v.017h-.017v.033h.017v.017h.017v.017h.017v-.017h.017v.051h-.017v.033h.017v.017h-.017v.017h0v.017h.033V14.55h.017v-.013h.017v-.017h.017V14.5h.017v-.033h.017v.017l-.017.017v.017H163.9v.068h-.017V14.6h-.017v.017h-.033v.033h.033v.017h.017v.017h-.033v.017h-.017v.051h0v.033h-.017v.018h.033v.017h-.017v.016h-.017v.051h.051v-.018h.033v-.017h.033v-.049h-.017v-.017h.017v-.016h.017v-.017h.017V14.74h.017v-.017h-.017v-.017h.017v-.018H164v-.017h.017v-.017h.066V14.6h.017v-.017h.017V14.6h.017v.033h.017v.051h-.016V14.7h-.017v.017h0v.033h0v.02h-.033v.033h.017v.033h-.017v.033h-.017v.017h0v.033h.017v-.017h.033v.017h.017v.017h0v.017h.017v.017h.017v-.017h.033v-.015h.017v-.017H164.2v-.033h.017v-.019H164.2v-.017h.017v-.016h.017v-.017h.017v-.017h.017v-.017h.017v.017h0v.066h.017v.017h-.017v.017h.034v-.033h.017v-.017h.017v-.017h.033v.033h.017v.017h-.017v.033h.017v.017h-.017v.017h-.017v.017h.017v.033h.017v.017h.017v-.017h.051v-.017h.033v-.017h.017v-.017h.033v-.033h.017v.051h.017v-.017h.033v-.017h.017v-.033h.017v.017h-.017v.017h.051v.017h.033v.017h.017v.017h.051v-.017h.017v-.017h.033v.033h.017v.017h-.066v.017h-.017v.017h-.017v.017h-.033v.017h-.05v.017h-.068v.051h-.017v.033h-.017v.017h0v.017h.017v.017h.017v.017h-.033v.033h0V15.3h.017v.033h-.017v-.017h-.033v.017h-.017v-.017l-.017-.017h-.033v.017h.017v.017h-.068v.017h-.017v-.012h-.034v-.017h.017V15.3h0v-.017h-.017v-.017h-.017V15.3h-.017v.017h-.051v.017h-.017v.017h-.017v-.016h-.033v.033H164.2v.017h.017v.02h.033v.017h-.017v.016h-.017v.017h.017v.033h-.051V15.5h0v.017h.05v.017h.017V15.5h.017v-.033h.034v-.017h.05v.016h0V15.5h.1v-.017h.017v-.016h.033v.051h-.033v.051h.017v.017h-.017v.033h0l-.017.017h.017v.017h.017l-.017.017h.033v.017h-.017v.033h.017v.017h.017v.033h.017l-.017.017h-.017v-.033h-.017v-.017h-.017v.017h-.017v-.017h-.017V15.8h-.017v.017h-.034V15.8h-.017v.017h-.017v.017h.017v.017h.017v.017h-.066V15.9H164.3v.033h.051v.017h.017v.017h.067v.017h.033v-.017h.017v.017h.017v.017h-.017v.033h.017v.017h-.017v.017h-.017v.033h.017v.058h.017v.017h.033V16.2h.051v-.017h.033v-.033h.068V16.13h.016v.017h-.017v.016h-.017v.017h-.033V16.2h-.051v.017h.017v.068h.017V16.3h-.034V16.28h-.033v-.033h-.085v.017h-.017V16.3h-.017V16.28h-.017v-.051h-.033v.017h-.017v-.017h-.033v-.017h-.017V16.2h-.05v.017h-.017v.017h.017v.033h-.017v.017h0V16.3h-.015v.017h.033v.017h-.017v.033h0v.084h0v.033h.051l.017-.017v.017h.017V16.5h.033v.033h-.017v.033h-.017V16.6h-.017v.017H164.3v.033h.017v.033H164.3v.051h0v.017h-.017v.017h-.017V16.8h-.017v.026h-.033v.017H164.2v-.017h-.066v-.017h-.033v.017h-.033v.017h-.017v.016h.017v.017h-.017v.016h.084v.017h.033v.016h.017v.051h-.018v.017h-.033v.017h-.051v-.017h-.033v-.017h-.034v.017H164v.017h.017v.017h.017v.033h.017v-.017h.017v.017h.033v.017h-.017v.085h-.033v.017h.017v.051h.017v.017h-.017v.017h-.05v-.017H164v-.017h-.017v.033H164v.033h0v.033h-.017v.033h-.017v.033h-.033v-.051h-.017V17.28H163.9v.051h-.033v.017h.017v.066h.017v.033h.017v.033l-.017.017v.021h-.033V17.5h-.017v.033h.017v.017h0v.017h-.017V17.6h-.017v.033h-.017v.017H163.8v.033h-.017V17.7h-.017v.017h-.017v.017h-.033v.017H163.7v.017h-.017v.017h-.017V17.8h-.017v.017h-.017v.017h-.017v-.051h.017v-.017h.017v-.017h.017v-.033h.017V17.65h.017v-.017h.017V17.6h.017v-.017h-.017v-.017H163.7v.017h-.017V17.6h-.017v.017h-.017v.017h0v.017h0V17.7h-.017v.017h-.017v.017h0v.017h-.05v.017h.017v.017h-.033V17.8h-.017v.017h-.025v.017h-.017v.017h-.016v.033h-.017v.017h-.017v.033h-.033v.033h-.017v.017h-.017v.066h-.017v.033h.017V18.1h.017v.017h.05v.025h-.017v.017h-.033V18.2h.017v.033h.017v.051h-.017V18.3h-.017v.017h-.033v.033h-.017v.085h-.017v.084h0v.017h0v.153h.017v.033h-.033l-.017.017v.033h-.033V18.8l.017.017v.033h.033v.017l-.066.033c-.163-.016-.294-.142-.457-.136l-.135.017-.033-.169V18.58l-.017-.051-.017-.1-.017-.051-.051-.187.017-.066.017-.051.033-.169v-.051l-.051-.2-.017-.033v-.051H162.5v-.254l-.033-.033-.068-.085v-.136l.068-.1.017-.017v-.033l.085-.085V16.77l-.033-.085.066-.1.033-.017.033-.033.017-.152v-.033l-.051-.017v-.085l-.017-.033-.017-.033-.017-.017V16.1h.033l.051-.033.017-.017.051-.084.033-.068-.017-.085-.033-.068-.017-.033v-.186l-.066-.051v-.017l-.017-.033v-.033l-.033-.051v-.017l-.017-.033-.017-.017.017-.033v-.017l-.017-.033-.017-.033-.017-.033-.017-.017-.033.017h-.051l-.017.033v.033l-.017.017-.033.017-.033-.017-.017.017-.017.017v.017h-.059l-.051-.033h-.033l-.017.017-.1.017H162v-.033h0v-.033h.017v-.066h.017v-.017h.017v-.017h.017v-.017h.017v-.017h.017v-.068h.017v-.033h.017v-.017h.017v-.032h.017V14.89h.017v-.049h.017v-.033h.033v-.017h.017v-.033h.033v-.033h.017v-.051h.017v-.051h.017v-.017h.017v-.033h.017V14.54h.017v-.017h.017V14.49h.017v-.033h.017V14.44h.017v.017h-.017v.017h.017v-.023h0v.017h-.017v.017h.066v-.017h.017v-.017h.017v-.017h.017V14.4h.017v-.017h.017l.017-.017v-.033h.017v-.051h.017V14.25h.017V14.2h.017v-.186h.017V14h.017v-.051h.017v-.119h.017v-.033h.033v-.02h.017V13.74h.017v-.033h.017V13.69h.033v-.017h.017V13.64h.017v-.033h.017V13.59h.017v.017h.017V13.59h.033v.085h0v.066h-.017v.033h-.017v.017h.033v.017H163v.066h.017v.051H163v.051h.017v.068H163v.033h.017V14.06h.017v-.017h.017v-.068h.017v-.051h.033l.017.017h.033v.017h.017v.033h.051v.017l-.017.017v.017h0v-.017h.017v.017h.017v-.017h-.017v-.017h.017v-.033h.017v-.017h.017v-.033h.017v-.017h.017v-.017h.017v.033h.051v.017h0v.017h.017v.017h.017v-.051h.017v-.016h.033v-.017h.034v.017h-.008v.033h-.017v.017h.017v.017h-.017v.033h0v.051h.017v-.017h.017v-.017h-.017v-.017h.033v-.017h0v-.051h.017v.033h0v.017h0v.033h.017v.033h-.017v.068h.017v.033h.017v.021h.066V14.2h.017V14.18h.033v-.033h-.066V14.13h0v-.016h.05v.017h.066v.016h.017v.017h.033v-.05h.017v.017h.017v-.017h.017v.017h0v.033h0v.016h.017V14.2h.067V14.18h.017v-.033h.017v-.033h-.017V14.1h.033V14.08h0v-.017h-.017V14.03h.017v.017h.017V14.03H164v-.017h.017V14h.017v.017h.067V14h.017v-.017h.017V14h.017v-.017h.033V14h.017v-.017h.017V14h.034v.051h.033v.017h.017v.017h.066v-.033h-.017v-.033h-.017V14h.066v.017h.033v-.051H164.4v-.017h-.033V13.93h-.017v-.022h-.033v-.017h.084v-.033h-.017v-.017h0v-.017h.017v-.017h-.017v-.017h-.017v-.018h-.017v.033h-.017v-.033h-.017v.017H164.3v.017h-.017V13.79h-.017v.017h-.017v-.033h.017v-.051h-.017v-.017h-.033v.017H164.2v.068h-.017v.017h0v-.051h-.016V13.74h.017v-.033h-.033v.033h-.017v.017h.017v.017h-.017v.1h-.017v.017H164.1v-.017h.017v-.068H164.1v-.033h-.017v-.017h-.033v.017h-.017v.051H164v.017h-.017v.017H164v.017h-.033v.017h-.033v.033h-.017v-.017H163.9v-.017h-.017v.017h-.017v.051h-.017v.017h-.017v.033h-.051v.017h-.017v.017h-.017v-.017h-.017v.017h-.068v.017l-.017-.017v-.017h-.017v-.017h-.017v-.051h.017v-.017h0v-.017h-.017v-.017H163.6V13.84h0v-.017h.017v-.051h.033V13.7h.017v-.017h.017v-.017h.017V13.7h.017v-.017h0v-.051h0V13.6H163.7v-.018h-.017v-.033h.051v-.017h-.017v-.016H163.7v-.1h.017v-.068h.017v-.017h.017v.017h.017v.017h.017V13.4h.017v.017h.066v.017h-.017v.02h.017v.017h.017v.016h.017V13.5h.033v.049h-.017v.017h.017v.016h-.017v.033h.033v.017h.033v-.017H164v.017h.017v-.017h.033v.017h.017v.017h.017v-.017h.017v-.017h.017V13.6h.017v-.068h-.051v-.015h-.017V13.5h-.017v-.016h-.017v-.017h.033v-.016h.017v-.033h-.017v.017l-.017-.017h-.034v-.033L164,13.4h-.017l-.017.017h-.017V13.37h0v-.017h-.017v-.017h-.051V13.3h-.017v-.033h-.017v-.022h-.033v-.017h-.033v-.017h-.033V13.2h.017v-.033h.017v-.017h.017V13.13h.017v-.017h.033V13.1h.017v.033h.017v.017h.033v-.017h.017v-.017h.017v-.033h.017v-.017h.017v.033H164v.033h.017v-.017h.017V13.1h.017v-.033h0v-.051h.017V12.96h-.051v-.017h.017v-.017h.017v-.051h.017v-.033h.017V12.81h.017v.015h.017v-.017h-.013v-.051h0V12.74h0v-.017h-.017V12.69h.017v-.033h0v-.033h.017V12.59h.017v-.033h.017v-.033h.017Zm1.084,0v.033h.017v.017h.017V12.6h.017v.051h-.017v.017h.017v.017h.017v-.017h.033v.017h-.017V12.7h-.017v.017h-.119v.017h-.017v.017h-.05v-.033h.051V12.7h.017v-.017h.017v-.033h.017V12.6h-.017V12.55h.017v-.017h.017v-.017Zm-.8.017h.017v.017h-.033v.017h.017V12.6h-.017v.017h.017v.017h-.017V12.6h-.017v-.033h.017v-.033Zm.237.068v.017h.033v.033h.066v.017h-.017V12.7h-.068v-.017H164.7V12.7h-.017v-.017h-.017v-.051h.017V12.6h.017Zm-.678.033h.017v.017h.017v.017h-.017v.017h-.017v.033H164v.033h-.017v.017h.033v.068H164v.1h-.033v.017h-.017v.017H163.9v-.081h0V12.84h0v-.015h.017v-.017h0v-.033h.017v-.033h.017v-.033h.017v-.017h.017v-.017H164v-.017h-.033v-.033H164v.017h.017Zm.2-.017Zm.22.017h.017v.017h-.017Zm-.169.1Zm.424.559v-.051h.017v.033H164.7v.017Zm0,.068V13.4h-.017v-.017h.017v-.017Zm-1.051.356Zm-.033.085Zm.644.033v.051h-.017v-.033h.017v-.017Zm-.762.068Zm-.017,0Zm-.085.033Zm.525.066Zm.033,0v.033h-.034V14.02H163.9V14h.051Zm.186.051Zm-.237.017Zm.949.033v.017h0Zm-1.236.017Zm1.779.085v.017h.017v.023h0v-.017h-.033v-.016h.017Zm-1.406.136H164v.017h-.017Zm.407.085Zm-.152,1.1Zm.3.254Zm.017.017Zm-.033.186Zm.186.153Zm.1,0Zm-1.441,5.31-.017.033h-.017V21.5l-.033.017v.033l.017.017v.119h.033l.017-.017.017.017h.017v-.017h.017V21.6h.017l.017-.017v-.017h0l-.017-.016-.017-.033-.017-.017-.017-.033v-.02Zm.066-.322.033.033h.068v-.017l.017-.017h.033v.033l.017.033v.051l.033.017v.051l.017.017.017.017.033-.051h.051l.017.017h.1l.017.017.017.017v.033l-.017.017v.066l-.017.017v.066l-.017.033-.017.017h-.033l-.017.033h-.017l-.017.017h-.017l-.051.017v.017l-.066.017c-.043.048-.04-.031-.152.1h-.017v.033l-.033.017-.017.017v.017l-.066-.017-.017-.033h-.085l-.017.017.017.017h-.033v.017l-.017-.017-.017.017h-.017v-.033l-.033-.017-.051-.033-.017-.017h-.017l-.033.017-.017-.017v-.044l-.017-.066.033-.017.033-.033.051-.017.068-.085h.051l.017-.017v-.017l.017-.068V21.4l-.051-.051h-.017v-.033l.017-.017-.017-.017-.033-.017.017-.017-.033-.017h.017v-.017h.017V21.18l.017-.017.033-.017h.017v-.017l.066-.033.017-.017.033-.017.017.017.033.017v.033h.051Z" transform="translate(-102.687)" fill="#1b1464"/>
    <path id="Path_65513" data-name="Path 65513" d="M151.188,48.772l-.033.1v.085l.068-.017h.085l-.033.066c-.088.227-.244.27-.051.525l.066.033-.066-.017-.085-.033-.068-.017-.051-.017-.169-.066L150.8,49.4h-.051l-.068-.033v.152l.017.017.017.033.033.017.017.033.017.017.033.017.017.033V49.7l.017.017c.061.085.127.168.186.254l.017.017v.017l.033.017c.088.182.213.362.322.542l.017.051.1.017.136.017.066-.033.136-.084.17-.085h.017l.017-.017.017-.017h.017l.068-.033.051-.033.017-.017.017.033c.256.372.156.307.085.661v.017a1.064,1.064,0,0,0,.068.474v.017l-.033.17-.187-.033-.017.051-.051.119v.051l.033.068v.051l.017.033.017.085.033.085.017.085.033.152h.017l.186.746.254.136h.288l.339.288-.119.305-.339.22V54.4l.068.305-.085.066-.017.085v.017l.17.085-.068.1-.119.085.187.085v.085l.271.17.237,1.033h.169l.066.119-.2.186-.051.051H153.5l-.491.017h-.033l-.457-.066-.288-.186-.169.136-.1.068-.322.017-.186-.237-.017-.017h-.017l-.051.033-.051.085-.017.085.051.2-.068.153-.066.017H151.2l-.066.1.1.39v.017l-.033.051h-.153l.153.423.017.033v.22l-.322.033-.135.017.135.288v.017l.254.559.17.407-.051.1-.051.237-.22.22.2.39-.085.033-.118.033h-.017l-.085.017-.187.085-.169-.017.017-.119-.136-.066h-.033l-.135.017-.1.051-.187.066-.237.1-.288.2.017-.153.017-.2-.628.457h-.066v-.165l-.119-.017-.187-.033-.066.441-1.186.727-.576-.322-.289-.169h.017v-.015c.079-.071-.021-.007.1-.119l.033-.066c0-.058.066-.214.066-.288l.017-.066v-.033l.033-.066a2.2,2.2,0,0,0,.186-.271l.033-.068.017-.051c.137-.107.068-.171.186-.22l.017-.017.051-.051.051-.033v-.017l.017-.033.051-.1c.08-.212.2-.206.288-.423l.017-.017v-.017l.02-.025v-.1l-.017-.017v-.441l.017-.017v-.068l-.017-.033v-.051l-.017-.017-.033-.066v-.017c-.387-.352-.175-.119-.2-.407l-.017-.066v-.066l-.017-.085a.692.692,0,0,0,0-.424l-.017-.066-.017-.066-.051-.066-.033-.066-.017-.017h-.017l-.033-.033-.033-.051v-.131l-.017-.033-.017-.033-.017-.017-.051-.066-.017-.017V57.1l.085-.085.066-.033.068-.017.2-.1.051-.033a.941.941,0,0,0,.39-.22l.068-.033.068-.017.051-.051a4.422,4.422,0,0,0,.8-.322h.066V56.2h.033v-.017l.017.017h.017l.017.017h.017l.033.017H149l.085-.033h.051l.017.017.051.085.1.152h.068c.047.037.106.048.153.085h.017v-.017h.033v-.017h.017l.017-.017h.051l.017-.017.017.017h0l.017-.017h.017v-.017h.017v-.017h.017l.017-.017h.033V56.4h.033v-.024h.017v-.017h.051v-.016h.017v-.017h.051v-.016H150V56.3h.033V56.28h.068l.017-.017h.068v-.016h.051l.017-.017h.066l.033-.017h.033l.017-.017h.017l.017-.017h.017l.033-.017h.186l.017-.017h.136l.033-.017h.051v-.066l-.017-.017v-.066l-.017-.017.017-.017v-.033l-.017-.017a.264.264,0,0,1-.051-.119l-.017-.017-.017-.033V55.71l-.033-.033v-.033l-.118-.119v-.017c-.105-.1,0-.027-.085-.1v-.033l-.017-.017-.017-.017v-.017l-.017-.017v-.033l.017-.017.017-.017v-.026l.017-.017.017-.017.017-.017-.017-.051-.033-.153-.017-.068h-.033l-.017.017h-.017l-.033.017.017-.017v-.016l.017-.033v-.017h-.033l-.017.017h-.186l-.017.017h-.153l-.017.017h-.1c-.1-.006-.03.023-.135.017h-.017l-.017.017h-.051l-.017.017h-.014l-.017.017h-.016l-.017.017h-.016l-.017.017h-.016v.017h-.033l-.017-.017h-.017v-.017h-.033v-.02h-.033v-.017h-.033v-.017h-.05v-.017h-.017v-.016h-.017v-.017h-.017v-.017H149.3l-.017-.017h-.017l-.033-.033h-.017v-.017h-.017v-.017h-.017v-.017h-.017l-.017-.017h-.051v.017h-.085v-.017h-.056v-.087h.017V54.6h.017v-.051H149v-.033h.066V54.5h.017l.017-.017h.017v-.017h.017v-.017h.033v-.017h.017v-.017h.017V54.4h.017v-.018h.017v-.017h.017v-.033h.017V54.3h.017v-.036h.017v-.033h.017V54.2h.017v-.033h.017v-.033h.017l.017-.017c.152-.14.181-.013.169-.271v-.033l.017-.033v-.462h-.051l-.017-.033v-.066c-.06-.27-.041-.1-.153-.322l-.017-.033-.033-.017c-.021-.063-.158-.255-.152-.3l-.017-.033-.017-.033-.017-.033-.017-.033v-.033l-.017-.033v-.16l.017-.033V52l.033-.033.017-.017.033-.033c.09-.062.147-.158.237-.22l.051-.051-.033-.017-.017-.033-.017-.017-.033-.033-.017-.017-.051-.051.051-.051.033-.017.017-.033.068-.033.017-.033.033-.017.017-.017.033-.033.017-.017.033-.017v-.06l-.017-.033v-.066l-.017-.033v-.033l-.017-.033v-.033l-.017-.033.017-.033v-.033l-.017-.033v-.066l.017-.033v-.066l.017-.033v-.136l.017-.033v-.033l-.017-.033v-.033l-.017-.017-.017-.033-.033-.033-.017-.017v-.051h-.033v-.6l-.017-.033v-.3l.033-.051c.054-.07.1-.152.152-.22l.017-.017.017-.017.017-.033v-.019l.017-.017.017-.017v-.017l.017-.017.017-.017h.441l.017-.017.033-.017.066-.068.051-.051.017-.017c.05-.052.049-.02.119-.1l.017-.017.017-.017h.017l.017-.017.068.017.051.017.068.017.068.033.085.017.033.033.066.068.033.033.033.033.033.017.085.017" transform="translate(-92.227 -24.715)" fill="#1b1464"/>
    <path id="Path_65514" data-name="Path 65514" d="M206.788,80.191h-.033v.033h-.017v.017h-.017v.018h.033v-.033l.017.017v-.017l-.017-.017h.017v.033h-.017v.017h.033v.017h.051v.016h.051v.017h.051v.017h.051v.017h.05v.017h.051v.017h.033v.017h.051v.017h.033v-.017h.017v.033h.017v.017h.017V80.41h.017v.033h.017v.017h.033v.017h.033v.017h.017v.017h.033v.017h.017v.017h.033v.033h.017V80.6h.017v.017h.017v.017h.017v.017h.033v.017h.017v.017h.017V80.7h.017v.017h.017v.017h.033v.017h.017v.017h.017v.017h.033V80.8h.017v.017h.033v.017h.017v.017h.033v.017h.033v-.017h.051v.017h-.017v.017h.017v-.017h.017v.017h.017v.051h.017v.019h.051v.017h.017v.016h.051V81h.1v.017h.017v.017h.05v.017h.051v.017h.085v.017h.389V81.1h.119v-.017h.085V81.07H209v.017h0V81.07l.017.017h.051V81.07h.085v-.017h.068v-.017h.033v-.018h.051V81h.033v-.016h.033v-.017h.033v-.017h.033v-.017h.033V80.92h.017V80.9h.017v-.017h0v-.017h0v-.017h.033v-.019h-.017v-.017h.033V80.8h.017v-.033h.033v.017h.017v-.017h.017V80.75h.017v.017h.017v.017h.017V80.8h0v.017h.017v.033h.033v.017h.1v-.017h.136v-.017h.017v.017h.033v-.017h.068v-.017h.033v.017h0v.017h.017v.017h.017v.017h.017l-.033-.017-.017.017.017.017v.018l-.017-.033-.017.017.017.017-.017.017.017-.017h-.033v.017h.017v.015h.017v-.017h.05V80.92h.017v.017h.017V80.92h.017V80.9h0v.017h.017v.017h.017V80.92h.017V80.9h.017v.033h.017v.033h.033v.017h.017v-.017h.017V81h.017v.017h0v.017h.017v.017h0v.017h-.017v.017h-.017V81.1h-.017v.017h.033v.033h.017v.033h.017V81.2h-.017v.017h.017v.017h0v.017h.017v.033h.033v.033h0v.017h.017v.017h.067v.017h.017v.017h.033V81.4h0v.017h.017V81.4h.034v-.013h.017v.017h.017v.017h-.017v.017h.017v.017h.033v.017h-.033v.017h.017v.017h.066v.017h-.033v.017h0v.017h.017v-.017h.033v-.017h0v-.017h.017v-.017h.017v-.051h.017v.017h-.017v.017h.017v.033h.017v.017h.017v.017h.016v.017h.017v.017h0v.033h0v-.017h.017v.02h.017V81.6h0V81.58h.017V81.6h0v.017h.017v.033H211v.017h.05v-.017h.132V81.63h0v.017h.017v.033h-.017V81.7h.017v.016h-.017v.033h-.017v.017h.017v-.017h.017v-.017h0v-.068h.017v-.014H211.2V81.63h.017v.017h0V81.63h.051v.017h.066v.017h0v.016h0V81.7h-.017v.033H211.3v.017h.033v.017h.034v.017h-.017V81.8h-.033v.017h.017v.017h.05v.017h0v.017h.017v-.051h0v-.033h-.017v-.017h-.017v-.017h.05v-.017h.017v.017h0v.017h.017v.017h.066v-.017h.017v-.017h.017v-.017h.017v.017h.017v.017h-.017v.017h-.017V81.8h.017v.017h.017V81.8h.017v.017h.033v.033h-.017v-.017h-.034v.017h.017v.017h.017V81.9h.017v.033h.017v-.017h.017v.017h.017v.017h0v.017h0V82h.017v-.017h.017V82h0v.033h.017v.033h0V82.1h.033v.017h-.017v.017h0v.017h0v.017h.017v.017h-.017v.051h.017V82.3h0v.033l.017.017v.119l.017.017v.051h.023v.017h.017v.017h.017v.017h0V82.6h.017v-.017h.017V82.6h.017v.066h.017V82.7h.017v.017h.017v.033h.017v.017h.017v.017h.033v.033h.033v.017h.033v.017h.017v.017h.033v.017h.033V82.9h.033v.017h.051v.017h.017v.031h.017V83h.017v.033h.017v.017h.017v.016h.017v.017h.033V83.1h.017v.017h.017v.017h.056v.017h.017v.017h.017v.017h.017v.033h.017v.017h.017v.017h.017v.017h.017v.017h.017V83.3h.085v.017h.033v.017h.033v.017h.017v.017h.033v.017h-.034v.066h.017v.017h.017v.135h.017v.1h.017v.033h.017v.033h0v.017h.017v.033h0v.017h-.017v.017h.017v-.033h.017l.017-.017v.017h-.017v.051h.017v.033h.017v.033h.017v.017h.017v.017h.017v.017h.017v.017h.033v.017h.017v.017h.051v.017h.033v.017h.017V84.1h.017v.017h.017v.017h.017v.017h.033v.017h.017v.017h.017V84.2h.017v.017h.033v.017h0v.017h0v.033h-.017V84.3h.017v-.009h.033v-.017h-.017v-.017h.017v.017h.017v.051h.017v.017h.017V84.4h-.017l.017.017h-.017v.119h-.017v.051h.017v.068h.017v.051h.017v.051h.017v.033h.017v.017h.017v.033h.017v.033h.017v.033h.017v.033h.017v.033h.017v.017h.017v.017h.017v.033h.017v.017h.017v.025h.017V85.1h.017v.016h.017v.017h.033v.016h.033v.017h.017v.017h.033V85.2h.017v.017h.033v.017h.017v.017h.033v.017h-.017v-.017h0v.033h.016v.033h.017V85.4h.017v.033l.017.017v.068h.017v.033h.017v.017H214V85.6h.033v.017h0v.017h.017v.017h.017v.017h.017v.017h.033v.017h.017v.017h.017v.023h.017v.017h.017v.016h.017V85.8h.017v.016h.017v.017h.017v.016h.017v.017h.033v.017h.017V85.9h.033v.033h.017v.017h.033v.017h.033v.017h.051V86h.033v.017h.033v.033h.033v.017h.017v.017h.033V86.1h.017v.017h.051v.017h.033v.017h.051v.017h.033v.017h.051v.033h.017v.017h.017v.017h.017v.017h.017v.017h.017v.033h.017v.017h.017v.017h.017v.033h.017v.057h.017v.033h.017v.051h.017v.051h.017v.033h.017v.033h.017v.033h.017v.051h.017v.033h.017v.017h-.033v.051h.017v.033l-.559.424-.712-.2-.356-.085-.118-.186-.085-.169-.119-.136-.2-.22-.271-.289-.085-.1-.678-.424-.017-.1-.085-.644-.254.017-.559.017-.051-.186h-.051l-.135.033h-.033l.017.033v.033l.017.017-.2.033-.1-.051-.017-.017-.255-.338-.085-.1-.407.085-.17.152-.254-.2-.119-.237-.254.17v.017l-.17.051-.118-.1-.085-.153.136-.033-.1-.118-.1-.017-.051-.017-.085-.3.051-.066-.254-.22.068-.271-.237-.2-.22-.2-.051-.2.066-.066h-.017l-.085-.119-.017-.017h-.029l-.066-.017h-.1l-.085.017-.017-.017-.051-.017-.1-.017-.018-.3h-.136l-.593-.017-.017-.119.017-.1.017-.051.051-.2.017-.051.017-.051-.066-.1v-.033l.017-.084.017-.017-.085-.033-.17-.017.017-.22c.005-.237.066-.21.051-.441v-.017h.253v.017h.119v-.017h.017v-.033h.033m2.863.254h.017v.033h-.033v-.019h.017ZM208,80.9v-.017h-.017v-.017h-.017v-.02h-.017V80.83h-.033v-.017h0v.017h.033v.017h.017v.017h.017v.017H208Zm2.371-.017h.017V80.9h.017v.033h0v.017h.017v.017H210.4v-.017h-.017v-.017h0v-.017h-.018v-.033Zm-.864,0Zm0,0Zm.881.066v.017h0Zm.033.017Zm0,.1h.017v.017h-.017Zm.373.373h.017v.017h-.033v-.017Zm-.051.017Zm.051.033h0Zm.169.1Zm.407.066h.033v.017h.051v.033h-.05v.017h-.017v-.017h-.034v-.051Zm.153.051Zm-.017,0v.017h.017v.02H211.5v.033h-.017v-.017h-.017v-.016h.034v-.033Zm-.085.033Zm-.068,0Zm.017.051v.019h.017v.017h-.017v-.017h0V81.8h0Zm.033.051Zm1.135,1.355Zm.271.136h0Zm-.033,0Zm.051.017Zm2.3,3.236Z" transform="translate(-132.359 -45.951)" fill="#1b1464"/>
    <path id="Path_65515" data-name="Path 65515" d="M27.723,71.4h-.1l-6.553-8.749c-2.951-3.936-5.947-7.84-8.84-11.819A18.456,18.456,0,0,1,8.867,36.607a18.518,18.518,0,0,1,5.891-10.931,18.743,18.743,0,0,1,9.163-4.683c.754-.154,1.52-.229,2.281-.333h2.942c.569.077,1.141.135,1.706.233A19.079,19.079,0,0,1,46.611,41.783a18.143,18.143,0,0,1-3.5,9.071C40.075,54.952,37,59.018,33.943,63.1ZM15.034,39.668a12.606,12.606,0,1,0,3.7-8.935,12.638,12.638,0,0,0-3.7,8.935Z" transform="translate(0 -6.096)" fill="#1b1464"/>
  </g>
</svg>
