<svg xmlns="http://www.w3.org/2000/svg" width="49.633" height="49.6" viewBox="0 0 49.633 49.6">
  <g id="medicalDirectors_" data-name="medicalDirectors " transform="translate(0 0)">
    <path id="Path_62968" data-name="Path 62968" d="M4559.968,1370.53a8.8,8.8,0,0,1,.175-.948,2.117,2.117,0,0,1,2.05-1.466c.716-.017,1.433-.015,2.149,0a.427.427,0,0,0,.49-.356,3.767,3.767,0,0,1,7.208-.006c.09.273.208.371.488.362.549-.018,1.1,0,1.649,0,1.8,0,2.459.571,2.725,2.419h.568c1.549,0,3.1,0,4.647,0a2.344,2.344,0,0,1,2.612,2.633q0,4.9,0,9.794v.685c.183-.155.267-.224.349-.3a3.739,3.739,0,0,1,5.162.027.741.741,0,0,0,.866.205,2.557,2.557,0,0,1,3,1.084,2.6,2.6,0,0,1-3.558,3.6,2.522,2.522,0,0,1-1.115-3.023.691.691,0,0,0-.289-.914,2.238,2.238,0,0,0-3.157.177,25.267,25.267,0,0,0-5.9,11.293,8.591,8.591,0,0,0,.309,5.106,5.26,5.26,0,0,0,4.8,3.274,14.934,14.934,0,0,0,7.618-1.656,29.273,29.273,0,0,0,6.619-4.252,2.313,2.313,0,0,0,.293-3.374.669.669,0,0,0-.851-.235,2.591,2.591,0,0,1-1.752-4.875,2.454,2.454,0,0,1,2.69.508,2.407,2.407,0,0,1,.725,2.635.879.879,0,0,0,.237.994,3.661,3.661,0,0,1-.2,5.247,26.189,26.189,0,0,1-11.361,6.105,40.984,40.984,0,0,1-4.389.514l-.074-.143c-.009.176-.025.352-.025.528,0,1.966-.034,3.932.01,5.9a2.43,2.43,0,0,1-2.588,2.615q-13.717-.052-27.433,0a2.44,2.44,0,0,1-2.564-2.575q.047-19.513.019-39.026a2.294,2.294,0,0,1,2.569-2.553c1.549-.006,3.1,0,4.647,0Zm-.041,1.448h-4.952c-1.173,0-1.377.2-1.377,1.357q0,19.264,0,38.529c0,.15,0,.3.006.449a.863.863,0,0,0,.905.92c.149.011.3.006.45.006h26.985c.15,0,.3,0,.449-.009a.849.849,0,0,0,.878-.941q.012-3.323,0-6.646a1.309,1.309,0,0,0-.132-.39,1.417,1.417,0,0,0-.42.183c-.379.35-.734.726-1.1,1.089a2.392,2.392,0,0,1-2.493.791,1.819,1.819,0,0,0-2.138.652,1.767,1.767,0,0,1-.155.126,14.525,14.525,0,0,1-9.2,3.354,7.2,7.2,0,0,1-7.245-7.247,13.353,13.353,0,0,1,1.9-6.94.637.637,0,0,0-.04-.793,5.74,5.74,0,1,1,4.916,2.487,6.054,6.054,0,0,1-3.516-1.04c-.05.039-.085.054-.1.08a11.255,11.255,0,0,0-1.674,6.719,5.62,5.62,0,0,0,4.121,5.048,7.935,7.935,0,0,0,3.416.163,14.567,14.567,0,0,0,7.363-3.662.474.474,0,0,0,.148-.635,2.778,2.778,0,0,1,.644-3.128c.368-.386.768-.742,1.119-1.142a.651.651,0,0,0,.134-.517,12.139,12.139,0,0,1,.129-6.556,26.416,26.416,0,0,1,4.034-8.309,1.632,1.632,0,0,0,.283-.864c.018-4,.013-8,.011-11.993,0-.857-.28-1.137-1.139-1.139q-2.374,0-4.747,0c-.163,0-.325.018-.48.027-.2,2-1.3,2.431-2.9,2.407-3.763-.055-7.529-.018-11.293-.018-1.831,0-2.388-.467-2.708-2.267A.894.894,0,0,0,4559.927,1371.978Zm8.494.992h.35c1.9,0,3.8,0,5.695,0,.7,0,.917-.22.922-.878q.006-.824,0-1.649c0-.646-.222-.866-.871-.87-.966-.005-1.931,0-2.9,0a.728.728,0,0,1-.845-.762,2.361,2.361,0,0,0-2.321-2.286,2.322,2.322,0,0,0-2.328,2.207c-.087.647-.3.84-.939.842-.916,0-1.832,0-2.748,0-.754,0-.965.219-.968.99,0,.45,0,.9,0,1.348,0,.863.194,1.06,1.057,1.061Q4565.472,1372.972,4568.42,1372.97Zm-1.468,15.949a4.289,4.289,0,1,0,4.326,4.256A4.3,4.3,0,0,0,4566.952,1388.919Zm14.386,15.808-1.931-1.931a4.231,4.231,0,0,0-.918.849,1.391,1.391,0,0,0,1.932,1.984A12.405,12.405,0,0,0,4581.338,1404.727Zm9.4-18.686a1.155,1.155,0,1,0,2.311-.033,1.155,1.155,0,0,0-2.311.033Zm7.34,5.015a1.133,1.133,0,0,0-1.158,1.115,1.157,1.157,0,0,0,1.143,1.191,1.179,1.179,0,0,0,1.139-1.152A1.142,1.142,0,0,0,4598.083,1391.057Z" transform="translate(-4552.154 -1365.085)" fill="#1b1464"/>
    <path id="Path_62969" data-name="Path 62969" d="M4575.731,1407.707h11.043c.184,0,.415-.061.539.027a1.477,1.477,0,0,1,.582.642.58.58,0,0,1-.466.715,2.116,2.116,0,0,1-.591.064q-11.119,0-22.237,0c-.05,0-.1,0-.15,0-.6-.011-.948-.277-.953-.725s.339-.724.94-.724Q4570.084,1407.706,4575.731,1407.707Z" transform="translate(-4559.428 -1392.403)" fill="#1b1464"/>
    <path id="Path_62970" data-name="Path 62970" d="M4575.7,1418.551h-11.041a3.645,3.645,0,0,1-.548-.018.648.648,0,0,1-.583-.7.638.638,0,0,1,.548-.676,3.38,3.38,0,0,1,.6-.034q11.065,0,22.131,0a3.922,3.922,0,0,1,.5.021.7.7,0,0,1-.013,1.395,5.478,5.478,0,0,1-.549.011Z" transform="translate(-4559.448 -1398.454)" fill="#1b1464"/>
    <path id="Path_62971" data-name="Path 62971" d="M4570.049,1399.776c-1.879,0-3.759.017-5.638-.02a1.007,1.007,0,0,1-.723-.454.847.847,0,0,1,.156-.743.973.973,0,0,1,.672-.224c.947-.024,1.9-.01,2.844-.01h8.032a2.855,2.855,0,0,1,.448.01.718.718,0,0,1-.055,1.436c-.682.016-1.364.005-2.046.006Z" transform="translate(-4559.526 -1386.397)" fill="#1b1464"/>
    <path id="Path_62972" data-name="Path 62972" d="M4591.579,1439.25a2.388,2.388,0,1,1-4.775-.018,2.388,2.388,0,0,1,4.775.018Zm-1.454-.023a.934.934,0,1,0-1.865.065.933.933,0,0,0,1.865-.065Z" transform="translate(-4574.373 -1411.125)" fill="#1b1464"/>
  </g>
</svg>
