<svg xmlns="http://www.w3.org/2000/svg" width="52.589" height="48.738" viewBox="0 0 52.589 48.738">
  <g id="medication_" data-name="medication " transform="translate(0 0)">
    <path id="Path_62949" data-name="Path 62949" d="M5150.443,1465.47c7.154.447,13.946.875,20.738,1.294,5.3.327,10.6.659,15.9.956a5.848,5.848,0,0,1,4.333,1.786,5.264,5.264,0,0,1,1.357,3.969q-.743,12.112-1.494,24.224c-.082,1.319-.133,2.645-.3,3.955a4.974,4.974,0,0,1-2.548,3.766.819.819,0,0,0-.451.717,4.617,4.617,0,0,1-4.957,4.377c-3.37-.155-6.736-.4-10.1-.612q-6.257-.383-12.514-.765c-.937-.058-1.875-.11-2.811-.193a.892.892,0,0,0-.789.322c-1.452,1.446-2.908,2.888-4.407,4.285-.874.814-1.247.805-2.242.179a29.945,29.945,0,0,1-7.478-6.318,9.915,9.915,0,0,1-2.41-4.949,6.862,6.862,0,0,1,2.6-6.627,1.245,1.245,0,0,0,.542-.988q.579-9.818,1.186-19.633c.092-1.512.26-3.021.283-4.534A5.254,5.254,0,0,1,5150.443,1465.47Zm10.3,35.718c.136.018.23.037.325.043,4.4.273,8.8.557,13.2.807a2.195,2.195,0,0,0,2.387-2.191c.176-2.621.322-5.244.484-7.865q.321-5.2.646-10.391c.177-2.889.363-5.779.516-8.67a2.18,2.18,0,0,0-2.214-2.458c-3.157-.2-6.314-.391-9.472-.589q-7.835-.49-15.672-.98a2.2,2.2,0,0,0-2.478,2.145c-.2,2.83-.367,5.663-.543,8.5q-.387,6.2-.768,12.4c-.054.871-.1,1.742-.14,2.481l3.169,1.174a5.848,5.848,0,0,1,6.375-1.04C5159.4,1495.785,5160.6,1498.15,5160.743,1501.188Zm-.483,2.512c.168.016.316.033.464.043l9.7.6c5.051.313,10.1.644,15.153.931a4.3,4.3,0,0,0,4.577-3.926c.246-2.883.386-5.776.567-8.664q.385-6.113.759-12.226c.148-2.411.319-4.821.42-7.234a4.332,4.332,0,0,0-4.006-4.568c-5.031-.329-10.063-.626-15.1-.938q-6.113-.379-12.226-.763c-3.424-.211-6.848-.457-10.276-.6a4.329,4.329,0,0,0-4.539,4.11c-.227,3.251-.4,6.505-.6,9.758q-.319,5.166-.646,10.332c-.091,1.466-.174,2.932-.261,4.408.516-.116.975-.258,1.445-.314.369-.044.47-.2.49-.546q.688-11.481,1.4-22.962a3.085,3.085,0,0,1,3.358-3.081c1.59.063,3.178.175,4.766.273q7.2.442,14.407.891c2.143.134,4.289.227,6.424.441a3.008,3.008,0,0,1,2.65,3.224c-.1,1.838-.221,3.674-.335,5.511q-.672,10.733-1.342,21.467a3.1,3.1,0,0,1-3.337,3.049c-3.923-.226-7.844-.492-11.766-.738-.586-.037-1.173-.054-1.746-.08Zm-13.7-8.28a9.153,9.153,0,0,0-.969.094,5.938,5.938,0,0,0-4.521,6.553,8.776,8.776,0,0,0,1.728,4.081,27.164,27.164,0,0,0,8.123,7.02.834.834,0,0,0,.744-.132c.926-.774,1.844-1.562,2.707-2.4a21.612,21.612,0,0,0,4.56-6.018,7.25,7.25,0,0,0,.6-5.617c-1.373-4.109-6.024-5.4-8.953-2.566a.605.605,0,0,1-.906.036A5.115,5.115,0,0,0,5146.562,1495.42ZM5157.9,1508.1c.1.01.224.028.35.036q4.706.292,9.413.583,7.719.482,15.439.96a4.123,4.123,0,0,0,.971-.08,3.7,3.7,0,0,0,3.015-3.557c-1.1,0-2.208.011-3.312-.005-.536-.008-1.071-.068-1.606-.1q-5.224-.323-10.446-.644c-3.807-.237-7.614-.481-11.421-.709a.6.6,0,0,0-.473.183C5159.17,1505.853,5158.544,1506.965,5157.9,1508.1Z" transform="translate(-5140.196 -1465.444)" fill="#1b1464"/>
    <path id="Path_62950" data-name="Path 62950" d="M5178.223,1497.077c.829-1.144,1.61-2.229,2.4-3.31.549-.754,1.062-.722,1.527.085l.795,1.382c.592-1.814,1.142-3.5,1.692-5.183q.311-.955.625-1.91a.72.72,0,0,1,.8-.593c.417.051.6.342.657.754.342,2.583.693,5.164,1.049,7.8.587.046,1.172.1,1.757.135.861.055,1.723.1,2.584.148.345.02.776,0,.739.495-.035.453-.432.387-.765.366-1.416-.094-2.831-.195-4.248-.263a.853.853,0,0,1-.932-.859c-.283-2.224-.593-4.444-.893-6.665a.48.48,0,0,0-.165-.324c-.131.387-.265.773-.392,1.161q-.859,2.62-1.71,5.242c-.117.364-.253.692-.693.742s-.654-.234-.839-.569c-.268-.486-.544-.966-.852-1.509-.86,1.19-1.677,2.342-2.517,3.476-.471.635-1.082.534-1.4-.206-.029-.07-.052-.144-.08-.215q-1.089-2.873-2.181-5.746c-.073-.195-.156-.387-.265-.653-.888,1.4-1.765,2.727-2.574,4.092a1.347,1.347,0,0,1-1.45.749c-1.24-.116-2.488-.145-3.729-.26-.215-.02-.563-.272-.579-.442-.04-.424.329-.42.654-.4,1.244.08,2.487.172,3.732.215a.845.845,0,0,0,.622-.329c.883-1.345,1.714-2.725,2.606-4.065a1.174,1.174,0,0,1,.825-.541c.261.027.584.4.7.7.771,1.939,1.493,3.9,2.233,5.849C5178.037,1496.619,5178.117,1496.811,5178.223,1497.077Z" transform="translate(-5157.118 -1479.614)" fill="#1b1464"/>
    <path id="Path_62951" data-name="Path 62951" d="M5186.163,1522.032c-.657.73-1.279,1.4-1.876,2.1a1.09,1.09,0,0,1-1,.427c-.629-.059-1.262-.1-1.893-.117a.856.856,0,0,1-.873-.679c-.4-1.277-.824-2.549-1.239-3.823-.058-.177-.126-.35-.227-.625-.134.259-.235.428-.314.607q-1.46,3.248-2.913,6.5c-.169.378-.343.764-.836.745s-.637-.412-.785-.8c-.619-1.627-1.247-3.251-1.92-5-.426.609-.832,1.129-1.167,1.69a1.3,1.3,0,0,1-1.376.69c-1.336-.118-2.677-.173-4.017-.256-.317-.02-.679-.057-.66-.466.021-.455.4-.426.741-.4,1.319.084,2.639.183,3.96.235a.9.9,0,0,0,.636-.314c.438-.556.791-1.18,1.241-1.724a1.1,1.1,0,0,1,.793-.394c.224.021.51.329.61.574.6,1.47,1.154,2.959,1.726,4.442.065.17.143.336.258.605.143-.292.244-.487.334-.687.982-2.182,1.95-4.37,2.959-6.539a1.246,1.246,0,0,1,.716-.626c.446-.111.664.266.791.66.458,1.42.933,2.836,1.371,4.263.114.371.3.447.669.529a2.376,2.376,0,0,0,2.752-1.152,8.012,8.012,0,0,1,.911-1.034c.519-.552.981-.5,1.377.161.375.624.713,1.271,1.114,1.877a.969.969,0,0,0,.606.392c.74.093,1.493.088,2.233.187.189.026.346.294.519.451-.182.124-.366.356-.547.353a21.608,21.608,0,0,1-2.637-.16,1.332,1.332,0,0,1-.78-.567C5186.97,1523.481,5186.6,1522.771,5186.163,1522.032Z" transform="translate(-5156.142 -1499.249)" fill="#1b1464"/>
    <path id="Path_62952" data-name="Path 62952" d="M5172.9,1481.078c-1.355-.083-2.714-.147-4.067-.266-.219-.019-.577-.261-.594-.428-.044-.422.328-.425.651-.406l4.814.285c.325.02.688.089.584.5-.042.165-.408.3-.646.349a2.725,2.725,0,0,1-.741-.043Z" transform="translate(-5158.174 -1474.76)" fill="#1b1464"/>
    <path id="Path_62953" data-name="Path 62953" d="M5169.951,1486.685a14.234,14.234,0,0,1-1.6-.107c-.2-.033-.358-.3-.535-.455.2-.13.4-.374.6-.37q1.55.034,3.1.19c.194.02.361.293.542.45-.2.128-.4.352-.605.366a12.521,12.521,0,0,1-1.491-.062Z" transform="translate(-5157.905 -1478.468)" fill="#1b1464"/>
    <path id="Path_62954" data-name="Path 62954" d="M5258.054,1531.636a2.957,2.957,0,0,1-.044,5.914,2.982,2.982,0,0,1-2.94-2.985A2.951,2.951,0,0,1,5258.054,1531.636Zm0,.852a2.1,2.1,0,1,0,2.073,2.092A2.1,2.1,0,0,0,5258.057,1532.487Z" transform="translate(-5213.857 -1507.889)" fill="#1b1464"/>
    <path id="Path_62955" data-name="Path 62955" d="M5259.614,1557.215a2.95,2.95,0,1,1-2.94-2.978A2.962,2.962,0,0,1,5259.614,1557.215Zm-2.98,2.083a2.094,2.094,0,1,0-2.08-2.093A2.1,2.1,0,0,0,5256.634,1559.3Z" transform="translate(-5212.988 -1522.382)" fill="#1b1464"/>
    <path id="Path_62956" data-name="Path 62956" d="M5267.144,1516.614c0-.268-.008-.536,0-.8a1.917,1.917,0,0,1,.075-.452c.232-.794.9-.995,2.477-.756a1.118,1.118,0,0,1,1,1.194c-.012.612-.051,1.226-.116,1.834a1.085,1.085,0,0,1-1.132,1,9.82,9.82,0,0,1-1.2-.064,1.175,1.175,0,0,1-1.179-1.437c.012-.172.028-.344.043-.516Zm.8.163-.087.024c.086.291.1.775.272.836a3.869,3.869,0,0,0,1.355.118c.1,0,.25-.23.269-.369a9.1,9.1,0,0,0,.089-1.487.619.619,0,0,0-.375-.447c-1.29-.29-1.452-.155-1.517,1.152C5267.95,1516.662,5267.948,1516.719,5267.945,1516.777Z" transform="translate(-5221.549 -1496.906)" fill="#1b1464"/>
    <path id="Path_62957" data-name="Path 62957" d="M5270.682,1488.815c-.072-.005-.263-.013-.453-.032-1.039-.1-1.4-.536-1.327-1.593.03-.439.055-.879.092-1.318a1.172,1.172,0,0,1,1.3-1.152c.382.014.765.041,1.146.077a1.148,1.148,0,0,1,1.106,1.226c-.01.593-.046,1.187-.115,1.776C5272.347,1488.559,5271.84,1488.861,5270.682,1488.815Zm.961-2.065c.044-1.114.044-1.114-1.067-1.148-.076,0-.153,0-.229-.009-.338-.042-.5.112-.514.445-.021.477-.075.955-.054,1.43.007.15.2.41.321.418C5271.629,1487.988,5271.6,1488.292,5271.643,1486.75Z" transform="translate(-5222.722 -1477.804)" fill="#1b1464"/>
    <path id="Path_62958" data-name="Path 62958" d="M5254.971,1502.811c-.191-.012-.382-.021-.573-.037a1.163,1.163,0,0,1-1.174-1.277q.024-.8.1-1.6a1.166,1.166,0,0,1,1.3-1.154,11.666,11.666,0,0,1,1.259.1,1.072,1.072,0,0,1,.99,1.137c-.008.631-.05,1.263-.117,1.891a1.124,1.124,0,0,1-1.1.99,6.3,6.3,0,0,1-.687-.029Zm-.853-1.868c-.036.977-.036.977.973,1.017.134.005.294.062.4.007.169-.092.4-.237.43-.391a7.591,7.591,0,0,0,.094-1.485c0-.146-.214-.406-.337-.411-1.568-.062-1.463-.444-1.554,1.205C5254.119,1500.9,5254.12,1500.924,5254.118,1500.943Z" transform="translate(-5212.673 -1486.793)" fill="#1b1464"/>
    <path id="Path_62959" data-name="Path 62959" d="M5271.589,1501.783c-.057,1.9-.5,2.1-2.247,1.936-1.02-.1-1.441-.536-1.361-1.558.035-.439.048-.879.084-1.318a1.156,1.156,0,0,1,1.272-1.177,10.693,10.693,0,0,1,1.089.059,1.172,1.172,0,0,1,1.2,1.37C5271.618,1501.325,5271.6,1501.554,5271.589,1501.783Zm-.872-.105a2.332,2.332,0,0,1,.03-.368c.1-.5-.043-.725-.6-.749-1.228-.052-1.227-.08-1.275,1.237a3.869,3.869,0,0,1-.021.458c-.074.465.158.606.582.62C5270.835,1502.922,5270.657,1503.03,5270.717,1501.678Z" transform="translate(-5222.13 -1487.389)" fill="#1b1464"/>
    <path id="Path_62960" data-name="Path 62960" d="M5254.2,1513.717c.249.013.5.007.745.043a1.1,1.1,0,0,1,1.009,1.13c-.007.65-.049,1.3-.12,1.948a1.032,1.032,0,0,1-1,.937,8.871,8.871,0,0,1-1.489-.067,1.117,1.117,0,0,1-1.023-1.237c.006-.363.045-.726.059-1.089C5252.438,1513.94,5252.765,1513.641,5254.2,1513.717Zm-1,2.112h-.017a1.513,1.513,0,0,0,.009.457c.067.2.186.54.3.546a9.668,9.668,0,0,0,1.474-.082c.024,0,.045-.137.051-.212.035-.478.058-.956.1-1.433.031-.349-.141-.47-.458-.517-1.3-.193-1.381-.133-1.454,1.184C5253.209,1515.79,5253.208,1515.809,5253.207,1515.828Z" transform="translate(-5212.095 -1496.391)" fill="#1b1464"/>
    <path id="Path_62961" data-name="Path 62961" d="M5256,1483.9a6.474,6.474,0,0,1,.688,0,1.15,1.15,0,0,1,1.111,1.223c-.011.612-.051,1.225-.12,1.833a1.063,1.063,0,0,1-1.043.967,9.1,9.1,0,0,1-1.488-.077,1.108,1.108,0,0,1-1-1.2c.011-.593.05-1.186.114-1.776a1.118,1.118,0,0,1,1.168-1.036c.19,0,.382.017.573.027Zm.895,1.958c.049-1.111.049-1.111-1.064-1.153-.077,0-.154,0-.229-.009-.345-.045-.5.127-.513.452a13,13,0,0,0-.051,1.43.6.6,0,0,0,.377.423C5256.816,1487.262,5256.837,1487.237,5256.9,1485.858Z" transform="translate(-5213.266 -1477.241)" fill="#1b1464"/>
    <path id="Path_62962" data-name="Path 62962" d="M5157.964,1564.369c-.475,1.171-.915,2.293-1.391,3.4a2.4,2.4,0,0,1-.493.557c-.172-.2-.422-.369-.5-.6-.4-1.138-.75-2.291-1.122-3.438a1.139,1.139,0,0,0-.3-.506c-.282,1.276-.552,2.556-.857,3.827a3.186,3.186,0,0,1-.38.716,3.135,3.135,0,0,1-.7-.47c-.475-.552-.883-1.159-1.358-1.71a.885.885,0,0,0-.613-.267c-.823.019-1.645.089-2.467.147-.321.023-.641-.044-.607-.408.015-.162.338-.4.541-.423.971-.105,1.948-.171,2.924-.2a.987.987,0,0,1,.663.321c.43.482.807,1.012,1.277,1.617.334-1.51.646-2.918.958-4.325a2.83,2.83,0,0,1,.155-.668c.09-.182.272-.427.428-.437s.394.223.454.4c.446,1.3.855,2.62,1.279,3.931.076.235.16.467.272.8.4-1,.762-1.9,1.129-2.8.276-.678.511-.777,1.034-.276a2.446,2.446,0,0,0,2.348.673,6.2,6.2,0,0,1,1.547-.085c.2.011.39.245.585.377-.181.154-.35.423-.545.444-.971.1-1.948.156-2.925.193a1.113,1.113,0,0,1-.571-.208C5158.469,1564.786,5158.241,1564.582,5157.964,1564.369Z" transform="translate(-5144.668 -1527.041)" fill="#1b1464"/>
  </g>
</svg>
