<svg xmlns="http://www.w3.org/2000/svg" width="76.645" height="79.866" viewBox="0 0 76.645 79.866">
  <g id="medicineReport" transform="translate(-346.033 -291.389)">
    <g id="Group_45881" data-name="Group 45881" transform="translate(346.033 291.389)">
      <path id="Path_65857" data-name="Path 65857" d="M407.681,371.255H346.9a.864.864,0,0,1-.864-.864V292.253a.864.864,0,0,1,.864-.864h60.784a.864.864,0,0,1,.864.864v26.521a.864.864,0,0,1-1.728,0V293.117H347.761v76.41h59.056V355.6a.864.864,0,1,1,1.728,0v14.8A.863.863,0,0,1,407.681,371.255Z" transform="translate(-346.033 -291.389)" fill="#1b1477"/>
    </g>
    <g id="Group_45882" data-name="Group 45882" transform="translate(353.631 298.307)">
      <path id="Path_65858" data-name="Path 65858" d="M390.91,335.948H360.09a.864.864,0,0,1-.864-.864v-30.82a.864.864,0,0,1,.864-.864h30.82a.864.864,0,0,1,.864.864v30.82A.864.864,0,0,1,390.91,335.948Zm-29.956-1.728h29.092V305.128H360.954Z" transform="translate(-359.226 -303.4)" fill="#1b1477"/>
    </g>
    <g id="Group_45883" data-name="Group 45883" transform="translate(363.013 303.865)">
      <path id="Path_65859" data-name="Path 65859" d="M376.379,335.957a.864.864,0,0,1-.864-.864V313.915a.864.864,0,0,1,1.728,0v21.178A.864.864,0,0,1,376.379,335.957Z" transform="translate(-375.515 -313.051)" fill="#1b1477"/>
    </g>
    <g id="Group_45884" data-name="Group 45884" transform="translate(363.013 303.866)">
      <path id="Path_65860" data-name="Path 65860" d="M383,324.706h-6.621a.864.864,0,0,1-.864-.864v-9.926a.864.864,0,0,1,.864-.864H383a5.105,5.105,0,0,1,5.1,5.1v1.455A5.1,5.1,0,0,1,383,324.706Zm-5.757-1.728H383a3.375,3.375,0,0,0,3.372-3.372v-1.455A3.375,3.375,0,0,0,383,314.78h-5.757Z" transform="translate(-375.515 -313.052)" fill="#1b1477"/>
    </g>
    <g id="Group_45885" data-name="Group 45885" transform="translate(363.013 313.792)">
      <path id="Path_65861" data-name="Path 65861" d="M389.345,342.983a.861.861,0,0,1-.557-.2l-12.967-10.968a.864.864,0,0,1,1.116-1.319L389.9,341.46a.864.864,0,0,1-.559,1.523Z" transform="translate(-375.515 -330.287)" fill="#1b1477"/>
    </g>
    <g id="Group_45886" data-name="Group 45886" transform="translate(366.744 316.817)">
      <path id="Path_65862" data-name="Path 65862" d="M382.859,345.211a.864.864,0,0,1-.566-1.516l9.161-7.943a.864.864,0,0,1,1.132,1.306L383.424,345A.863.863,0,0,1,382.859,345.211Z" transform="translate(-381.994 -335.54)" fill="#1b1477"/>
    </g>
    <g id="Group_45887" data-name="Group 45887" transform="translate(353.631 338.541)">
      <path id="Path_65863" data-name="Path 65863" d="M390.91,374.987H360.09a.864.864,0,1,1,0-1.728h30.82a.864.864,0,0,1,0,1.728Z" transform="translate(-359.226 -373.259)" fill="#1b1477"/>
    </g>
    <g id="Group_45888" data-name="Group 45888" transform="translate(353.631 346.295)">
      <path id="Path_65864" data-name="Path 65864" d="M390.91,388.451H360.09a.864.864,0,1,1,0-1.728h30.82a.864.864,0,0,1,0,1.728Z" transform="translate(-359.226 -386.723)" fill="#1b1477"/>
    </g>
    <g id="Group_45889" data-name="Group 45889" transform="translate(353.631 354.8)">
      <path id="Path_65865" data-name="Path 65865" d="M390.91,403.218H360.09a.864.864,0,1,1,0-1.728h30.82a.864.864,0,0,1,0,1.728Z" transform="translate(-359.226 -401.49)" fill="#1b1477"/>
    </g>
    <g id="Group_45890" data-name="Group 45890" transform="translate(392.684 322.188)">
      <path id="Path_65866" data-name="Path 65866" d="M442.031,374.859a15,15,0,1,1,15-15A15.014,15.014,0,0,1,442.031,374.859Zm0-28.265A13.269,13.269,0,1,0,455.3,359.863,13.284,13.284,0,0,0,442.031,346.594Z" transform="translate(-427.034 -344.866)" fill="#1b1477"/>
    </g>
    <g id="Group_45891" data-name="Group 45891" transform="translate(398.217 327.721)">
      <path id="Path_65867" data-name="Path 65867" d="M449.174,373.4H443.04a.864.864,0,0,1-.864-.864v-4.672H437.5a.864.864,0,0,1-.864-.864v-6.133A.864.864,0,0,1,437.5,360h4.673v-4.667a.864.864,0,0,1,.864-.864h6.133a.864.864,0,0,1,.864.864V360H454.7a.864.864,0,0,1,.864.864V367a.864.864,0,0,1-.864.864h-4.667v4.672A.864.864,0,0,1,449.174,373.4Zm-5.269-1.728h4.405V367a.864.864,0,0,1,.864-.864h4.667v-4.4h-4.667a.864.864,0,0,1-.864-.864V356.2H443.9v4.667a.864.864,0,0,1-.864.864h-4.673v4.4h4.673a.864.864,0,0,1,.864.864Z" transform="translate(-436.64 -354.472)" fill="#1b1477"/>
    </g>
  </g>
</svg>
