<svg xmlns="http://www.w3.org/2000/svg" width="76.585" height="79.026" viewBox="0 0 76.585 79.026">
  <g id="patient" transform="translate(-25.73 -26.93)">
    <path id="Path_65516" data-name="Path 65516" d="M25.734,66.391V30.88a3.662,3.662,0,0,1,3.924-3.95H85.981A3.7,3.7,0,0,1,89.957,30.9V62.085c0,.562-.127.768-.708.693a6.869,6.869,0,0,0-1.359,0c-.329.022-.434-.09-.423-.412.019-.513-.022-1.03,0-1.542.03-.434-.112-.554-.55-.55h-57.9c-.951,0-.816-.116-.816.812v40.64c0,1.43.352,1.775,1.793,1.775H85.7c1.441,0,1.786-.341,1.786-1.778V95.357c0-.438.12-.573.554-.532a11.518,11.518,0,0,0,1.5,0c.3,0,.453.03.449.374,0,2.452.037,4.9-.03,7.349a3.624,3.624,0,0,1-3.706,3.407H29.781a3.714,3.714,0,0,1-4.051-4.077V66.368Zm32.111-8.585h28.9c.562,0,.749-.094.749-.723-.026-8.663,0-17.327,0-25.994,0-1.337-.374-1.707-1.737-1.707H29.949c-1.355,0-1.73.374-1.733,1.715V57.091c0,.554.127.715.7.715Q43.371,57.795,57.845,57.806Z" transform="translate(0 0)" fill="#1b1464"/>
    <path id="Path_65517" data-name="Path 65517" d="M157.69,142.8A13.59,13.59,0,1,1,171.3,156.361,13.59,13.59,0,0,1,157.69,142.8Zm13.564-11.138a11.116,11.116,0,1,0,11.138,11.093A11.116,11.116,0,0,0,171.254,131.658Z" transform="translate(-82.555 -63.969)" fill="#1b1464"/>
    <path id="Path_65518" data-name="Path 65518" d="M85.36,135.8a23.588,23.588,0,0,0-1.823,2.314c-.172.262-.449.15-.681.15H40.389c-1.022,0-1.666-.666-1.449-1.5a1.194,1.194,0,0,1,1.022-.943,2.785,2.785,0,0,1,.434-.019H85.36Z" transform="translate(-8.238 -68.11)" fill="#1b1464"/>
    <path id="Path_65519" data-name="Path 65519" d="M82.085,149c-.247.783-.479,1.5-.689,2.228a.307.307,0,0,1-.374.243H40.587c-1.123,0-1.7-.4-1.707-1.224S39.445,149,40.565,149h41.52Z" transform="translate(-8.227 -76.368)" fill="#1b1464"/>
    <path id="Path_65520" data-name="Path 65520" d="M82.113,177.871h-41.7c-.94,0-1.5-.479-1.5-1.254s.562-1.213,1.468-1.217H80.631c.539,0,.809.109.917.674A17.449,17.449,0,0,0,82.113,177.871Z" transform="translate(-8.252 -92.884)" fill="#1b1464"/>
    <path id="Path_65521" data-name="Path 65521" d="M58.753,188.542H76.769a4.242,4.242,0,0,1,.618,0,1.232,1.232,0,0,1,0,2.437,4.233,4.233,0,0,1-.618,0H40.1a1.228,1.228,0,0,1-1.172-1.265,1.209,1.209,0,0,1,1.179-1.191c.6-.022,1.191,0,1.79,0Z" transform="translate(-8.257 -101.088)" fill="#1b1464"/>
    <path id="Path_65522" data-name="Path 65522" d="M114.339,207.571H100.026a5.682,5.682,0,0,1-.618,0,1.232,1.232,0,0,1,.026-2.452,5.483,5.483,0,0,1,.554,0h27.4a16.531,16.531,0,0,1,2.834.749c.187.037.187.251.2.416a1.236,1.236,0,0,1-1.086,1.284,5.569,5.569,0,0,1-.614,0Z" transform="translate(-45.405 -111.472)" fill="#1b1464"/>
    <path id="Path_65523" data-name="Path 65523" d="M47.61,122.594h7.113c.936,0,1.5.49,1.5,1.265s-.569,1.2-1.5,1.2H40.388c-.936,0-1.5-.49-1.5-1.265s.565-1.2,1.5-1.206Z" transform="translate(-8.233 -59.846)" fill="#1b1464"/>
    <path id="Path_65524" data-name="Path 65524" d="M47.542,164.661H40.388c-.936,0-1.5-.487-1.5-1.265s.565-1.206,1.5-1.206h14.32c.936,0,1.5.487,1.5,1.265s-.569,1.2-1.5,1.206Z" transform="translate(-8.233 -84.62)" fill="#1b1464"/>
    <path id="Path_65525" data-name="Path 65525" d="M146.5,220.735h-7.286a1.235,1.235,0,0,1-.689-2.31,1.385,1.385,0,0,1,.715-.161h14.631a1.235,1.235,0,1,1-.026,2.464C151.416,220.742,148.953,220.735,146.5,220.735Z" transform="translate(-70.176 -119.698)" fill="#1b1464"/>
    <path id="Path_65526" data-name="Path 65526" d="M52.4,49.934a6.451,6.451,0,0,1,3,1.048,7.417,7.417,0,0,1,3.242,6.14c.056,1.644,0,3.291,0,4.938,0,.91-.468,1.46-1.224,1.464s-1.243-.547-1.247-1.445V57.142A5.092,5.092,0,0,0,54.983,53.9a3.867,3.867,0,0,0-3.115-1.5h-5.8a4.4,4.4,0,0,0-4.594,3.864,7.748,7.748,0,0,0-.109,1.411V62.17a1.235,1.235,0,1,1-2.463,0c0-1.73-.041-3.459,0-5.185a7.191,7.191,0,0,1,6.3-7.113,5.617,5.617,0,0,1-1.951-4.934,5.373,5.373,0,0,1,1.9-3.564,5.548,5.548,0,0,1,7.428.154C54.95,43.783,54.9,46.636,52.4,49.934Zm-.543-4.305a3.085,3.085,0,1,0-3.07,3.066A3.085,3.085,0,0,0,51.861,45.629Z" transform="translate(-8.227 -8.19)" fill="#1b1464"/>
    <path id="Path_65527" data-name="Path 65527" d="M114.442,69.809h14.691a1.232,1.232,0,1,1,0,2.463H99.56A1.213,1.213,0,0,1,98.328,71a1.2,1.2,0,0,1,1.236-1.194h14.878Z" transform="translate(-45.417 -26.825)" fill="#1b1464"/>
    <path id="Path_65528" data-name="Path 65528" d="M146.53,96.21h7.158c.94,0,1.5.487,1.5,1.262s-.565,1.206-1.5,1.206h-14.32c-.936,0-1.5-.487-1.5-1.262s.565-1.206,1.5-1.206Z" transform="translate(-70.156 -43.342)" fill="#1b1464"/>
    <path id="Path_65529" data-name="Path 65529" d="M146.615,83h7.113c.936,0,1.5.487,1.5,1.265s-.565,1.2-1.5,1.2h-14.32c-.94,0-1.5-.487-1.5-1.262s.565-1.2,1.5-1.206Z" transform="translate(-70.181 -35.078)" fill="#1b1464"/>
    <path id="Path_65530" data-name="Path 65530" d="M180.44,157.8a1.2,1.2,0,0,1,.9.494c.374.476.8.936,1.179,1.426.21.277.374.281.629.067,1.6-1.258,3.208-2.5,4.815-3.744a1.617,1.617,0,0,1,.925-.453,1.183,1.183,0,0,1,1.224.749,1.153,1.153,0,0,1-.374,1.438c-.614.513-1.262.988-1.894,1.479-1.426,1.123-2.849,2.224-4.283,3.328a1.289,1.289,0,0,1-2.07-.232c-.711-.85-1.423-1.7-2.119-2.565a1.149,1.149,0,0,1-.116-1.382A1.179,1.179,0,0,1,180.44,157.8Z" transform="translate(-95.934 -80.487)" fill="#1b1464"/>
  </g>
</svg>
