<svg xmlns="http://www.w3.org/2000/svg" width="71.234" height="79.554" viewBox="0 0 71.234 79.554">
  <g id="resuscitation" transform="translate(-493.468 -637.177)">
    <path id="Path_65730" data-name="Path 65730" d="M562.1,696.394H496.432a2.782,2.782,0,1,0,0,5.565h7.68v3.032h10.8v15.333h-7.679v3.785H509.5a3.165,3.165,0,0,0-.045.445,3.116,3.116,0,0,0,6.232,0,2.818,2.818,0,0,0-.046-.445H542.89a2.922,2.922,0,0,0-.046.445,3.116,3.116,0,0,0,6.233,0,2.832,2.832,0,0,0-.045-.445h2.161v-3.785h-8.681V704.99h10.573v-3.033H562.1a2.782,2.782,0,1,0,0-5.564Z" transform="translate(-0.181 -10.939)" fill="#1b1477"/>
    <path id="Path_65731" data-name="Path 65731" d="M516.1,676.815a6.081,6.081,0,0,0-3.849,4.4s-.016.05-.038.136a6.637,6.637,0,1,0-.078,2.333c.042.288.082.487.082.487l0,.021c.533,2.243,2.34,4.645,5.081,4.665l14.7.109a4.85,4.85,0,0,0,4.149-2.431l22.206.053h.011a3.526,3.526,0,0,0,.007-7.052l-19.447-.049a3.23,3.23,0,0,1,.535,1.249,3.3,3.3,0,0,1-2.611,3.852,79.68,79.68,0,0,1-13.2,1.294,34.907,34.907,0,0,1-5.49-.389c0-.032.011-.063.015-.1.007-.2.029-.4.053-.594a33.931,33.931,0,0,0,5.52.4,78.747,78.747,0,0,0,13.064-1.28,2.585,2.585,0,1,0-.97-5.079c-.108.018-9.939,1.872-16.372.92.049-.233.091-.469.122-.706a29.177,29.177,0,0,0,4.027.246,74.181,74.181,0,0,0,11.773-1.141,4.957,4.957,0,0,0-1-.786,11.488,11.488,0,0,0,2.578-7.78c-.225-4.64-3.2-10.665-10.3-13.666l-1.81,1.825-1.758-1.843-.018,0c-1.11.264-9.677,3.648-10.778,12.524C512.208,670.612,512.845,673.706,516.1,676.815Zm11.511-1.541c2.087-1.574,3.013-3.248,2.917-5.264-.121-2.479-1.083-5.291-2.912-6.822l.232.076a10.381,10.381,0,0,1,3.49,6.607c.106,2.2-.963,4.112-3.269,5.854a2.67,2.67,0,0,0-.79.978l-.786,0A3.627,3.627,0,0,1,527.609,675.274Zm-6.441-11.75.166-.049a6.873,6.873,0,0,0-2.414,5.384c-.069,1.446.889,2.929,2.851,4.41a3.668,3.668,0,0,1,1.417,3.4l-1.019-.007a2.794,2.794,0,0,0-1.013-2.945c-2.206-1.665-3.283-3.349-3.2-5.007C518.039,666.913,519.443,665.015,521.168,663.524Z" transform="translate(-1.119 -3.79)" fill="#1b1477"/>
    <path id="Path_65732" data-name="Path 65732" d="M522.514,648a4.434,4.434,0,0,1,4.434-4.435h3.415a4.423,4.423,0,0,1,4.106,6.092,7.276,7.276,0,1,0-11.885-.971A4.2,4.2,0,0,1,522.514,648Z" transform="translate(-5.115 -0.585)" fill="#1b1477"/>
    <path id="Path_65733" data-name="Path 65733" d="M530.618,645.367H527.5a4.053,4.053,0,1,0,0,8.106h3.12a4.053,4.053,0,1,0,0-8.106Z" transform="translate(-5.442 -1.928)" fill="#1b1477"/>
  </g>
</svg>
