<svg xmlns="http://www.w3.org/2000/svg" width="49.207" height="41.291" viewBox="0 0 49.207 41.291">
  <g id="supervisors" transform="translate(0 0)">
    <g id="Group_44369" data-name="Group 44369" transform="translate(15.172)">
      <g id="Group_44366" data-name="Group 44366" transform="translate(0 0.62)">
        <g id="Group_44365" data-name="Group 44365">
          <path id="Path_62940" data-name="Path 62940" d="M5199.271,1235.2v-1.765a3.288,3.288,0,0,1,3.325-3.035v-1.165a4.451,4.451,0,0,0-4.48,4.2v1.765Z" transform="translate(-5198.115 -1229.236)" fill="#1b1464"/>
          <path id="Path_62941" data-name="Path 62941" d="M5241.655,1233.441v1.766h1.156v-1.766a4.442,4.442,0,0,0-4.409-4.2v1.168A3.275,3.275,0,0,1,5241.655,1233.441Z" transform="translate(-5223.949 -1229.242)" fill="#1b1464"/>
          <path id="Path_62942" data-name="Path 62942" d="M5218.419,1238.487v-1.765a2.6,2.6,0,0,0-2.578-2.355v1.154c.8.1,1.422.609,1.422,1.2v1.529h-12.889v-1.529c0-.61.665-1.127,1.494-1.207v-1.155a2.613,2.613,0,0,0-2.65,2.361v1.765Z" transform="translate(-5201.387 -1232.522)" fill="#1b1464"/>
        </g>
      </g>
      <g id="Group_44368" data-name="Group 44368" transform="translate(3.508)">
        <g id="Group_44367" data-name="Group 44367">
          <path id="Path_62943" data-name="Path 62943" d="M5217.636,1231.714H5210a2.1,2.1,0,1,1,0-4.207h7.638a2.1,2.1,0,0,1,0,4.207Zm-7.638-3.051a.947.947,0,0,0,0,1.895h7.638a.947.947,0,0,0,0-1.895Z" transform="translate(-5207.894 -1227.507)" fill="#1b1464"/>
        </g>
      </g>
    </g>
    <g id="Group_44374" data-name="Group 44374" transform="translate(0 6.26)">
      <g id="Group_44373" data-name="Group 44373">
        <g id="Group_44370" data-name="Group 44370">
          <path id="Path_62944" data-name="Path 62944" d="M5199.5,1279.987h-38.142a5.539,5.539,0,0,1-5.532-5.532v-23.967a5.539,5.539,0,0,1,5.532-5.532H5199.5a5.539,5.539,0,0,1,5.533,5.532v23.967A5.539,5.539,0,0,1,5199.5,1279.987Zm-38.142-33.875a4.381,4.381,0,0,0-4.376,4.376v23.967a4.381,4.381,0,0,0,4.376,4.376H5199.5a4.381,4.381,0,0,0,4.376-4.376v-23.967a4.381,4.381,0,0,0-4.376-4.376Z" transform="translate(-5155.825 -1244.956)" fill="#1b1464"/>
        </g>
        <g id="Group_44371" data-name="Group 44371" transform="translate(0 27.758)">
          <path id="Path_62945" data-name="Path 62945" d="M5200.059,1329.6H5160.8a4.978,4.978,0,0,1-4.973-4.973v-1.722a.578.578,0,0,1,.579-.578h48.049a.578.578,0,0,1,.579.578v1.722A4.978,4.978,0,0,1,5200.059,1329.6Zm-43.077-6.117v1.144a3.821,3.821,0,0,0,3.817,3.817h39.26a3.821,3.821,0,0,0,3.817-3.817v-1.144Z" transform="translate(-5155.825 -1322.327)" fill="#1b1464"/>
        </g>
        <g id="Group_44372" data-name="Group 44372">
          <path id="Path_62946" data-name="Path 62946" d="M5204.453,1252.23H5156.4a.578.578,0,0,1-.579-.578v-1.722a4.979,4.979,0,0,1,4.973-4.974h39.26a4.979,4.979,0,0,1,4.973,4.974v1.722A.578.578,0,0,1,5204.453,1252.23Zm-47.472-1.156h46.894v-1.143a3.821,3.821,0,0,0-3.817-3.818H5160.8a3.822,3.822,0,0,0-3.817,3.818Z" transform="translate(-5155.825 -1244.956)" fill="#1b1464"/>
        </g>
      </g>
    </g>
    <g id="Group_44376" data-name="Group 44376" transform="translate(15.705 14.846)">
      <g id="Group_44375" data-name="Group 44375">
        <path id="Path_62947" data-name="Path 62947" d="M5208.531,1286.748a8.93,8.93,0,1,1,8.931-8.93A8.941,8.941,0,0,1,5208.531,1286.748Zm0-16.7a7.774,7.774,0,1,0,7.775,7.774A7.783,7.783,0,0,0,5208.531,1270.044Z" transform="translate(-5199.601 -1268.887)" fill="#1b1464"/>
      </g>
      <path id="Path_62948" data-name="Path 62948" d="M5221.587,1289.221a5.123,5.123,0,1,1-2.262-9.721c.144,0,.285.006.426.017a5.124,5.124,0,0,0,1.836,9.7Z" transform="translate(-5208.964 -1275.693)" fill="#1b1464"/>
    </g>
  </g>
</svg>
