<svg id="Layer_1" data-name="Layer 1"
    xmlns="http://www.w3.org/2000/svg" viewBox="0 0 100 100">
    <path id="_Path_" data-name="&lt;Path&gt;" d="M5.24,94.83s3.62-17,6.94-20.24S22.49,64.1,39.61,60.91c0,0,6.18,10,22.51-.16,0,0,20,4.2,24.88,10.73s9.79,23.35,9.79,23.35C96.79,96.66,5.24,94.83,5.24,94.83Z" style="fill:none;stroke:#ffffff;stroke-miterlimit:10;stroke-width:2.5px;fill-rule:evenodd"/>
    <g id="_Group_" data-name="&lt;Group&gt;">
        <path id="_Path_2" data-name="&lt;Path&gt;" d="M66.16,39.75a28.21,28.21,0,0,1-9,9.67.41.41,0,0,1-.56-.11c-.59-.84-2.54-3-6.88-3-5.39,0-7.33,2.39-7.33,2.92s-7.28-4.76-10.12-11h-.46a17.17,17.17,0,0,0,0,4.15C32.12,44,39.42,60.63,49,60.63s16.32-12.29,18-17.85a.49.49,0,0,0,0-.12V40A.41.41,0,0,0,66.16,39.75Z" style="fill:none;stroke:#ffffff;stroke-linecap:round;stroke-miterlimit:10;stroke-width:2.5px"/>
    </g>
    <g id="_Group_2" data-name="&lt;Group&gt;">
        <path id="_Path_3" data-name="&lt;Path&gt;" d="M33.83,28.42a14.71,14.71,0,0,0,0,7.51s-1.52,5.38-3.45,5.38S26.22,33.7,28,29.84c0,0-2.43-8.12.31-12.79s8.87-11.4,22.91-11.4c0,0,11.7,0,18.81,8.56A14,14,0,0,1,72.71,24s.6,4.57.1,6.4S71.49,39,70.68,39.79a2.39,2.39,0,0,0-.81,1.52s-5.38-.4-2.85-10.15a2.81,2.81,0,0,0-.5-2.54C65.55,27.66,47.53,22.63,33.83,28.42Z" style="fill:none;stroke:#ffffff;stroke-miterlimit:10;stroke-width:2.5px;fill-rule:evenodd"/>
    </g>
    <g id="_Group_3" data-name="&lt;Group&gt;">
        <path id="_Path_4" data-name="&lt;Path&gt;" d="M36.42,23.48S36.66,7.82,61.16,7.82a7.29,7.29,0,0,1,1.27.56c.16.17-14.89,2.4-16.55,13Z" style="fill:none;stroke:#ffffff;stroke-miterlimit:10;stroke-width:2.5px;fill-rule:evenodd"/>
    </g>
    <line x1="52.33" y1="66.77" x2="52.33" y2="72.77" style="fill:none;stroke:#ffffff;stroke-linecap:round;stroke-miterlimit:10;stroke-width:2.5px"/>
    <line x1="52.33" y1="72.93" x2="52.33" y2="76.75" style="fill:none;stroke:#ffffff;stroke-linecap:round;stroke-miterlimit:10;stroke-width:2.5px;stroke-dasharray:0.3178626000881195,0.3178626000881195,0.3178626000881195,1.9071755409240723,0.15893130004405975,0.3178626000881195"/>
    <line x1="52.33" y1="76.91" x2="52.33" y2="82.91" style="fill:none;stroke:#ffffff;stroke-linecap:round;stroke-miterlimit:10;stroke-width:2.5px"/>
    <line x1="49.82" y1="66.77" x2="49.82" y2="72.77" style="fill:none;stroke:#ffffff;stroke-linecap:round;stroke-miterlimit:10;stroke-width:2.5px"/>
    <line x1="49.82" y1="72.93" x2="49.82" y2="76.75" style="fill:none;stroke:#ffffff;stroke-linecap:round;stroke-miterlimit:10;stroke-width:2.5px;stroke-dasharray:0.3178626000881195,0.3178626000881195,0.3178626000881195,1.9071755409240723,0.15893130004405975,0.3178626000881195"/>
    <line x1="49.82" y1="76.91" x2="49.82" y2="82.91" style="fill:none;stroke:#ffffff;stroke-linecap:round;stroke-miterlimit:10;stroke-width:2.5px"/>
    <line x1="43.3" y1="64.94" x2="43.3" y2="75.58" style="fill:none;stroke:#ffffff;stroke-linecap:round;stroke-miterlimit:10;stroke-width:2.5px;stroke-dasharray:10.640074729919434"/>
    <line x1="47.56" y1="65.25" x2="44" y2="75.28" style="fill:none;stroke:#ffffff;stroke-linecap:round;stroke-miterlimit:10;stroke-width:2.5px;stroke-dasharray:10.640074729919434"/>
    <polyline points="27.05 27.55 49.31 22.75 72.8 21.86" style="fill:none;stroke:#ffffff;stroke-linecap:round;stroke-miterlimit:10;stroke-width:2.5px;stroke-dasharray:12,1,2,2,2"/>
</svg>