<?xml version="1.0" encoding="UTF-8"?>
<!-- Generator: Adobe Illustrator 23.0.3, SVG Export Plug-In . SVG Version: 6.00 Build 0) -->
<svg
    xmlns="http://www.w3.org/2000/svg"
    xmlns:xlink="http://www.w3.org/1999/xlink" id="Layer_1" x="0px" y="0px" viewBox="0 0 674.4 674.4" style="enable-background:new 0 0 674.4 674.4;" xml:space="preserve">
    <style type="text/css"> .Al-Dakhiliyah{fill:#7b7ea9;} .st1{fill:#FFFFFF;} .st2{fill:#462657;} .Al-Dakhiliyah-active{fill:#800823;} </style>
    <g>
        <circle class="Al-Dakhiliyah" cx="338.2" cy="337.8" r="327.8"></circle>
        <path class="st1" d="M338.2,675c-90.1,0-174.8-35.1-238.4-98.8S1,427.9,1,337.8S36.1,163,99.8,99.3S248.2,0.6,338.2,0.6 S513,35.7,576.7,99.3s98.8,148.4,98.8,238.4s-35.1,174.8-98.8,238.4S428.3,675,338.2,675z M338.2,19.4c-85.1,0-165,33.1-225.2,93.3 S19.8,252.7,19.8,337.8s33.1,165,93.3,225.2s140.1,93.3,225.2,93.3s165-33.1,225.2-93.3s93.3-140.1,93.3-225.2 s-33.1-165-93.3-225.2S423.3,19.4,338.2,19.4z"></path>
    </g>
    <g>
        <path id="_x38_5_5_" class="st1" d="M183.8,615.1c-0.1,0.1-0.1,0.1-0.2,0.2l0,0l-16.8-37.6l-2.7-0.9l1-3L125,481.4l163.3-55.9 l73.5,117.2l0,0c-0.1,0.1-0.2,0.3-0.2,0.6c0.1,0.7,0.7,1.5-0.3,1.3s-4.4-0.9-5.1-0.9c-0.6-0.1-4.2-0.4-4.8,0 c-0.6,0.4-1.8,1.4-2.4,1.3c-0.6-0.1-3.3-0.6-5.1-0.5c-1.8,0.1-4.2,0.8-4.7,1s-1.9,0.9-2.7,0.8c-0.8-0.1-3.9-0.3-4.8-0.3 c-0.8,0.1-2.8,0-3.4,0.3s-2.1,0.5-3.3,0.4c-1.3-0.1-3,0.2-3.5,0.3s-4.7,1.4-5.3,1.6c-0.6,0.3-1.2,0.8-1.7,0.9 c-0.5,0.1-1.2-0.1-1.8,0.3c-0.6,0.3-2.3,2-2.4,2.7c-0.2,0.7-0.5,1.6-0.8,2.1s-0.9,1.6-0.9,2.1s0.3,0.8-0.1,1.6 c-0.3,0.8-0.4,1.3-1.1,1.5c-0.6,0.3-2.3,1-2.7,1.6c-0.4,0.6-0.9,1.1-1.5,1.4s-1.6,0.7-1.7,1.2s-0.5,1.1-0.8,1.4 c-0.3,0.4-1.9,4.1-1,4.8c0.9,0.8,2.5,1.4,2.9,1.8s1.8,1.8,1.3,3.2c-0.6,1.4-0.8,1.8-1.1,2.3s-0.8,2.6-1.2,2.8 c-0.4,0.3-0.9,0.3-0.9,0.9c0.1,0.7,1.4,2.4,0.6,2.9c-0.8,0.4-2.3,1.4-2.6,1.8c-0.3,0.4-0.8,1.3-0.6,1.9c0.2,0.6,0.1,1.4-0.4,1.8 c-0.5,0.4-1.3,2-1.7,2.6c-0.4,0.6-1.9,1.8-2.1,2.1c-0.3,0.3-1,1.1-1.4,1.6s-1.8,2.2-2,1.9c-0.3-0.3-0.5-0.9-0.9-0.8 c-0.4,0.1-0.5,0.2-1,0.4s-0.9,0.6-1.4,0.6c-0.4,0-1-0.1-1.3,0.3c-0.3,0.4-0.4,0.4-0.8,0.4s-1.1-0.1-1.5,0.2s-1.1,0.6-1.6,0.6 s-1.8-0.1-2.3,0.1c-0.5,0.2-1.8,0.9-2.6,0.8c-0.9-0.1-1.4-0.3-1.9-0.3s-2.1-0.3-2.4-0.3s-2.2-0.3-1.8-0.8c0.4-0.4,1.5-2-0.7-2.4 s-3.3-0.2-4.1-0.4c-0.9-0.2-2.6-0.3-3.3-0.3c-0.7,0-2.8-0.8-3.8-0.3c-1,0.4-1.8,0.6-2.6,0.5c-0.8-0.1-2.4-0.6-2.9-0.4 c-0.5,0.2-0.8,0.4-1.3,0.4c-0.6,0-2.9-0.1-3.8-0.1c-0.9,0.1-3.6,0.3-4.4,0.4c-0.9,0.2-2.3,0.3-2.8,0.4c-0.6,0.1-1.6,0.4-2.1,0.1 s-2.3-0.6-2.8-0.3c-0.4,0.4-1.1,0.9-1.9,1.3c-0.8,0.4-2.7,0.5-2.5,1.4s0.6,1.1,0.2,1.6c-0.4,0.5-1.8,2.2-2.4,2 c-0.6-0.2-1.5-0.6-2.1-0.3s-2,0.9-2.8,0.9s-2.4,0.1-2.8,0.2c-0.4,0.1-2,1.1-2.6,1.2c-0.6,0.1-1.4-0.1-1.9,0.6 c-0.6,0.7-1.4,1.3-2.1,1.7c-0.6,0.4-1.1,0.9-1.5,1.3c-0.4,0.3-1.5,0.9-2,1.1s-0.9,0.4-1.4,0.9c-0.6,0.4-1.2,1.1-1.9,0.8 c-0.8-0.3-2.7-0.8-3.7-0.7s-2-0.1-2.7,0s-2.8,0.4-3.3,0.5c-0.6,0.1-1.4,0.3-2.3,0.3c-0.8,0.1-2.1,0.3-2.8,0.7 c-0.8,0.4-1.4,1.1-2.3,1.1c-0.9,0-2.5,0.5-3.1,0.6C188.1,613.6,184.1,614.7,183.8,615.1z"></path>
        <g>
            <circle id="XMLID_46_" class="st2" cx="227.9" cy="529.5" r="5.3"></circle>
        </g>
        <path id="_x36_17_5_" class="st1" d="M402.5,232.1c0,0-0.2,2.9,0.2,4.6c0.4,1.7,1.7,4.4,1,5.4c-0.6,1-6.2,7.5-6.2,7.5l-3.5-2.5 l-9.6,30.6l0.8,5.4l-10.4,60.3l-60.9,7.5l13-40.5l-25.1-40.3c0,0,7.9-23.8,12.5-38.1c0.8,0,7.9,0.4,11.8,0c4.2-0.4,7.9-4.2,9.6-5.4 c1.7-1.3,3.5-2.5,5.4-2.5s4.4-1,4.4-3.3s-1.9-4.2-2.9-6.5s-0.6-4.2-0.2-5.6c0.4-1.5,5-2.1,6.7-2.5s-1.2-3.3-1.9-4.6 c-0.6-1.3-0.4-2.5,0-3.3s8.5-0.8,11.4-0.8c2,0,3.6-1,4.8-2c0.2,0.3,1.5,2.9,2.7,3.3c1.3,0.4,4.2,0.2,4.4,2.1 c0.2,1.9,0.4,4.8,1.5,5.6c1,0.8,2.1,1.3,2.7,2.7s2.9,5.6,5,5.4c2.1-0.2,4.6-1.3,5.4-1c0.8,0.2,2.7,0.2,3.3,1.7 c0.6,1.5,2.5,6.2,4,6.5c1.4,0.2,7.5-0.2,7.1,1.9c-0.4,2.1-2.5,2.7-1,4.2c1.2,1.2,2.8,3.2,4.3,4.4L402.5,232.1z"></path>
        <g>
            <circle id="XMLID_45_" class="st2" cx="351.1" cy="287.6" r="5.3"></circle>
        </g>
        <path id="_x36_05_5_" class="st1" d="M453.9,208c0,0,0.2,6.9,0.2,9.4s0.6,2,1.4,3.1c0.8,1.2-1.8,3.1-2.4,4.7s-2.5,1.4-4,1.8 s-2.2,2.5-2.9,4c-0.8,1.4-1.4,2.9-1.6,4.1s-2,2-2.9,2.7s-2,3.1-3.1,4c-1.2,0.8-6.5-1.6-8-1.8c-1.6-0.2-2.2,0.4-4.3,0.8 c-2.2,0.4-6.5-1.4-8-2.2c-1.6-0.8-2.2-1.8-2.4-3.1c-0.2-1.4-5.6-4.3-7.4-5.3c-0.3-0.2-0.6-0.4-0.8-0.6c-1.5-1.1-2.9-3-4-4.1 c-1.4-1.4,0.6-2,0.9-4c0.4-2-5.3-1.6-6.7-1.8s-3.1-4.7-3.8-6.1c-0.6-1.4-2.4-1.4-3.1-1.6c-0.8-0.2-3.1,0.8-5.1,0.9 s-4.1-3.8-4.7-5.1c-0.6-1.4-1.6-1.8-2.5-2.5c-0.9-0.8-1.2-3.5-1.4-5.3s-2.9-1.6-4.1-2c-1.1-0.4-2.4-2.8-2.5-3.1 c0.6-0.5,0.9-0.9,1.3-1.4c1.2-1.4-0.6-3.6-1.8-4.1s-2.5-1.6-2.9-3.3c-0.4-1.8,1.2-4.9,1.2-6.7s1.6-2.5,3.3-3.3 c1.8-0.8-0.2-1.6-0.9-2.5c-0.8-0.9-3.1-0.8-4.3-1.6c-1.2-0.8-0.2-2.4,0-3.3s0.4-3.3,0.4-4.5s-2.2-2.9-3.1-5.3 c-0.9-2.4,0.6-1.6,1.2-2.5c0.6-0.9-1.8-3.3-2.7-4c-0.8-0.5-1.3-0.8-1.6-0.9c0.3-0.7,0.5-1.2,0.7-1.5c0.3-0.8,2-1.3,2.7-1.6 c0.8-0.3,3.9-1.9,4.6-2.4c0.8-0.5,1.2-2.5,1.3-3.3c0.1-0.8,0.9-2.1,0.9-2.1l0,0c0,0.2,0,0.4,0.1,0.5c0.1,0.8,0,1.8,0.3,2.2 c0.3,0.3,0.8,1.5,0.9,2c0.1,0.6,0.6,2.4,0.8,2.9c0.3,0.6,1.3,1.8,1.7,2.5s1.7,3.5,1.8,4.1c0.1,0.7,1.3,4,1.5,4.4 c0.1,0.4,4.1,7.3,4.6,8c0.6,0.7,4.8,4,5.1,4.3s1.5,2.8,2.2,3.3c0.6,0.5,2.6,2,2.7,2.4c0.2,0.4,1,3.2,1.7,4c0.8,0.8,1.7,2.9,2.2,3.3 c0.5,0.4,4.2,4,4.6,4.4c0.4,0.4,4.8,4.8,5.7,5.3c0.9,0.5,4.1,2.5,5.1,2.9c0.8,0.4,8.6,3.1,10.6,3.5c2,0.4,5,1.1,5.6,1.5 c0.6,0.4,5.5,2.4,6.9,2.7c1.4,0.4,4.3,0.1,4.9,0s1.3-0.4,1.8,0.1s2.5,2.4,3.4,2.6c0.8,0.3,4.3,0.8,5.7,0.5c1.1-0.3,2.4-0.4,3.3-0.4 v0.2H453.9L453.9,208z"></path>
        <g>
            <circle id="XMLID_44_" class="st2" cx="406.5" cy="201.7" r="5.3"></circle>
        </g>
        <path id="_x36_13_5_" class="st1" d="M341.8,143.1c-0.3,0.8-1.3-0.2-2.2-0.5c-0.9-0.3,1,2.9,1.2,3.4s1.6,3.1,2.2,4 c0.5,0.9,1.6,0.7,2.4,0.9s1.3,0.1,1.8-0.5c0.4-0.4,1-1.9,1.6-3.1c0.3,0.1,0.9,0.5,1.7,1c1,0.6,3.5,3.1,2.9,4.2 c-0.6,1-2.3,0.2-1.3,2.7s3.3,4.4,3.3,5.6s-0.2,3.7-0.4,4.8c-0.2,1-1.3,2.7,0,3.5s3.7,0.6,4.6,1.7c0.8,1,2.9,1.9,1,2.7 s-3.5,1.7-3.5,3.5c0,1.9-1.7,5.2-1.3,7.1c0.4,1.9,1.9,2.9,3.1,3.5c1.3,0.6,3.1,2.9,1.9,4.4c-0.4,0.5-0.9,1-1.4,1.5 c-1.2,1.1-2.8,2-4.8,2c-2.9,0-11,0-11.4,0.8s-0.6,2.1,0,3.3c0.6,1.3,3.5,4.2,1.9,4.6c-1.7,0.4-6.2,1-6.7,2.5 c-0.4,1.5-0.8,3.3,0.2,5.6s2.9,4.2,2.9,6.5s-2.5,3.3-4.4,3.3s-3.7,1.3-5.4,2.5c-1.7,1.3-5.4,5-9.6,5.4c-3.9,0.4-10.9,0-11.8,0 c1.8-5.4,3-9.4,3.2-10.3c0.8-3,3.9-25.9,3.9-25.9l14.4-1.5l2.1-11.4c0,0-2.8,0.6-3.5,0.5c-0.6-0.1-2.4-0.8-2.9-1.3s3.2-4.5,4.1-5.6 s-1.1-15-1.1-16.2s1.1-2.3,1.2-3.7s-2.5-10.3-2.5-11.9c0-1.5,5.8-4.7,6.6-5.1c0.8-0.3,2.3-0.3,3-0.2c0.8,0.1,1.8,1,2.3,1.5 C341.7,139.6,342.1,142.3,341.8,143.1z"></path>
        <g>
            <circle id="XMLID_43_" class="st2" cx="331.9" cy="204" r="5.3"></circle>
        </g>
        <path id="_x36_21_5_" class="Al-Dakhiliyah-active" d="M406.6,233.5c1.9,1,7.7,4.2,7.9,5.6c0.2,1.5,0.8,2.5,2.5,3.3s6.2,2.7,8.5,2.3s2.9-1,4.6-0.8 s7.3,2.7,8.5,1.9c1.3-0.8,2.3-3.3,3.3-4.2c1-0.8,2.9-1.7,3.1-2.9c0.2-1.3,0.8-2.9,1.7-4.4c0.8-1.5,1.7-3.7,3.1-4.2 c1.5-0.4,3.5-0.2,4.2-1.9c0.6-1.7,3.3-3.7,2.5-5c0,0,2.7-1,3.3,0c0.6,1,0.4,2.5,1.5,3.3c1,0.8,2.5,1,3.1,2.1c0.6,1,3.3,5.2,5,6.4 c0,0-0.4,1.5,0.4,3.1c0.8,1.7,1.4,3.7,1.7,5.2c0.2,1.5,1.5,4.2-0.2,4.2s-3.7-0.4-4.6,0c-0.8,0.4-4.4,3.1-6,3.5 c-1.7,0.4-3.3,0.6-4.6,1.9s-3.8,2.5-3.8,3.5s0,6,0,6l-3.1,1.5l4.8,109.2l-76.1-28.9l10.4-60.3l-0.8-5.4l9.6-30.6l3.5,2.5 c0,0,5.6-6.5,6.2-7.5s-0.6-3.8-1-5.4c-0.4-1.7-0.2-4.6-0.2-4.6l0.2-0.2C406,233.2,406.3,233.4,406.6,233.5z"></path>
        <g>
            <circle id="XMLID_42_" class="st1" cx="421.3" cy="290.1" r="5.3"></circle>
        </g>
        <path id="_x36_23_5_" class="st1" d="M476.7,402.9c-0.3,0.1-2.9,0.8-3.2,0.9s-0.5-0.1-1-0.4s-1.1-0.7-1.5-0.8s-2.3-0.5-2.3-1.1 c0-0.6,0.7-3.1,0.9-2.4c0.3,0.7,0.8,1.6,1.1,1.3c0.3-0.3,0.4-0.6,0.1-1c-0.3-0.4-0.4-1.8,0-3h0.1c3.4,1.5,4-3.6,4.4-6.1 s-0.8-7.5-0.8-7.5l-16.3-8.5l-4.6-106.8l3-1.5c0,0,0-4.9,0-5.9s2.4-2.3,3.6-3.4s2.8-1.5,4.4-1.9c1.6-0.4,5-3,5.8-3.4s2.8,0,4.4,0 c1.6,0,0.4-2.6,0.2-4.1c-0.2-1.5-0.8-3.4-1.6-5.1c-0.8-1.7-0.4-3-0.4-3c1.6,1.3,7,5.3,8.5,5.5c1.6,0.2,3.4-0.4,4.4,0.8 c1,1.3,4.6,4.3,6.2,6.1c1.6,1.9,7.8,5.5,9,5.3c1.1-0.2,2.2-2.1,3.2-2.1c1,0,2.6,0.4,2.6,0.4l-0.2,7.3h14.8l0.2-0.1 c0.3,0.8,0.8,2.9,1.8,3.5c1.2,0.6,1.8,1.3,2.1,1.6c0.3,0.4,0.5,1.3,1,1.6s1.3,1.3,1.4,1.6s0.5,1.3,1,1.5c0.5,0.2,1.9,1.8,2.1,2.1 c0.2,0.3,4.4,3.2,4.1,3.3c-0.3,0.1-0.9,1.2-0.3,1.3c0.6,0.1,1.3-0.2,1.7-0.4c0.4-0.3,1.2-0.6,1.6-0.6c0.4,0,2.8-0.2,3.2,0.1 c0.4,0.3,1.5,1.2,1.7,1.2s2.2,0.5,2,1.1c-0.2,0.6-0.5,1-0.1,1.3c0.4,0.3,1.6,0.8,1.7,0.3s-0.9-1.6-0.4-1.8c0.5-0.2,1.3-1.4,2.2-0.7 c0.8,0.7,0.8,1.1,1.1,1.6s2.2,4.1,1.8,4.7s-0.8,1.4-0.8,2.1c0,0.6,0.1,2.3,0.1,3c0,0.6-0.1,3.8-0.3,4.5c-0.1,0.8-0.6,3.1-0.9,3.5 c-0.3,0.4-1.6,3-2,3.5c-0.4,0.6-1.2,1.1-1.4,1.6c-0.2,0.4-0.8,1.7-1.2,2s-1.3,1.1-1.3,1.6c-0.1,0.5,0,2.3-0.4,2.9s-0.9,1.4-0.8,2.1 c0.1,0.7-0.7,3.3-1.2,3.5s-2.8,2.3-2.8,2.9s-0.6,2.3-1.1,2.6s-2.8,2.7-3.2,3.4c-0.3,0.8-1,4.3-1.2,5.7c-0.3,1.3-1.4,3.7-1.8,4.3 s-2.2,3-2.5,3.5c-0.3,0.5-1.2,2-1.2,2.5s-0.1,2.1-0.8,2.3c-0.7,0.3-3.1,1.1-3.5,1.6s-2.3,1.4-2.7,1.6c-0.3,0.2-3.9,2.6-4.2,3 c-0.3,0.4-3.3,2.5-3.6,3.1c-0.4,0.6-3.2,4.3-3.7,4.8c-0.7,0.5-3.9,3.3-4.2,4.1c-0.3,0.8-2.8,3.8-3.1,4.4s-2,2.7-2,3.2 c0.1,0.6,0.1,3-1,3.8c-1.1,0.8-2.2,1.6-2.2,1.9c0,0.4,0.2,2-0.4,2.1s-1.5,0.6-1.8,0.8c-0.3,0.2-0.9,0.4-0.8,0.9 c0.1,0.4,0.3,0.8-0.2,0.9c-0.4,0.2-0.7,0.4-0.6,0.9c0.1,0.5,0.1,1.7,0.9,1.8s1.2,0,1.5-0.5c0.3-0.5,1.2-1.8,1.2-1.1 c-0.1,0.8-0.3,1.9-0.8,2.1c-0.6,0.1-0.9,0.2-1.1,0.5c-0.2,0.3-0.9,0.9-1.1,0.8c-0.1-0.2-0.5-0.8-0.6-0.2c-0.1,0.6-0.4,1.9-0.9,2.3 c-0.5,0.3-2.7,1.9-2.9,2.7c-0.3,0.9-0.8,2.8-0.9,3.4s-0.4,1.9-0.6,2.1c-0.2,0.2-1.1,1.3-1.1,1.8c-0.1,0.4-0.2,2.3-0.3,2.8 s-0.3,3.2-1.1,3.3c-0.9,0.1-1.4,0.2-1.6,0.8s-0.8,2.3-1.7,2.3s-2.5-0.3-3-0.6C478.1,403.5,477,402.8,476.7,402.9z"></path>
        <g>
            <circle id="XMLID_41_" class="st2" cx="496.1" cy="333.6" r="5.3"></circle>
        </g>
        <path class="st1" d="M502.9,389.6c0.7-0.4,0.7-2.5,0.8-3.4s1.1-1,1.7-1s0.4,1.4,0.1,2.4c0,0-0.5,1.8-0.5,2.5c0,0.8,1,1.3,1.4,1.7 c0.6,0.4,0.2,1.9,0.6,2.8c0.4,1-0.6,1.6-1.3,2.1c-0.7,0.5-2.5,1.5-3.4,2.3c-0.9,0.7-1.4,2-1.6,3.3c-0.2,1.4-1.3,0.2-2.2,0.2 c-0.9-0.1,0.5,1.3,1.1,1.6c0.6,0.3-0.2,2.6-0.4,3c-0.2,0.4-0.3,1.1-0.7,1.7s-2.6,3.1-3,3.4c-0.5,0.3-2.3,2.3-3.2,2.5 s-0.9-1.6-0.9-2.7s-0.3-3.7-0.2-4.2c0.2-0.5,0.1-2.3,0-2.7c-0.1-0.4,1.9-3,2.7-3.4c0.8-0.4,0.4-1.1,0.4-1.5c0-0.4,1.1-0.7,1.5-0.3 c0.4,0.4,1.4,0,2-0.5c0.7-0.5,1.1-2.8,1.1-3.8s2.1-4,2.4-4.6C501.7,390.4,502.2,390,502.9,389.6z"></path>
        <path id="_x34_51_5_" class="st1" d="M459.6,208.9c0.7,0.1,5.3,1.3,6.1,1.6c0.9,0.3,3.3,1.6,3.7,2.1c0.4,0.5,0.1,1.8,5.3,2.1 c0,0,3.6,0.2,4.2,0s2.2-0.8,2.6-1.1s0.8-1,1.4-0.8s0.9,0.2,1.4,0.2c0.4,0,1.9-0.3,2.4-0.2s2.4,0.9,2.4,1.4c0,0.6-0.2,1.2,0.1,1.6 c0.3,0.4,1.1,1.8,1.6,1.8c0.4,0,1.3,0.1,1.4,0.3s1.3,0.9,1.7,1.2c0.4,0.3,0.9,0.3,1.3,0.2s0.9-0.6,1.3-0.3c0.3,0.3,1.9,2,1.8,2.6 s0.4,4.6,1.2,5.1c0.8,0.5,2.2,1.5,2.5,1.9s3.8,2.5,4.1,3.4c0.4,0.9,0.8,3.4,1.4,3.6c0.6,0.3,2.1,2.1,2.1,2.8c0.1,0.6,1,3.7,1.8,4.2 c0.8,0.5,2.2,1.1,2.3,1.8s0.6,2.3,0.9,2.8c0.3,0.4,2.7,1.9,3.4,2.4s2.1,1.3,2.6,1.7c0.4,0.4,2.2,1.9,2.3,2.5s1.1,3.7,1.4,4.3 c0,0,0,0.1,0.1,0.1l-0.2,0.1h-15.4l0.2-7.5c0,0-1.7-0.4-2.7-0.4s-2.1,1.9-3.3,2.1c-1.3,0.2-7.7-3.5-9.4-5.4c-1.7-1.9-5.4-5-6.5-6.2 c-1-1.3-2.9-0.6-4.6-0.8s-7.3-4.4-8.9-5.6c-1.7-1.2-4.4-5.4-5-6.4s-2.1-1.3-3.1-2.1s-0.8-2.3-1.5-3.3c-0.6-1-3.3,0-3.3,0 c-0.8-1.3-1.5-0.6-1.5-3.3s-0.2-10-0.2-10v-0.2C459.1,208.9,459.4,208.9,459.6,208.9z"></path>
        <g>
            <circle id="XMLID_40_" class="st2" cx="492.4" cy="225.5" r="5.3"></circle>
        </g>
        <path id="_x36_25_5_" class="st1" d="M469.8,392c-0.4,2.5-1,7.6-4.5,6.1h-0.1c0.1-0.2,0.1-0.5,0.2-0.7c0.6-1.4,2.1-4.5,0.8-5.1 c-1.4-0.6-1.6-0.5-2.3-0.3c-0.7,0.3-1.8,0.4-2.3,0.6c-0.6,0.3-1.9,1.1-2.4,1.2c-0.4,0.1-2.3,1-2.5,1.4c-0.3,0.4-0.6,2.2-0.5,2.7 s0.6,1.8-0.2,2c-0.8,0.2-4.2,1.9-4.8,2.6s-1.3,1.6-0.9,2.6c0.4,0.9,1.3,1.2,0.9,2c-0.3,0.8-0.3,1.4-1.1,1.6s-2,1.1-2.6,1.3 c-0.6,0.3-2.2,1.3-2.4,1.8c-0.3,0.4-0.6,1.5-1,2c-0.4,0.5-0.8,1.3-0.8,1.7c0,0.4,0.1,1.8,0.3,2.1c0.3,0.3,0.7,1.6,0.7,2.1 c0,0.6-0.4,3.2-0.5,3.7c-0.1,0.6-1.1,2.7-1.1,3.3c0.1,0.6,0.3,1.6-0.1,2.3c-0.4,0.7-1.3,1.8-1.4,3s-0.2,2.9-0.7,3.3 s-2.3,3.2-2.4,3.7c-0.2,0.4-1.4,1.8-1.6,2.4s-0.2,3,0.3,3.3c0.4,0.3,1.4,0.4,1.4,1.3c0,0.8,0.1,4.1-0.3,4.5c-0.4,0.4-1,0.9-0.7,1.6 c0.3,0.7,2.6,4.5,2.9,5.5c0.3,0.9,1.1,2.3,1.1,2.9s-0.5,3.4-0.8,4c-0.3,0.6-0.9,1.9-0.8,2.5s1.8,5.1,2.3,5.7 c0.4,0.6,1.7,1.3,1.4,2.1s-1,2.8-0.8,3.2c0.3,0.4,1.1,1.3,1.1,1.7c0.1,0.4,0.8,1.1,1,1.3c0.2,0.3,0.8,0.9,0.2,1.6 c-0.6,0.6-1.6,2.4-2.6,2.3c-1.1-0.2-1.6,0.1-2.2,0.5s-1.3,1.5-2.4,1.4s-5.7,0.1-6.7-0.3c-1-0.3-3.6-0.3-4.2-0.3s-5.5,0.7-6.8,0.9 c-1.4,0.3-3,0.3-3.6,0.6c-0.6,0.3-1.4,0.8-1.9,0.8c-0.4,0.1-1.2,0-1.6,0.1c-0.4,0.1-2.6,0.9-3,0.9c-0.4,0.1-2.1,0.3-2.7,0.6 c-0.7,0.3-4.3,1.3-5.1,1.6c-0.8,0.4-3,1.4-4,1.9c-1.1,0.5-3,1.8-3.6,2c-0.6,0.3-1.9,1.1-2.6,1.5s-2.9,2.2-3.1,2.6 c-0.2,0.4-4.5,5-4.9,5.4c-0.4,0.4-1.4,1.1-1.7,1.3c-0.3,0.3-0.9,1.2-1,1.7c-0.1,0.5-0.1,3-0.1,3.7s0.8,2.7,0.1,3.3 c-0.6,0.6-2,2.2-1.9,3c0.1,0.9,0.1,3.2-0.1,3.8c-0.2,0.7-1.1,3.2-1.4,3.8c-0.3,0.6-1.6,2.6-1.4,3.1c0.2,0.6,0.6,3.3,0.1,3.8 c-0.5,0.4-1.3,1.5-1.9,1.8c-0.7,0.3-2.8,0.7-3.2,1.5c-0.3,0.8-0.8,2.7-1.3,3.1c-0.6,0.5-1.2,0.8-1.4,1.1c-0.2,0.3-0.9,1.4-1.7,1.9 c-0.5,0.4-0.9,0.5-1.1,0.8l0,0l-72.1-115l0,0l23.3-72.3l59.8-7.4l74.7,28.4l16.7,8.5C468.9,384.5,470.2,389.6,469.8,392z"></path>
        <g>
            <circle id="XMLID_39_" class="st2" cx="379.4" cy="442.5" r="5.3"></circle>
        </g>
        <path id="_x36_15_5_" class="st1" d="M373.1,62.3c0,0,0.3,0.6,0.5,1c0.1,0.4,0.5,0.6-0.1,0.6s-1.8-0.1-2.1-0.1 c-0.4,0.1-2,0.5-2.2,1s-0.5,0.6-0.8,0.8c-0.3,0.3-0.4,0.6-0.4,1c0.1,0.4,0.9,0.8,1.1,1.1c0.1,0.3,0.7,0.8,0.9,0.7 c0.3-0.1,0.6-0.6,1.2-0.6s1.1-0.3,0.9,0.4c-0.1,0.6-0.4,2.7-0.8,2.4c-0.4-0.3-0.6-0.9-0.9-0.9s-0.6,0-0.6,0.4 c-0.1,0.4-0.1,1.6,0.3,1.6s0.9,0.1,1.2,0.6c0.3,0.5,0.8,1.9,0.1,1.6c-0.7-0.3-1.3-0.8-1.6-0.8c-0.4,0.1-1.2,0.1-1.4-0.4 c-0.2-0.5-0.4-1.6-0.7-1.3c-0.3,0.4-1.3,0.8-1.1,0.2c0.2-0.6,0.5-1.3,0.1-1.4s-0.5-0.1-0.9,0.4c-0.4,0.4-1.3,1.1-1.6,1.3 c-0.3,0.3-0.8,0.5-0.4,0.8s0.4,0.3,0.4,0.8c0,0.6-0.1,2.1,0.3,1.7c0.3-0.4,0.4-1.6,0.9-1.6s0.8-0.3,0.8,0.4s0.1,2.6,0.4,2.4 s0.9-0.4,1.3-0.3s1.8,0.3,2.3,0.3s1.9,0.4,1.1,0.6s-1.4,0.1-1.4,0.5s-0.1,1.2-0.6,1.3c-0.6,0.1-1.8-0.1-2.1,0.3 c-0.3,0.4-0.4,1.4,0,1.4c0.4-0.1,0.9-0.4,1.3-0.3s0.8,0.4,0.8,0.8s-0.1,1-0.4,1.2s-1.3,0.9-0.8,1s0.8,0.3,0.8,0.6 c0,0.4,0.1,0.8,0.4,0.8s0.9-0.1,0.9,0.4c-0.1,0.6-0.1,0.8-0.6,0.8c-0.4-0.1-2.3-0.4-2.3,0.2s0.7,0.9,0.6,1.6 c-0.1,0.6-0.3,1.9-0.7,1.9c-0.4,0.1-1,0.4-1,0.8s-0.1,0.9-0.1,1.3s-0.3,1.9-0.6,2.1c-0.3,0.1-0.8,0.4-0.8,0.8 c-0.1,0.3-1.2,2.8-1.5,2.4s-0.6-0.8-0.9-0.3s-0.8,1.3-0.9,1.8c-0.1,0.6-0.1,1.7-0.1,2.4c0,0.4,0,1.1,0,1.8h-0.2 c-0.5,0-2.2,0.3-3.3,0.2c-1.2-0.1-2.3-2-2.6-2.9c-0.3-0.9-0.1-4.6-0.1-5.3c0-0.6-1-3.2-1.1-3.9c-0.1-0.7,0.8-2.4,0.8-2.4 s0.3-2.2,0.3-2.9c0-0.8,0.9-1.7,1.2-2.4c0.3-0.7,0.3-2.7,0.1-3.5c-0.2-0.8-1.2-1.8-1.7-2.3c-0.5-0.4-2.2-0.4-2.7-0.4 c1.1-2.3,3.1-5.7,3.3-6.1c0.3-0.6,1-2.3,1.6-3.4s1.2,1.1,1.2,1.8c0,0.7,0.2,0.8,0.8,0.7c0.6-0.2,2-0.3,2.5-0.5s1.1,1.2,1.8,1.2 c0.7,0,2.5-0.7,2.8-1.1s0.9-0.1,1.5-0.1s0.6,0,0.6-0.6s-1.8-0.6-2.5-0.5c-0.8,0.1-1.3,1.1-1.9,1s0.1-2.1,0.2-2.9 c0.1-0.7,0.9,0.1,1.3,0.4s0.5,0.1,0.8-0.5s-1.6-1.6-1.9-2.2s0.5-0.6,1.1-0.8c0.7-0.2,0.4-0.6,0.3-0.9c-0.1-0.4,0.3-1.1,0.5-1.7 c0.2-0.6,0.7-0.2,1.3,0.2c0.6,0.4,0.8,0.5,0.9,0.7c0.2,0.3,0.6,0.6,1.1,0.6c0.6,0,1.6,0.8,2.2,0.7c0.7-0.1,0.7-0.6,0.7-1 C372.1,61.5,372.8,62,373.1,62.3z"></path>
        <g>
            <circle id="XMLID_38_" class="st2" cx="362.6" cy="84.2" r="5.3"></circle>
        </g>
    </g>
</svg> 