<svg xmlns="http://www.w3.org/2000/svg" xmlns:xlink="http://www.w3.org/1999/xlink" width="242.931" height="242.935" viewBox="0 0 242.931 242.935">
  <defs>
    <clipPath id="clip-path">
      <path id="Path_57449" data-name="Path 57449" d="M3699.006,6305.082a121.466,121.466,0,1,1-121.464-121.468A121.463,121.463,0,0,1,3699.006,6305.082Z" fill="none"/>
    </clipPath>
  </defs>
  <g id="creatNewIcon" transform="translate(-3456.075 -6183.614)">
    <g id="Group_42694" data-name="Group 42694">
      <path id="Path_57446" data-name="Path 57446" d="M3699.006,6305.082a121.466,121.466,0,1,1-121.464-121.468A121.463,121.463,0,0,1,3699.006,6305.082Z" fill="#e5f8fd"/>
      <g id="Group_42693" data-name="Group 42693">
        <g id="Group_42692" data-name="Group 42692" clip-path="url(#clip-path)">
          <path id="Path_57447" data-name="Path 57447" d="M3681.314,6216.249l-232.061,210.3,355.333,29Z" fill="#00b5f6" opacity="0.19"/>
          <path id="Path_57448" data-name="Path 57448" d="M3695.817,6415.671l-217.558-199.422-90.646,148.661,148.657,94.27Z" fill="#00b5f6" opacity="0.19"/>
        </g>
      </g>
    </g>
    <path id="Path_57450" data-name="Path 57450" d="M3518.1,6248.426a83.99,83.99,0,1,1,0,118.779A83.991,83.991,0,0,1,3518.1,6248.426Z" fill="#2e3191"/>
    <g id="icon">
      <g id="Group_43065" data-name="Group 43065">
        <path id="Path_58479" data-name="Path 58479" d="M3577.213,6304.168a25.273,25.273,0,1,1-25.282,25.267A25.268,25.268,0,0,1,3577.213,6304.168Zm-2.571,33.963c0,1.849.01,3.7-.009,5.547,0,.415.13.544.539.537,1.332-.02,2.665-.026,4,0,.479.011.61-.14.608-.614-.018-3.651-.01-7.3-.01-10.954,0-.645,0-.647.648-.647,3.667,0,7.335-.008,11,.007.436,0,.569-.135.562-.561-.021-1.316-.006-2.633-.008-3.949,0-.623,0-.625-.631-.625h-10.955c-.615,0-.617,0-.618-.617,0-3.667-.007-7.334.01-11,0-.457-.141-.595-.588-.587-1.316.023-2.633.026-3.949,0-.472-.01-.611.137-.608.615.019,3.667,0,7.334.021,11,0,.484-.14.6-.609.6-3.667-.018-7.334,0-11-.02-.48,0-.624.145-.614.615.026,1.285.008,2.57.009,3.855,0,.664,0,.666.676.666,3.652,0,7.3.008,10.955-.007.454,0,.589.137.583.589C3574.628,6334.432,3574.642,6336.282,3574.642,6338.131Z" fill="#f1f1f1"/>
        <path id="Path_58480" data-name="Path 58480" d="M3601.826,6344.826c.077-.161.126-.27.18-.377.676-1.341,1.365-2.677,2.02-4.028a.638.638,0,0,1,.667-.436c2.743.013,5.485.009,8.228.006a2.421,2.421,0,0,0,2.681-2.628c.167-4.117.36-8.233.534-12.35.115-2.708.208-5.417.323-8.125.172-4.053.358-8.107.534-12.16q.188-4.3.367-8.594a2.33,2.33,0,0,0-2.034-2.467,5.767,5.767,0,0,0-.842-.052q-37.285,0-74.571,0a5.789,5.789,0,0,0-.843.053,2.317,2.317,0,0,0-2.023,2.43q.277,6.693.565,13.384.278,6.528.553,13.054.324,7.583.653,15.167a2.36,2.36,0,0,0,2.492,2.286c2.774.009,5.548.013,8.322-.008a.748.748,0,0,1,.8.53c.614,1.3,1.283,2.577,1.931,3.863.068.134.138.266.244.468-.277.013-.474.029-.671.03q-5.361,0-10.721,0a7.215,7.215,0,0,1-7.312-7.018c-.175-4.164-.337-8.328-.51-12.492q-.282-6.786-.572-13.571c-.218-5.15-.446-10.3-.65-15.449a7.119,7.119,0,0,1,5.908-7.482c.449-.088.536-.257.533-.669-.015-2.946-.008-5.893-.008-8.839a11.042,11.042,0,0,1,7.129-10.473,10.273,10.273,0,0,1,3.762-.728q12.177-.01,24.355,0a11.026,11.026,0,0,1,10.448,8c.136.46.343.561.781.56q11.213-.016,22.427-.007a8.036,8.036,0,0,1,7.874,5.568,10.563,10.563,0,0,1,.414,2.536c.069,1.14.032,2.288.01,3.431-.008.384.1.535.5.614a7.043,7.043,0,0,1,5.865,6.051,15.507,15.507,0,0,1,.033,2.907c-.137,3.6-.3,7.2-.453,10.8q-.309,7.208-.62,14.416c-.114,2.692-.211,5.385-.328,8.077-.106,2.441-.162,4.887-.361,7.321a7.07,7.07,0,0,1-6.964,6.439c-3.73.043-7.46.01-11.19.009C3602.145,6344.87,3602.012,6344.845,3601.826,6344.826Zm-24.612-56.1h31.778c.47,0,.94-.017,1.41,0,.371.017.491-.133.486-.5-.015-1.175.023-2.351-.021-3.525a3.257,3.257,0,0,0-.324-1.305,3.118,3.118,0,0,0-3.015-1.78q-12.5.006-25.009,0a2.431,2.431,0,0,1-2.686-2.542,6.285,6.285,0,0,0-6.413-6.03c-7.866.068-15.732.022-23.6.024a6.128,6.128,0,0,0-6.3,6.292v8.509c0,.848,0,.849.831.849Z" fill="#f1f1f1"/>
      </g>
    </g>
  </g>
</svg>
