<svg xmlns="http://www.w3.org/2000/svg" xmlns:xlink="http://www.w3.org/1999/xlink" width="242.931" height="242.935" viewBox="0 0 242.931 242.935">
  <defs>
    <clipPath id="clip-path">
      <path id="Path_57464" data-name="Path 57464" d="M4872.305,6305.082a121.466,121.466,0,1,1-121.464-121.468A121.463,121.463,0,0,1,4872.305,6305.082Z" fill="none"/>
    </clipPath>
  </defs>
  <g id="masterIcon" transform="translate(-4629.374 -6183.614)">
    <g id="Group_42706" data-name="Group 42706">
      <path id="Path_57461" data-name="Path 57461" d="M4872.305,6305.082a121.466,121.466,0,1,1-121.464-121.468A121.463,121.463,0,0,1,4872.305,6305.082Z" fill="#e5f8fd"/>
      <g id="Group_42705" data-name="Group 42705">
        <g id="Group_42704" data-name="Group 42704" clip-path="url(#clip-path)">
          <path id="Path_57462" data-name="Path 57462" d="M4854.613,6216.249l-232.061,210.3,355.333,29Z" fill="#00b5f6" opacity="0.19"/>
          <path id="Path_57463" data-name="Path 57463" d="M4869.116,6415.671l-217.559-199.422-90.645,148.661,148.657,94.27Z" fill="#00b5f6" opacity="0.19"/>
        </g>
      </g>
    </g>
    <path id="Path_57465" data-name="Path 57465" d="M4691.4,6248.426a83.99,83.99,0,1,1,0,118.779A83.992,83.992,0,0,1,4691.4,6248.426Z" fill="#2e3191"/>
    <g id="icon">
      <g id="Group_43071" data-name="Group 43071">
        <path id="Path_58501" data-name="Path 58501" d="M4696.608,6331.373a2.651,2.651,0,0,1,2.531-1.111c1.889.069,3.788-.059,5.673.059a3.1,3.1,0,0,1,2.081.863c1.692,2.206,3.8,2.806,6.52,2.652,4.1-.233,8.22-.064,12.331-.059,1.72,0,2.306.576,2.307,2.276,0,6.549-.018,13.1.022,19.648a2.745,2.745,0,0,1-1.112,2.531h-30.353Zm27.872,23.313v-17.417c-4.114,0-8.16-.182-12.181.06-2.967.179-5.335-.461-7.093-2.935a1.364,1.364,0,0,0-.852-.586c-1.4-.062-2.8-.027-4.2-.027v20.905Z" fill="#f1f1f1"/>
        <path id="Path_58502" data-name="Path 58502" d="M4737.879,6358.232a2.738,2.738,0,0,1-1.111-2.53c.037-7.642.019-15.283.02-22.925,0-2,.506-2.494,2.525-2.495,1.892,0,3.789-.079,5.674.039a3.1,3.1,0,0,1,2.083.86c1.693,2.2,3.794,2.813,6.519,2.655,4.062-.235,8.148-.062,12.223-.06,1.869,0,2.419.541,2.42,2.384,0,6.513-.019,13.027.021,19.54a2.748,2.748,0,0,1-1.112,2.532Zm26.808-20.963c-4.131,0-8.145-.189-12.131.062-3.008.19-5.4-.462-7.193-2.96a1.351,1.351,0,0,0-.861-.565c-1.37-.06-2.745-.026-4.155-.026v20.881h24.34Z" fill="#f1f1f1"/>
        <path id="Path_58503" data-name="Path 58503" d="M4778.059,6358.232a2.738,2.738,0,0,1-1.112-2.53c.038-7.642.02-15.283.021-22.925,0-2,.506-2.494,2.525-2.495,1.892,0,3.789-.079,5.674.039a3.1,3.1,0,0,1,2.083.86c1.692,2.2,3.794,2.813,6.519,2.655,4.062-.235,8.148-.062,12.223-.06,1.869,0,2.419.541,2.419,2.384,0,6.513-.019,13.027.021,19.54a2.745,2.745,0,0,1-1.111,2.532Zm26.807-20.963c-4.075,0-8.081-.175-12.063.057-3.024.177-5.494-.405-7.29-2.984a1.322,1.322,0,0,0-.873-.539c-1.366-.057-2.736-.025-4.1-.025v20.907h24.324Z" fill="#f1f1f1"/>
        <path id="Path_58504" data-name="Path 58504" d="M4754.258,6302.33c0,2.933-.015,5.729.024,8.524,0,.266.314.563.541.785a14.658,14.658,0,0,1,2.153,2.088,1.567,1.567,0,0,0,1.528.844q16.646-.026,33.293-.012c2.171,0,2.639.462,2.64,2.6,0,2.474,0,4.948,0,7.423,0,1.382-.644,2.182-1.728,2.195s-1.755-.793-1.762-2.159c-.011-2.074-.009-4.148-.016-6.222a1.57,1.57,0,0,0-.08-.3c-.32-.016-.67-.047-1.02-.047q-15.664-.005-31.329-.015a1.524,1.524,0,0,0-1.523.851,6.459,6.459,0,0,1-1.989,1.945,1.324,1.324,0,0,0-.743,1.367c.047.907.034,1.819,0,2.728a1.743,1.743,0,1,1-3.48,0,6.937,6.937,0,0,1,0-.982c.138-1.545.171-3-1.645-3.725a1.956,1.956,0,0,1-.927-1.038c-.4-1.027-1.121-1.155-2.117-1.151-10.188.036-20.376.022-30.565.022h-1.437v5.7c0,.328.006.655,0,.983-.028,1.27-.713,2.06-1.769,2.045s-1.715-.8-1.72-2.091q-.016-3.929,0-7.859c0-1.7.585-2.268,2.313-2.269q16.7,0,33.4.014a1.676,1.676,0,0,0,1.807-.946,4.725,4.725,0,0,1,1.83-1.794,1.442,1.442,0,0,0,.837-1.53c-.03-2.613-.012-5.226-.012-7.974h-1.235q-9.606,0-19.212,0c-3.626,0-5.751-2.136-5.756-5.771,0-2.038,0-4.075,0-6.113a5.078,5.078,0,0,1,2.917-4.961c.8-.393.543-1,.568-1.567.024-.55.136-1.081-.595-1.441a5,5,0,0,1-2.884-4.76c-.021-2.219-.017-4.439,0-6.659a4.987,4.987,0,0,1,2.871-4.767c.791-.389.6-.966.613-1.542.015-.592.121-1.134-.653-1.518a4.95,4.95,0,0,1-2.828-4.683c-.025-2.292-.03-4.585,0-6.877a5.188,5.188,0,0,1,5.295-5.234q22.652-.024,45.3,0a5.191,5.191,0,0,1,5.292,5.349c.022,2.219.017,4.439,0,6.658a5.06,5.06,0,0,1-2.927,4.849c-.693.341-.592.843-.547,1.351.048.55-.3,1.185.518,1.587a5.149,5.149,0,0,1,2.962,5.051c-.01,2.146.016,4.293-.008,6.44a5.008,5.008,0,0,1-2.883,4.764c-.8.392-.585.978-.594,1.546-.008.54-.171,1.081.575,1.448a5.051,5.051,0,0,1,2.9,4.861c.011,2.183.016,4.366,0,6.549a5.217,5.217,0,0,1-5.43,5.436c-6.477.016-12.954,0-19.431,0Zm-1.639-52.408q-11.19,0-22.381,0c-1.57,0-2.176.611-2.183,2.18-.009,2.074-.013,4.148,0,6.223.01,1.427.644,2.072,2.07,2.072q22.38.01,44.762,0c1.426,0,2.063-.645,2.074-2.07.016-2,.007-4,0-6,0-1.857-.545-2.4-2.4-2.4Q4763.592,6249.92,4752.619,6249.922Zm-.109,19.216q-11.136,0-22.273,0c-1.569,0-2.175.611-2.182,2.179-.009,2.075-.013,4.149,0,6.224.01,1.427.644,2.071,2.07,2.072q22.381.009,44.763,0c1.425,0,2.062-.646,2.073-2.071.016-2,.007-4,0-6,0-1.857-.545-2.4-2.4-2.4Q4763.536,6269.136,4752.51,6269.138Zm-.025,29.7q11.136,0,22.273,0c1.581,0,2.2-.608,2.207-2.159q.015-3.111,0-6.223c-.01-1.441-.635-2.092-2.05-2.093q-22.381-.01-44.763,0c-1.476,0-2.087.643-2.1,2.156-.01,1.892,0,3.784,0,5.677,0,2.174.463,2.645,2.6,2.645Zm-13.9-33.264h27.856v-1.618h-27.856Zm0,19.214h27.856v-1.615h-27.856Zm13.878,33.259a1.74,1.74,0,1,0-1.688-1.762A1.76,1.76,0,0,0,4752.459,6318.045ZM4735,6263.951h-3.386v1.622H4735Zm35,1.626h3.4v-1.592H4770Zm-34.975,17.619h-3.4v1.579h3.4Zm38.4-.021h-3.37v1.607h3.37Z" fill="#f1f1f1"/>
        <path id="Path_58505" data-name="Path 58505" d="M4764.729,6253.411a1.738,1.738,0,1,1-1.742-1.734A1.758,1.758,0,0,1,4764.729,6253.411Z" fill="#f1f1f1"/>
        <path id="Path_58506" data-name="Path 58506" d="M4768.193,6251.677a1.739,1.739,0,1,1-1.7,1.776A1.756,1.756,0,0,1,4768.193,6251.677Z" fill="#f1f1f1"/>
        <path id="Path_58507" data-name="Path 58507" d="M4773.434,6251.677a1.739,1.739,0,1,1-1.7,1.776A1.756,1.756,0,0,1,4773.434,6251.677Z" fill="#f1f1f1"/>
        <path id="Path_58508" data-name="Path 58508" d="M4764.729,6272.668a1.738,1.738,0,1,1-1.7-1.774A1.76,1.76,0,0,1,4764.729,6272.668Z" fill="#f1f1f1"/>
        <path id="Path_58509" data-name="Path 58509" d="M4768.249,6274.37a1.738,1.738,0,1,1,1.721-1.757A1.755,1.755,0,0,1,4768.249,6274.37Z" fill="#f1f1f1"/>
        <path id="Path_58510" data-name="Path 58510" d="M4775.211,6272.676a1.739,1.739,0,1,1-1.694-1.782A1.761,1.761,0,0,1,4775.211,6272.676Z" fill="#f1f1f1"/>
        <path id="Path_58511" data-name="Path 58511" d="M4762.972,6290.11a1.739,1.739,0,1,1-1.718,1.756A1.755,1.755,0,0,1,4762.972,6290.11Z" fill="#f1f1f1"/>
        <path id="Path_58512" data-name="Path 58512" d="M4769.97,6291.843a1.738,1.738,0,1,1-1.743-1.733A1.759,1.759,0,0,1,4769.97,6291.843Z" fill="#f1f1f1"/>
        <path id="Path_58513" data-name="Path 58513" d="M4775.211,6291.844a1.738,1.738,0,1,1-1.742-1.734A1.759,1.759,0,0,1,4775.211,6291.844Z" fill="#f1f1f1"/>
      </g>
    </g>
  </g>
</svg>
