<svg id="MCI_white" xmlns="http://www.w3.org/2000/svg" width="54.411" height="54.377" viewBox="0 0 54.411 54.377">
  <path id="Path_58590" data-name="Path 58590" d="M5117.546,6250.91h16.365v1.76h-.749q-7.012,0-14.023-.008a.913.913,0,0,0-.9.477c-1.666,2.63-3.359,5.243-5.043,7.863-.094.147-.181.3-.272.452.672.467,1.339.9,1.966,1.379a1.694,1.694,0,0,0,1.112.38q8.552-.018,17.1-.008c1.381,0,2.763-.021,4.144,0a4.364,4.364,0,0,1,4.517,4.533q.017,13.89-.016,27.779a4.891,4.891,0,0,1-.458,2.044,4.293,4.293,0,0,1-4.218,2.482c-3.488-.009-6.976,0-10.464,0-.2,0-.409.018-.645.029,0,.985.037,1.906-.014,2.823-.03.554.148.694.68.67.931-.043,1.865-.012,2.82-.012v1.73h-29.75v-1.746h3.433v-3.5h-.657c-3.452,0-6.9-.007-10.357,0a4.728,4.728,0,0,1-3.2-1.054,4.871,4.871,0,0,1-1.559-2.817v-29.117a1.264,1.264,0,0,0,.077-.2,4.3,4.3,0,0,1,4.26-3.644c1.343-.052,2.689,0,4.033-.03a1.493,1.493,0,0,0,.812-.279,14.666,14.666,0,0,1,14.224-2.332.571.571,0,0,0,.8-.278c1.907-3,3.835-5.985,5.754-8.976A4.529,4.529,0,0,0,5117.546,6250.91Zm-.284,33.394h5.23v5.177h1.754v-8.686h5.255v8.67h1.765V6275.5h5.244v14.015h1.726v1.745c-.13.008-.233.02-.336.02q-11.262,0-22.525-.013a.852.852,0,0,1-.591-.315c-.751-1-1.47-2.031-2.222-3.084a14.71,14.71,0,0,1-9.192,1.433,13.626,13.626,0,0,1-8.212-4.308c-5.676-6.4-5.587-13.131-.867-20.051-.67,0-1.36.039-2.045-.007a2.822,2.822,0,0,0-3.137,3.133c.049,7.508.019,15.017.019,22.525v.688h.627c2.515,0,5.034.1,7.542-.032a6.393,6.393,0,0,1,4.837,1.479,1.507,1.507,0,0,0,.922.281q18.169.021,36.339.012h.585c.015-.207.034-.345.034-.482q0-12.353,0-24.7a2.656,2.656,0,0,0-2.923-2.89q-9.7,0-19.392,0c-.146,0-.294.021-.457.033a26.017,26.017,0,0,1,1.464,2.2q4.611,8.714-1.223,16.687a2.478,2.478,0,0,0-.207.446c-.051,0-.119-.012-.148.016-.978.908-1.95,1.82-2.948,2.754-.012-.037-.009,0,.01.028q.61.864,1.224,1.727c.527.74.852.849,1.8.572,0-.5,0-1.007,0-1.516C5117.227,6286.7,5117.245,6285.5,5117.262,6284.3Zm-28.135,8.719c0,.8,0,1.535,0,2.273a2.691,2.691,0,0,0,3.021,3h12.778v5.219H5124.2v-3.479h-17.491v-1.74h30.139c.212,0,.425.005.637-.008a2.708,2.708,0,0,0,2.43-3.5h-.672c-11.511,0-23.023-.036-34.534.037a6.741,6.741,0,0,1-4.92-1.526.129.129,0,0,0-.044-.027,3.142,3.142,0,0,0-.837-.241c-3.063-.018-6.127-.012-9.19-.012Zm15.757-31.479a13.08,13.08,0,0,0,0,26.1Zm2.668,13.061,10.042,5.8a13.094,13.094,0,0,0-.005-11.589Zm-.843-1.541,10-5.774a13.139,13.139,0,0,0-4.781-4.3l-1.009,1.557-1.456-.942.877-1.432-3.63-.757Zm.01,3.089v11.5a10.113,10.113,0,0,0,4.755-1.3l-1.117-1.6,1.416-1.012,1.3,1.8a12.954,12.954,0,0,0,3.641-3.626Zm28,13.335v-12.216h-1.692v12.216Zm-8.719-6.964v6.95h1.694v-6.95Zm-5.324,6.96v-3.431h-1.688v3.431Z" transform="translate(-5087.367 -6250.91)" fill="#fff"/>
  <path id="Path_58591" data-name="Path 58591" d="M5152.139,6259.664v-1.688h13.97v1.688Z" transform="translate(-5119.63 -6254.43)" fill="#fff"/>
  <path id="Path_58592" data-name="Path 58592" d="M5152.142,6266.659v-1.685H5162.6v1.685Z" transform="translate(-5119.632 -6257.916)" fill="#fff"/>
  <path id="Path_58593" data-name="Path 58593" d="M5178.283,6266.656h-1.715v-1.694h1.715Z" transform="translate(-5131.798 -6257.909)" fill="#fff"/>
  <path id="Path_58594" data-name="Path 58594" d="M5094.417,6338.384h1.7v1.679h-1.7Z" transform="translate(-5090.879 -6294.481)" fill="#fff"/>
  <path id="Path_58595" data-name="Path 58595" d="M5103.109,6340.1h-1.688v-1.67h1.688Z" transform="translate(-5094.367 -6294.504)" fill="#fff"/>
  <path id="Path_58596" data-name="Path 58596" d="M5110.1,6340.085h-1.71v-1.679h1.71Z" transform="translate(-5097.841 -6294.492)" fill="#fff"/>
  <path id="Path_58597" data-name="Path 58597" d="M5104.916,6291.134v-1.666h6.964v1.666Z" transform="translate(-5096.108 -6270.116)" fill="#fff"/>
  <path id="Path_58598" data-name="Path 58598" d="M5111.889,6298.126h-6.963v-1.672h6.963Z" transform="translate(-5096.113 -6273.596)" fill="#fff"/>
  <path id="Path_58599" data-name="Path 58599" d="M5111.88,6305.124h-6.947v-1.675h6.947Z" transform="translate(-5096.117 -6277.08)" fill="#fff"/>
</svg>
