<svg xmlns="http://www.w3.org/2000/svg" xmlns:xlink="http://www.w3.org/1999/xlink" width="242.931" height="242.935" viewBox="0 0 242.931 242.935">
  <defs>
    <clipPath id="clip-path">
      <path id="Path_58518" data-name="Path 58518" d="M5263.038,6305.082a121.466,121.466,0,1,1-121.464-121.468A121.463,121.463,0,0,1,5263.038,6305.082Z" fill="none"/>
    </clipPath>
  </defs>
  <g id="MCIcon" transform="translate(-5020.107 -6183.614)">
    <g id="Group_43075" data-name="Group 43075">
      <path id="Path_58515" data-name="Path 58515" d="M5263.038,6305.082a121.466,121.466,0,1,1-121.464-121.468A121.463,121.463,0,0,1,5263.038,6305.082Z" fill="#e5f8fd"/>
      <g id="Group_43074" data-name="Group 43074">
        <g id="Group_43073" data-name="Group 43073" clip-path="url(#clip-path)">
          <path id="Path_58516" data-name="Path 58516" d="M5245.346,6216.249l-232.061,210.3,355.333,29Z" fill="#00b5f6" opacity="0.19"/>
          <path id="Path_58517" data-name="Path 58517" d="M5259.849,6415.671l-217.559-199.422-90.646,148.661,148.657,94.27Z" fill="#00b5f6" opacity="0.19"/>
        </g>
      </g>
    </g>
    <path id="Path_58519" data-name="Path 58519" d="M5082.136,6248.426a83.989,83.989,0,1,1,0,118.779A83.991,83.991,0,0,1,5082.136,6248.426Z" fill="#2e3191"/>
    <g id="icon">
      <g id="Group_43088" data-name="Group 43088">
        <g id="Group_43087" data-name="Group 43087">
          <g id="Group_43084" data-name="Group 43084">
            <path id="Path_58550" data-name="Path 58550" d="M5147.5,6250.91H5180.1v3.507h-1.492q-13.971,0-27.94-.016a1.822,1.822,0,0,0-1.784.949c-3.319,5.241-6.693,10.447-10.048,15.666-.188.293-.36.6-.542.9,1.339.93,2.669,1.787,3.918,2.749a3.378,3.378,0,0,0,2.215.757q17.038-.037,34.078-.016c2.752,0,5.5-.041,8.255.01,5.32.1,8.992,3.755,9,9.031q.034,27.675-.031,55.35a9.742,9.742,0,0,1-.913,4.071c-1.664,3.457-4.61,4.957-8.4,4.946-6.95-.019-13.9-.006-20.849,0-.408,0-.815.035-1.285.057,0,1.963.074,3.8-.027,5.625-.061,1.1.3,1.384,1.354,1.336,1.854-.086,3.716-.024,5.619-.024v3.447h-59.276v-3.478h6.841v-6.966h-1.308c-6.879,0-13.758-.014-20.637.008a9.419,9.419,0,0,1-6.372-2.1,9.7,9.7,0,0,1-3.106-5.613v-58.013a2.532,2.532,0,0,0,.154-.39,8.569,8.569,0,0,1,8.487-7.261c2.675-.1,5.359,0,8.037-.06a2.969,2.969,0,0,0,1.617-.556q12.963-9.755,28.34-4.647a1.136,1.136,0,0,0,1.6-.553c3.8-5.975,7.641-11.924,11.465-17.884A9.253,9.253,0,0,0,5147.5,6250.91Zm-.567,66.535h10.421v10.314h3.5v-17.3h10.471v17.275h3.516v-27.82h10.448v27.925h3.439v3.476c-.259.016-.464.039-.67.039q-22.44,0-44.881-.025a1.7,1.7,0,0,1-1.177-.628c-1.5-2-2.928-4.048-4.427-6.146a29.3,29.3,0,0,1-18.314,2.856,27.144,27.144,0,0,1-16.363-8.583c-11.309-12.747-11.131-26.163-1.728-39.95-1.335,0-2.71.077-4.073-.015-3.4-.229-6.279,1.848-6.25,6.242.1,14.959.037,29.92.037,44.881v1.37h1.248c5.011,0,10.031.195,15.028-.065,3.672-.191,6.847.509,9.638,2.947a3,3,0,0,0,1.838.56q36.2.04,72.4.023h1.166c.029-.411.066-.686.066-.961q0-24.612,0-49.222c0-3.653-2.159-5.756-5.824-5.758q-19.318-.007-38.637,0c-.292,0-.585.042-.91.067a51.822,51.822,0,0,1,2.917,4.385q9.188,17.364-2.436,33.247a4.952,4.952,0,0,0-.412.889c-.1.009-.237-.023-.295.031-1.947,1.809-3.886,3.626-5.874,5.488-.024-.074-.018,0,.02.056q1.217,1.722,2.439,3.439c1.05,1.476,1.7,1.691,3.587,1.14,0-.991-.009-2.006,0-3.02C5146.861,6322.213,5146.9,6319.829,5146.93,6317.445Zm-56.056,17.372c0,1.586,0,3.057,0,4.528.015,3.937,2.074,5.986,6.021,5.987q12.067,0,24.135,0h1.324v10.4h38.4V6348.8h-34.849v-3.468h60.05c.423,0,.848.011,1.27-.017a5.4,5.4,0,0,0,4.841-6.973h-1.34c-22.936,0-45.871-.072-68.806.073-3.735.024-7-.509-9.8-3.04a.251.251,0,0,0-.089-.055,6.3,6.3,0,0,0-1.667-.481c-6.1-.035-12.208-.022-18.312-.022Zm31.394-62.722c-12.415.44-25.339,11.74-24.32,27.793.91,14.32,13.138,23.977,24.32,24.22Zm5.316,26.023,20.008,11.548a26.088,26.088,0,0,0-.011-23.092Zm-1.68-3.07,19.921-11.506a26.182,26.182,0,0,0-9.525-8.567l-2.011,3.1-2.9-1.876,1.749-2.853-7.232-1.507Zm.02,6.154v22.921c2.606.129,8.011-1.354,9.474-2.587l-2.226-3.18,2.82-2.017,2.583,3.582a25.808,25.808,0,0,0,7.255-7.225Zm55.8,26.568v-24.339h-3.372v24.339Zm-17.373-13.875v13.848h3.376V6313.9Zm-10.607,13.868v-6.836h-3.365v6.836Z" fill="#1b1477"/>
            <path id="Path_58551" data-name="Path 58551" d="M5152.139,6261.34v-3.364h27.834v3.364Z" fill="#1b1477"/>
            <path id="Path_58552" data-name="Path 58552" d="M5152.142,6268.332v-3.358h20.834v3.358Z" fill="#1b1477"/>
            <path id="Path_58553" data-name="Path 58553" d="M5179.986,6268.337h-3.418v-3.375h3.418Z" fill="#1b1477"/>
            <path id="Path_58554" data-name="Path 58554" d="M5094.417,6338.384h3.387v3.345h-3.387Z" fill="#1b1477"/>
            <path id="Path_58555" data-name="Path 58555" d="M5104.785,6341.757h-3.364v-3.328h3.364Z" fill="#1b1477"/>
            <path id="Path_58556" data-name="Path 58556" d="M5111.8,6341.751H5108.4v-3.345h3.407Z" fill="#1b1477"/>
            <path id="Path_58557" data-name="Path 58557" d="M5104.916,6292.787v-3.319h13.876v3.319Z" fill="#1b1477"/>
            <path id="Path_58558" data-name="Path 58558" d="M5118.8,6299.786h-13.873v-3.332H5118.8Z" fill="#1b1477"/>
            <path id="Path_58559" data-name="Path 58559" d="M5118.774,6306.786h-13.841v-3.337h13.841Z" fill="#1b1477"/>
          </g>
          <g id="Group_43085" data-name="Group 43085">
            <path id="Path_58560" data-name="Path 58560" d="M5147.5,6250.91H5180.1v3.507h-1.492q-13.971,0-27.94-.016a1.822,1.822,0,0,0-1.784.949c-3.319,5.241-6.693,10.447-10.048,15.666-.188.293-.36.6-.542.9,1.339.93,2.669,1.787,3.918,2.749a3.378,3.378,0,0,0,2.215.757q17.038-.037,34.078-.016c2.752,0,5.5-.041,8.255.01,5.32.1,8.992,3.755,9,9.031q.034,27.675-.031,55.35a9.742,9.742,0,0,1-.913,4.071c-1.664,3.457-4.61,4.957-8.4,4.946-6.95-.019-13.9-.006-20.849,0-.408,0-.815.035-1.285.057,0,1.963.074,3.8-.027,5.625-.061,1.1.3,1.384,1.354,1.336,1.854-.086,3.716-.024,5.619-.024v3.447h-59.276v-3.478h6.841v-6.966h-1.308c-6.879,0-13.758-.014-20.637.008a9.419,9.419,0,0,1-6.372-2.1,9.7,9.7,0,0,1-3.106-5.613v-58.013a2.532,2.532,0,0,0,.154-.39,8.569,8.569,0,0,1,8.487-7.261c2.675-.1,5.359,0,8.037-.06a2.969,2.969,0,0,0,1.617-.556q12.963-9.755,28.34-4.647a1.136,1.136,0,0,0,1.6-.553c3.8-5.975,7.641-11.924,11.465-17.884A9.253,9.253,0,0,0,5147.5,6250.91Zm-.567,66.535h10.421v10.314h3.5v-17.3h10.471v17.275h3.516v-27.82h10.448v27.925h3.439v3.476c-.259.016-.464.039-.67.039q-22.44,0-44.881-.025a1.7,1.7,0,0,1-1.177-.628c-1.5-2-2.928-4.048-4.427-6.146a29.3,29.3,0,0,1-18.314,2.856,27.144,27.144,0,0,1-16.363-8.583c-11.309-12.747-11.131-26.163-1.728-39.95-1.335,0-2.71.077-4.073-.015-3.4-.229-6.279,1.848-6.25,6.242.1,14.959.037,29.92.037,44.881v1.37h1.248c5.011,0,10.031.195,15.028-.065,3.672-.191,6.847.509,9.638,2.947a3,3,0,0,0,1.838.56q36.2.04,72.4.023h1.166c.029-.411.066-.686.066-.961q0-24.612,0-49.222c0-3.653-2.159-5.756-5.824-5.758q-19.318-.007-38.637,0c-.292,0-.585.042-.91.067a51.822,51.822,0,0,1,2.917,4.385q9.188,17.364-2.436,33.247a4.952,4.952,0,0,0-.412.889c-.1.009-.237-.023-.295.031-1.947,1.809-3.886,3.626-5.874,5.488-.024-.074-.018,0,.02.056q1.217,1.722,2.439,3.439c1.05,1.476,1.7,1.691,3.587,1.14,0-.991-.009-2.006,0-3.02C5146.861,6322.213,5146.9,6319.829,5146.93,6317.445Zm-56.056,17.372c0,1.586,0,3.057,0,4.528.015,3.937,2.074,5.986,6.021,5.987q12.067,0,24.135,0h1.324v10.4h38.4V6348.8h-34.849v-3.468h60.05c.423,0,.848.011,1.27-.017a5.4,5.4,0,0,0,4.841-6.973h-1.34c-22.936,0-45.871-.072-68.806.073-3.735.024-7-.509-9.8-3.04a.251.251,0,0,0-.089-.055,6.3,6.3,0,0,0-1.667-.481c-6.1-.035-12.208-.022-18.312-.022Zm31.394-62.722c-12.415.44-25.339,11.74-24.32,27.793.91,14.32,13.138,23.977,24.32,24.22Zm5.316,26.023,20.008,11.548a26.088,26.088,0,0,0-.011-23.092Zm-1.68-3.07,19.921-11.506a26.182,26.182,0,0,0-9.525-8.567l-2.011,3.1-2.9-1.876,1.749-2.853-7.232-1.507Zm.02,6.154v22.921c2.606.129,8.011-1.354,9.474-2.587l-2.226-3.18,2.82-2.017,2.583,3.582a25.808,25.808,0,0,0,7.255-7.225Zm55.8,26.568v-24.339h-3.372v24.339Zm-17.373-13.875v13.848h3.376V6313.9Zm-10.607,13.868v-6.836h-3.365v6.836Z" fill="#1b1477"/>
            <path id="Path_58561" data-name="Path 58561" d="M5152.139,6261.34v-3.364h27.834v3.364Z" fill="#1b1477"/>
            <path id="Path_58562" data-name="Path 58562" d="M5152.142,6268.332v-3.358h20.834v3.358Z" fill="#1b1477"/>
            <path id="Path_58563" data-name="Path 58563" d="M5179.986,6268.337h-3.418v-3.375h3.418Z" fill="#1b1477"/>
            <path id="Path_58564" data-name="Path 58564" d="M5094.417,6338.384h3.387v3.345h-3.387Z" fill="#1b1477"/>
            <path id="Path_58565" data-name="Path 58565" d="M5104.785,6341.757h-3.364v-3.328h3.364Z" fill="#1b1477"/>
            <path id="Path_58566" data-name="Path 58566" d="M5111.8,6341.751H5108.4v-3.345h3.407Z" fill="#1b1477"/>
            <path id="Path_58567" data-name="Path 58567" d="M5104.916,6292.787v-3.319h13.876v3.319Z" fill="#1b1477"/>
            <path id="Path_58568" data-name="Path 58568" d="M5118.8,6299.786h-13.873v-3.332H5118.8Z" fill="#1b1477"/>
            <path id="Path_58569" data-name="Path 58569" d="M5118.774,6306.786h-13.841v-3.337h13.841Z" fill="#1b1477"/>
          </g>
          <g id="Group_43086" data-name="Group 43086">
            <path id="Path_58570" data-name="Path 58570" d="M5147.5,6250.91H5180.1v3.507h-1.492q-13.971,0-27.94-.016a1.822,1.822,0,0,0-1.784.949c-3.319,5.241-6.693,10.447-10.048,15.666-.188.293-.36.6-.542.9,1.339.93,2.669,1.787,3.918,2.749a3.378,3.378,0,0,0,2.215.757q17.038-.037,34.078-.016c2.752,0,5.5-.041,8.255.01,5.32.1,8.992,3.755,9,9.031q.034,27.675-.031,55.35a9.742,9.742,0,0,1-.913,4.071c-1.664,3.457-4.61,4.957-8.4,4.946-6.95-.019-13.9-.006-20.849,0-.408,0-.815.035-1.285.057,0,1.963.074,3.8-.027,5.625-.061,1.1.3,1.384,1.354,1.336,1.854-.086,3.716-.024,5.619-.024v3.447h-59.276v-3.478h6.841v-6.966h-1.308c-6.879,0-13.758-.014-20.637.008a9.419,9.419,0,0,1-6.372-2.1,9.7,9.7,0,0,1-3.106-5.613v-58.013a2.532,2.532,0,0,0,.154-.39,8.569,8.569,0,0,1,8.487-7.261c2.675-.1,5.359,0,8.037-.06a2.969,2.969,0,0,0,1.617-.556q12.963-9.755,28.34-4.647a1.136,1.136,0,0,0,1.6-.553c3.8-5.975,7.641-11.924,11.465-17.884A9.253,9.253,0,0,0,5147.5,6250.91Zm-.567,66.535h10.421v10.314h3.5v-17.3h10.471v17.275h3.516v-27.82h10.448v27.925h3.439v3.476c-.259.016-.464.039-.67.039q-22.44,0-44.881-.025a1.7,1.7,0,0,1-1.177-.628c-1.5-2-2.928-4.048-4.427-6.146a29.3,29.3,0,0,1-18.314,2.856,27.144,27.144,0,0,1-16.363-8.583c-11.309-12.747-11.131-26.163-1.728-39.95-1.335,0-2.71.077-4.073-.015-3.4-.229-6.279,1.848-6.25,6.242.1,14.959.037,29.92.037,44.881v1.37h1.248c5.011,0,10.031.195,15.028-.065,3.672-.191,6.847.509,9.638,2.947a3,3,0,0,0,1.838.56q36.2.04,72.4.023h1.166c.029-.411.066-.686.066-.961q0-24.612,0-49.222c0-3.653-2.159-5.756-5.824-5.758q-19.318-.007-38.637,0c-.292,0-.585.042-.91.067a51.822,51.822,0,0,1,2.917,4.385q9.188,17.364-2.436,33.247a4.952,4.952,0,0,0-.412.889c-.1.009-.237-.023-.295.031-1.947,1.809-3.886,3.626-5.874,5.488-.024-.074-.018,0,.02.056q1.217,1.722,2.439,3.439c1.05,1.476,1.7,1.691,3.587,1.14,0-.991-.009-2.006,0-3.02C5146.861,6322.213,5146.9,6319.829,5146.93,6317.445Zm-56.056,17.372c0,1.586,0,3.057,0,4.528.015,3.937,2.074,5.986,6.021,5.987q12.067,0,24.135,0h1.324v10.4h38.4V6348.8h-34.849v-3.468h60.05c.423,0,.848.011,1.27-.017a5.4,5.4,0,0,0,4.841-6.973h-1.34c-22.936,0-45.871-.072-68.806.073-3.735.024-7-.509-9.8-3.04a.251.251,0,0,0-.089-.055,6.3,6.3,0,0,0-1.667-.481c-6.1-.035-12.208-.022-18.312-.022Zm31.394-62.722c-12.415.44-25.339,11.74-24.32,27.793.91,14.32,13.138,23.977,24.32,24.22Zm5.316,26.023,20.008,11.548a26.088,26.088,0,0,0-.011-23.092Zm-1.68-3.07,19.921-11.506a26.182,26.182,0,0,0-9.525-8.567l-2.011,3.1-2.9-1.876,1.749-2.853-7.232-1.507Zm.02,6.154v22.921c2.606.129,8.011-1.354,9.474-2.587l-2.226-3.18,2.82-2.017,2.583,3.582a25.808,25.808,0,0,0,7.255-7.225Zm55.8,26.568v-24.339h-3.372v24.339Zm-17.373-13.875v13.848h3.376V6313.9Zm-10.607,13.868v-6.836h-3.365v6.836Z" fill="#1b1477"/>
            <path id="Path_58571" data-name="Path 58571" d="M5152.139,6261.34v-3.364h27.834v3.364Z" fill="#1b1477"/>
            <path id="Path_58572" data-name="Path 58572" d="M5152.142,6268.332v-3.358h20.834v3.358Z" fill="#1b1477"/>
            <path id="Path_58573" data-name="Path 58573" d="M5179.986,6268.337h-3.418v-3.375h3.418Z" fill="#1b1477"/>
            <path id="Path_58574" data-name="Path 58574" d="M5094.417,6338.384h3.387v3.345h-3.387Z" fill="#1b1477"/>
            <path id="Path_58575" data-name="Path 58575" d="M5104.785,6341.757h-3.364v-3.328h3.364Z" fill="#1b1477"/>
            <path id="Path_58576" data-name="Path 58576" d="M5111.8,6341.751H5108.4v-3.345h3.407Z" fill="#1b1477"/>
            <path id="Path_58577" data-name="Path 58577" d="M5104.916,6292.787v-3.319h13.876v3.319Z" fill="#1b1477"/>
            <path id="Path_58578" data-name="Path 58578" d="M5118.8,6299.786h-13.873v-3.332H5118.8Z" fill="#1b1477"/>
            <path id="Path_58579" data-name="Path 58579" d="M5118.774,6306.786h-13.841v-3.337h13.841Z" fill="#1b1477"/>
          </g>
        </g>
      </g>
      <g id="Group_43092" data-name="Group 43092">
        <g id="Group_43091" data-name="Group 43091">
          <g id="Group_43089" data-name="Group 43089">
            <path id="Path_58580" data-name="Path 58580" d="M5147.5,6250.91H5180.1v3.507h-1.492q-13.971,0-27.94-.016a1.822,1.822,0,0,0-1.784.949c-3.319,5.241-6.693,10.447-10.048,15.666-.188.293-.36.6-.542.9,1.339.93,2.669,1.787,3.918,2.749a3.378,3.378,0,0,0,2.215.757q17.038-.037,34.078-.016c2.752,0,5.5-.041,8.255.01,5.32.1,8.992,3.755,9,9.031q.034,27.675-.031,55.35a9.742,9.742,0,0,1-.913,4.071c-1.664,3.457-4.61,4.957-8.4,4.946-6.95-.019-13.9-.006-20.849,0-.408,0-.815.035-1.285.057,0,1.963.074,3.8-.027,5.625-.061,1.1.3,1.384,1.354,1.336,1.854-.086,3.716-.024,5.619-.024v3.447h-59.276v-3.478h6.841v-6.966h-1.308c-6.879,0-13.758-.014-20.637.008a9.419,9.419,0,0,1-6.372-2.1,9.7,9.7,0,0,1-3.106-5.613v-58.013a2.532,2.532,0,0,0,.154-.39,8.569,8.569,0,0,1,8.487-7.261c2.675-.1,5.359,0,8.037-.06a2.969,2.969,0,0,0,1.617-.556q12.963-9.755,28.34-4.647a1.136,1.136,0,0,0,1.6-.553c3.8-5.975,7.641-11.924,11.465-17.884A9.253,9.253,0,0,0,5147.5,6250.91Zm-.567,66.535h10.421v10.314h3.5v-17.3h10.471v17.275h3.516v-27.82h10.448v27.925h3.439v3.476c-.259.016-.464.039-.67.039q-22.44,0-44.881-.025a1.7,1.7,0,0,1-1.177-.628c-1.5-2-2.928-4.048-4.427-6.146a29.3,29.3,0,0,1-18.314,2.856,27.144,27.144,0,0,1-16.363-8.583c-11.309-12.747-11.131-26.163-1.728-39.95-1.335,0-2.71.077-4.073-.015-3.4-.229-6.279,1.848-6.25,6.242.1,14.959.037,29.92.037,44.881v1.37h1.248c5.011,0,10.031.195,15.028-.065,3.672-.191,6.847.509,9.638,2.947a3,3,0,0,0,1.838.56q36.2.04,72.4.023h1.166c.029-.411.066-.686.066-.961q0-24.612,0-49.222c0-3.653-2.159-5.756-5.824-5.758q-19.318-.007-38.637,0c-.292,0-.585.042-.91.067a51.822,51.822,0,0,1,2.917,4.385q9.188,17.364-2.436,33.247a4.952,4.952,0,0,0-.412.889c-.1.009-.237-.023-.295.031-1.947,1.809-3.886,3.626-5.874,5.488-.024-.074-.018,0,.02.056q1.217,1.722,2.439,3.439c1.05,1.476,1.7,1.691,3.587,1.14,0-.991-.009-2.006,0-3.02C5146.861,6322.213,5146.9,6319.829,5146.93,6317.445Zm-56.056,17.372c0,1.586,0,3.057,0,4.528.015,3.937,2.074,5.986,6.021,5.987q12.067,0,24.135,0h1.324v10.4h38.4V6348.8h-34.849v-3.468h60.05c.423,0,.848.011,1.27-.017a5.4,5.4,0,0,0,4.841-6.973h-1.34c-22.936,0-45.871-.072-68.806.073-3.735.024-7-.509-9.8-3.04a.251.251,0,0,0-.089-.055,6.3,6.3,0,0,0-1.667-.481c-6.1-.035-12.208-.022-18.312-.022Zm31.394-62.722c-12.415.44-25.339,11.74-24.32,27.793.91,14.32,13.138,23.977,24.32,24.22Zm5.316,26.023,20.008,11.548a26.088,26.088,0,0,0-.011-23.092Zm-1.68-3.07,19.921-11.506a26.182,26.182,0,0,0-9.525-8.567l-2.011,3.1-2.9-1.876,1.749-2.853-7.232-1.507Zm.02,6.154v22.921c2.606.129,8.011-1.354,9.474-2.587l-2.226-3.18,2.82-2.017,2.583,3.582a25.808,25.808,0,0,0,7.255-7.225Zm55.8,26.568v-24.339h-3.372v24.339Zm-17.373-13.875v13.848h3.376V6313.9Zm-10.607,13.868v-6.836h-3.365v6.836Z" fill="#1b1477"/>
            <path id="Path_58581" data-name="Path 58581" d="M5152.139,6261.34v-3.364h27.834v3.364Z" fill="#1b1477"/>
            <path id="Path_58582" data-name="Path 58582" d="M5152.142,6268.332v-3.358h20.834v3.358Z" fill="#1b1477"/>
            <path id="Path_58583" data-name="Path 58583" d="M5179.986,6268.337h-3.418v-3.375h3.418Z" fill="#1b1477"/>
            <path id="Path_58584" data-name="Path 58584" d="M5094.417,6338.384h3.387v3.345h-3.387Z" fill="#1b1477"/>
            <path id="Path_58585" data-name="Path 58585" d="M5104.785,6341.757h-3.364v-3.328h3.364Z" fill="#1b1477"/>
            <path id="Path_58586" data-name="Path 58586" d="M5111.8,6341.751H5108.4v-3.345h3.407Z" fill="#1b1477"/>
            <path id="Path_58587" data-name="Path 58587" d="M5104.916,6292.787v-3.319h13.876v3.319Z" fill="#1b1477"/>
            <path id="Path_58588" data-name="Path 58588" d="M5118.8,6299.786h-13.873v-3.332H5118.8Z" fill="#1b1477"/>
            <path id="Path_58589" data-name="Path 58589" d="M5118.774,6306.786h-13.841v-3.337h13.841Z" fill="#1b1477"/>
          </g>
          <g id="Group_43090" data-name="Group 43090">
            <path id="Path_58590" data-name="Path 58590" d="M5147.5,6250.91H5180.1v3.507h-1.492q-13.971,0-27.94-.016a1.822,1.822,0,0,0-1.784.949c-3.319,5.241-6.693,10.447-10.048,15.666-.188.293-.36.6-.542.9,1.339.93,2.669,1.787,3.918,2.749a3.378,3.378,0,0,0,2.215.757q17.038-.037,34.078-.016c2.752,0,5.5-.041,8.255.01,5.32.1,8.992,3.755,9,9.031q.034,27.675-.031,55.35a9.742,9.742,0,0,1-.913,4.071c-1.664,3.457-4.61,4.957-8.4,4.946-6.95-.019-13.9-.006-20.849,0-.408,0-.815.035-1.285.057,0,1.963.074,3.8-.027,5.625-.061,1.1.3,1.384,1.354,1.336,1.854-.086,3.716-.024,5.619-.024v3.447h-59.276v-3.478h6.841v-6.966h-1.308c-6.879,0-13.758-.014-20.637.008a9.419,9.419,0,0,1-6.372-2.1,9.7,9.7,0,0,1-3.106-5.613v-58.013a2.532,2.532,0,0,0,.154-.39,8.569,8.569,0,0,1,8.487-7.261c2.675-.1,5.359,0,8.037-.06a2.969,2.969,0,0,0,1.617-.556q12.963-9.755,28.34-4.647a1.136,1.136,0,0,0,1.6-.553c3.8-5.975,7.641-11.924,11.465-17.884A9.253,9.253,0,0,0,5147.5,6250.91Zm-.567,66.535h10.421v10.314h3.5v-17.3h10.471v17.275h3.516v-27.82h10.448v27.925h3.439v3.476c-.259.016-.464.039-.67.039q-22.44,0-44.881-.025a1.7,1.7,0,0,1-1.177-.628c-1.5-2-2.928-4.048-4.427-6.146a29.3,29.3,0,0,1-18.314,2.856,27.144,27.144,0,0,1-16.363-8.583c-11.309-12.747-11.131-26.163-1.728-39.95-1.335,0-2.71.077-4.073-.015-3.4-.229-6.279,1.848-6.25,6.242.1,14.959.037,29.92.037,44.881v1.37h1.248c5.011,0,10.031.195,15.028-.065,3.672-.191,6.847.509,9.638,2.947a3,3,0,0,0,1.838.56q36.2.04,72.4.023h1.166c.029-.411.066-.686.066-.961q0-24.612,0-49.222c0-3.653-2.159-5.756-5.824-5.758q-19.318-.007-38.637,0c-.292,0-.585.042-.91.067a51.822,51.822,0,0,1,2.917,4.385q9.188,17.364-2.436,33.247a4.952,4.952,0,0,0-.412.889c-.1.009-.237-.023-.295.031-1.947,1.809-3.886,3.626-5.874,5.488-.024-.074-.018,0,.02.056q1.217,1.722,2.439,3.439c1.05,1.476,1.7,1.691,3.587,1.14,0-.991-.009-2.006,0-3.02C5146.861,6322.213,5146.9,6319.829,5146.93,6317.445Zm-56.056,17.372c0,1.586,0,3.057,0,4.528.015,3.937,2.074,5.986,6.021,5.987q12.067,0,24.135,0h1.324v10.4h38.4V6348.8h-34.849v-3.468h60.05c.423,0,.848.011,1.27-.017a5.4,5.4,0,0,0,4.841-6.973h-1.34c-22.936,0-45.871-.072-68.806.073-3.735.024-7-.509-9.8-3.04a.251.251,0,0,0-.089-.055,6.3,6.3,0,0,0-1.667-.481c-6.1-.035-12.208-.022-18.312-.022Zm31.394-62.722c-12.415.44-25.339,11.74-24.32,27.793.91,14.32,13.138,23.977,24.32,24.22Zm5.316,26.023,20.008,11.548a26.088,26.088,0,0,0-.011-23.092Zm-1.68-3.07,19.921-11.506a26.182,26.182,0,0,0-9.525-8.567l-2.011,3.1-2.9-1.876,1.749-2.853-7.232-1.507Zm.02,6.154v22.921c2.606.129,8.011-1.354,9.474-2.587l-2.226-3.18,2.82-2.017,2.583,3.582a25.808,25.808,0,0,0,7.255-7.225Zm55.8,26.568v-24.339h-3.372v24.339Zm-17.373-13.875v13.848h3.376V6313.9Zm-10.607,13.868v-6.836h-3.365v6.836Z" fill="#fff"/>
            <path id="Path_58591" data-name="Path 58591" d="M5152.139,6261.34v-3.364h27.834v3.364Z" fill="#fff"/>
            <path id="Path_58592" data-name="Path 58592" d="M5152.142,6268.332v-3.358h20.834v3.358Z" fill="#fff"/>
            <path id="Path_58593" data-name="Path 58593" d="M5179.986,6268.337h-3.418v-3.375h3.418Z" fill="#fff"/>
            <path id="Path_58594" data-name="Path 58594" d="M5094.417,6338.384h3.387v3.345h-3.387Z" fill="#fff"/>
            <path id="Path_58595" data-name="Path 58595" d="M5104.785,6341.757h-3.364v-3.328h3.364Z" fill="#fff"/>
            <path id="Path_58596" data-name="Path 58596" d="M5111.8,6341.751H5108.4v-3.345h3.407Z" fill="#fff"/>
            <path id="Path_58597" data-name="Path 58597" d="M5104.916,6292.787v-3.319h13.876v3.319Z" fill="#fff"/>
            <path id="Path_58598" data-name="Path 58598" d="M5118.8,6299.786h-13.873v-3.332H5118.8Z" fill="#fff"/>
            <path id="Path_58599" data-name="Path 58599" d="M5118.774,6306.786h-13.841v-3.337h13.841Z" fill="#fff"/>
          </g>
        </g>
      </g>
    </g>
  </g>
</svg>
