<svg xmlns="http://www.w3.org/2000/svg" xmlns:xlink="http://www.w3.org/1999/xlink" width="242.931" height="242.935" viewBox="0 0 242.931 242.935">
  <defs>
    <clipPath id="clip-path">
      <path id="Path_57459" data-name="Path 57459" d="M4482.089,6305.082a121.465,121.465,0,1,1-121.464-121.468A121.463,121.463,0,0,1,4482.089,6305.082Z" fill="none"/>
    </clipPath>
  </defs>
  <g id="reportIcon" transform="translate(-4239.158 -6183.614)">
    <g id="Group_42702" data-name="Group 42702">
      <path id="Path_57456" data-name="Path 57456" d="M4482.089,6305.082a121.465,121.465,0,1,1-121.464-121.468A121.463,121.463,0,0,1,4482.089,6305.082Z" fill="#e5f8fd"/>
      <g id="Group_42701" data-name="Group 42701">
        <g id="Group_42700" data-name="Group 42700" clip-path="url(#clip-path)">
          <path id="Path_57457" data-name="Path 57457" d="M4464.4,6216.249l-232.061,210.3,355.333,29Z" fill="#00b5f6" opacity="0.19"/>
          <path id="Path_57458" data-name="Path 57458" d="M4478.9,6415.671l-217.559-199.422L4170.7,6364.91l148.657,94.27Z" fill="#00b5f6" opacity="0.19"/>
        </g>
      </g>
    </g>
    <path id="Path_57460" data-name="Path 57460" d="M4301.187,6248.426a83.989,83.989,0,1,1,0,118.779A83.991,83.991,0,0,1,4301.187,6248.426Z" fill="#2e3191"/>
    <g id="icon">
      <g id="Group_43067" data-name="Group 43067">
        <path id="Path_58481" data-name="Path 58481" d="M4391.477,6253.712V6264h10.381v44.824l5.126-5.073c.925-.917,1.824-1.863,2.777-2.749a8.656,8.656,0,0,1,12.069.1,8.543,8.543,0,0,1,0,12.2c-5.571,5.676-11.123,11.378-16.908,16.831a8.957,8.957,0,0,0-3.089,7.491c.231,7.6.075,15.206.075,22.95h-72.456v-10.136h-10.408v-96.729Zm7,13.961h-65.437v89.486h65.307v-20.24c-.692.636-1.188,1.059-1.649,1.519q-6.546,6.546-13.09,13.1c-.477.475-.99,1.118-1.581,1.244-4.854,1.04-9.731,1.975-14.855,2.992.923-4.665,1.706-9.034,2.7-13.355a7.2,7.2,0,0,1,1.808-3.281q12.648-12.809,25.445-25.471a4.334,4.334,0,0,0,1.383-3.418c-.051-11.041-.028-22.082-.028-33.123Zm-10.412-10.537h-2.249c-20.3,0-40.6.026-60.9-.04-1.881-.006-2.412.487-2.408,2.387q.089,42.585.045,85.171c0,.719.078,1.437.116,2.109h6.788V6264h58.6Zm22.969,48.229-28.786,28.7,6.526,6.806,29.007-28.888Zm-29.583,42.948c1.668-1.548,3.248-3.016,4.622-4.292l-6.814-6.934c-1.492,1.477-3.055,3.023-4.514,4.466Zm32.753-45.97,6.38,6.555a4.942,4.942,0,0,0-1.2-5.294A5.112,5.112,0,0,0,4414.2,6302.343Zm-42.618,49.052,5.845-1.257-4.579-5.084Z" fill="#f1f1f1"/>
        <path id="Path_58482" data-name="Path 58482" d="M4340.022,6274.484h20.388v27.393h-20.388Zm3.417,3.537v20.435h13.46v-20.435Z" fill="#f1f1f1"/>
        <path id="Path_58483" data-name="Path 58483" d="M4391.433,6310.793v3.252h-51.546v-3.252Z" fill="#f1f1f1"/>
        <path id="Path_58484" data-name="Path 58484" d="M4379.416,6322.9v3.162h-39.533V6322.9Z" fill="#f1f1f1"/>
        <path id="Path_58485" data-name="Path 58485" d="M4367.537,6274.487h23.83v3.3h-23.83Z" fill="#f1f1f1"/>
        <path id="Path_58486" data-name="Path 58486" d="M4363.867,6343.589v3.149h-24v-3.149Z" fill="#f1f1f1"/>
        <path id="Path_58487" data-name="Path 58487" d="M4367.526,6289.829v-3.152h23.891v3.152Z" fill="#f1f1f1"/>
        <path id="Path_58488" data-name="Path 58488" d="M4367.577,6298.659h23.8v3.159h-23.8Z" fill="#f1f1f1"/>
        <path id="Path_58489" data-name="Path 58489" d="M4400.836,6323.94l-2.03-1.839,12.178-12.123,1.688,2.214Z" fill="#f1f1f1"/>
      </g>
    </g>
  </g>
</svg>
