<svg xmlns="http://www.w3.org/2000/svg" xmlns:xlink="http://www.w3.org/1999/xlink" width="242.931" height="242.935" viewBox="0 0 242.931 242.935">
  <defs>
    <clipPath id="clip-path">
      <path id="Path_57444" data-name="Path 57444" d="M3308.7,6305.082a121.465,121.465,0,1,1-121.464-121.468A121.463,121.463,0,0,1,3308.7,6305.082Z" fill="none"/>
    </clipPath>
  </defs>
  <g id="showMyRequestsIcon" transform="translate(-3065.772 -6183.614)">
    <g id="Group_42690" data-name="Group 42690">
      <path id="Path_57441" data-name="Path 57441" d="M3308.7,6305.082a121.465,121.465,0,1,1-121.464-121.468A121.463,121.463,0,0,1,3308.7,6305.082Z" fill="#e5f8fd"/>
      <g id="Group_42689" data-name="Group 42689">
        <g id="Group_42688" data-name="Group 42688" clip-path="url(#clip-path)">
          <path id="Path_57442" data-name="Path 57442" d="M3291.011,6216.249l-232.061,210.3,355.333,29Z" fill="#00b5f6" opacity="0.19"/>
          <path id="Path_57443" data-name="Path 57443" d="M3305.514,6415.671l-217.559-199.422L2997.31,6364.91l148.657,94.27Z" fill="#00b5f6" opacity="0.19"/>
        </g>
      </g>
    </g>
    <path id="Path_57445" data-name="Path 57445" d="M3127.8,6248.426a83.99,83.99,0,1,1,0,118.779A83.991,83.991,0,0,1,3127.8,6248.426Z" fill="#2e3191"/>
    <g id="icon">
      <path id="Path_58471" data-name="Path 58471" d="M3213.821,6365.238a16.662,16.662,0,0,1-2.616-.526c-2.162-.795-4.274-1.722-6.425-2.548a7.421,7.421,0,0,0-2.5-.7c-17.611-.041-35.223-.023-52.834-.051a8.251,8.251,0,0,1-3.163-.5,5.007,5.007,0,0,1-3.122-4.993q.009-12.677,0-25.351,0-22.323,0-44.646c0-1.7.489-2.454,1.593-2.457s1.636.78,1.636,2.453q.006,34.044,0,68.09c0,.6-.009,1.2.008,1.794a2.163,2.163,0,0,0,2.318,2.427c.3.021.6.011.9.011q24.4,0,48.8,0c.467,0,.935-.041,1.651-.075a20.456,20.456,0,0,1-4.772-15.521c-1.987.07-3.9.189-5.806.2-7.029.023-14.059.011-21.089.008-1.761,0-2.572-.534-2.535-1.648.035-1.07.8-1.546,2.511-1.546h23.333c1.614,0,1.614,0,1.62-1.555.011-2.694.011-2.694-2.728-2.694h-33.316c-1.607,0-1.607,0-1.608,1.556,0,2.692,0,2.692,2.711,2.694.449,0,.9-.013,1.346.018a1.476,1.476,0,0,1,1.494,1.516,1.4,1.4,0,0,1-1.382,1.6,35.981,35.981,0,0,1-4.7-.047,3.261,3.261,0,0,1-2.711-3.256c-.057-1.306-.066-2.619,0-3.925a3.4,3.4,0,0,1,3.731-3.333c7.1-.016,14.209-.007,21.313-.008q7.4,0,14.807,0c3.086,0,4.135,1.026,4.258,4.136a1.136,1.136,0,0,0,.172.561,22.115,22.115,0,0,1,7.2-8.58c-.884-.63-1.951-1.055-2.452-1.841a7.144,7.144,0,0,1-.653-2.971,19.973,19.973,0,0,1-.013-2.69,3.368,3.368,0,0,1,3.327-3.508,34.835,34.835,0,0,1,3.924,0,3.364,3.364,0,0,1,3.357,3.483c.045,1.377.009,2.756.009,4.106h5.958v-41.47c-.477-.024-.952-.069-1.426-.07-4.936,0-9.874-.107-14.806.031a5.617,5.617,0,0,1-5.969-6.008c.161-5,.011-10.02.065-15.029.011-1.062-.338-1.3-1.339-1.3q-22.378.043-44.758.022c-2.053,0-2.728.68-2.733,2.778-.009,4,0,8,0,12,0,.336.008.673-.01,1.009-.071,1.3-.666,1.973-1.693,1.93-.993-.041-1.525-.744-1.527-2.066-.005-4.449-.014-8.9,0-13.348a5.311,5.311,0,0,1,5.472-5.561c1.826-.037,3.654-.006,5.675-.006,0-.73-.017-1.352,0-1.973a5.305,5.305,0,0,1,5.581-5.451q31.3-.018,62.593,0a5.35,5.35,0,0,1,5.655,5.728q.006,35.841-.019,71.68a3.043,3.043,0,0,0,1.016,2.417c5.846,5.734,7.882,12.652,5.535,20.5-2.376,7.937-7.977,12.572-16.081,14.2-.544.109-1.09.206-1.635.309Zm11.07-38.231v-1.166q0-34.707,0-69.415c0-2.095-.654-2.742-2.745-2.742q-30.951,0-61.9,0c-.224,0-.449-.009-.672.008-1.506.11-2.136,1.135-2.072,3.233.048,1.6,1.255.875,1.905.877q18.222.071,36.445.017a3.591,3.591,0,0,1,2.766,1.158q10.433,10.5,20.936,20.931a3.814,3.814,0,0,1,1.2,2.969q-.049,20.522-.021,41.043a4.543,4.543,0,0,0,.022,1,1,1,0,0,0,.427.656C3222.343,6326.067,3223.53,6326.492,3224.891,6327.007Zm7.432,18.01a16.95,16.95,0,1,0-17.017,16.9A17,17,0,0,0,3232.323,6345.017ZM3198.469,6264c-.011.146-.056.471-.057.8,0,4.188-.011,8.375,0,12.563.007,2.119.721,2.822,2.844,2.827q6.225.012,12.45,0c.356,0,.713-.044.911-.057Q3206.553,6272.074,3198.469,6264Zm7.584,60.764c2.536-.033,2.144.255,2.154-2.118.01-2.418.256-2.081-2.074-2.076-2.393,0-2.166-.39-2.159,2.107C3203.98,6325.015,3203.644,6324.732,3206.053,6324.764Z" fill="#f1f1f1"/>
      <path id="Path_58472" data-name="Path 58472" d="M3174.479,6302.456q9.079,0,18.159,0c2.549,0,3.882,1.32,3.9,3.84.007,1.159.022,2.318-.009,3.475a3.385,3.385,0,0,1-3.35,3.366c-.522.023-1.046.006-1.569.006h-35.085c-2.793,0-4.1-1.317-4.11-4.123,0-.934-.012-1.869,0-2.8a3.5,3.5,0,0,1,3.795-3.76Q3165.343,6302.446,3174.479,6302.456Zm18.785,3.364h-37.59v3.961h37.59Z" fill="#f1f1f1"/>
      <path id="Path_58473" data-name="Path 58473" d="M3174.472,6327.981q-9.022,0-18.045,0c-2.682,0-4-1.31-4.016-3.965,0-.933-.007-1.868,0-2.8.022-2.5,1.388-3.892,3.893-3.9,4.856-.016,9.713,0,14.57,0,7.173,0,14.347.044,21.519-.026,2.267-.022,4.39,1.213,4.153,4.2-.073.928,0,1.867-.013,2.8a3.371,3.371,0,0,1-3.681,3.691Q3183.663,6327.993,3174.472,6327.981Zm18.828-7.42h-36.243a2.279,2.279,0,0,0-.777.028c-.228.087-.559.319-.566.5-.051,1.178-.027,2.36-.027,3.608.554.027.958.064,1.363.064q17.439,0,34.877,0a2.257,2.257,0,0,0,.778-.033c.228-.087.561-.318.569-.5C3193.325,6323.05,3193.3,6321.863,3193.3,6320.561Z" fill="#f1f1f1"/>
      <path id="Path_58474" data-name="Path 58474" d="M3174.434,6298.292q-8.91,0-17.821,0c-2.885,0-4.2-1.3-4.2-4.158,0-1.009-.028-2.018.009-3.026a3.408,3.408,0,0,1,3.586-3.482q18.493-.015,36.987,0a3.322,3.322,0,0,1,3.537,3.491c.02,1.12.012,2.242,0,3.362a3.46,3.46,0,0,1-3.83,3.809c-5.492.017-10.984,0-16.477,0Zm-18.76-7.455c0,1.07.069,1.932-.017,2.779-.114,1.11.229,1.457,1.4,1.452,11.626-.047,23.252-.029,34.877-.029h1.39c0-.968,0-1.817,0-2.666,0-1.531-.006-1.536-1.512-1.536h-36.14Z" fill="#f1f1f1"/>
      <path id="Path_58475" data-name="Path 58475" d="M3161.484,6275.938c-1.829,0-3.659.017-5.488,0a3.41,3.41,0,0,1-3.575-3.487c-.04-1.193-.035-2.39,0-3.584a3.342,3.342,0,0,1,3.3-3.537q5.763-.146,11.533,0a3.265,3.265,0,0,1,3.257,3.541q.024,1.735,0,3.472a3.347,3.347,0,0,1-3.651,3.6C3165.068,6275.952,3163.276,6275.939,3161.484,6275.938Zm-5.8-3.41a1.7,1.7,0,0,0,.429.167c3.5.016,7,.036,10.5.012.227,0,.637-.339.647-.537.061-1.176.03-2.357.03-3.645-3.779,0-7.386-.01-10.993.026a.849.849,0,0,0-.589.582C3155.65,6270.276,3155.681,6271.423,3155.681,6272.528Z" fill="#f1f1f1"/>
      <path id="Path_58476" data-name="Path 58476" d="M3200.79,6307.743c0-.635-.021-1.271,0-1.905a3.36,3.36,0,0,1,3.336-3.372c1.307-.041,2.617-.041,3.923,0a3.325,3.325,0,0,1,3.327,3.261c.067,1.379.068,2.766,0,4.145a3.341,3.341,0,0,1-3.438,3.266c-1.157.027-2.316.015-3.474,0a3.408,3.408,0,0,1-3.68-3.6c-.014-.6,0-1.2,0-1.794Zm7.425.084c0-2.1,0-2.1-2.151-2.1h-.111c-2.176.042-1.971-.355-1.984,1.937-.011,2.214,0,2.214,2.154,2.214C3208.215,6309.876,3208.215,6309.876,3208.215,6307.827Z" fill="#f1f1f1"/>
      <path id="Path_58477" data-name="Path 58477" d="M3200.8,6292.91c0-.71-.033-1.421.007-2.128a3.276,3.276,0,0,1,3.179-3.145c1.417-.046,2.839-.048,4.256,0a3.2,3.2,0,0,1,3.108,2.964,41.151,41.151,0,0,1,.042,4.255,3.336,3.336,0,0,1-3.306,3.407,34.179,34.179,0,0,1-3.919.006,3.387,3.387,0,0,1-3.379-3.568c-.014-.6,0-1.2,0-1.793Zm5.34-2.074c-2.51.035-2.155-.278-2.165,2.113-.011,2.457-.207,2.082,2.074,2.082,2.44,0,2.165.359,2.158-2.1C3208.2,6290.6,3208.58,6290.867,3206.139,6290.836Z" fill="#f1f1f1"/>
      <path id="Path_58478" data-name="Path 58478" d="M3213.5,6341.479l5.882-5.166c2.106-1.85,3.939-1.752,5.819.32.7.775,1.42,1.541,2.081,2.351a3.353,3.353,0,0,1-.292,4.833q-5.834,5.253-11.757,10.4a2.48,2.48,0,0,1-3.556-.035q-3.867-3.24-7.7-6.526a3.44,3.44,0,0,1-.334-5.237c.789-.9,1.589-1.79,2.427-2.642a3.393,3.393,0,0,1,4.756-.381C3211.708,6340.035,3212.542,6340.726,3213.5,6341.479Zm-.022,9.99,11.519-10.19-2.809-3.11c-2.275,2-4.429,3.9-6.593,5.787-1.47,1.284-2.537,1.305-4.088.1-.937-.729-1.864-1.47-2.883-2.275l-2.862,3.147Z" fill="#f1f1f1"/>
    </g>
  </g>
</svg>
