<svg xmlns="http://www.w3.org/2000/svg" xmlns:xlink="http://www.w3.org/1999/xlink" width="242.93" height="242.935" viewBox="0 0 242.93 242.935">
  <defs>
    <clipPath id="clip-path">
      <path id="Path_57454" data-name="Path 57454" d="M4088.793,6305.082a121.465,121.465,0,1,1-121.463-121.468A121.463,121.463,0,0,1,4088.793,6305.082Z" fill="none"/>
    </clipPath>
  </defs>
  <g id="SYncRecordsIcon" transform="translate(-3845.863 -6183.614)">
    <g id="Group_42698" data-name="Group 42698">
      <path id="Path_57451" data-name="Path 57451" d="M4088.793,6305.082a121.465,121.465,0,1,1-121.463-121.468A121.463,121.463,0,0,1,4088.793,6305.082Z" fill="#e5f8fd"/>
      <g id="Group_42697" data-name="Group 42697">
        <g id="Group_42696" data-name="Group 42696" clip-path="url(#clip-path)">
          <path id="Path_57452" data-name="Path 57452" d="M4071.1,6216.249l-232.061,210.3,355.333,29Z" fill="#00b5f6" opacity="0.19"/>
          <path id="Path_57453" data-name="Path 57453" d="M4085.6,6415.671l-217.558-199.422L3777.4,6364.91l148.656,94.27Z" fill="#00b5f6" opacity="0.19"/>
        </g>
      </g>
    </g>
    <path id="Path_57455" data-name="Path 57455" d="M3907.891,6248.426a83.989,83.989,0,1,1,0,118.779A83.991,83.991,0,0,1,3907.891,6248.426Z" fill="#2e3191"/>
    <g id="icon">
      <g id="Group_43069" data-name="Group 43069">
        <path id="Path_58490" data-name="Path 58490" d="M4008.417,6279.7c1.035.43,1.957.78,2.852,1.189a16.858,16.858,0,0,1-6.659,32.239c-2.788.056-5.579.009-8.732.009-.073,1.2-.187,2.244-.19,3.29-.017,6.6.005,13.191-.015,19.786-.01,3.442-.332,3.747-3.766,3.777-1.977.017-3.955,0-6.158,0-.075,1.262-.126,2.228-.192,3.192-.147,2.165-.5,2.515-2.73,2.672-.5.035-1,.018-1.5.018h-38.973c-.4,0-.8.007-1.2-.006-3-.1-3.232-.306-3.239-3.29-.018-8.894,0-17.788-.013-26.682,0-.783-.083-1.565-.151-2.752-2.659,0-5.218.045-7.775-.012a53.1,53.1,0,0,1-8.055-.384,16.615,16.615,0,0,1-13.691-16.9,16.991,16.991,0,0,1,14.746-16.4c.677-.1,1.363-.154,1.992-.224,2.913-10.631,12.781-16.085,24.031-10.579,2.851-9.586,8.576-16.742,17.922-20.678a29.422,29.422,0,0,1,18.786-1.379C3996.811,6249.278,4009.622,6260.031,4008.417,6279.7Zm-71.044,30.856.226-.687a1.7,1.7,0,0,0,.216-.547c.031-3.9.02-7.791.072-11.686.1-7.408-.962-5.122,4.659-9.591,3.023-2.4,5.559-5.91,10.4-5.154,0-1.515,0-2.7,0-3.876.011-3.866.012-3.876,3.734-3.878q17.532-.008,35.065,0c.6,0,1.2.026,1.8.006a1.832,1.832,0,0,1,2.094,1.98c.047.8.038,1.6.038,2.4q0,13.636,0,27.273v3.44c4.526.219,8.728.509,12.8-.6a13.8,13.8,0,0,0,9.936-13.46,14.079,14.079,0,0,0-10.377-13.482c-2.9-.835-2.932-.837-2.724-3.833a29.056,29.056,0,0,0-.92-10.68,27.217,27.217,0,0,0-52.4,1.042c-1.112,4.347-1.112,4.347-4.739,2.024-6.976-4.468-16.548-1.243-18.628,6.787-.912,3.522-2.535,4.5-5.641,4.424a1.721,1.721,0,0,0-.3.034,13.928,13.928,0,0,0-11.525,13.051c-.38,7.27,4.709,13.343,10.739,14.252C3926.983,6310.556,3932.211,6310.339,3937.373,6310.558Zm44.87,32.266c.715-4.993.439-54.647-.268-56.673-4.781-.618-28.875-.363-31.158.405,0,1.205.009,2.488,0,3.772-.028,3.367-.2,3.526-3.581,3.568-2.145.026-4.289.068-6.343.1v48.826Zm-26.43-59.856h12.549c4.793,0,9.585-.028,14.377.015,2.4.021,2.721.4,2.817,2.8.028.7.007,1.4.007,2.1q0,22.763.006,45.526c0,1.148.078,2.3.115,3.326h6.818v-58.7h-36.689Z" fill="#f1f1f1"/>
        <path id="Path_58491" data-name="Path 58491" d="M4005.346,6354.973c0-1.553,0-2.635,0-3.718,0-1.4-.018-2.793.018-4.188.026-1.018.116-2.183,1.425-2.242,1.327-.06,1.493,1.057,1.547,2.1.011.2.012.4.012.6,0,2.493.036,4.987-.01,7.479-.044,2.387-.461,2.916-2.738,2.929-9.074.054-18.149.026-27.223.023a2.286,2.286,0,0,1-1.171-.122c-.522-.356-1.266-.879-1.279-1.35s.679-1.185,1.212-1.376a7.287,7.287,0,0,1,2.369-.135q11.068-.009,22.138,0Z" fill="#f1f1f1"/>
        <path id="Path_58492" data-name="Path 58492" d="M3924.987,6253.745c0,3.088.027,5.855-.012,8.621-.018,1.241.364,2.774-1.385,3.213-1.043.262-1.589-.884-1.6-3.288-.017-2.8-.038-5.594.009-8.39.043-2.6.439-3.065,2.9-3.108,3.9-.067,7.791-.019,11.686-.009a2.3,2.3,0,0,1,1.171.142,11.11,11.11,0,0,1,1.427,1.333c-.542.486-1.015,1.232-1.641,1.4a12.094,12.094,0,0,1-2.98.089C3931.483,6253.748,3928.413,6253.745,3924.987,6253.745Z" fill="#f1f1f1"/>
        <path id="Path_58493" data-name="Path 58493" d="M3964.52,6355.017a45.468,45.468,0,0,1,5.065.066c.584.065,1.083.891,1.621,1.37-.536.483-1.056,1.363-1.61,1.385-3.476.137-6.96.12-10.439.069-.926-.013-1.95-.456-1.685-1.576a2.293,2.293,0,0,1,1.682-1.272c1.774-.172,3.575-.061,5.366-.061Z" fill="#f1f1f1"/>
        <path id="Path_58494" data-name="Path 58494" d="M3923.653,6336.5c0-2.1-.093-4.2.06-6.282.043-.588.808-1.122,1.242-1.681.462.524,1.312,1.039,1.325,1.574q.165,6.732.012,13.467a2.147,2.147,0,0,1-1.249,1.639c-1.12.138-1.394-.852-1.4-1.832q0-3.443,0-6.885Z" fill="#f1f1f1"/>
        <path id="Path_58495" data-name="Path 58495" d="M3946.765,6253.693a18.251,18.251,0,0,1-3.558-.068c-.582-.117-1.021-.942-1.524-1.447.469-.436.919-1.224,1.411-1.25a64.551,64.551,0,0,1,7.428-.007c.528.032,1,.94,1.5,1.445-.562.449-1.073,1.175-1.7,1.288a20.222,20.222,0,0,1-3.562.06Z" fill="#f1f1f1"/>
        <path id="Path_58496" data-name="Path 58496" d="M3923.593,6322.4a16.529,16.529,0,0,1,.205-2.973,1.617,1.617,0,0,1,1.236-.955,1.585,1.585,0,0,1,1.186,1,49.464,49.464,0,0,1-.006,5.977c-.022.36-.811.948-1.228.932a1.63,1.63,0,0,1-1.208-1,16.348,16.348,0,0,1-.057-2.982Z" fill="#f1f1f1"/>
        <path id="Path_58497" data-name="Path 58497" d="M3982.071,6256.206a43.458,43.458,0,0,1,4.17,1.789,18.022,18.022,0,0,1,9.176,12.253c.215.971.239,1.873-.875,2.179s-1.629-.475-1.857-1.436c-1.437-6.032-5.164-9.9-11-11.886a2.118,2.118,0,0,1-1.121-1.691C3980.6,6256.954,3981.568,6256.579,3982.071,6256.206Z" fill="#f1f1f1"/>
        <path id="Path_58498" data-name="Path 58498" d="M3915.782,6294.263c.271-.328.723-1.246,1.065-1.207a2.543,2.543,0,0,1,1.687,1.147c.908,1.628,1.358,3.574,2.491,4.994a13.062,13.062,0,0,0,4.072,2.872c.87.473,1.8.911,1.212,1.884a2.4,2.4,0,0,1-2.208.705,14.874,14.874,0,0,1-4.094-2.35A12.241,12.241,0,0,1,3915.782,6294.263Z" fill="#f1f1f1"/>
        <path id="Path_58499" data-name="Path 58499" d="M3972.7,6313a9.779,9.779,0,0,0-8.22-9.485,10.886,10.886,0,0,0-9.018,2.112c-.308.251-.622.65-.959.678-.618.051-1.566.089-1.8-.258a2.136,2.136,0,0,1,.191-1.839,5.1,5.1,0,0,1,1.565-1.353,13.716,13.716,0,0,1,20.37,5.732c.4.9.69,1.838,1.145,3.065a10.4,10.4,0,0,1,1.562-1.814,1.832,1.832,0,0,1,1.574-.272,1.594,1.594,0,0,1,.6,1.441,66.474,66.474,0,0,1-3.715,6.444,2.156,2.156,0,0,1-2.059.13,48.945,48.945,0,0,1-5.162-4.05c-.386-.343-.314-1.2-.453-1.82a5.767,5.767,0,0,1,2.116-.225A9.651,9.651,0,0,1,3972.7,6313Z" fill="#f1f1f1"/>
        <path id="Path_58500" data-name="Path 58500" d="M3948.727,6317.488a10.9,10.9,0,0,1-1.551,2.278,2.024,2.024,0,0,1-1.781.387,1.788,1.788,0,0,1-.493-1.709c1.323-2.292,2.308-4.835,4.579-7,2.293,1.813,4.5,3.477,6.579,5.278a1.764,1.764,0,0,1,.1,1.75,2.025,2.025,0,0,1-1.774.206,9.631,9.631,0,0,1-2.043-1.356,9.56,9.56,0,0,0,8.191,7.591,10.917,10.917,0,0,0,8.464-2.128,4.8,4.8,0,0,1,1.447-1.027,1.778,1.778,0,0,1,1.536.322,1.677,1.677,0,0,1,.075,1.575,6.445,6.445,0,0,1-1.715,1.627,13.728,13.728,0,0,1-20.238-4.783C3949.648,6319.625,3949.28,6318.705,3948.727,6317.488Z" fill="#f1f1f1"/>
      </g>
    </g>
  </g>
</svg>
