<?xml version="1.0" encoding="utf-8"?>
<!-- Generator: Adobe Illustrator 16.0.0, SVG Export Plug-In . SVG Version: 6.00 Build 0)  -->
<!DOCTYPE svg PUBLIC "-//W3C//DTD SVG 1.1//EN" "http://www.w3.org/Graphics/SVG/1.1/DTD/svg11.dtd">
<svg version="1.1" id="Layer_1" xmlns="http://www.w3.org/2000/svg" xmlns:xlink="http://www.w3.org/1999/xlink" x="0px" y="0px"
	 width="40px" height="40px" viewBox="0 0 40 40" enable-background="new 0 0 40 40" xml:space="preserve">
<path fill="#4A4A4A" d="M0,30.791v1.805c0,0,0,0,4.641,0h0.015h0.016c1.983-0.055,3.344-0.772,4.098-1.768
	c0.755-0.987,0.897-2.097,0.899-2.867c0-0.463-0.054-0.82-0.086-0.999v-2.679l-0.47-0.257c-0.011-0.006-4.078-2.22-5.941-3.147
	l6.067-3.159v-3.168c0.738,0,2.078,0,4.511,0c0.597-0.005,1.06-0.073,1.488-0.325c0.441-0.235,0.723-0.797,0.697-1.207
	c-0.009-0.462-0.174-0.754-0.294-0.971c-0.075-0.122-0.145-0.219-0.194-0.282L8.525-0.877L6.943-0.01l6.979,12.753
	c-0.053,0.003-0.11,0.005-0.174,0.005c-5.413-0.001-5.413-0.001-5.413,0H7.434v3.877l-5.731,2.983
	c-0.145,0.045-0.402,0.144-0.711,0.457c-0.139,0.157-0.296,0.432-0.295,0.771c0.002,0.418,0.226,0.738,0.438,0.937
	c0.223,0.206,0.475,0.354,0.804,0.512c0.688,0.322,2.287,1.166,3.686,1.913c0.871,0.468,1.672,0.898,2.154,1.159v1.801l0.024,0.1
	c0,0.002,0,0,0.006,0.031c0.005,0.028,0.014,0.075,0.021,0.14c0.017,0.129,0.035,0.317,0.035,0.533
	c0.001,0.548-0.116,1.244-0.524,1.764c-0.403,0.508-1.101,0.996-2.71,1.066C0.001,30.791,0,30.791,0,30.791z M4.727,3.594
	c0-1.233-1-2.235-2.234-2.235c-1.233,0-2.234,1.001-2.234,2.235c0,1.234,1,2.235,2.234,2.235C3.727,5.83,4.727,4.829,4.727,3.594z
	 M25.85,20.473c0,2.293-0.372,4.893-1.5,7.516l1.657,0.71c1.245-2.889,1.647-5.741,1.647-8.226
	c-0.004-4.366-1.238-7.614-1.443-8.133l-1.639,0.762c0.034,0.089,0.084,0.222,0.144,0.399c0.125,0.36,0.291,0.893,0.459,1.564
	C25.513,16.405,25.852,18.298,25.85,20.473z M16.999,20.473c0,1.345-0.13,2.793-0.463,4.291l1.691,0.706
	c0.417-1.756,0.577-3.447,0.577-4.997c-0.001-1.7-0.19-3.229-0.431-4.498L16.68,16.76C16.864,17.841,16.999,19.102,16.999,20.473z
	 M21.209,20.473c0,1.813-0.234,3.815-0.889,5.87l1.672,0.696c0.757-2.312,1.021-4.558,1.021-6.566
	c-0.001-2.594-0.439-4.795-0.837-6.262l-1.661,0.771c0.006,0.028,0.014,0.054,0.02,0.083C20.872,16.405,21.209,18.298,21.209,20.473
	z"/>
</svg>
