<svg class="svg-icon" style="width: 1em;height: 1em;vertical-align: middle;fill: rgb(206 161 44);overflow: hidden;" viewBox="0 0 1024 1024" version="1.1" xmlns="http://www.w3.org/2000/svg">
    <path d="M379.81 472.7H185.18a88.1 88.1 0 0 1-88-88V190.07a88.1 88.1 0 0 1 88-88h194.63a88.1 88.1 0 0 1 88 88V384.7a88.1 88.1 0 0 1-88 88zM185.18 150.07a40 40 0 0 0-40 40V384.7a40.05 40.05 0 0 0 40 40h194.63a40 40 0 0 0 40-40V190.07a40 40 0 0 0-40-40zM379.81 921.93H185.18a88.1 88.1 0 0 1-88-88V639.3a88.1 88.1 0 0 1 88-88h194.63a88.1 88.1 0 0 1 88 88v194.63a88.1 88.1 0 0 1-88 88zM185.18 599.3a40.05 40.05 0 0 0-40 40v194.63a40 40 0 0 0 40 40h194.63a40 40 0 0 0 40-40V639.3a40 40 0 0 0-40-40zM838.82 472.7H644.19a88.1 88.1 0 0 1-88-88V190.07a88.1 88.1 0 0 1 88-88h194.63a88.1 88.1 0 0 1 88 88V384.7a88.1 88.1 0 0 1-88 88zM644.19 150.07a40 40 0 0 0-40 40V384.7a40 40 0 0 0 40 40h194.63a40.05 40.05 0 0 0 40-40V190.07a40 40 0 0 0-40-40zM901 599.3H582.68a24 24 0 0 1 0-48H901a24 24 0 0 1 0 48zM901 760.62H582.68a24 24 0 0 1 0-48H901a24 24 0 0 1 0 48zM901 921.93H582.68a24 24 0 0 1 0-48H901a24 24 0 0 1 0 48z" fill="rgb(206 161 44)" /></svg>