<?xml version="1.0" encoding="utf-8"?>
<!-- Generator: Adobe Illustrator 16.0.0, SVG Export Plug-In . SVG Version: 6.00 Build 0)  -->
<!DOCTYPE svg PUBLIC "-//W3C//DTD SVG 1.1//EN" "http://www.w3.org/Graphics/SVG/1.1/DTD/svg11.dtd">
<svg version="1.1" id="Layer_1" xmlns="http://www.w3.org/2000/svg" xmlns:xlink="http://www.w3.org/1999/xlink" x="0px" y="0px"
	 width="130px" height="60px" viewBox="0 0 130 60" enable-background="new 0 0 130 60" xml:space="preserve">
<g>
	<g>
		<rect x="74.29" y="3.482" fill="#0060AD" width="0.689" height="52.894"/>
	</g>
	<g>
		<g>
			<g>
				<rect x="86.601" y="19.044" fill="#0086C9" width="4.423" height="4.423"/>
				<rect x="79.959" y="22.791" fill="#F68E28" width="7.391" height="7.392"/>
				<rect x="80.638" y="35.683" fill="#F68E28" width="6.03" height="6.029"/>
				<rect x="102.417" y="43.751" fill="#F68E28" width="6.03" height="6.033"/>
				<rect x="108.447" y="49.784" fill="#0060AD" width="6.032" height="6.028"/>
				<rect x="104.363" y="3.528" fill="#F68E28" width="6.033" height="6.029"/>
				<rect x="110.392" y="9.558" fill="#0060AD" width="6.029" height="6.03"/>
				<rect x="93.166" y="27.794" fill="#0060AD" width="6.293" height="6.298"/>
				<rect x="82.001" y="14.816" fill="#0060AD" width="6.028" height="6.028"/>
				<rect x="113.512" y="47.313" fill="#0086C9" width="3.89" height="3.888"/>
				<rect x="119.188" y="18.9" fill="#0086C9" width="3.891" height="3.891"/>
				<rect x="123.925" y="22.222" fill="#0060AD" width="3.888" height="3.89"/>
				<rect x="105.436" y="25.045" fill="#0086C9" width="3.89" height="3.892"/>
				<rect x="113.247" y="43.072" fill="#F68E28" width="3.175" height="3.174"/>
				<rect x="98.885" y="24.897" fill="#F68E28" width="3.534" height="3.535"/>
				<rect x="91.128" y="8.819" fill="#0060AD" width="3.175" height="3.176"/>
				<rect x="118.854" y="42.235" fill="#F68E28" width="2.424" height="2.425"/>
				<rect x="116.914" y="46.431" fill="#F68E28" width="2.43" height="2.423"/>
				<rect x="124.293" y="17.83" fill="#F68E28" width="2.425" height="2.427"/>
				<rect x="98.467" y="4.742" fill="#F68E28" width="2.425" height="2.426"/>
				<rect x="96.311" y="13.306" fill="#0086C9" width="2.428" height="2.426"/>
				<rect x="121.869" y="28.969" fill="#F68E28" width="2.424" height="2.427"/>
				<rect x="123.079" y="24.897" fill="#F68E28" width="2.427" height="2.427"/>
				<rect x="106.166" y="29.69" fill="#0060AD" width="2.428" height="2.427"/>
				<rect x="94.769" y="24.897" fill="#0060AD" width="2.43" height="2.427"/>
				<rect x="117.155" y="16.618" fill="#F68E28" width="2.826" height="2.825"/>
				<rect x="88.335" y="35.683" fill="#0060AD" width="2.425" height="2.424"/>
				<rect x="87.867" y="42.54" fill="#F68E28" width="2.424" height="2.425"/>
				<rect x="86.816" y="9.558" fill="#F68E28" width="2.424" height="2.426"/>
				<rect x="101.204" y="27.743" fill="#F68E28" width="2.427" height="2.425"/>
				<rect x="79.032" y="32.848" fill="#0060AD" width="3.892" height="3.89"/>
				<rect x="96.939" y="45.697" fill="#0086C9" width="3.893" height="3.89"/>
				<rect x="100.957" y="8.996" fill="#0060AD" width="4.479" height="4.479"/>
				<rect x="104.414" y="12.573" fill="#0086C9" width="3.891" height="3.891"/>
				<rect x="119.188" y="12.573" fill="#0086C9" width="3.891" height="3.891"/>
				<rect x="114.479" y="6.874" fill="#0086C9" width="3.887" height="3.892"/>
				<rect x="111.464" y="23.075" fill="#F68E28" width="7.391" height="7.391"/>
				<rect x="115.455" y="28.521" fill="#0086C9" width="3.889" height="3.892"/>
				<rect x="100.473" y="52.388" fill="#0086C9" width="3.89" height="3.894"/>
				<rect x="86.082" y="46.768" fill="#0086C9" width="3.893" height="3.89"/>
				<rect x="86.082" y="28.957" fill="#0086C9" width="3.893" height="3.891"/>
				<rect x="89.083" y="49.587" fill="#F68E28" width="4.963" height="4.957"/>
				<rect x="90.442" y="4.009" fill="#0086C9" width="3.892" height="3.891"/>
				<rect x="89.389" y="25.797" fill="#0086C9" width="4.351" height="4.35"/>
				<rect x="93.739" y="6.634" fill="#F68E28" width="5.35" height="5.35"/>
				<rect x="89.809" y="12.872" fill="#F68E28" width="4.959" height="4.958"/>
				<rect x="117.638" y="23.854" fill="#0060AD" width="3.885" height="3.89"/>
				<rect x="92.288" y="39.378" fill="#F68E28" width="7.392" height="7.39"/>
				<rect x="91.795" y="36.628" fill="#0086C9" width="3.889" height="3.892"/>
			</g>
		</g>
	</g>
	<g>
		<g>
			<g>
				<g>
					<g>
						<path fill="#F68E28" d="M2.345,53.187c0.16-0.038,0.345-0.06,0.572-0.06c0.318,0,0.591,0.069,0.771,0.229
							c0.164,0.151,0.253,0.383,0.253,0.661c0,0.294-0.077,0.49-0.211,0.651c-0.186,0.237-0.511,0.355-0.819,0.355
							c-0.067,0-0.117,0-0.175-0.006v1.303H2.345V53.187z M2.736,54.718c0.046,0.004,0.093,0.009,0.16,0.009
							c0.386,0,0.648-0.231,0.648-0.686c0-0.325-0.145-0.617-0.588-0.617c-0.092,0-0.17,0.008-0.221,0.022V54.718z"/>
						<path fill="#F68E28" d="M2.894,56.48H2.188v-3.418l0.121-0.029c0.186-0.043,0.384-0.064,0.608-0.064
							c0.379,0,0.674,0.091,0.877,0.271c0.2,0.185,0.305,0.453,0.305,0.778c0,0.312-0.079,0.551-0.248,0.753
							c-0.2,0.257-0.554,0.411-0.939,0.411c-0.006,0-0.012,0-0.018,0V56.48z M2.503,56.165h0.076v-1.316h0.004l-0.004-0.131v-1.392
							l0.115-0.032c0.006,0,0.013-0.003,0.018-0.005c-0.072,0.007-0.142,0.015-0.209,0.026V56.165z M3.293,53.328
							c0.262,0.108,0.409,0.359,0.409,0.713c0,0.35-0.14,0.609-0.382,0.744c0.116-0.052,0.216-0.123,0.286-0.214
							c0.124-0.147,0.178-0.317,0.178-0.554c0-0.235-0.069-0.423-0.202-0.545C3.51,53.408,3.412,53.359,3.293,53.328z M2.894,54.569
							c0.002,0,0.002,0,0.003,0c0.322,0,0.49-0.183,0.49-0.528c0-0.462-0.302-0.47-0.493-0.46V54.569z"/>
					</g>
					<g>
						<path fill="#F68E28" d="M4.944,53.14v3.182H4.548V53.14H4.944z"/>
						<path fill="#F68E28" d="M5.102,56.48H4.391v-3.497h0.711V56.48z M4.705,56.165h0.082v-2.867H4.705V56.165z"/>
					</g>
					<g>
						<path fill="#F68E28" d="M7.549,54.707c0,1.195-0.443,1.653-1.005,1.653c-0.576,0-0.961-0.562-0.961-1.634
							c0-1.053,0.416-1.625,1.019-1.625C7.194,53.102,7.549,53.692,7.549,54.707z M5.993,54.731c0,0.656,0.141,1.308,0.583,1.308
							c0.443,0,0.562-0.694,0.562-1.317c0-0.595-0.118-1.298-0.566-1.298C6.134,53.424,5.993,54.083,5.993,54.731z"/>
						<path fill="#F68E28" d="M6.544,56.518c-0.701,0-1.119-0.67-1.119-1.791c0-1.314,0.607-1.783,1.177-1.783
							c0.692,0,1.105,0.661,1.105,1.764C7.707,56.341,6.894,56.518,6.544,56.518z M6.602,53.26c-0.54,0-0.862,0.549-0.862,1.467
							c0,0.925,0.302,1.477,0.805,1.477c0.738,0,0.848-0.938,0.848-1.496C7.392,53.801,7.096,53.26,6.602,53.26z M6.576,56.196
							c-0.477,0-0.739-0.521-0.739-1.465c0-0.931,0.268-1.467,0.734-1.467c0.466,0,0.723,0.518,0.723,1.457
							C7.294,55.672,7.04,56.196,6.576,56.196z M6.571,53.581c-0.311,0-0.419,0.62-0.419,1.15c0,0.556,0.111,1.149,0.424,1.149
							c0.297,0,0.403-0.599,0.403-1.159C6.979,54.196,6.873,53.581,6.571,53.581z"/>
					</g>
					<g>
						<path fill="#F68E28" d="M8.181,56.321V53.14h0.371l0.639,1.494c0.145,0.344,0.325,0.763,0.442,1.107h0.011
							c-0.03-0.5-0.047-0.911-0.047-1.464V53.14h0.356v3.182H9.582l-0.659-1.528c-0.144-0.322-0.294-0.686-0.416-1.083H8.495
							c0.031,0.427,0.041,0.831,0.041,1.512v1.1H8.181z"/>
						<path fill="#F68E28" d="M10.11,56.48H9.478l-0.699-1.626c-0.029-0.066-0.061-0.133-0.087-0.198
							c0.001,0.166,0.003,0.353,0.003,0.565v1.259h-0.67v-3.497h0.632l0.737,1.726c0.018,0.041,0.035,0.084,0.054,0.125
							c-0.005-0.172-0.007-0.354-0.007-0.557v-1.294h0.67V56.48z M9.686,56.165h0.11V55.9H9.57L9.686,56.165z M8.339,56.165H8.38
							v-0.943c0-0.691-0.011-1.084-0.041-1.497V56.165z M9.755,53.298v0.979c0,0.545,0.016,0.946,0.041,1.361v-2.341H9.755z
							 M8.339,53.553h0.219l-0.109-0.255H8.339V53.553z"/>
					</g>
					<g>
						<path fill="#F68E28" d="M11.991,54.812h-0.87v1.194h0.987v0.314h-1.384V53.14h1.323v0.316h-0.927v1.049h0.87V54.812z"/>
						<path fill="#F68E28" d="M12.267,56.48h-1.699v-3.497h1.638v0.631h-0.927v0.733h0.87v0.621h-0.87v0.879h0.988V56.48z
							 M10.882,56.165l1.07-0.002h-0.988v-2.864l0.926-0.001h-1.008V56.165z"/>
					</g>
					<g>
						<path fill="#F68E28" d="M13.968,54.812h-0.87v1.194h0.989v0.314h-1.386V53.14h1.323v0.316h-0.927v1.049h0.87V54.812z"/>
						<path fill="#F68E28" d="M14.243,56.48h-1.7v-3.497h1.64v0.631h-0.928v0.733h0.87v0.621h-0.87v0.879h0.988V56.48z
							 M12.858,56.165l1.07-0.002H12.94v-2.864l0.927-0.001h-1.009V56.165z"/>
					</g>
					<g>
						<path fill="#F68E28" d="M14.682,53.187c0.166-0.042,0.371-0.06,0.567-0.06c0.345,0,0.603,0.065,0.783,0.226
							c0.17,0.16,0.241,0.372,0.241,0.623c0,0.405-0.206,0.67-0.557,0.822v0.009c0.258,0.071,0.393,0.297,0.463,0.714
							c0.083,0.435,0.15,0.702,0.201,0.801h-0.401c-0.051-0.094-0.118-0.396-0.186-0.783c-0.077-0.439-0.226-0.599-0.565-0.599
							h-0.155v1.382h-0.392V53.187z M15.073,54.656h0.171c0.376,0,0.627-0.256,0.627-0.639c0-0.368-0.165-0.594-0.586-0.6
							c-0.083,0-0.159,0.006-0.212,0.019V54.656z"/>
						<path fill="#F68E28" d="M16.641,56.48h-0.755l-0.044-0.082c-0.021-0.04-0.086-0.158-0.202-0.834
							c-0.07-0.399-0.184-0.467-0.408-0.468v1.384h-0.707v-3.415l0.118-0.03c0.166-0.044,0.381-0.066,0.606-0.066
							c0.4,0,0.683,0.084,0.887,0.266c0.197,0.187,0.295,0.434,0.295,0.741c0,0.351-0.139,0.633-0.403,0.825
							c0.192,0.174,0.267,0.449,0.309,0.691c0.104,0.55,0.16,0.711,0.186,0.758L16.641,56.48z M16.087,56.165h0.073
							c-0.034-0.127-0.078-0.318-0.133-0.616c-0.068-0.379-0.176-0.512-0.285-0.566c0.119,0.138,0.173,0.329,0.207,0.528
							C16.015,55.886,16.061,56.072,16.087,56.165z M14.839,56.165h0.077v-2.849l0.085-0.022c-0.057,0.005-0.111,0.012-0.162,0.021
							V56.165z M15.409,54.799c0.056,0.011,0.106,0.026,0.15,0.049v-0.093C15.512,54.774,15.462,54.788,15.409,54.799z
							 M15.622,53.32c0.265,0.104,0.407,0.344,0.407,0.697c0,0.203-0.061,0.381-0.168,0.516c0.171-0.134,0.255-0.318,0.255-0.558
							c0-0.219-0.063-0.386-0.193-0.509C15.847,53.398,15.749,53.351,15.622,53.32z M15.231,54.497h0.013
							c0.29,0,0.47-0.183,0.47-0.479c0-0.31-0.124-0.438-0.43-0.441c-0.021,0-0.037,0-0.053,0V54.497z"/>
					</g>
					<g>
						<path fill="#F68E28" d="M19.999,54.953c-0.024-0.42-0.051-0.888-0.034-1.246h-0.021c-0.079,0.354-0.17,0.731-0.278,1.105
							l-0.423,1.491h-0.258l-0.401-1.431c-0.118-0.407-0.216-0.8-0.288-1.166h-0.017c0.006,0.372-0.02,0.815-0.04,1.271
							l-0.067,1.344h-0.355l0.206-3.182h0.433l0.402,1.454c0.118,0.42,0.206,0.732,0.278,1.095h0.016
							c0.066-0.362,0.143-0.664,0.257-1.095L19.8,53.14h0.443l0.2,3.182h-0.371L19.999,54.953z"/>
						<path fill="#F68E28" d="M20.61,56.48h-0.688l-0.08-1.52c-0.003-0.055-0.006-0.109-0.01-0.163
							c-0.005,0.019-0.011,0.038-0.017,0.057l-0.455,1.607h-0.495l-0.434-1.546c-0.01-0.033-0.02-0.066-0.029-0.099l-0.081,1.663
							h-0.673l0.226-3.497h0.701l0.433,1.568c0.047,0.166,0.089,0.316,0.128,0.463c0.035-0.142,0.074-0.293,0.119-0.461l0.422-1.57
							h0.712L20.61,56.48z M20.222,56.165h0.053l-0.153-2.447c-0.015,0.348,0.01,0.797,0.036,1.227L20.222,56.165z M17.985,56.165
							h0.037l0.07-1.427c0.011-0.229,0.021-0.449,0.027-0.657L17.985,56.165z M19.104,56.146h0.02l0.085-0.3l-0.189-0.006
							L19.104,56.146z M18.478,53.812c0.066,0.316,0.153,0.658,0.258,1.018l0.232,0.83c-0.067-0.334-0.15-0.627-0.263-1.023
							L18.478,53.812z M19.852,53.548h0.256l0.011,0.136l-0.023-0.386H19.92L19.852,53.548z M18.154,53.548h0.251l-0.07-0.25H18.17
							L18.154,53.548z"/>
					</g>
					<g>
						<path fill="#F68E28" d="M21.527,53.14v2.136c0,0.57,0.212,0.764,0.469,0.764c0.294,0,0.484-0.206,0.484-0.764V53.14h0.396
							v2.078c0,0.826-0.371,1.143-0.886,1.143c-0.521,0-0.859-0.312-0.859-1.101v-2.12H21.527z"/>
						<path fill="#F68E28" d="M21.991,56.518c-0.38,0-1.018-0.163-1.018-1.258v-2.276h0.712v2.292c0,0.401,0.104,0.605,0.311,0.605
							c0.098,0,0.327,0,0.327-0.605v-2.292h0.712v2.234C23.035,56.349,22.381,56.518,21.991,56.518z M21.29,53.298v1.962
							c0,0.846,0.4,0.943,0.701,0.943c0.49,0,0.729-0.323,0.729-0.985v-1.92h-0.082v1.978c0,0.762-0.348,0.921-0.642,0.921
							c-0.188,0-0.626-0.089-0.626-0.921v-1.978H21.29z"/>
					</g>
					<g>
						<path fill="#F68E28" d="M23.648,56.321V53.14h0.371l0.639,1.494c0.144,0.344,0.324,0.763,0.442,1.107h0.01
							c-0.031-0.5-0.047-0.911-0.047-1.464V53.14h0.355v3.182h-0.37l-0.659-1.528c-0.145-0.322-0.293-0.686-0.417-1.083h-0.011
							c0.031,0.427,0.042,0.831,0.042,1.512v1.1H23.648z"/>
						<path fill="#F68E28" d="M25.577,56.48h-0.632l-0.7-1.626c-0.03-0.066-0.06-0.133-0.088-0.198
							c0.003,0.166,0.004,0.353,0.004,0.565v1.259h-0.67v-3.497h0.632l0.736,1.726c0.019,0.041,0.036,0.084,0.054,0.125
							c-0.004-0.172-0.007-0.354-0.007-0.557v-1.294h0.671V56.48z M25.151,56.165h0.111V55.9h-0.225L25.151,56.165z M23.806,56.165
							h0.041v-0.943c0-0.691-0.012-1.084-0.041-1.497V56.165z M25.222,53.298v0.979c0,0.545,0.017,0.946,0.041,1.361v-2.341H25.222z
							 M23.806,53.553h0.219l-0.11-0.255h-0.108V53.553z"/>
					</g>
					<g>
						<path fill="#F68E28" d="M26.588,53.14v3.182h-0.396V53.14H26.588z"/>
						<path fill="#F68E28" d="M26.745,56.48h-0.712v-3.497h0.712V56.48z M26.349,56.165h0.081v-2.867h-0.081V56.165z"/>
					</g>
					<g>
						<path fill="#F68E28" d="M28.889,56.266c-0.108,0.052-0.283,0.085-0.499,0.085c-0.676,0-1.163-0.5-1.163-1.581
							c0-1.257,0.678-1.658,1.229-1.658c0.206,0,0.36,0.037,0.427,0.081l-0.087,0.307c-0.082-0.032-0.164-0.067-0.345-0.067
							c-0.37,0-0.81,0.331-0.81,1.305c0,0.973,0.393,1.294,0.819,1.294c0.149,0,0.278-0.033,0.36-0.065L28.889,56.266z"/>
						<path fill="#F68E28" d="M28.39,56.509c-0.827,0-1.321-0.651-1.321-1.739c0-1.34,0.747-1.815,1.388-1.815
							c0.218,0,0.409,0.04,0.513,0.105l0.099,0.063l-0.168,0.587l-0.162-0.064c-0.078-0.031-0.137-0.056-0.286-0.056
							c-0.301,0-0.651,0.301-0.651,1.146c0,0.424,0.087,1.136,0.661,1.136c0.148,0,0.262-0.039,0.302-0.055l0.173-0.069l0.134,0.605
							l-0.112,0.055C28.822,56.472,28.62,56.509,28.39,56.509z M28.456,53.269c-0.518,0-1.073,0.396-1.073,1.501
							c0,0.904,0.367,1.424,1.007,1.424c0.117,0,0.228-0.011,0.313-0.031l0,0c-0.067,0.015-0.149,0.024-0.242,0.024
							c-0.293,0-0.976-0.14-0.976-1.45c0-1.079,0.521-1.462,0.966-1.462c0.101,0,0.177,0.01,0.238,0.024l0.003-0.01
							C28.636,53.279,28.558,53.269,28.456,53.269z"/>
					</g>
					<g>
						<path fill="#F68E28" d="M29.84,53.14v3.182h-0.396V53.14H29.84z"/>
						<path fill="#F68E28" d="M29.998,56.48h-0.711v-3.497h0.711V56.48z M29.601,56.165h0.082v-2.867h-0.082V56.165z"/>
					</g>
					<g>
						<path fill="#F68E28" d="M30.628,53.187c0.159-0.038,0.345-0.06,0.57-0.06c0.32,0,0.593,0.069,0.772,0.229
							c0.166,0.151,0.254,0.383,0.254,0.661c0,0.294-0.077,0.49-0.212,0.651c-0.186,0.237-0.51,0.355-0.818,0.355
							c-0.068,0-0.118,0-0.176-0.006v1.303h-0.391V53.187z M31.019,54.718c0.047,0.004,0.093,0.009,0.16,0.009
							c0.386,0,0.648-0.231,0.648-0.686c0-0.325-0.144-0.617-0.587-0.617c-0.093,0-0.17,0.008-0.222,0.022V54.718z"/>
						<path fill="#F68E28" d="M31.176,56.48H30.47v-3.418l0.121-0.029c0.186-0.043,0.385-0.064,0.607-0.064
							c0.381,0,0.676,0.091,0.878,0.271c0.2,0.185,0.307,0.453,0.307,0.778c0,0.312-0.081,0.551-0.249,0.753
							c-0.204,0.259-0.574,0.414-0.958,0.411V56.48z M30.784,56.165h0.078v-1.316h0.005l-0.005-0.131v-1.392l0.115-0.032
							c0.006,0,0.012-0.003,0.018-0.005c-0.074,0.007-0.143,0.015-0.211,0.026V56.165z M31.575,53.326
							c0.262,0.11,0.41,0.359,0.41,0.715c0,0.351-0.14,0.611-0.383,0.744c0.117-0.052,0.216-0.123,0.287-0.214
							c0.123-0.147,0.177-0.317,0.177-0.554c0-0.235-0.069-0.423-0.2-0.545C31.792,53.408,31.694,53.359,31.575,53.326z
							 M31.176,54.569h0.003c0.321,0,0.492-0.183,0.492-0.528c0-0.462-0.302-0.47-0.495-0.46V54.569z"/>
					</g>
					<g>
						<path fill="#F68E28" d="M32.954,55.369l-0.227,0.952h-0.387l0.794-3.182h0.438l0.771,3.182h-0.391l-0.227-0.952H32.954z
							 M33.67,55.076l-0.181-0.808c-0.051-0.228-0.098-0.491-0.138-0.728h-0.017c-0.041,0.241-0.093,0.515-0.144,0.728l-0.18,0.808
							H33.67z"/>
						<path fill="#F68E28" d="M34.545,56.48h-0.716l-0.228-0.955h-0.522l-0.228,0.955H32.14l0.872-3.497h0.685L34.545,56.48z
							 M34.078,56.165h0.066l-0.627-2.582c0.038,0.216,0.08,0.448,0.127,0.651l0.222,0.998h-0.01L34.078,56.165z M32.543,56.165
							h0.06l0.223-0.933h-0.011l0.223-0.998c0.026-0.104,0.053-0.233,0.081-0.378L32.543,56.165z M33.207,54.918h0.268l-0.135-0.596
							L33.207,54.918z M33.236,53.384h0.233l-0.021-0.086h-0.19L33.236,53.384z"/>
					</g>
					<g>
						<path fill="#F68E28" d="M34.931,53.14h0.396v2.876h0.974v0.306h-1.37V53.14z"/>
						<path fill="#F68E28" d="M36.457,56.48h-1.684v-3.497h0.711v2.875h0.973V56.48z M35.088,56.165h0.083v-2.867h-0.083V56.165z"/>
					</g>
					<g>
						<path fill="#F68E28" d="M39.508,56.321c-0.062-0.084-0.118-0.146-0.232-0.296c-0.191,0.216-0.474,0.335-0.752,0.335
							c-0.576,0-0.865-0.436-0.865-0.879c0-0.35,0.165-0.661,0.53-0.91v-0.015c-0.148-0.217-0.251-0.454-0.251-0.713
							c0-0.388,0.262-0.742,0.709-0.742c0.319,0,0.613,0.218,0.613,0.652c0,0.316-0.154,0.57-0.598,0.859v0.015
							c0.13,0.197,0.393,0.571,0.659,0.901c0.149-0.293,0.197-0.699,0.207-0.916h0.354c-0.035,0.377-0.149,0.835-0.38,1.151
							c0.065,0.096,0.2,0.256,0.442,0.557H39.508z M39.101,55.794c-0.294-0.369-0.541-0.704-0.747-1.001
							c-0.16,0.137-0.313,0.358-0.313,0.646c0,0.326,0.19,0.634,0.551,0.634C38.797,56.072,38.977,55.973,39.101,55.794z
							 M38.303,53.82c0,0.217,0.062,0.387,0.194,0.58c0.269-0.184,0.412-0.383,0.412-0.628c0-0.193-0.072-0.4-0.298-0.4
							C38.41,53.372,38.303,53.569,38.303,53.82z"/>
						<path fill="#F68E28" d="M38.523,56.518c-0.672,0-1.022-0.521-1.022-1.036c0-0.375,0.162-0.696,0.482-0.955
							c-0.137-0.231-0.205-0.456-0.205-0.683c0-0.513,0.374-0.9,0.868-0.9c0.372,0,0.771,0.254,0.771,0.811
							c0,0.354-0.165,0.631-0.545,0.905c0.106,0.156,0.25,0.357,0.401,0.555c0.073-0.251,0.092-0.515,0.097-0.608l0.007-0.149h0.678
							l-0.016,0.172c-0.021,0.215-0.094,0.728-0.345,1.132c0.043,0.054,0.101,0.126,0.174,0.216l0.403,0.505h-0.846l-0.047-0.064
							c-0.027-0.038-0.054-0.071-0.085-0.109c-0.011-0.016-0.024-0.031-0.036-0.048C39.055,56.422,38.791,56.518,38.523,56.518z
							 M38.061,54.883c-0.164,0.172-0.245,0.37-0.245,0.599c0,0.308,0.161,0.615,0.514,0.7c-0.294-0.117-0.447-0.432-0.447-0.743
							C37.882,55.204,37.965,55.019,38.061,54.883z M39.585,56.165h0.03c-0.119-0.149-0.195-0.244-0.242-0.309l-0.064-0.093v-0.001
							l-0.109-0.135c-0.26-0.32-0.528-0.698-0.669-0.914l-0.025-0.04v-0.088l-0.048,0.033l-0.089-0.129
							c-0.156-0.227-0.224-0.428-0.224-0.67c0-0.152,0.033-0.283,0.092-0.384c-0.098,0.111-0.142,0.262-0.142,0.407
							c0,0.199,0.073,0.403,0.224,0.624l0.027,0.039v0.084l0.037-0.03l0.1,0.143c0.225,0.322,0.473,0.656,0.741,0.993l0.073,0.09
							l-0.002,0.002l0.106,0.142c0.06,0.079,0.103,0.133,0.139,0.18C39.557,56.129,39.571,56.146,39.585,56.165z M38.335,55.041
							c-0.072,0.096-0.139,0.229-0.139,0.397c0,0.238,0.123,0.477,0.395,0.477c0.118,0,0.222-0.043,0.306-0.124
							C38.697,55.537,38.51,55.285,38.335,55.041z M39.674,54.771c-0.012,0.121-0.031,0.277-0.071,0.438
							c0.044-0.136,0.078-0.283,0.103-0.438H39.674z M38.611,53.528c-0.12,0-0.151,0.184-0.151,0.292
							c0,0.128,0.023,0.234,0.082,0.349c0.144-0.128,0.211-0.254,0.211-0.396C38.753,53.661,38.728,53.528,38.611,53.528z
							 M38.929,53.349c0.089,0.1,0.139,0.244,0.139,0.424c0,0.137-0.036,0.266-0.107,0.386c0.112-0.141,0.143-0.271,0.143-0.404
							C39.103,53.555,39.029,53.426,38.929,53.349z"/>
					</g>
					<g>
						<path fill="#F68E28" d="M41.74,56.321l-0.664-3.182h0.406l0.294,1.534c0.076,0.402,0.13,0.756,0.175,1.149h0.017
							c0.046-0.403,0.123-0.747,0.211-1.154l0.318-1.529h0.335l0.324,1.496c0.077,0.378,0.154,0.743,0.2,1.188h0.017
							c0.057-0.459,0.118-0.805,0.181-1.167l0.288-1.517h0.391l-0.674,3.182h-0.392l-0.33-1.548
							c-0.073-0.335-0.133-0.694-0.18-1.044h-0.01c-0.048,0.359-0.108,0.704-0.191,1.059l-0.34,1.533H41.74z"/>
						<path fill="#F68E28" d="M43.686,56.48h-0.646l-0.355-1.675c-0.012-0.053-0.022-0.106-0.034-0.162
							c-0.013,0.06-0.026,0.12-0.041,0.179l-0.366,1.658h-0.629l-0.731-3.497h0.731l0.317,1.66c0.016,0.078,0.029,0.154,0.043,0.229
							c0.011-0.051,0.021-0.103,0.033-0.155l0.362-1.734h0.59l0.365,1.688c0.012,0.059,0.023,0.118,0.036,0.177
							c0.005-0.031,0.01-0.061,0.016-0.093l0.021-0.127l0.313-1.646h0.716L43.686,56.48z M43.295,56.165h0.136l0.039-0.186h-0.216
							L43.295,56.165z M41.868,56.165h0.121l0.042-0.186H41.83L41.868,56.165z M41.27,53.298l0.52,2.481
							c-0.049-0.397-0.099-0.723-0.167-1.076l-0.27-1.405H41.27z M42.849,53.958c0.04,0.267,0.089,0.533,0.143,0.782l0.178,0.834
							c-0.042-0.297-0.097-0.562-0.153-0.838L42.849,53.958z M43.972,53.298l-0.286,1.512c-0.034,0.21-0.069,0.413-0.103,0.64
							l0.455-2.151H43.972z M42.568,53.571h0.195l-0.059-0.273h-0.08L42.568,53.571z"/>
					</g>
					<g>
						<path fill="#F68E28" d="M45.003,55.369l-0.227,0.952h-0.386l0.792-3.182h0.438l0.773,3.182h-0.392l-0.227-0.952H45.003z
							 M45.719,55.076l-0.179-0.808c-0.052-0.228-0.099-0.491-0.14-0.728h-0.016c-0.042,0.241-0.093,0.515-0.145,0.728l-0.181,0.808
							H45.719z"/>
						<path fill="#F68E28" d="M46.595,56.48h-0.717l-0.227-0.955h-0.523l-0.227,0.955h-0.712l0.87-3.497h0.686L46.595,56.48z
							 M46.127,56.165h0.067l-0.627-2.579c0.038,0.215,0.079,0.446,0.126,0.648l0.223,0.998h-0.011L46.127,56.165z M44.592,56.165
							h0.061l0.222-0.933h-0.01l0.223-0.998c0.028-0.117,0.057-0.251,0.081-0.38L44.592,56.165z M45.257,54.918h0.266l-0.132-0.596
							L45.257,54.918z M45.285,53.384h0.233l-0.021-0.086h-0.19L45.285,53.384z"/>
					</g>
					<g>
						<path fill="#F68E28" d="M47.077,53.467h-0.634V53.14h1.664v0.327h-0.633v2.854h-0.397V53.467z"/>
						<path fill="#F68E28" d="M47.632,56.48h-0.711v-2.856h-0.634v-0.641h1.978v0.641h-0.633V56.48z M47.235,56.165h0.081v-2.856
							l0.634-0.011l-1.348,0.011h0.633V56.165z"/>
					</g>
					<g>
						<path fill="#F68E28" d="M49.914,54.812h-0.869v1.194h0.986v0.314h-1.384V53.14h1.323v0.316h-0.926v1.049h0.869V54.812z"/>
						<path fill="#F68E28" d="M50.19,56.48h-1.7v-3.497h1.638v0.631h-0.926v0.733h0.869v0.621h-0.869v0.879h0.988V56.48z
							 M48.806,56.165l1.069-0.002h-0.988v-2.864l0.927-0.001h-1.008V56.165z"/>
					</g>
					<g>
						<path fill="#F68E28" d="M50.63,53.187c0.164-0.042,0.37-0.06,0.565-0.06c0.346,0,0.603,0.065,0.783,0.226
							c0.17,0.16,0.241,0.372,0.241,0.623c0,0.405-0.205,0.67-0.556,0.822v0.009c0.258,0.071,0.392,0.297,0.464,0.714
							c0.082,0.435,0.149,0.702,0.2,0.801h-0.401c-0.052-0.094-0.118-0.396-0.186-0.783c-0.077-0.439-0.227-0.599-0.566-0.599
							h-0.154v1.382H50.63V53.187z M51.021,54.656h0.17c0.376,0,0.629-0.256,0.629-0.639c0-0.368-0.165-0.594-0.588-0.6
							c-0.082,0-0.16,0.006-0.211,0.019V54.656z"/>
						<path fill="#F68E28" d="M52.587,56.48h-0.753l-0.045-0.082c-0.021-0.039-0.086-0.157-0.203-0.834
							c-0.07-0.399-0.183-0.467-0.408-0.468v1.384h-0.705v-3.415l0.117-0.03c0.166-0.044,0.382-0.066,0.605-0.066
							c0.401,0,0.684,0.084,0.887,0.266c0.198,0.186,0.296,0.434,0.296,0.741c0,0.351-0.139,0.633-0.402,0.825
							c0.191,0.174,0.265,0.449,0.307,0.691c0.104,0.548,0.161,0.711,0.186,0.758L52.587,56.48z M52.035,56.165h0.072
							c-0.034-0.127-0.078-0.318-0.134-0.616c-0.066-0.38-0.176-0.512-0.286-0.566c0.121,0.138,0.175,0.329,0.209,0.528
							C51.961,55.887,52.007,56.072,52.035,56.165z M50.786,56.165h0.077v-2.847l0.084-0.024c-0.056,0.005-0.109,0.012-0.161,0.021
							V56.165z M51.356,54.799c0.056,0.011,0.106,0.026,0.15,0.049v-0.093C51.459,54.774,51.409,54.788,51.356,54.799z
							 M51.568,53.32c0.266,0.104,0.407,0.344,0.407,0.697c0,0.203-0.061,0.381-0.167,0.516c0.171-0.134,0.254-0.318,0.254-0.558
							c0-0.219-0.062-0.386-0.192-0.509C51.794,53.398,51.695,53.351,51.568,53.32z M51.178,54.497h0.013
							c0.291,0,0.471-0.183,0.471-0.479c0-0.31-0.125-0.438-0.43-0.441c-0.021,0-0.037,0-0.054,0V54.497z"/>
					</g>
					<g>
						<path fill="#F68E28" d="M53.769,55.902c0.113,0.07,0.325,0.128,0.495,0.128c0.366,0,0.582-0.218,0.582-0.539
							c0-0.292-0.186-0.473-0.459-0.661c-0.277-0.174-0.654-0.472-0.654-0.883c0-0.48,0.365-0.836,0.918-0.836
							c0.216,0,0.4,0.062,0.483,0.119l-0.093,0.311c-0.088-0.058-0.231-0.109-0.411-0.109c-0.345,0-0.506,0.236-0.506,0.455
							c0,0.315,0.18,0.438,0.511,0.654c0.416,0.271,0.602,0.562,0.602,0.917c0,0.549-0.417,0.893-0.973,0.893
							c-0.237,0-0.485-0.07-0.583-0.138L53.769,55.902z"/>
						<path fill="#F68E28" d="M54.264,56.509c-0.244,0-0.533-0.071-0.671-0.165L53.5,56.28l0.174-0.623l0.179,0.11
							c0.08,0.051,0.26,0.104,0.411,0.104c0.27,0,0.425-0.139,0.425-0.381c0-0.193-0.103-0.333-0.392-0.531
							c-0.477-0.301-0.722-0.643-0.722-1.013c0-0.575,0.452-0.993,1.075-0.993c0.22,0,0.444,0.057,0.573,0.146l0.094,0.063
							l-0.186,0.623l-0.176-0.113c-0.031-0.02-0.144-0.084-0.326-0.084c-0.275,0-0.349,0.187-0.349,0.297
							c0,0.224,0.105,0.304,0.438,0.525c0.453,0.291,0.674,0.634,0.674,1.046C55.394,56.076,54.929,56.509,54.264,56.509z
							 M53.869,56.129c0.099,0.033,0.246,0.064,0.395,0.064c0.487,0,0.815-0.296,0.815-0.735c0-0.306-0.163-0.547-0.53-0.784
							c-0.338-0.223-0.581-0.384-0.581-0.787c0-0.304,0.227-0.612,0.662-0.612c0.107,0,0.215,0.019,0.312,0.049l0.002-0.009
							c-0.073-0.025-0.176-0.046-0.293-0.046c-0.455,0-0.76,0.273-0.76,0.679c0,0.255,0.194,0.508,0.58,0.75
							c0.26,0.181,0.531,0.4,0.531,0.794c0,0.417-0.296,0.695-0.738,0.695c-0.125,0-0.269-0.024-0.393-0.066L53.869,56.129z"/>
					</g>
					<g>
						<path fill="#F68E28" d="M57.126,54.812h-0.871v1.194h0.988v0.314h-1.385V53.14h1.323v0.316h-0.927v1.049h0.871V54.812z"/>
						<path fill="#F68E28" d="M57.401,56.48h-1.7v-3.497h1.639v0.631h-0.928v0.733h0.87v0.621h-0.87v0.879h0.989V56.48z
							 M56.016,56.165l1.071-0.002h-0.988v-2.864l0.926-0.001h-1.009V56.165z"/>
					</g>
					<g>
						<path fill="#F68E28" d="M57.84,53.187c0.165-0.042,0.371-0.06,0.567-0.06c0.344,0,0.601,0.065,0.781,0.226
							c0.17,0.16,0.243,0.372,0.243,0.623c0,0.405-0.206,0.67-0.556,0.822v0.009c0.257,0.071,0.391,0.297,0.463,0.714
							c0.082,0.435,0.149,0.702,0.2,0.801h-0.4c-0.053-0.094-0.12-0.396-0.186-0.783c-0.077-0.439-0.228-0.599-0.567-0.599h-0.154
							v1.382H57.84V53.187z M58.231,54.656h0.17c0.376,0,0.628-0.256,0.628-0.639c0-0.368-0.164-0.594-0.587-0.6
							c-0.083,0-0.159,0.006-0.211,0.019V54.656z"/>
						<path fill="#F68E28" d="M59.798,56.48h-0.753L59,56.398c-0.021-0.039-0.085-0.157-0.203-0.834
							c-0.07-0.399-0.183-0.467-0.408-0.468v1.384h-0.706v-3.415l0.118-0.03c0.166-0.044,0.381-0.066,0.606-0.066
							c0.4,0,0.683,0.084,0.887,0.266c0.196,0.186,0.294,0.434,0.294,0.741c0,0.351-0.137,0.633-0.403,0.825
							c0.193,0.174,0.267,0.449,0.309,0.691c0.104,0.548,0.162,0.711,0.187,0.758L59.798,56.48z M59.246,56.165h0.073
							c-0.034-0.127-0.079-0.318-0.135-0.616c-0.066-0.38-0.177-0.512-0.284-0.566c0.118,0.138,0.171,0.329,0.206,0.528
							C59.173,55.887,59.219,56.072,59.246,56.165z M57.998,56.165h0.075v-2.847l0.086-0.024c-0.058,0.005-0.111,0.012-0.161,0.021
							V56.165z M58.567,54.799c0.056,0.011,0.106,0.026,0.15,0.049v-0.093C58.67,54.774,58.62,54.788,58.567,54.799z M58.781,53.32
							c0.264,0.104,0.405,0.344,0.405,0.697c0,0.203-0.061,0.381-0.168,0.516c0.171-0.134,0.255-0.318,0.255-0.558
							c0-0.219-0.062-0.386-0.192-0.509C59.005,53.398,58.907,53.351,58.781,53.32z M58.389,54.497h0.013
							c0.29,0,0.471-0.183,0.471-0.479c0-0.31-0.124-0.438-0.43-0.441c-0.021,0-0.038,0-0.054,0V54.497z"/>
					</g>
					<g>
						<path fill="#F68E28" d="M60.66,56.321l-0.792-3.182h0.428l0.335,1.494c0.081,0.356,0.185,0.814,0.246,1.221h0.017
							c0.05-0.411,0.147-0.854,0.23-1.231l0.33-1.483h0.421l-0.807,3.182H60.66z"/>
						<path fill="#F68E28" d="M61.189,56.48h-0.651l-0.872-3.497h0.755l0.362,1.614c0.032,0.134,0.063,0.275,0.095,0.421
							c0.029-0.137,0.058-0.272,0.086-0.4l0.363-1.635h0.751L61.189,56.48z M60.784,56.165h0.161l0.038-0.153h-0.226l-0.036-0.134
							c-0.062-0.394-0.158-0.832-0.245-1.211l-0.308-1.369h-0.1L60.784,56.165z M61.581,53.298l-0.303,1.359
							c-0.067,0.309-0.139,0.63-0.189,0.941l0.585-2.301H61.581z"/>
					</g>
					<g>
						<path fill="#F68E28" d="M62.812,53.14v3.182h-0.397V53.14H62.812z"/>
						<path fill="#F68E28" d="M62.97,56.48h-0.711v-3.497h0.711V56.48z M62.572,56.165h0.082v-2.867h-0.082V56.165z"/>
					</g>
					<g>
						<path fill="#F68E28" d="M65.114,56.266c-0.109,0.052-0.284,0.085-0.5,0.085c-0.675,0-1.164-0.5-1.164-1.581
							c0-1.257,0.68-1.658,1.23-1.658c0.205,0,0.361,0.037,0.428,0.081l-0.088,0.307c-0.082-0.032-0.165-0.067-0.345-0.067
							c-0.371,0-0.808,0.331-0.808,1.305c0,0.973,0.391,1.294,0.817,1.294c0.15,0,0.278-0.033,0.36-0.065L65.114,56.266z"/>
						<path fill="#F68E28" d="M64.614,56.509c-0.828,0-1.321-0.651-1.321-1.739c0-1.34,0.748-1.815,1.388-1.815
							c0.218,0,0.41,0.04,0.512,0.105l0.1,0.063l-0.167,0.587l-0.162-0.064c-0.077-0.031-0.138-0.056-0.287-0.056
							c-0.301,0-0.651,0.301-0.651,1.146c0,0.424,0.086,1.136,0.661,1.136c0.149,0,0.261-0.039,0.302-0.055l0.173-0.069l0.134,0.605
							l-0.112,0.055C65.046,56.472,64.847,56.509,64.614,56.509z M64.681,53.269c-0.519,0-1.073,0.396-1.073,1.501
							c0,0.904,0.366,1.424,1.007,1.424c0.117,0,0.228-0.011,0.315-0.031l0,0c-0.069,0.015-0.151,0.024-0.244,0.024
							c-0.293,0-0.976-0.14-0.976-1.45c0-1.079,0.521-1.462,0.966-1.462c0.101,0,0.177,0.01,0.238,0.024l0.002-0.01
							C64.86,53.279,64.782,53.269,64.681,53.269z"/>
					</g>
					<g>
						<path fill="#F68E28" d="M66.936,54.812h-0.87v1.194h0.988v0.314h-1.385V53.14h1.323v0.316h-0.927v1.049h0.87V54.812z"/>
						<path fill="#F68E28" d="M67.21,56.48h-1.698v-3.497h1.638v0.631h-0.927v0.733h0.87v0.621h-0.87v0.879h0.987V56.48z
							 M65.826,56.165l1.07-0.002h-0.988v-2.864l0.926-0.001h-1.008V56.165z"/>
					</g>
					<g>
						<path fill="#F68E28" d="M67.568,55.902c0.113,0.07,0.324,0.128,0.495,0.128c0.365,0,0.58-0.218,0.58-0.539
							c0-0.292-0.185-0.473-0.458-0.661c-0.278-0.174-0.653-0.472-0.653-0.883c0-0.48,0.365-0.836,0.917-0.836
							c0.216,0,0.401,0.062,0.482,0.119l-0.092,0.311c-0.087-0.058-0.231-0.109-0.411-0.109c-0.346,0-0.506,0.236-0.506,0.455
							c0,0.315,0.181,0.438,0.511,0.654c0.417,0.271,0.602,0.562,0.602,0.917c0,0.549-0.417,0.893-0.972,0.893
							c-0.238,0-0.485-0.07-0.583-0.138L67.568,55.902z"/>
						<path fill="#F68E28" d="M68.063,56.509c-0.244,0-0.534-0.071-0.672-0.165l-0.094-0.063l0.176-0.623l0.178,0.11
							c0.08,0.051,0.26,0.104,0.412,0.104c0.268,0,0.424-0.139,0.424-0.381c0-0.193-0.103-0.333-0.392-0.531
							c-0.477-0.301-0.722-0.643-0.722-1.013c0-0.575,0.452-0.993,1.075-0.993c0.22,0,0.444,0.057,0.573,0.146l0.094,0.063
							l-0.186,0.623l-0.176-0.113c-0.03-0.02-0.144-0.084-0.326-0.084c-0.274,0-0.348,0.187-0.348,0.297
							c0,0.224,0.104,0.304,0.438,0.525c0.452,0.291,0.675,0.634,0.675,1.046C69.194,56.076,68.729,56.509,68.063,56.509z
							 M67.669,56.129c0.099,0.033,0.246,0.064,0.395,0.064c0.486,0,0.814-0.296,0.814-0.735c0-0.306-0.163-0.547-0.53-0.784
							c-0.338-0.223-0.582-0.384-0.582-0.787c0-0.304,0.227-0.612,0.663-0.612c0.107,0,0.215,0.019,0.312,0.049l0.003-0.009
							c-0.074-0.025-0.177-0.046-0.294-0.046c-0.454,0-0.76,0.273-0.76,0.679c0,0.255,0.194,0.508,0.579,0.75
							c0.261,0.181,0.533,0.4,0.533,0.794c0,0.417-0.298,0.695-0.738,0.695c-0.125,0-0.269-0.024-0.394-0.066L67.669,56.129z"/>
					</g>
				</g>
			</g>
		</g>
	</g>
	<g>
		
			<text transform="matrix(0.9512 0 0 1 12.3711 28.3984)" fill="#F68E28" stroke="#F68E28" stroke-width="0.5" stroke-miterlimit="10" font-family="'HacenTunisiaLt'" font-size="5.656">ةدــئار ةــيــئاـمو ةـــيدــلـب تاـــمدــخ</text>
	</g>
	<g>
		<g>
			<path fill="#0060AD" d="M2.346,32.897h13.081v7.912H4.872v2.685h10.555v2.652H2.346V32.897z M4.872,35.536v2.615h8.029v-2.615
				H4.872z"/>
			<g>
				<path fill="#0060AD" d="M17.44,32.897h13.422v13.249h-2.525V35.544h-8.372v10.603H17.44V32.897z"/>
			</g>
			<g>
				<path fill="#0060AD" d="M31.371,47.73h2.325V37.186h2.537v13.199h-4.862V47.73z"/>
				<rect x="33.696" y="33.06" fill="#0060AD" width="2.537" height="3.172"/>
			</g>
			<path fill="#0060AD" d="M39.001,38.173h11.761v-2.637H39.001v-2.639h14.105v13.164H39.001V38.173z M41.526,40.81v2.685h9.055
				V40.81H41.526z"/>
			<g>
				<rect x="55.634" y="32.897" fill="#0060AD" width="13.083" height="2.656"/>
				<polygon fill="#0060AD" points="68.717,35.554 55.634,46.146 55.634,43.494 68.717,32.897 				"/>
				<rect x="55.634" y="43.494" fill="#0060AD" width="13.083" height="2.652"/>
			</g>
		</g>
	</g>
	<g>
		<g>
			<g>
				<g>
					<g>
						<g>
							<g>
								<g>
									<path fill="#0060AD" d="M2.317,18.311h2.446V7.784h2.667v13.179H2.317V18.311z"/>
									<rect x="4.764" y="3.662" fill="#0060AD" width="2.667" height="3.17"/>
									<rect x="60.532" y="3.695" fill="#0060AD" width="2.602" height="3.17"/>
								</g>
							</g>
						</g>
					</g>
				</g>
				<g>
					<g>
						<polygon fill="#0060AD" points="68.76,20.955 66.104,20.955 66.104,17.443 68.76,17.443 68.76,18.715 67.588,18.715 
							67.588,19.48 68.76,19.48 						"/>
						<rect x="65.41" y="19.48" fill="#0060AD" width="3.35" height="1.475"/>
					</g>
					<g>
						<rect x="66.104" y="3.485" fill="#0060AD" width="2.656" height="13.241"/>
						<polygon fill="#0060AD" points="60.66,14.075 51.709,14.075 51.709,3.482 21.604,3.482 21.604,6.127 49.036,6.127 
							49.036,14.159 49.189,14.075 12.74,14.075 12.74,3.485 10.082,3.485 10.082,16.727 49.036,16.727 49.036,20.963 
							51.709,20.963 51.709,16.804 51.709,16.727 63.317,16.727 63.317,7.817 60.66,7.817 						"/>
					</g>
				</g>
			</g>
			<rect x="36.284" y="17.64" fill="#0060AD" width="2.717" height="3.229"/>
		</g>
	</g>
</g>
</svg>
