<?xml version="1.0" encoding="utf-8"?>
<!-- Generator: Adobe Illustrator 16.0.0, SVG Export Plug-In . SVG Version: 6.00 Build 0)  -->
<!DOCTYPE svg PUBLIC "-//W3C//DTD SVG 1.1//EN" "http://www.w3.org/Graphics/SVG/1.1/DTD/svg11.dtd">
<svg version="1.1" id="Layer_1" xmlns="http://www.w3.org/2000/svg" xmlns:xlink="http://www.w3.org/1999/xlink" x="0px" y="0px"
	 width="150px" height="131px" viewBox="0 0 150 131" enable-background="new 0 0 150 131" xml:space="preserve">
<path fill="#297195" d="M147.014,39.376L115.85,8.211c-2.151-2.15-5.641-2.152-7.791,0l-7.401,7.401
	c-1.464,1.463-1.929,3.543-1.402,5.401c3.548,0.592,7.022,1.637,10.425,3.137c3.131,1.903,6.26,3.806,9.389,5.71
	c8.147,6.513,13.664,15.949,15.461,26.188c1.775,0.39,3.703-0.101,5.084-1.479l7.4-7.402
	C149.165,45.016,149.165,41.527,147.014,39.376z"/>
<g>
	<g>
		<path fill="#297195" d="M119.396,35.109c-0.855-0.842-11.135-10.62-26.067-10.62c-8.379,0-16.56,3.103-24.314,9.221L48.029,54.676
			c-0.582,0.497-3.407,3.099-3.624,6.961c-0.156,2.79,1.042,5.482,3.565,8.005l0.098,0.09c0.112,0.1,2.777,2.369,6.628,2.369
			c2.658,0,5.192-1.045,7.528-3.107l9.174-9.165c0.549-0.339,3.131-1.798,6.879-1.798c1.75,0,3.512,0.315,5.266,0.936h6.907
			c-0.111-0.08-0.229-0.151-0.341-0.239c-0.049-0.05-0.096-0.098-0.142-0.148c-0.556-0.572-1.141-1.112-1.727-1.653
			c-3.263-1.786-6.614-2.698-9.964-2.698c-5.483,0-9.034,2.459-9.182,2.564l-9.43,9.391c-1.608,1.405-3.281,2.116-4.97,2.116
			c-2.201,0-3.844-1.209-4.102-1.409c-1.671-1.694-2.476-3.378-2.395-5.011c0.125-2.509,2.286-4.303,2.299-4.313l20.958-20.939
			c7.042-5.531,14.4-8.335,21.873-8.335c13.66,0,23.329,9.456,23.423,9.548l0.112,0.104c0.988,0.845,23.921,21.018-0.174,50.03
			l-15.133,15.135l-0.863-0.284v4.003l1.896,0.624l16.851-16.849l0.117-0.129C145.512,59.295,120.911,36.459,119.396,35.109z"/>
	</g>
	<g>
		<path fill="#297195" d="M90.673,61.812h-18.32c-1.028,1.451-2.269,2.656-3.6,3.801h21.919c1.684,0,3.051,1.37,3.051,3.052v51.507
			c0,1.684-1.367,3.053-3.051,3.053H9.448c-1.683,0-3.052-1.369-3.052-3.053V68.665c0-1.683,1.369-3.052,3.052-3.052h33.105
			c-0.229-0.779-0.397-1.602-0.483-2.474c-0.043-0.438-0.058-0.881-0.05-1.328H9.448c-3.779,0-6.854,3.074-6.854,6.853v51.507
			c0,3.779,3.075,6.854,6.854,6.854h81.225c3.778,0,6.854-3.075,6.854-6.854V68.665C97.525,64.886,94.451,61.812,90.673,61.812z"/>
	</g>
</g>
<path fill="#297195" d="M47.819,103.834c0,4.372-3.544,7.915-7.916,7.915h-18.47c-4.372,0-7.915-3.543-7.915-7.915V84.835
	c0-4.37,3.543-7.915,7.915-7.915h18.471c4.372,0,7.916,3.545,7.916,7.915L47.819,103.834L47.819,103.834z"/>
<path fill="#297195" d="M86.904,110.271c0,1.035-0.84,1.873-1.875,1.873H59.786c-1.036,0-1.874-0.838-1.874-1.873v-0.767
	c0-1.034,0.838-1.874,1.874-1.874h25.243c1.035,0,1.875,0.84,1.875,1.874V110.271z"/>
<path fill="#297195" d="M86.904,99.891c0,1.033-0.84,1.875-1.875,1.875H59.786c-1.036,0-1.874-0.842-1.874-1.875v-0.767
	c0-1.036,0.838-1.874,1.874-1.874h25.243c1.035,0,1.875,0.838,1.875,1.874V99.891z"/>
<path fill="#297195" d="M86.904,89.637c0,1.034-0.84,1.874-1.875,1.874H59.786c-1.036,0-1.874-0.84-1.874-1.874v-0.768
	c0-1.034,0.838-1.874,1.874-1.874h25.243c1.035,0,1.875,0.84,1.875,1.874V89.637z"/>
<path fill="#297195" d="M86.904,79.165c0,1.036-0.84,1.874-1.875,1.874H59.786c-1.036,0-1.874-0.838-1.874-1.874v-0.767
	c0-1.035,0.838-1.873,1.874-1.873h25.243c1.035,0,1.875,0.838,1.875,1.873V79.165z"/>
</svg>
