<svg xmlns="http://www.w3.org/2000/svg" xmlns:xlink="http://www.w3.org/1999/xlink" width="14" height="20" viewBox="0 0 14 20">
  <defs>
    <clipPath id="clip-Muscat">
      <rect width="14" height="20"/>
    </clipPath>
  </defs>
  <g id="Muscat" clip-path="url(#clip-Muscat)">
    <g id="Group_587" data-name="Group 587" transform="translate(-416.69 -189.301)">
      <g id="Group_77" data-name="Group 77" transform="translate(417.017 192.342)">
        <g id="Group_72" data-name="Group 72" transform="translate(0 4.81)">
          <rect id="Rectangle_88" data-name="Rectangle 88" width="0.513" height="7.608" transform="translate(0 2.753)" fill="none" stroke="#fff" stroke-linecap="round" stroke-linejoin="round" stroke-width="0.3"/>
          <line id="Line_65" data-name="Line 65" x2="0.513" transform="translate(0 3.592)" fill="none" stroke="#fff" stroke-linecap="round" stroke-linejoin="round" stroke-width="0.3"/>
          <line id="Line_66" data-name="Line 66" x2="0.513" transform="translate(0 4.497)" fill="none" stroke="#fff" stroke-linecap="round" stroke-linejoin="round" stroke-width="0.3"/>
          <line id="Line_67" data-name="Line 67" x2="0.513" transform="translate(0 8.064)" fill="none" stroke="#fff" stroke-linecap="round" stroke-linejoin="round" stroke-width="0.3"/>
          <line id="Line_68" data-name="Line 68" x2="0.513" transform="translate(0 8.969)" fill="none" stroke="#fff" stroke-linecap="round" stroke-linejoin="round" stroke-width="0.3"/>
          <path id="Path_197" data-name="Path 197" d="M417.18,224.589l-.257,2.753h.513Z" transform="translate(-416.923 -224.589)" fill="none" stroke="#fff" stroke-linecap="round" stroke-linejoin="round" stroke-width="0.3"/>
        </g>
        <g id="Group_73" data-name="Group 73" transform="translate(3.668 4.81)">
          <rect id="Rectangle_89" data-name="Rectangle 89" width="0.513" height="7.608" transform="translate(0 2.753)" fill="none" stroke="#fff" stroke-linecap="round" stroke-linejoin="round" stroke-width="0.3"/>
          <line id="Line_69" data-name="Line 69" x2="0.513" transform="translate(0 3.592)" fill="none" stroke="#fff" stroke-linecap="round" stroke-linejoin="round" stroke-width="0.3"/>
          <line id="Line_70" data-name="Line 70" x2="0.513" transform="translate(0 4.497)" fill="none" stroke="#fff" stroke-linecap="round" stroke-linejoin="round" stroke-width="0.3"/>
          <line id="Line_71" data-name="Line 71" x2="0.513" transform="translate(0 8.064)" fill="none" stroke="#fff" stroke-linecap="round" stroke-linejoin="round" stroke-width="0.3"/>
          <line id="Line_72" data-name="Line 72" x2="0.513" transform="translate(0 8.969)" fill="none" stroke="#fff" stroke-linecap="round" stroke-linejoin="round" stroke-width="0.3"/>
          <path id="Path_198" data-name="Path 198" d="M437.679,224.589l-.256,2.753h.513Z" transform="translate(-437.423 -224.589)" fill="none" stroke="#fff" stroke-linecap="round" stroke-linejoin="round" stroke-width="0.3"/>
        </g>
        <g id="Group_76" data-name="Group 76" transform="translate(0.525 0)">
          <rect id="Rectangle_90" data-name="Rectangle 90" width="3.155" height="6.769" transform="translate(0 8.402)" fill="none" stroke="#fff" stroke-linecap="round" stroke-linejoin="round" stroke-width="0.3"/>
          <line id="Line_73" data-name="Line 73" x2="3.155" transform="translate(0 13.54)" fill="none" stroke="#fff" stroke-linecap="round" stroke-linejoin="round" stroke-width="0.3"/>
          <line id="Line_74" data-name="Line 74" x2="3.155" transform="translate(0 10.177)" fill="none" stroke="#fff" stroke-linecap="round" stroke-linejoin="round" stroke-width="0.3"/>
          <g id="Group_74" data-name="Group 74" transform="translate(0.276 8.816)">
            <path id="Rectangle_91" data-name="Rectangle 91" d="M.288,0h0A.287.287,0,0,1,.575.287V.462A.287.287,0,0,1,.288.749h0A.287.287,0,0,1,0,.462V.288A.288.288,0,0,1,.288,0Z" fill="none" stroke="#fff" stroke-linecap="round" stroke-linejoin="round" stroke-width="0.3"/>
            <path id="Rectangle_92" data-name="Rectangle 92" d="M.288,0h0A.287.287,0,0,1,.575.287V.462A.287.287,0,0,1,.287.749h0A.287.287,0,0,1,0,.462V.288A.288.288,0,0,1,.288,0Z" transform="translate(1.015)" fill="none" stroke="#fff" stroke-linecap="round" stroke-linejoin="round" stroke-width="0.3"/>
            <rect id="Rectangle_93" data-name="Rectangle 93" width="0.575" height="0.749" rx="0.288" transform="translate(2.029)" fill="none" stroke="#fff" stroke-linecap="round" stroke-linejoin="round" stroke-width="0.3"/>
          </g>
          <path id="Path_199" data-name="Path 199" d="M427.494,259.014a.328.328,0,1,1-.328-.329A.328.328,0,0,1,427.494,259.014Z" transform="translate(-425.588 -247.774)" fill="none" stroke="#fff" stroke-linecap="round" stroke-linejoin="round" stroke-width="0.3"/>
          <g id="Group_75" data-name="Group 75" transform="translate(0.987 11.853)">
            <path id="Path_200" data-name="Path 200" d="M425.88,264.981a.255.255,0,0,1-.255.255h0a.255.255,0,0,1-.255-.255v-.78a.255.255,0,0,1,.255-.255h0a.255.255,0,0,1,.255.255Z" transform="translate(-425.37 -263.946)" fill="none" stroke="#fff" stroke-linecap="round" stroke-linejoin="round" stroke-width="0.3"/>
            <path id="Path_201" data-name="Path 201" d="M429.635,264.981a.255.255,0,0,1-.255.255h0a.255.255,0,0,1-.255-.255v-.78a.255.255,0,0,1,.255-.255h0a.255.255,0,0,1,.255.255Z" transform="translate(-428.453 -263.946)" fill="none" stroke="#fff" stroke-linecap="round" stroke-linejoin="round" stroke-width="0.3"/>
          </g>
          <path id="Path_202" data-name="Path 202" d="M424.349,277.1c0-.427.346-1.175.774-1.175s.774.748.774,1.175Z" transform="translate(-423.545 -261.926)" fill="none" stroke="#fff" stroke-linecap="round" stroke-linejoin="round" stroke-width="0.3"/>
          <path id="Path_203" data-name="Path 203" d="M421.434,206.586l-1.578,6.814h3.155Z" transform="translate(-419.856 -204.997)" fill="none" stroke="#fff" stroke-linecap="round" stroke-linejoin="round" stroke-width="0.3"/>
          <line id="Line_75" data-name="Line 75" y1="1.588" transform="translate(1.578)" fill="none" stroke="#fff" stroke-linecap="round" stroke-linejoin="round" stroke-width="0.3"/>
        </g>
      </g>
      <g id="Group_80" data-name="Group 80" transform="translate(421.192 195.13)">
        <g id="Group_78" data-name="Group 78" transform="translate(0 0)">
          <path id="Path_204" data-name="Path 204" d="M441.29,233.149h-1.034v-2.871l.517-.545v-1.064h.517Z" transform="translate(-440.256 -225.916)" fill="none" stroke="#fff" stroke-linecap="round" stroke-linejoin="round" stroke-width="0.3"/>
          <line id="Line_76" data-name="Line 76" x2="1.034" transform="translate(0 5.452)" fill="none" stroke="#fff" stroke-linecap="round" stroke-linejoin="round" stroke-width="0.3"/>
          <path id="Path_205" data-name="Path 205" d="M443.4,213.285l-.257,2.753h.513Z" transform="translate(-442.627 -213.285)" fill="none" stroke="#fff" stroke-linecap="round" stroke-linejoin="round" stroke-width="0.3"/>
        </g>
        <g id="Group_79" data-name="Group 79" transform="translate(3.862 0)">
          <path id="Path_206" data-name="Path 206" d="M461.841,233.149h1.034v-2.871l-.517-.545v-1.064h-.517Z" transform="translate(-461.841 -225.916)" fill="none" stroke="#fff" stroke-linecap="round" stroke-linejoin="round" stroke-width="0.3"/>
          <line id="Line_77" data-name="Line 77" x1="1.034" transform="translate(0 5.452)" fill="none" stroke="#fff" stroke-linecap="round" stroke-linejoin="round" stroke-width="0.3"/>
          <path id="Path_207" data-name="Path 207" d="M462.12,213.285l.256,2.753h-.513Z" transform="translate(-461.859 -213.285)" fill="none" stroke="#fff" stroke-linecap="round" stroke-linejoin="round" stroke-width="0.3"/>
        </g>
      </g>
      <path id="Path_208" data-name="Path 208" d="M448.855,236.747l-1.417-1.336-1.416,1.336,0-3.7h2.833Z" transform="translate(-23.799 -34.384)" fill="none" stroke="#fff" stroke-linecap="round" stroke-linejoin="round" stroke-width="0.3"/>
      <path id="Path_209" data-name="Path 209" d="M447.447,195.179l-1.414,6.777h2.829Z" transform="translate(-23.808 -3.289)" fill="none" stroke="#fff" stroke-linecap="round" stroke-linejoin="round" stroke-width="0.3"/>
      <line id="Line_78" data-name="Line 78" y1="1.589" transform="translate(423.64 190.301)" fill="none" stroke="#fff" stroke-linecap="round" stroke-linejoin="round" stroke-width="0.3"/>
      <g id="Group_81" data-name="Group 81" transform="translate(423.164 202.054)">
        <path id="Path_210" data-name="Path 210" d="M451.408,252.861a.065.065,0,0,1-.065.065h0a.064.064,0,0,1-.065-.065v-.814a.065.065,0,0,1,.065-.065h0a.065.065,0,0,1,.065.065Z" transform="translate(-451.279 -251.982)" fill="#fff" stroke="#707070" stroke-width="0.3"/>
        <path id="Path_211" data-name="Path 211" d="M453.7,252.861a.065.065,0,0,1-.065.065h0a.065.065,0,0,1-.065-.065v-.814a.065.065,0,0,1,.065-.065h0a.065.065,0,0,1,.065.065Z" transform="translate(-453.163 -251.982)" fill="#fff" stroke="#707070" stroke-width="0.3"/>
        <path id="Path_212" data-name="Path 212" d="M456,252.861a.065.065,0,0,1-.065.065h0a.064.064,0,0,1-.065-.065v-.814a.065.065,0,0,1,.065-.065h0a.065.065,0,0,1,.065.065Z" transform="translate(-455.05 -251.982)" fill="#fff" stroke="#707070" stroke-width="0.3"/>
      </g>
      <g id="Group_82" data-name="Group 82" transform="translate(421.628 203.564)">
        <path id="Path_213" data-name="Path 213" d="M442.7,266.248c0-.264.214-.726.478-.726s.478.462.478.726v2.034H442.7Z" transform="translate(-442.695 -264.609)" fill="none" stroke="#fff" stroke-linecap="round" stroke-linejoin="round" stroke-width="0.3"/>
        <path id="Path_214" data-name="Path 214" d="M459.836,266.248c0-.264.214-.726.478-.726s.478.462.478.726v2.034h-.956Z" transform="translate(-456.769 -264.609)" fill="none" stroke="#fff" stroke-linecap="round" stroke-linejoin="round" stroke-width="0.3"/>
        <path id="Path_215" data-name="Path 215" d="M450.386,261.392c0-.354.287-.974.641-.974s.642.62.642.974v2.73h-1.283Z" transform="translate(-449.01 -260.418)" fill="none" stroke="#fff" stroke-linecap="round" stroke-linejoin="round" stroke-width="0.3"/>
      </g>
      <g id="Group_83" data-name="Group 83" transform="translate(422.533 199.61)">
        <path id="Path_216" data-name="Path 216" d="M448.011,241.135c-.145,0-.263.254-.263.4v1.12h.464l.062-.058v-1.062C448.274,241.389,448.156,241.135,448.011,241.135Z" transform="translate(-447.748 -240.632)" fill="none" stroke="#fff" stroke-linecap="round" stroke-linejoin="round" stroke-width="0.3"/>
        <path id="Path_217" data-name="Path 217" d="M457.711,241.535c0-.145-.118-.4-.263-.4s-.263.254-.263.4V242.6l.062.058h.464Z" transform="translate(-455.496 -240.632)" fill="none" stroke="#fff" stroke-linecap="round" stroke-linejoin="round" stroke-width="0.3"/>
        <path id="Path_218" data-name="Path 218" d="M452.334,238.326c-.2,0-.353.341-.353.536v1.21l.35-.33.356.336v-1.216C452.687,238.667,452.529,238.326,452.334,238.326Z" transform="translate(-451.224 -238.326)" fill="none" stroke="#fff" stroke-linecap="round" stroke-linejoin="round" stroke-width="0.3"/>
      </g>
      <path id="Path_219" data-name="Path 219" d="M452.315,220.909c-.195,0-.353.341-.353.536v1.216h.706v-1.216C452.668,221.25,452.51,220.909,452.315,220.909Z" transform="translate(-28.675 -24.415)" fill="none" stroke="#fff" stroke-linecap="round" stroke-linejoin="round" stroke-width="0.3"/>
      <line id="Line_79" data-name="Line 79" x2="4.854" transform="translate(421.213 202.998)" fill="none" stroke="#fff" stroke-linecap="round" stroke-linejoin="round" stroke-width="0.3"/>
      <line id="Line_80" data-name="Line 80" x2="4.854" transform="translate(421.213 207.513)" fill="#fff" stroke="#fff" stroke-linecap="round" stroke-linejoin="round" stroke-width="0.3"/>
      <g id="Group_89" data-name="Group 89" transform="translate(426.088 192.342)">
        <g id="Group_84" data-name="Group 84" transform="translate(0 4.81)">
          <rect id="Rectangle_94" data-name="Rectangle 94" width="0.513" height="7.608" transform="translate(0 2.753)" fill="none" stroke="#fff" stroke-linecap="round" stroke-linejoin="round" stroke-width="0.3"/>
          <line id="Line_81" data-name="Line 81" x2="0.513" transform="translate(0 3.592)" fill="none" stroke="#fff" stroke-linecap="round" stroke-linejoin="round" stroke-width="0.3"/>
          <line id="Line_82" data-name="Line 82" x2="0.513" transform="translate(0 4.497)" fill="none" stroke="#fff" stroke-linecap="round" stroke-linejoin="round" stroke-width="0.3"/>
          <line id="Line_83" data-name="Line 83" x2="0.513" transform="translate(0 8.064)" fill="none" stroke="#fff" stroke-linecap="round" stroke-linejoin="round" stroke-width="0.3"/>
          <line id="Line_84" data-name="Line 84" x2="0.513" transform="translate(0 8.969)" fill="none" stroke="#fff" stroke-linecap="round" stroke-linejoin="round" stroke-width="0.3"/>
          <path id="Path_220" data-name="Path 220" d="M467.875,224.589l-.256,2.753h.513Z" transform="translate(-467.618 -224.589)" fill="none" stroke="#fff" stroke-linecap="round" stroke-linejoin="round" stroke-width="0.3"/>
        </g>
        <g id="Group_85" data-name="Group 85" transform="translate(3.668 4.81)">
          <rect id="Rectangle_95" data-name="Rectangle 95" width="0.513" height="7.608" transform="translate(0 2.753)" fill="none" stroke="#fff" stroke-linecap="round" stroke-linejoin="round" stroke-width="0.3"/>
          <line id="Line_85" data-name="Line 85" x2="0.513" transform="translate(0 3.592)" fill="none" stroke="#fff" stroke-linecap="round" stroke-linejoin="round" stroke-width="0.3"/>
          <line id="Line_86" data-name="Line 86" x2="0.513" transform="translate(0 4.497)" fill="none" stroke="#fff" stroke-linecap="round" stroke-linejoin="round" stroke-width="0.3"/>
          <line id="Line_87" data-name="Line 87" x2="0.513" transform="translate(0 8.064)" fill="none" stroke="#fff" stroke-linecap="round" stroke-linejoin="round" stroke-width="0.3"/>
          <line id="Line_88" data-name="Line 88" x2="0.513" transform="translate(0 8.969)" fill="none" stroke="#fff" stroke-linecap="round" stroke-linejoin="round" stroke-width="0.3"/>
          <path id="Path_221" data-name="Path 221" d="M488.373,224.589l-.257,2.753h.513Z" transform="translate(-488.116 -224.589)" fill="none" stroke="#fff" stroke-linecap="round" stroke-linejoin="round" stroke-width="0.3"/>
        </g>
        <g id="Group_88" data-name="Group 88" transform="translate(0.513 0)">
          <rect id="Rectangle_96" data-name="Rectangle 96" width="3.155" height="6.769" transform="translate(0 8.402)" fill="none" stroke="#fff" stroke-linecap="round" stroke-linejoin="round" stroke-width="0.3"/>
          <line id="Line_89" data-name="Line 89" x2="3.155" transform="translate(0 13.54)" fill="none" stroke="#fff" stroke-linecap="round" stroke-linejoin="round" stroke-width="0.3"/>
          <line id="Line_90" data-name="Line 90" x2="3.155" transform="translate(0 10.177)" fill="none" stroke="#fff" stroke-linecap="round" stroke-linejoin="round" stroke-width="0.3"/>
          <g id="Group_86" data-name="Group 86" transform="translate(0.276 8.816)">
            <path id="Rectangle_97" data-name="Rectangle 97" d="M.288,0h0A.287.287,0,0,1,.575.287V.462A.287.287,0,0,1,.288.749h0A.287.287,0,0,1,0,.462V.288A.288.288,0,0,1,.288,0Z" fill="none" stroke="#fff" stroke-linecap="round" stroke-linejoin="round" stroke-width="0.3"/>
            <path id="Rectangle_98" data-name="Rectangle 98" d="M.287,0h0A.287.287,0,0,1,.575.287V.462A.287.287,0,0,1,.287.749h0A.287.287,0,0,1,0,.462V.287A.287.287,0,0,1,.287,0Z" transform="translate(1.015)" fill="none" stroke="#fff" stroke-linecap="round" stroke-linejoin="round" stroke-width="0.3"/>
            <path id="Rectangle_99" data-name="Rectangle 99" d="M.288,0h0A.287.287,0,0,1,.575.287V.462A.287.287,0,0,1,.288.749h0A.287.287,0,0,1,0,.462V.288A.288.288,0,0,1,.288,0Z" transform="translate(2.029)" fill="none" stroke="#fff" stroke-linecap="round" stroke-linejoin="round" stroke-width="0.3"/>
          </g>
          <path id="Path_222" data-name="Path 222" d="M478.121,259.014a.328.328,0,1,1-.328-.329A.328.328,0,0,1,478.121,259.014Z" transform="translate(-476.215 -247.774)" fill="none" stroke="#fff" stroke-linecap="round" stroke-linejoin="round" stroke-width="0.3"/>
          <g id="Group_87" data-name="Group 87" transform="translate(0.987 11.853)">
            <path id="Path_223" data-name="Path 223" d="M476.507,264.981a.255.255,0,0,1-.255.255h0a.255.255,0,0,1-.255-.255v-.78a.255.255,0,0,1,.255-.255h0a.255.255,0,0,1,.255.255Z" transform="translate(-475.997 -263.946)" fill="none" stroke="#fff" stroke-linecap="round" stroke-linejoin="round" stroke-width="0.3"/>
            <path id="Path_224" data-name="Path 224" d="M480.262,264.981a.255.255,0,0,1-.255.255h0a.255.255,0,0,1-.255-.255v-.78a.255.255,0,0,1,.255-.255h0a.255.255,0,0,1,.255.255Z" transform="translate(-479.08 -263.946)" fill="none" stroke="#fff" stroke-linecap="round" stroke-linejoin="round" stroke-width="0.3"/>
          </g>
          <path id="Path_225" data-name="Path 225" d="M474.976,277.1c0-.427.346-1.175.774-1.175s.774.748.774,1.175Z" transform="translate(-474.172 -261.926)" fill="none" stroke="#fff" stroke-linecap="round" stroke-linejoin="round" stroke-width="0.3"/>
          <path id="Path_226" data-name="Path 226" d="M472.061,206.586l-1.578,6.814h3.155Z" transform="translate(-470.483 -204.997)" fill="none" stroke="#fff" stroke-linecap="round" stroke-linejoin="round" stroke-width="0.3"/>
          <line id="Line_91" data-name="Line 91" y1="1.588" transform="translate(1.578)" fill="none" stroke="#fff" stroke-linecap="round" stroke-linejoin="round" stroke-width="0.3"/>
        </g>
      </g>
    </g>
  </g>
</svg>
