<svg xmlns="http://www.w3.org/2000/svg" xmlns:xlink="http://www.w3.org/1999/xlink" width="14" height="20" viewBox="0 0 14 20">
  <defs>
    <clipPath id="clip-Muscat">
      <rect width="14" height="20"/>
    </clipPath>
  </defs>
  <g id="Muscat" clip-path="url(#clip-Muscat)">
    <g id="Group_21" data-name="Group 21" transform="translate(-339.644 -86.519) rotate(-21)">
      <path id="Path_269" data-name="Path 269" d="M290.479,229.891c-.992,2.144-2.717,5.143-1.672,7.541a5.545,5.545,0,0,0,4.26,3.066c2.363.183,3.889-1.552,4.882-3.447a13.022,13.022,0,0,0,1.515-3.727" transform="translate(-5.734 -17.042)" fill="none" stroke="#fff" stroke-miterlimit="10" stroke-width="0.16"/>
      <path id="Path_270" data-name="Path 270" d="M304.17,244.793c-.268.491-.785,1.145-.7,1.7a.925.925,0,0,0,1.189.766c.527-.2.709-.951.9-1.435l.254-.646" transform="translate(-16.555 -27.809)" fill="none" stroke="#fff" stroke-miterlimit="10" stroke-width="0.16"/>
      <path id="Path_271" data-name="Path 271" d="M311.342,236.236c.006-.11-.033-.2-.233-.166-.733.16.22,1.242.324.314.024-.251-.1-.411-.311-.346" transform="translate(-21.885 -21.472)" fill="none" stroke="#fff" stroke-miterlimit="10" stroke-width="0.16"/>
      <g id="Group_19" data-name="Group 19" transform="translate(284.681 214.969)">
        <path id="Path_272" data-name="Path 272" d="M297.5,238.651c.15-.761-.87-1.261-1.488-1.082a5.742,5.742,0,0,0-.557.278" transform="translate(-295.452 -237.532)" fill="none" stroke="#fff" stroke-miterlimit="10" stroke-width="0.16"/>
        <path id="Path_273" data-name="Path 273" d="M298.336,237.98c-.8.529.737,1.159.569.323-.022-.133-.035-.163-.143-.206" transform="translate(-297.367 -237.856)" fill="none" stroke="#fff" stroke-miterlimit="10" stroke-width="0.16"/>
      </g>
      <g id="Group_20" data-name="Group 20" transform="translate(289.846 216.948)">
        <path id="Path_274" data-name="Path 274" d="M314.065,245.028c.408-.66,1.5-.331,1.826.221a5.726,5.726,0,0,1,.218.583" transform="translate(-314.065 -244.662)" fill="none" stroke="#fff" stroke-miterlimit="10" stroke-width="0.16"/>
        <path id="Path_275" data-name="Path 275" d="M317.219,245.405c.229.935-1.329.347-.637-.151.107-.082.137-.095.244-.053" transform="translate(-315.755 -245.035)" fill="none" stroke="#fff" stroke-miterlimit="10" stroke-width="0.16"/>
      </g>
      <path id="Path_276" data-name="Path 276" d="M287.581,236.987c-.162-.536-.563-.843-1.084-.4a1.133,1.133,0,0,0,.2,1.82,1.6,1.6,0,0,0,.456.1" transform="translate(-4.034 -21.726)" fill="none" stroke="#fff" stroke-miterlimit="10" stroke-width="0.16"/>
      <path id="Path_277" data-name="Path 277" d="M322.8,251.135a.738.738,0,0,1,.805-.28c.917.385.139,1.669-.586,1.807-.244.053-.809-.218-.775-.3" transform="translate(-30.132 -32.164)" fill="none" stroke="#fff" stroke-miterlimit="10" stroke-width="0.16"/>
      <path id="Path_278" data-name="Path 278" d="M295.376,229.861a5.478,5.478,0,0,0,1.432.339,9.493,9.493,0,0,0,3.433.082c.289-.073.578-.332.829-.308" transform="translate(-10.716 -17.02)" fill="none" stroke="#fff" stroke-miterlimit="10" stroke-width="0.16"/>
      <path id="Path_279" data-name="Path 279" d="M315.434,230.089a2.233,2.233,0,0,0,.494.828,8.829,8.829,0,0,0,2.5,2.362,5.249,5.249,0,0,1,.563.37" transform="translate(-25.209 -17.185)" fill="none" stroke="#fff" stroke-miterlimit="10" stroke-width="0.16"/>
      <path id="Path_280" data-name="Path 280" d="M289.218,220.972a5.721,5.721,0,0,1,.749-3.991c1.072-1.778,3.021-2.092,4.948-1.782a12.706,12.706,0,0,1,4.44,1.6c1.6.963,3.125,2.384,2.809,4.421a6.429,6.429,0,0,1-2.129,3.71c-.057.052-.1.071-.16.123" transform="translate(-6.189 -6.351)" fill="none" stroke="#fff" stroke-miterlimit="10" stroke-width="0.16"/>
      <path id="Path_281" data-name="Path 281" d="M314.535,210.931a.92.92,0,0,0,.641-.493,2.666,2.666,0,0,0-.591-2.953c-.959-.973-3.623-1.685-4.783-.725-.436.35-.859,1.712-.419,2.109" transform="translate(-20.703 0)" fill="none" stroke="#fff" stroke-miterlimit="10" stroke-width="0.16"/>
      <path id="Path_282" data-name="Path 282" d="M294.737,237.648a.8.8,0,0,1-.345-.384" transform="translate(-10.005 -22.369)" fill="none" stroke="#fff" stroke-miterlimit="10" stroke-width="0.16"/>
      <path id="Path_283" data-name="Path 283" d="M321.23,248.309c.15-.066.378-.075.558-.153" transform="translate(-29.397 -30.239)" fill="none" stroke="#fff" stroke-miterlimit="10" stroke-width="0.16"/>
      <path id="Path_284" data-name="Path 284" d="M319.729,256.059a.833.833,0,0,1,.484.413,1.431,1.431,0,0,1-1.052,2.17,1.039,1.039,0,0,1-1.065-.766" transform="translate(-27.132 -35.949)" fill="none" stroke="#fff" stroke-miterlimit="10" stroke-width="0.16"/>
      <path id="Path_285" data-name="Path 285" d="M326.478,259.194a.911.911,0,0,1,.236-.032" transform="translate(-33.188 -38.191)" fill="none" stroke="#fff" stroke-miterlimit="10" stroke-width="0.16"/>
      <path id="Path_286" data-name="Path 286" d="M326.564,260.656c.035.038.168.14.225.187" transform="translate(-33.251 -39.271)" fill="none" stroke="#fff" stroke-miterlimit="10" stroke-width="0.16"/>
      <path id="Path_287" data-name="Path 287" d="M326.159,262.824a.348.348,0,0,0,.19.149" transform="translate(-32.958 -40.837)" fill="none" stroke="#fff" stroke-miterlimit="10" stroke-width="0.16"/>
      <path id="Path_288" data-name="Path 288" d="M324.807,264.178a.319.319,0,0,0,.088.283" transform="translate(-31.977 -41.815)" fill="none" stroke="#fff" stroke-miterlimit="10" stroke-width="0.16"/>
      <path id="Path_289" data-name="Path 289" d="M322.9,265.35c-.012.095-.033.21-.046.3" transform="translate(-30.569 -42.662)" fill="none" stroke="#fff" stroke-miterlimit="10" stroke-width="0.16"/>
      <path id="Path_290" data-name="Path 290" d="M320.126,265.426a.829.829,0,0,1-.136.22" transform="translate(-28.501 -42.717)" fill="none" stroke="#fff" stroke-miterlimit="10" stroke-width="0.16"/>
      <path id="Path_291" data-name="Path 291" d="M318.209,264.523a.673.673,0,0,1-.252.2" transform="translate(-27.032 -42.065)" fill="none" stroke="#fff" stroke-miterlimit="10" stroke-width="0.16"/>
      <path id="Path_292" data-name="Path 292" d="M283.995,242.124c-.5-.246-1.14.247-1.461.618a1.382,1.382,0,0,0,.576,2.263,1.365,1.365,0,0,0,.807-.031" transform="translate(-1.175 -25.832)" fill="none" stroke="#fff" stroke-miterlimit="10" stroke-width="0.16"/>
      <path id="Path_293" data-name="Path 293" d="M284.433,242.322c-.052,0-.178-.243-.32-.324" transform="translate(-2.578 -25.79)" fill="none" stroke="#fff" stroke-miterlimit="10" stroke-width="0.16"/>
      <path id="Path_294" data-name="Path 294" d="M281.972,244.714a2.373,2.373,0,0,1-.4-.13" transform="translate(-0.745 -27.658)" fill="none" stroke="#fff" stroke-miterlimit="10" stroke-width="0.16"/>
      <path id="Path_295" data-name="Path 295" d="M280.927,248.024a2.481,2.481,0,0,0-.382.024" transform="translate(0 -30.141)" fill="none" stroke="#fff" stroke-miterlimit="10" stroke-width="0.16"/>
      <path id="Path_296" data-name="Path 296" d="M281.621,250.8a2.086,2.086,0,0,1-.282.212" transform="translate(-0.574 -32.149)" fill="none" stroke="#fff" stroke-miterlimit="10" stroke-width="0.16"/>
      <path id="Path_297" data-name="Path 297" d="M284.322,252.7a1.413,1.413,0,0,1-.23.333" transform="translate(-2.563 -33.523)" fill="none" stroke="#fff" stroke-miterlimit="10" stroke-width="0.16"/>
      <path id="Path_298" data-name="Path 298" d="M286.7,252.861a3.313,3.313,0,0,0-.083.464" transform="translate(-4.388 -33.638)" fill="none" stroke="#fff" stroke-miterlimit="10" stroke-width="0.16"/>
      <path id="Path_299" data-name="Path 299" d="M288.535,238.723a.711.711,0,0,1,.107.737" transform="translate(-5.773 -23.423)" fill="none" stroke="#fff" stroke-miterlimit="10" stroke-width="0.16"/>
      <path id="Path_300" data-name="Path 300" d="M324.875,253.262c-.141.044-.356.084-.423.256" transform="translate(-31.725 -33.928)" fill="none" stroke="#fff" stroke-miterlimit="10" stroke-width="0.16"/>
      <path id="Path_301" data-name="Path 301" d="M288.728,242.559a3.746,3.746,0,0,0,.36,1.234,3.6,3.6,0,0,0,2.413,1.321,1.6,1.6,0,0,0,1.419-.386" transform="translate(-5.913 -26.195)" fill="none" stroke="#fff" stroke-miterlimit="10" stroke-width="0.16"/>
      <path id="Path_302" data-name="Path 302" d="M320.2,245.087c.226-.259-.229-.935-.479-1.182" transform="translate(-28.304 -27.167)" fill="none" stroke="#fff" stroke-miterlimit="10" stroke-width="0.16"/>
      <path id="Path_303" data-name="Path 303" d="M295.482,236.641a.886.886,0,0,1,.816-.748" transform="translate(-10.793 -21.378)" fill="none" stroke="#fff" stroke-miterlimit="10" stroke-width="0.16"/>
      <path id="Path_304" data-name="Path 304" d="M300.078,256.589c.339-.388.9-.43,1.05.078" transform="translate(-14.113 -36.117)" fill="none" stroke="#fff" stroke-miterlimit="10" stroke-width="0.16"/>
      <path id="Path_305" data-name="Path 305" d="M303.783,257.171c.246-.388.743-.137.839.236a1.04,1.04,0,0,1,.027.216" transform="translate(-16.79 -36.612)" fill="none" stroke="#fff" stroke-miterlimit="10" stroke-width="0.16"/>
      <path id="Path_306" data-name="Path 306" d="M299.812,257.084a.958.958,0,0,0-.077.529,1.034,1.034,0,0,0,1.806.43c.1-.149.133-.339.223-.471" transform="translate(-13.854 -36.69)" fill="none" stroke="#fff" stroke-miterlimit="10" stroke-width="0.16"/>
      <path id="Path_307" data-name="Path 307" d="M299.8,257.389a2.14,2.14,0,0,0,1.675.621,1.3,1.3,0,0,0,.276-.134" transform="translate(-13.913 -36.91)" fill="none" stroke="#fff" stroke-miterlimit="10" stroke-width="0.16"/>
      <path id="Path_308" data-name="Path 308" d="M309.388,213.416c.336-.539,1.553-.16,2-.034a7.138,7.138,0,0,1,3.027,1.463,2.051,2.051,0,0,1,.658.98" transform="translate(-20.84 -4.935)" fill="none" stroke="#fff" stroke-miterlimit="10" stroke-width="0.16"/>
    </g>
  </g>
</svg>
