<svg xmlns="http://www.w3.org/2000/svg" xmlns:xlink="http://www.w3.org/1999/xlink" width="14" height="20" viewBox="0 0 14 20">
  <defs>
    <clipPath id="clip-Muscat">
      <rect width="14" height="20"/>
    </clipPath>
  </defs>
  <g id="Muscat" data-name="Muscat – 1" clip-path="url(#clip-Muscat)">
    <g id="Group_586" data-name="Group 586" transform="translate(-637.032 -131.593)">
      <g id="Group_1" data-name="Group 1" transform="translate(644.043 140.578)">
        <path id="Path_2" data-name="Path 2" d="M684.462,172.282l-.225-.122a.612.612,0,0,0,.075-.251.751.751,0,0,0-.208-.528l-.037-.037v-.052A1.468,1.468,0,0,1,684.1,171a1.191,1.191,0,0,1,.692-.929,1.147,1.147,0,0,0,.435-.272c.077-.085.073-.138.073-.14l-.037-.151h.157a1.144,1.144,0,0,0,.949-.667l.039-.089.1.013a1.737,1.737,0,0,0,.6-.019.273.273,0,0,0,.092-.046,1.254,1.254,0,0,0,.183-.675l0-.108.107-.014c.056-.007.106-.017.155-.027l.011,0a.861.861,0,0,0,.681-.836l0-.081.073-.037a.709.709,0,0,0,.11-.067.792.792,0,0,0,.385-.614,54.479,54.479,0,0,0-6.327-.161v-.256c6.454,0,6.531.18,6.572.276l-.007.04.016,0a1.009,1.009,0,0,1-.491.925.757.757,0,0,1-.075.05,1.116,1.116,0,0,1-.889,1.013l-.03,0-.046.01a1.285,1.285,0,0,1-.263.753.53.53,0,0,1-.182.1,1.783,1.783,0,0,1-.618.039,1.392,1.392,0,0,1-1.018.725.526.526,0,0,1-.124.214,1.411,1.411,0,0,1-.528.339.948.948,0,0,0-.54.741,1.335,1.335,0,0,0-.025.194,1,1,0,0,1,.244.682A.862.862,0,0,1,684.462,172.282Z" transform="translate(-682.571 -165.826)" fill="#fff"/>
      </g>
      <g id="Group_2" data-name="Group 2" transform="translate(638.213 134.947)">
        <path id="Path_3" data-name="Path 3" d="M660.028,149.592l-.251-.05a5.83,5.83,0,0,1,11.659,0l-.251.05A6.65,6.65,0,0,0,668,144.847a6.094,6.094,0,0,0-2.4-.783A6.433,6.433,0,0,0,660.028,149.592Z" transform="translate(-659.777 -143.809)" fill="#fff"/>
      </g>
      <g id="Group_3" data-name="Group 3" transform="translate(637.438 140.578)">
        <path id="Path_4" data-name="Path 4" d="M661.548,172.233a.919.919,0,0,1-.1-.293.944.944,0,0,1,.151-.689,1.289,1.289,0,0,0-.027-.2.954.954,0,0,0-.538-.744,1.412,1.412,0,0,1-.533-.341.524.524,0,0,1-.121-.211,1.392,1.392,0,0,1-1.017-.725,1.777,1.777,0,0,1-.618-.038.529.529,0,0,1-.183-.1,1.3,1.3,0,0,1-.264-.753l-.068-.013a1.118,1.118,0,0,1-.9-1.016l-.072-.044a1.031,1.031,0,0,1-.495-.865l-.02-.021.033-.081c.041-.1.118-.276,6.572-.276v.256a54.4,54.4,0,0,0-6.328.161.782.782,0,0,0,.376.612c.036.022.078.047.122.071l.068.038,0,.077a.861.861,0,0,0,.685.836h.007c.049.01.1.019.155.027l.106.014.005.107a1.278,1.278,0,0,0,.185.677.285.285,0,0,0,.093.045,1.759,1.759,0,0,0,.6.018l.1-.014.039.09a1.146,1.146,0,0,0,.949.667l.16.008-.042.153h0a.257.257,0,0,0,.071.127,1.138,1.138,0,0,0,.439.274,1.2,1.2,0,0,1,.69.93,1.394,1.394,0,0,1,.033.293v.045l-.029.034a.685.685,0,0,0-.126.524.671.671,0,0,0,.072.216Z" transform="translate(-656.748 -165.826)" fill="#fff"/>
      </g>
      <g id="Group_4" data-name="Group 4" transform="translate(645.299 139.083)">
        <path id="Path_5" data-name="Path 5" d="M689.787,161.644c0-.014-.14-1.407-1.024-1.407-.907,0-1.023,1.362-1.024,1.376l-.255-.019c.042-.558.364-1.612,1.279-1.612,1.118,0,1.273,1.573,1.279,1.64Z" transform="translate(-687.484 -159.981)" fill="#fff"/>
      </g>
      <g id="Group_5" data-name="Group 5" transform="translate(648.442 138.991)">
        <path id="Path_6" data-name="Path 6" d="M699.8,161.405c-.01-.064-.225-1.581.787-1.783l.05.251c-.773.155-.586,1.482-.585,1.495Z" transform="translate(-699.771 -159.622)" fill="#fff"/>
      </g>
      <g id="Group_6" data-name="Group 6" transform="translate(641.535 139.083)">
        <path id="Path_7" data-name="Path 7" d="M673.015,161.683l-.25-.058c.016-.068.4-1.644,1.5-1.644h.014c1.12.014,1.4,1.535,1.413,1.6l-.252.045c0-.014-.257-1.378-1.165-1.389h-.01C673.362,160.237,673.019,161.668,673.015,161.683Z" transform="translate(-672.766 -159.981)" fill="#fff"/>
      </g>
      <g id="Group_7" data-name="Group 7" transform="translate(639.118 139.146)">
        <path id="Path_8" data-name="Path 8" d="M663.568,161.839l-.251-.048c.246-1.284.816-1.565,1.015-1.565a.44.44,0,0,1,.309.144,2.118,2.118,0,0,1,.332,1.469l-.256-.005c.018-.87-.155-1.178-.259-1.284a.184.184,0,0,0-.126-.067S663.809,160.58,663.568,161.839Z" transform="translate(-663.317 -160.226)" fill="#fff"/>
      </g>
      <g id="Group_8" data-name="Group 8" transform="translate(643.357 131.901)">
        <path id="Path_9" data-name="Path 9" d="M681.131,135.285a.128.128,0,0,1-.114-.07,11.2,11.2,0,0,1-.444-2.185,11.229,11.229,0,0,1-.444,2.185.128.128,0,0,1-.228-.117,18.9,18.9,0,0,0,.545-3.085.128.128,0,0,1,.254,0,18.913,18.913,0,0,0,.544,3.085.128.128,0,0,1-.114.186Z" transform="translate(-679.888 -131.901)" fill="#fff"/>
      </g>
      <g id="Group_9" data-name="Group 9" transform="translate(639.338 137.18)">
        <path id="Path_10" data-name="Path 10" d="M664.251,153.4l-.073-.245a18.244,18.244,0,0,1,9.347-.018l-.072.246a17.992,17.992,0,0,0-9.2.017Z" transform="translate(-664.178 -152.54)" fill="#fff"/>
      </g>
      <g id="Group_11" data-name="Group 11" transform="translate(641.776 146.666)">
        <g id="Group_10" data-name="Group 10" transform="translate(0 0)">
          <path id="Path_11" data-name="Path 11" d="M677.347,191.479c-.029,0-.059,0-.089,0a15.081,15.081,0,0,0-2.563,0,.9.9,0,0,1-.981-.8.9.9,0,0,1,.8-.979,16.6,16.6,0,0,1,2.919,0,.895.895,0,0,1-.088,1.785Zm-1.316-.316c.387,0,.822.014,1.252.057a.639.639,0,1,0,.126-1.271,16.6,16.6,0,0,0-2.866,0,.639.639,0,1,0,.124,1.272C674.76,191.212,675.317,191.163,676.031,191.163Z" transform="translate(-673.709 -189.629)" fill="#fff"/>
        </g>
      </g>
      <g id="Group_12" data-name="Group 12" transform="translate(640.399 148.382)">
        <path id="Path_12" data-name="Path 12" d="M668.445,199.135l-.121-.225a3.488,3.488,0,0,0,2.036-2.57l.255.014A3.667,3.667,0,0,1,668.445,199.135Z" transform="translate(-668.324 -196.339)" fill="#fff"/>
      </g>
      <g id="Group_13" data-name="Group 13" transform="translate(642.157 150.115)">
        <path id="Path_13" data-name="Path 13" d="M680.9,203.769a3.192,3.192,0,0,0-.678-.558,2.216,2.216,0,0,0-1.16-.355,2.126,2.126,0,0,0-1.546.908l-.2-.164a2.311,2.311,0,0,1,1.749-1h0a2.487,2.487,0,0,1,1.285.392,3.438,3.438,0,0,1,.732.6Z" transform="translate(-677.322 -202.6)" fill="#fff"/>
      </g>
      <g id="Group_14" data-name="Group 14" transform="translate(645.302 148.331)">
        <path id="Path_14" data-name="Path 14" d="M690.191,198.984a7.185,7.185,0,0,1-2.7-2.73l.227-.118a7.061,7.061,0,0,0,2.593,2.622Z" transform="translate(-687.493 -196.137)" fill="#fff"/>
      </g>
      <g id="Group_15" data-name="Group 15" transform="translate(645.54 150.486)">
        <rect id="Rectangle_2" data-name="Rectangle 2" width="0.256" height="0.58" transform="translate(0 0)" fill="#fff"/>
      </g>
      <g id="Group_18" data-name="Group 18" transform="translate(638.016 141.435)">
        <path id="Path_17" data-name="Path 17" d="M659.017,169.517l-.01-.127c1.781-.141,3.865-.215,6.027-.215s4.234.073,6.025.212l-.01.127c-1.787-.139-3.867-.212-6.014-.212S660.795,169.377,659.017,169.517Z" transform="translate(-659.007 -169.175)" fill="#fff"/>
      </g>
      <g id="Group_19" data-name="Group 19" transform="translate(638.943 142.544)">
        <path id="Path_18" data-name="Path 18" d="M672.319,174.651l-.041-.121a.353.353,0,0,0,.117-.059,1.276,1.276,0,0,0,.2-.7c-1.491-.089-3.127-.134-4.865-.134-1.828,0-3.541.05-5.093.148l-.007-.128h0c1.55-.1,3.266-.148,5.1-.148s3.544.05,5.1.148l.487.031-.478.1c-.037.007-.075.015-.115.021a1.31,1.31,0,0,1-.246.759A.472.472,0,0,1,672.319,174.651Z" transform="translate(-662.634 -173.512)" fill="#fff"/>
      </g>
      <g id="Group_20" data-name="Group 20" transform="translate(639.466 143.342)">
        <path id="Path_19" data-name="Path 19" d="M673.809,176.977a38.213,38.213,0,0,0-4.558-.216,31.025,31.025,0,0,0-4.557.215l-.019-.126a31.107,31.107,0,0,1,4.576-.217,38.312,38.312,0,0,1,4.574.217Z" transform="translate(-664.675 -176.634)" fill="#fff"/>
      </g>
      <g id="Group_21" data-name="Group 21" transform="translate(642.569 148.291)">
        <path id="Path_20" data-name="Path 20" d="M676.9,197.548l-.092-.088a2.853,2.853,0,0,0,.749-1.478l.126.022A2.979,2.979,0,0,1,676.9,197.548Z" transform="translate(-676.811 -195.982)" fill="#fff"/>
      </g>
      <g id="Group_22" data-name="Group 22" transform="translate(644.565 148.379)">
        <path id="Path_21" data-name="Path 21" d="M685.054,197.53a2.334,2.334,0,0,1-.443-1.2l.127-.009a2.2,2.2,0,0,0,.419,1.13Z" transform="translate(-684.611 -196.324)" fill="#fff"/>
      </g>
      <g id="Group_23" data-name="Group 23" transform="translate(644.541 144.748)">
        <path id="Path_22" data-name="Path 22" d="M684.645,183.448l-.128,0a3.621,3.621,0,0,1,.292-1.314l.117.051A3.5,3.5,0,0,0,684.645,183.448Z" transform="translate(-684.517 -182.13)" fill="#fff"/>
      </g>
      <g id="Group_24" data-name="Group 24" transform="translate(642.761 144.785)">
        <path id="Path_23" data-name="Path 23" d="M678.136,183.624l-.127-.016a1.475,1.475,0,0,0-.448-1.242l.087-.093A1.606,1.606,0,0,1,678.136,183.624Z" transform="translate(-677.561 -182.273)" fill="#fff"/>
      </g>
      <g id="Group_25" data-name="Group 25" transform="translate(643.758 143.381)">
        <path id="Path_24" data-name="Path 24" d="M681.79,177.285a.336.336,0,0,1-.243-.1.333.333,0,0,1-.04-.4l.108.069a.2.2,0,0,0,.025.241.21.21,0,0,0,.242.04.22.22,0,0,0,.094-.275l.116-.054a.349.349,0,0,1-.152.443A.329.329,0,0,1,681.79,177.285Z" transform="translate(-681.459 -176.786)" fill="#fff"/>
      </g>
      <g id="Group_26" data-name="Group 26" transform="translate(644.876 143.381)">
        <path id="Path_25" data-name="Path 25" d="M686.158,177.285a.337.337,0,0,1-.243-.1.333.333,0,0,1-.04-.4l.108.069a.2.2,0,0,0,.024.241.212.212,0,0,0,.242.04.219.219,0,0,0,.094-.275l.116-.054a.349.349,0,0,1-.151.443A.331.331,0,0,1,686.158,177.285Z" transform="translate(-685.827 -176.786)" fill="#fff"/>
      </g>
      <g id="Group_27" data-name="Group 27" transform="translate(641.382 143.428)">
        <path id="Path_26" data-name="Path 26" d="M672.536,177.462a.285.285,0,0,1-.046,0,.383.383,0,0,1-.309-.472l.124.031a.255.255,0,0,0,.206.315.087.087,0,0,0,.079-.016.075.075,0,0,0,0-.06.4.4,0,0,0-.025-.06c-.007-.015-.014-.03-.02-.046a.456.456,0,0,1-.03-.183l.128.006a.315.315,0,0,0,.021.131c0,.013.011.025.017.038a.533.533,0,0,1,.031.079.2.2,0,0,1-.023.171A.19.19,0,0,1,672.536,177.462Z" transform="translate(-672.169 -176.968)" fill="#fff"/>
      </g>
      <g id="Group_28" data-name="Group 28" transform="translate(641.664 135.43)">
        <path id="Path_27" data-name="Path 27" d="M673.375,147.157l-.1-.074a4.15,4.15,0,0,1,1.68-1.386l.053.117A4.02,4.02,0,0,0,673.375,147.157Z" transform="translate(-673.271 -145.697)" fill="#fff"/>
      </g>
      <g id="Group_29" data-name="Group 29" transform="translate(644.562 135.401)">
        <path id="Path_28" data-name="Path 28" d="M685.546,147.038a2.242,2.242,0,0,0-.946-1.345l.07-.107a2.373,2.373,0,0,1,1,1.423Z" transform="translate(-684.601 -145.586)" fill="#fff"/>
      </g>
      <g id="Group_30" data-name="Group 30" transform="translate(643.205 135.457)">
        <path id="Path_29" data-name="Path 29" d="M679.422,147.093l-.126-.023a3.457,3.457,0,0,1,.507-1.267l.107.07A3.334,3.334,0,0,0,679.422,147.093Z" transform="translate(-679.296 -145.803)" fill="#fff"/>
      </g>
      <g id="Group_31" data-name="Group 31" transform="translate(644.147 135.491)">
        <path id="Path_30" data-name="Path 30" d="M683.2,147.2l-.128-.008a4.573,4.573,0,0,0-.092-1.234l.125-.027A4.7,4.7,0,0,1,683.2,147.2Z" transform="translate(-682.979 -145.936)" fill="#fff"/>
      </g>
      <g id="Group_32" data-name="Group 32" transform="translate(645.428 135.665)">
        <path id="Path_31" data-name="Path 31" d="M689.3,148a3.237,3.237,0,0,0-1.315-1.27l.059-.114a3.368,3.368,0,0,1,1.368,1.321Z" transform="translate(-687.989 -146.617)" fill="#fff"/>
      </g>
    </g>
  </g>
</svg>
