<?xml version="1.0" encoding="utf-8"?>
<!-- Generator: Adobe Illustrator 23.0.1, SVG Export Plug-In . SVG Version: 6.00 Build 0)  -->
<svg version="1.1" id="Layer_1" xmlns="http://www.w3.org/2000/svg" xmlns:xlink="http://www.w3.org/1999/xlink" x="0px" y="0px"
	 viewBox="0 0 512 512" style="enable-background:new 0 0 512 512;" xml:space="preserve">
<g>
	<path class="st0" d="M175,253.7c20.2,20.2,46.6,31.9,74.9,33.3c0.1,0,0.1,0,0.2,0c0.8,0,1.7,0.1,2.5,0.1c0.2,0,0.3,0,0.5,0
		c1,0,1.9,0,2.9,0c1,0,2,0,2.9,0c0.2,0,0.3,0,0.5,0c0.8,0,1.7-0.1,2.5-0.1c0.1,0,0.1,0,0.2,0c28.3-1.5,54.7-13.2,74.9-33.3
		c0.2-0.2,0.3-0.4,0.5-0.6c20.5-20.7,33.1-49.2,33.1-80.5c0-63.2-51.4-114.6-114.6-114.6s-114.6,51.4-114.6,114.6
		c0,31.4,12.7,59.8,33.1,80.5C174.7,253.4,174.9,253.6,175,253.7z M224.7,151.8c0-17.2,14-31.2,31.2-31.2s31.2,14,31.2,31.2
		c0,17.2-14,31.2-31.2,31.2S224.7,169.1,224.7,151.8z M312.2,247.7c-0.1,0.1-0.2,0.1-0.3,0.2c-0.5,0.4-1,0.8-1.5,1.1
		c-31.8,22.3-76.9,22.3-108.7,0c-0.5-0.4-1-0.7-1.5-1.1c-0.1-0.1-0.2-0.1-0.3-0.2c-1.7-1.3-3.4-2.7-5.1-4.1
		c10.9-24,34.8-39.7,61.3-39.7s50.3,15.7,61.3,39.7C315.6,245,313.9,246.4,312.2,247.7z M256,78.9c51.7,0,93.7,42.1,93.7,93.8
		c0,20.3-6.5,39.1-17.5,54.5c-9.6-16.5-24.1-29.3-41.2-36.8c10.5-9.5,17.1-23.3,17.1-38.6c0-28.7-23.4-52.1-52.1-52.1
		s-52.1,23.4-52.1,52.1c0,15.3,6.6,29,17.1,38.6c-17.1,7.5-31.7,20.3-41.2,36.8c-11-15.4-17.5-34.2-17.5-54.5
		C162.2,121,204.3,78.9,256,78.9z"/>
	<path class="st0" d="M443.5,16.4h-375c-28.7,0-52.1,23.4-52.1,52.1v375c0,28.7,23.4,52.1,52.1,52.1h375c28.7,0,52.1-23.4,52.1-52.1
		v-375C495.6,39.8,472.2,16.4,443.5,16.4z M474.7,443.5c0,17.2-14,31.2-31.2,31.2h-375c-17.2,0-31.3-14-31.3-31.2v-375
		c0-17.2,14-31.3,31.3-31.3h375c17.2,0,31.2,14,31.2,31.3V443.5z"/>
	<path class="st0" d="M401.8,308.1H110.2c-28.7,0-52.1,23.4-52.1,52.1v41.7c0,28.7,23.4,52.1,52.1,52.1h291.7
		c28.7,0,52.1-23.4,52.1-52.1v-41.7C453.9,331.4,430.5,308.1,401.8,308.1z M433.1,401.8c0,17.2-14,31.2-31.2,31.2H110.2
		c-17.2,0-31.2-14-31.2-31.2v-41.7c0-17.2,14-31.2,31.2-31.2h291.7c17.2,0,31.2,14,31.2,31.2V401.8z"/>
	<path class="st0" d="M159.2,352.8c-4.1-4.1-10.7-4.1-14.7,0L131,366.3l-13.5-13.5c-4.1-4.1-10.7-4.1-14.7,0
		c-4.1,4.1-4.1,10.7,0,14.7l13.5,13.5l-13.5,13.5c-4.1,4.1-4.1,10.7,0,14.7c2,2,4.7,3.1,7.4,3.1c2.7,0,5.3-1,7.4-3.1l13.5-13.5
		l13.5,13.5c2,2,4.7,3.1,7.4,3.1s5.3-1,7.4-3.1c4.1-4.1,4.1-10.7,0-14.7L145.7,381l13.5-13.5C163.3,363.5,163.3,356.9,159.2,352.8z"
		/>
	<path class="st0" d="M242.5,352.8c-4.1-4.1-10.7-4.1-14.7,0l-13.5,13.5l-13.5-13.5c-4.1-4.1-10.7-4.1-14.7,0
		c-4.1,4.1-4.1,10.7,0,14.7l13.5,13.5l-13.5,13.5c-4.1,4.1-4.1,10.7,0,14.7c2,2,4.7,3.1,7.4,3.1s5.3-1,7.4-3.1l13.5-13.5l13.5,13.5
		c2,2,4.7,3.1,7.4,3.1c2.7,0,5.3-1,7.4-3.1c4.1-4.1,4.1-10.7,0-14.7L229.1,381l13.5-13.5C246.6,363.5,246.6,356.9,242.5,352.8z"/>
	<path class="st0" d="M325.9,352.8c-4.1-4.1-10.7-4.1-14.7,0l-13.5,13.5l-13.5-13.5c-4.1-4.1-10.7-4.1-14.7,0
		c-4.1,4.1-4.1,10.7,0,14.7l13.5,13.5l-13.5,13.5c-4.1,4.1-4.1,10.7,0,14.7c2,2,4.7,3.1,7.4,3.1s5.3-1,7.4-3.1l13.5-13.5l13.5,13.5
		c2,2,4.7,3.1,7.4,3.1s5.3-1,7.4-3.1c4.1-4.1,4.1-10.7,0-14.7L312.4,381l13.5-13.5C329.9,363.5,329.9,356.9,325.9,352.8z"/>
	<path class="st0" d="M409.2,352.8c-4.1-4.1-10.7-4.1-14.7,0L381,366.3l-13.5-13.5c-4.1-4.1-10.7-4.1-14.7,0
		c-4.1,4.1-4.1,10.7,0,14.7l13.5,13.5l-13.5,13.5c-4.1,4.1-4.1,10.7,0,14.7c2,2,4.7,3.1,7.4,3.1c2.7,0,5.3-1,7.4-3.1l13.5-13.5
		l13.5,13.5c2,2,4.7,3.1,7.4,3.1s5.3-1,7.4-3.1c4.1-4.1,4.1-10.7,0-14.7L395.7,381l13.5-13.5C413.3,363.5,413.3,356.9,409.2,352.8z"
		/>
</g>
</svg>
