<svg class="svg-icon" style="width: 1em;height: 1em;vertical-align: middle;fill: rgb(86, 111, 122);overflow: hidden;" viewBox="0 0 1024 1024" version="1.1" xmlns="http://www.w3.org/2000/svg">
    <path d="M478.72 880.64c-2.56 0-5.12 0-7.68-1.28L149.76 705.28c-5.12-2.56-7.68-7.68-7.68-12.8v-332.8c0-5.12 2.56-10.24 7.68-12.8 5.12-2.56 10.24-2.56 15.36 0L486.4 522.24c5.12 2.56 7.68 7.68 7.68 12.8v331.52c0 5.12-2.56 10.24-7.68 12.8-2.56 1.28-5.12 1.28-7.68 1.28z m-307.2-198.4l291.84 158.72V544L171.52 385.28v296.96zM545.28 880.64c-2.56 0-5.12-1.28-7.68-2.56-3.84-2.56-7.68-7.68-7.68-12.8V535.04c0-5.12 3.84-10.24 7.68-12.8l321.28-160c5.12-2.56 10.24-2.56 14.08 1.28 3.84 2.56 7.68 7.68 7.68 12.8v331.52c0 5.12-3.84 10.24-7.68 12.8L551.68 879.36c-1.28 1.28-3.84 1.28-6.4 1.28z m15.36-336.64v298.24l291.84-145.92V399.36L560.64 544z m305.92 162.56zM512 490.24c-2.56 0-5.12 0-6.4-1.28l-334.08-166.4c-5.12-2.56-8.96-7.68-7.68-14.08 0-6.4 3.84-11.52 8.96-12.8l334.08-152.32c3.84-1.28 8.96-1.28 12.8 0l334.08 152.32c5.12 2.56 8.96 7.68 8.96 12.8 0 6.4-2.56 11.52-7.68 14.08l-336.64 166.4c-1.28 1.28-3.84 1.28-6.4 1.28zM212.48 309.76L512 458.24l299.52-148.48L512 174.08 212.48 309.76z" fill="#d7573d" /></svg>