<svg xmlns="http://www.w3.org/2000/svg" width="37.198" height="35.746" viewBox="0 0 37.198 35.746">
  <g id="creatNewIcon" transform="translate(0)">
    <g id="Group_43065" data-name="Group 43065">
      <path id="Path_58479" data-name="Path 58479" d="M3562.37,6304.168a10.435,10.435,0,1,1-10.439,10.433A10.433,10.433,0,0,1,3562.37,6304.168Zm-1.062,14.023c0,.764,0,1.527,0,2.291,0,.171.053.225.223.222.55-.008,1.1-.011,1.65,0,.2,0,.252-.058.251-.253-.007-1.508,0-3.016,0-4.523,0-.266,0-.267.268-.267,1.514,0,3.029,0,4.543,0,.18,0,.235-.056.232-.231-.009-.543,0-1.087,0-1.63,0-.258,0-.258-.26-.258h-4.523c-.254,0-.255,0-.255-.255,0-1.514,0-3.028,0-4.542,0-.189-.058-.246-.242-.242-.544.009-1.087.011-1.631,0-.2,0-.252.057-.251.254.008,1.515,0,3.028.008,4.542,0,.2-.058.249-.251.248-1.514-.007-3.028,0-4.542-.008-.2,0-.258.06-.254.254.011.531,0,1.062,0,1.592,0,.275,0,.275.279.275,1.508,0,3.015,0,4.523,0,.188,0,.243.057.241.243C3561.3,6316.664,3561.309,6317.428,3561.309,6318.191Z" transform="translate(-3543.768 -6289.292)" fill="#f1f1f1"/>
      <path id="Path_58480" data-name="Path 58480" d="M3560.926,6299.8c.032-.066.052-.111.074-.155.279-.554.564-1.1.834-1.664a.263.263,0,0,1,.276-.18c1.132.005,2.265,0,3.4,0a1,1,0,0,0,1.107-1.085c.069-1.7.148-3.4.22-5.1.047-1.118.086-2.236.133-3.354.071-1.673.148-3.348.22-5.021q.077-1.774.152-3.548a.962.962,0,0,0-.84-1.019,2.356,2.356,0,0,0-.347-.021q-15.4,0-30.791,0a2.436,2.436,0,0,0-.348.021.957.957,0,0,0-.835,1q.114,2.763.233,5.526.115,2.7.228,5.39.134,3.131.27,6.263a.974.974,0,0,0,1.029.943c1.146,0,2.291.006,3.436,0a.31.31,0,0,1,.329.22c.253.537.53,1.063.8,1.595.028.055.057.11.1.193-.115.005-.2.012-.277.013q-2.213,0-4.427,0a2.979,2.979,0,0,1-3.019-2.9c-.072-1.719-.139-3.438-.211-5.158q-.116-2.8-.236-5.6c-.09-2.126-.184-4.252-.268-6.379a2.94,2.94,0,0,1,2.439-3.089c.185-.036.221-.106.22-.276-.006-1.216,0-2.433,0-3.65a4.56,4.56,0,0,1,2.944-4.324,4.234,4.234,0,0,1,1.553-.3q5.028,0,10.056,0a4.554,4.554,0,0,1,4.314,3.3c.056.19.142.232.322.231q4.63-.007,9.26,0a3.319,3.319,0,0,1,3.251,2.3,4.339,4.339,0,0,1,.171,1.047c.029.471.013.945,0,1.417,0,.159.041.221.205.253a2.908,2.908,0,0,1,2.422,2.5,6.393,6.393,0,0,1,.014,1.2c-.057,1.487-.124,2.973-.187,4.46q-.128,2.975-.256,5.953c-.047,1.111-.087,2.223-.135,3.335-.044,1.008-.067,2.018-.149,3.022a2.92,2.92,0,0,1-2.875,2.659c-1.54.018-3.08,0-4.62,0C3561.058,6299.823,3561,6299.813,3560.926,6299.8Zm-10.163-23.165h13.121c.194,0,.388-.007.582,0,.153.007.2-.055.2-.205-.006-.485.01-.971-.009-1.455a1.35,1.35,0,0,0-.134-.539,1.288,1.288,0,0,0-1.245-.735q-5.164,0-10.326,0a1,1,0,0,1-1.109-1.05,2.6,2.6,0,0,0-2.648-2.49c-3.248.029-6.5.01-9.743.011a2.53,2.53,0,0,0-2.6,2.6v3.514c0,.35,0,.351.343.351Z" transform="translate(-3532.16 -6268.142)" fill="#f1f1f1"/>
    </g>
  </g>
</svg>
