<svg xmlns="http://www.w3.org/2000/svg" width="56.124" height="56.116" viewBox="0 0 56.124 56.116">
  <g id="masterIcon" transform="translate(0 0)">
    <g id="Group_43071" data-name="Group 43071">
      <path id="Path_58501" data-name="Path 58501" d="M4696.608,6330.818a1.331,1.331,0,0,1,1.27-.558c.948.035,1.9-.03,2.848.03a1.556,1.556,0,0,1,1.044.433,3.46,3.46,0,0,0,3.272,1.331c2.057-.117,4.126-.032,6.189-.029.863,0,1.157.289,1.157,1.143,0,3.287-.009,6.574.012,9.861a1.377,1.377,0,0,1-.559,1.27h-15.234Zm13.989,11.7v-8.741c-2.064,0-4.1-.092-6.113.03a3.658,3.658,0,0,1-3.56-1.473.683.683,0,0,0-.428-.294c-.7-.031-1.407-.014-2.107-.014v10.492Z" transform="translate(-4696.608 -6288.182)" fill="#f1f1f1"/>
      <path id="Path_58502" data-name="Path 58502" d="M4737.326,6344.3a1.374,1.374,0,0,1-.558-1.27c.019-3.836.009-7.671.01-11.506,0-1,.254-1.251,1.267-1.252.95,0,1.9-.039,2.848.02a1.559,1.559,0,0,1,1.045.432,3.462,3.462,0,0,0,3.272,1.333c2.039-.118,4.089-.031,6.135-.03.938,0,1.214.271,1.214,1.2,0,3.269-.01,6.538.011,9.808a1.379,1.379,0,0,1-.558,1.271Zm13.455-10.521c-2.073,0-4.088-.095-6.088.031a3.709,3.709,0,0,1-3.61-1.485.678.678,0,0,0-.433-.284c-.687-.03-1.377-.013-2.085-.013v10.48h12.216Z" transform="translate(-4716.612 -6288.181)" fill="#f1f1f1"/>
      <path id="Path_58503" data-name="Path 58503" d="M4777.5,6344.3a1.375,1.375,0,0,1-.558-1.27c.019-3.836.01-7.671.01-11.506,0-1,.254-1.251,1.268-1.252.95,0,1.9-.039,2.848.02a1.56,1.56,0,0,1,1.046.432,3.46,3.46,0,0,0,3.271,1.333c2.039-.118,4.09-.031,6.135-.03.938,0,1.214.271,1.214,1.2,0,3.269-.009,6.538.01,9.808a1.376,1.376,0,0,1-.558,1.271Zm13.455-10.521c-2.045,0-4.056-.088-6.054.029a3.728,3.728,0,0,1-3.659-1.5.663.663,0,0,0-.438-.271c-.686-.029-1.374-.013-2.057-.013v10.493h12.208Z" transform="translate(-4736.625 -6288.181)" fill="#f1f1f1"/>
      <path id="Path_58504" data-name="Path 58504" d="M4732.5,6274.483c0,1.472-.008,2.875.012,4.278,0,.133.158.283.271.394a7.339,7.339,0,0,1,1.081,1.048.786.786,0,0,0,.767.424q8.354-.013,16.71-.006c1.089,0,1.324.231,1.325,1.306,0,1.241,0,2.483,0,3.726,0,.693-.323,1.1-.867,1.1s-.881-.4-.884-1.083c-.006-1.041,0-2.082-.008-3.123a.749.749,0,0,0-.041-.148c-.161-.009-.336-.024-.512-.024q-7.862,0-15.724-.007a.765.765,0,0,0-.765.427,3.246,3.246,0,0,1-1,.977.664.664,0,0,0-.373.686c.023.455.017.913,0,1.37a.875.875,0,1,1-1.747,0,3.53,3.53,0,0,1,0-.493c.069-.775.086-1.508-.825-1.87a.982.982,0,0,1-.466-.521c-.2-.516-.562-.58-1.062-.578-5.113.018-10.227.011-15.34.011h-.722v2.86c0,.165,0,.329,0,.493-.015.638-.358,1.034-.888,1.026s-.861-.4-.864-1.049q-.007-1.972,0-3.944c0-.853.294-1.138,1.161-1.139q8.383,0,16.765.007a.841.841,0,0,0,.907-.475,2.377,2.377,0,0,1,.918-.9.724.724,0,0,0,.42-.768c-.015-1.312-.006-2.623-.006-4h-.62q-4.822,0-9.643,0a2.649,2.649,0,0,1-2.889-2.9c0-1.022,0-2.045,0-3.068a2.548,2.548,0,0,1,1.464-2.49c.4-.2.272-.5.285-.787s.068-.542-.3-.723a2.507,2.507,0,0,1-1.447-2.389c-.011-1.114-.009-2.228,0-3.342a2.5,2.5,0,0,1,1.441-2.393c.4-.2.3-.484.308-.773s.061-.569-.328-.762a2.484,2.484,0,0,1-1.419-2.35c-.013-1.15-.015-2.3,0-3.452a2.6,2.6,0,0,1,2.658-2.626q11.369-.012,22.737,0a2.605,2.605,0,0,1,2.656,2.685c.011,1.114.009,2.228,0,3.341a2.54,2.54,0,0,1-1.469,2.434c-.348.171-.3.423-.274.678.024.275-.152.595.26.8a2.584,2.584,0,0,1,1.487,2.535c0,1.077.008,2.155,0,3.232a2.514,2.514,0,0,1-1.447,2.391c-.4.2-.294.491-.3.776s-.085.542.289.727a2.536,2.536,0,0,1,1.458,2.44c.006,1.1.008,2.191,0,3.287a2.618,2.618,0,0,1-2.726,2.728c-3.25.008-6.5,0-9.752,0Zm-.823-26.3q-5.616,0-11.233,0c-.788,0-1.092.307-1.1,1.094,0,1.041-.007,2.082,0,3.124,0,.716.323,1.04,1.039,1.04q11.232.005,22.466,0c.716,0,1.035-.324,1.041-1.039.008-1,0-2.009,0-3.014,0-.932-.273-1.205-1.206-1.205Zm-.055,9.645q-5.588,0-11.179,0c-.787,0-1.091.307-1.095,1.093,0,1.042-.007,2.083,0,3.124,0,.716.323,1.04,1.039,1.04q11.232,0,22.466,0c.715,0,1.035-.324,1.041-1.04.008-1,0-2.009,0-3.014,0-.932-.273-1.2-1.206-1.205Zm-.012,14.905q5.589,0,11.179,0c.793,0,1.1-.305,1.108-1.084q.007-1.561,0-3.123c0-.723-.318-1.05-1.028-1.051q-11.234,0-22.467,0c-.741,0-1.047.322-1.052,1.082,0,.949,0,1.9,0,2.849,0,1.091.232,1.328,1.3,1.328Zm-6.977-16.7h13.981v-.812h-13.981Zm0,9.644h13.98v-.811h-13.98Zm6.965,16.692a.874.874,0,1,0-.847-.884A.883.883,0,0,0,4731.6,6282.37Zm-8.764-27.149h-1.7v.814h1.7Zm17.566.816h1.705v-.8H4740.4Zm-17.554,8.843h-1.705v.792h1.705Zm19.272-.011h-1.691v.807h1.691Z" transform="translate(-4703.567 -6246.424)" fill="#f1f1f1"/>
      <path id="Path_58505" data-name="Path 58505" d="M4763,6252.547a.872.872,0,1,1-.874-.871A.882.882,0,0,1,4763,6252.547Z" transform="translate(-4728.808 -6249.041)" fill="#f1f1f1"/>
      <path id="Path_58506" data-name="Path 58506" d="M4767.347,6251.677a.873.873,0,1,1-.852.892A.882.882,0,0,1,4767.347,6251.677Z" transform="translate(-4731.419 -6249.041)" fill="#f1f1f1"/>
      <path id="Path_58507" data-name="Path 58507" d="M4772.588,6251.677a.873.873,0,1,1-.853.892A.881.881,0,0,1,4772.588,6251.677Z" transform="translate(-4734.029 -6249.041)" fill="#f1f1f1"/>
      <path id="Path_58508" data-name="Path 58508" d="M4763,6271.784a.872.872,0,1,1-.854-.891A.884.884,0,0,1,4763,6271.784Z" transform="translate(-4728.809 -6258.612)" fill="#f1f1f1"/>
      <path id="Path_58509" data-name="Path 58509" d="M4767.375,6272.639a.872.872,0,1,1,.864-.882A.881.881,0,0,1,4767.375,6272.639Z" transform="translate(-4731.419 -6258.612)" fill="#f1f1f1"/>
      <path id="Path_58510" data-name="Path 58510" d="M4773.479,6271.788a.873.873,0,1,1-.851-.895A.884.884,0,0,1,4773.479,6271.788Z" transform="translate(-4734.029 -6258.612)" fill="#f1f1f1"/>
      <path id="Path_58511" data-name="Path 58511" d="M4762.116,6290.11a.873.873,0,1,1-.862.881A.881.881,0,0,1,4762.116,6290.11Z" transform="translate(-4728.808 -6268.184)" fill="#f1f1f1"/>
      <path id="Path_58512" data-name="Path 58512" d="M4768.239,6290.979a.872.872,0,1,1-.875-.87A.883.883,0,0,1,4768.239,6290.979Z" transform="translate(-4731.419 -6268.184)" fill="#f1f1f1"/>
      <path id="Path_58513" data-name="Path 58513" d="M4773.479,6290.98a.872.872,0,1,1-.874-.871A.883.883,0,0,1,4773.479,6290.98Z" transform="translate(-4734.029 -6268.184)" fill="#f1f1f1"/>
    </g>
  </g>
</svg>
