<svg xmlns="http://www.w3.org/2000/svg" width="35.784" height="35.762" viewBox="0 0 35.784 35.762">
  <g id="MCIcon" transform="translate(0 0)">
    <path id="Path_58590" data-name="Path 58590" d="M5107.215,6250.91h10.763v1.158h-.492c-3.075,0-6.148,0-9.223-.006a.6.6,0,0,0-.588.314c-1.1,1.729-2.209,3.448-3.317,5.171-.062.1-.118.2-.179.3.442.307.881.59,1.293.907a1.113,1.113,0,0,0,.731.25q5.624-.012,11.248-.005c.908,0,1.817-.013,2.726,0a2.871,2.871,0,0,1,2.97,2.981q.011,9.135-.01,18.27a3.215,3.215,0,0,1-.3,1.344,2.824,2.824,0,0,1-2.774,1.632c-2.294-.006-4.588,0-6.882,0-.135,0-.269.012-.425.019,0,.647.025,1.253-.009,1.856-.02.364.1.457.447.441.612-.029,1.227-.008,1.855-.008v1.137h-19.566v-1.147h2.258v-2.3h-.432c-2.271,0-4.542,0-6.812,0a3.112,3.112,0,0,1-2.1-.693,3.2,3.2,0,0,1-1.024-1.853v-19.149a.894.894,0,0,0,.051-.128,2.828,2.828,0,0,1,2.8-2.4c.883-.034,1.769,0,2.652-.02a.983.983,0,0,0,.534-.184,9.645,9.645,0,0,1,9.354-1.534.376.376,0,0,0,.529-.183c1.254-1.972,2.522-3.936,3.784-5.9A2.783,2.783,0,0,0,5107.215,6250.91Zm-.187,21.962h3.44v3.4h1.153v-5.712h3.456v5.7h1.161v-9.182h3.448v9.217h1.135v1.147c-.085.005-.153.012-.221.012q-7.407,0-14.814-.008a.56.56,0,0,1-.389-.207c-.493-.66-.966-1.336-1.46-2.029a9.672,9.672,0,0,1-6.046.943,8.963,8.963,0,0,1-5.4-2.833c-3.733-4.208-3.673-8.635-.57-13.187-.441,0-.894.025-1.344,0a1.855,1.855,0,0,0-2.063,2.06c.032,4.938.012,9.875.012,14.814v.452h.413c1.654,0,3.311.064,4.96-.021a4.211,4.211,0,0,1,3.182.973.989.989,0,0,0,.606.186q11.949.012,23.9.007h.385c.01-.135.022-.227.022-.317q0-8.124,0-16.248a1.747,1.747,0,0,0-1.922-1.9q-6.377,0-12.753,0c-.1,0-.193.014-.3.022a16.906,16.906,0,0,1,.963,1.447,9.653,9.653,0,0,1-.8,10.975,1.644,1.644,0,0,0-.135.294c-.034,0-.079-.008-.1.01-.643.6-1.283,1.2-1.939,1.811-.008-.025-.005,0,.007.019q.4.568.805,1.135c.346.487.56.558,1.184.376,0-.328,0-.663,0-1C5107,6274.446,5107.017,6273.659,5107.028,6272.872Zm-18.5,5.733c0,.524,0,1.009,0,1.5a1.771,1.771,0,0,0,1.987,1.976h8.4v3.433h12.677v-2.288h-11.5v-1.145h19.821c.14,0,.28,0,.419-.006a1.782,1.782,0,0,0,1.6-2.3h-.442c-7.571,0-15.142-.023-22.712.024a4.434,4.434,0,0,1-3.236-1,.087.087,0,0,0-.029-.018,2.048,2.048,0,0,0-.55-.159c-2.015-.012-4.03-.008-6.044-.008Zm10.363-20.7a8.6,8.6,0,0,0,0,17.168Zm1.754,8.589,6.6,3.812a8.612,8.612,0,0,0,0-7.622Zm-.554-1.013,6.576-3.8a8.638,8.638,0,0,0-3.145-2.828l-.664,1.024-.958-.619.577-.941-2.387-.5Zm.007,2.032v7.565a6.649,6.649,0,0,0,3.127-.854l-.734-1.049.931-.666.853,1.182a8.514,8.514,0,0,0,2.394-2.385Zm18.417,8.77v-8.035H5117.4v8.035Zm-5.734-4.581v4.571h1.114V6271.7Zm-3.5,4.577v-2.256h-1.11v2.256Z" transform="translate(-5087.368 -6250.91)" fill="#fff"/>
    <path id="Path_58591" data-name="Path 58591" d="M5152.14,6259.087v-1.111h9.187v1.111Z" transform="translate(-5130.76 -6255.644)" fill="#fff"/>
    <path id="Path_58592" data-name="Path 58592" d="M5152.143,6266.083v-1.108h6.877v1.108Z" transform="translate(-5130.762 -6260.332)" fill="#fff"/>
    <path id="Path_58593" data-name="Path 58593" d="M5177.7,6266.077h-1.128v-1.115h1.128Z" transform="translate(-5147.125 -6260.324)" fill="#fff"/>
    <path id="Path_58594" data-name="Path 58594" d="M5094.417,6338.384h1.118v1.1h-1.118Z" transform="translate(-5092.09 -6309.511)" fill="#fff"/>
    <path id="Path_58595" data-name="Path 58595" d="M5102.532,6339.528h-1.11v-1.1h1.11Z" transform="translate(-5096.783 -6309.542)" fill="#fff"/>
    <path id="Path_58596" data-name="Path 58596" d="M5109.52,6339.51H5108.4v-1.1h1.124Z" transform="translate(-5101.455 -6309.526)" fill="#fff"/>
    <path id="Path_58597" data-name="Path 58597" d="M5104.916,6290.563v-1.1h4.581v1.1Z" transform="translate(-5099.124 -6276.741)" fill="#fff"/>
    <path id="Path_58598" data-name="Path 58598" d="M5109.505,6297.555h-4.58v-1.1h4.58Z" transform="translate(-5099.13 -6281.421)" fill="#fff"/>
    <path id="Path_58599" data-name="Path 58599" d="M5109.5,6304.551h-4.568v-1.1h4.568Z" transform="translate(-5099.135 -6286.107)" fill="#fff"/>
  </g>
</svg>
