<svg xmlns="http://www.w3.org/2000/svg" width="52.874" height="53.636" viewBox="0 0 52.874 53.636">
  <g id="reportIcon" transform="translate(0 0)">
    <g id="Group_43067" data-name="Group 43067">
      <path id="Path_58481" data-name="Path 58481" d="M4355.4,6253.712v5.166h5.21v22.5l2.573-2.546c.464-.46.915-.935,1.394-1.379a4.345,4.345,0,0,1,6.058.049,4.288,4.288,0,0,1,0,6.124c-2.8,2.849-5.582,5.71-8.486,8.448a4.494,4.494,0,0,0-1.55,3.759c.116,3.813.038,7.632.038,11.519h-36.366v-5.088h-5.224v-48.548Zm3.512,7.007h-32.843v44.913h32.778v-10.158c-.348.319-.6.531-.828.762q-3.286,3.285-6.57,6.573c-.239.238-.5.561-.793.624-2.437.522-4.884.991-7.456,1.5.463-2.341.856-4.534,1.354-6.7a3.618,3.618,0,0,1,.907-1.647q6.349-6.429,12.771-12.784a2.175,2.175,0,0,0,.694-1.715c-.025-5.542-.014-11.083-.014-16.625Zm-5.226-5.288h-1.129c-10.187,0-20.375.013-30.563-.021-.944,0-1.21.245-1.208,1.2q.044,21.374.022,42.747c0,.361.039.721.059,1.059h3.406v-41.538h29.413Zm11.528,24.206-14.447,14.4,3.275,3.416,14.559-14.5Zm-14.847,21.555,2.319-2.154-3.42-3.48L4347,6297.8Zm16.438-23.072,3.2,3.29a2.48,2.48,0,0,0-.6-2.657A2.566,2.566,0,0,0,4366.8,6278.12Zm-21.39,24.619,2.934-.63-2.3-2.552Z" transform="translate(-4319.043 -6253.712)" fill="#f1f1f1"/>
      <path id="Path_58482" data-name="Path 58482" d="M4340.022,6274.484h10.233v13.748h-10.233Zm1.715,1.775v10.256h6.755v-10.256Z" transform="translate(-4329.493 -6264.059)" fill="#f1f1f1"/>
      <path id="Path_58483" data-name="Path 58483" d="M4365.758,6310.793v1.632h-25.871v-1.632Z" transform="translate(-4329.426 -6282.144)" fill="#f1f1f1"/>
      <path id="Path_58484" data-name="Path 58484" d="M4359.725,6322.9v1.587h-19.842V6322.9Z" transform="translate(-4329.423 -6288.174)" fill="#f1f1f1"/>
      <path id="Path_58485" data-name="Path 58485" d="M4367.537,6274.487h11.96v1.655h-11.96Z" transform="translate(-4343.198 -6264.061)" fill="#f1f1f1"/>
      <path id="Path_58486" data-name="Path 58486" d="M4351.914,6343.589v1.581H4339.87v-1.581Z" transform="translate(-4329.417 -6298.48)" fill="#f1f1f1"/>
      <path id="Path_58487" data-name="Path 58487" d="M4367.526,6288.259v-1.582h11.991v1.582Z" transform="translate(-4343.192 -6270.132)" fill="#f1f1f1"/>
      <path id="Path_58488" data-name="Path 58488" d="M4367.577,6298.659h11.946v1.585h-11.946Z" transform="translate(-4343.218 -6276.1)" fill="#f1f1f1"/>
      <path id="Path_58489" data-name="Path 58489" d="M4399.825,6316.985l-1.019-.923,6.112-6.084.848,1.111Z" transform="translate(-4358.773 -6281.738)" fill="#f1f1f1"/>
    </g>
  </g>
</svg>
