<svg id="ShowPCRIcon" xmlns="http://www.w3.org/2000/svg" width="31.998" height="35.53" viewBox="0 0 31.998 35.53">
  <path id="Path_38185" data-name="Path 38185" d="M23.656,20.477a6.57,6.57,0,0,1,5.5,10.163L32,33.738,30.037,35.53l-2.742-3.016a6.569,6.569,0,1,1-3.638-12.037ZM5.721,16.5a.809.809,0,0,1-.766-.836.8.8,0,0,1,.766-.836h6.546a.809.809,0,0,1,.766.836.8.8,0,0,1-.766.836ZM24.543,5.084h2.746a1.97,1.97,0,0,1,1.96,1.96V17.751c-.059.613-1.564.621-1.692,0V7.043a.272.272,0,0,0-.278-.278H24.533V17.751c-.146.556-1.4.64-1.681,0V1.96a.272.272,0,0,0-.279-.278H1.95a.272.272,0,0,0-.279.278v23.3a.272.272,0,0,0,.278.278h12.3c.847.087.872,1.551,0,1.681H6.377v3.124a.272.272,0,0,0,.278.279h7.592c.614.069.811,1.464,0,1.681H6.666a1.971,1.971,0,0,1-1.96-1.96V27.219H1.96A1.971,1.971,0,0,1,0,25.259V1.96A1.931,1.931,0,0,1,.577.577,1.948,1.948,0,0,1,1.96,0H22.583a1.933,1.933,0,0,1,1.383.577,1.949,1.949,0,0,1,.577,1.383V5.084ZM5.71,7.531A.809.809,0,0,1,4.944,6.7a.8.8,0,0,1,.766-.836H18.8a.809.809,0,0,1,.766.836.8.8,0,0,1-.766.836Zm0,4.487a.809.809,0,0,1-.766-.836.8.8,0,0,1,.766-.836H18.8a.809.809,0,0,1,.766.836.8.8,0,0,1-.766.836ZM27.149,23.553A4.935,4.935,0,1,0,28.6,27.045a4.927,4.927,0,0,0-1.448-3.492Z" transform="translate(0)" fill="#f5f7f9"/>
  <path id="Path_38186" data-name="Path 38186" d="M17.1,12.621a6.57,6.57,0,0,1,5.5,10.163l2.843,3.1-1.961,1.792-2.742-3.016A6.569,6.569,0,1,1,17.1,12.621ZM20.593,15.7a4.935,4.935,0,1,0,1.448,3.492A4.927,4.927,0,0,0,20.593,15.7Z" transform="translate(6.556 7.856)" fill="#9ce9fd"/>
</svg>
