<svg xmlns="http://www.w3.org/2000/svg" width="29.01" height="36.024" viewBox="0 0 29.01 36.024">
  <g id="showMyRequestsIcon" transform="translate(0 0)">
    <path id="Path_58471" data-name="Path 58471" d="M3165.325,6286.429a5.169,5.169,0,0,1-.821-.165c-.678-.249-1.341-.54-2.015-.8a2.329,2.329,0,0,0-.785-.217c-5.525-.013-11.05-.008-16.574-.017a2.587,2.587,0,0,1-.992-.155,1.572,1.572,0,0,1-.979-1.567q0-3.976,0-7.953,0-7,0-14.006c0-.534.153-.77.5-.771s.514.244.514.77q0,10.68,0,21.361c0,.188,0,.375,0,.562a.679.679,0,0,0,.728.763c.094.006.187,0,.281,0h15.308c.146,0,.293-.013.518-.023a6.415,6.415,0,0,1-1.5-4.87c-.623.023-1.222.06-1.821.062-2.206.008-4.411,0-6.616,0-.552,0-.807-.167-.8-.517s.252-.485.787-.485h7.32c.507,0,.507,0,.508-.487,0-.845,0-.845-.856-.845h-10.451c-.5,0-.5,0-.5.488,0,.844,0,.844.85.845.141,0,.282,0,.423.005a.463.463,0,0,1,.469.475.44.44,0,0,1-.434.5,11.266,11.266,0,0,1-1.475-.014,1.023,1.023,0,0,1-.851-1.021c-.018-.41-.02-.823,0-1.232a1.066,1.066,0,0,1,1.17-1.046c2.229,0,4.458,0,6.687,0h4.645c.968,0,1.3.322,1.336,1.3a.353.353,0,0,0,.054.177,6.934,6.934,0,0,1,2.257-2.692c-.277-.2-.612-.331-.769-.578a2.247,2.247,0,0,1-.205-.933,6.261,6.261,0,0,1,0-.843,1.056,1.056,0,0,1,1.044-1.1,10.78,10.78,0,0,1,1.231,0,1.055,1.055,0,0,1,1.053,1.092c.014.432,0,.865,0,1.288h1.869v-13.009c-.149-.009-.3-.022-.447-.022-1.548,0-3.1-.033-4.645.009a1.761,1.761,0,0,1-1.872-1.884c.05-1.57,0-3.144.02-4.715,0-.333-.106-.407-.42-.407q-7.02.015-14.041.007c-.644,0-.856.212-.857.871q0,1.882,0,3.766c0,.105,0,.212,0,.317-.023.407-.209.618-.532.6s-.478-.233-.479-.648c0-1.4,0-2.792,0-4.187a1.668,1.668,0,0,1,1.717-1.746c.573-.01,1.146,0,1.78,0,0-.228-.005-.424,0-.619a1.663,1.663,0,0,1,1.75-1.709q9.818-.007,19.636,0a1.679,1.679,0,0,1,1.775,1.8q0,11.245-.007,22.487a.955.955,0,0,0,.319.758,6.069,6.069,0,0,1,1.737,6.43,6.151,6.151,0,0,1-5.045,4.455c-.17.033-.342.063-.513.1Zm3.473-11.994v-.365q0-10.888,0-21.776c0-.658-.205-.861-.861-.861h-19.419c-.071,0-.141,0-.211,0-.473.034-.67.356-.65,1.015.015.5.394.273.6.275q5.717.021,11.434.005a1.122,1.122,0,0,1,.867.363q3.273,3.294,6.568,6.566a1.194,1.194,0,0,1,.378.931q-.016,6.437-.007,12.875a1.443,1.443,0,0,0,.007.315.32.32,0,0,0,.134.207C3168,6274.141,3168.371,6274.274,3168.8,6274.435Zm2.332,5.65a5.317,5.317,0,1,0-5.338,5.3A5.331,5.331,0,0,0,3171.129,6280.085Zm-10.621-25.416c0,.046-.017.148-.018.25,0,1.314,0,2.627,0,3.941,0,.665.226.886.892.887q1.953,0,3.906,0c.112,0,.224-.014.286-.019Zm2.379,19.062c.8-.01.672.081.676-.664s.08-.653-.651-.651c-.75,0-.679-.123-.677.66C3162.238,6273.812,3162.132,6273.722,3162.888,6273.731Z" transform="translate(-3143.157 -6250.405)" fill="#f1f1f1"/>
    <path id="Path_58472" data-name="Path 58472" d="M3159.33,6302.455h5.7a1.085,1.085,0,0,1,1.222,1.2c0,.364.007.727,0,1.09a1.06,1.06,0,0,1-1.051,1.056c-.164.007-.328,0-.492,0H3153.7a1.13,1.13,0,0,1-1.289-1.293c0-.293,0-.587,0-.879a1.1,1.1,0,0,1,1.191-1.179Q3156.464,6302.451,3159.33,6302.455Zm5.894,1.054H3153.43v1.243h11.793Z" transform="translate(-3149.504 -6286.125)" fill="#f1f1f1"/>
    <path id="Path_58473" data-name="Path 58473" d="M3159.329,6320.638h-5.661a1.107,1.107,0,0,1-1.26-1.244c0-.292,0-.586,0-.879a1.109,1.109,0,0,1,1.222-1.224c1.523,0,3.047,0,4.57,0,2.251,0,4.5.014,6.751-.008a1.164,1.164,0,0,1,1.3,1.318c-.023.291,0,.585,0,.878a1.058,1.058,0,0,1-1.155,1.159Q3162.212,6320.642,3159.329,6320.638Zm5.906-2.328h-11.37a.705.705,0,0,0-.243.009c-.072.026-.176.1-.178.156-.016.37-.008.741-.008,1.133.173.008.3.02.427.02H3164.8a.733.733,0,0,0,.244-.01c.072-.027.176-.1.178-.157C3165.243,6319.091,3165.235,6318.719,3165.235,6318.311Z" transform="translate(-3149.505 -6296.302)" fill="#f1f1f1"/>
    <path id="Path_58474" data-name="Path 58474" d="M3159.312,6290.967q-2.795,0-5.591,0c-.905,0-1.316-.41-1.318-1.3,0-.316-.009-.632,0-.949a1.068,1.068,0,0,1,1.125-1.092q5.8-.006,11.6,0a1.041,1.041,0,0,1,1.11,1.1c.006.35,0,.7,0,1.054a1.086,1.086,0,0,1-1.2,1.2c-1.723,0-3.446,0-5.169,0Zm-5.885-2.34c0,.336.022.606-.005.872-.036.349.072.458.44.456,3.647-.015,7.294-.008,10.941-.008h.436c0-.3,0-.571,0-.837,0-.481,0-.482-.474-.482h-11.338Z" transform="translate(-3149.5 -6275.943)" fill="#f1f1f1"/>
    <path id="Path_58475" data-name="Path 58475" d="M3155.244,6268.6c-.573,0-1.147,0-1.721,0a1.069,1.069,0,0,1-1.122-1.095c-.013-.374-.011-.75,0-1.124a1.05,1.05,0,0,1,1.036-1.11q1.808-.045,3.618,0a1.025,1.025,0,0,1,1.021,1.111q.008.545,0,1.089a1.051,1.051,0,0,1-1.145,1.129C3156.369,6268.608,3155.807,6268.6,3155.244,6268.6Zm-1.82-1.07a.51.51,0,0,0,.134.053c1.1.006,2.2.012,3.3,0,.071,0,.2-.106.2-.168.02-.37.009-.74.009-1.145-1.185,0-2.317,0-3.448.01a.266.266,0,0,0-.185.182C3153.414,6266.828,3153.424,6267.188,3153.424,6267.534Z" transform="translate(-3149.495 -6260.593)" fill="#f1f1f1"/>
    <path id="Path_58476" data-name="Path 58476" d="M3200.783,6304.1c0-.2-.007-.4,0-.6a1.056,1.056,0,0,1,1.047-1.058q.615-.018,1.231,0a1.045,1.045,0,0,1,1.043,1.024c.021.432.021.867,0,1.3a1.047,1.047,0,0,1-1.078,1.024c-.363.01-.726.006-1.09,0a1.069,1.069,0,0,1-1.154-1.13c0-.188,0-.376,0-.563Zm2.33.026c0-.659,0-.659-.675-.659h-.035c-.683.012-.618-.112-.622.607,0,.695,0,.695.676.695C3203.113,6304.769,3203.113,6304.769,3203.113,6304.126Z" transform="translate(-3182.703 -6286.111)" fill="#f1f1f1"/>
    <path id="Path_58477" data-name="Path 58477" d="M3200.786,6289.267c0-.222-.01-.446,0-.668a1.027,1.027,0,0,1,1-.986c.445-.014.891-.015,1.335,0a1,1,0,0,1,.975.929,12.89,12.89,0,0,1,.014,1.335,1.048,1.048,0,0,1-1.037,1.069,10.987,10.987,0,0,1-1.229,0,1.062,1.062,0,0,1-1.06-1.119c0-.187,0-.375,0-.562Zm1.676-.65c-.788.01-.676-.088-.679.662,0,.771-.065.653.65.653.766,0,.679.113.677-.66C3203.108,6288.544,3203.228,6288.626,3202.462,6288.617Z" transform="translate(-3182.703 -6275.932)" fill="#f1f1f1"/>
    <path id="Path_58478" data-name="Path 58478" d="M3206.021,6337.031l1.845-1.62a1.135,1.135,0,0,1,1.825.1c.221.243.446.483.653.738a1.051,1.051,0,0,1-.091,1.516q-1.831,1.648-3.688,3.263a.778.778,0,0,1-1.116-.011q-1.214-1.016-2.414-2.047a1.078,1.078,0,0,1-.1-1.643c.247-.282.5-.562.761-.83a1.065,1.065,0,0,1,1.492-.119C3205.457,6336.578,3205.719,6336.795,3206.021,6337.031Zm-.007,3.134,3.613-3.2-.881-.976c-.713.626-1.389,1.223-2.068,1.815a.848.848,0,0,1-1.282.031c-.294-.228-.585-.461-.9-.714l-.9.987C3204.424,6338.817,3205.209,6339.483,3206.014,6340.165Z" transform="translate(-3183.951 -6308.46)" fill="#f1f1f1"/>
  </g>
</svg>
