<svg xmlns="http://www.w3.org/2000/svg" width="35.806" height="35.59" viewBox="0 0 35.806 35.59">
  <g id="SyncRecordsIcon" transform="translate(-31.302 -31.143)">
    <g id="icon" transform="translate(31.303 31.143)">
      <g id="Group_43069" data-name="Group 43069">
        <path id="Path_58490" data-name="Path 58490" d="M3939.98,6256.451c.328.136.62.247.9.376a5.342,5.342,0,0,1-2.11,10.216c-.884.018-1.768,0-2.767,0-.023.379-.06.711-.061,1.043-.005,2.09,0,4.18,0,6.27,0,1.091-.1,1.188-1.193,1.2-.626.005-1.253,0-1.951,0-.024.4-.04.706-.061,1.012-.046.686-.159.8-.865.847-.157.011-.316.006-.475.006h-12.351c-.126,0-.253,0-.38,0-.95-.033-1.024-.1-1.026-1.043-.006-2.818,0-5.637,0-8.455,0-.249-.026-.5-.048-.873-.843,0-1.654.014-2.464,0a16.8,16.8,0,0,1-2.553-.122,5.265,5.265,0,0,1-4.339-5.356,5.385,5.385,0,0,1,4.673-5.2c.214-.033.432-.049.631-.071.923-3.369,4.05-5.1,7.616-3.353a9.7,9.7,0,0,1,5.679-6.552,9.321,9.321,0,0,1,5.953-.437C3936.3,6246.81,3940.362,6250.217,3939.98,6256.451Zm-22.514,9.778.072-.217a.541.541,0,0,0,.068-.174c.01-1.234.006-2.469.023-3.7.031-2.348-.3-1.623,1.477-3.04.958-.761,1.761-1.873,3.3-1.633,0-.48,0-.854,0-1.228,0-1.225,0-1.228,1.184-1.229q5.555,0,11.112,0c.19,0,.38.008.57,0a.58.58,0,0,1,.664.627c.015.252.012.506.012.759q0,4.321,0,8.643v1.09a12.935,12.935,0,0,0,4.056-.19,4.372,4.372,0,0,0,3.149-4.266,4.461,4.461,0,0,0-3.289-4.272c-.919-.265-.929-.265-.863-1.215a9.2,9.2,0,0,0-.292-3.385,8.625,8.625,0,0,0-16.6.331c-.353,1.377-.353,1.377-1.5.642a3.891,3.891,0,0,0-5.9,2.151c-.289,1.116-.8,1.427-1.788,1.4a.515.515,0,0,0-.094.01,4.414,4.414,0,0,0-3.652,4.136,4.283,4.283,0,0,0,3.4,4.516A46.062,46.062,0,0,0,3917.466,6266.229Zm14.219,10.225c.227-1.582.139-17.318-.085-17.96a72.264,72.264,0,0,0-9.874.128c0,.382,0,.789,0,1.2-.009,1.066-.062,1.117-1.135,1.13-.68.008-1.359.022-2.01.033v15.473Zm-8.375-18.969h3.977c1.519,0,3.038-.008,4.556,0,.759.007.862.126.893.887.009.222,0,.443,0,.665q0,7.213,0,14.427c0,.363.025.728.037,1.054h2.16v-18.6H3923.31Z" transform="translate(-3908.231 -6245.665)" fill="#f1f1f1"/>
        <path id="Path_58491" data-name="Path 58491" d="M3985.25,6348.04c0-.492,0-.835,0-1.178,0-.442-.006-.885.005-1.327.008-.322.037-.691.452-.71s.473.334.49.667c0,.063,0,.126,0,.189,0,.79.011,1.58,0,2.37-.014.756-.146.924-.867.928-2.875.018-5.751.008-8.627.008a.735.735,0,0,1-.371-.039c-.166-.113-.4-.278-.405-.428s.215-.376.384-.437a2.3,2.3,0,0,1,.751-.042q3.508,0,7.015,0Z" transform="translate(-3954.475 -6313.4)" fill="#f1f1f1"/>
        <path id="Path_58492" data-name="Path 58492" d="M3922.923,6251.7c0,.979.009,1.855,0,2.732-.006.394.115.879-.439,1.018-.331.083-.5-.279-.509-1.042-.005-.886-.012-1.773,0-2.659.014-.824.14-.972.918-.985,1.234-.021,2.469-.006,3.7,0a.733.733,0,0,1,.372.044,3.543,3.543,0,0,1,.452.423c-.172.154-.322.391-.52.442a3.821,3.821,0,0,1-.944.028C3924.981,6251.706,3924.009,6251.7,3922.923,6251.7Z" transform="translate(-3917.613 -6249.144)" fill="#f1f1f1"/>
        <path id="Path_58493" data-name="Path 58493" d="M3959.676,6354.98a14.416,14.416,0,0,1,1.605.021c.185.021.343.283.513.435-.169.153-.334.432-.51.438-1.1.043-2.206.038-3.308.022-.293,0-.618-.144-.534-.5a.727.727,0,0,1,.533-.4c.562-.055,1.133-.02,1.7-.02Z" transform="translate(-3941.839 -6320.326)" fill="#f1f1f1"/>
        <path id="Path_58494" data-name="Path 58494" d="M3923.634,6331.062c0-.664-.03-1.33.019-1.99.014-.187.256-.356.394-.533.146.166.416.329.42.5q.052,2.133,0,4.268a.681.681,0,0,1-.4.519c-.355.043-.442-.27-.442-.581q0-1.091,0-2.182Z" transform="translate(-3918.747 -6302.275)" fill="#f1f1f1"/>
        <path id="Path_58495" data-name="Path 58495" d="M3943.293,6251.729a5.78,5.78,0,0,1-1.127-.021c-.184-.037-.323-.3-.483-.458.149-.139.291-.388.447-.4a20.465,20.465,0,0,1,2.354,0c.167.01.317.3.476.458-.178.143-.34.373-.537.408a6.439,6.439,0,0,1-1.129.019Z" transform="translate(-3931.082 -6249.184)" fill="#f1f1f1"/>
        <path id="Path_58496" data-name="Path 58496" d="M3923.593,6319.721a5.252,5.252,0,0,1,.065-.942.514.514,0,0,1,.392-.3.5.5,0,0,1,.376.318,15.663,15.663,0,0,1,0,1.894c-.007.114-.257.3-.389.3a.516.516,0,0,1-.383-.317,5.166,5.166,0,0,1-.018-.945Z" transform="translate(-3918.725 -6295.402)" fill="#f1f1f1"/>
        <path id="Path_58497" data-name="Path 58497" d="M3981.037,6256.206a13.8,13.8,0,0,1,1.322.567,5.712,5.712,0,0,1,2.908,3.883c.068.308.075.593-.277.69s-.516-.15-.589-.455a4.989,4.989,0,0,0-3.487-3.767.673.673,0,0,1-.355-.536C3980.572,6256.443,3980.878,6256.324,3981.037,6256.206Z" transform="translate(-3957.637 -6252.865)" fill="#f1f1f1"/>
        <path id="Path_58498" data-name="Path 58498" d="M3915.782,6293.438c.086-.1.229-.395.337-.382a.8.8,0,0,1,.535.363,11.252,11.252,0,0,0,.789,1.583,4.144,4.144,0,0,0,1.291.91c.276.15.569.289.384.6a.76.76,0,0,1-.7.224,4.714,4.714,0,0,1-1.3-.745A3.879,3.879,0,0,1,3915.782,6293.438Z" transform="translate(-3913.389 -6278.037)" fill="#f1f1f1"/>
        <path id="Path_58499" data-name="Path 58499" d="M3958.941,6304.393a3.1,3.1,0,0,0-2.6-3.005,3.447,3.447,0,0,0-2.858.669c-.1.079-.2.206-.3.215-.2.016-.5.028-.571-.082a.677.677,0,0,1,.06-.583,1.617,1.617,0,0,1,.5-.429,4.347,4.347,0,0,1,6.455,1.817c.125.284.219.583.363.971a3.32,3.32,0,0,1,.5-.575.582.582,0,0,1,.5-.086.505.505,0,0,1,.19.457,21.062,21.062,0,0,1-1.177,2.042.683.683,0,0,1-.652.041,15.476,15.476,0,0,1-1.636-1.283c-.123-.109-.1-.38-.144-.577a1.843,1.843,0,0,1,.671-.071A3.049,3.049,0,0,1,3958.941,6304.393Z" transform="translate(-3938.512 -6283.054)" fill="#f1f1f1"/>
        <path id="Path_58500" data-name="Path 58500" d="M3946.065,6313.359a3.485,3.485,0,0,1-.492.722.644.644,0,0,1-.564.123.567.567,0,0,1-.156-.542,8.6,8.6,0,0,1,1.451-2.218c.727.575,1.424,1.1,2.085,1.672a.56.56,0,0,1,.032.555.642.642,0,0,1-.562.065,3.039,3.039,0,0,1-.647-.43,3.029,3.029,0,0,0,2.6,2.405,3.457,3.457,0,0,0,2.682-.674,1.529,1.529,0,0,1,.458-.326.565.565,0,0,1,.487.1.532.532,0,0,1,.024.5,2.038,2.038,0,0,1-.543.516,4.35,4.35,0,0,1-6.414-1.516C3946.357,6314.036,3946.24,6313.745,3946.065,6313.359Z" transform="translate(-3933.232 -6290.598)" fill="#f1f1f1"/>
      </g>
    </g>
  </g>
</svg>
